<?xml version="1.0" encoding="utf-8"?>
<!-- Generator: Adobe Illustrator 19.0.0, SVG Export Plug-In . SVG Version: 6.00 Build 0)  -->
<svg version="1.1" id="Ebene_1" xmlns="http://www.w3.org/2000/svg" xmlns:xlink="http://www.w3.org/1999/xlink" x="0px" y="0px"
	 viewBox="0 0 612 792" style="enable-background:new 0 0 612 792;" xml:space="preserve">
<style type="text/css">
	.st0{fill:#FFFFFF;}
</style>
<g>
	<path class="st0" d="M339.4,176.7c-55.6,0-111.3,0-166.9,0c0.4-0.2,0.8-0.3,1.1-0.5c1.2-0.6,1.8-1.7,1.6-3c-0.2-1.2-1-1.9-2.4-2
		c-0.6-0.1-1.2,0-1.8-0.1c-0.5-0.1-0.9-0.2-1.4-0.3c0-0.1,0-0.3-0.1-0.4c0.6-0.3,1.1-0.7,1.7-0.8c3-0.7,3.6-1.6,3-4.4
		c0.6-0.2,1.2-0.4,2-0.6c-0.4-0.5-0.6-0.8-0.9-1.1c0,0.1-0.1,0.3-0.1,0.4c-1.1-0.1-2.3-0.2-3.4-0.4c-1.3-0.2-2.6-0.1-3.5,0.9
		c-0.5,0.6-1.1,1.6-0.9,2.3c0.2,1,1,1.9,1.4,2.7c-0.3,0.6-1.1,1.3-1,2c0.1,1.1,1.4,0.9,2.2,1c0.7,0.1,1.6,0,2.3,0.2
		c0.5,0.2,1.1,0.8,1.1,1.3c0,0.5-0.6,1.2-1,1.4c-1.9,0.8-3.3,0-3.8-2c-0.4,0-0.9,0.1-1.3,0.1c-0.3,1.7,0.1,2.4,1.5,3
		c0.3,0.1,0.6,0.3,0.9,0.4c-9.9,0-19.8,0-29.8,0c0-10.8,0-21.5,0-32.3c0.6,0,1.2-0.1,1.8-0.1c32.1,0,64.2,0,96.3,0
		c1.3,0,1.6-0.4,1.6-1.6c0-21.1,0-42.1,0-63.2c0-0.5,0-0.9-0.1-1.5c-0.8,0-1.5,0-2.2,0c-31.8,0-63.6,0-95.4,0c-0.6,0-1.3,0-1.9,0
		c0-0.4-0.2-1,0.6-0.8c0.2,0,0.3,0,0.5,0c73.3,0,146.6,0,219.9,0c-0.3,0.3-0.5,0.6-0.8,0.8c-9.7,8.4-20.7,14.7-32.5,19.6
		c-0.1,0-0.2,0.1-0.4,0.1c-0.1,0.1-0.2,0.2-0.3,0.2c13.7-3.3,25.6-10.1,36.6-18.8c-0.9-0.7-1.6-1.3-2.4-1.9c20.8,0,41.6,0,62.3,0
		c0,29.3,0,58.5,0,87.8c-1.4-2.1-2-2.1-5.5-0.5c-0.1-0.3-0.2-0.7-0.4-1.1c-0.5,0.1-1,0.3-1.3,0.3c0,3.2,0,6.3,0,9.4
		c0.6,0,1.1,0,1.7,0c0-2,0-3.9,0-5.9c0-1.4,0.9-2.3,2.3-2.4c1,0,1.3,0.5,1.3,2.2c0,0.7,0,1.4,0,2.2c0,1.3,0,2.6,0,3.9
		c0.7,0,1.2,0.1,1.7,0.1c0,1.2,0,2.4,0,3.6c-27.1,0-54.1,0-81.2,0c0.6-0.3,1.2-0.6,1.7-1c0.9-0.7,1.2-1.7,0.8-2.9
		c-0.4-1.1-1.2-1.6-2.3-1.7c-1-0.1-2-0.1-3.1-0.2c0.2-1.3,1.1-1.4,1.8-1.5c2.8-0.6,3.5-1.7,2.8-4.4c0.6-0.2,1.2-0.4,2-0.6
		c-0.3-0.5-0.5-0.8-0.7-1.1c0,0.1-0.1,0.2-0.1,0.3c-1.1-0.1-2.2-0.1-3.3-0.3c-1.4-0.3-2.7-0.2-3.8,0.8c-1.7,1.4-1.3,3.4,0.9,5
		c0,0.1-0.1,0.2-0.2,0.2c-0.7,0.3-1.4,0.7-1.2,1.7c0.2,1.1,1.1,1,1.9,1.1c0.9,0.1,1.8,0,2.6,0.3c0.5,0.2,1,0.9,1,1.3
		c0,0.5-0.5,1.2-1,1.4c-1.9,0.8-3.3,0-3.8-2.1c-0.5,0.2-1.3,0.4-1.3,0.6c-0.1,0.6,0,1.4,0.4,1.8C338,176.1,338.8,176.3,339.4,176.7z
		 M255.4,102.6c0.1,0.2,0.1,0.3,0.2,0.5c0.3,0,0.6,0.2,1,0.1c2.7-0.1,5.5-0.3,8.2-0.5c2.4-0.1,4.7-0.5,7.1-0.4
		c4.1,0.2,7.9,1.7,11.6,3.5c4.7,2.3,8.7,5.4,12.3,9.1c3.2,3.2,6.5,6.3,10.7,8.3c2.1,1,3.2,0.8,4.4-1.2c0.8-1.3,1.3-2.8,2.1-4
		c0.8-1.2,1.7-2.6,2.9-3.4c5.1-3.5,10.8-5.7,16.8-6.9c7.4-1.6,15.1-1.7,22.6-2.6c4.2-0.5,8.4-0.9,12.4-2c6.6-1.8,12.7-5,18.5-8.6
		c0.6-0.3,1-0.8,1.6-1.2c-2.6,1-5,2.1-7.5,3.1c-8.7,3.2-17.8,3.3-27,2.9c-8.2-0.4-16.3-1.1-24.5-0.4c-6.6,0.5-12.9,2.1-18.7,5.2
		c-2.2,1.2-4.4,2.4-6.6,3.6c-1,0.5-2,0.5-3.1-0.1c-3.3-1.8-6.6-3.6-10.1-5c-5.7-2.3-11.6-3.8-17.8-3.3c-2.1,0.2-4.2,0.4-6.3,0.8
		c-2.8,0.5-5.6,1-8.3,1.6C256.9,101.8,256.2,102.3,255.4,102.6z M375.6,86.9c-1-0.6-1.8-1-2.6-1.6c-0.6-0.4-1-0.3-1.6,0.2
		c-7.3,6.1-15.5,10.4-25,12.5C357.5,97.5,366.8,93.2,375.6,86.9z M367,81.8c-2.1-1.7-2.1-1.6-3.3-0.7c-6.4,5.4-13.5,9.7-21.2,13
		c-2.9,1.2-5.8,2.3-8.7,3.4C346.5,95.7,356.9,89.2,367,81.8z M215.1,173.1c0.7,0,1.1,0,1.7,0c0-2.1,0-4.1,0-6.1c0-1,1.2-2.2,2.2-2.1
		c1.4,0,1.2,1.1,1.2,1.9c0,2.1,0,4.2,0,6.3c0.6,0,1.1,0,1.6,0c0-2.7,0.1-5.4,0-8c-0.1-1.3-1.6-2.1-2.9-1.6c-0.8,0.3-1.5,0.7-2.3,1.2
		c-1.5-2-3.1-1.4-4.9-0.1c-0.2-1.5-1-1-1.6-0.8c0,3.2,0,6.2,0,9.3c0.6,0,1.1,0,1.7,0c0-2.1,0-4.2,0-6.2c0-1.1,1-2,2.2-2
		c1.3,0,1.2,0.9,1.2,1.8C215.1,168.8,215.1,170.9,215.1,173.1z M201.4,173.1c0-2.1,0-4.1,0-6.1c0-1.1,1-2.2,2.1-2.2
		c1.4,0,1.3,1.1,1.3,2c0,2.1,0,4.1,0,6.3c0.6,0,1,0,1.5,0c0-2.6,0.1-5.2,0-7.8c-0.1-1.5-1.5-2.3-3-1.8c-0.8,0.3-1.5,0.8-2.2,1.1
		c-1.6-1.6-2.3-1.7-4.8-0.2c-0.2-0.3-0.3-0.6-0.5-1c-0.5,0.1-0.9,0.2-1.2,0.3c0,3.2,0,6.3,0,9.4c0.6,0,1.1,0,1.7,0
		c0-2.1,0-4.1,0-6.1c0-1.3,0.8-2.1,2.1-2.1c1.4,0,1.3,1.1,1.3,2c0,0.8,0,1.5,0,2.3c0,1.3,0,2.6,0,3.9
		C200.4,173.1,200.8,173.1,201.4,173.1z M386.6,92.4c-1.4-0.7-2.6-1.2-3.7-1.8c-0.6-0.4-1.1-0.3-1.7,0.1c-4,2.8-8.5,4.7-13.2,6
		c-2.5,0.7-5.1,1.2-7.7,1.8C369.4,98.6,378.2,97.1,386.6,92.4z M274,172.5c2.2,1.8,4.9,0.4,5.5-2.3c0.2-0.9,0.3-1.9,0.2-2.9
		c-0.2-3.4-2.7-4.8-5.8-3.3c-0.1,0-0.2,0-0.5,0c0-1.6,0-3.1,0-4.9c-0.8,0.2-1.3,0.3-1.7,0.4c0,4.6,0,9.1,0,13.8
		C272.7,173.1,273.2,172.8,274,172.5z M142,168.1c1.3-0.1,2.4-0.1,3.5-0.3c1.7-0.3,2.8-1.7,3-3.3c0.2-1.9-0.5-3.7-2.1-4
		c-2-0.4-4-0.4-6.1-0.6c0,4.4,0,8.5,0,12.5c0,0.2,0,0.4,0.1,0.7c0.5,0,1,0,1.7,0C142,171.4,142,169.8,142,168.1z M278.2,144.3
		c1.5,0,2.9,0.1,4.3,0c1.8-0.2,2.9-1.7,2.4-3.4c-0.2-0.8-1-1.4-1.6-2.1c0.9-0.5,1.6-1.4,1.2-2.6c-0.3-0.7-1-1.6-1.7-1.8
		c-1.4-0.3-3-0.3-4.5-0.4C278.2,137.6,278.2,140.9,278.2,144.3z M290,168.8c-0.1-0.9-0.1-1.6-0.2-2.3c-0.2-1.6-1.3-2.8-2.8-3.1
		c-1.5-0.3-3.1,0.3-4,1.7c-1.1,1.7-1.1,3.5-0.5,5.4c0.8,2.7,4,3.8,6.4,2.3c0.7-0.4,0.7-0.8,0.1-1.4c-1.2,0.7-2.6,1.2-3.9,0.3
		c-0.9-0.6-1.1-1.6-0.9-2.8C286.1,168.8,287.9,168.8,290,168.8z M413.9,168.8c-0.1-0.9-0.1-1.6-0.2-2.2c-0.2-1.5-1-2.6-2.5-3.1
		c-1.5-0.5-2.9-0.1-3.9,1.1c-1.4,1.6-1.4,3.5-1,5.4c0.6,3,3.8,4.3,6.4,2.8c0.8-0.5,1-0.9,0.1-1.4c-1.2,0.7-2.4,1.1-3.7,0.3
		c-1-0.6-1.2-1.6-1-2.8C410,168.8,411.8,168.8,413.9,168.8z M156.7,168.2c0.1,0.6,0.1,1.3,0.3,1.9c0.5,2.1,1.8,3.2,3.8,3.3
		c2,0,3.6-1.1,3.9-3.2c0.2-1.4,0.1-3-0.2-4.3c-0.5-1.9-2.6-2.8-4.5-2.4C157.9,163.9,156.8,165.5,156.7,168.2z M263.7,168.7
		c1.5,0,2.9,0,4.3,0c1.5,0,1.6-0.1,1.3-1.6c0-0.2-0.1-0.4-0.1-0.6c-0.3-1.8-1.4-2.9-3-3.2c-1.6-0.2-3.2,0.6-4,2.1
		c-0.7,1.5-0.7,3-0.4,4.6c0.7,3,4,4.3,6.6,2.6c0.7-0.5,0.7-0.9,0-1.4c-1.2,0.8-2.5,1.1-3.8,0.3C263.7,171,263.4,170,263.7,168.7z
		 M349.1,168.7c1,0,1.9,0,2.8,0c1,0,1.9,0,3,0c-0.1-1-0.1-1.9-0.3-2.7c-0.7-2.7-3.7-3.7-5.8-1.9c-1.3,1.1-1.7,2.6-1.7,4.2
		c0,1.8,0.4,3.5,2.2,4.5c1.5,0.8,3,0.7,4.5-0.1c0.8-0.4,0.9-0.9,0.2-1.4C351.1,172.8,349.2,171.9,349.1,168.7z M317.5,165.5
		c1.2-0.3,2.2-0.6,3.2-0.7c1-0.1,1.3,0.7,1.4,1.6c0.1,1-0.6,0.8-1.2,0.9c-1.1,0.3-2.3,0.5-3.3,1.1c-1,0.6-1.3,2.1-0.8,3.3
		c0.4,1.1,1.4,1.7,2.5,1.6c1-0.1,2.1-0.5,3.3-0.7c0.2,0.1,0.5,0.5,1.2,1.1c0.2-0.7,0.4-1.2,0.4-1.6c-0.1-0.7-0.4-1.5-0.4-2.2
		c-0.1-1.4,0-2.8,0-4.2c0-1.2-0.6-2-1.8-2.2c-1.8-0.4-3.4,0.2-5,1.1C317.1,165,317.3,165.3,317.5,165.5z M385.8,171.2
		c-1.2,0.8-2.5,1.2-3.7,0.4c-1-0.6-1.3-1.6-1.2-2.9c1.9,0,3.8,0,5.7,0c0-0.8,0.1-1.4,0-2.1c-0.3-2-1.6-3.3-3.4-3.4
		c-1.9-0.1-3.6,1.1-4,3c-0.2,1.3-0.3,2.7,0.1,4c0.8,3.2,4.7,4.1,7.1,1.7C386.2,171.8,386.1,171.5,385.8,171.2z M185,165.7
		c1.3-0.7,2.6-1.4,3.8-0.7c0.5,0.3,0.6,1.3,0.9,2.2c-0.8,0.1-1.4,0-1.8,0.2c-0.9,0.2-1.7,0.4-2.5,0.8c-1.2,0.6-1.7,2-1.3,3.4
		c0.3,1.1,1.2,1.9,2.6,1.9c1-0.1,2.1-0.5,3.3-0.8c0.2,0.1,0.6,0.5,1,0.8c0.7-0.5,1.1-0.9,0.5-1.7c-0.2-0.3-0.2-0.8-0.2-1.2
		c0-1.3,0-2.5,0-3.8c0-2.7-1.3-3.8-3.9-3.3c-1,0.2-1.9,0.7-3,1.1C184.6,165,184.8,165.3,185,165.7z M237.3,163.5
		c-1.3-0.1-1.8,0.2-1.8,1.4c0.1,1.9,0,3.7,0,5.6c0.1,2.4,2.1,3.6,4.4,2.5c0.4-0.2,0.8-0.5,1.2-0.7c0.1,0.1,0.2,0.2,0.3,0.2
		c0.4,0.2,0.8,0.6,1.1,0.5c0.6-0.2,0.6-0.7,0.4-1.3c-0.2-0.7-0.2-1.4-0.2-2.1c0-2,0-4,0-6c-1.7,0-1.7,0-1.7,1.4c0,1.6,0,3.1,0,4.7
		c0,1.3-0.9,2.3-2.1,2.4c-1.1,0-1.6-0.6-1.6-2.2C237.3,167.8,237.3,165.6,237.3,163.5z M328.9,173.1c0-2.1,0-4.1,0-6.1
		c0-1.2,1.1-2.3,2.4-2.2c1.3,0.1,1.3,1.1,1.3,2c0,0.8,0,1.5,0,2.3c0,1.3,0,2.6,0,3.9c0.6,0,1.1,0,1.6,0c0-2.6,0.1-5.1,0-7.6
		c-0.1-1.6-1.6-2.4-3.2-1.9c-0.7,0.2-1.4,0.6-2.1,1c-0.2-0.4-0.3-0.7-0.5-1.1c-0.5,0.1-0.9,0.3-1.2,0.3c0,3.3,0,6.3,0,9.4
		C327.8,173.1,328.3,173.1,328.9,173.1z M294.4,173c0-2,0-3.9,0-5.8c0-1.4,1-2.4,2.3-2.4c1,0,1.4,0.5,1.4,2.2c0,0.7,0,1.4,0,2.2
		c0,1.3,0,2.6,0,3.9c0.7,0,1.1,0,1.7,0c0-2.5,0-4.9,0-7.3c0-1.7-1.5-2.8-3.1-2.3c-0.7,0.2-1.4,0.6-2.2,1c-0.2-0.4-0.3-0.7-0.5-1.1
		c-0.5,0.2-0.9,0.3-1.2,0.4c0,3.2,0,6.3,0,9.4c0.4,0,0.7,0,0.9,0C293.8,173.1,294,173.1,294.4,173z M403.2,173.1
		c0-2.6,0.1-5.1,0-7.6c-0.1-1.5-1.4-2.3-2.9-2c-0.8,0.2-1.6,0.6-2.5,1c-0.1-0.3-0.3-0.7-0.4-1.1c-0.5,0.1-0.9,0.3-1.2,0.3
		c0,3.2,0,6.3,0,9.4c0.6,0,1.1,0,1.7,0c0-2,0-3.9,0-5.9c0-1.4,1-2.4,2.3-2.4c1.1,0,1.4,0.5,1.4,2.3c0,2,0,4,0,6
		C402.1,173.1,402.6,173.1,403.2,173.1z M265.4,144.4c0.9,0,1.7,0,2.4,0c2.7,0,4.2-1.1,4.5-3.8c0.2-1.4,0-3-0.5-4.3
		c-0.7-1.8-4.1-2.9-6-2.2c-0.2,0.1-0.4,0.5-0.4,0.8C265.4,138,265.4,141.1,265.4,144.4z M327.1,137.6c-0.3-0.3-0.5-0.7-0.7-0.7
		c-1.3-0.1-2.6-0.2-3.8-0.1c-1.8,0.1-2.9,1.6-2.4,3.1c0.2,0.6,0.8,1.1,1,1.4c-0.3,0.7-0.8,1.3-0.7,1.7c0.2,0.4,1,0.6,1.5,0.7
		c0.5,0.1,1.1,0,1.6,0.2c0.5,0.2,1.1,0.7,1.1,1.1c0,0.4-0.6,1-1,1.2c-1.5,0.5-2.4-0.1-2.8-1.9c-0.4,0.3-1,0.6-1,0.8
		c0.1,0.6,0.4,1.5,0.7,1.6c1.3,0.3,2.6,0.5,3.9,0.4c1.2-0.1,1.8-1.2,1.6-2.3c-0.1-1.2-0.9-1.6-2-1.8c-0.8-0.1-1.5-0.2-2.3-0.3
		c0-0.1,0-0.2-0.1-0.3c0.4-0.2,0.8-0.5,1.2-0.7c0.7-0.4,1.7-0.5,2.2-1.1c0.5-0.6,0.4-1.6,0.5-2.5C326,137.9,326.5,137.8,327.1,137.6
		z M308.8,165c-0.1-0.5-0.1-1.1-0.3-1.3c-1.1-0.8-3.7-0.7-4.7,0.2c-0.6,0.6-1,1.7-1.1,2.5c-0.1,1,0.7,1.8,1.7,2.1
		c0.6,0.2,1.1,0.3,1.7,0.4c0.9,0.2,1.6,0.6,1.5,1.7c-0.1,1.2-1,1.5-1.9,1.4c-1-0.1-1.9-0.5-3-0.7c-0.1,0.3-0.3,0.7-0.4,1.1
		c1.8,1,3.5,1.2,5,0.8c1.3-0.4,2.2-1.6,2.2-2.8c0-1.2-0.7-2.2-2.1-2.7c-0.5-0.2-1.1-0.3-1.6-0.4c-0.8-0.2-1.4-0.6-1.3-1.6
		c0.1-0.9,0.9-1.3,1.7-1.2C306.9,164.5,307.7,164.8,308.8,165z M363.5,164.1c-1.3-0.8-2.8-1-4-0.7c-1.5,0.4-2.3,1.5-2.3,2.9
		c0,1.4,0.8,2.2,2.4,2.5c0.4,0.1,0.7,0.2,1.1,0.2c1,0.2,1.7,0.6,1.5,1.8c-0.2,1.2-1.1,1.4-2,1.3c-0.9-0.1-1.9-0.5-2.9-0.7
		c-0.1,0.3-0.3,0.7-0.4,1c1.7,1,3.4,1.3,4.8,0.8c1.4-0.4,2.3-1.6,2.3-3c0-1.3-0.8-2.2-2.3-2.6c-0.5-0.1-1.1-0.2-1.6-0.4
		c-0.5-0.3-1.2-1-1.1-1.2c0.2-0.6,0.8-1.2,1.3-1.3c0.7-0.1,1.5,0.2,2.2,0.4c0.1,0,0.2,0,0.4,0C363.2,164.7,363.3,164.4,363.5,164.1z
		 M361.8,139.3c0.1,0,0.2-0.1,0.3-0.1c0.9,1.4,1.8,2.8,2.8,4.2c0.8,1.1,0.8,1.1,2.3,0.8c-1-1.4-1.9-2.8-3-4.1
		c-0.7-0.9-0.6-1.5,0.1-2.3c1-1.1,1.8-2.3,2.7-3.5c-0.1-0.1-0.2-0.2-0.3-0.3c-2.7,0.2-2.9,3.4-5,4.6c0-1.4,0-2.6,0-3.8
		c0-0.2-0.4-0.5-0.6-0.7c-0.2,0.2-0.7,0.4-0.7,0.7c0,3.2,0,6.3,0,9.5c0.5,0,0.9,0,1.4,0C361.8,142.6,361.8,141,361.8,139.3z
		 M259.4,139c-0.1,0.1-0.2,0.3-0.3,0.4c0.4,0.2,0.7,0.5,1.1,0.6c0.3,0.2,1,0.3,1,0.4c0.1,0.9,0.2,2-0.2,2.5
		c-0.3,0.4-1.6,0.4-2.3,0.2c-0.7-0.3-1.5-1-1.6-1.7c-0.3-1.3-0.3-2.7-0.1-4c0.4-2.2,2-3,4.1-2c0.8,0.3,1.1,0.2,1.2-0.5
		c-2.7-1.9-6-0.8-6.8,2.2c-0.3,1-0.3,2.1-0.2,3.1c0.3,3.4,3.4,5.2,6.5,3.8c0.4-0.2,0.8-0.7,0.8-1.1c0.1-1.3,0-2.6,0-4
		C261.4,139,260.4,139,259.4,139z M352.8,137.3c-2.4-0.8-3.9-0.4-4.4,1.5c-0.3,1.2-0.3,2.5-0.1,3.7c0.2,1.3,1.2,2,2.4,2
		c1.1,0,2.3-0.2,3.4-0.3c0-3.2,0-6.3,0-9.5c0-1-0.3-1.3-1.4-1.1C352.8,134.8,352.8,136,352.8,137.3z M301.2,144.1
		c0-3.4,0-6.8,0-10.4c-0.4-0.1-0.8-0.2-1.3-0.3c0,0.7,0,1.3,0,1.9c0,0.6,0,1.2,0,1.9c-0.3,0-0.3,0-0.4,0c-2-0.7-3.3-0.2-4.1,1.5
		c-0.9,2.1-0.3,4.8,1.4,5.5c0.4,0.2,0.9,0.3,1.3,0.3C299.1,144.5,300.1,144.3,301.2,144.1z M234.3,159.8c-2.6-1.3-4.5-0.2-4.7,2.6
		c0,0.4-0.4,0.9-0.6,1.3c-0.1,0.3-0.1,0.9-0.1,1c0.9,0.3,0.6,1,0.6,1.6c0,1.8,0,3.6,0,5.5c0,0.5,0.1,0.9,0.1,1.5
		c0.6,0,1.1-0.1,1.7-0.1c0-2.8,0-5.5,0-8.1c0.8-0.6,2.2,0.4,2.3-1.4c-0.5,0-0.9,0-1.4,0c-0.3,0-0.8-0.1-0.8-0.2
		c-0.1-0.7-0.2-1.5,0.1-2.2c0.1-0.4,1-0.7,1.4-0.6C233.8,160.7,234.2,160.6,234.3,159.8z M371,160c0,4.4,0,8.7,0,13.1
		c1.8,0,3.6,0,5.3,0c1.1,0,1.4-0.4,1.1-1.5c-1.5,0-3.1,0-4.8,0c0-4,0-7.8,0-11.6C372.1,160,371.6,160,371,160z M257.1,159.5
		c0,4,0,8,0,12c0,1.5,1.1,2.1,2.8,1.5c0-0.2,0-0.6-0.2-0.7c-1.1-0.6-0.9-1.6-0.9-2.5c0-3,0-5.9,0-8.9c0-0.5,0-1.1-0.1-1.7
		C258,159.3,257.6,159.4,257.1,159.5z M314.9,173c0-0.2,0-0.5-0.1-0.6c-1.1-0.7-0.9-1.7-0.9-2.7c0-3,0-5.9,0-8.9
		c0-0.5-0.1-1-0.2-1.6c-0.7,0.2-1.1,0.3-1.5,0.4c0,1.4,0,2.7,0,4.1c0,2.6,0,5.2,0,7.8C312.3,173,313.3,173.6,314.9,173z M309,144.6
		c0.3-0.2,0.7-0.4,0.7-0.6c-0.1-2.4-0.2-4.8-0.4-7.1c-1.1,0.2-1.1,0.2-1.1,1.1c0,1.3,0,2.6,0,3.9c0,1.1-0.8,1.6-1.8,1.6
		c-1,0-1.2-0.7-1.2-1.6c0-1.7,0-3.4,0-5c-1.3,0-1.3,0-1.3,1c0,1.5,0,3,0,4.5c0,1.9,1.5,2.8,3.3,2.1c0.4-0.2,0.7-0.4,1.1-0.7
		C308.5,144.1,308.8,144.3,309,144.6z M391.7,136.9c-1.3-0.2-1.6,0.1-1.6,1.1c0.1,1.2,0,2.4,0,3.6c0,1.1-0.7,2-1.7,2
		c-1.3,0-1.3-1-1.3-1.9c0-1.6,0-3.2,0-4.8c-0.9-0.1-1.3,0.1-1.3,0.9c0,1.6,0,3.1,0,4.7c0,1.7,1.3,2.6,3,2c0.5-0.2,0.9-0.4,1.4-0.7
		c0.3,0.2,0.5,0.5,0.8,0.7c0.3-0.2,0.6-0.4,0.6-0.5C391.7,141.7,391.7,139.3,391.7,136.9z M317.6,144.4c0.1-0.2,0.1-0.4,0.1-0.5
		c0-1.6,0-3.2,0-4.8c0-1.9-1.5-2.8-3.2-1.9c-0.3,0.1-0.6,0.3-0.6,0.4c-0.6-0.2-1-0.4-1.4-0.5c-0.1,0-0.4,0.5-0.4,0.8
		c0,1.9,0.1,3.8,0.1,5.7c0,0.9,0.3,1.1,1.3,0.8c0-1.5,0-3,0-4.5c0-1.1,0.8-1.8,1.8-1.8c1.1,0,1.1,0.9,1.1,1.6c0,1.5,0,3,0,4.4
		c0,0.1,0.1,0.2,0.1,0.3C316.9,144.4,317.2,144.4,317.6,144.4z M341.6,137.6c0-0.1,0-0.2-0.1-0.4c-0.5-0.1-1-0.2-1.4-0.3
		c0,2.7,0,5,0,7.4c0.5,0,0.8,0,1.3,0c0-1.7,0-3.3,0-4.9c0-1.2,1-1.4,1.9-1.5c1-0.1,1.1,0.7,1.1,1.5c0,1.6,0,3.3,0,4.8
		c1,0.3,1.3,0,1.3-0.9c0-1.5,0-3,0-4.6c-0.1-1.7-1.4-2.5-2.9-1.8C342.3,137.1,341.9,137.4,341.6,137.6z M374.2,136.9
		c-0.8-0.2-1.1,0.2-1.1,1c0,1.2,0,2.4,0,3.6c0,1.3-0.6,2.1-1.7,2.1c-1.4,0-1.3-1.1-1.3-2c-0.1-1.6,0-3.1,0-4.6
		c-1-0.2-1.3,0.1-1.3,0.9c0,1.5,0,3,0,4.4c0,2,1.6,2.9,3.4,2.1c0.3-0.2,0.6-0.4,0.9-0.5c0.3,0.3,0.5,0.6,0.9,1.1
		c0.3-0.4,0.6-0.7,0.6-0.9C374.5,141.6,374.3,139.3,374.2,136.9z M333.1,137c-1-0.3-1.3,0.1-1.3,0.9c0,1.5,0,3,0,4.4
		c0,1.9,1.5,2.9,3.3,2.1c0.4-0.2,0.7-0.4,1.1-0.6c0.3,0.3,0.5,0.5,0.8,0.8c0.2-0.2,0.6-0.4,0.6-0.5c-0.1-2.4-0.2-4.8-0.3-7.2
		c-0.8-0.2-1.1,0.1-1.1,1c0,1.3,0,2.5,0,3.8c0,1.1-0.9,2-1.8,1.9c-1.2-0.1-1.2-1-1.2-1.9C333.1,140.1,333.1,138.5,333.1,137z
		 M250.8,163.4c-1.3-0.4-2,0.5-2.9,1.2c-0.2-0.5-0.4-0.9-0.6-1.3c-0.5,0.1-1,0.3-1.3,0.3c0,3.2,0,6.2,0,9.4c0.7,0,1.1,0,1.7,0
		c0-2,0-3.9,0-5.7c0-1.2,0.5-2.1,1.6-2.2C250.5,165,250.6,164.3,250.8,163.4z M179.8,164.5c-0.1-0.3-0.2-0.7-0.4-1.1
		c-0.5,0.1-1,0.3-1.3,0.3c0,3.3,0,6.3,0,9.4c0.7,0,1.1,0,1.7,0c0-2,0-3.9,0-5.7c0-1.1,0.4-2.1,1.5-2.2c1.2-0.1,1.4-0.8,1.3-2
		C181.7,163.5,180.7,164,179.8,164.5z M152.6,173.1c0-0.5,0-1,0-1.4c0-1.5,0-3,0-4.6c0-1.1,0.5-1.9,1.6-2c1.2-0.1,1.2-0.9,1.2-2
		c-0.9,0.5-1.9,0.9-2.8,1.4c-0.1-0.3-0.2-0.7-0.4-1.1c-0.5,0.1-1,0.3-1.3,0.3c0,3.2,0,6.3,0,9.4C151.5,173.1,152,173.1,152.6,173.1z
		 M391,173.1c0-0.5,0.1-1,0.1-1.4c0-1.4,0-2.9,0-4.3c0-1.1,0.5-2.1,1.6-2.2c1.2-0.1,1.3-0.8,1.3-2.1c-1.2,0.6-2.1,1-3,1.5
		c-0.1-0.3-0.3-0.7-0.5-1.1c-0.5,0.1-1,0.3-1.2,0.3c0,3.2,0,6.3,0,9.4C390.1,173.1,390.5,173.1,391,173.1z M293.2,144.4
		c-0.2-1.2-0.4-2.3-0.4-3.4c-0.1-2,0-4.1,0-6.1c0-0.4-0.1-0.9-0.2-1.8c-0.6,0.5-1.1,0.8-1.1,1.1c-0.1,3-0.1,5.9,0,8.9
		C291.5,144.4,292.3,144.8,293.2,144.4z M384.5,137.1c-0.9-0.2-1.4-0.3-2-0.4c0-0.7,0-1.3,0-1.9c-1.6-0.1-1.2,1.1-1.3,1.9
		c-1,0.4-1.2,0.9-0.6,1c0.8,0.2,0.6,0.8,0.6,1.3c0,1.3,0,2.5,0,3.8c0,1.4,1.2,2.2,2.5,1.7c0.2-0.1,0.3-0.3,0.5-0.5
		c-0.2-0.1-0.4-0.3-0.5-0.3c-1.1,0-1.2-0.7-1.2-1.5c0-1,0-2,0-3c0-0.7,0-1.4,1-1.3C383.7,137.8,384,137.5,384.5,137.1z M378.4,133.6
		c-1.1-0.1-1.5,0.2-1.4,1.1c0.1,0.9,0.1,1.9,0.1,2.8c0,1.9,0,3.7,0,5.6c0,1.3,1,1.8,1.8,1.3c-0.2-1.1-0.5-2-0.5-3
		C378.3,138.8,378.4,136.2,378.4,133.6z M395.6,144.3c0-1.4,0-2.8,0-4.2c0-1.1,0.4-1.7,1.5-2.1c0.4-0.1,0.6-0.6,1-0.9
		c-0.1-0.1-0.2-0.3-0.3-0.4c-0.7,0.3-1.4,0.6-1.8,0.8c-0.6-0.2-0.9-0.4-1.3-0.5c-0.1,0-0.4,0.5-0.4,0.7c0,1.9,0.1,3.8,0.1,5.7
		C394.3,144.2,394.6,144.6,395.6,144.3z M288.6,136.9c-0.8-0.2-1.3-0.1-1.3,0.9c0,2.1,0,4.2,0.1,6.3c0,0.1,0.1,0.1,0.2,0.3
		c0.3,0,0.7-0.1,1.1-0.1C288.6,141.8,288.6,139.4,288.6,136.9z M242.6,161.2c-0.7-0.5-1.1-1.1-1.4-1.1c-0.4,0.1-1,0.7-1,1.1
		c0,0.3,0.6,1,1,1C241.5,162.2,242,161.7,242.6,161.2z M237.2,162.8c0.5-0.8,1-1.3,0.9-1.6c-0.1-0.4-0.7-0.8-1-1.2
		c-0.3,0.4-0.9,0.7-0.9,1.1C236.2,161.6,236.7,162,237.2,162.8z M288.1,133.3c-0.4,0.5-0.9,0.9-0.9,1.2c0.1,0.4,0.5,0.7,0.8,1
		c0.3-0.3,0.8-0.6,0.9-1C289,134.3,288.5,133.9,288.1,133.3z"/>
	<path d="M140,78c0.6,0,1.3,0,1.9,0c31.8,0,63.6,0,95.4,0c0.7,0,1.4,0,2.2,0c0,0.6,0.1,1,0.1,1.5c0,21.1,0,42.1,0,63.2
		c0,1.3-0.3,1.6-1.6,1.6c-32.1,0-64.2,0-96.3,0c-0.6,0-1.2,0.1-1.8,0.1C140,122.3,140,100.2,140,78z M214.2,114.3
		c-0.9-2-0.6-3.4,1.4-4.6c-2.3,0.5-3.2-0.7-3.8-2.5c-0.1,2.3-1.6,2.6-3.3,2.5c0.7,0.7,1.5,1.3,1.7,2c0.2,0.7-0.3,1.6-0.5,2.4
		C211.3,112.6,212.7,112.7,214.2,114.3z M201,88c-0.1,0-0.2,0.1-0.3,0.1c-0.3,0.7-0.4,1.7-0.9,2.1c-0.6,0.4-1.5,0.3-2.8,0.5
		c2.4,0.9,2.5,2.4,1.7,4.3c1.6-1.8,2.9-1.3,4.4,0.1c-1.1-2-0.5-3.4,1.2-4.5C202.1,91,201.2,90,201,88z M170.5,96.4
		c-0.4,2.1-1.4,3-3.6,2.6c2,1.1,2.3,2.6,1.5,4.5c0.7-0.5,1.4-1,2.2-1.5c0.7,0.5,1.4,1,2.1,1.5c0.1,0,0.2-0.1,0.3-0.1
		c-1.4-1.9-0.7-3.3,1.2-4.5C171.9,99.4,170.9,98.5,170.5,96.4z M186.4,132.1c2,1.1,2.1,2.6,1.1,4.6c1.1-0.7,1.7-1.1,2.4-1.6
		c0.7,0.5,1.4,1,2.1,1.4c-0.8-1.9-0.4-3.3,1.5-4.4c-2.2,0.3-3.2-0.7-3.6-2.7C189.5,131.4,188.5,132.4,186.4,132.1z M178.8,126.4
		c-0.2,2.3-1.5,2.9-3.7,2.8c2.4,0.9,2.2,2.5,1.5,4.4c1.5-1.6,2.9-1.7,4.4,0c-1.1-2-0.4-3.4,1.3-4.5
		C180.1,129.6,179.2,128.4,178.8,126.4z M200.9,126.3c-0.3,2.1-1.3,3.1-3.6,2.9c2.2,1,2.2,2.5,1.4,4.4c1.5-1.5,2.9-1.6,4.4,0
		c-0.9-1.9-0.5-3.3,1.3-4.5C202.1,129.5,201.3,128.2,200.9,126.3z M174.5,121.2c-1.3-0.2-2.3-0.1-2.9-0.5c-0.6-0.4-0.7-1.4-1-2.2
		c-0.3,2.1-1.5,2.9-3.7,2.6c1.9,1.1,2.3,2.4,1.2,4.5c1.1-0.6,1.7-1.4,2.4-1.4c0.7,0,1.4,0.7,2.5,1.3
		C171.9,123.6,172.2,122.2,174.5,121.2z M212.7,120.8c-2.4,0.5-3.2-0.8-3.6-2.8c-0.4,2-1.2,3.3-3.6,2.8c2,1,2.3,2.5,1.7,4.4
		c0.7-0.4,1.3-0.9,1.9-1.3c0.7,0.5,1.4,0.9,2.1,1.3C210.3,123.3,210.8,121.9,212.7,120.8z M182.1,90.9c-2.2,0.4-3.2-0.7-3.6-2.7
		c-0.3,2.1-1.4,3.1-3.6,2.7c2,1.1,2.3,2.5,1.6,4.4c0.6-0.5,1.3-0.9,2-1.4c0.7,0.5,1.4,1,2.1,1.4C179.8,93.4,180.1,92,182.1,90.9z
		 M189.6,85.1c-0.3,2.2-1.4,3-3.6,2.7c2.1,1.1,2.3,2.5,1.4,4.5c1.5-1.6,2.9-1.7,4.5,0c-1.1-2.1-0.5-3.5,1.4-4.6
		C191,88.2,189.9,87.2,189.6,85.1z M210.9,102.9c-0.2-0.8-0.6-1.7-0.4-2.4c0.2-0.7,1.1-1.1,1.7-1.7c-0.9-0.1-1.9,0-2.4-0.5
		c-0.6-0.5-0.7-1.4-1.2-2.6c-0.3,2.3-1.2,3.4-3.5,3.1c2.1,1,2.2,2.5,1.4,4.4C208.1,101.6,209.5,101.4,210.9,102.9z M164,110
		c2.1,1,2.2,2.5,1.4,4.5c1.5-1.7,2.9-1.5,4.4-0.1c-0.8-1.9-0.7-3.3,1.2-4.4c-2.3,0.4-3-1-3.5-2.8C167.3,109.4,166.3,110.4,164,110z"
		/>
	<path d="M361.3,77.3c0.7,0.6,1.5,1.2,2.4,1.9c-11,8.7-22.9,15.5-36.6,18.8c0.1-0.1,0.2-0.2,0.3-0.2c0.1-0.1,0.2-0.1,0.4-0.1
		c11.9-4.8,22.8-11.2,32.5-19.6c0.3-0.2,0.5-0.5,0.8-0.8C361.1,77.3,361.2,77.3,361.3,77.3z"/>
	<path d="M339.4,176.7c-0.6-0.4-1.4-0.7-1.9-1.2c-0.4-0.4-0.5-1.2-0.4-1.8c0-0.2,0.8-0.4,1.3-0.6c0.5,2.1,1.9,2.9,3.8,2.1
		c0.5-0.2,1-0.9,1-1.4c0-0.5-0.6-1.2-1-1.3c-0.8-0.3-1.8-0.2-2.6-0.3c-0.8-0.1-1.7,0-1.9-1.1c-0.2-1,0.5-1.3,1.2-1.7
		c0.1,0,0.1-0.1,0.2-0.2c-2.2-1.7-2.5-3.6-0.9-5c1.1-0.9,2.4-1.1,3.8-0.8c1.1,0.2,2.2,0.2,3.3,0.3c0-0.1,0.1-0.2,0.1-0.3
		c0.2,0.3,0.4,0.6,0.7,1.1c-0.8,0.2-1.4,0.4-2,0.6c0.7,2.7,0,3.8-2.8,4.4c-0.7,0.2-1.6,0.2-1.8,1.5c1.1,0.1,2.1,0.1,3.1,0.2
		c1.1,0.1,1.9,0.6,2.3,1.7c0.4,1.1,0.1,2.1-0.8,2.9c-0.5,0.4-1.1,0.7-1.7,1C341.5,176.7,340.5,176.7,339.4,176.7z M339.1,166.5
		c0,1.2,0.7,1.8,1.8,1.8c1.1,0,1.7-0.7,1.7-1.9c0-1.2-0.6-1.8-1.8-1.8C339.6,164.7,339.1,165.3,339.1,166.5z"/>
	<path d="M169.7,176.7c-0.3-0.1-0.6-0.3-0.9-0.4c-1.4-0.6-1.8-1.3-1.5-3c0.4,0,0.9-0.1,1.3-0.1c0.5,2,1.9,2.8,3.8,2
		c0.5-0.2,1-0.9,1-1.4c0-0.5-0.6-1.1-1.1-1.3c-0.7-0.3-1.5-0.1-2.3-0.2c-0.8-0.1-2.1,0.1-2.2-1c-0.1-0.7,0.7-1.4,1-2
		c-0.4-0.8-1.2-1.7-1.4-2.7c-0.1-0.7,0.4-1.7,0.9-2.3c0.9-1,2.2-1.1,3.5-0.9c1.1,0.2,2.3,0.2,3.4,0.4c0-0.1,0.1-0.3,0.1-0.4
		c0.2,0.3,0.5,0.6,0.9,1.1c-0.8,0.2-1.4,0.4-2,0.6c0.6,2.8,0,3.8-3,4.4c-0.6,0.1-1.1,0.5-1.7,0.8c0,0.1,0,0.3,0.1,0.4
		c0.5,0.1,0.9,0.3,1.4,0.3c0.6,0.1,1.2,0,1.8,0.1c1.4,0.1,2.2,0.9,2.4,2c0.2,1.3-0.4,2.4-1.6,3c-0.4,0.2-0.8,0.3-1.1,0.5
		C171.6,176.7,170.7,176.7,169.7,176.7z M172.8,166.5c0-1.2-0.6-1.8-1.8-1.8c-1.1,0-1.8,0.7-1.8,1.8c0,1.1,0.7,1.8,1.8,1.8
		C172.1,168.3,172.8,167.6,172.8,166.5z"/>
	<path d="M423.6,173.2c-0.5,0-1-0.1-1.7-0.1c0-1.3,0-2.6,0-3.9c0-0.7,0-1.4,0-2.2c0-1.7-0.3-2.3-1.3-2.2c-1.4,0.1-2.3,1-2.3,2.4
		c0,1.9,0,3.9,0,5.9c-0.6,0-1,0-1.7,0c0-3.1,0-6.1,0-9.4c0.3-0.1,0.7-0.2,1.3-0.3c0.1,0.4,0.3,0.8,0.4,1.1c3.4-1.6,4-1.5,5.5,0.5
		C423.6,167.7,423.6,170.5,423.6,173.2z"/>
	<path d="M255.4,102.6c0.8-0.3,1.5-0.8,2.3-1c2.8-0.6,5.5-1.2,8.3-1.6c2.1-0.3,4.2-0.6,6.3-0.8c6.2-0.5,12.1,0.9,17.8,3.3
		c3.5,1.4,6.8,3.3,10.1,5c1.1,0.6,2.1,0.7,3.1,0.1c2.2-1.2,4.4-2.4,6.6-3.6c5.8-3.2,12.1-4.7,18.7-5.2c8.2-0.7,16.3,0,24.5,0.4
		c9.1,0.4,18.2,0.3,27-2.9c2.5-0.9,4.9-2.1,7.5-3.1c-0.5,0.4-1,0.8-1.6,1.2c-5.8,3.6-11.9,6.8-18.5,8.6c-4,1.1-8.2,1.5-12.4,2
		c-7.5,0.9-15.1,1-22.6,2.6c-6,1.3-11.7,3.4-16.8,6.9c-1.2,0.8-2.1,2.2-2.9,3.4c-0.8,1.3-1.3,2.7-2.1,4c-1.2,1.9-2.3,2.2-4.4,1.2
		c-4.1-2-7.5-5.1-10.7-8.3c-3.6-3.7-7.6-6.9-12.3-9.1c-3.7-1.8-7.5-3.3-11.6-3.5c-2.4-0.1-4.7,0.3-7.1,0.4c-2.7,0.2-5.5,0.3-8.2,0.5
		c-0.3,0-0.6-0.1-1-0.1C255.5,102.9,255.5,102.8,255.4,102.6z"/>
	<path d="M375.6,86.9c-8.8,6.3-18.2,10.6-29.1,11.1c9.5-2.1,17.7-6.4,25-12.5c0.5-0.4,1-0.6,1.6-0.2
		C373.8,85.9,374.6,86.3,375.6,86.9z"/>
	<path d="M367,81.8c-10.1,7.4-20.5,13.9-33.2,15.7c2.9-1.1,5.8-2.2,8.7-3.4c7.7-3.2,14.8-7.6,21.2-13
		C364.9,80.2,364.9,80.2,367,81.8z"/>
	<path d="M215.1,173.1c0-2.2,0-4.3,0-6.4c0-0.9,0.1-1.8-1.2-1.8c-1.2,0-2.2,0.9-2.2,2c0,2,0,4.1,0,6.2c-0.6,0-1,0-1.7,0
		c0-3.1,0-6.2,0-9.3c0.6-0.2,1.4-0.7,1.6,0.8c1.8-1.3,3.4-1.9,4.9,0.1c0.8-0.4,1.5-0.9,2.3-1.2c1.4-0.4,2.8,0.3,2.9,1.6
		c0.1,2.6,0,5.3,0,8c-0.5,0-1,0-1.6,0c0-2.1,0-4.2,0-6.3c0-0.9,0.2-1.9-1.2-1.9c-1.1,0-2.2,1.1-2.2,2.1c0,2,0,4,0,6.1
		C216.2,173.1,215.7,173.1,215.1,173.1z"/>
	<path d="M201.4,173.1c-0.6,0-1,0-1.7,0c0-1.3,0-2.6,0-3.9c0-0.8,0-1.5,0-2.3c0-0.9,0.1-2-1.3-2c-1.3,0-2.1,0.8-2.1,2.1
		c0,2,0,4,0,6.1c-0.6,0-1.1,0-1.7,0c0-3.1,0-6.2,0-9.4c0.3-0.1,0.7-0.2,1.2-0.3c0.2,0.4,0.3,0.7,0.5,1c2.5-1.5,3.2-1.4,4.8,0.2
		c0.7-0.4,1.4-0.9,2.2-1.1c1.5-0.5,2.9,0.3,3,1.8c0.2,2.6,0,5.1,0,7.8c-0.5,0-1,0-1.5,0c0-2.1,0-4.2,0-6.3c0-0.9,0.1-2-1.3-2
		c-1.1,0-2.1,1.1-2.1,2.2C201.4,169,201.4,171,201.4,173.1z"/>
	<path d="M386.6,92.4c-8.4,4.7-17.2,6.2-26.4,6.1c2.6-0.6,5.2-1.1,7.7-1.8c4.7-1.3,9.2-3.2,13.2-6c0.6-0.4,1.1-0.5,1.7-0.1
		C384,91.2,385.1,91.7,386.6,92.4z"/>
	<path d="M274,172.5c-0.8,0.3-1.4,0.5-2.1,0.8c0-4.7,0-9.2,0-13.8c0.4-0.1,0.9-0.2,1.7-0.4c0,1.8,0,3.3,0,4.9c0.3,0,0.4,0.1,0.5,0
		c3-1.5,5.6-0.1,5.8,3.3c0.1,1,0,2-0.2,2.9C279,172.9,276.2,174.3,274,172.5z M273.7,168.3c0,0.5,0,1.1,0,1.6
		c-0.1,1.1,0.6,1.6,1.5,1.8c1,0.2,1.8,0,2.2-0.9c0.7-1.5,0.7-3.1,0.2-4.7c-0.4-1.1-1.2-1.5-2.3-1.2c-1.1,0.2-1.8,0.7-1.7,2
		C273.7,167.3,273.7,167.8,273.7,168.3z"/>
	<path d="M142,168.1c0,1.7,0,3.3,0,5c-0.7,0-1.1,0-1.7,0c0-0.3-0.1-0.5-0.1-0.7c0-4.1,0-8.1,0-12.5c2.1,0.2,4.2,0.2,6.1,0.6
		c1.6,0.4,2.3,2.1,2.1,4c-0.2,1.6-1.3,3-3,3.3C144.5,168,143.3,168,142,168.1z M142,163.8c0.1,3-0.5,2.7,2.4,2.7
		c1.4,0,2.3-1.1,2.2-2.7c-0.1-1.7-1.1-2.4-3.4-2.4c-1.9,0-0.9,1.4-1.1,2.2C142,163.7,142.1,163.7,142,163.8z"/>
	<path d="M278.2,144.3c0-3.4,0-6.7,0-10.3c1.5,0.1,3.1,0,4.5,0.4c0.7,0.2,1.4,1,1.7,1.8c0.5,1.2-0.3,2.1-1.2,2.6
		c0.6,0.7,1.4,1.3,1.6,2.1c0.5,1.7-0.5,3.2-2.4,3.4C281.1,144.4,279.7,144.3,278.2,144.3z M279.7,143.2c2.8,0.3,3.8-0.2,3.8-1.7
		c0-1.4-0.9-1.9-3-1.8C279.4,139.7,279.3,140.3,279.7,143.2z M279.5,135.2c0,0.7,0,1.1,0,1.6c0,1.8,0.3,2.1,2.2,1.7
		c0.8-0.2,1.3-0.6,1.3-1.5c0-0.9-0.4-1.5-1.3-1.6C281.1,135.2,280.4,135.3,279.5,135.2z"/>
	<path d="M290,168.8c-2,0-3.9,0-5.7,0c-0.2,1.2,0,2.1,0.9,2.8c1.3,0.9,2.6,0.5,3.9-0.3c0.6,0.6,0.6,0.9-0.1,1.4
		c-2.4,1.5-5.6,0.5-6.4-2.3c-0.6-1.8-0.6-3.7,0.5-5.4c0.8-1.3,2.5-2,4-1.7c1.5,0.3,2.5,1.4,2.8,3.1
		C289.9,167.2,289.9,167.9,290,168.8z M288.1,167.3c0.1-1.1-0.1-2.1-1.1-2.5c-0.5-0.2-1.4-0.1-1.9,0.2c-0.8,0.5-1.1,1.4-0.8,2.4
		C285.6,167.3,286.8,167.3,288.1,167.3z"/>
	<path d="M413.9,168.8c-2.1,0-3.9,0-5.8,0c-0.2,1.2,0.1,2.2,1,2.8c1.3,0.8,2.5,0.4,3.7-0.3c0.8,0.6,0.7,1-0.1,1.4
		c-2.7,1.6-5.8,0.3-6.4-2.8c-0.4-1.9-0.4-3.8,1-5.4c1.1-1.2,2.4-1.5,3.9-1.1c1.5,0.5,2.3,1.5,2.5,3.1
		C413.8,167.2,413.8,167.9,413.9,168.8z M408.2,167.3c1.2,0,2.5,0,3.7,0c0.1-1.7-0.6-2.8-1.8-2.8C408.8,164.5,408,165.6,408.2,167.3
		z"/>
	<path d="M156.7,168.2c0.1-2.7,1.2-4.3,3.3-4.8c1.9-0.4,4,0.5,4.5,2.4c0.4,1.4,0.4,2.9,0.2,4.3c-0.3,2.1-1.9,3.2-3.9,3.2
		c-2,0-3.3-1.2-3.8-3.3C156.9,169.5,156.8,168.9,156.7,168.2z M163.2,168.5c-0.2-0.9-0.3-1.7-0.5-2.5c-0.3-1-0.9-1.4-2-1.4
		c-1,0-1.8,0.5-1.8,1.4c-0.1,1.6-0.1,3.2,0.1,4.7c0.1,0.5,1.1,1.2,1.8,1.2c0.6,0,1.4-0.6,1.7-1.1C163,170.2,163.1,169.3,163.2,168.5
		z"/>
	<path d="M263.7,168.7c-0.3,1.3,0,2.2,0.9,2.8c1.3,0.8,2.6,0.4,3.8-0.3c0.7,0.5,0.7,0.9,0,1.4c-2.6,1.7-5.9,0.4-6.6-2.6
		c-0.4-1.6-0.4-3.1,0.4-4.6c0.8-1.5,2.4-2.3,4-2.1c1.6,0.2,2.7,1.4,3,3.2c0,0.2,0.1,0.4,0.1,0.6c0.2,1.5,0.2,1.6-1.3,1.6
		C266.6,168.7,265.2,168.7,263.7,168.7z M267.9,167.4c-0.5-1-0.8-1.9-1.4-2.4c-0.4-0.3-1.5-0.3-1.8,0c-0.6,0.5-0.9,1.5-1.4,2.5
		C264.9,167.4,266.2,167.4,267.9,167.4z"/>
	<path d="M349.1,168.7c0.1,3.1,2,4,4.9,2.5c0.8,0.6,0.7,1-0.2,1.4c-1.5,0.8-3,0.9-4.5,0.1c-1.7-1-2.1-2.7-2.2-4.5
		c0-1.6,0.3-3.1,1.7-4.2c2.1-1.7,5.2-0.7,5.8,1.9c0.2,0.8,0.2,1.7,0.3,2.7c-1.1,0-2.1,0-3,0C351.1,168.7,350.1,168.7,349.1,168.7z
		 M353.1,167.3c0-1.1-0.1-2.1-1.1-2.5c-0.6-0.2-1.5-0.1-2,0.2c-0.8,0.5-1,1.4-0.7,2.3C350.6,167.3,351.8,167.3,353.1,167.3z"/>
	<path d="M317.5,165.5c-0.1-0.2-0.3-0.5-0.6-0.9c1.6-0.9,3.1-1.5,5-1.1c1.2,0.3,1.8,1,1.8,2.2c0,1.4-0.1,2.8,0,4.2
		c0,0.7,0.4,1.5,0.4,2.2c0,0.4-0.2,0.9-0.4,1.6c-0.6-0.6-1-1-1.2-1.1c-1.2,0.3-2.2,0.7-3.3,0.7c-1.1,0.1-2-0.5-2.5-1.6
		c-0.4-1.2-0.2-2.7,0.8-3.3c1-0.6,2.2-0.8,3.3-1.1c0.6-0.1,1.3,0.1,1.2-0.9c-0.1-0.9-0.3-1.7-1.4-1.6
		C319.7,164.8,318.7,165.2,317.5,165.5z M322.2,169.8c0-1.3-0.6-1.6-1.6-1.4c-0.3,0.1-0.8,0-1,0.2c-0.5,0.5-1.1,1.1-1.2,1.7
		c-0.1,0.5,0.3,1.4,0.7,1.5c0.6,0.2,1.5,0.1,2-0.3C321.7,171.3,321.9,170.4,322.2,169.8z"/>
	<path d="M385.8,171.2c0.2,0.3,0.4,0.6,0.6,0.8c-2.4,2.4-6.2,1.5-7.1-1.7c-0.3-1.3-0.3-2.7-0.1-4c0.4-1.9,2.1-3.1,4-3
		c1.8,0.1,3.1,1.3,3.4,3.4c0.1,0.6,0,1.3,0,2.1c-1.9,0-3.8,0-5.7,0c-0.1,1.3,0.1,2.3,1.2,2.9C383.4,172.3,384.6,172,385.8,171.2z
		 M384.9,167.4c-0.1-1.9-0.9-2.9-2.1-2.8c-1.2,0.1-1.9,1.1-1.7,2.8C382.3,167.4,383.6,167.4,384.9,167.4z"/>
	<path d="M185,165.7c-0.2-0.4-0.5-0.7-0.8-1.2c1.1-0.4,2-0.9,3-1.1c2.7-0.5,4,0.6,3.9,3.3c0,1.3-0.1,2.5,0,3.8c0,0.4,0,0.9,0.2,1.2
		c0.6,0.8,0.2,1.2-0.5,1.7c-0.4-0.3-0.8-0.7-1-0.8c-1.2,0.3-2.2,0.7-3.3,0.8c-1.3,0.1-2.3-0.8-2.6-1.9c-0.3-1.4,0.1-2.8,1.3-3.4
		c0.8-0.4,1.7-0.6,2.5-0.8c0.5-0.1,1-0.1,1.8-0.2c-0.3-0.8-0.4-1.9-0.9-2.2C187.6,164.2,186.3,165,185,165.7z M189.4,168.5
		c-2-0.4-3.4,0.3-3.5,1.7c-0.1,1.1,0.5,2,1.5,1.9C188.9,171.9,189.7,171.5,189.4,168.5z"/>
	<path d="M237.3,163.5c0,2.2,0,4.3,0,6.4c0,1.6,0.5,2.2,1.6,2.2c1.2,0,2.1-1.1,2.1-2.4c0-1.6,0-3.1,0-4.7c0-1.4,0-1.4,1.7-1.4
		c0,2,0,4,0,6c0,0.7,0,1.5,0.2,2.1c0.2,0.6,0.2,1.1-0.4,1.3c-0.3,0.1-0.7-0.3-1.1-0.5c-0.1-0.1-0.2-0.2-0.3-0.2
		c-0.4,0.3-0.8,0.5-1.2,0.7c-2.2,1.1-4.3-0.1-4.4-2.5c-0.1-1.9,0-3.7,0-5.6C235.5,163.7,236,163.3,237.3,163.5z"/>
	<path d="M328.9,173.1c-0.6,0-1.1,0-1.7,0c0-3.1,0-6.1,0-9.4c0.2-0.1,0.7-0.2,1.2-0.3c0.2,0.4,0.4,0.8,0.5,1.1
		c0.7-0.3,1.4-0.7,2.1-1c1.6-0.5,3.1,0.3,3.2,1.9c0.2,2.5,0,5.1,0,7.6c-0.5,0-0.9,0-1.6,0c0-1.3,0-2.6,0-3.9c0-0.8,0-1.5,0-2.3
		c0-1,0-2-1.3-2c-1.3-0.1-2.4,0.9-2.4,2.2C328.9,169,328.9,171,328.9,173.1z"/>
	<path d="M294.4,173c-0.4,0-0.6,0.1-0.8,0.1c-0.2,0-0.5,0-0.9,0c0-3.1,0-6.2,0-9.4c0.3-0.1,0.7-0.2,1.2-0.4c0.2,0.4,0.4,0.8,0.5,1.1
		c0.8-0.4,1.4-0.8,2.2-1c1.7-0.5,3.1,0.6,3.1,2.3c0.1,2.4,0,4.8,0,7.3c-0.6,0-1,0-1.7,0c0-1.3,0-2.6,0-3.9c0-0.7,0-1.4,0-2.2
		c0-1.7-0.3-2.3-1.4-2.2c-1.3,0.1-2.3,1.1-2.3,2.4C294.4,169.1,294.4,171,294.4,173z"/>
	<path d="M403.2,173.1c-0.6,0-1,0-1.6,0c0-2,0-4,0-6c0-1.7-0.3-2.2-1.4-2.3c-1.4,0-2.3,1-2.3,2.4c0,1.9,0,3.9,0,5.9
		c-0.6,0-1.1,0-1.7,0c0-3.1,0-6.2,0-9.4c0.3-0.1,0.7-0.2,1.2-0.3c0.2,0.4,0.3,0.8,0.4,1.1c0.9-0.4,1.6-0.8,2.5-1
		c1.4-0.3,2.8,0.5,2.9,2C403.3,167.9,403.2,170.5,403.2,173.1z"/>
	<path d="M265.4,144.4c0-3.3,0-6.4,0-9.5c0-0.3,0.2-0.7,0.4-0.8c1.8-0.7,5.3,0.4,6,2.2c0.5,1.3,0.7,2.9,0.5,4.3
		c-0.3,2.7-1.8,3.8-4.5,3.8C267.1,144.4,266.3,144.4,265.4,144.4z M266.8,135.3c0,2.6,0,5.2,0,7.7c2.5,0.5,3.7-0.2,4-2.4
		c0.1-0.8,0.1-1.6,0-2.4C270.6,135.8,269.5,135,266.8,135.3z"/>
	<path d="M327.1,137.6c-0.6,0.2-1,0.3-1.3,0.4c-0.2,0.9-0.1,1.9-0.5,2.5c-0.4,0.6-1.4,0.7-2.2,1.1c-0.4,0.2-0.8,0.5-1.2,0.7
		c0,0.1,0,0.2,0.1,0.3c0.8,0.1,1.5,0.2,2.3,0.3c1.1,0.1,1.9,0.6,2,1.8c0.1,1.2-0.4,2.2-1.6,2.3c-1.3,0.1-2.6-0.1-3.9-0.4
		c-0.4-0.1-0.6-1-0.7-1.6c0-0.2,0.6-0.5,1-0.8c0.4,1.8,1.3,2.4,2.8,1.9c0.5-0.2,1-0.8,1-1.2c0-0.4-0.6-0.9-1.1-1.1
		c-0.5-0.2-1.1-0.1-1.6-0.2c-0.6-0.2-1.3-0.3-1.5-0.7c-0.2-0.3,0.4-1,0.7-1.7c-0.2-0.3-0.8-0.8-1-1.4c-0.6-1.6,0.6-3,2.4-3.1
		c1.3-0.1,2.6,0,3.8,0.1C326.6,136.9,326.8,137.3,327.1,137.6z M324.2,139.2c0-1-0.5-1.5-1.4-1.4c-1,0-1.3,0.6-1.3,1.5
		c0,0.9,0.5,1.4,1.5,1.4C323.9,140.6,324.2,140,324.2,139.2z"/>
	<path d="M308.8,165c-1.1-0.2-1.8-0.5-2.6-0.5c-0.8,0-1.5,0.3-1.7,1.2c-0.1,1,0.5,1.4,1.3,1.6c0.5,0.1,1.1,0.2,1.6,0.4
		c1.4,0.5,2.2,1.4,2.1,2.7c0,1.2-1,2.4-2.2,2.8c-1.5,0.5-3.2,0.2-5-0.8c0.1-0.4,0.3-0.7,0.4-1.1c1,0.3,2,0.6,3,0.7
		c0.9,0.1,1.8-0.2,1.9-1.4c0.1-1.1-0.6-1.5-1.5-1.7c-0.6-0.1-1.1-0.3-1.7-0.4c-1.1-0.3-1.8-1.1-1.7-2.1c0.1-0.9,0.5-1.9,1.1-2.5
		c0.9-1,3.6-1,4.7-0.2C308.7,163.9,308.6,164.5,308.8,165z"/>
	<path d="M363.5,164.1c-0.2,0.4-0.3,0.6-0.5,0.9c-0.2,0-0.3,0-0.4,0c-0.7-0.2-1.5-0.5-2.2-0.4c-0.5,0.1-1.1,0.8-1.3,1.3
		c-0.1,0.3,0.6,0.9,1.1,1.2c0.4,0.3,1,0.3,1.6,0.4c1.5,0.4,2.3,1.3,2.3,2.6c0,1.4-0.9,2.5-2.3,3c-1.5,0.4-3.1,0.2-4.8-0.8
		c0.1-0.3,0.3-0.7,0.4-1c1,0.3,1.9,0.6,2.9,0.7c0.9,0.1,1.8-0.1,2-1.3c0.2-1.2-0.5-1.6-1.5-1.8c-0.4-0.1-0.7-0.2-1.1-0.2
		c-1.5-0.3-2.3-1.2-2.4-2.5c0-1.4,0.8-2.6,2.3-2.9C360.7,163,362.3,163.3,363.5,164.1z"/>
	<path d="M361.8,139.3c0,1.6,0,3.2,0,5c-0.5,0-0.9,0-1.4,0c0-3.2,0-6.4,0-9.5c0-0.2,0.4-0.4,0.7-0.7c0.2,0.2,0.6,0.5,0.6,0.7
		c0.1,1.2,0,2.4,0,3.8c2.1-1.2,2.3-4.4,5-4.6c0.1,0.1,0.2,0.2,0.3,0.3c-0.9,1.2-1.8,2.4-2.7,3.5c-0.7,0.8-0.8,1.4-0.1,2.3
		c1.1,1.3,2,2.7,3,4.1c-1.6,0.4-1.6,0.4-2.3-0.8c-0.9-1.4-1.8-2.8-2.8-4.2C362,139.3,361.9,139.3,361.8,139.3z"/>
	<path d="M259.4,139c1,0,2.1,0,3.2,0c0,1.4,0.1,2.7,0,4c0,0.4-0.4,0.9-0.8,1.1c-3.2,1.4-6.3-0.4-6.5-3.8c-0.1-1-0.1-2.1,0.2-3.1
		c0.8-3.1,4.1-4.1,6.8-2.2c-0.2,0.7-0.5,0.9-1.2,0.5c-2.1-0.9-3.7-0.2-4.1,2c-0.2,1.3-0.2,2.7,0.1,4c0.1,0.7,0.9,1.5,1.6,1.7
		c0.7,0.3,2,0.3,2.3-0.2c0.4-0.6,0.3-1.7,0.2-2.5c0-0.2-0.7-0.3-1-0.4c-0.4-0.2-0.7-0.4-1.1-0.6C259.2,139.3,259.3,139.2,259.4,139z
		"/>
	<path d="M352.8,137.3c0-1.3,0-2.5,0-3.7c1-0.2,1.4,0.1,1.4,1.1c0,3.2,0,6.3,0,9.5c-1.1,0.1-2.3,0.3-3.4,0.3c-1.2,0-2.3-0.8-2.4-2
		c-0.2-1.2-0.2-2.5,0.1-3.7C348.9,136.9,350.4,136.5,352.8,137.3z M352.8,140.5C352.8,140.5,352.8,140.5,352.8,140.5
		c0-0.3,0-0.6,0-0.9c0.1-1-0.2-1.6-1.3-1.8c-1.1-0.1-1.7,0.4-1.9,1.4c-0.1,0.9-0.1,1.9,0,2.9c0.1,0.9,0.8,1.4,1.8,1.2
		c0.9-0.1,1.5-0.6,1.4-1.6C352.8,141.4,352.8,141,352.8,140.5z"/>
	<path d="M301.2,144.1c-1.1,0.1-2.1,0.3-3.1,0.4c-0.4,0-0.9-0.1-1.3-0.3c-1.6-0.7-2.3-3.4-1.4-5.5c0.7-1.7,2.1-2.2,4.1-1.5
		c0.1,0,0.2,0,0.4,0c0-0.6,0-1.2,0-1.9c0-0.6,0-1.2,0-1.9c0.5,0.1,0.9,0.2,1.3,0.3C301.2,137.3,301.2,140.8,301.2,144.1z
		 M299.9,140.7C299.9,140.7,299.9,140.7,299.9,140.7c0-0.3,0-0.7,0-1c0.1-1-0.3-1.6-1.3-1.8c-1-0.1-1.7,0.4-1.8,1.3
		c-0.2,0.8-0.2,1.6-0.1,2.4c0.1,1.3,0.8,1.9,1.8,1.8c1.1-0.1,1.5-0.7,1.5-2C299.9,141.2,299.9,140.9,299.9,140.7z"/>
	<path d="M234.3,159.8c-0.1,0.8-0.5,1-1.3,0.8c-0.4-0.1-1.3,0.3-1.4,0.6c-0.2,0.7-0.1,1.5-0.1,2.2c0,0.1,0.5,0.2,0.8,0.2
		c0.4,0,0.9,0,1.4,0c-0.1,1.8-1.6,0.8-2.3,1.4c0,2.6,0,5.3,0,8.1c-0.6,0-1,0.1-1.7,0.1c0-0.5-0.1-1-0.1-1.5c0-1.8,0-3.6,0-5.5
		c0-0.6,0.3-1.3-0.6-1.6c-0.1,0,0-0.6,0.1-1c0.1-0.5,0.5-0.9,0.6-1.3C229.7,159.6,231.7,158.4,234.3,159.8z"/>
	<path d="M371,160c0.6,0,1,0,1.6,0c0,3.8,0,7.7,0,11.6c1.7,0,3.2,0,4.8,0c0.3,1.1-0.1,1.5-1.1,1.5c-1.7-0.1-3.4,0-5.3,0
		C371,168.7,371,164.5,371,160z"/>
	<path d="M257.1,159.5c0.5-0.1,1-0.2,1.6-0.3c0,0.7,0.1,1.2,0.1,1.7c0,3,0,5.9,0,8.9c0,1-0.2,2,0.9,2.5c0.1,0.1,0.1,0.5,0.2,0.7
		c-1.6,0.6-2.7,0-2.8-1.5C257,167.5,257.1,163.6,257.1,159.5z"/>
	<path d="M314.9,173c-1.6,0.7-2.7,0.1-2.7-1.6c-0.1-2.6,0-5.2,0-7.8c0-1.3,0-2.6,0-4.1c0.3-0.1,0.8-0.2,1.5-0.4
		c0.1,0.6,0.2,1.1,0.2,1.6c0,3,0,5.9,0,8.9c0,1-0.2,2,0.9,2.7C314.9,172.5,314.9,172.8,314.9,173z"/>
	<path d="M309,144.6c-0.3-0.3-0.5-0.6-0.8-0.8c-0.4,0.2-0.7,0.5-1.1,0.7c-1.7,0.7-3.2-0.2-3.3-2.1c0-1.5,0-3,0-4.5c0-1,0-1,1.3-1
		c0,1.7,0,3.4,0,5c0,0.9,0.2,1.6,1.2,1.6c1,0,1.7-0.5,1.8-1.6c0.1-1.3,0-2.6,0-3.9c0-0.9,0-0.9,1.1-1.1c0.1,2.4,0.3,4.8,0.4,7.1
		C309.7,144.2,309.3,144.4,309,144.6z"/>
	<path d="M391.7,136.9c0,2.3,0,4.7,0,7.1c0,0.2-0.4,0.3-0.6,0.5c-0.3-0.3-0.6-0.5-0.8-0.7c-0.5,0.2-0.9,0.5-1.4,0.7
		c-1.6,0.5-2.9-0.4-3-2c0-1.6,0-3.1,0-4.7c0-0.8,0.4-1.1,1.3-0.9c0,1.6,0,3.2,0,4.8c0,0.9,0,1.9,1.3,1.9c1,0,1.7-0.8,1.7-2
		c0-1.2,0-2.4,0-3.6C390.1,137.1,390.5,136.7,391.7,136.9z"/>
	<path d="M317.6,144.4c-0.4,0-0.7,0-1.1,0c-0.1-0.1-0.1-0.2-0.1-0.3c0-1.5,0-3,0-4.4c0-0.8,0.1-1.6-1.1-1.6c-1,0-1.8,0.7-1.8,1.8
		c0,1.5,0,3,0,4.5c-0.9,0.3-1.3,0.1-1.3-0.8c0-1.9-0.1-3.8-0.1-5.7c0-0.3,0.3-0.8,0.4-0.8c0.4,0.1,0.8,0.3,1.4,0.5
		c0.1,0,0.3-0.2,0.6-0.4c1.8-0.9,3.2,0,3.2,1.9c0,1.6,0,3.2,0,4.8C317.7,144,317.7,144.1,317.6,144.4z"/>
	<path d="M341.6,137.6c0.4-0.2,0.7-0.5,1.1-0.6c1.5-0.6,2.9,0.2,2.9,1.8c0,1.5,0,3,0,4.6c0,0.8-0.3,1.2-1.3,0.9c0-1.6,0-3.2,0-4.8
		c0-0.8,0-1.6-1.1-1.5c-0.9,0.1-1.8,0.3-1.9,1.5c0,1.6,0,3.2,0,4.9c-0.5,0-0.8,0-1.3,0c0-2.4,0-4.8,0-7.4c0.5,0.1,1,0.2,1.4,0.3
		C341.5,137.4,341.5,137.5,341.6,137.6z"/>
	<path d="M374.2,136.9c0.1,2.4,0.3,4.7,0.4,7c0,0.2-0.3,0.5-0.6,0.9c-0.4-0.5-0.6-0.7-0.9-1.1c-0.3,0.2-0.6,0.4-0.9,0.5
		c-1.8,0.8-3.4-0.1-3.4-2.1c0-1.5,0-3,0-4.4c0-0.8,0.3-1.2,1.3-0.9c0,1.5,0,3.1,0,4.6c0,0.9-0.1,2,1.3,2c1,0,1.7-0.8,1.7-2.1
		c0-1.2,0-2.4,0-3.6C373,137.1,373.3,136.7,374.2,136.9z"/>
	<path d="M333.1,137c0,1.6,0,3.2,0,4.8c0,0.9,0.1,1.8,1.2,1.9c0.9,0.1,1.8-0.8,1.8-1.9c0-1.3,0-2.5,0-3.8c0-0.8,0.3-1.2,1.1-1
		c0.1,2.4,0.3,4.8,0.3,7.2c0,0.2-0.3,0.3-0.6,0.5c-0.3-0.3-0.5-0.6-0.8-0.8c-0.4,0.2-0.7,0.5-1.1,0.6c-1.8,0.8-3.3-0.2-3.3-2.1
		c0-1.5,0-3,0-4.4C331.8,137,332.1,136.7,333.1,137z"/>
	<path d="M250.8,163.4c-0.2,0.9-0.2,1.6-1.3,1.7c-1.2,0.1-1.6,1.1-1.6,2.2c0,1.9,0,3.8,0,5.7c-0.6,0-1.1,0-1.7,0c0-3.1,0-6.2,0-9.4
		c0.3-0.1,0.7-0.2,1.3-0.3c0.2,0.4,0.3,0.8,0.6,1.3C248.8,164,249.5,163,250.8,163.4z"/>
	<path d="M179.8,164.5c1-0.5,1.9-0.9,2.8-1.4c0.1,1.2-0.1,1.9-1.3,2c-1.1,0.1-1.5,1.1-1.5,2.2c0,1.9,0,3.8,0,5.7c-0.6,0-1,0-1.7,0
		c0-3.1,0-6.1,0-9.4c0.2-0.1,0.7-0.2,1.3-0.3C179.6,163.8,179.7,164.2,179.8,164.5z"/>
	<path d="M152.6,173.1c-0.6,0-1.1,0-1.7,0c0-3.1,0-6.1,0-9.4c0.3-0.1,0.7-0.2,1.3-0.3c0.2,0.5,0.3,0.8,0.4,1.1
		c1-0.5,1.9-0.9,2.8-1.4c0,1.1,0.1,1.9-1.2,2c-1,0.1-1.6,0.9-1.6,2c0,1.5,0,3,0,4.6C152.6,172.1,152.6,172.5,152.6,173.1z"/>
	<path d="M391,173.1c-0.5,0-0.9,0-1.6,0c0-3.1,0-6.2,0-9.4c0.2-0.1,0.7-0.2,1.2-0.3c0.2,0.4,0.3,0.8,0.5,1.1c0.9-0.4,1.8-0.9,3-1.5
		c-0.1,1.3-0.2,2-1.3,2.1c-1.2,0.1-1.6,1.1-1.6,2.2c0,1.4,0,2.9,0,4.3C391.1,172.1,391.1,172.6,391,173.1z"/>
	<path d="M293.2,144.4c-0.9,0.4-1.8,0-1.8-1.2c-0.1-3-0.1-5.9,0-8.9c0-0.3,0.6-0.6,1.1-1.1c0.1,0.9,0.2,1.3,0.2,1.8c0,2,0,4.1,0,6.1
		C292.8,142.1,293.1,143.2,293.2,144.4z"/>
	<path d="M384.5,137.1c-0.5,0.4-0.8,0.7-1,0.7c-1,0-1,0.6-1,1.3c0,1,0,2,0,3c0,0.8,0.2,1.5,1.2,1.5c0.2,0,0.4,0.2,0.5,0.3
		c-0.2,0.2-0.3,0.4-0.5,0.5c-1.3,0.5-2.5-0.3-2.5-1.7c0-1.3,0-2.5,0-3.8c0-0.5,0.2-1-0.6-1.3c-0.6-0.2-0.4-0.6,0.6-1
		c0.1-0.8-0.3-2,1.3-1.9c0,0.6,0,1.2,0,1.9C383.1,136.9,383.6,137,384.5,137.1z"/>
	<path d="M378.4,133.6c0,2.6,0,5.2,0,7.8c0,0.9,0.3,1.9,0.5,3c-0.8,0.5-1.7,0.1-1.8-1.3c0-1.9,0-3.7,0-5.6c0-0.9,0-1.9-0.1-2.8
		C376.9,133.8,377.2,133.5,378.4,133.6z"/>
	<path d="M395.6,144.3c-1,0.3-1.3-0.1-1.3-0.9c0-1.9-0.1-3.8-0.1-5.7c0-0.3,0.3-0.8,0.4-0.7c0.4,0.1,0.8,0.3,1.3,0.5
		c0.4-0.2,1.1-0.5,1.8-0.8c0.1,0.1,0.2,0.3,0.3,0.4c-0.3,0.3-0.6,0.8-1,0.9c-1.1,0.3-1.5,1-1.5,2.1
		C395.6,141.4,395.6,142.8,395.6,144.3z"/>
	<path d="M288.6,136.9c0,2.4,0,4.9,0,7.4c-0.4,0-0.7,0.1-1.1,0.1c-0.1-0.1-0.2-0.2-0.2-0.3c0-2.1,0-4.2-0.1-6.3
		C287.3,136.9,287.8,136.8,288.6,136.9z"/>
	<path d="M242.6,161.2c-0.7,0.5-1.1,1.1-1.5,1.1c-0.3,0-1-0.7-1-1c0.1-0.4,0.6-1,1-1.1C241.5,160,242,160.6,242.6,161.2z"/>
	<path d="M237.2,162.8c-0.5-0.8-1-1.2-1-1.7c0-0.4,0.6-0.7,0.9-1.1c0.4,0.4,0.9,0.7,1,1.2C238.2,161.5,237.7,162,237.2,162.8z"/>
	<path d="M288.1,133.3c0.4,0.6,0.9,0.9,0.9,1.2c-0.1,0.4-0.6,0.6-0.9,1c-0.3-0.3-0.8-0.6-0.8-1C287.1,134.2,287.6,133.9,288.1,133.3
		z"/>
	<path class="st0" d="M214.2,114.3c-1.5-1.6-2.9-1.7-4.5-0.2c0.2-0.8,0.7-1.7,0.5-2.4c-0.2-0.7-1-1.2-1.7-2c1.7,0.1,3.2-0.2,3.3-2.5
		c0.6,1.9,1.5,3.1,3.8,2.5C213.6,110.9,213.3,112.4,214.2,114.3z"/>
	<path class="st0" d="M201,88c0.2,2,1.1,3,3.3,2.6c-1.8,1.2-2.3,2.6-1.2,4.5c-1.5-1.4-2.9-1.8-4.4-0.1c0.7-1.9,0.7-3.4-1.7-4.3
		c1.3-0.2,2.3-0.1,2.8-0.5c0.5-0.4,0.6-1.4,0.9-2.1C200.8,88.1,200.9,88.1,201,88z"/>
	<path class="st0" d="M170.5,96.4c0.4,2.1,1.4,3,3.6,2.6c-1.8,1.2-2.5,2.5-1.2,4.5c-0.1,0-0.2,0.1-0.3,0.1c-0.7-0.5-1.4-1-2.1-1.5
		c-0.7,0.5-1.4,1-2.2,1.5c0.8-1.8,0.6-3.3-1.5-4.5C169.1,99.4,170.1,98.4,170.5,96.4z"/>
	<path class="st0" d="M186.4,132.1c2.2,0.3,3.1-0.7,3.5-2.7c0.4,2,1.5,3,3.6,2.7c-1.9,1.1-2.3,2.5-1.5,4.4c-0.7-0.5-1.3-0.9-2.1-1.4
		c-0.7,0.4-1.3,0.9-2.4,1.6C188.5,134.7,188.3,133.2,186.4,132.1z"/>
	<path class="st0" d="M178.8,126.4c0.5,2,1.3,3.1,3.6,2.7c-1.7,1.1-2.4,2.5-1.3,4.5c-1.6-1.6-3-1.6-4.4,0c0.6-1.9,0.8-3.5-1.5-4.4
		C177.2,129.4,178.6,128.7,178.8,126.4z"/>
	<path class="st0" d="M200.9,126.3c0.4,1.9,1.1,3.2,3.5,2.8c-1.8,1.1-2.2,2.5-1.3,4.5c-1.5-1.6-2.9-1.5-4.4,0
		c0.8-1.9,0.8-3.4-1.4-4.4C199.6,129.4,200.6,128.3,200.9,126.3z"/>
	<path class="st0" d="M174.5,121.2c-2.3,1-2.6,2.4-1.4,4.4c-1.1-0.6-1.8-1.3-2.5-1.3c-0.7,0-1.3,0.7-2.4,1.4
		c1.2-2.1,0.7-3.5-1.2-4.5c2.2,0.3,3.3-0.6,3.7-2.6c0.3,0.7,0.4,1.7,1,2.2C172.2,121.1,173.2,121,174.5,121.2z"/>
	<path class="st0" d="M212.7,120.8c-1.9,1.1-2.3,2.4-1.6,4.4c-0.7-0.4-1.3-0.9-2.1-1.3c-0.6,0.4-1.3,0.9-1.9,1.3
		c0.6-1.8,0.3-3.3-1.7-4.4c2.4,0.5,3.2-0.7,3.6-2.8C209.4,120.1,210.2,121.4,212.7,120.8z"/>
	<path class="st0" d="M182.1,90.9c-2,1.1-2.3,2.5-1.5,4.4c-0.7-0.5-1.4-0.9-2.1-1.4c-0.7,0.5-1.3,0.9-2,1.4c0.6-1.8,0.4-3.3-1.6-4.4
		c2.2,0.4,3.2-0.6,3.6-2.7C178.9,90.2,179.8,91.3,182.1,90.9z"/>
	<path class="st0" d="M189.6,85.1c0.4,2.1,1.4,3.1,3.7,2.6c-1.9,1.1-2.5,2.5-1.4,4.6c-1.6-1.7-3-1.6-4.5,0c0.9-2,0.7-3.4-1.4-4.5
		C188.1,88.1,189.3,87.3,189.6,85.1z"/>
	<path class="st0" d="M210.9,102.9c-1.5-1.4-2.9-1.3-4.4,0.2c0.8-1.9,0.7-3.4-1.4-4.4c2.3,0.3,3.2-0.8,3.5-3.1
		c0.5,1.2,0.6,2.1,1.2,2.6c0.5,0.4,1.5,0.3,2.4,0.5c-0.6,0.6-1.5,1.1-1.7,1.7C210.3,101.2,210.8,102.1,210.9,102.9z"/>
	<path class="st0" d="M164,110c2.2,0.4,3.3-0.6,3.5-2.7c0.5,1.7,1.2,3.2,3.5,2.8c-1.9,1.1-2.1,2.5-1.2,4.4c-1.5-1.5-2.9-1.6-4.4,0.1
		C166.2,112.6,166.1,111.1,164,110z"/>
	<path class="st0" d="M339.1,166.5c0-1.2,0.5-1.8,1.7-1.9c1.2,0,1.8,0.6,1.8,1.8c0,1.2-0.6,1.9-1.7,1.9
		C339.8,168.3,339.1,167.7,339.1,166.5z"/>
	<path class="st0" d="M172.8,166.5c0,1.1-0.7,1.9-1.8,1.9c-1.1,0-1.8-0.7-1.8-1.8c0-1.2,0.7-1.8,1.8-1.8
		C172.2,164.7,172.8,165.3,172.8,166.5z"/>
	<path class="st0" d="M273.7,168.3c0-0.5,0-0.9,0-1.4c-0.1-1.2,0.6-1.7,1.7-2c1.1-0.2,2,0.1,2.3,1.2c0.5,1.6,0.5,3.2-0.2,4.7
		c-0.4,0.9-1.3,1.2-2.2,0.9c-0.9-0.2-1.6-0.7-1.5-1.8C273.7,169.4,273.7,168.8,273.7,168.3z"/>
	<path class="st0" d="M142,163.8c0-0.1,0-0.2,0-0.3c0.3-0.8-0.8-2.2,1.1-2.2c2.4,0,3.4,0.7,3.4,2.4c0.1,1.5-0.8,2.7-2.2,2.7
		C141.5,166.5,142.1,166.8,142,163.8z"/>
	<path class="st0" d="M279.7,143.2c-0.4-2.8-0.3-3.5,0.8-3.5c2.1-0.1,3,0.4,3,1.8C283.5,142.9,282.5,143.4,279.7,143.2z"/>
	<path class="st0" d="M279.5,135.2c0.9,0.1,1.6,0,2.2,0.1c0.9,0.1,1.3,0.8,1.3,1.6c0,0.8-0.5,1.3-1.3,1.5c-1.9,0.4-2.2,0.1-2.2-1.7
		C279.5,136.3,279.5,135.9,279.5,135.2z"/>
	<path class="st0" d="M288.1,167.3c-1.3,0-2.5,0-3.8,0c-0.3-1,0-1.9,0.8-2.4c0.5-0.3,1.3-0.4,1.9-0.2
		C288,165.2,288.1,166.2,288.1,167.3z"/>
	<path class="st0" d="M408.2,167.3c-0.2-1.7,0.6-2.8,1.9-2.8c1.3,0,2,1.1,1.8,2.8C410.7,167.3,409.4,167.3,408.2,167.3z"/>
	<path class="st0" d="M163.2,168.5c-0.2,0.7-0.2,1.7-0.6,2.3c-0.3,0.6-1.2,1.1-1.7,1.1c-0.6,0-1.7-0.7-1.8-1.2
		c-0.3-1.5-0.3-3.2-0.1-4.7c0.1-0.9,0.8-1.4,1.8-1.4c1,0,1.7,0.4,2,1.4C163,166.8,163.1,167.6,163.2,168.5z"/>
	<path class="st0" d="M267.9,167.4c-1.7,0-2.9,0-4.7,0c0.5-1,0.8-1.9,1.4-2.5c0.4-0.3,1.5-0.3,1.8,0
		C267.1,165.5,267.3,166.4,267.9,167.4z"/>
	<path class="st0" d="M353.1,167.3c-1.3,0-2.5,0-3.8,0c-0.3-0.9-0.1-1.8,0.7-2.3c0.5-0.3,1.4-0.5,2-0.2
		C353,165.2,353.1,166.3,353.1,167.3z"/>
	<path class="st0" d="M322.2,169.8c-0.3,0.6-0.5,1.5-1,1.8c-0.5,0.4-1.4,0.5-2,0.3c-0.4-0.1-0.8-1.1-0.7-1.5
		c0.1-0.6,0.7-1.2,1.2-1.7c0.2-0.2,0.6-0.1,1-0.2C321.7,168.2,322.2,168.5,322.2,169.8z"/>
	<path class="st0" d="M384.9,167.4c-1.3,0-2.6,0-3.8,0c-0.1-1.7,0.5-2.7,1.7-2.8C384,164.5,384.8,165.4,384.9,167.4z"/>
	<path class="st0" d="M189.4,168.5c0.3,3-0.5,3.4-2,3.6c-1,0.1-1.6-0.8-1.5-1.9C186,168.8,187.3,168.1,189.4,168.5z"/>
	<path class="st0" d="M266.8,135.3c2.7-0.4,3.8,0.4,4,2.9c0.1,0.8,0.1,1.6,0,2.4c-0.3,2.2-1.5,2.9-4,2.4
		C266.8,140.5,266.8,137.9,266.8,135.3z"/>
	<path class="st0" d="M324.2,139.2c0,0.8-0.4,1.4-1.3,1.4c-0.9,0-1.4-0.4-1.5-1.4c0-0.9,0.4-1.5,1.3-1.5
		C323.7,137.7,324.2,138.1,324.2,139.2z"/>
	<path class="st0" d="M352.8,140.5c0,0.4,0,0.8,0,1.3c0.1,1-0.6,1.5-1.4,1.6c-0.9,0.1-1.6-0.3-1.8-1.2c-0.1-0.9-0.1-1.9,0-2.9
		c0.1-1,0.8-1.6,1.9-1.4c1.1,0.1,1.4,0.8,1.3,1.8C352.7,139.9,352.8,140.2,352.8,140.5C352.8,140.5,352.8,140.5,352.8,140.5z"/>
	<path class="st0" d="M299.9,140.7c0,0.3,0,0.5,0,0.8c0,1.4-0.5,1.9-1.5,2c-1,0.1-1.7-0.5-1.8-1.8c-0.1-0.8,0-1.6,0.1-2.4
		c0.2-1,0.8-1.4,1.8-1.3c1,0.1,1.5,0.7,1.3,1.8C299.8,140,299.9,140.3,299.9,140.7C299.9,140.7,299.9,140.7,299.9,140.7z"/>
</g>
</svg>
