<?xml version="1.0" encoding="utf-8"?>
<!-- Generator: Adobe Illustrator 16.0.0, SVG Export Plug-In . SVG Version: 6.00 Build 0)  -->
<!DOCTYPE svg PUBLIC "-//W3C//DTD SVG 1.1//EN" "http://www.w3.org/Graphics/SVG/1.1/DTD/svg11.dtd">
<svg version="1.1" id="Ebene_1" xmlns="http://www.w3.org/2000/svg" xmlns:xlink="http://www.w3.org/1999/xlink" x="0px" y="0px"
	 width="200px" height="175px" viewBox="0 0 200 175" enable-background="new 0 0 200 175" xml:space="preserve">
<path fill="#9a9997" d="M11.311,56.818h62.212c0,0.377,0.059,0.638,0.059,0.928v39.502c0,0.813-0.176,0.986-0.987,0.986h-60.21
	c-0.376,0-0.754,0.059-1.131,0.059C11.311,84.516,11.311,70.71,11.311,56.818z M57.716,79.498c-0.552-1.246-0.376-2.116,0.87-2.87
	c-1.45,0.319-2.001-0.435-2.378-1.567c-0.058,1.451-0.986,1.624-2.06,1.567c0.435,0.435,0.928,0.811,1.073,1.246
	c0.116,0.435-0.174,0.986-0.319,1.508C55.889,78.454,56.757,78.512,57.716,79.498L57.716,79.498z M49.45,63.083
	c-0.059,0-0.115,0.057-0.175,0.057c-0.173,0.436-0.261,1.074-0.55,1.305c-0.377,0.262-0.929,0.175-1.74,0.32
	c1.508,0.551,1.565,1.509,1.072,2.698c0.986-1.132,1.826-0.812,2.756,0.059c-0.697-1.247-0.321-2.118,0.754-2.813
	c-1.422,0.233-2.002-0.377-2.119-1.624L49.45,63.083z M30.395,68.332c-0.261,1.305-0.87,1.885-2.262,1.624
	c1.247,0.697,1.45,1.624,0.928,2.814c0.436-0.32,0.87-0.638,1.363-0.928c0.436,0.319,0.871,0.638,1.306,0.928
	c0.058,0,0.115-0.058,0.174-0.058c-0.87-1.189-0.435-2.059,0.755-2.813C31.265,70.188,30.627,69.637,30.395,68.332L30.395,68.332z
	 M40.314,90.637c1.247,0.695,1.305,1.622,0.695,2.87c0.698-0.435,1.074-0.696,1.509-0.985c0.438,0.318,0.87,0.638,1.306,0.869
	c-0.494-1.188-0.261-2.059,0.929-2.754c-1.364,0.174-2.002-0.437-2.262-1.684c-0.231,1.247-0.842,1.886-2.175,1.684H40.314
	L40.314,90.637z M35.587,87.067c-0.116,1.451-0.929,1.828-2.32,1.74c1.508,0.553,1.363,1.567,0.928,2.756
	c0.929-0.986,1.828-1.074,2.755,0c-0.694-1.248-0.26-2.117,0.814-2.813c-1.363,0.317-1.943-0.435-2.175-1.683L35.587,87.067z
	 M49.392,87.01c-0.173,1.306-0.812,1.943-2.262,1.828c1.362,0.637,1.362,1.564,0.868,2.756c0.93-0.93,1.827-0.986,2.756,0
	c-0.551-1.191-0.32-2.061,0.812-2.814c-1.421,0.232-1.915-0.579-2.176-1.769H49.392z M32.889,83.82
	c-0.812-0.117-1.449-0.058-1.826-0.32c-0.377-0.261-0.436-0.87-0.639-1.362c-0.174,1.305-0.928,1.827-2.319,1.624
	c1.188,0.696,1.449,1.508,0.754,2.813c0.695-0.378,1.072-0.87,1.508-0.87c0.435,0,0.87,0.435,1.566,0.812
	C31.265,85.327,31.439,84.458,32.889,83.82L32.889,83.82z M56.759,83.588c-1.508,0.319-2.001-0.493-2.262-1.74
	c-0.261,1.247-0.754,2.059-2.263,1.74c1.247,0.638,1.45,1.566,1.073,2.755c0.436-0.261,0.813-0.551,1.189-0.812
	c0.435,0.319,0.87,0.551,1.305,0.812C55.28,85.125,55.569,84.254,56.759,83.588z M37.646,64.88
	c-1.363,0.262-2.001-0.435-2.262-1.681c-0.175,1.304-0.87,1.943-2.263,1.681c1.247,0.695,1.45,1.566,0.985,2.755
	c0.378-0.32,0.813-0.551,1.248-0.872c0.436,0.319,0.87,0.638,1.306,0.87c-0.465-1.189-0.262-2.06,0.985-2.758L37.646,64.88
	L37.646,64.88z M42.315,61.255c-0.175,1.363-0.87,1.884-2.262,1.682c1.305,0.697,1.449,1.567,0.87,2.813
	c0.928-0.986,1.827-1.073,2.813,0c-0.694-1.306-0.317-2.175,0.87-2.871c-1.392,0.319-2.087-0.319-2.289-1.625L42.315,61.255
	L42.315,61.255z M55.656,72.393c-0.116-0.493-0.376-1.073-0.261-1.508c0.116-0.435,0.696-0.697,1.074-1.073
	c-0.552-0.059-1.191,0-1.51-0.319c-0.377-0.32-0.437-0.87-0.755-1.624c-0.173,1.449-0.754,2.116-2.175,1.943
	c1.305,0.638,1.362,1.565,0.868,2.754c0.985-0.985,1.856-1.13,2.755-0.173H55.656z M26.334,76.83
	c1.304,0.638,1.363,1.565,0.869,2.813c0.929-1.073,1.827-0.929,2.756-0.058c-0.494-1.19-0.437-2.06,0.754-2.755
	c-1.451,0.261-1.886-0.638-2.177-1.74C28.391,76.452,27.752,77.063,26.334,76.83L26.334,76.83z M149.684,56.383
	c0.436,0.376,0.93,0.754,1.508,1.189c-6.875,5.452-14.327,9.686-22.885,11.745c0.058-0.057,0.116-0.116,0.174-0.116
	c0.059-0.058,0.117-0.058,0.261-0.058c7.454-2.987,14.241-6.99,20.331-12.269c0.175-0.116,0.318-0.319,0.492-0.493h0.115h0.004
	V56.383z M135.994,118.537c-0.377-0.262-0.871-0.436-1.188-0.755c-0.265-0.261-0.32-0.755-0.265-1.132
	c0-0.115,0.492-0.262,0.813-0.377c0.316,1.306,1.188,1.828,2.377,1.306c0.318-0.115,0.638-0.552,0.638-0.87
	s-0.376-0.754-0.638-0.813c-0.494-0.176-1.131-0.115-1.625-0.176c-0.494-0.06-1.073,0-1.188-0.697
	c-0.116-0.637,0.317-0.813,0.754-1.072c0.058,0,0.058-0.061,0.115-0.117c-1.363-1.074-1.565-2.264-0.552-3.133
	c0.695-0.551,1.508-0.696,2.378-0.493c0.694,0.114,1.362,0.114,2.06,0.174c0-0.06,0.059-0.116,0.059-0.174
	c0.115,0.174,0.262,0.377,0.435,0.694c-0.494,0.115-0.871,0.261-1.248,0.375c0.437,1.684,0,2.379-1.739,2.757
	c-0.437,0.116-0.986,0.116-1.132,0.927c0.697,0.059,1.306,0.059,1.943,0.117c0.696,0.059,1.188,0.377,1.45,1.074
	c0.26,0.695,0.057,1.305-0.494,1.826c-0.32,0.262-0.695,0.436-1.072,0.639c-0.581-0.088-1.219-0.088-1.887-0.088L135.994,118.537z
	 M135.79,112.156c0,0.754,0.437,1.131,1.132,1.131c0.697,0,1.073-0.436,1.073-1.189c0-0.752-0.378-1.129-1.132-1.129
	c-0.754,0.059-1.075,0.436-1.075,1.188H135.79L135.79,112.156z M29.872,118.537c-0.174-0.059-0.378-0.176-0.551-0.262
	c-0.871-0.377-1.132-0.813-0.929-1.887c0.261,0,0.551-0.058,0.813-0.058c0.317,1.247,1.188,1.739,2.377,1.247
	c0.318-0.115,0.638-0.551,0.638-0.87c0-0.317-0.377-0.694-0.697-0.812c-0.435-0.174-0.928-0.059-1.449-0.114
	c-0.494-0.058-1.306,0.059-1.364-0.64c-0.057-0.435,0.435-0.867,0.638-1.246c-0.261-0.492-0.755-1.071-0.871-1.682
	c-0.06-0.436,0.261-1.072,0.551-1.449c0.551-0.639,1.363-0.695,2.176-0.553c0.694,0.117,1.448,0.117,2.116,0.262
	c0-0.058,0.057-0.174,0.057-0.262c0.116,0.176,0.318,0.378,0.552,0.698c-0.494,0.116-0.871,0.263-1.248,0.377
	c0.377,1.739,0,2.38-1.886,2.754c-0.378,0.062-0.697,0.321-1.075,0.494c0,0.06,0,0.175,0.058,0.261
	c0.318,0.061,0.551,0.176,0.869,0.176c0.377,0.059,0.755,0,1.132,0.059c0.869,0.059,1.362,0.552,1.507,1.248
	c0.114,0.812-0.262,1.508-0.987,1.886c-0.261,0.116-0.494,0.174-0.697,0.319c-0.551,0.06-1.103,0.06-1.74,0.06L29.872,118.537z
	 M31.815,112.156c0-0.756-0.378-1.133-1.132-1.133c-0.697,0-1.132,0.437-1.132,1.133c0,0.695,0.435,1.131,1.13,1.131
	c0.695,0,1.132-0.463,1.132-1.131H31.815z M188.635,116.332c-0.32,0-0.639-0.059-1.074-0.059v-3.799
	c0-1.074-0.174-1.451-0.813-1.363c-0.871,0.059-1.452,0.638-1.452,1.508v3.684h-1.073v-5.888c0.174-0.058,0.435-0.116,0.813-0.174
	c0.058,0.261,0.173,0.493,0.26,0.696c2.117-0.985,2.495-0.93,3.453,0.318c-0.117,1.653-0.117,3.395-0.117,5.075L188.635,116.332
	L188.635,116.332z M83.472,72.19c0.493-0.174,0.928-0.494,1.449-0.638c1.74-0.378,3.452-0.755,5.191-0.986
	c1.306-0.174,2.641-0.378,3.945-0.494c3.887-0.319,7.569,0.551,11.138,2.06c2.174,0.869,4.263,2.058,6.322,3.131
	c0.695,0.378,1.305,0.436,1.942,0.059c1.362-0.754,2.755-1.508,4.118-2.262c3.626-2.002,7.568-2.93,11.688-3.249
	c5.135-0.435,10.182,0,15.315,0.26c5.687,0.262,11.369,0.175,16.881-1.827c1.565-0.55,3.075-1.305,4.698-1.943
	c-0.318,0.262-0.639,0.493-0.985,0.754c-3.625,2.262-7.454,4.264-11.571,5.366c-2.494,0.695-5.133,0.928-7.744,1.247
	c-4.698,0.551-9.453,0.638-14.125,1.624c-3.739,0.814-7.309,2.119-10.498,4.323c-0.752,0.494-1.303,1.362-1.826,2.116
	c-0.492,0.814-0.811,1.683-1.305,2.495c-0.754,1.189-1.451,1.365-2.756,0.755c-2.552-1.247-4.699-3.189-6.699-5.192
	c-2.262-2.32-4.756-4.32-7.686-5.684c-2.32-1.129-4.699-2.057-7.25-2.173c-1.509-0.057-2.93,0.173-4.438,0.26
	c-1.684,0.117-3.452,0.174-5.135,0.321c-0.174,0-0.378-0.057-0.638-0.057c0.029-0.057,0.029-0.117-0.029-0.262L83.472,72.19z
	 M158.619,62.386c-5.512,3.945-11.369,6.643-18.186,6.932c5.943-1.305,11.078-4.002,15.631-7.802
	c0.319-0.26,0.639-0.375,0.986-0.114c0.436,0.348,0.926,0.61,1.565,0.988L158.619,62.386z M153.252,59.196
	c-6.322,4.64-12.818,8.701-20.766,9.802c1.826-0.695,3.625-1.362,5.451-2.116c4.814-2.002,9.252-4.756,13.256-8.121
	C151.918,58.181,151.918,58.181,153.252,59.196z M58.267,116.273v-4.002c0-0.551,0.059-1.131-0.754-1.131
	c-0.754,0-1.363,0.551-1.363,1.246v3.887h-1.073v-5.803c0.376-0.115,0.87-0.436,0.985,0.492c1.133-0.811,2.118-1.188,3.074,0.059
	c0.491-0.26,0.927-0.553,1.448-0.754c0.87-0.264,1.741,0.172,1.827,0.984c0.058,1.623,0,3.307,0,4.986h-0.985v-3.942
	c0-0.551,0.114-1.188-0.755-1.188c-0.696,0-1.362,0.697-1.362,1.306v3.8c-0.348,0.057-0.667,0.057-1.044,0.057L58.267,116.273z
	 M49.711,116.273h-1.073v-3.887c0-0.551,0.059-1.246-0.812-1.246c-0.813,0-1.306,0.491-1.306,1.305v3.801h-1.073v-5.889
	c0.175-0.059,0.436-0.116,0.754-0.174c0.115,0.26,0.175,0.436,0.319,0.639c1.566-0.93,2.001-0.87,2.987,0.115
	c0.438-0.262,0.87-0.551,1.364-0.696c0.929-0.317,1.827,0.176,1.886,1.132c0.116,1.625,0,3.191,0,4.874H51.83v-3.944
	c0-0.553,0.059-1.248-0.813-1.248c-0.696,0-1.306,0.698-1.306,1.365c0.002,1.307,0.002,2.553,0.002,3.857L49.711,116.273z
	 M165.492,65.809c-5.251,2.93-10.762,3.886-16.504,3.799c1.626-0.377,3.248-0.696,4.814-1.131c2.932-0.784,5.743-1.973,8.268-3.713
	c0.378-0.26,0.695-0.319,1.074-0.059c0.727,0.348,1.422,0.666,2.35,1.103L165.492,65.809z M95.102,115.896
	c-0.494,0.174-0.87,0.318-1.306,0.492v-8.613c0.261-0.057,0.551-0.115,1.073-0.262v3.075c0.174,0,0.261,0.058,0.319,0
	c1.886-0.928,3.509-0.06,3.626,2.06c0.059,0.64,0,1.248-0.115,1.828c-0.464,1.684-2.233,2.553-3.596,1.422L95.102,115.896z
	 M94.898,113.287v0.986c-0.059,0.697,0.376,0.985,0.928,1.133c0.638,0.115,1.132,0,1.363-0.553c0.435-0.928,0.435-1.942,0.116-2.929
	c-0.261-0.694-0.754-0.928-1.45-0.754c-0.697,0.116-1.132,0.437-1.074,1.248c0.114,0.231,0.114,0.552,0.114,0.87L94.898,113.287z
	 M12.559,113.143v3.133h-1.074c0-0.174-0.058-0.318-0.058-0.436v-7.802c1.306,0.114,2.641,0.114,3.8,0.376
	c0.987,0.262,1.451,1.307,1.306,2.494c-0.114,0.986-0.812,1.887-1.885,2.061c-0.521,0.115-1.275,0.115-2.087,0.174H12.559z
	 M12.559,110.475c0.058,1.885-0.319,1.682,1.508,1.682c0.87,0,1.45-0.695,1.363-1.682c-0.059-1.072-0.697-1.508-2.119-1.508
	c-1.188,0-0.551,0.87-0.697,1.363c-0.06,0.057,0,0.057-0.06,0.145H12.559L12.559,110.475z M97.712,98.264v-6.438
	c0.928,0.057,1.943,0,2.813,0.261c0.435,0.116,0.869,0.638,1.072,1.131c0.319,0.755-0.174,1.306-0.754,1.624
	c0.377,0.436,0.869,0.813,0.986,1.307c0.316,1.072-0.321,2-1.51,2.115c-0.784,0.059-1.653,0-2.61,0H97.712L97.712,98.264z
	 M98.669,97.568c1.739,0.174,2.377-0.116,2.377-1.074c0-0.869-0.55-1.188-1.885-1.129c-0.695,0.029-0.752,0.406-0.491,2.205
	L98.669,97.568z M98.523,92.58v0.986c0,1.129,0.174,1.305,1.363,1.07c0.493-0.115,0.812-0.377,0.812-0.928
	c0-0.553-0.261-0.93-0.812-0.988c-0.348-0.146-0.783-0.087-1.363-0.146V92.58z M105.107,113.578h-3.567
	c-0.116,0.754,0,1.305,0.551,1.74c0.812,0.551,1.624,0.318,2.437-0.174c0.377,0.377,0.377,0.551-0.057,0.869
	c-1.509,0.928-3.512,0.319-4.004-1.449c-0.378-1.133-0.378-2.32,0.319-3.363c0.491-0.813,1.565-1.246,2.493-1.072
	c0.929,0.174,1.566,0.871,1.74,1.941c0.028,0.523,0.028,0.959,0.088,1.511V113.578z M103.918,112.648
	c0.059-0.694-0.059-1.305-0.695-1.564c-0.32-0.115-0.871-0.061-1.189,0.116c-0.492,0.317-0.695,0.87-0.492,1.508
	c0.813-0.058,1.564-0.058,2.378-0.058L103.918,112.648L103.918,112.648z M182.574,113.578h-3.625
	c-0.115,0.754,0.058,1.361,0.639,1.74c0.813,0.492,1.564,0.261,2.32-0.174c0.492,0.377,0.435,0.637-0.059,0.869
	c-1.684,0.987-3.627,0.174-4.002-1.74c-0.263-1.188-0.263-2.377,0.637-3.363c0.695-0.754,1.508-0.928,2.436-0.695
	c0.928,0.321,1.45,0.93,1.566,1.943c-0.002,0.436-0.002,0.871,0.086,1.423L182.574,113.578z M179.007,112.648h2.321
	c0.059-1.072-0.378-1.74-1.133-1.74C179.384,110.908,178.861,111.576,179.007,112.648z M21.752,113.2
	c0.059-1.683,0.755-2.697,2.06-2.987c1.189-0.261,2.494,0.318,2.814,1.508c0.26,0.871,0.26,1.829,0.114,2.698
	c-0.175,1.306-1.189,2.002-2.438,2.002c-1.249,0-2.06-0.754-2.38-2.06c-0.059-0.35-0.116-0.727-0.173-1.159L21.752,113.2z
	 M25.813,113.402c-0.116-0.551-0.173-1.072-0.319-1.565c-0.174-0.64-0.551-0.87-1.247-0.87c-0.638,0-1.131,0.318-1.131,0.869
	c-0.058,0.986-0.058,2.002,0.058,2.93c0.059,0.32,0.696,0.756,1.132,0.756c0.377,0,0.87-0.377,1.073-0.695
	C25.696,114.447,25.755,113.896,25.813,113.402L25.813,113.402z M88.663,113.52c-0.175,0.812,0,1.362,0.55,1.74
	c0.813,0.492,1.624,0.26,2.379-0.175c0.437,0.319,0.437,0.552,0,0.87c-1.623,1.072-3.683,0.261-4.117-1.625
	c-0.261-0.984-0.261-1.943,0.26-2.87c0.521-0.931,1.51-1.451,2.494-1.306c0.988,0.115,1.684,0.869,1.887,2.002
	c0,0.115,0.059,0.261,0.059,0.377c0.117,0.928,0.117,0.986-0.812,0.986h-2.697H88.663L88.663,113.52z M91.272,112.707
	c-0.319-0.639-0.492-1.189-0.87-1.51c-0.262-0.174-0.928-0.174-1.131,0c-0.377,0.32-0.552,0.93-0.871,1.566
	C89.416,112.707,90.228,112.707,91.272,112.707L91.272,112.707z M142.059,113.52c0.058,1.942,1.246,2.494,3.073,1.564
	c0.493,0.378,0.435,0.639-0.116,0.871c-0.928,0.492-1.885,0.551-2.813,0.059c-1.074-0.638-1.307-1.684-1.363-2.813
	c0-0.986,0.174-1.943,1.072-2.639c1.306-1.072,3.249-0.436,3.626,1.188c0.116,0.494,0.116,1.074,0.174,1.684h-1.886
	C143.305,113.52,142.667,113.52,142.059,113.52L142.059,113.52z M144.551,112.648c0-0.696-0.058-1.305-0.695-1.565
	c-0.377-0.116-0.929-0.06-1.248,0.114c-0.49,0.32-0.637,0.871-0.434,1.451h2.381H144.551z M122.307,111.518
	c-0.059-0.115-0.175-0.318-0.377-0.551c0.984-0.551,1.941-0.929,3.133-0.695c0.752,0.174,1.129,0.638,1.129,1.361
	c0,0.87-0.06,1.74,0,2.641c0,0.436,0.261,0.929,0.261,1.363c0,0.262-0.116,0.551-0.261,0.985c-0.377-0.377-0.639-0.638-0.754-0.696
	c-0.754,0.176-1.362,0.436-2.061,0.436c-0.697,0.059-1.248-0.318-1.566-0.984c-0.262-0.755-0.115-1.684,0.492-2.061
	c0.608-0.377,1.362-0.494,2.061-0.696c0.378-0.058,0.812,0.06,0.755-0.552c-0.062-0.551-0.175-1.072-0.871-0.985
	c-0.581,0-1.22,0.263-1.942,0.435H122.307z M125.234,114.215c0-0.813-0.375-0.984-0.984-0.869c-0.174,0.059-0.491,0-0.639,0.116
	c-0.317,0.319-0.695,0.697-0.754,1.074c-0.059,0.319,0.174,0.87,0.437,0.929c0.377,0.117,0.929,0.061,1.248-0.174
	c0.377-0.145,0.494-0.695,0.696-1.072L125.234,114.215z M165,115.086c0.115,0.174,0.26,0.377,0.376,0.494
	c-1.507,1.508-3.887,0.928-4.438-1.073c-0.174-0.812-0.174-1.683-0.058-2.493c0.261-1.189,1.306-1.943,2.494-1.885
	c1.133,0.059,1.942,0.813,2.118,2.117c0.059,0.377,0,0.813,0,1.305h-3.567c-0.057,0.813,0.06,1.45,0.755,1.827
	c0.813,0.406,1.565,0.204,2.32-0.29V115.086z M164.421,112.708c-0.058-1.188-0.552-1.827-1.306-1.739
	c-0.756,0.059-1.189,0.696-1.072,1.739H164.421z M39.445,111.634c-0.114-0.261-0.316-0.434-0.491-0.753
	c0.697-0.26,1.248-0.551,1.886-0.695c1.683-0.316,2.494,0.379,2.437,2.062c0,0.812-0.057,1.565,0,2.377c0,0.261,0,0.552,0.117,0.755
	c0.377,0.493,0.117,0.754-0.318,1.074c-0.261-0.174-0.494-0.436-0.638-0.494c-0.754,0.174-1.362,0.438-2.06,0.494
	c-0.812,0.057-1.449-0.494-1.624-1.189c-0.173-0.867,0.06-1.738,0.813-2.115c0.493-0.262,1.073-0.379,1.565-0.492
	c0.32-0.059,0.639-0.059,1.133-0.114c-0.175-0.494-0.263-1.188-0.552-1.362c-0.638-0.465-1.45,0.029-2.262,0.465L39.445,111.634z
	 M42.203,113.402c-1.247-0.26-2.118,0.175-2.175,1.074c-0.058,0.697,0.32,1.248,0.928,1.189
	C41.885,115.521,42.408,115.289,42.203,113.402L42.203,113.402z M72.163,110.271v4.004c0,0.984,0.319,1.363,0.985,1.363
	c0.755,0,1.306-0.695,1.306-1.509v-2.93c0-0.87,0-0.87,1.074-0.87v3.742c0,0.437,0,0.929,0.116,1.306
	c0.116,0.377,0.116,0.697-0.261,0.813c-0.173,0.058-0.435-0.174-0.694-0.318c-0.058-0.059-0.115-0.114-0.175-0.114
	c-0.261,0.175-0.493,0.32-0.754,0.435c-1.363,0.697-2.698-0.057-2.755-1.565c-0.058-1.188,0-2.319,0-3.509
	c0.029-0.725,0.348-0.958,1.161-0.842L72.163,110.271z M129.416,116.275h-1.074v-5.889c0.116-0.058,0.438-0.117,0.754-0.174
	c0.116,0.262,0.264,0.493,0.32,0.696c0.438-0.173,0.871-0.435,1.307-0.638c0.985-0.317,1.942,0.174,2.002,1.188
	c0.115,1.565,0,3.19,0,4.759h-0.986v-3.888c0-0.64,0-1.246-0.812-1.246c-0.812-0.058-1.509,0.552-1.509,1.364v3.828L129.416,116.275
	z M107.867,116.219c-0.262,0-0.379,0.059-0.494,0.059h-0.551v-5.889c0.173-0.059,0.437-0.117,0.754-0.262
	c0.115,0.262,0.261,0.494,0.32,0.695c0.492-0.26,0.869-0.492,1.363-0.637c1.074-0.318,1.943,0.377,1.943,1.449
	c0.059,1.51,0,2.987,0,4.555h-1.073v-3.801c0-1.072-0.174-1.449-0.868-1.361c-0.812,0.058-1.449,0.695-1.449,1.508
	c0.058,1.246,0.058,2.436,0.058,3.683L107.867,116.219L107.867,116.219z M175.879,116.277h-0.986v-3.743
	c0-1.072-0.174-1.362-0.869-1.449c-0.867,0-1.448,0.638-1.448,1.509v3.684h-1.072v-5.889c0.174-0.059,0.437-0.117,0.754-0.175
	c0.117,0.261,0.175,0.493,0.263,0.696c0.549-0.26,0.985-0.493,1.564-0.639c0.87-0.174,1.741,0.32,1.828,1.248
	c0.029,1.51-0.029,3.133-0.029,4.758H175.879z M89.71,98.322v-5.945c0-0.174,0.117-0.436,0.263-0.494
	c1.132-0.436,3.306,0.262,3.742,1.365c0.319,0.813,0.436,1.826,0.319,2.695c-0.174,1.683-1.132,2.379-2.813,2.379h-1.509H89.71z
	 M90.61,92.641v4.813c1.566,0.319,2.32-0.116,2.494-1.509c0.058-0.491,0.058-0.985,0-1.508C92.96,92.959,92.292,92.466,90.61,92.641
	L90.61,92.641z M128.286,94.09c-0.378,0.116-0.638,0.174-0.812,0.26c-0.117,0.551-0.059,1.19-0.32,1.566
	c-0.26,0.377-0.868,0.438-1.362,0.697c-0.261,0.115-0.494,0.318-0.754,0.436c0,0.059,0,0.115,0.06,0.176
	c0.493,0.057,0.928,0.115,1.45,0.172c0.697,0.059,1.188,0.379,1.248,1.133c0.06,0.755-0.26,1.363-0.983,1.451
	c-0.813,0.059-1.625-0.059-2.438-0.26c-0.261-0.059-0.378-0.639-0.435-0.986c0-0.114,0.377-0.317,0.638-0.491
	c0.261,1.131,0.813,1.509,1.739,1.188c0.319-0.117,0.639-0.492,0.639-0.756c0-0.262-0.375-0.551-0.695-0.695
	c-0.316-0.113-0.695-0.057-0.986-0.113c-0.375-0.116-0.811-0.174-0.926-0.436c-0.115-0.174,0.26-0.638,0.436-1.07
	c-0.116-0.176-0.493-0.492-0.639-0.87c-0.377-0.984,0.377-1.884,1.51-1.943c0.813-0.058,1.625,0,2.38,0.06
	c-0.027,0.061,0.089,0.291,0.262,0.494L128.286,94.09z M126.488,95.076c0-0.639-0.316-0.928-0.868-0.869
	c-0.638,0-0.812,0.378-0.812,0.93c0,0.551,0.318,0.87,0.928,0.87c0.552-0.058,0.754-0.437,0.754-0.929L126.488,95.076z
	 M116.859,111.203c-0.694-0.114-1.131-0.318-1.623-0.318c-0.491,0-0.928,0.178-1.072,0.756c-0.057,0.637,0.318,0.869,0.813,0.985
	c0.319,0.06,0.696,0.117,0.986,0.263c0.871,0.318,1.363,0.869,1.307,1.682c0,0.755-0.639,1.51-1.363,1.742
	c-0.928,0.319-2,0.115-3.133-0.494c0.059-0.26,0.175-0.435,0.262-0.695c0.638,0.175,1.246,0.378,1.886,0.436
	c0.552,0.06,1.132-0.113,1.188-0.869c0.06-0.694-0.377-0.928-0.928-1.071c-0.377-0.058-0.695-0.175-1.072-0.261
	c-0.694-0.176-1.131-0.695-1.072-1.307c0.059-0.551,0.318-1.188,0.695-1.564c0.553-0.639,2.265-0.639,2.933-0.116
	c0.144,0.173,0.087,0.55,0.203,0.84L116.859,111.203z M151.055,110.652c-0.115,0.261-0.175,0.377-0.32,0.551h-0.26
	c-0.436-0.114-0.929-0.318-1.363-0.262c-0.319,0.06-0.696,0.494-0.813,0.813c-0.057,0.175,0.377,0.552,0.698,0.754
	c0.26,0.175,0.638,0.175,0.983,0.263c0.93,0.261,1.453,0.812,1.453,1.623c0,0.869-0.552,1.565-1.451,1.885
	c-0.928,0.261-1.942,0.117-2.986-0.491c0.061-0.173,0.174-0.435,0.261-0.638c0.638,0.174,1.188,0.377,1.827,0.437
	c0.551,0.06,1.131-0.058,1.248-0.812c0.115-0.756-0.318-0.986-0.93-1.133c-0.26-0.057-0.435-0.115-0.695-0.115
	c-0.928-0.174-1.449-0.756-1.506-1.566c0-0.867,0.494-1.623,1.449-1.827c0.666-0.174,1.652,0.03,2.406,0.521L151.055,110.652z
	 M149.98,95.137v3.131h-0.869v-5.945c0-0.114,0.26-0.26,0.435-0.434c0.116,0.114,0.377,0.318,0.377,0.436
	c0.06,0.752,0,1.507,0,2.378c1.306-0.755,1.451-2.755,3.132-2.872l0.174,0.174c-0.551,0.755-1.129,1.508-1.68,2.176
	c-0.436,0.493-0.492,0.87-0.059,1.448c0.695,0.813,1.246,1.685,1.885,2.554c-0.986,0.262-0.986,0.262-1.452-0.492
	c-0.551-0.869-1.131-1.738-1.739-2.637c-0.058,0.086-0.117,0.086-0.203,0.086V95.137z M85.974,94.961h2c0,0.872,0.059,1.684,0,2.495
	c0,0.261-0.261,0.551-0.492,0.696c-2,0.869-3.943-0.26-4.06-2.379c-0.058-0.639-0.058-1.307,0.116-1.943
	c0.494-1.941,2.553-2.553,4.264-1.363c-0.115,0.436-0.318,0.553-0.755,0.321c-1.305-0.552-2.319-0.116-2.551,1.248
	c-0.117,0.812-0.117,1.683,0.057,2.493c0.06,0.437,0.552,0.928,0.985,1.074c0.438,0.174,1.248,0.174,1.452-0.117
	c0.263-0.377,0.174-1.07,0.116-1.564c0-0.115-0.435-0.175-0.638-0.261c-0.262-0.117-0.435-0.261-0.695-0.377
	c0.087-0.146,0.146-0.204,0.203-0.318L85.974,94.961z M144.357,93.891v-2.32c0.638-0.114,0.871,0.059,0.871,0.695v5.945
	c-0.697,0.059-1.451,0.174-2.117,0.174c-0.756,0-1.45-0.492-1.51-1.246c-0.115-0.755-0.115-1.566,0.058-2.32
	C141.922,93.658,142.878,93.396,144.357,93.891L144.357,93.891z M144.357,95.893v-0.552c0.059-0.638-0.117-0.985-0.813-1.132
	c-0.694-0.057-1.071,0.264-1.188,0.871c-0.058,0.551-0.058,1.189,0,1.829c0.058,0.55,0.494,0.87,1.133,0.755
	c0.551-0.059,0.928-0.378,0.871-0.986v-0.783L144.357,95.893z M112.104,98.15c-0.694,0.058-1.306,0.175-1.942,0.262
	c-0.261,0-0.552-0.059-0.813-0.174c-0.984-0.436-1.447-2.117-0.867-3.45c0.435-1.073,1.306-1.362,2.552-0.929h0.26v-2.381
	c0.319,0.058,0.552,0.115,0.813,0.174v6.498H112.104z M111.292,96.034v-0.638c0.06-0.639-0.173-0.985-0.812-1.133
	c-0.639-0.058-1.072,0.262-1.133,0.813c-0.115,0.491-0.115,0.985-0.057,1.508c0.059,0.812,0.494,1.188,1.132,1.129
	c0.695-0.06,0.929-0.435,0.929-1.248c-0.061-0.146-0.061-0.317-0.061-0.435L111.292,96.034L111.292,96.034z M70.277,107.95
	c-0.057,0.493-0.318,0.639-0.812,0.493c-0.262-0.057-0.813,0.176-0.87,0.377c-0.114,0.437-0.057,0.93-0.057,1.363
	c0,0.06,0.32,0.115,0.494,0.115h0.87c-0.058,1.133-0.984,0.494-1.449,0.872v5.075c-0.377,0-0.638,0.061-1.072,0.061
	c0-0.318-0.058-0.639-0.058-0.93v-3.452c0-0.378,0.174-0.812-0.377-0.985c-0.057,0,0-0.377,0.06-0.637
	c0.059-0.318,0.319-0.552,0.377-0.814c0.029-1.651,1.275-2.403,2.9-1.534L70.277,107.95z M155.75,108.098h0.986v7.25h2.986
	c0.174,0.698-0.058,0.93-0.695,0.93c-1.073-0.057-2.115,0-3.307,0c0.028-2.756,0.028-5.366,0.028-8.178L155.75,108.098
	L155.75,108.098z M84.52,107.779c0.32-0.059,0.638-0.115,0.987-0.176c0,0.438,0.06,0.754,0.06,1.076v5.568
	c0,0.639-0.115,1.248,0.551,1.564c0.059,0.06,0.059,0.32,0.116,0.438c-0.985,0.377-1.683,0-1.739-0.93
	c-0.028-2.551,0.029-4.987,0.029-7.539L84.52,107.779z M120.658,116.221c-0.986,0.434-1.684,0.059-1.684-0.986
	c-0.059-1.623,0-3.248,0-4.873v-2.553c0.174-0.058,0.493-0.117,0.928-0.261c0.061,0.378,0.117,0.696,0.117,0.987v5.568
	c0,0.639-0.117,1.248,0.551,1.683c0.088,0.116,0.088,0.321,0.088,0.438V116.221z M116.975,98.471
	c-0.174-0.175-0.317-0.379-0.492-0.494c-0.26,0.115-0.434,0.319-0.694,0.437c-1.074,0.437-2.002-0.115-2.06-1.306v-2.814
	c0-0.639,0-0.639,0.812-0.639v3.134c0,0.551,0.117,0.987,0.755,0.987c0.639,0,1.072-0.318,1.131-0.986c0.059-0.811,0-1.623,0-2.436
	c0-0.551,0-0.551,0.695-0.694c0.059,1.51,0.174,2.987,0.262,4.438c0.027,0.115-0.203,0.232-0.406,0.377v-0.004H116.975z
	 M168.688,93.654v4.438c0,0.116-0.262,0.174-0.377,0.32c-0.174-0.174-0.377-0.318-0.494-0.436c-0.317,0.117-0.551,0.319-0.868,0.438
	c-0.985,0.318-1.827-0.262-1.886-1.246v-2.936c0-0.494,0.26-0.696,0.813-0.551v2.986c0,0.551,0,1.188,0.813,1.188
	c0.639,0,1.074-0.492,1.074-1.246v-2.264c-0.058-0.58,0.174-0.841,0.93-0.695L168.688,93.654z M122.367,98.32h-0.694
	c-0.058-0.057-0.058-0.114-0.058-0.174v-2.754c0-0.492,0.059-0.986-0.695-0.986c-0.639,0-1.132,0.436-1.132,1.133v2.813
	c-0.55,0.176-0.812,0.061-0.812-0.49c0-1.189-0.059-2.379-0.059-3.567c0-0.173,0.175-0.491,0.262-0.491
	c0.26,0.059,0.493,0.174,0.87,0.319c0.06,0,0.175-0.116,0.377-0.261c1.132-0.551,2.003,0,2.003,1.188v2.987
	c0,0.059,0,0.117-0.057,0.291L122.367,98.32z M137.361,94.088c0.262-0.115,0.438-0.318,0.697-0.378
	c0.93-0.377,1.828,0.116,1.828,1.132v2.871c0,0.493-0.173,0.755-0.811,0.551v-2.986c0-0.492,0-0.985-0.695-0.93
	c-0.552,0.059-1.132,0.174-1.191,0.93v3.074h-0.811V93.71c0.316,0.06,0.639,0.116,0.868,0.174c0.058,0.06,0.058,0.146,0.116,0.204
	H137.361z M157.753,93.652c0.058,1.509,0.175,2.932,0.261,4.381c0,0.115-0.174,0.318-0.377,0.551
	c-0.261-0.318-0.378-0.436-0.552-0.695c-0.173,0.116-0.376,0.262-0.551,0.319c-1.132,0.494-2.117-0.058-2.117-1.306v-2.754
	c0-0.494,0.175-0.754,0.813-0.551v2.871c0,0.551-0.06,1.247,0.813,1.247c0.639,0,1.074-0.491,1.074-1.306v-2.26
	c-0.117-0.377,0.057-0.639,0.638-0.492L157.753,93.652z M132.057,93.712v2.985c0,0.552,0.058,1.133,0.754,1.189
	c0.551,0.057,1.131-0.494,1.131-1.189V94.32c0-0.494,0.174-0.754,0.695-0.639c0.057,1.508,0.172,2.986,0.172,4.494
	c0,0.117-0.172,0.174-0.377,0.319c-0.174-0.175-0.318-0.378-0.492-0.494c-0.264,0.114-0.438,0.317-0.697,0.377
	c-1.131,0.491-2.061-0.116-2.061-1.306v-2.756c0.059-0.609,0.231-0.813,0.869-0.609L132.057,93.712z M80.602,110.212
	c-0.114,0.552-0.114,0.988-0.812,1.074c-0.752,0.06-0.986,0.696-0.986,1.364v3.566h-1.071v-5.888
	c0.174-0.058,0.436-0.115,0.813-0.175c0.116,0.264,0.173,0.494,0.377,0.813c0.435-0.377,0.871-1.015,1.683-0.755L80.602,110.212z
	 M36.197,110.908c0.638-0.316,1.19-0.551,1.742-0.868c0.059,0.754-0.058,1.19-0.813,1.248c-0.696,0.06-0.928,0.696-0.928,1.364
	v3.566h-1.075v-5.888c0.115-0.058,0.436-0.115,0.813-0.175c0.145,0.32,0.203,0.552,0.261,0.756V110.908z M19.201,116.275h-1.073
	v-5.889c0.174-0.058,0.436-0.117,0.813-0.174c0.116,0.32,0.174,0.493,0.26,0.696c0.64-0.317,1.191-0.55,1.742-0.868
	c0,0.695,0.059,1.189-0.754,1.246c-0.638,0.059-0.986,0.552-0.986,1.246v3.742H19.201z M168.25,116.275h-0.986v-5.889
	c0.117-0.058,0.438-0.117,0.756-0.174c0.117,0.262,0.174,0.493,0.318,0.696c0.553-0.261,1.133-0.55,1.887-0.927
	c-0.058,0.811-0.115,1.248-0.812,1.305c-0.755,0.059-0.985,0.697-0.985,1.363v2.699c-0.117,0.289-0.117,0.606-0.175,0.928
	L168.25,116.275z M107.109,98.32c-0.551,0.264-1.129,0-1.129-0.752c-0.059-1.885-0.059-3.684,0-5.566
	c0-0.175,0.377-0.377,0.696-0.695c0.058,0.551,0.114,0.813,0.114,1.129v3.801c0.059,0.666,0.261,1.332,0.318,2.088V98.32
	L107.109,98.32z M164.189,93.77c-0.318,0.262-0.491,0.436-0.639,0.436c-0.639,0-0.639,0.377-0.639,0.813v1.887
	c0,0.494,0.117,0.93,0.755,0.93c0.116,0,0.261,0.116,0.319,0.173c-0.114,0.116-0.174,0.261-0.317,0.32
	c-0.812,0.319-1.565-0.175-1.565-1.072v-2.378c0-0.32,0.115-0.639-0.377-0.813c-0.377-0.113-0.263-0.377,0.377-0.637
	c0.057-0.492-0.174-1.246,0.812-1.189v1.184c0.405,0.232,0.698,0.29,1.276,0.35h-0.002V93.77z M160.361,91.596v4.873
	c0,0.551,0.175,1.19,0.32,1.887c-0.492,0.318-1.074,0.06-1.131-0.813v-3.513c0-0.551,0-1.188-0.058-1.739
	c-0.06-0.58,0.114-0.781,0.87-0.694H160.361z M171.123,98.266c-0.639,0.176-0.813-0.058-0.813-0.551
	c0-1.188-0.058-2.377-0.058-3.566c0-0.174,0.173-0.494,0.261-0.436c0.264,0.059,0.493,0.176,0.813,0.318
	c0.26-0.116,0.696-0.319,1.132-0.493c0.059,0.058,0.116,0.174,0.174,0.26c-0.174,0.175-0.376,0.493-0.638,0.552
	c-0.696,0.174-0.929,0.639-0.929,1.305c0.058,0.814,0.058,1.683,0.058,2.609L171.123,98.266z M104.236,93.652v4.641
	c-0.262,0-0.436,0.059-0.696,0.059c-0.058-0.059-0.116-0.117-0.116-0.174c0-1.306,0-2.641-0.059-3.945
	c0.029-0.58,0.348-0.668,0.867-0.58H104.236z M75.466,108.82c-0.436,0.318-0.696,0.695-0.929,0.695c-0.174,0-0.638-0.437-0.638-0.64
	c0.058-0.261,0.377-0.638,0.638-0.696c0.232-0.086,0.552,0.289,0.929,0.639V108.82z M72.071,109.837
	c-0.317-0.493-0.638-0.755-0.638-1.073c0-0.263,0.378-0.437,0.552-0.697c0.263,0.262,0.551,0.436,0.638,0.754
	C72.712,109.023,72.393,109.342,72.071,109.837L72.071,109.837z M103.918,91.389c0.264,0.379,0.553,0.553,0.553,0.754
	c-0.059,0.262-0.379,0.379-0.553,0.639c-0.173-0.174-0.492-0.377-0.492-0.639c-0.144-0.201,0.176-0.375,0.494-0.754H103.918z"/>
</svg>
