<svg xmlns="http://www.w3.org/2000/svg" viewBox="0 0 612 218.7">
  <style type="text/css">
    .path{fill:#666;}
  </style>  
<g>
	<path class="st0" d="M430.1,214.4c-119.9,0-239.9,0-359.8,0c0.9-0.4,1.7-0.6,2.4-1.1c2.6-1.3,3.9-3.7,3.4-6.5
		c-0.4-2.6-2.2-4.1-5.2-4.3c-1.3-0.2-2.6,0-3.9-0.2c-1.1-0.2-1.9-0.4-3-0.6c0-0.2,0-0.6-0.2-0.9c1.3-0.6,2.4-1.5,3.7-1.7
		c6.5-1.5,7.8-3.4,6.5-9.5c1.3-0.4,2.6-0.9,4.3-1.3c-0.9-1.1-1.3-1.7-1.9-2.4c0,0.2-0.2,0.6-0.2,0.9c-2.4-0.2-5-0.4-7.3-0.9
		c-2.8-0.4-5.6-0.2-7.5,1.9c-1.1,1.3-2.4,3.4-1.9,5c0.4,2.2,2.2,4.1,3,5.8c-0.6,1.3-2.4,2.8-2.2,4.3c0.2,2.4,3,1.9,4.7,2.2
		c1.5,0.2,3.4,0,5,0.4c1.1,0.4,2.4,1.7,2.4,2.8s-1.3,2.6-2.2,3c-4.1,1.7-7.1,0-8.2-4.3c-0.9,0-1.9,0.2-2.8,0.2
		c-0.6,3.7,0.2,5.2,3.2,6.5c0.6,0.2,1.3,0.6,1.9,0.9c-21.3,0-42.7,0-64.2,0c0-23.3,0-46.3,0-69.6c1.3,0,2.6-0.2,3.9-0.2
		c69.2,0,138.4,0,207.6,0c2.8,0,3.4-0.9,3.4-3.4c0-45.5,0-90.8,0-136.2c0-1.1,0-1.9-0.2-3.2c-1.7,0-3.2,0-4.7,0
		c-68.6,0-137.1,0-205.7,0c-1.3,0-2.8,0-4.1,0c0-0.9-0.4-2.2,1.3-1.7c0.4,0,0.6,0,1.1,0c158,0,316,0,474,0c-0.6,0.6-1.1,1.3-1.7,1.7
		c-20.9,18.1-44.6,31.7-70.1,42.3c-0.2,0-0.4,0.2-0.9,0.2c-0.2,0.2-0.4,0.4-0.6,0.4c29.5-7.1,55.2-21.8,78.9-40.5
		c-1.9-1.5-3.4-2.8-5.2-4.1c44.8,0,89.7,0,134.3,0c0,63.2,0,126.1,0,189.3c-3-4.5-4.3-4.5-11.9-1.1c-0.2-0.6-0.4-1.5-0.9-2.4
		c-1.1,0.2-2.2,0.6-2.8,0.6c0,6.9,0,13.6,0,20.3c1.3,0,2.4,0,3.7,0c0-4.3,0-8.4,0-12.7c0-3,1.9-5,5-5.2c2.2,0,2.8,1.1,2.8,4.7
		c0,1.5,0,3,0,4.7c0,2.8,0,5.6,0,8.4c1.5,0,2.6,0.2,3.7,0.2c0,2.6,0,5.2,0,7.8c-58.4,0-116.6,0-175,0c1.3-0.6,2.6-1.3,3.7-2.2
		c1.9-1.5,2.6-3.7,1.7-6.3c-0.9-2.4-2.6-3.4-5-3.7c-2.2-0.2-4.3-0.2-6.7-0.4c0.4-2.8,2.4-3,3.9-3.2c6-1.3,7.5-3.7,6-9.5
		c1.3-0.4,2.6-0.9,4.3-1.3c-0.6-1.1-1.1-1.7-1.5-2.4c0,0.2-0.2,0.4-0.2,0.6c-2.4-0.2-4.7-0.2-7.1-0.6c-3-0.6-5.8-0.4-8.2,1.7
		c-3.7,3-2.8,7.3,1.9,10.8c0,0.2-0.2,0.4-0.4,0.4c-1.5,0.6-3,1.5-2.6,3.7c0.4,2.4,2.4,2.2,4.1,2.4c1.9,0.2,3.9,0,5.6,0.6
		c1.1,0.4,2.2,1.9,2.2,2.8c0,1.1-1.1,2.6-2.2,3c-4.1,1.7-7.1,0-8.2-4.5c-1.1,0.4-2.8,0.9-2.8,1.3c-0.2,1.3,0,3,0.9,3.9
		C427,213.1,428.8,213.5,430.1,214.4z M249,54.6c0.2,0.4,0.2,0.6,0.4,1.1c0.6,0,1.3,0.4,2.2,0.2c5.8-0.2,11.9-0.6,17.7-1.1
		c5.2-0.2,10.1-1.1,15.3-0.9c8.8,0.4,17,3.7,25,7.5c10.1,5,18.8,11.6,26.5,19.6c6.9,6.9,14,13.6,23.1,17.9c4.5,2.2,6.9,1.7,9.5-2.6
		c1.7-2.8,2.8-6,4.5-8.6c1.7-2.6,3.7-5.6,6.3-7.3c11-7.5,23.3-12.3,36.2-14.9c16-3.4,32.6-3.7,48.7-5.6c9.1-1.1,18.1-1.9,26.7-4.3
		c14.2-3.9,27.4-10.8,39.9-18.5c1.3-0.6,2.2-1.7,3.4-2.6c-5.6,2.2-10.8,4.5-16.2,6.7c-18.8,6.9-38.4,7.1-58.2,6.3
		c-17.7-0.9-35.1-2.4-52.8-0.9c-14.2,1.1-27.8,4.5-40.3,11.2c-4.7,2.6-9.5,5.2-14.2,7.8c-2.2,1.1-4.3,1.1-6.7-0.2
		c-7.1-3.9-14.2-7.8-21.8-10.8c-12.3-5-25-8.2-38.4-7.1c-4.5,0.4-9.1,0.9-13.6,1.7c-6,1.1-12.1,2.2-17.9,3.4
		C252.2,52.9,250.7,54,249,54.6z M508.1,20.8c-2.2-1.3-3.9-2.2-5.6-3.4c-1.3-0.9-2.2-0.6-3.4,0.4c-15.7,13.1-33.4,22.4-53.9,26.9
		C469.1,43.6,489.1,34.4,508.1,20.8z M489.6,9.8c-4.5-3.7-4.5-3.4-7.1-1.5c-13.8,11.6-29.1,20.9-45.7,28c-6.3,2.6-12.5,5-18.8,7.3
		C445.4,39.8,467.8,25.7,489.6,9.8z M162.1,206.6c1.5,0,2.4,0,3.7,0c0-4.5,0-8.8,0-13.1c0-2.2,2.6-4.7,4.7-4.5c3,0,2.6,2.4,2.6,4.1
		c0,4.5,0,9.1,0,13.6c1.3,0,2.4,0,3.4,0c0-5.8,0.2-11.6,0-17.2c-0.2-2.8-3.4-4.5-6.3-3.4c-1.7,0.6-3.2,1.5-5,2.6
		c-3.2-4.3-6.7-3-10.6-0.2c-0.4-3.2-2.2-2.2-3.4-1.7c0,6.9,0,13.4,0,20c1.3,0,2.4,0,3.7,0c0-4.5,0-9.1,0-13.4c0-2.4,2.2-4.3,4.7-4.3
		c2.8,0,2.6,1.9,2.6,3.9C162.1,197.3,162.1,201.9,162.1,206.6z M132.6,206.6c0-4.5,0-8.8,0-13.1c0-2.4,2.2-4.7,4.5-4.7
		c3,0,2.8,2.4,2.8,4.3c0,4.5,0,8.8,0,13.6c1.3,0,2.2,0,3.2,0c0-5.6,0.2-11.2,0-16.8c-0.2-3.2-3.2-5-6.5-3.9
		c-1.7,0.6-3.2,1.7-4.7,2.4c-3.4-3.4-5-3.7-10.3-0.4c-0.4-0.6-0.6-1.3-1.1-2.2c-1.1,0.2-1.9,0.4-2.6,0.6c0,6.9,0,13.6,0,20.3
		c1.3,0,2.4,0,3.7,0c0-4.5,0-8.8,0-13.1c0-2.8,1.7-4.5,4.5-4.5c3,0,2.8,2.4,2.8,4.3c0,1.7,0,3.2,0,5c0,2.8,0,5.6,0,8.4
		C130.4,206.6,131.3,206.6,132.6,206.6z M531.8,32.6c-3-1.5-5.6-2.6-8-3.9c-1.3-0.9-2.4-0.6-3.7,0.2c-8.6,6-18.3,10.1-28.5,12.9
		c-5.4,1.5-11,2.6-16.6,3.9C494.7,46,513.7,42.8,531.8,32.6z M289.1,205.3c4.7,3.9,10.6,0.9,11.9-5c0.4-1.9,0.6-4.1,0.4-6.3
		c-0.4-7.3-5.8-10.3-12.5-7.1c-0.2,0-0.4,0-1.1,0c0-3.4,0-6.7,0-10.6c-1.7,0.4-2.8,0.6-3.7,0.9c0,9.9,0,19.6,0,29.7
		C286.3,206.6,287.4,206,289.1,205.3z M4.5,195.8c2.8-0.2,5.2-0.2,7.5-0.6c3.7-0.6,6-3.7,6.5-7.1c0.4-4.1-1.1-8-4.5-8.6
		c-4.3-0.9-8.6-0.9-13.1-1.3c0,9.5,0,18.3,0,26.9c0,0.4,0,0.9,0.2,1.5c1.1,0,2.2,0,3.7,0C4.5,202.9,4.5,199.5,4.5,195.8z
		 M298.1,144.5c3.2,0,6.3,0.2,9.3,0c3.9-0.4,6.3-3.7,5.2-7.3c-0.4-1.7-2.2-3-3.4-4.5c1.9-1.1,3.4-3,2.6-5.6
		c-0.6-1.5-2.2-3.4-3.7-3.9c-3-0.6-6.5-0.6-9.7-0.9C298.1,130.1,298.1,137.2,298.1,144.5z M323.6,197.3c-0.2-1.9-0.2-3.4-0.4-5
		c-0.4-3.4-2.8-6-6-6.7s-6.7,0.6-8.6,3.7c-2.4,3.7-2.4,7.5-1.1,11.6c1.7,5.8,8.6,8.2,13.8,5c1.5-0.9,1.5-1.7,0.2-3
		c-2.6,1.5-5.6,2.6-8.4,0.6c-1.9-1.3-2.4-3.4-1.9-6C315.2,197.3,319,197.3,323.6,197.3z M590.7,197.3c-0.2-1.9-0.2-3.4-0.4-4.7
		c-0.4-3.2-2.2-5.6-5.4-6.7c-3.2-1.1-6.3-0.2-8.4,2.4c-3,3.4-3,7.5-2.2,11.6c1.3,6.5,8.2,9.3,13.8,6c1.7-1.1,2.2-1.9,0.2-3
		c-2.6,1.5-5.2,2.4-8,0.6c-2.2-1.3-2.6-3.4-2.2-6C582.3,197.3,586.1,197.3,590.7,197.3z M36.2,196c0.2,1.3,0.2,2.8,0.6,4.1
		c1.1,4.5,3.9,6.9,8.2,7.1c4.3,0,7.8-2.4,8.4-6.9c0.4-3,0.2-6.5-0.4-9.3c-1.1-4.1-5.6-6-9.7-5.2C38.8,186.8,36.4,190.2,36.2,196z
		 M266.9,197.1c3.2,0,6.3,0,9.3,0c3.2,0,3.4-0.2,2.8-3.4c0-0.4-0.2-0.9-0.2-1.3c-0.6-3.9-3-6.3-6.5-6.9c-3.4-0.4-6.9,1.3-8.6,4.5
		c-1.5,3.2-1.5,6.5-0.9,9.9c1.5,6.5,8.6,9.3,14.2,5.6c1.5-1.1,1.5-1.9,0-3c-2.6,1.7-5.4,2.4-8.2,0.6
		C266.9,202.1,266.2,199.9,266.9,197.1z M451,197.1c2.2,0,4.1,0,6,0c2.2,0,4.1,0,6.5,0c-0.2-2.2-0.2-4.1-0.6-5.8
		c-1.5-5.8-8-8-12.5-4.1c-2.8,2.4-3.7,5.6-3.7,9.1c0,3.9,0.9,7.5,4.7,9.7c3.2,1.7,6.5,1.5,9.7-0.2c1.7-0.9,1.9-1.9,0.4-3
		C455.3,206,451.2,204,451,197.1z M382.9,190.2c2.6-0.6,4.7-1.3,6.9-1.5c2.2-0.2,2.8,1.5,3,3.4c0.2,2.2-1.3,1.7-2.6,1.9
		c-2.4,0.6-5,1.1-7.1,2.4c-2.2,1.3-2.8,4.5-1.7,7.1c0.9,2.4,3,3.7,5.4,3.4c2.2-0.2,4.5-1.1,7.1-1.5c0.4,0.2,1.1,1.1,2.6,2.4
		c0.4-1.5,0.9-2.6,0.9-3.4c-0.2-1.5-0.9-3.2-0.9-4.7c-0.2-3,0-6,0-9.1c0-2.6-1.3-4.3-3.9-4.7c-3.9-0.9-7.3,0.4-10.8,2.4
		C382,189.1,382.4,189.8,382.9,190.2z M530.1,202.5c-2.6,1.7-5.4,2.6-8,0.9c-2.2-1.3-2.8-3.4-2.6-6.3c4.1,0,8.2,0,12.3,0
		c0-1.7,0.2-3,0-4.5c-0.6-4.3-3.4-7.1-7.3-7.3c-4.1-0.2-7.8,2.4-8.6,6.5c-0.4,2.8-0.6,5.8,0.2,8.6c1.7,6.9,10.1,8.8,15.3,3.7
		C530.9,203.8,530.7,203.2,530.1,202.5z M97.2,190.6c2.8-1.5,5.6-3,8.2-1.5c1.1,0.6,1.3,2.8,1.9,4.7c-1.7,0.2-3,0-3.9,0.4
		c-1.9,0.4-3.7,0.9-5.4,1.7c-2.6,1.3-3.7,4.3-2.8,7.3c0.6,2.4,2.6,4.1,5.6,4.1c2.2-0.2,4.5-1.1,7.1-1.7c0.4,0.2,1.3,1.1,2.2,1.7
		c1.5-1.1,2.4-1.9,1.1-3.7c-0.4-0.6-0.4-1.7-0.4-2.6c0-2.8,0-5.4,0-8.2c0-5.8-2.8-8.2-8.4-7.1c-2.2,0.4-4.1,1.5-6.5,2.4
		C96.4,189.1,96.8,189.8,97.2,190.6z M210,185.9c-2.8-0.2-3.9,0.4-3.9,3c0.2,4.1,0,8,0,12.1c0.2,5.2,4.5,7.8,9.5,5.4
		c0.9-0.4,1.7-1.1,2.6-1.5c0.2,0.2,0.4,0.4,0.6,0.4c0.9,0.4,1.7,1.3,2.4,1.1c1.3-0.4,1.3-1.5,0.9-2.8c-0.4-1.5-0.4-3-0.4-4.5
		c0-4.3,0-8.6,0-12.9c-3.7,0-3.7,0-3.7,3c0,3.4,0,6.7,0,10.1c0,2.8-1.9,5-4.5,5.2c-2.4,0-3.4-1.3-3.4-4.7
		C210,195.2,210,190.4,210,185.9z M407.4,206.6c0-4.5,0-8.8,0-13.1c0-2.6,2.4-5,5.2-4.7s2.8,2.4,2.8,4.3c0,1.7,0,3.2,0,5
		c0,2.8,0,5.6,0,8.4c1.3,0,2.4,0,3.4,0c0-5.6,0.2-11,0-16.4c-0.2-3.4-3.4-5.2-6.9-4.1c-1.5,0.4-3,1.3-4.5,2.2
		c-0.4-0.9-0.6-1.5-1.1-2.4c-1.1,0.2-1.9,0.6-2.6,0.6c0,7.1,0,13.6,0,20.3C405.1,206.6,406.1,206.6,407.4,206.6z M333.1,206.4
		c0-4.3,0-8.4,0-12.5c0-3,2.2-5.2,5-5.2c2.2,0,3,1.1,3,4.7c0,1.5,0,3,0,4.7c0,2.8,0,5.6,0,8.4c1.5,0,2.4,0,3.7,0
		c0-5.4,0-10.6,0-15.7c0-3.7-3.2-6-6.7-5c-1.5,0.4-3,1.3-4.7,2.2c-0.4-0.9-0.6-1.5-1.1-2.4c-1.1,0.4-1.9,0.6-2.6,0.9
		c0,6.9,0,13.6,0,20.3c0.9,0,1.5,0,1.9,0C331.8,206.6,332.2,206.6,333.1,206.4z M567.6,206.6c0-5.6,0.2-11,0-16.4
		c-0.2-3.2-3-5-6.3-4.3c-1.7,0.4-3.4,1.3-5.4,2.2c-0.2-0.6-0.6-1.5-0.9-2.4c-1.1,0.2-1.9,0.6-2.6,0.6c0,6.9,0,13.6,0,20.3
		c1.3,0,2.4,0,3.7,0c0-4.3,0-8.4,0-12.7c0-3,2.2-5.2,5-5.2c2.4,0,3,1.1,3,5c0,4.3,0,8.6,0,12.9C565.2,206.6,566.3,206.6,567.6,206.6
		z M270.5,144.7c1.9,0,3.7,0,5.2,0c5.8,0,9.1-2.4,9.7-8.2c0.4-3,0-6.5-1.1-9.3c-1.5-3.9-8.8-6.3-12.9-4.7c-0.4,0.2-0.9,1.1-0.9,1.7
		C270.5,130.9,270.5,137.6,270.5,144.7z M403.5,130.1c-0.6-0.6-1.1-1.5-1.5-1.5c-2.8-0.2-5.6-0.4-8.2-0.2c-3.9,0.2-6.3,3.4-5.2,6.7
		c0.4,1.3,1.7,2.4,2.2,3c-0.6,1.5-1.7,2.8-1.5,3.7c0.4,0.9,2.2,1.3,3.2,1.5c1.1,0.2,2.4,0,3.4,0.4c1.1,0.4,2.4,1.5,2.4,2.4
		c0,0.9-1.3,2.2-2.2,2.6c-3.2,1.1-5.2-0.2-6-4.1c-0.9,0.6-2.2,1.3-2.2,1.7c0.2,1.3,0.9,3.2,1.5,3.4c2.8,0.6,5.6,1.1,8.4,0.9
		c2.6-0.2,3.9-2.6,3.4-5c-0.2-2.6-1.9-3.4-4.3-3.9c-1.7-0.2-3.2-0.4-5-0.6c0-0.2,0-0.4-0.2-0.6c0.9-0.4,1.7-1.1,2.6-1.5
		c1.5-0.9,3.7-1.1,4.7-2.4c1.1-1.3,0.9-3.4,1.1-5.4C401.2,130.7,402.3,130.5,403.5,130.1z M364.1,189.1c-0.2-1.1-0.2-2.4-0.6-2.8
		c-2.4-1.7-8-1.5-10.1,0.4c-1.3,1.3-2.2,3.7-2.4,5.4c-0.2,2.2,1.5,3.9,3.7,4.5c1.3,0.4,2.4,0.6,3.7,0.9c1.9,0.4,3.4,1.3,3.2,3.7
		c-0.2,2.6-2.2,3.2-4.1,3c-2.2-0.2-4.1-1.1-6.5-1.5c-0.2,0.6-0.6,1.5-0.9,2.4c3.9,2.2,7.5,2.6,10.8,1.7c2.8-0.9,4.7-3.4,4.7-6
		s-1.5-4.7-4.5-5.8c-1.1-0.4-2.4-0.6-3.4-0.9c-1.7-0.4-3-1.3-2.8-3.4c0.2-1.9,1.9-2.8,3.7-2.6C360,188.1,361.7,188.7,364.1,189.1z
		 M482,187.2c-2.8-1.7-6-2.2-8.6-1.5c-3.2,0.9-5,3.2-5,6.3c0,3,1.7,4.7,5.2,5.4c0.9,0.2,1.5,0.4,2.4,0.4c2.2,0.4,3.7,1.3,3.2,3.9
		c-0.4,2.6-2.4,3-4.3,2.8c-1.9-0.2-4.1-1.1-6.3-1.5c-0.2,0.6-0.6,1.5-0.9,2.2c3.7,2.2,7.3,2.8,10.3,1.7c3-0.9,5-3.4,5-6.5
		c0-2.8-1.7-4.7-5-5.6c-1.1-0.2-2.4-0.4-3.4-0.9c-1.1-0.6-2.6-2.2-2.4-2.6c0.4-1.3,1.7-2.6,2.8-2.8c1.5-0.2,3.2,0.4,4.7,0.9
		c0.2,0,0.4,0,0.9,0C481.4,188.5,481.6,187.8,482,187.2z M478.3,133.7c0.2,0,0.4-0.2,0.6-0.2c1.9,3,3.9,6,6,9.1
		c1.7,2.4,1.7,2.4,5,1.7c-2.2-3-4.1-6-6.5-8.8c-1.5-1.9-1.3-3.2,0.2-5c2.2-2.4,3.9-5,5.8-7.5c-0.2-0.2-0.4-0.4-0.6-0.6
		c-5.8,0.4-6.3,7.3-10.8,9.9c0-3,0-5.6,0-8.2c0-0.4-0.9-1.1-1.3-1.5c-0.4,0.4-1.5,0.9-1.5,1.5c0,6.9,0,13.6,0,20.5c1.1,0,1.9,0,3,0
		C478.3,140.9,478.3,137.4,478.3,133.7z M257.6,133.1c-0.2,0.2-0.4,0.6-0.6,0.9c0.9,0.4,1.5,1.1,2.4,1.3c0.6,0.4,2.2,0.6,2.2,0.9
		c0.2,1.9,0.4,4.3-0.4,5.4c-0.6,0.9-3.4,0.9-5,0.4c-1.5-0.6-3.2-2.2-3.4-3.7c-0.6-2.8-0.6-5.8-0.2-8.6c0.9-4.7,4.3-6.5,8.8-4.3
		c1.7,0.6,2.4,0.4,2.6-1.1c-5.8-4.1-12.9-1.7-14.7,4.7c-0.6,2.2-0.6,4.5-0.4,6.7c0.6,7.3,7.3,11.2,14,8.2c0.9-0.4,1.7-1.5,1.7-2.4
		c0.2-2.8,0-5.6,0-8.6C261.9,133.1,259.8,133.1,257.6,133.1z M458.9,129.4c-5.2-1.7-8.4-0.9-9.5,3.2c-0.6,2.6-0.6,5.4-0.2,8
		c0.4,2.8,2.6,4.3,5.2,4.3c2.4,0,5-0.4,7.3-0.6c0-6.9,0-13.6,0-20.5c0-2.2-0.6-2.8-3-2.4C458.9,124,458.9,126.6,458.9,129.4z
		 M347.7,144.1c0-7.3,0-14.7,0-22.4c-0.9-0.2-1.7-0.4-2.8-0.6c0,1.5,0,2.8,0,4.1c0,1.3,0,2.6,0,4.1c-0.6,0-0.6,0-0.9,0
		c-4.3-1.5-7.1-0.4-8.8,3.2c-1.9,4.5-0.6,10.3,3,11.9c0.9,0.4,1.9,0.6,2.8,0.6C343.2,144.9,345.3,144.5,347.7,144.1z M203.5,177.9
		c-5.6-2.8-9.7-0.4-10.1,5.6c0,0.9-0.9,1.9-1.3,2.8c-0.2,0.6-0.2,1.9-0.2,2.2c1.9,0.6,1.3,2.2,1.3,3.4c0,3.9,0,7.8,0,11.9
		c0,1.1,0.2,1.9,0.2,3.2c1.3,0,2.4-0.2,3.7-0.2c0-6,0-11.9,0-17.5c1.7-1.3,4.7,0.9,5-3c-1.1,0-1.9,0-3,0c-0.6,0-1.7-0.2-1.7-0.4
		c-0.2-1.5-0.4-3.2,0.2-4.7c0.2-0.9,2.2-1.5,3-1.3C202.4,179.9,203.3,179.7,203.5,177.9z M498.2,178.4c0,9.5,0,18.8,0,28.2
		c3.9,0,7.8,0,11.4,0c2.4,0,3-0.9,2.4-3.2c-3.2,0-6.7,0-10.3,0c0-8.6,0-16.8,0-25C500.6,178.4,499.5,178.4,498.2,178.4z
		 M252.6,177.3c0,8.6,0,17.2,0,25.9c0,3.2,2.4,4.5,6,3.2c0-0.4,0-1.3-0.4-1.5c-2.4-1.3-1.9-3.4-1.9-5.4c0-6.5,0-12.7,0-19.2
		c0-1.1,0-2.4-0.2-3.7C254.6,176.9,253.7,177.1,252.6,177.3z M377.2,206.4c0-0.4,0-1.1-0.2-1.3c-2.4-1.5-1.9-3.7-1.9-5.8
		c0-6.5,0-12.7,0-19.2c0-1.1-0.2-2.2-0.4-3.4c-1.5,0.4-2.4,0.6-3.2,0.9c0,3,0,5.8,0,8.8c0,5.6,0,11.2,0,16.8
		C371.6,206.4,373.8,207.7,377.2,206.4z M364.5,145.2c0.6-0.4,1.5-0.9,1.5-1.3c-0.2-5.2-0.4-10.3-0.9-15.3c-2.4,0.4-2.4,0.4-2.4,2.4
		c0,2.8,0,5.6,0,8.4c0,2.4-1.7,3.4-3.9,3.4c-2.2,0-2.6-1.5-2.6-3.4c0-3.7,0-7.3,0-10.8c-2.8,0-2.8,0-2.8,2.2c0,3.2,0,6.5,0,9.7
		c0,4.1,3.2,6,7.1,4.5c0.9-0.4,1.5-0.9,2.4-1.5C363.4,144.1,364.1,144.5,364.5,145.2z M542.8,128.6c-2.8-0.4-3.4,0.2-3.4,2.4
		c0.2,2.6,0,5.2,0,7.8c0,2.4-1.5,4.3-3.7,4.3c-2.8,0-2.8-2.2-2.8-4.1c0-3.4,0-6.9,0-10.3c-1.9-0.2-2.8,0.2-2.8,1.9
		c0,3.4,0,6.7,0,10.1c0,3.7,2.8,5.6,6.5,4.3c1.1-0.4,1.9-0.9,3-1.5c0.6,0.4,1.1,1.1,1.7,1.5c0.6-0.4,1.3-0.9,1.3-1.1
		C542.8,138.9,542.8,133.7,542.8,128.6z M383.1,144.7c0.2-0.4,0.2-0.9,0.2-1.1c0-3.4,0-6.9,0-10.3c0-4.1-3.2-6-6.9-4.1
		c-0.6,0.2-1.3,0.6-1.3,0.9c-1.3-0.4-2.2-0.9-3-1.1c-0.2,0-0.9,1.1-0.9,1.7c0,4.1,0.2,8.2,0.2,12.3c0,1.9,0.6,2.4,2.8,1.7
		c0-3.2,0-6.5,0-9.7c0-2.4,1.7-3.9,3.9-3.9c2.4,0,2.4,1.9,2.4,3.4c0,3.2,0,6.5,0,9.5c0,0.2,0.2,0.4,0.2,0.6
		C381.6,144.7,382.2,144.7,383.1,144.7z M434.8,130.1c0-0.2,0-0.4-0.2-0.9c-1.1-0.2-2.2-0.4-3-0.6c0,5.8,0,10.8,0,16
		c1.1,0,1.7,0,2.8,0c0-3.7,0-7.1,0-10.6c0-2.6,2.2-3,4.1-3.2c2.2-0.2,2.4,1.5,2.4,3.2c0,3.4,0,7.1,0,10.3c2.2,0.6,2.8,0,2.8-1.9
		c0-3.2,0-6.5,0-9.9c-0.2-3.7-3-5.4-6.3-3.9C436.3,129,435.4,129.6,434.8,130.1z M505.1,128.6c-1.7-0.4-2.4,0.4-2.4,2.2
		c0,2.6,0,5.2,0,7.8c0,2.8-1.3,4.5-3.7,4.5c-3,0-2.8-2.4-2.8-4.3c-0.2-3.4,0-6.7,0-9.9c-2.2-0.4-2.8,0.2-2.8,1.9c0,3.2,0,6.5,0,9.5
		c0,4.3,3.4,6.3,7.3,4.5c0.6-0.4,1.3-0.9,1.9-1.1c0.6,0.6,1.1,1.3,1.9,2.4c0.6-0.9,1.3-1.5,1.3-1.9
		C505.7,138.7,505.3,133.7,505.1,128.6z M416.5,128.8c-2.2-0.6-2.8,0.2-2.8,1.9c0,3.2,0,6.5,0,9.5c0,4.1,3.2,6.3,7.1,4.5
		c0.9-0.4,1.5-0.9,2.4-1.3c0.6,0.6,1.1,1.1,1.7,1.7c0.4-0.4,1.3-0.9,1.3-1.1c-0.2-5.2-0.4-10.3-0.6-15.5c-1.7-0.4-2.4,0.2-2.4,2.2
		c0,2.8,0,5.4,0,8.2c0,2.4-1.9,4.3-3.9,4.1c-2.6-0.2-2.6-2.2-2.6-4.1C416.5,135.5,416.5,132,416.5,128.8z M239.1,185.7
		c-2.8-0.9-4.3,1.1-6.3,2.6c-0.4-1.1-0.9-1.9-1.3-2.8c-1.1,0.2-2.2,0.6-2.8,0.6c0,6.9,0,13.4,0,20.3c1.5,0,2.4,0,3.7,0
		c0-4.3,0-8.4,0-12.3c0-2.6,1.1-4.5,3.4-4.7C238.4,189.1,238.6,187.6,239.1,185.7z M86,188.1c-0.2-0.6-0.4-1.5-0.9-2.4
		c-1.1,0.2-2.2,0.6-2.8,0.6c0,7.1,0,13.6,0,20.3c1.5,0,2.4,0,3.7,0c0-4.3,0-8.4,0-12.3c0-2.4,0.9-4.5,3.2-4.7c2.6-0.2,3-1.7,2.8-4.3
		C90.1,185.9,88,187,86,188.1z M27.4,206.6c0-1.1,0-2.2,0-3c0-3.2,0-6.5,0-9.9c0-2.4,1.1-4.1,3.4-4.3c2.6-0.2,2.6-1.9,2.6-4.3
		c-1.9,1.1-4.1,1.9-6,3c-0.2-0.6-0.4-1.5-0.9-2.4c-1.1,0.2-2.2,0.6-2.8,0.6c0,6.9,0,13.6,0,20.3C25,206.6,26.1,206.6,27.4,206.6z
		 M541.3,206.6c0-1.1,0.2-2.2,0.2-3c0-3,0-6.3,0-9.3c0-2.4,1.1-4.5,3.4-4.7c2.6-0.2,2.8-1.7,2.8-4.5c-2.6,1.3-4.5,2.2-6.5,3.2
		c-0.2-0.6-0.6-1.5-1.1-2.4c-1.1,0.2-2.2,0.6-2.6,0.6c0,6.9,0,13.6,0,20.3C539.4,206.6,540.2,206.6,541.3,206.6z M330.5,144.7
		c-0.4-2.6-0.9-5-0.9-7.3c-0.2-4.3,0-8.8,0-13.1c0-0.9-0.2-1.9-0.4-3.9c-1.3,1.1-2.4,1.7-2.4,2.4c-0.2,6.5-0.2,12.7,0,19.2
		C326.8,144.7,328.5,145.6,330.5,144.7z M527.3,129c-1.9-0.4-3-0.6-4.3-0.9c0-1.5,0-2.8,0-4.1c-3.4-0.2-2.6,2.4-2.8,4.1
		c-2.2,0.9-2.6,1.9-1.3,2.2c1.7,0.4,1.3,1.7,1.3,2.8c0,2.8,0,5.4,0,8.2c0,3,2.6,4.7,5.4,3.7c0.4-0.2,0.6-0.6,1.1-1.1
		c-0.4-0.2-0.9-0.6-1.1-0.6c-2.4,0-2.6-1.5-2.6-3.2c0-2.2,0-4.3,0-6.5c0-1.5,0-3,2.2-2.8C525.6,130.5,526.2,129.9,527.3,129z
		 M514.1,121.5c-2.4-0.2-3.2,0.4-3,2.4c0.2,1.9,0.2,4.1,0.2,6c0,4.1,0,8,0,12.1c0,2.8,2.2,3.9,3.9,2.8c-0.4-2.4-1.1-4.3-1.1-6.5
		C513.9,132.7,514.1,127.1,514.1,121.5z M551.2,144.5c0-3,0-6,0-9.1c0-2.4,0.9-3.7,3.2-4.5c0.9-0.2,1.3-1.3,2.2-1.9
		c-0.2-0.2-0.4-0.6-0.6-0.9c-1.5,0.6-3,1.3-3.9,1.7c-1.3-0.4-1.9-0.9-2.8-1.1c-0.2,0-0.9,1.1-0.9,1.5c0,4.1,0.2,8.2,0.2,12.3
		C548.4,144.3,549.1,145.2,551.2,144.5z M320.6,128.6c-1.7-0.4-2.8-0.2-2.8,1.9c0,4.5,0,9.1,0.2,13.6c0,0.2,0.2,0.2,0.4,0.6
		c0.6,0,1.5-0.2,2.4-0.2C320.6,139.1,320.6,134,320.6,128.6z M221.4,180.9c-1.5-1.1-2.4-2.4-3-2.4c-0.9,0.2-2.2,1.5-2.2,2.4
		c0,0.6,1.3,2.2,2.2,2.2C219,183.1,220.1,182,221.4,180.9z M209.7,184.4c1.1-1.7,2.2-2.8,1.9-3.4c-0.2-0.9-1.5-1.7-2.2-2.6
		c-0.6,0.9-1.9,1.5-1.9,2.4C207.6,181.8,208.7,182.7,209.7,184.4z M319.5,120.8c-0.9,1.1-1.9,1.9-1.9,2.6c0.2,0.9,1.1,1.5,1.7,2.2
		c0.6-0.6,1.7-1.3,1.9-2.2C321.4,123,320.3,122.1,319.5,120.8z"/>
	<path d="M0.2,1.6c1.3,0,2.8,0,4.1,0c68.6,0,137.1,0,205.7,0c1.5,0,3,0,4.7,0c0,1.3,0.2,2.2,0.2,3.2c0,45.5,0,90.8,0,136.2
		c0,2.8-0.6,3.4-3.4,3.4c-69.2,0-138.4,0-207.6,0c-1.3,0-2.6,0.2-3.9,0.2C0.2,97.1,0.2,49.5,0.2,1.6z M160.2,79.8
		c-1.9-4.3-1.3-7.3,3-9.9c-5,1.1-6.9-1.5-8.2-5.4c-0.2,5-3.4,5.6-7.1,5.4c1.5,1.5,3.2,2.8,3.7,4.3c0.4,1.5-0.6,3.4-1.1,5.2
		C153.9,76.2,156.9,76.4,160.2,79.8z M131.7,23.2c-0.2,0-0.4,0.2-0.6,0.2c-0.6,1.5-0.9,3.7-1.9,4.5c-1.3,0.9-3.2,0.6-6,1.1
		c5.2,1.9,5.4,5.2,3.7,9.3c3.4-3.9,6.3-2.8,9.5,0.2c-2.4-4.3-1.1-7.3,2.6-9.7C134.1,29.6,132.1,27.5,131.7,23.2z M66,41.3
		c-0.9,4.5-3,6.5-7.8,5.6c4.3,2.4,5,5.6,3.2,9.7c1.5-1.1,3-2.2,4.7-3.2c1.5,1.1,3,2.2,4.5,3.2c0.2,0,0.4-0.2,0.6-0.2
		c-3-4.1-1.5-7.1,2.6-9.7C69,47.7,66.8,45.8,66,41.3z M100.2,118.2c4.3,2.4,4.5,5.6,2.4,9.9c2.4-1.5,3.7-2.4,5.2-3.4
		c1.5,1.1,3,2.2,4.5,3c-1.7-4.1-0.9-7.1,3.2-9.5c-4.7,0.6-6.9-1.5-7.8-5.8C106.9,116.7,104.8,118.9,100.2,118.2z M83.9,105.9
		c-0.4,5-3.2,6.3-8,6c5.2,1.9,4.7,5.4,3.2,9.5c3.2-3.4,6.3-3.7,9.5,0c-2.4-4.3-0.9-7.3,2.8-9.7C86.7,112.8,84.7,110.2,83.9,105.9z
		 M131.5,105.7c-0.6,4.5-2.8,6.7-7.8,6.3c4.7,2.2,4.7,5.4,3,9.5c3.2-3.2,6.3-3.4,9.5,0c-1.9-4.1-1.1-7.1,2.8-9.7
		C134.1,112.6,132.4,109.8,131.5,105.7z M74.6,94.7c-2.8-0.4-5-0.2-6.3-1.1c-1.3-0.9-1.5-3-2.2-4.7c-0.6,4.5-3.2,6.3-8,5.6
		c4.1,2.4,5,5.2,2.6,9.7c2.4-1.3,3.7-3,5.2-3c1.5,0,3,1.5,5.4,2.8C69,99.9,69.6,96.9,74.6,94.7z M156.9,93.9c-5.2,1.1-6.9-1.7-7.8-6
		c-0.9,4.3-2.6,7.1-7.8,6c4.3,2.2,5,5.4,3.7,9.5c1.5-0.9,2.8-1.9,4.1-2.8c1.5,1.1,3,1.9,4.5,2.8C151.8,99.2,152.8,96.2,156.9,93.9z
		 M91,29.4c-4.7,0.9-6.9-1.5-7.8-5.8c-0.6,4.5-3,6.7-7.8,5.8c4.3,2.4,5,5.4,3.4,9.5c1.3-1.1,2.8-1.9,4.3-3c1.5,1.1,3,2.2,4.5,3
		C86,34.8,86.7,31.8,91,29.4z M107.1,16.9c-0.6,4.7-3,6.5-7.8,5.8c4.5,2.4,5,5.4,3,9.7c3.2-3.4,6.3-3.7,9.7,0
		c-2.4-4.5-1.1-7.5,3-9.9C110.2,23.6,107.8,21.4,107.1,16.9z M153.1,55.3c-0.4-1.7-1.3-3.7-0.9-5.2c0.4-1.5,2.4-2.4,3.7-3.7
		c-1.9-0.2-4.1,0-5.2-1.1c-1.3-1.1-1.5-3-2.6-5.6c-0.6,5-2.6,7.3-7.5,6.7c4.5,2.2,4.7,5.4,3,9.5C147,52.5,150,52,153.1,55.3z
		 M52,70.6c4.5,2.2,4.7,5.4,3,9.7c3.2-3.7,6.3-3.2,9.5-0.2c-1.7-4.1-1.5-7.1,2.6-9.5c-5,0.9-6.5-2.2-7.5-6
		C59.1,69.3,56.9,71.4,52,70.6z"/>
	<path d="M477.3,0.1c1.5,1.3,3.2,2.6,5.2,4.1c-23.7,18.8-49.4,33.4-78.9,40.5c0.2-0.2,0.4-0.4,0.6-0.4c0.2-0.2,0.4-0.2,0.9-0.2
		c25.7-10.3,49.1-24.1,70.1-42.3c0.6-0.4,1.1-1.1,1.7-1.7C476.8,0.1,477.1,0.1,477.3,0.1z"/>
	<path d="M430.1,214.4c-1.3-0.9-3-1.5-4.1-2.6c-0.9-0.9-1.1-2.6-0.9-3.9c0-0.4,1.7-0.9,2.8-1.3c1.1,4.5,4.1,6.3,8.2,4.5
		c1.1-0.4,2.2-1.9,2.2-3s-1.3-2.6-2.2-2.8c-1.7-0.6-3.9-0.4-5.6-0.6c-1.7-0.2-3.7,0-4.1-2.4c-0.4-2.2,1.1-2.8,2.6-3.7
		c0.2,0,0.2-0.2,0.4-0.4c-4.7-3.7-5.4-7.8-1.9-10.8c2.4-1.9,5.2-2.4,8.2-1.7c2.4,0.4,4.7,0.4,7.1,0.6c0-0.2,0.2-0.4,0.2-0.6
		c0.4,0.6,0.9,1.3,1.5,2.4c-1.7,0.4-3,0.9-4.3,1.3c1.5,5.8,0,8.2-6,9.5c-1.5,0.4-3.4,0.4-3.9,3.2c2.4,0.2,4.5,0.2,6.7,0.4
		c2.4,0.2,4.1,1.3,5,3.7c0.9,2.4,0.2,4.5-1.7,6.3c-1.1,0.9-2.4,1.5-3.7,2.2C434.6,214.4,432.4,214.4,430.1,214.4z M429.4,192.4
		c0,2.6,1.5,3.9,3.9,3.9c2.4,0,3.7-1.5,3.7-4.1s-1.3-3.9-3.9-3.9C430.5,188.5,429.4,189.8,429.4,192.4z"/>
	<path d="M64.2,214.4c-0.6-0.2-1.3-0.6-1.9-0.9c-3-1.3-3.9-2.8-3.2-6.5c0.9,0,1.9-0.2,2.8-0.2c1.1,4.3,4.1,6,8.2,4.3
		c1.1-0.4,2.2-1.9,2.2-3s-1.3-2.4-2.4-2.8c-1.5-0.6-3.2-0.2-5-0.4c-1.7-0.2-4.5,0.2-4.7-2.2c-0.2-1.5,1.5-3,2.2-4.3
		c-0.9-1.7-2.6-3.7-3-5.8c-0.2-1.5,0.9-3.7,1.9-5c1.9-2.2,4.7-2.4,7.5-1.9c2.4,0.4,5,0.4,7.3,0.9c0-0.2,0.2-0.6,0.2-0.9
		c0.4,0.6,1.1,1.3,1.9,2.4c-1.7,0.4-3,0.9-4.3,1.3c1.3,6,0,8.2-6.5,9.5c-1.3,0.2-2.4,1.1-3.7,1.7c0,0.2,0,0.6,0.2,0.9
		c1.1,0.2,1.9,0.6,3,0.6c1.3,0.2,2.6,0,3.9,0.2c3,0.2,4.7,1.9,5.2,4.3c0.4,2.8-0.9,5.2-3.4,6.5c-0.9,0.4-1.7,0.6-2.4,1.1
		C68.3,214.4,66.4,214.4,64.2,214.4z M70.9,192.4c0-2.6-1.3-3.9-3.9-3.9c-2.4,0-3.9,1.5-3.9,3.9c0,2.4,1.5,3.9,3.9,3.9
		S70.9,194.7,70.9,192.4z"/>
	<path d="M611.6,206.8c-1.1,0-2.2-0.2-3.7-0.2c0-2.8,0-5.6,0-8.4c0-1.5,0-3,0-4.7c0-3.7-0.6-5-2.8-4.7c-3,0.2-5,2.2-5,5.2
		c0,4.1,0,8.4,0,12.7c-1.3,0-2.2,0-3.7,0c0-6.7,0-13.1,0-20.3c0.6-0.2,1.5-0.4,2.8-0.6c0.2,0.9,0.6,1.7,0.9,2.4
		c7.3-3.4,8.6-3.2,11.9,1.1C611.6,195,611.6,201,611.6,206.8z"/>
	<path d="M249,54.6c1.7-0.6,3.2-1.7,5-2.2c6-1.3,11.9-2.6,17.9-3.4c4.5-0.6,9.1-1.3,13.6-1.7c13.4-1.1,26.1,1.9,38.4,7.1
		c7.5,3,14.7,7.1,21.8,10.8c2.4,1.3,4.5,1.5,6.7,0.2c4.7-2.6,9.5-5.2,14.2-7.8c12.5-6.9,26.1-10.1,40.3-11.2
		c17.7-1.5,35.1,0,52.8,0.9c19.6,0.9,39.2,0.6,58.2-6.3c5.4-1.9,10.6-4.5,16.2-6.7c-1.1,0.9-2.2,1.7-3.4,2.6
		c-12.5,7.8-25.7,14.7-39.9,18.5c-8.6,2.4-17.7,3.2-26.7,4.3c-16.2,1.9-32.6,2.2-48.7,5.6c-12.9,2.8-25.2,7.3-36.2,14.9
		c-2.6,1.7-4.5,4.7-6.3,7.3c-1.7,2.8-2.8,5.8-4.5,8.6c-2.6,4.1-5,4.7-9.5,2.6c-8.8-4.3-16.2-11-23.1-17.9
		c-7.8-8-16.4-14.9-26.5-19.6c-8-3.9-16.2-7.1-25-7.5c-5.2-0.2-10.1,0.6-15.3,0.9c-5.8,0.4-11.9,0.6-17.7,1.1
		c-0.6,0-1.3-0.2-2.2-0.2C249.2,55.3,249.2,55.1,249,54.6z"/>
	<path d="M508.1,20.8c-19,13.6-39.2,22.9-62.7,23.9c20.5-4.5,38.2-13.8,53.9-26.9c1.1-0.9,2.2-1.3,3.4-0.4
		C504.2,18.6,505.9,19.5,508.1,20.8z"/>
	<path d="M489.6,9.8c-21.8,16-44.2,30-71.6,33.8c6.3-2.4,12.5-4.7,18.8-7.3c16.6-6.9,31.9-16.4,45.7-28C485,6.3,485,6.3,489.6,9.8z"
		/>
	<path d="M162.1,206.6c0-4.7,0-9.3,0-13.8c0-1.9,0.2-3.9-2.6-3.9c-2.6,0-4.7,1.9-4.7,4.3c0,4.3,0,8.8,0,13.4c-1.3,0-2.2,0-3.7,0
		c0-6.7,0-13.4,0-20c1.3-0.4,3-1.5,3.4,1.7c3.9-2.8,7.3-4.1,10.6,0.2c1.7-0.9,3.2-1.9,5-2.6c3-0.9,6,0.6,6.3,3.4
		c0.2,5.6,0,11.4,0,17.2c-1.1,0-2.2,0-3.4,0c0-4.5,0-9.1,0-13.6c0-1.9,0.4-4.1-2.6-4.1c-2.4,0-4.7,2.4-4.7,4.5c0,4.3,0,8.6,0,13.1
		C164.5,206.6,163.4,206.6,162.1,206.6z"/>
	<path d="M132.6,206.6c-1.3,0-2.2,0-3.7,0c0-2.8,0-5.6,0-8.4c0-1.7,0-3.2,0-5c0-1.9,0.2-4.3-2.8-4.3c-2.8,0-4.5,1.7-4.5,4.5
		c0,4.3,0,8.6,0,13.1c-1.3,0-2.4,0-3.7,0c0-6.7,0-13.4,0-20.3c0.6-0.2,1.5-0.4,2.6-0.6c0.4,0.9,0.6,1.5,1.1,2.2
		c5.4-3.2,6.9-3,10.3,0.4c1.5-0.9,3-1.9,4.7-2.4c3.2-1.1,6.3,0.6,6.5,3.9c0.4,5.6,0,11,0,16.8c-1.1,0-2.2,0-3.2,0
		c0-4.5,0-9.1,0-13.6c0-1.9,0.2-4.3-2.8-4.3c-2.4,0-4.5,2.4-4.5,4.7C132.6,197.8,132.6,202.1,132.6,206.6z"/>
	<path d="M531.8,32.6c-18.1,10.1-37.1,13.4-56.9,13.1c5.6-1.3,11.2-2.4,16.6-3.9C501.6,39.1,511.3,35,520,29
		c1.3-0.9,2.4-1.1,3.7-0.2C526.2,30,528.6,31.1,531.8,32.6z"/>
	<path d="M289.1,205.3c-1.7,0.6-3,1.1-4.5,1.7c0-10.1,0-19.8,0-29.7c0.9-0.2,1.9-0.4,3.7-0.9c0,3.9,0,7.1,0,10.6
		c0.6,0,0.9,0.2,1.1,0c6.5-3.2,12.1-0.2,12.5,7.1c0.2,2.2,0,4.3-0.4,6.3C299.9,206.2,293.8,209.2,289.1,205.3z M288.4,196.3
		c0,1.1,0,2.4,0,3.4c-0.2,2.4,1.3,3.4,3.2,3.9c2.2,0.4,3.9,0,4.7-1.9c1.5-3.2,1.5-6.7,0.4-10.1c-0.9-2.4-2.6-3.2-5-2.6
		c-2.4,0.4-3.9,1.5-3.7,4.3C288.4,194.1,288.4,195.2,288.4,196.3z"/>
	<path d="M4.5,195.8c0,3.7,0,7.1,0,10.8c-1.5,0-2.4,0-3.7,0c0-0.6-0.2-1.1-0.2-1.5c0-8.8,0-17.5,0-26.9c4.5,0.4,9.1,0.4,13.1,1.3
		c3.4,0.9,5,4.5,4.5,8.6c-0.4,3.4-2.8,6.5-6.5,7.1C9.9,195.6,7.3,195.6,4.5,195.8z M4.5,186.6c0.2,6.5-1.1,5.8,5.2,5.8
		c3,0,5-2.4,4.7-5.8c-0.2-3.7-2.4-5.2-7.3-5.2c-4.1,0-1.9,3-2.4,4.7C4.5,186.3,4.7,186.3,4.5,186.6z"/>
	<path d="M298.1,144.5c0-7.3,0-14.4,0-22.2c3.2,0.2,6.7,0,9.7,0.9c1.5,0.4,3,2.2,3.7,3.9c1.1,2.6-0.6,4.5-2.6,5.6
		c1.3,1.5,3,2.8,3.4,4.5c1.1,3.7-1.1,6.9-5.2,7.3C304.4,144.7,301.4,144.5,298.1,144.5z M301.4,142.1c6,0.6,8.2-0.4,8.2-3.7
		c0-3-1.9-4.1-6.5-3.9C300.7,134.6,300.5,135.9,301.4,142.1z M300.9,124.9c0,1.5,0,2.4,0,3.4c0,3.9,0.6,4.5,4.7,3.7
		c1.7-0.4,2.8-1.3,2.8-3.2c0-1.9-0.9-3.2-2.8-3.4C304.4,124.9,302.9,125.1,300.9,124.9z"/>
	<path d="M323.6,197.3c-4.3,0-8.4,0-12.3,0c-0.4,2.6,0,4.5,1.9,6c2.8,1.9,5.6,1.1,8.4-0.6c1.3,1.3,1.3,1.9-0.2,3
		c-5.2,3.2-12.1,1.1-13.8-5c-1.3-3.9-1.3-8,1.1-11.6c1.7-2.8,5.4-4.3,8.6-3.7s5.4,3,6,6.7C323.4,193.9,323.4,195.4,323.6,197.3z
		 M319.5,194.1c0.2-2.4-0.2-4.5-2.4-5.4c-1.1-0.4-3-0.2-4.1,0.4c-1.7,1.1-2.4,3-1.7,5.2C314.1,194.1,316.7,194.1,319.5,194.1z"/>
	<path d="M590.7,197.3c-4.5,0-8.4,0-12.5,0c-0.4,2.6,0.2,4.7,2.2,6c2.8,1.7,5.4,0.9,8-0.6c1.7,1.3,1.5,2.2-0.2,3
		c-5.8,3.4-12.5,0.6-13.8-6c-0.9-4.1-0.9-8.2,2.2-11.6c2.4-2.6,5.2-3.2,8.4-2.4c3.2,1.1,5,3.2,5.4,6.7
		C590.4,193.9,590.4,195.4,590.7,197.3z M578.4,194.1c2.6,0,5.4,0,8,0c0.2-3.7-1.3-6-3.9-6C579.7,188.1,577.9,190.4,578.4,194.1z"/>
	<path d="M36.2,196c0.2-5.8,2.6-9.3,7.1-10.3c4.1-0.9,8.6,1.1,9.7,5.2c0.9,3,0.9,6.3,0.4,9.3c-0.6,4.5-4.1,6.9-8.4,6.9
		s-7.1-2.6-8.2-7.1C36.6,198.8,36.4,197.5,36.2,196z M50.2,196.7c-0.4-1.9-0.6-3.7-1.1-5.4c-0.6-2.2-1.9-3-4.3-3
		c-2.2,0-3.9,1.1-3.9,3c-0.2,3.4-0.2,6.9,0.2,10.1c0.2,1.1,2.4,2.6,3.9,2.6c1.3,0,3-1.3,3.7-2.4C49.8,200.3,50,198.4,50.2,196.7z"/>
	<path d="M266.9,197.1c-0.6,2.8,0,4.7,1.9,6c2.8,1.7,5.6,0.9,8.2-0.6c1.5,1.1,1.5,1.9,0,3c-5.6,3.7-12.7,0.9-14.2-5.6
		c-0.9-3.4-0.9-6.7,0.9-9.9s5.2-5,8.6-4.5c3.4,0.4,5.8,3,6.5,6.9c0,0.4,0.2,0.9,0.2,1.3c0.4,3.2,0.4,3.4-2.8,3.4
		C273.1,197.1,270.1,197.1,266.9,197.1z M275.9,194.3c-1.1-2.2-1.7-4.1-3-5.2c-0.9-0.6-3.2-0.6-3.9,0c-1.3,1.1-1.9,3.2-3,5.4
		C269.5,194.3,272.3,194.3,275.9,194.3z"/>
	<path d="M451,197.1c0.2,6.7,4.3,8.6,10.6,5.4c1.7,1.3,1.5,2.2-0.4,3c-3.2,1.7-6.5,1.9-9.7,0.2c-3.7-2.2-4.5-5.8-4.7-9.7
		c0-3.4,0.6-6.7,3.7-9.1c4.5-3.7,11.2-1.5,12.5,4.1c0.4,1.7,0.4,3.7,0.6,5.8c-2.4,0-4.5,0-6.5,0C455.3,197.1,453.1,197.1,451,197.1z
		 M459.6,194.1c0-2.4-0.2-4.5-2.4-5.4c-1.3-0.4-3.2-0.2-4.3,0.4c-1.7,1.1-2.2,3-1.5,5C454.2,194.1,456.8,194.1,459.6,194.1z"/>
	<path d="M382.9,190.2c-0.2-0.4-0.6-1.1-1.3-1.9c3.4-1.9,6.7-3.2,10.8-2.4c2.6,0.6,3.9,2.2,3.9,4.7c0,3-0.2,6,0,9.1
		c0,1.5,0.9,3.2,0.9,4.7c0,0.9-0.4,1.9-0.9,3.4c-1.3-1.3-2.2-2.2-2.6-2.4c-2.6,0.6-4.7,1.5-7.1,1.5c-2.4,0.2-4.3-1.1-5.4-3.4
		c-0.9-2.6-0.4-5.8,1.7-7.1s4.7-1.7,7.1-2.4c1.3-0.2,2.8,0.2,2.6-1.9c-0.2-1.9-0.6-3.7-3-3.4C387.6,188.7,385.4,189.6,382.9,190.2z
		 M393,199.5c0-2.8-1.3-3.4-3.4-3c-0.6,0.2-1.7,0-2.2,0.4c-1.1,1.1-2.4,2.4-2.6,3.7c-0.2,1.1,0.6,3,1.5,3.2c1.3,0.4,3.2,0.2,4.3-0.6
		C391.9,202.7,392.3,200.8,393,199.5z"/>
	<path d="M530.1,202.5c0.4,0.6,0.9,1.3,1.3,1.7c-5.2,5.2-13.4,3.2-15.3-3.7c-0.6-2.8-0.6-5.8-0.2-8.6c0.9-4.1,4.5-6.7,8.6-6.5
		c3.9,0.2,6.7,2.8,7.3,7.3c0.2,1.3,0,2.8,0,4.5c-4.1,0-8.2,0-12.3,0c-0.2,2.8,0.2,5,2.6,6.3C524.9,204.9,527.5,204.2,530.1,202.5z
		 M528.1,194.3c-0.2-4.1-1.9-6.3-4.5-6c-2.6,0.2-4.1,2.4-3.7,6C522.5,194.3,525.3,194.3,528.1,194.3z"/>
	<path d="M97.2,190.6c-0.4-0.9-1.1-1.5-1.7-2.6c2.4-0.9,4.3-1.9,6.5-2.4c5.8-1.1,8.6,1.3,8.4,7.1c0,2.8-0.2,5.4,0,8.2
		c0,0.9,0,1.9,0.4,2.6c1.3,1.7,0.4,2.6-1.1,3.7c-0.9-0.6-1.7-1.5-2.2-1.7c-2.6,0.6-4.7,1.5-7.1,1.7c-2.8,0.2-5-1.7-5.6-4.1
		c-0.6-3,0.2-6,2.8-7.3c1.7-0.9,3.7-1.3,5.4-1.7c1.1-0.2,2.2-0.2,3.9-0.4c-0.6-1.7-0.9-4.1-1.9-4.7
		C102.8,187.4,100,189.1,97.2,190.6z M106.7,196.7c-4.3-0.9-7.3,0.6-7.5,3.7c-0.2,2.4,1.1,4.3,3.2,4.1
		C105.6,204,107.4,203.2,106.7,196.7z"/>
	<path d="M210,185.9c0,4.7,0,9.3,0,13.8c0,3.4,1.1,4.7,3.4,4.7c2.6,0,4.5-2.4,4.5-5.2c0-3.4,0-6.7,0-10.1c0-3,0-3,3.7-3
		c0,4.3,0,8.6,0,12.9c0,1.5,0,3.2,0.4,4.5c0.4,1.3,0.4,2.4-0.9,2.8c-0.6,0.2-1.5-0.6-2.4-1.1c-0.2-0.2-0.4-0.4-0.6-0.4
		c-0.9,0.6-1.7,1.1-2.6,1.5c-4.7,2.4-9.3-0.2-9.5-5.4c-0.2-4.1,0-8,0-12.1C206.1,186.3,207.2,185.5,210,185.9z"/>
	<path d="M407.4,206.6c-1.3,0-2.4,0-3.7,0c0-6.7,0-13.1,0-20.3c0.4-0.2,1.5-0.4,2.6-0.6c0.4,0.9,0.9,1.7,1.1,2.4
		c1.5-0.6,3-1.5,4.5-2.2c3.4-1.1,6.7,0.6,6.9,4.1c0.4,5.4,0,11,0,16.4c-1.1,0-1.9,0-3.4,0c0-2.8,0-5.6,0-8.4c0-1.7,0-3.2,0-5
		c0-2.2,0-4.3-2.8-4.3c-2.8-0.2-5.2,1.9-5.2,4.7C407.4,197.8,407.4,202.1,407.4,206.6z"/>
	<path d="M333.1,206.4c-0.9,0-1.3,0.2-1.7,0.2c-0.4,0-1.1,0-1.9,0c0-6.7,0-13.4,0-20.3c0.6-0.2,1.5-0.4,2.6-0.9
		c0.4,0.9,0.9,1.7,1.1,2.4c1.7-0.9,3-1.7,4.7-2.2c3.7-1.1,6.7,1.3,6.7,5c0.2,5.2,0,10.3,0,15.7c-1.3,0-2.2,0-3.7,0
		c0-2.8,0-5.6,0-8.4c0-1.5,0-3,0-4.7c0-3.7-0.6-5-3-4.7c-2.8,0.2-5,2.4-5,5.2C333.1,198,333.1,202.1,333.1,206.4z"/>
	<path d="M567.6,206.6c-1.3,0-2.2,0-3.4,0c0-4.3,0-8.6,0-12.9c0-3.7-0.6-4.7-3-5c-3,0-5,2.2-5,5.2c0,4.1,0,8.4,0,12.7
		c-1.3,0-2.4,0-3.7,0c0-6.7,0-13.4,0-20.3c0.6-0.2,1.5-0.4,2.6-0.6c0.4,0.9,0.6,1.7,0.9,2.4c1.9-0.9,3.4-1.7,5.4-2.2
		c3-0.6,6,1.1,6.3,4.3C567.8,195.4,567.6,201,567.6,206.6z"/>
	<path d="M270.5,144.7c0-7.1,0-13.8,0-20.5c0-0.6,0.4-1.5,0.9-1.7c3.9-1.5,11.4,0.9,12.9,4.7c1.1,2.8,1.5,6.3,1.1,9.3
		c-0.6,5.8-3.9,8.2-9.7,8.2C274.2,144.7,272.5,144.7,270.5,144.7z M273.6,125.1c0,5.6,0,11.2,0,16.6c5.4,1.1,8-0.4,8.6-5.2
		c0.2-1.7,0.2-3.4,0-5.2C281.7,126.2,279.4,124.5,273.6,125.1z"/>
	<path d="M403.5,130.1c-1.3,0.4-2.2,0.6-2.8,0.9c-0.4,1.9-0.2,4.1-1.1,5.4c-0.9,1.3-3,1.5-4.7,2.4c-0.9,0.4-1.7,1.1-2.6,1.5
		c0,0.2,0,0.4,0.2,0.6c1.7,0.2,3.2,0.4,5,0.6c2.4,0.2,4.1,1.3,4.3,3.9c0.2,2.6-0.9,4.7-3.4,5c-2.8,0.2-5.6-0.2-8.4-0.9
		c-0.9-0.2-1.3-2.2-1.5-3.4c0-0.4,1.3-1.1,2.2-1.7c0.9,3.9,2.8,5.2,6,4.1c1.1-0.4,2.2-1.7,2.2-2.6s-1.3-1.9-2.4-2.4
		c-1.1-0.4-2.4-0.2-3.4-0.4c-1.3-0.4-2.8-0.6-3.2-1.5c-0.4-0.6,0.9-2.2,1.5-3.7c-0.4-0.6-1.7-1.7-2.2-3c-1.3-3.4,1.3-6.5,5.2-6.7
		c2.8-0.2,5.6,0,8.2,0.2C402.5,128.6,402.9,129.4,403.5,130.1z M397.3,133.5c0-2.2-1.1-3.2-3-3c-2.2,0-2.8,1.3-2.8,3.2s1.1,3,3.2,3
		C396.6,136.5,397.3,135.2,397.3,133.5z"/>
	<path d="M364.1,189.1c-2.4-0.4-3.9-1.1-5.6-1.1c-1.7,0-3.2,0.6-3.7,2.6c-0.2,2.2,1.1,3,2.8,3.4c1.1,0.2,2.4,0.4,3.4,0.9
		c3,1.1,4.7,3,4.5,5.8c0,2.6-2.2,5.2-4.7,6c-3.2,1.1-6.9,0.4-10.8-1.7c0.2-0.9,0.6-1.5,0.9-2.4c2.2,0.6,4.3,1.3,6.5,1.5
		c1.9,0.2,3.9-0.4,4.1-3c0.2-2.4-1.3-3.2-3.2-3.7c-1.3-0.2-2.4-0.6-3.7-0.9c-2.4-0.6-3.9-2.4-3.7-4.5c0.2-1.9,1.1-4.1,2.4-5.4
		c1.9-2.2,7.8-2.2,10.1-0.4C363.9,186.8,363.7,188.1,364.1,189.1z"/>
	<path d="M482,187.2c-0.4,0.9-0.6,1.3-1.1,1.9c-0.4,0-0.6,0-0.9,0c-1.5-0.4-3.2-1.1-4.7-0.9c-1.1,0.2-2.4,1.7-2.8,2.8
		c-0.2,0.6,1.3,1.9,2.4,2.6c0.9,0.6,2.2,0.6,3.4,0.9c3.2,0.9,5,2.8,5,5.6c0,3-1.9,5.4-5,6.5c-3.2,0.9-6.7,0.4-10.3-1.7
		c0.2-0.6,0.6-1.5,0.9-2.2c2.2,0.6,4.1,1.3,6.3,1.5c1.9,0.2,3.9-0.2,4.3-2.8c0.4-2.6-1.1-3.4-3.2-3.9c-0.9-0.2-1.5-0.4-2.4-0.4
		c-3.2-0.6-5-2.6-5.2-5.4c0-3,1.7-5.6,5-6.3C476,184.8,479.4,185.5,482,187.2z"/>
	<path d="M478.3,133.7c0,3.4,0,6.9,0,10.8c-1.1,0-1.9,0-3,0c0-6.9,0-13.8,0-20.5c0-0.4,0.9-0.9,1.5-1.5c0.4,0.4,1.3,1.1,1.3,1.5
		c0.2,2.6,0,5.2,0,8.2c4.5-2.6,5-9.5,10.8-9.9c0.2,0.2,0.4,0.4,0.6,0.6c-1.9,2.6-3.9,5.2-5.8,7.5c-1.5,1.7-1.7,3-0.2,5
		c2.4,2.8,4.3,5.8,6.5,8.8c-3.4,0.9-3.4,0.9-5-1.7c-1.9-3-3.9-6-6-9.1C478.8,133.7,478.6,133.7,478.3,133.7z"/>
	<path d="M257.6,133.1c2.2,0,4.5,0,6.9,0c0,3,0.2,5.8,0,8.6c0,0.9-0.9,1.9-1.7,2.4c-6.9,3-13.6-0.9-14-8.2c-0.2-2.2-0.2-4.5,0.4-6.7
		c1.7-6.7,8.8-8.8,14.7-4.7c-0.4,1.5-1.1,1.9-2.6,1.1c-4.5-1.9-8-0.4-8.8,4.3c-0.4,2.8-0.4,5.8,0.2,8.6c0.2,1.5,1.9,3.2,3.4,3.7
		c1.5,0.6,4.3,0.6,5-0.4c0.9-1.3,0.6-3.7,0.4-5.4c0-0.4-1.5-0.6-2.2-0.9c-0.9-0.4-1.5-0.9-2.4-1.3
		C257.2,133.7,257.4,133.5,257.6,133.1z"/>
	<path d="M458.9,129.4c0-2.8,0-5.4,0-8c2.2-0.4,3,0.2,3,2.4c0,6.9,0,13.6,0,20.5c-2.4,0.2-5,0.6-7.3,0.6c-2.6,0-5-1.7-5.2-4.3
		c-0.4-2.6-0.4-5.4,0.2-8C450.5,128.6,453.8,127.7,458.9,129.4z M458.9,136.3L458.9,136.3c0-0.6,0-1.3,0-1.9
		c0.2-2.2-0.4-3.4-2.8-3.9c-2.4-0.2-3.7,0.9-4.1,3c-0.2,1.9-0.2,4.1,0,6.3c0.2,1.9,1.7,3,3.9,2.6c1.9-0.2,3.2-1.3,3-3.4
		C458.9,138.3,458.9,137.4,458.9,136.3z"/>
	<path d="M347.7,144.1c-2.4,0.2-4.5,0.6-6.7,0.9c-0.9,0-1.9-0.2-2.8-0.6c-3.4-1.5-5-7.3-3-11.9c1.5-3.7,4.5-4.7,8.8-3.2
		c0.2,0,0.4,0,0.9,0c0-1.3,0-2.6,0-4.1c0-1.3,0-2.6,0-4.1c1.1,0.2,1.9,0.4,2.8,0.6C347.7,129.4,347.7,137,347.7,144.1z M344.9,136.8
		L344.9,136.8c0-0.6,0-1.5,0-2.2c0.2-2.2-0.6-3.4-2.8-3.9c-2.2-0.2-3.7,0.9-3.9,2.8c-0.4,1.7-0.4,3.4-0.2,5.2
		c0.2,2.8,1.7,4.1,3.9,3.9c2.4-0.2,3.2-1.5,3.2-4.3C344.9,137.8,344.9,137.2,344.9,136.8z"/>
	<path d="M203.5,177.9c-0.2,1.7-1.1,2.2-2.8,1.7c-0.9-0.2-2.8,0.6-3,1.3c-0.4,1.5-0.2,3.2-0.2,4.7c0,0.2,1.1,0.4,1.7,0.4
		c0.9,0,1.9,0,3,0c-0.2,3.9-3.4,1.7-5,3c0,5.6,0,11.4,0,17.5c-1.3,0-2.2,0.2-3.7,0.2c0-1.1-0.2-2.2-0.2-3.2c0-3.9,0-7.8,0-11.9
		c0-1.3,0.6-2.8-1.3-3.4c-0.2,0,0-1.3,0.2-2.2c0.2-1.1,1.1-1.9,1.3-2.8C193.6,177.5,197.9,174.9,203.5,177.9z"/>
	<path d="M498.2,178.4c1.3,0,2.2,0,3.4,0c0,8.2,0,16.6,0,25c3.7,0,6.9,0,10.3,0c0.6,2.4-0.2,3.2-2.4,3.2c-3.7-0.2-7.3,0-11.4,0
		C498.2,197.1,498.2,188.1,498.2,178.4z"/>
	<path d="M252.6,177.3c1.1-0.2,2.2-0.4,3.4-0.6c0,1.5,0.2,2.6,0.2,3.7c0,6.5,0,12.7,0,19.2c0,2.2-0.4,4.3,1.9,5.4
		c0.2,0.2,0.2,1.1,0.4,1.5c-3.4,1.3-5.8,0-6-3.2C252.4,194.5,252.6,186.1,252.6,177.3z"/>
	<path d="M377.2,206.4c-3.4,1.5-5.8,0.2-5.8-3.4c-0.2-5.6,0-11.2,0-16.8c0-2.8,0-5.6,0-8.8c0.6-0.2,1.7-0.4,3.2-0.9
		c0.2,1.3,0.4,2.4,0.4,3.4c0,6.5,0,12.7,0,19.2c0,2.2-0.4,4.3,1.9,5.8C377.2,205.3,377.2,206,377.2,206.4z"/>
	<path d="M364.5,145.2c-0.6-0.6-1.1-1.3-1.7-1.7c-0.9,0.4-1.5,1.1-2.4,1.5c-3.7,1.5-6.9-0.4-7.1-4.5c0-3.2,0-6.5,0-9.7
		c0-2.2,0-2.2,2.8-2.2c0,3.7,0,7.3,0,10.8c0,1.9,0.4,3.4,2.6,3.4c2.2,0,3.7-1.1,3.9-3.4c0.2-2.8,0-5.6,0-8.4c0-1.9,0-1.9,2.4-2.4
		c0.2,5.2,0.6,10.3,0.9,15.3C366,144.3,365.2,144.7,364.5,145.2z"/>
	<path d="M542.8,128.6c0,5,0,10.1,0,15.3c0,0.4-0.9,0.6-1.3,1.1c-0.6-0.6-1.3-1.1-1.7-1.5c-1.1,0.4-1.9,1.1-3,1.5
		c-3.4,1.1-6.3-0.9-6.5-4.3c0-3.4,0-6.7,0-10.1c0-1.7,0.9-2.4,2.8-1.9c0,3.4,0,6.9,0,10.3c0,1.9,0,4.1,2.8,4.1
		c2.2,0,3.7-1.7,3.7-4.3c0-2.6,0-5.2,0-7.8C539.4,129,540.2,128.1,542.8,128.6z"/>
	<path d="M383.1,144.7c-0.9,0-1.5,0-2.4,0c-0.2-0.2-0.2-0.4-0.2-0.6c0-3.2,0-6.5,0-9.5c0-1.7,0.2-3.4-2.4-3.4
		c-2.2,0-3.9,1.5-3.9,3.9c0,3.2,0,6.5,0,9.7c-1.9,0.6-2.8,0.2-2.8-1.7c0-4.1-0.2-8.2-0.2-12.3c0-0.6,0.6-1.7,0.9-1.7
		c0.9,0.2,1.7,0.6,3,1.1c0.2,0,0.6-0.4,1.3-0.9c3.9-1.9,6.9,0,6.9,4.1c0,3.4,0,6.9,0,10.3C383.3,143.9,383.3,144.1,383.1,144.7z"/>
	<path d="M434.8,130.1c0.9-0.4,1.5-1.1,2.4-1.3c3.2-1.3,6.3,0.4,6.3,3.9c0,3.2,0,6.5,0,9.9c0,1.7-0.6,2.6-2.8,1.9
		c0-3.4,0-6.9,0-10.3c0-1.7,0-3.4-2.4-3.2c-1.9,0.2-3.9,0.6-4.1,3.2c0,3.4,0,6.9,0,10.6c-1.1,0-1.7,0-2.8,0c0-5.2,0-10.3,0-16
		c1.1,0.2,2.2,0.4,3,0.6C434.6,129.6,434.6,129.9,434.8,130.1z"/>
	<path d="M505.1,128.6c0.2,5.2,0.6,10.1,0.9,15.1c0,0.4-0.6,1.1-1.3,1.9c-0.9-1.1-1.3-1.5-1.9-2.4c-0.6,0.4-1.3,0.9-1.9,1.1
		c-3.9,1.7-7.3-0.2-7.3-4.5c0-3.2,0-6.5,0-9.5c0-1.7,0.6-2.6,2.8-1.9c0,3.2,0,6.7,0,9.9c0,1.9-0.2,4.3,2.8,4.3
		c2.2,0,3.7-1.7,3.7-4.5c0-2.6,0-5.2,0-7.8C502.5,129,503.1,128.1,505.1,128.6z"/>
	<path d="M416.5,128.8c0,3.4,0,6.9,0,10.3c0,1.9,0.2,3.9,2.6,4.1c1.9,0.2,3.9-1.7,3.9-4.1c0-2.8,0-5.4,0-8.2c0-1.7,0.6-2.6,2.4-2.2
		c0.2,5.2,0.6,10.3,0.6,15.5c0,0.4-0.6,0.6-1.3,1.1c-0.6-0.6-1.1-1.3-1.7-1.7c-0.9,0.4-1.5,1.1-2.4,1.3c-3.9,1.7-7.1-0.4-7.1-4.5
		c0-3.2,0-6.5,0-9.5C413.7,128.8,414.3,128.1,416.5,128.8z"/>
	<path d="M239.1,185.7c-0.4,1.9-0.4,3.4-2.8,3.7c-2.6,0.2-3.4,2.4-3.4,4.7c0,4.1,0,8.2,0,12.3c-1.3,0-2.4,0-3.7,0
		c0-6.7,0-13.4,0-20.3c0.6-0.2,1.5-0.4,2.8-0.6c0.4,0.9,0.6,1.7,1.3,2.8C234.8,187,236.3,184.8,239.1,185.7z"/>
	<path d="M86,188.1c2.2-1.1,4.1-1.9,6-3c0.2,2.6-0.2,4.1-2.8,4.3c-2.4,0.2-3.2,2.4-3.2,4.7c0,4.1,0,8.2,0,12.3c-1.3,0-2.2,0-3.7,0
		c0-6.7,0-13.1,0-20.3c0.4-0.2,1.5-0.4,2.8-0.6C85.6,186.6,85.8,187.4,86,188.1z"/>
	<path d="M27.4,206.6c-1.3,0-2.4,0-3.7,0c0-6.7,0-13.1,0-20.3c0.6-0.2,1.5-0.4,2.8-0.6c0.4,1.1,0.6,1.7,0.9,2.4c2.2-1.1,4.1-1.9,6-3
		c0,2.4,0.2,4.1-2.6,4.3c-2.2,0.2-3.4,1.9-3.4,4.3c0,3.2,0,6.5,0,9.9C27.4,204.4,27.4,205.3,27.4,206.6z"/>
	<path d="M541.3,206.6c-1.1,0-1.9,0-3.4,0c0-6.7,0-13.4,0-20.3c0.4-0.2,1.5-0.4,2.6-0.6c0.4,0.9,0.6,1.7,1.1,2.4
		c1.9-0.9,3.9-1.9,6.5-3.2c-0.2,2.8-0.4,4.3-2.8,4.5c-2.6,0.2-3.4,2.4-3.4,4.7c0,3,0,6.3,0,9.3C541.5,204.4,541.5,205.5,541.3,206.6
		z"/>
	<path d="M330.5,144.7c-1.9,0.9-3.9,0-3.9-2.6c-0.2-6.5-0.2-12.7,0-19.2c0-0.6,1.3-1.3,2.4-2.4c0.2,1.9,0.4,2.8,0.4,3.9
		c0,4.3,0,8.8,0,13.1C329.6,139.8,330.3,142.1,330.5,144.7z"/>
	<path d="M527.3,129c-1.1,0.9-1.7,1.5-2.2,1.5c-2.2,0-2.2,1.3-2.2,2.8c0,2.2,0,4.3,0,6.5c0,1.7,0.4,3.2,2.6,3.2
		c0.4,0,0.9,0.4,1.1,0.6c-0.4,0.4-0.6,0.9-1.1,1.1c-2.8,1.1-5.4-0.6-5.4-3.7c0-2.8,0-5.4,0-8.2c0-1.1,0.4-2.2-1.3-2.8
		c-1.3-0.4-0.9-1.3,1.3-2.2c0.2-1.7-0.6-4.3,2.8-4.1c0,1.3,0,2.6,0,4.1C524.3,128.6,525.3,128.8,527.3,129z"/>
	<path d="M514.1,121.5c0,5.6,0,11.2,0,16.8c0,1.9,0.6,4.1,1.1,6.5c-1.7,1.1-3.7,0.2-3.9-2.8c0-4.1,0-8,0-12.1c0-1.9,0-4.1-0.2-6
		C510.9,121.9,511.5,121.2,514.1,121.5z"/>
	<path d="M551.2,144.5c-2.2,0.6-2.8-0.2-2.8-1.9c0-4.1-0.2-8.2-0.2-12.3c0-0.6,0.6-1.7,0.9-1.5c0.9,0.2,1.7,0.6,2.8,1.1
		c0.9-0.4,2.4-1.1,3.9-1.7c0.2,0.2,0.4,0.6,0.6,0.9c-0.6,0.6-1.3,1.7-2.2,1.9c-2.4,0.6-3.2,2.2-3.2,4.5
		C551.2,138.3,551.2,141.3,551.2,144.5z"/>
	<path d="M320.6,128.6c0,5.2,0,10.6,0,16c-0.9,0-1.5,0.2-2.4,0.2c-0.2-0.2-0.4-0.4-0.4-0.6c0-4.5,0-9.1-0.2-13.6
		C317.7,128.6,318.8,128.3,320.6,128.6z"/>
	<path d="M221.4,180.9c-1.5,1.1-2.4,2.4-3.2,2.4c-0.6,0-2.2-1.5-2.2-2.2c0.2-0.9,1.3-2.2,2.2-2.4C219,178.4,220.1,179.7,221.4,180.9
		z"/>
	<path d="M209.7,184.4c-1.1-1.7-2.2-2.6-2.2-3.7c0-0.9,1.3-1.5,1.9-2.4c0.9,0.9,1.9,1.5,2.2,2.6
		C211.9,181.6,210.8,182.7,209.7,184.4z"/>
	<path d="M319.5,120.8c0.9,1.3,1.9,1.9,1.9,2.6c-0.2,0.9-1.3,1.3-1.9,2.2c-0.6-0.6-1.7-1.3-1.7-2.2
		C317.3,122.7,318.4,122.1,319.5,120.8z"/>
	<path class="st0" d="M160.2,79.8c-3.2-3.4-6.3-3.7-9.7-0.4c0.4-1.7,1.5-3.7,1.1-5.2c-0.4-1.5-2.2-2.6-3.7-4.3
		c3.7,0.2,6.9-0.4,7.1-5.4c1.3,4.1,3.2,6.7,8.2,5.4C158.9,72.5,158.2,75.8,160.2,79.8z"/>
	<path class="st0" d="M131.7,23.2c0.4,4.3,2.4,6.5,7.1,5.6c-3.9,2.6-5,5.6-2.6,9.7c-3.2-3-6.3-3.9-9.5-0.2c1.5-4.1,1.5-7.3-3.7-9.3
		c2.8-0.4,5-0.2,6-1.1c1.1-0.9,1.3-3,1.9-4.5C131.3,23.4,131.5,23.4,131.7,23.2z"/>
	<path class="st0" d="M66,41.3c0.9,4.5,3,6.5,7.8,5.6c-3.9,2.6-5.4,5.4-2.6,9.7c-0.2,0-0.4,0.2-0.6,0.2c-1.5-1.1-3-2.2-4.5-3.2
		c-1.5,1.1-3,2.2-4.7,3.2c1.7-3.9,1.3-7.1-3.2-9.7C62.9,47.7,65.1,45.6,66,41.3z"/>
	<path class="st0" d="M100.2,118.2c4.7,0.6,6.7-1.5,7.5-5.8c0.9,4.3,3.2,6.5,7.8,5.8c-4.1,2.4-5,5.4-3.2,9.5c-1.5-1.1-2.8-1.9-4.5-3
		c-1.5,0.9-2.8,1.9-5.2,3.4C104.8,123.8,104.3,120.6,100.2,118.2z"/>
	<path class="st0" d="M83.9,105.9c1.1,4.3,2.8,6.7,7.8,5.8c-3.7,2.4-5.2,5.4-2.8,9.7c-3.4-3.4-6.5-3.4-9.5,0
		c1.3-4.1,1.7-7.5-3.2-9.5C80.4,112.4,83.4,110.9,83.9,105.9z"/>
	<path class="st0" d="M131.5,105.7c0.9,4.1,2.4,6.9,7.5,6c-3.9,2.4-4.7,5.4-2.8,9.7c-3.2-3.4-6.3-3.2-9.5,0c1.7-4.1,1.7-7.3-3-9.5
		C128.7,112.4,130.9,110,131.5,105.7z"/>
	<path class="st0" d="M74.6,94.7c-5,2.2-5.6,5.2-3,9.5c-2.4-1.3-3.9-2.8-5.4-2.8c-1.5,0-2.8,1.5-5.2,3c2.6-4.5,1.5-7.5-2.6-9.7
		c4.7,0.6,7.1-1.3,8-5.6c0.6,1.5,0.9,3.7,2.2,4.7C69.6,94.5,71.8,94.3,74.6,94.7z"/>
	<path class="st0" d="M156.9,93.9c-4.1,2.4-5,5.2-3.4,9.5c-1.5-0.9-2.8-1.9-4.5-2.8c-1.3,0.9-2.8,1.9-4.1,2.8
		c1.3-3.9,0.6-7.1-3.7-9.5c5.2,1.1,6.9-1.5,7.8-6C149.8,92.3,151.5,95.2,156.9,93.9z"/>
	<path class="st0" d="M91,29.4c-4.3,2.4-5,5.4-3.2,9.5c-1.5-1.1-3-1.9-4.5-3c-1.5,1.1-2.8,1.9-4.3,3c1.3-3.9,0.9-7.1-3.4-9.5
		c4.7,0.9,6.9-1.3,7.8-5.8C84.1,27.9,86,30.3,91,29.4z"/>
	<path class="st0" d="M107.1,16.9c0.9,4.5,3,6.7,8,5.6c-4.1,2.4-5.4,5.4-3,9.9c-3.4-3.7-6.5-3.4-9.7,0c1.9-4.3,1.5-7.3-3-9.7
		C103.9,23.4,106.5,21.6,107.1,16.9z"/>
	<path class="st0" d="M153.1,55.3c-3.2-3-6.3-2.8-9.5,0.4c1.7-4.1,1.5-7.3-3-9.5c5,0.6,6.9-1.7,7.5-6.7c1.1,2.6,1.3,4.5,2.6,5.6
		c1.1,0.9,3.2,0.6,5.2,1.1c-1.3,1.3-3.2,2.4-3.7,3.7C151.8,51.6,152.8,53.5,153.1,55.3z"/>
	<path class="st0" d="M52,70.6c4.7,0.9,7.1-1.3,7.5-5.8c1.1,3.7,2.6,6.9,7.5,6c-4.1,2.4-4.5,5.4-2.6,9.5c-3.2-3.2-6.3-3.4-9.5,0.2
		C56.7,76.2,56.5,72.9,52,70.6z"/>
	<path class="st0" d="M429.4,192.4c0-2.6,1.1-3.9,3.7-4.1c2.6,0,3.9,1.3,3.9,3.9s-1.3,4.1-3.7,4.1
		C430.9,196.3,429.4,195,429.4,192.4z"/>
	<path class="st0" d="M70.9,192.4c0,2.4-1.5,4.1-3.9,4.1s-3.9-1.5-3.9-3.9c0-2.6,1.5-3.9,3.9-3.9C69.6,188.5,70.9,189.8,70.9,192.4z
		"/>
	<path class="st0" d="M288.4,196.3c0-1.1,0-1.9,0-3c-0.2-2.6,1.3-3.7,3.7-4.3c2.4-0.4,4.3,0.2,5,2.6c1.1,3.4,1.1,6.9-0.4,10.1
		c-0.9,1.9-2.8,2.6-4.7,1.9c-1.9-0.4-3.4-1.5-3.2-3.9C288.4,198.6,288.4,197.3,288.4,196.3z"/>
	<path class="st0" d="M4.5,186.6c0-0.2,0-0.4,0-0.6c0.6-1.7-1.7-4.7,2.4-4.7c5.2,0,7.3,1.5,7.3,5.2c0.2,3.2-1.7,5.8-4.7,5.8
		C3.4,192.4,4.7,193,4.5,186.6z"/>
	<path class="st0" d="M301.4,142.1c-0.9-6-0.6-7.5,1.7-7.5c4.5-0.2,6.5,0.9,6.5,3.9C309.6,141.5,307.4,142.6,301.4,142.1z"/>
	<path class="st0" d="M300.9,124.9c1.9,0.2,3.4,0,4.7,0.2c1.9,0.2,2.8,1.7,2.8,3.4c0,1.7-1.1,2.8-2.8,3.2c-4.1,0.9-4.7,0.2-4.7-3.7
		C300.9,127.3,300.9,126.4,300.9,124.9z"/>
	<path class="st0" d="M319.5,194.1c-2.8,0-5.4,0-8.2,0c-0.6-2.2,0-4.1,1.7-5.2c1.1-0.6,2.8-0.9,4.1-0.4
		C319.3,189.6,319.5,191.7,319.5,194.1z"/>
	<path class="st0" d="M578.4,194.1c-0.4-3.7,1.3-6,4.1-6s4.3,2.4,3.9,6C583.8,194.1,581,194.1,578.4,194.1z"/>
	<path class="st0" d="M50.2,196.7c-0.4,1.5-0.4,3.7-1.3,5c-0.6,1.3-2.6,2.4-3.7,2.4c-1.3,0-3.7-1.5-3.9-2.6
		c-0.6-3.2-0.6-6.9-0.2-10.1c0.2-1.9,1.7-3,3.9-3s3.7,0.9,4.3,3C49.8,193,50,194.7,50.2,196.7z"/>
	<path class="st0" d="M275.9,194.3c-3.7,0-6.3,0-10.1,0c1.1-2.2,1.7-4.1,3-5.4c0.9-0.6,3.2-0.6,3.9,0
		C274.2,190.2,274.6,192.2,275.9,194.3z"/>
	<path class="st0" d="M459.6,194.1c-2.8,0-5.4,0-8.2,0c-0.6-1.9-0.2-3.9,1.5-5c1.1-0.6,3-1.1,4.3-0.4
		C459.4,189.6,459.6,191.9,459.6,194.1z"/>
	<path class="st0" d="M393,199.5c-0.6,1.3-1.1,3.2-2.2,3.9c-1.1,0.9-3,1.1-4.3,0.6c-0.9-0.2-1.7-2.4-1.5-3.2
		c0.2-1.3,1.5-2.6,2.6-3.7c0.4-0.4,1.3-0.2,2.2-0.4C391.9,196,393,196.7,393,199.5z"/>
	<path class="st0" d="M528.1,194.3c-2.8,0-5.6,0-8.2,0c-0.2-3.7,1.1-5.8,3.7-6C526.2,188.1,527.9,190,528.1,194.3z"/>
	<path class="st0" d="M106.7,196.7c0.6,6.5-1.1,7.3-4.3,7.8c-2.2,0.2-3.4-1.7-3.2-4.1C99.4,197.3,102.2,195.8,106.7,196.7z"/>
	<path class="st0" d="M273.6,125.1c5.8-0.9,8.2,0.9,8.6,6.3c0.2,1.7,0.2,3.4,0,5.2c-0.6,4.7-3.2,6.3-8.6,5.2
		C273.6,136.3,273.6,130.7,273.6,125.1z"/>
	<path class="st0" d="M397.3,133.5c0,1.7-0.9,3-2.8,3c-1.9,0-3-0.9-3.2-3c0-1.9,0.9-3.2,2.8-3.2
		C396.2,130.3,397.3,131.2,397.3,133.5z"/>
	<path class="st0" d="M458.9,136.3c0,0.9,0,1.7,0,2.8c0.2,2.2-1.3,3.2-3,3.4c-1.9,0.2-3.4-0.6-3.9-2.6c-0.2-1.9-0.2-4.1,0-6.3
		s1.7-3.4,4.1-3c2.4,0.2,3,1.7,2.8,3.9C458.7,135,458.9,135.7,458.9,136.3L458.9,136.3z"/>
	<path class="st0" d="M344.9,136.8c0,0.6,0,1.1,0,1.7c0,3-1.1,4.1-3.2,4.3c-2.2,0.2-3.7-1.1-3.9-3.9c-0.2-1.7,0-3.4,0.2-5.2
		c0.4-2.2,1.7-3,3.9-2.8c2.2,0.2,3.2,1.5,2.8,3.9C344.7,135.2,344.9,135.9,344.9,136.8L344.9,136.8z"/>
</g>
</svg>
