<svg xmlns="http://www.w3.org/2000/svg" viewBox="-173 171.3 612 218.7">
  <style type="text/css">
    .path{fill:#666;}
  </style> 
  <path class="path" d="M-172.8,172.9c1.3,0,2.8,0,4.1,0c68.6,0,137.1,0,205.7,0c1.5,0,3,0,4.7,0c0,1.3,0.2,2.2,0.2,3.2c0,45.5,0,90.8,0,136.2
	c0,2.8-0.6,3.4-3.4,3.4c-69.2,0-138.4,0-207.6,0c-1.3,0-2.6,0.2-3.9,0.2C-172.8,268.4-172.8,220.8-172.8,172.9z M-12.8,251.1
	c-1.9-4.3-1.3-7.3,3-9.9c-5,1.1-6.9-1.5-8.2-5.4c-0.2,5-3.4,5.6-7.1,5.4c1.5,1.5,3.2,2.8,3.7,4.3c0.4,1.5-0.6,3.4-1.1,5.2
	C-19.1,247.5-16.1,247.7-12.8,251.1z M-41.3,194.5c-0.2,0-0.4,0.2-0.6,0.2c-0.6,1.5-0.9,3.7-1.9,4.5c-1.3,0.9-3.2,0.6-6,1.1
	c5.2,1.9,5.4,5.2,3.7,9.3c3.4-3.9,6.3-2.8,9.5,0.2c-2.4-4.3-1.1-7.3,2.6-9.7C-38.9,200.9-40.9,198.8-41.3,194.5z M-107,212.6
	c-0.9,4.5-3,6.5-7.8,5.6c4.3,2.4,5,5.6,3.2,9.7c1.5-1.1,3-2.2,4.7-3.2c1.5,1.1,3,2.2,4.5,3.2c0.2,0,0.4-0.2,0.6-0.2
	c-3-4.1-1.5-7.1,2.6-9.7C-104,219-106.2,217.1-107,212.6z M-72.8,289.5c4.3,2.4,4.5,5.6,2.4,9.9c2.4-1.5,3.7-2.4,5.2-3.4
	c1.5,1.1,3,2.2,4.5,3c-1.7-4.1-0.9-7.1,3.2-9.5c-4.7,0.6-6.9-1.5-7.8-5.8C-66.1,288-68.2,290.2-72.8,289.5z M-89.1,277.2
	c-0.4,5-3.2,6.3-8,6c5.2,1.9,4.7,5.4,3.2,9.5c3.2-3.4,6.3-3.7,9.5,0c-2.4-4.3-0.9-7.3,2.8-9.7C-86.3,284.1-88.3,281.5-89.1,277.2z
	 M-41.5,277c-0.6,4.5-2.8,6.7-7.8,6.3c4.7,2.2,4.7,5.4,3,9.5c3.2-3.2,6.3-3.4,9.5,0c-1.9-4.1-1.1-7.1,2.8-9.7
	C-38.9,283.9-40.6,281.1-41.5,277z M-98.4,266c-2.8-0.4-5-0.2-6.3-1.1s-1.5-3-2.2-4.7c-0.6,4.5-3.2,6.3-8,5.6c4.1,2.4,5,5.2,2.6,9.7
	c2.4-1.3,3.7-3,5.2-3s3,1.5,5.4,2.8C-104,271.2-103.4,268.2-98.4,266z M-16.1,265.2c-5.2,1.1-6.9-1.7-7.8-6c-0.9,4.3-2.6,7.1-7.8,6
	c4.3,2.2,5,5.4,3.7,9.5c1.5-0.9,2.8-1.9,4.1-2.8c1.5,1.1,3,1.9,4.5,2.8C-21.2,270.5-20.2,267.5-16.1,265.2z M-82,200.7
	c-4.7,0.9-6.9-1.5-7.8-5.8c-0.6,4.5-3,6.7-7.8,5.8c4.3,2.4,5,5.4,3.4,9.5c1.3-1.1,2.8-1.9,4.3-3c1.5,1.1,3,2.2,4.5,3
	C-87,206.1-86.3,203.1-82,200.7z M-65.9,188.2c-0.6,4.7-3,6.5-7.8,5.8c4.5,2.4,5,5.4,3,9.7c3.2-3.4,6.3-3.7,9.7,0
	c-2.4-4.5-1.1-7.5,3-9.9C-62.8,194.9-65.2,192.7-65.9,188.2z M-19.9,226.6c-0.4-1.7-1.3-3.7-0.9-5.2c0.4-1.5,2.4-2.4,3.7-3.7
	c-1.9-0.2-4.1,0-5.2-1.1c-1.3-1.1-1.5-3-2.6-5.6c-0.6,5-2.6,7.3-7.5,6.7c4.5,2.2,4.7,5.4,3,9.5C-26,223.8-23,223.3-19.9,226.6z
	 M-121,241.9c4.5,2.2,4.7,5.4,3,9.7c3.2-3.7,6.3-3.2,9.5-0.2c-1.7-4.1-1.5-7.1,2.6-9.5c-5,0.9-6.5-2.2-7.5-6
	C-113.9,240.6-116.1,242.7-121,241.9z M304.3,171.4c1.5,1.3,3.2,2.6,5.2,4.1c-23.7,18.8-49.4,33.4-78.9,40.5
	c0.2-0.2,0.4-0.4,0.6-0.4c0.2-0.2,0.4-0.2,0.9-0.2c25.7-10.3,49.1-24.1,70.1-42.3c0.6-0.4,1.1-1.1,1.7-1.7
	C303.8,171.4,304.1,171.4,304.3,171.4z M257.1,385.7c-1.3-0.9-3-1.5-4.1-2.6c-0.9-0.9-1.1-2.6-0.9-3.9c0-0.4,1.7-0.9,2.8-1.3
	c1.1,4.5,4.1,6.3,8.2,4.5c1.1-0.4,2.2-1.9,2.2-3s-1.3-2.6-2.2-2.8c-1.7-0.6-3.9-0.4-5.6-0.6s-3.7,0-4.1-2.4
	c-0.4-2.2,1.1-2.8,2.6-3.7c0.2,0,0.2-0.2,0.4-0.4c-4.7-3.7-5.4-7.8-1.9-10.8c2.4-1.9,5.2-2.4,8.2-1.7c2.4,0.4,4.7,0.4,7.1,0.6
	c0-0.2,0.2-0.4,0.2-0.6c0.4,0.6,0.9,1.3,1.5,2.4c-1.7,0.4-3,0.9-4.3,1.3c1.5,5.8,0,8.2-6,9.5c-1.5,0.4-3.4,0.4-3.9,3.2
	c2.4,0.2,4.5,0.2,6.7,0.4c2.4,0.2,4.1,1.3,5,3.7c0.9,2.4,0.2,4.5-1.7,6.3c-1.1,0.9-2.4,1.5-3.7,2.2
	C261.6,385.7,259.4,385.7,257.1,385.7z M256.4,363.7c0,2.6,1.5,3.9,3.9,3.9s3.7-1.5,3.7-4.1c0-2.6-1.3-3.9-3.9-3.9
	C257.5,359.8,256.4,361.1,256.4,363.7z M-108.8,385.7c-0.6-0.2-1.3-0.6-1.9-0.9c-3-1.3-3.9-2.8-3.2-6.5c0.9,0,1.9-0.2,2.8-0.2
	c1.1,4.3,4.1,6,8.2,4.3c1.1-0.4,2.2-1.9,2.2-3c0-1.1-1.3-2.4-2.4-2.8c-1.5-0.6-3.2-0.2-5-0.4c-1.7-0.2-4.5,0.2-4.7-2.2
	c-0.2-1.5,1.5-3,2.2-4.3c-0.9-1.7-2.6-3.7-3-5.8c-0.2-1.5,0.9-3.7,1.9-5c1.9-2.2,4.7-2.4,7.5-1.9c2.4,0.4,5,0.4,7.3,0.9
	c0-0.2,0.2-0.6,0.2-0.9c0.4,0.6,1.1,1.3,1.9,2.4c-1.7,0.4-3,0.9-4.3,1.3c1.3,6,0,8.2-6.5,9.5c-1.3,0.2-2.4,1.1-3.7,1.7
	c0,0.2,0,0.6,0.2,0.9c1.1,0.2,1.9,0.6,3,0.6c1.3,0.2,2.6,0,3.9,0.2c3,0.2,4.7,1.9,5.2,4.3c0.4,2.8-0.9,5.2-3.4,6.5
	c-0.9,0.4-1.7,0.6-2.4,1.1C-104.7,385.7-106.6,385.7-108.8,385.7z M-102.1,363.7c0-2.6-1.3-3.9-3.9-3.9c-2.4,0-3.9,1.5-3.9,3.9
	c0,2.4,1.5,3.9,3.9,3.9S-102.1,366-102.1,363.7z M438.6,378.1c-1.1,0-2.2-0.2-3.7-0.2c0-2.8,0-5.6,0-8.4c0-1.5,0-3,0-4.7
	c0-3.7-0.6-5-2.8-4.7c-3,0.2-5,2.2-5,5.2c0,4.1,0,8.4,0,12.7c-1.3,0-2.2,0-3.7,0c0-6.7,0-13.1,0-20.3c0.6-0.2,1.5-0.4,2.8-0.6
	c0.2,0.9,0.6,1.7,0.9,2.4c7.3-3.4,8.6-3.2,11.9,1.1C438.6,366.3,438.6,372.3,438.6,378.1z M76,225.9c1.7-0.6,3.2-1.7,5-2.2
	c6-1.3,11.9-2.6,17.9-3.4c4.5-0.6,9.1-1.3,13.6-1.7c13.4-1.1,26.1,1.9,38.4,7.1c7.5,3,14.7,7.1,21.8,10.8c2.4,1.3,4.5,1.5,6.7,0.2
	c4.7-2.6,9.5-5.2,14.2-7.8c12.5-6.9,26.1-10.1,40.3-11.2c17.7-1.5,35.1,0,52.8,0.9c19.6,0.9,39.2,0.6,58.2-6.3
	c5.4-1.9,10.6-4.5,16.2-6.7c-1.1,0.9-2.2,1.7-3.4,2.6c-12.5,7.8-25.7,14.7-39.9,18.5c-8.6,2.4-17.7,3.2-26.7,4.3
	c-16.2,1.9-32.6,2.2-48.7,5.6c-12.9,2.8-25.2,7.3-36.2,14.9c-2.6,1.7-4.5,4.7-6.3,7.3c-1.7,2.8-2.8,5.8-4.5,8.6
	c-2.6,4.1-5,4.7-9.5,2.6c-8.8-4.3-16.2-11-23.1-17.9c-7.8-8-16.4-14.9-26.5-19.6c-8-3.9-16.2-7.1-25-7.5c-5.2-0.2-10.1,0.6-15.3,0.9
	c-5.8,0.4-11.9,0.6-17.7,1.1c-0.6,0-1.3-0.2-2.2-0.2C76.2,226.6,76.2,226.4,76,225.9z M335.1,192.1c-19,13.6-39.2,22.9-62.7,23.9
	c20.5-4.5,38.2-13.8,53.9-26.9c1.1-0.9,2.2-1.3,3.4-0.4C331.2,189.9,332.9,190.8,335.1,192.1z M316.6,181.1
	c-21.8,16-44.2,30-71.6,33.8c6.3-2.4,12.5-4.7,18.8-7.3c16.6-6.9,31.9-16.4,45.7-28C312,177.6,312,177.6,316.6,181.1z M-10.9,377.9
	c0-4.7,0-9.3,0-13.8c0-1.9,0.2-3.9-2.6-3.9c-2.6,0-4.7,1.9-4.7,4.3c0,4.3,0,8.8,0,13.4c-1.3,0-2.2,0-3.7,0c0-6.7,0-13.4,0-20
	c1.3-0.4,3-1.5,3.4,1.7c3.9-2.8,7.3-4.1,10.6,0.2c1.7-0.9,3.2-1.9,5-2.6c3-0.9,6,0.6,6.3,3.4c0.2,5.6,0,11.4,0,17.2
	c-1.1,0-2.2,0-3.4,0c0-4.5,0-9.1,0-13.6c0-1.9,0.4-4.1-2.6-4.1c-2.4,0-4.7,2.4-4.7,4.5c0,4.3,0,8.6,0,13.1
	C-8.5,377.9-9.6,377.9-10.9,377.9z M-40.4,377.9c-1.3,0-2.2,0-3.7,0c0-2.8,0-5.6,0-8.4c0-1.7,0-3.2,0-5c0-1.9,0.2-4.3-2.8-4.3
	c-2.8,0-4.5,1.7-4.5,4.5c0,4.3,0,8.6,0,13.1c-1.3,0-2.4,0-3.7,0c0-6.7,0-13.4,0-20.3c0.6-0.2,1.5-0.4,2.6-0.6
	c0.4,0.9,0.6,1.5,1.1,2.2c5.4-3.2,6.9-3,10.3,0.4c1.5-0.9,3-1.9,4.7-2.4c3.2-1.1,6.3,0.6,6.5,3.9c0.4,5.6,0,11,0,16.8
	c-1.1,0-2.2,0-3.2,0c0-4.5,0-9.1,0-13.6c0-1.9,0.2-4.3-2.8-4.3c-2.4,0-4.5,2.4-4.5,4.7C-40.4,369.1-40.4,373.4-40.4,377.9z
	 M358.8,203.9c-18.1,10.1-37.1,13.4-56.9,13.1c5.6-1.3,11.2-2.4,16.6-3.9c10.1-2.7,19.8-6.8,28.5-12.8c1.3-0.9,2.4-1.1,3.7-0.2
	C353.2,201.3,355.6,202.4,358.8,203.9z M116.1,376.6c-1.7,0.6-3,1.1-4.5,1.7c0-10.1,0-19.8,0-29.7c0.9-0.2,1.9-0.4,3.7-0.9
	c0,3.9,0,7.1,0,10.6c0.6,0,0.9,0.2,1.1,0c6.5-3.2,12.1-0.2,12.5,7.1c0.2,2.2,0,4.3-0.4,6.3C126.9,377.5,120.8,380.5,116.1,376.6z
	 M115.4,367.6c0,1.1,0,2.4,0,3.4c-0.2,2.4,1.3,3.4,3.2,3.9c2.2,0.4,3.9,0,4.7-1.9c1.5-3.2,1.5-6.7,0.4-10.1c-0.9-2.4-2.6-3.2-5-2.6
	c-2.4,0.4-3.9,1.5-3.7,4.3C115.4,365.4,115.4,366.5,115.4,367.6z M-168.5,367.1c0,3.7,0,7.1,0,10.8c-1.5,0-2.4,0-3.7,0
	c0-0.6-0.2-1.1-0.2-1.5c0-8.8,0-17.5,0-26.9c4.5,0.4,9.1,0.4,13.1,1.3c3.4,0.9,5,4.5,4.5,8.6c-0.4,3.4-2.8,6.5-6.5,7.1
	C-163.1,366.9-165.7,366.9-168.5,367.1z M-168.5,357.9c0.2,6.5-1.1,5.8,5.2,5.8c3,0,5-2.4,4.7-5.8c-0.2-3.7-2.4-5.2-7.3-5.2
	c-4.1,0-1.9,3-2.4,4.7C-168.5,357.6-168.3,357.6-168.5,357.9z M125.1,315.8c0-7.3,0-14.4,0-22.2c3.2,0.2,6.7,0,9.7,0.9
	c1.5,0.4,3,2.2,3.7,3.9c1.1,2.6-0.6,4.5-2.6,5.6c1.3,1.5,3,2.8,3.4,4.5c1.1,3.7-1.1,6.9-5.2,7.3C131.4,316,128.4,315.8,125.1,315.8z
	 M128.4,313.4c6,0.6,8.2-0.4,8.2-3.7c0-3-1.9-4.1-6.5-3.9C127.7,305.9,127.5,307.2,128.4,313.4z M127.9,296.2c0,1.5,0,2.4,0,3.4
	c0,3.9,0.6,4.5,4.7,3.7c1.7-0.4,2.8-1.3,2.8-3.2s-0.9-3.2-2.8-3.4C131.4,296.2,129.9,296.4,127.9,296.2z M150.6,368.6
	c-4.3,0-8.4,0-12.3,0c-0.4,2.6,0,4.5,1.9,6c2.8,1.9,5.6,1.1,8.4-0.6c1.3,1.3,1.3,1.9-0.2,3c-5.2,3.2-12.1,1.1-13.8-5
	c-1.3-3.9-1.3-8,1.1-11.6c1.7-2.8,5.4-4.3,8.6-3.7c3.2,0.6,5.4,3,6,6.7C150.4,365.2,150.4,366.7,150.6,368.6z M146.5,365.4
	c0.2-2.4-0.2-4.5-2.4-5.4c-1.1-0.4-3-0.2-4.1,0.4c-1.7,1.1-2.4,3-1.7,5.2C141.1,365.4,143.7,365.4,146.5,365.4z M417.7,368.6
	c-4.5,0-8.4,0-12.5,0c-0.4,2.6,0.2,4.7,2.2,6c2.8,1.7,5.4,0.9,8-0.6c1.7,1.3,1.5,2.2-0.2,3c-5.8,3.4-12.5,0.6-13.8-6
	c-0.9-4.1-0.9-8.2,2.2-11.6c2.4-2.6,5.2-3.2,8.4-2.4c3.2,1.1,5,3.2,5.4,6.7C417.4,365.2,417.4,366.7,417.7,368.6z M405.4,365.4
	c2.6,0,5.4,0,8,0c0.2-3.7-1.3-6-3.9-6C406.7,359.4,404.9,361.7,405.4,365.4z M-136.8,367.3c0.2-5.8,2.6-9.3,7.1-10.3
	c4.1-0.9,8.6,1.1,9.7,5.2c0.9,3,0.9,6.3,0.4,9.3c-0.6,4.5-4.1,6.9-8.4,6.9s-7.1-2.6-8.2-7.1C-136.4,370.1-136.6,368.8-136.8,367.3z
	 M-122.8,368c-0.4-1.9-0.6-3.7-1.1-5.4c-0.6-2.2-1.9-3-4.3-3c-2.2,0-3.9,1.1-3.9,3c-0.2,3.4-0.2,6.9,0.2,10.1
	c0.2,1.1,2.4,2.6,3.9,2.6c1.3,0,3-1.3,3.7-2.4C-123.2,371.6-123,369.7-122.8,368z M93.9,368.4c-0.6,2.8,0,4.7,1.9,6
	c2.8,1.7,5.6,0.9,8.2-0.6c1.5,1.1,1.5,1.9,0,3c-5.6,3.7-12.7,0.9-14.2-5.6c-0.9-3.4-0.9-6.7,0.9-9.9c1.8-3.2,5.2-5,8.6-4.5
	c3.4,0.4,5.8,3,6.5,6.9c0,0.4,0.2,0.9,0.2,1.3c0.4,3.2,0.4,3.4-2.8,3.4C100.1,368.4,97.1,368.4,93.9,368.4z M102.9,365.6
	c-1.1-2.2-1.7-4.1-3-5.2c-0.9-0.6-3.2-0.6-3.9,0c-1.3,1.1-1.9,3.2-3,5.4C96.5,365.6,99.3,365.6,102.9,365.6z M278,368.4
	c0.2,6.7,4.3,8.6,10.6,5.4c1.7,1.3,1.5,2.2-0.4,3c-3.2,1.7-6.5,1.9-9.7,0.2c-3.7-2.2-4.5-5.8-4.7-9.7c0-3.4,0.6-6.7,3.7-9.1
	c4.5-3.7,11.2-1.5,12.5,4.1c0.4,1.7,0.4,3.7,0.6,5.8c-2.4,0-4.5,0-6.5,0C282.3,368.4,280.1,368.4,278,368.4z M286.6,365.4
	c0-2.4-0.2-4.5-2.4-5.4c-1.3-0.4-3.2-0.2-4.3,0.4c-1.7,1.1-2.2,3-1.5,5C281.2,365.4,283.8,365.4,286.6,365.4z M209.9,361.5
	c-0.2-0.4-0.6-1.1-1.3-1.9c3.4-1.9,6.7-3.2,10.8-2.4c2.6,0.6,3.9,2.2,3.9,4.7c0,3-0.2,6,0,9.1c0,1.5,0.9,3.2,0.9,4.7
	c0,0.9-0.4,1.9-0.9,3.4c-1.3-1.3-2.2-2.2-2.6-2.4c-2.6,0.6-4.7,1.5-7.1,1.5c-2.4,0.2-4.3-1.1-5.4-3.4c-0.9-2.6-0.4-5.8,1.7-7.1
	s4.7-1.7,7.1-2.4c1.3-0.2,2.8,0.2,2.6-1.9c-0.2-1.9-0.6-3.7-3-3.4C214.6,360,212.4,360.9,209.9,361.5z M220,370.8
	c0-2.8-1.3-3.4-3.4-3c-0.6,0.2-1.7,0-2.2,0.4c-1.1,1.1-2.4,2.4-2.6,3.7c-0.2,1.1,0.6,3,1.5,3.2c1.3,0.4,3.2,0.2,4.3-0.6
	C218.9,374,219.3,372.1,220,370.8z M357.1,373.8c0.4,0.6,0.9,1.3,1.3,1.7c-5.2,5.2-13.4,3.2-15.3-3.7c-0.6-2.8-0.6-5.8-0.2-8.6
	c0.9-4.1,4.5-6.7,8.6-6.5c3.9,0.2,6.7,2.8,7.3,7.3c0.2,1.3,0,2.8,0,4.5c-4.1,0-8.2,0-12.3,0c-0.2,2.8,0.2,5,2.6,6.3
	C351.9,376.2,354.5,375.5,357.1,373.8z M355.1,365.6c-0.2-4.1-1.9-6.3-4.5-6c-2.6,0.2-4.1,2.4-3.7,6
	C349.5,365.6,352.3,365.6,355.1,365.6z M-75.8,361.9c-0.4-0.9-1.1-1.5-1.7-2.6c2.4-0.9,4.3-1.9,6.5-2.4c5.8-1.1,8.6,1.3,8.4,7.1
	c0,2.8-0.2,5.4,0,8.2c0,0.9,0,1.9,0.4,2.6c1.3,1.7,0.4,2.6-1.1,3.7c-0.9-0.6-1.7-1.5-2.2-1.7c-2.6,0.6-4.7,1.5-7.1,1.7
	c-2.8,0.2-5-1.7-5.6-4.1c-0.6-3,0.2-6,2.8-7.3c1.7-0.9,3.7-1.3,5.4-1.7c1.1-0.2,2.2-0.2,3.9-0.4c-0.6-1.7-0.9-4.1-1.9-4.7
	C-70.2,358.7-73,360.4-75.8,361.9z M-66.3,368c-4.3-0.9-7.3,0.6-7.5,3.7c-0.2,2.4,1.1,4.3,3.2,4.1C-67.4,375.3-65.6,374.5-66.3,368z
	 M37,357.2c0,4.7,0,9.3,0,13.8c0,3.4,1.1,4.7,3.4,4.7c2.6,0,4.5-2.4,4.5-5.2c0-3.4,0-6.7,0-10.1c0-3,0-3,3.7-3c0,4.3,0,8.6,0,12.9
	c0,1.5,0,3.2,0.4,4.5s0.4,2.4-0.9,2.8c-0.6,0.2-1.5-0.6-2.4-1.1c-0.2-0.2-0.4-0.4-0.6-0.4c-0.9,0.6-1.7,1.1-2.6,1.5
	c-4.7,2.4-9.3-0.2-9.5-5.4c-0.2-4.1,0-8,0-12.1C33.1,357.6,34.2,356.8,37,357.2z M234.4,377.9c-1.3,0-2.4,0-3.7,0
	c0-6.7,0-13.1,0-20.3c0.4-0.2,1.5-0.4,2.6-0.6c0.4,0.9,0.9,1.7,1.1,2.4c1.5-0.6,3-1.5,4.5-2.2c3.4-1.1,6.7,0.6,6.9,4.1
	c0.4,5.4,0,11,0,16.4c-1.1,0-1.9,0-3.4,0c0-2.8,0-5.6,0-8.4c0-1.7,0-3.2,0-5c0-2.2,0-4.3-2.8-4.3c-2.8-0.2-5.2,1.9-5.2,4.7
	C234.4,369.1,234.4,373.4,234.4,377.9z M160.1,377.7c-0.9,0-1.3,0.2-1.7,0.2c-0.4,0-1.1,0-1.9,0c0-6.7,0-13.4,0-20.3
	c0.6-0.2,1.5-0.4,2.6-0.9c0.4,0.9,0.9,1.7,1.1,2.4c1.7-0.9,3-1.7,4.7-2.2c3.7-1.1,6.7,1.3,6.7,5c0.2,5.2,0,10.3,0,15.7
	c-1.3,0-2.2,0-3.7,0c0-2.8,0-5.6,0-8.4c0-1.5,0-3,0-4.7c0-3.7-0.6-5-3-4.7c-2.8,0.2-5,2.4-5,5.2
	C160.1,369.3,160.1,373.4,160.1,377.7z M394.6,377.9c-1.3,0-2.2,0-3.4,0c0-4.3,0-8.6,0-12.9c0-3.7-0.6-4.7-3-5c-3,0-5,2.2-5,5.2
	c0,4.1,0,8.4,0,12.7c-1.3,0-2.4,0-3.7,0c0-6.7,0-13.4,0-20.3c0.6-0.2,1.5-0.4,2.6-0.6c0.4,0.9,0.6,1.7,0.9,2.4
	c1.9-0.9,3.4-1.7,5.4-2.2c3-0.6,6,1.1,6.3,4.3C394.8,366.7,394.6,372.3,394.6,377.9z M97.5,316c0-7.1,0-13.8,0-20.5
	c0-0.6,0.4-1.5,0.9-1.7c3.9-1.5,11.4,0.9,12.9,4.7c1.1,2.8,1.5,6.3,1.1,9.3c-0.6,5.8-3.9,8.2-9.7,8.2C101.2,316,99.5,316,97.5,316z
	 M100.6,296.4c0,5.6,0,11.2,0,16.6c5.4,1.1,8-0.4,8.6-5.2c0.2-1.7,0.2-3.4,0-5.2C108.7,297.5,106.4,295.8,100.6,296.4z M230.5,301.4
	c-1.3,0.4-2.2,0.6-2.8,0.9c-0.4,1.9-0.2,4.1-1.1,5.4s-3,1.5-4.7,2.4c-0.9,0.4-1.7,1.1-2.6,1.5c0,0.2,0,0.4,0.2,0.6
	c1.7,0.2,3.2,0.4,5,0.6c2.4,0.2,4.1,1.3,4.3,3.9c0.2,2.6-0.9,4.7-3.4,5c-2.8,0.2-5.6-0.2-8.4-0.9c-0.9-0.2-1.3-2.2-1.5-3.4
	c0-0.4,1.3-1.1,2.2-1.7c0.9,3.9,2.8,5.2,6,4.1c1.1-0.4,2.2-1.7,2.2-2.6s-1.3-1.9-2.4-2.4c-1.1-0.4-2.4-0.2-3.4-0.4
	c-1.3-0.4-2.8-0.6-3.2-1.5c-0.4-0.6,0.9-2.2,1.5-3.7c-0.4-0.6-1.7-1.7-2.2-3c-1.3-3.4,1.3-6.5,5.2-6.7c2.8-0.2,5.6,0,8.2,0.2
	C229.5,299.9,229.9,300.7,230.5,301.4z M224.3,304.8c0-2.2-1.1-3.2-3-3c-2.2,0-2.8,1.3-2.8,3.2s1.1,3,3.2,3
	C223.6,307.8,224.3,306.5,224.3,304.8z M191.1,360.4c-2.4-0.4-3.9-1.1-5.6-1.1s-3.2,0.6-3.7,2.6c-0.2,2.2,1.1,3,2.8,3.4
	c1.1,0.2,2.4,0.4,3.4,0.9c3,1.1,4.7,3,4.5,5.8c0,2.6-2.2,5.2-4.7,6c-3.2,1.1-6.9,0.4-10.8-1.7c0.2-0.9,0.6-1.5,0.9-2.4
	c2.2,0.6,4.3,1.3,6.5,1.5c1.9,0.2,3.9-0.4,4.1-3c0.2-2.4-1.3-3.2-3.2-3.7c-1.3-0.2-2.4-0.6-3.7-0.9c-2.4-0.6-3.9-2.4-3.7-4.5
	c0.2-1.9,1.1-4.1,2.4-5.4c1.9-2.2,7.8-2.2,10.1-0.4C190.9,358.1,190.7,359.4,191.1,360.4z M309,358.5c-0.4,0.9-0.6,1.3-1.1,1.9
	c-0.4,0-0.6,0-0.9,0c-1.5-0.4-3.2-1.1-4.7-0.9c-1.1,0.2-2.4,1.7-2.8,2.8c-0.2,0.6,1.3,1.9,2.4,2.6c0.9,0.6,2.2,0.6,3.4,0.9
	c3.2,0.9,5,2.8,5,5.6c0,3-1.9,5.4-5,6.5c-3.2,0.9-6.7,0.4-10.3-1.7c0.2-0.6,0.6-1.5,0.9-2.2c2.2,0.6,4.1,1.3,6.3,1.5
	c1.9,0.2,3.9-0.2,4.3-2.8s-1.1-3.4-3.2-3.9c-0.9-0.2-1.5-0.4-2.4-0.4c-3.2-0.6-5-2.6-5.2-5.4c0-3,1.7-5.6,5-6.3
	C303,356.1,306.4,356.8,309,358.5z M305.3,305c0,3.4,0,6.9,0,10.8c-1.1,0-1.9,0-3,0c0-6.9,0-13.8,0-20.5c0-0.4,0.9-0.9,1.5-1.5
	c0.4,0.4,1.3,1.1,1.3,1.5c0.2,2.6,0,5.2,0,8.2c4.5-2.6,5-9.5,10.8-9.9c0.2,0.2,0.4,0.4,0.6,0.6c-1.9,2.6-3.9,5.2-5.8,7.5
	c-1.5,1.7-1.7,3-0.2,5c2.4,2.8,4.3,5.8,6.5,8.8c-3.4,0.9-3.4,0.9-5-1.7c-1.9-3-3.9-6-6-9.1C305.8,305,305.6,305,305.3,305z
	 M84.6,304.4c2.2,0,4.5,0,6.9,0c0,3,0.2,5.8,0,8.6c0,0.9-0.9,1.9-1.7,2.4c-6.9,3-13.6-0.9-14-8.2c-0.2-2.2-0.2-4.5,0.4-6.7
	c1.7-6.7,8.8-8.8,14.7-4.7c-0.4,1.5-1.1,1.9-2.6,1.1c-4.5-1.9-8-0.4-8.8,4.3c-0.4,2.8-0.4,5.8,0.2,8.6c0.2,1.5,1.9,3.2,3.4,3.7
	c1.5,0.6,4.3,0.6,5-0.4c0.9-1.3,0.6-3.7,0.4-5.4c0-0.4-1.5-0.6-2.2-0.9c-0.9-0.4-1.5-0.9-2.4-1.3C84.2,305,84.4,304.8,84.6,304.4z
	 M285.9,300.7c0-2.8,0-5.4,0-8c2.2-0.4,3,0.2,3,2.4c0,6.9,0,13.6,0,20.5c-2.4,0.2-5,0.6-7.3,0.6c-2.6,0-5-1.7-5.2-4.3
	c-0.4-2.6-0.4-5.4,0.2-8C277.5,299.9,280.8,299,285.9,300.7z M285.9,307.6L285.9,307.6c0-0.6,0-1.3,0-1.9c0.2-2.2-0.4-3.4-2.8-3.9
	c-2.4-0.2-3.7,0.9-4.1,3c-0.2,1.9-0.2,4.1,0,6.3c0.2,1.9,1.7,3,3.9,2.6c1.9-0.2,3.2-1.3,3-3.4C285.9,309.6,285.9,308.7,285.9,307.6z
	 M174.7,315.4c-2.4,0.2-4.5,0.6-6.7,0.9c-0.9,0-1.9-0.2-2.8-0.6c-3.4-1.5-5-7.3-3-11.9c1.5-3.7,4.5-4.7,8.8-3.2c0.2,0,0.4,0,0.9,0
	c0-1.3,0-2.6,0-4.1c0-1.3,0-2.6,0-4.1c1.1,0.2,1.9,0.4,2.8,0.6C174.7,300.7,174.7,308.3,174.7,315.4z M171.9,308.1L171.9,308.1
	c0-0.6,0-1.5,0-2.2c0.2-2.2-0.6-3.4-2.8-3.9c-2.2-0.2-3.7,0.9-3.9,2.8c-0.4,1.7-0.4,3.4-0.2,5.2c0.2,2.8,1.7,4.1,3.9,3.9
	c2.4-0.2,3.2-1.5,3.2-4.3C171.9,309.1,171.9,308.5,171.9,308.1z M30.5,349.2c-0.2,1.7-1.1,2.2-2.8,1.7c-0.9-0.2-2.8,0.6-3,1.3
	c-0.4,1.5-0.2,3.2-0.2,4.7c0,0.2,1.1,0.4,1.7,0.4c0.9,0,1.9,0,3,0c-0.2,3.9-3.4,1.7-5,3c0,5.6,0,11.4,0,17.5c-1.3,0-2.2,0.2-3.7,0.2
	c0-1.1-0.2-2.2-0.2-3.2c0-3.9,0-7.8,0-11.9c0-1.3,0.6-2.8-1.3-3.4c-0.2,0,0-1.3,0.2-2.2c0.2-1.1,1.1-1.9,1.3-2.8
	C20.6,348.8,24.9,346.2,30.5,349.2z M325.2,349.7c1.3,0,2.2,0,3.4,0c0,8.2,0,16.6,0,25c3.7,0,6.9,0,10.3,0c0.6,2.4-0.2,3.2-2.4,3.2
	c-3.7-0.2-7.3,0-11.4,0C325.2,368.4,325.2,359.4,325.2,349.7z M79.6,348.6c1.1-0.2,2.2-0.4,3.4-0.6c0,1.5,0.2,2.6,0.2,3.7
	c0,6.5,0,12.7,0,19.2c0,2.2-0.4,4.3,1.9,5.4c0.2,0.2,0.2,1.1,0.4,1.5c-3.4,1.3-5.8,0-6-3.2C79.4,365.8,79.6,357.4,79.6,348.6z
	 M204.2,377.7c-3.4,1.5-5.8,0.2-5.8-3.4c-0.2-5.6,0-11.2,0-16.8c0-2.8,0-5.6,0-8.8c0.6-0.2,1.7-0.4,3.2-0.9c0.2,1.3,0.4,2.4,0.4,3.4
	c0,6.5,0,12.7,0,19.2c0,2.2-0.4,4.3,1.9,5.8C204.2,376.6,204.2,377.3,204.2,377.7z M191.5,316.5c-0.6-0.6-1.1-1.3-1.7-1.7
	c-0.9,0.4-1.5,1.1-2.4,1.5c-3.7,1.5-6.9-0.4-7.1-4.5c0-3.2,0-6.5,0-9.7c0-2.2,0-2.2,2.8-2.2c0,3.7,0,7.3,0,10.8
	c0,1.9,0.4,3.4,2.6,3.4s3.7-1.1,3.9-3.4c0.2-2.8,0-5.6,0-8.4c0-1.9,0-1.9,2.4-2.4c0.2,5.2,0.6,10.3,0.9,15.3
	C193,315.6,192.2,316,191.5,316.5z M369.8,299.9c0,5,0,10.1,0,15.3c0,0.4-0.9,0.6-1.3,1.1c-0.6-0.6-1.3-1.1-1.7-1.5
	c-1.1,0.4-1.9,1.1-3,1.5c-3.4,1.1-6.3-0.9-6.5-4.3c0-3.4,0-6.7,0-10.1c0-1.7,0.9-2.4,2.8-1.9c0,3.4,0,6.9,0,10.3
	c0,1.9,0,4.1,2.8,4.1c2.2,0,3.7-1.7,3.7-4.3c0-2.6,0-5.2,0-7.8C366.4,300.3,367.2,299.4,369.8,299.9z M210.1,316c-0.9,0-1.5,0-2.4,0
	c-0.2-0.2-0.2-0.4-0.2-0.6c0-3.2,0-6.5,0-9.5c0-1.7,0.2-3.4-2.4-3.4c-2.2,0-3.9,1.5-3.9,3.9c0,3.2,0,6.5,0,9.7
	c-1.9,0.6-2.8,0.2-2.8-1.7c0-4.1-0.2-8.2-0.2-12.3c0-0.6,0.6-1.7,0.9-1.7c0.9,0.2,1.7,0.6,3,1.1c0.2,0,0.6-0.4,1.3-0.9
	c3.9-1.9,6.9,0,6.9,4.1c0,3.4,0,6.9,0,10.3C210.3,315.2,210.3,315.4,210.1,316z M261.8,301.4c0.9-0.4,1.5-1.1,2.4-1.3
	c3.2-1.3,6.3,0.4,6.3,3.9c0,3.2,0,6.5,0,9.9c0,1.7-0.6,2.6-2.8,1.9c0-3.4,0-6.9,0-10.3c0-1.7,0-3.4-2.4-3.2
	c-1.9,0.2-3.9,0.6-4.1,3.2c0,3.4,0,6.9,0,10.6c-1.1,0-1.7,0-2.8,0c0-5.2,0-10.3,0-16c1.1,0.2,2.2,0.4,3,0.6
	C261.6,300.9,261.6,301.2,261.8,301.4z M332.1,299.9c0.2,5.2,0.6,10.1,0.9,15.1c0,0.4-0.6,1.1-1.3,1.9c-0.9-1.1-1.3-1.5-1.9-2.4
	c-0.6,0.4-1.3,0.9-1.9,1.1c-3.9,1.7-7.3-0.2-7.3-4.5c0-3.2,0-6.5,0-9.5c0-1.7,0.6-2.6,2.8-1.9c0,3.2,0,6.7,0,9.9
	c0,1.9-0.2,4.3,2.8,4.3c2.2,0,3.7-1.7,3.7-4.5c0-2.6,0-5.2,0-7.8C329.5,300.3,330.1,299.4,332.1,299.9z M243.5,300.1
	c0,3.4,0,6.9,0,10.3c0,1.9,0.2,3.9,2.6,4.1c1.9,0.2,3.9-1.7,3.9-4.1c0-2.8,0-5.4,0-8.2c0-1.7,0.6-2.6,2.4-2.2
	c0.2,5.2,0.6,10.3,0.6,15.5c0,0.4-0.6,0.6-1.3,1.1c-0.6-0.6-1.1-1.3-1.7-1.7c-0.9,0.4-1.5,1.1-2.4,1.3c-3.9,1.7-7.1-0.4-7.1-4.5
	c0-3.2,0-6.5,0-9.5C240.7,300.1,241.3,299.4,243.5,300.1z M66.1,357c-0.4,1.9-0.4,3.4-2.8,3.7c-2.6,0.2-3.4,2.4-3.4,4.7
	c0,4.1,0,8.2,0,12.3c-1.3,0-2.4,0-3.7,0c0-6.7,0-13.4,0-20.3c0.6-0.2,1.5-0.4,2.8-0.6c0.4,0.9,0.6,1.7,1.3,2.8
	C61.8,358.3,63.3,356.1,66.1,357z M-87,359.4c2.2-1.1,4.1-1.9,6-3c0.2,2.6-0.2,4.1-2.8,4.3c-2.4,0.2-3.2,2.4-3.2,4.7
	c0,4.1,0,8.2,0,12.3c-1.3,0-2.2,0-3.7,0c0-6.7,0-13.1,0-20.3c0.4-0.2,1.5-0.4,2.8-0.6C-87.4,357.9-87.2,358.7-87,359.4z
	 M-145.6,377.9c-1.3,0-2.4,0-3.7,0c0-6.7,0-13.1,0-20.3c0.6-0.2,1.5-0.4,2.8-0.6c0.4,1.1,0.6,1.7,0.9,2.4c2.2-1.1,4.1-1.9,6-3
	c0,2.4,0.2,4.1-2.6,4.3c-2.2,0.2-3.4,1.9-3.4,4.3c0,3.2,0,6.5,0,9.9C-145.6,375.7-145.6,376.6-145.6,377.9z M368.3,377.9
	c-1.1,0-1.9,0-3.4,0c0-6.7,0-13.4,0-20.3c0.4-0.2,1.5-0.4,2.6-0.6c0.4,0.9,0.6,1.7,1.1,2.4c1.9-0.9,3.9-1.9,6.5-3.2
	c-0.2,2.8-0.4,4.3-2.8,4.5c-2.6,0.2-3.4,2.4-3.4,4.7c0,3,0,6.3,0,9.3C368.5,375.7,368.5,376.8,368.3,377.9z M157.5,316
	c-1.9,0.9-3.9,0-3.9-2.6c-0.2-6.5-0.2-12.7,0-19.2c0-0.6,1.3-1.3,2.4-2.4c0.2,1.9,0.4,2.8,0.4,3.9c0,4.3,0,8.8,0,13.1
	C156.6,311.1,157.3,313.4,157.5,316z M354.3,300.3c-1.1,0.9-1.7,1.5-2.2,1.5c-2.2,0-2.2,1.3-2.2,2.8c0,2.2,0,4.3,0,6.5
	c0,1.7,0.4,3.2,2.6,3.2c0.4,0,0.9,0.4,1.1,0.6c-0.4,0.4-0.6,0.9-1.1,1.1c-2.8,1.1-5.4-0.6-5.4-3.7c0-2.8,0-5.4,0-8.2
	c0-1.1,0.4-2.2-1.3-2.8c-1.3-0.4-0.9-1.3,1.3-2.2c0.2-1.7-0.6-4.3,2.8-4.1c0,1.3,0,2.6,0,4.1C351.3,299.9,352.3,300.1,354.3,300.3z
	 M341.1,292.8c0,5.6,0,11.2,0,16.8c0,1.9,0.6,4.1,1.1,6.5c-1.7,1.1-3.7,0.2-3.9-2.8c0-4.1,0-8,0-12.1c0-1.9,0-4.1-0.2-6
	C337.9,293.2,338.5,292.5,341.1,292.8z M378.2,315.8c-2.2,0.6-2.8-0.2-2.8-1.9c0-4.1-0.2-8.2-0.2-12.3c0-0.6,0.6-1.7,0.9-1.5
	c0.9,0.2,1.7,0.6,2.8,1.1c0.9-0.4,2.4-1.1,3.9-1.7c0.2,0.2,0.4,0.6,0.6,0.9c-0.6,0.6-1.3,1.7-2.2,1.9c-2.4,0.6-3.2,2.2-3.2,4.5
	C378.2,309.6,378.2,312.6,378.2,315.8z M147.6,299.9c0,5.2,0,10.6,0,16c-0.9,0-1.5,0.2-2.4,0.2c-0.2-0.2-0.4-0.4-0.4-0.6
	c0-4.5,0-9.1-0.2-13.6C144.7,299.9,145.8,299.6,147.6,299.9z M48.4,352.2c-1.5,1.1-2.4,2.4-3.2,2.4c-0.6,0-2.2-1.5-2.2-2.2
	c0.2-0.9,1.3-2.2,2.2-2.4C46,349.7,47.1,351,48.4,352.2z M36.7,355.7c-1.1-1.7-2.2-2.6-2.2-3.7c0-0.9,1.3-1.5,1.9-2.4
	c0.9,0.9,1.9,1.5,2.2,2.6C38.9,352.9,37.8,354,36.7,355.7z M146.5,292.1c0.9,1.3,1.9,1.9,1.9,2.6c-0.2,0.9-1.3,1.3-1.9,2.2
	c-0.6-0.6-1.7-1.3-1.7-2.2C144.3,294,145.4,293.4,146.5,292.1z"/>
</svg>
