<?xml version="1.0" encoding="utf-8"?>
<!-- Generator: Adobe Illustrator 19.0.0, SVG Export Plug-In . SVG Version: 6.00 Build 0)  -->
<svg version="1.1" id="Ebene_1" xmlns="http://www.w3.org/2000/svg" xmlns:xlink="http://www.w3.org/1999/xlink" x="0px" y="0px"
	 viewBox="0 0 612 792" style="enable-background:new 0 0 612 792;" xml:space="preserve">
<g>
	<path d="M577.4,230.6c-1.7-4-5.5-6-9.7-5.3c-3.8,0.7-6.8,4.3-6.8,8.2c-0.1,4.1,2.8,7.7,6.6,8.5c4.2,0.9,8.1-1.2,9.8-5.1
		c0.1-0.3,0.1-0.8,0.6-0.9c0-1.6,0-3.2,0-4.8C577.3,231.4,577.5,230.9,577.4,230.6z M569.4,241.2c-4,0-7.3-3.3-7.4-7.3
		c0-4.2,3.3-7.6,7.5-7.6c4,0,7.3,3.4,7.3,7.4C576.8,237.8,573.4,241.2,569.4,241.2z"/>
	<path d="M453,408c-1,0.5-1.7-0.3-2.6-0.2c-1.7,0.2-2.7,1.8-2.4,3.8c0.3,1.9,1.7,2.7,3.9,2.1c0.1-0.1,0.3-0.4,0.4-0.2
		c0.1,0.1,0,0.4,0,0.7c-0.8,1.4-1.6,1.6-2.8,0.7c-0.4-0.3-0.7-0.6-1.1-0.2c-0.3,0.4,0.1,0.7,0.4,1.1c0.2,0.2,0.5,0.2,0.5,0.5
		c1,0,1.9,0,2.9,0c0.5-0.7,1.3-1.2,1.3-2.2c0-1.8,0-3.6,0-5.4C453.4,408.3,453.4,407.8,453,408z M450.7,413c-1.3,0-1.6-1.1-1.6-2.1
		c0-1.1,0.3-2.1,1.6-2.1c1.3,0,1.5,1,1.7,2C452.2,411.9,451.9,413,450.7,413z"/>
	<path d="M396.6,291.3c0-21.4,0-42.9,0-64.3c0-1.3-0.3-1.7-1.7-1.7c-2.5,0.1-5,0-7.4,0c-0.5,0-1.1,0.2-1.4-0.4
		c-0.6-1.1-1.2-2.1-1.7-3.2c-0.5-1-0.4-1.8,1-2c0.9-0.1,1.1-0.6,0.8-1.5c-1.2-2.9-2.9-5.3-5.5-7.1c-1.7-1.1-3.6-1.7-5.7-2.3
		c2.2-1.1,3.6-2.8,5.3-4.2c0.6-0.5,1.3-1.1,2.1-1.3c1.2-0.4,1.4-1.1,1.3-2.1c-0.2-2.1-1-4.1-0.3-6.2c0.1-0.3-0.2-0.6-0.4-0.8
		c-0.8-0.9-1.6-1.9-2.3-2.8c-0.5-0.7-1.2-1.1-2.1-1c-1.5,0.1-3.1,0.1-4.6,0c-1.4-0.1-2.5-0.3-3,1.4c-0.1,0.4-0.6,0.7-1,0.9
		c-3.1,1.5-3.6,4.1-3.4,7.2c0.2,2.5,0.8,4.9,1.5,7.3c0.7,2.4,0.7,2.4-1.7,3.1c-1,0.3-1.9,0.6-2.9,0.8c-0.6,0.2-1,0.5-1.3,1
		c-1.9,4-3.8,8-3.8,12.6c0,0.7-0.2,0.9-0.9,0.9c-1.5,0-3,0-4.4,0c-0.6,0-0.8-0.2-0.6-0.8c1.1-2.7,0.9-5.3,0-8
		c-0.2-0.6,0-1.1,0.5-1.6c1.6-1.6,1.6-1.6,0.2-3.5c-0.1-0.2-0.2-0.4-0.3-0.5c-2.1-3.2-4.4-6.3-8.5-7.3c-1.5-0.4-2.1-1.7-2.2-3.3
		c-0.2-1.9,0.7-3.5,1.6-5c1.2-2.1,2-4.3,1.4-6.8c-0.8-3.3-4.4-5.7-8.5-5.8c-2.7-0.1-5.1,0.6-6.3,3.1c-0.7,1.3-1.6,2-2.8,2.4
		c-0.6,0.2-1.2,0.4-1.7,0.7c-3.9,1.9-7.7,3.9-10.3,7.5c-2,2.8-1.3,4.9,1.7,6.3c0.6,0.3,1.2,0.5,1.7,0.7c4.6,2.1,7.8,6.7,7.3,11.1
		c-0.1,1.3-0.2,2.5,0.2,3.7c0.6,1.9,0.5,3.8,0.5,5.7c0,0.9-0.2,1.3-1.2,1.2c-2.7,0-5.5,0-8.2,0c-0.5,0-0.9-0.1-1.3-0.5
		c-1.1-1.3-2.3-2.6-3.4-4c-1.3-1.7-1.9-3.6-1.8-5.7c0-0.7,0.2-1.1,0.9-1.5c1.8-1,2.2-2,1.5-3.9c-0.8-2.5-2.6-4.1-4.7-5.3
		c-1.7-1.1-3.5-2.1-5.4-3.2c2.4-1.7,3.8-4.1,5.3-6.4c0.4-0.6,0.8-1.3,1.4-1.7c1.6-1,1.4-2.3,1-3.8c-1.3-5.1-3.5-7.1-8.8-7.3
		c-1,0-1.1-0.5-1.1-1.3c0-0.6,0.3-1.3-0.6-1.6c-1.2-0.3-2.5-0.5-3.8-0.3c-0.8,0.2-1.2,0.6-0.8,1.5c0.4,0.7,0.6,1.4,0.9,2.2
		c0.1,0.2,0,0.6-0.3,0.7c-0.4,0.2-0.4-0.2-0.5-0.4c-0.5-1-1.2-1.6-2.3-2.1c-0.3,1-0.6,1.9-0.7,2.9c-0.1,0.7-0.2,1.5,0.9,1.6
		c0.4,0,0.6,0.3,0.6,0.6c0,0.4-0.3,0.5-0.6,0.6c-0.6,0.2-1.2,0.5-0.3,1.1c1.1,0.8,1.1,2,0.7,3.1c-0.5,1.4-1.5,2.2-3,2.4
		c-0.5,0.1-1-0.3-1.5,0.1c-0.1,0.8,1.3,0.6,1,1.2c-0.4,0.9-1.9,1.1-1.5,2.6c0,0-0.3,0.1-0.4,0.1c-0.3,0.1-0.7-0.5-0.8,0.2
		c-0.1,0.5,0.1,0.9,0.6,1.1c0.4,0.2,0.9,0.4,1.3,0.5c0.7,0.2,1.6,0.4,1.7,1.2c0.1,0.7-0.7,1-1.2,1.3c-2.7,2.2-4.7,4.8-5.5,8.2
		c-0.3,1.2-0.8,2.9,0,3.7c1.2,1.2,1,3,2.2,4.1c0.2,0.2,0.2,0.3,0,0.5c-0.7,0.7-0.3,1.5-0.3,2.2c0.1,0.7,0.3,1.5-0.6,2.1
		c-1.2-3.5-3.1-6.6-5.5-9.3c-1.3-1.5-2-2.8-0.6-4.6c0.6-0.8,0.5-1.6-0.5-2.2c-1.7-1.1-3-2.6-4.5-3.9c-3-2.6-6.4-4-10.4-3.6
		c-0.4,0-0.9,0.2-0.8-0.4c0.1-1.3-0.9-1.5-1.8-1.8c-1.2-0.4-1.4-1.2-0.7-2.2c1-1.4,1-2.9,0.7-4.5c-0.4-2.3-1.4-4.3-2.4-6.3
		c-0.8-1.7-2-2.4-3.9-2.6c-4-0.5-7.3,0.8-8.8,3.6c-2,3.9-0.1,10.6,3.6,12.8c0.6,0.4,1.3,0.7,1.9,1.2c1.6,1.2,1.8,2.8,0.7,4.6
		c-0.7,1.1-1.7,1.8-2.6,2.7c-1.9,1.8-3.5,3.7-2.7,6.6c0.1,0.4-0.1,0.7-0.4,1c-1.5,1.7-0.8,3.8-1.1,5.8c-0.1,0.4,0.4,0.6,0.8,0.7
		c2.2,0.4,3.3,1.7,3.2,4c0,0.5,0.5,1.4-0.3,1.4c-1,0.1-2.3,0.7-2.9-0.5c-1.1-2.6-2.8-4.9-4-7.5c-0.6-1.2-0.6-2,0.9-2.5
		c1.6-0.5,1.6-1,0.7-2.5c-1-1.8-2.1-3.5-3.1-5.3c-2.5-4.5-5.5-8.1-11.1-8.5c-0.6-0.1-1-1-1-1c1-0.7,0.9-2.3,2.3-2.8
		c0.1,0.9-0.5,2.1,0.5,2.4c1.3,0.5,2.7,0.6,3.9-0.3c0.5-0.4,0.7-0.7,0.2-1.2c-0.8-1-1.3-2.3-1.8-3.5c-0.1-0.3-0.3-0.7,0-1
		c0.9-0.9,0.7-2.9-0.6-3.4c-1.2-0.5-1.7-1.4-2.1-2.4c-0.4-0.8-0.7-1.6-1.1-2.5c-0.4-1-1.1-1.4-2.2-1.4c-1.6,0.1-3.2,0.1-4.8,0
		c-1.2-0.1-2,0.4-2.7,1.3c-1.5,1.8-2.1,4-2.8,6.3c-0.1-0.4-0.2-0.9-0.5-0.9c-0.5,0-0.4,0.4-0.4,0.7c0,1.7-0.6,3.2-1.3,4.7
		c-0.4,1.1-0.8,2.2-0.4,3.4c0.4,1.1,0.8,2.2-1.1,2.4c1.1,0.9,2,1,3.1,0.5c0.7-0.3,1.5-0.7,2.2-0.8c1.2-0.2,1.3-1,0.9-1.8
		c-0.3-0.6-0.7-1-1.1-1.5c-0.6-0.9-1-1.9-0.2-3.2c0.3,1.3,1,2.1,1.8,2.8c0.8,0.7,1.4,1.6,1.5,2.7c0,0.4,0.2,0.9-0.5,1.2
		c-2,0.7-3.7,2.1-5.6,2.9c-1.3,0.6-1.8,1.4-2.2,2.6c-0.6,2.1-1.8,3.9-3.6,5.4c-0.5-1.2-1-2.3-1.5-3.4c-1.5-3.3-3.7-6-7.4-6.8
		c-1.9-0.4-2.5-1.7-3.3-3c-0.4-0.6-0.4-1.6,0.3-2.3c1-0.9,1.2-2.2,1.1-3.5c-0.1-1.5-0.3-2.9-0.5-4.4c-0.1-0.9-0.5-1.8,1-2
		c0.7-0.1,1.2-0.7,1.1-1.5c-0.1-0.9-0.8-0.4-1.3-0.4c-1.1-0.1-1-0.6-0.5-1.3c0.3-0.4,0.8-0.6,1.1-0.9c0.3-0.4,0.5-0.8,0.3-1.3
		c-0.1-0.4-0.4-0.6-0.9-0.6c-0.6,0-0.8,0.4-1,0.9c-0.3,0.7-0.4,1.5-1.4,1.4c-1.1-0.1-0.5-1.1-0.9-1.6c0-0.1-0.2-0.1-0.4-0.1
		c-0.2,0.4-0.2,0.9-0.5,1.3c-0.5,0.7-1.1,1.6-1.9,1.3c-1.5-0.5-2.9-0.3-4.4-0.1c-0.7,0.1-1.4,0.1-2.1,0.1c-0.3,0-0.7,0-0.7-0.4
		c0-0.4,0.4-0.4,0.7-0.5c0.2,0,0.4,0,0.6,0c0.4,0,0.9,0.1,1.1-0.4c0.2-0.5-0.2-0.9-0.6-1.2c-0.4-0.3-0.9-0.5-1.3-0.1
		c-0.4,0.4-0.8,0.9-1.2,1.4c-0.9-1.4-2.1-1.7-3.3-0.8c-0.3,0.2-0.7,0.6-0.5,1.1c0.2,0.4,0.5,0.6,1,0.5c0.7-0.1,1.8-0.5,1.9,0.3
		c0,0.8-1.2,0.2-1.8,0.4c-0.4,0.1-0.9-0.1-1.1,0.4c-0.3,0.6,0.2,0.8,0.6,1.2c1.3,1.4,1.7,3,0.8,4.6c-0.8,1.6-1.3,2.8,0.8,3.7
		c0.2,0.1,0.3,0.3,0.4,0.5c1.4,1.8,2.1,4,3.1,6c0.4,0.7-0.1,1-0.5,1.3c-1,0.7-2.1,1.4-3.2,2c-0.7,0.4-0.8,0.8-0.9,1.5
		c-0.2,2-0.4,4.2-1.6,5.9c-1.4,2-2.1,3.9-2,6.5c0.1,3.2-1.2,6.2-2,9.2c-0.2,0.8-0.8,0.7-1.3,0.7c-1.7,0-3.5-0.1-5.2,0
		c-1.3,0.1-1.8-0.3-1.9-1.5c-0.1-0.9-0.5-1.7-0.9-2.5c-1.1-2.7-2.7-5.2-2.8-8.1c0-0.5-0.2-1.2,0.2-1.5c0.5-0.4,1.1,0.1,1.6,0.3
		c1.1,0.6,2.2,1.3,3.4,1.6c0.6,0.1,1.2,0.3,1.6-0.5c1.2-2.6,3-5.3,2.7-8.2c-0.4-3.4,1.4-5.1,3.5-6.9c1.4-1.2,2.5-2.3,1.2-4.2
		c-0.2-0.4,0.2-1.1-0.4-1.2c-0.7-0.2-0.9,0.6-1.1,1.1c-0.1,0.2-0.2,0.4-0.5,0.3c-0.4-0.6,0.3-1.3,0-2c-1.8,0-1.3,2.7-3,2.7
		c-0.4-0.5,0.5-1.4-0.3-1.5c-0.9-0.1-0.9,0.8-1.1,1.5c-0.6,1.9-0.9,3.9-1.3,5.9c-0.4,2-1,3.9-2.1,5.6c-0.6,0.9-1.2,1.2-2.1,0.3
		c-1.2-1.1-2.6-1.9-4-2.8c-2.1-1.2-4.1-2.5-6-4.1c-0.9-0.7-1.2-1.3,0.1-1.9c1.4-0.6,1.7-1.8,1.5-3.2c-0.4-3.2-1.7-6-3.2-8.8
		c-2-3.9-2-3.9-6.2-2.9c-4.9,1.2-8.1,5.9-7.4,10.8c0.1,0.4,0.1,0.9,0.4,1.2c1.8,1.3,3.1,3.1,4.9,4.4c0.7,0.5,2.3,0.2,2.2,1.5
		c-0.1,0.9-0.7,1.9-1.1,2.7c-0.4,0.8-0.9,1.5-1.4,2.3c-1.5,2.3-3.2,4.5-4.4,7.1c-1.2,2.8-1.5,5.5,0.2,8.3c0.8,1.4,1.7,1.6,3,1.2
		c0.9-0.3,1.9-0.4,2.8-0.5c2-0.1,1.1,1.5,1.3,2.4c0.2,1-0.2,1.3-1.2,1.3c-3.5,0-7.1-0.1-10.6,0c-1,0-1.2-0.4-1.2-1.3
		c0-3.3-0.3-6.6-1-9.9c-0.6-2.8-1.2-5.5-3.6-7.5c-1.6-1.3-2.5-3.2-3.1-5.2c-0.3-1,0-1.5,1-1.7c1.5-0.2,2.8-0.9,4.1-1.5
		c1.1-0.5,1.4-1.3,0.9-2.4c-0.4-1.1-1-2.1-1.1-3.3c-0.1-1.3-0.6-2-2-1.7c-1,0.2-1.4-0.2-1.6-1.3c-0.2-1.3-1-2.4-1.4-3.7
		c-0.2-0.5-0.6-0.6-1-0.7c-4.3-0.8-9.3,0.7-11.5,5c-1.3,2.5-1.2,4.9-0.1,7.5c0.9,2.3,2.7,2.6,4.8,2.7c0.9,0,2.4,0.2,2.5,1.2
		c0.1,1-1.3,1.5-2.1,1.8c-1.2,0.4-1.5,1.1-1.6,2.2c-0.2,2.6-1,5.1-1.6,7.5c-0.9,3.4-1.9,6.7-1.9,10.2c0,1.5-0.4,1.9-1.9,1.9
		c-19-0.1-38,0-57.1-0.1c-1.5,0-1.8,0.4-1.8,1.9c0,54.7,0,109.5,0,164.2c0,1.5,0.5,1.8,1.9,1.8c23.8,0,47.5,0,71.3,0
		c1.4,0,1.8-0.3,1.8-1.8c-0.1-15.6,0-31.2-0.1-46.8c0-1.4,0.2-1.9,1.8-1.9c77.5,0,155,0,232.5,0c1.6,0,1.9,0.5,1.9,2
		c-0.1,15.6,0,31.2-0.1,46.8c0,1.4,0.4,1.7,1.8,1.7c8-0.1,16.1-0.1,24.1,0c1.6,0,2-0.4,2-2C396.6,357.9,396.6,324.6,396.6,291.3z
		 M150,216.9c-1,0.1-0.6-0.7-0.7-0.8c-0.2-1.1,0-1.6,0.9-1.5c0.8,0.1,1.5,0.4,1.4,1.3C151.7,217,150.7,216.8,150,216.9z M138.5,255
		c0-1.1-0.3-1.6-1.4-1.4c-1.5,0.3-1.9-0.4-1.8-1.8c0.1-1.3,0.1-2.6,0-4c-0.1-1.1,0.4-1.3,1.4-1.3c2.5,0,5.1,0.1,7.6,0
		c1.3,0,1.6,0.4,1.4,1.5c-0.1,0.5,0,1,0,1.5c1.6-2,3.5-3,5.9-3.4c0.9-0.2,1.4,0,1.3,1.1c-0.1,1.8,0,3.6,0,5.4c0,0.7-0.2,1-1,1.1
		c-4.3,0.7-5.9,2.5-6,6.9c0,1.4,0.1,2.9,0,4.3c-0.1,1.1,0.2,1.6,1.4,1.4c1.5-0.3,1.9,0.4,1.8,1.8c-0.1,1.4-0.1,2.7,0,4.1
		c0,0.8-0.1,1.2-1,1.2c-4,0-8,0-12,0c-0.9,0-1.1-0.3-1.1-1.1c0-1.6,0.1-3.2,0-4.8c0-1,0.4-1.2,1.3-1.2c2.1,0,2.1,0,2.1-2.2
		C138.5,261,138.5,258,138.5,255z M124.4,238.6c1.5,0,3.4-0.7,4.4,0.3c0.9,0.9,0.1,2.8,0.3,4.3c0.2,1.6-0.4,2.1-1.9,1.8
		c-0.6-0.1-1.3,0-1.9,0c-3.8,0-3.8,0-3.8-3.8C121.4,238.6,121.4,238.6,124.4,238.6z M121.4,264.3c-0.1-3.1-0.1-6.1,0-9.2
		c0-1.3-0.3-1.7-1.6-1.5c-1.4,0.2-1.9-0.3-1.7-1.7c0.1-1.4,0.1-2.8,0-4.3c0-0.8,0.2-1.1,1.1-1.1c2.9,0,5.8,0.1,8.7,0
		c1,0,1.1,0.4,1.1,1.2c0,2.9,0,5.8,0,8.7c0,2.8,0,5.6,0,8.4c0,1.1,0.2,1.6,1.4,1.4c1.6-0.3,2.3,0.3,2.1,2c-0.1,1.3-0.1,2.6,0,4
		c0,0.8-0.2,1.1-1.1,1.1c-4.1,0-8.2,0-12.3,0c-0.8,0-1-0.3-1-1c0-1.5,0.1-3.1,0-4.6c-0.1-1.2,0.3-1.7,1.5-1.5
		C121.1,266.5,121.5,265.8,121.4,264.3z M106.2,286.6c-0.1,4-0.1,8,0,12c0,1-0.2,1.5-1.4,1.5c-2.3-0.1-4.5-0.1-6.8,0
		c-1,0-1.4-0.2-1.4-1.3c0.1-1.4,0-2.7,0-4.1c0-0.8-0.3-1.1-1.1-1.1c-3.4,0-6.8,0-10.1,0c-0.9,0-1.2,0.4-1.2,1.2c0,3.4,0,6.8,0,10.1
		c0,1,0.4,1.2,1.3,1.2c3.9,0,7.7,0,11.6,0c1.1,0,1.5,0.3,1.4,1.4c-0.1,1.5-0.1,3.1,0,4.6c0,1-0.3,1.3-1.3,1.3c-3.8,0-7.6,0-11.4,0
		c-1.2,0-1.7,0.3-1.6,1.6c0.1,3.3,0.1,6.7,0,10c0,1,0.2,1.5,1.3,1.4c1-0.1,2,0,3,0c0.8,0,1.1,0.3,1.1,1.1c0,2-0.1,3.9,0,5.9
		c0,0.9-0.4,1.1-1.1,1.1c-6,0-11.9,0-17.9,0c-0.9,0-1.2-0.3-1.2-1.2c0.1-1.8,0.1-3.7,0-5.5c0-0.9,0.3-1.4,1.2-1.3
		c0.8,0.1,1.6-0.1,2.4,0c1.4,0.2,1.8-0.3,1.8-1.7c-0.1-7.6,0-15.2,0-22.8c0-2.4,0-4.9,0-7.3c0-1-0.3-1.5-1.3-1.4c-0.1,0-0.2,0-0.3,0
		c-3.7,0-3.8,0-3.7-3.7c0-1.4-0.7-3.2,0.4-4.1c0.9-0.8,2.6-0.2,4-0.2c4.8,0,9.5,0,14.3,0c5.5,0,11,0,16.5,0
		C105.8,285,106.3,285.2,106.2,286.6z M104.8,273.3c-1.8-0.1-3.7-0.1-5.5,0c-0.9,0-1.2-0.3-1.4-1.2c-1.5-6.5-3.2-12.9-4.8-19.5
		c-1,1.2-1,2.6-1.3,3.8c-1.4,5.2-2.7,10.5-3.9,15.8c-0.2,1-0.7,1.1-1.5,1.1c-1.7,0-3.5-0.1-5.2,0c-1.1,0.1-1.6-0.2-1.8-1.3
		c-1.8-6.7-3.6-13.4-5.4-20.1c-0.5-1.7-0.9-3.4-1.3-5c-0.2-1-0.9-1-1.7-1c-1.1,0.1-1.5-0.3-1.4-1.4c0.1-1.5,0.1-3.1,0-4.6
		c0-0.9,0.3-1.2,1.2-1.2c4,0,7.9,0,11.9,0c0.8,0,1.1,0.3,1.1,1.1c0,1.5-0.1,3.1,0,4.6c0.1,1.1-0.3,1.7-1.5,1.5
		c-1-0.1-1.4,0.1-1.1,1.3c1.1,4,2,8,2.9,12c0.1,0,0.2-0.1,0.3-0.1c1.2-5,2.3-9.9,3.5-14.9c0.1-0.5,0.2-1,0.4-1.5
		c0.4-1.3,0.1-3,1.1-3.7c1.1-0.8,2.8-0.2,4.2-0.2c3.3,0,3.2,0,3.9,3.2c1.3,5.7,2.6,11.4,3.9,17.1c0.1,0.3,0.2,0.5,0.4,1
		c1.1-4.6,2.2-8.9,3.2-13.2c0.2-1-0.5-0.9-1-0.8c-1.4,0.2-1.9-0.4-1.7-1.8c0.1-1.4,0.1-2.7,0-4.1c-0.1-1,0.3-1.4,1.3-1.4
		c3.9,0.1,7.7,0,11.6,0c0.9,0,1.3,0.3,1.3,1.3c-0.1,1.6-0.1,3.2,0,4.8c0,1-0.4,1.4-1.3,1.2c-1.2-0.2-1.6,0.3-1.9,1.5
		c-2.2,8.3-4.5,16.6-6.7,24.9C106.1,273.1,105.7,273.3,104.8,273.3z M148.6,309.1c0,5.2,0,10.4,0,15.5c0,1.3,0.3,1.7,1.7,1.7
		c2.9-0.1,2.9,0,2.9,2.9c0,1.3,0,2.6,0,4c0,0.8-0.2,1.2-1,1.2c-3.7,0-7.5,0-11.2,0c-0.9,0-1.1-0.4-1.1-1.2c0-1,0-2,0-3.2
		c-1.2,1.1-2.1,2.2-3.2,2.9c-5.3,3.5-13.2,3.2-18.9-0.8c-6.3-4.5-9.2-10.8-8.2-18.5c1-7.8,5.5-13.4,13.1-16
		c6.4-2.2,12.4-1.3,17.3,4.7c0-1.5,0-2.6,0-3.7c0-0.8,0.2-1.1,1.1-1.1c3.7,0,7.5,0,11.2,0c0.8,0,1,0.3,1,1c0,2,0,4,0,6
		c0,0.8-0.3,1.1-1.1,1.1c-1.1,0-2.6-0.6-3.3,0.3C148.3,306.6,148.6,308,148.6,309.1z M321.6,200.2c-0.5,0-1-0.2-0.7-0.9
		c0.7-2,1.4-4.1,2.9-5.7c1-1.1,2.4-1.7,3.9-1.8c0.5,0,0.9,0.2,1.1,0.7c1.4,3.1,2.8,6.2,4.2,9.3c0.1,0.2,0.2,0.6,0.1,0.8
		c-0.2,0.4-0.5,0.1-0.8,0C328.7,201.7,325.3,200.5,321.6,200.2z M289.7,224.1c0.5-2.4,1.4-4.6,3.2-6.4c0,2.4-0.3,4.7-0.9,7
		c-0.3,1.2-1.3,0.6-2,0.6C289.1,225.2,289.7,224.5,289.7,224.1z M284.2,223.8c0.4,0.9,0.4,1.6-1,1.5c-1.8-0.1-3.6,0-5.4,0
		c-0.6,0-1.1-0.1-1.2-0.9c-0.7-3.2-1.4-6.4-2.2-9.9C278.7,216.8,282.4,219.3,284.2,223.8z M255.1,220.1c0.3-0.3,0.2-1.1,0.2-1.9
		c0.8,2.2,1,4.3,1.3,6.5c0,0.4-0.1,0.6-0.5,0.6c-0.5,0-0.7-0.3-0.8-0.8C254.9,223.1,253.7,221.7,255.1,220.1z M250.4,249.2
		c3.8-3.4,11.8-5,16.8,0.3c0-0.9-0.1-1.5,0-2c0.2-1.5-0.1-2.5-1.9-2.1c-0.8,0.1-1-0.3-1-1c0-1.5,0-3.1,0-4.6c0-0.8,0.2-1.2,1.1-1.1
		c2.7,0,5.5,0.1,8.2,0c1.3,0,1.1,0.8,1.1,1.6c0,8,0,16.1,0,24.1c0,1.4,0.2,2.2,1.9,1.9c0.8-0.2,1.1,0.3,1.1,1.1c0,1.6-0.1,3.2,0,4.8
		c0,1-0.3,1.3-1.3,1.2c-2.6-0.1-5.2-0.1-7.8,0c-1.3,0-1.9-0.3-1.7-1.6c0-0.2,0-0.5,0-1.1c-3.2,3-6.7,3.6-10.7,2.8
		c-3.2-0.7-5.8-2.3-7.8-5C244.4,262.7,245.3,253.7,250.4,249.2z M237,214.8c2.3,2.1,7.2,8.5,7.9,10.5c-1.8,0-3.5,0-5.2,0
		c-0.4,0-0.7-0.1-0.9-0.5c-1-2.7-2.3-5.2-2.2-8.2C236.5,216,236.6,215.4,237,214.8z M212.1,219.1c0.2-1.5,0.5-2.9,2.3-3.2
		c0,0,0.1-0.1,0.1-0.1c4.1-1.9,4.7-1.4,4.4,3.1c-0.1,1.8-0.6,3.6-0.8,5.5c-0.1,0.8-0.5,1.1-1.3,1c-0.4,0-0.8,0-1.3,0
		c-3.6,0-3.6,0-3.6-3.7C212.1,220.8,212,219.9,212.1,219.1z M205.3,217.2c2,2.4,2.6,5,3.3,7.6c0,0.1,0,0.3,0,0.3
		c-0.9,0.6-1.9,0.1-2.9,0.3c-0.7,0.1-0.8-0.4-0.8-0.9C204.8,222.1,204.8,219.8,205.3,217.2z M201.6,238.6c1.6,0,3.5-0.7,4.6,0.3
		c0.9,0.8,0.1,2.7,0.3,4.1c0.2,1.7-0.4,2.3-2,2c-0.6-0.1-1.3,0-1.9,0c-3.7,0-3.7,0-3.7-3.6C198.7,238.6,198.7,238.6,201.6,238.6z
		 M185.7,215.1c1.7,2.2,0.9,4.1,0.2,6c-0.4,0.9-1,1.8-1.3,2.7c-0.5,1.6-1.5,1.8-3.1,1.4C183.2,222,185.1,219,185.7,215.1z
		 M160.9,285.3c1-0.9,3-0.2,4.6-0.3c3.6,0,3.6,0,3.6,3.6c0,0.3,0,0.6,0,1.2c-0.2,1.2,0.7,3.1-0.3,4c-0.9,0.7-2.7,0.3-4.1,0.2
		c-1.3,0-3,0.6-3.8-0.2c-0.8-0.8-0.3-2.5-0.2-3.8C160.7,288.4,159.9,286.3,160.9,285.3z M173.7,333.9c-1,1-2.9,0.3-4.4,0.3
		c-3.9,0.1-7.8-0.1-11.7,0.1c-1.6,0-2-0.5-1.9-2c0.1-1.6,0.1-3.3,0-4.9c0-0.9,0.3-1.2,1.2-1.2c1.2,0,2.7,0.6,3.5-0.3
		c0.8-0.9,0.3-2.4,0.3-3.7c0-5.1,0-10.2,0-15.4c0-1.1-0.3-1.4-1.4-1.4c-3.5,0-3.5,0-3.5-3.5c0-1.2,0-2.3,0-3.5
		c0-0.8,0.2-1.2,1.1-1.2c3.7,0,7.5,0,11.2,0c1.2,0,1.1,0.7,1.1,1.5c0,4.3,0,8.7,0,13c0,4.3,0,8.6,0,12.8c0,1.2,0.3,1.7,1.6,1.7
		c3.3,0,3.3,0,3.2,3.3C173.9,331.1,174.6,333,173.7,333.9z M171.6,273.4c-0.7,0.2-0.9-0.3-0.9-0.9c0-1.1,0-2.1,0-3.4
		c0.2-1.1-0.6-2.9,0.3-3.7c0.8-0.7,2.5-0.2,3.8-0.2c0.5,0,1.1,0,1.6,0c1-0.1,1.5,0.1,1.8,1.2c0.6,1.8,3.5,2.4,4.9,1.1
		c1.2-1.1,0.7-3-1-3.6c-2-0.7-4.2-1-6.2-1.8c-4.1-1.7-5.9-5-5.2-9.4c0.6-3.7,3.9-6.4,8-6.6c2-0.1,4-0.1,5.8,1
		c0.2,0.1,0.4,0.4,0.7,0.2c1.5-1.5,3.4-0.4,5.1-0.7c0.7-0.1,0.7,0.5,0.7,1c0,1.9,0,3.8,0,5.7c0,0.9-0.4,1.1-1.1,1
		c-1.2,0-2.3,0-3.5,0c-1.3,0-2.5,0.2-3.1-1.6c-0.4-1.1-1.7-1-2.7-0.8c-0.9,0.2-1.6,0.7-1.7,1.7c-0.2,1.1,0.4,1.8,1.3,2.3
		c1.8,0.8,3.7,1.1,5.6,1.7c2.5,0.9,4.9,1.9,6,4.7c2,5.3-1.5,11.2-7.1,11.8c-2.5,0.3-5,0.4-7.2-1.1c-0.2-0.1-0.6-0.3-0.7-0.2
		C175.3,274.3,173.3,273,171.6,273.4z M199.5,305.9c-4,0.5-7.2,2.4-8.7,6.4c-0.5,1.3-0.6,2.7-0.6,4c-0.1,2.9,0,5.7,0,8.6
		c0,1.1,0.2,1.5,1.4,1.5c3.4,0,3.4,0.1,3.4,3.5c0,1.5,0.7,3.3-0.3,4.2c-0.9,0.8-2.7,0.2-4.1,0.2c-4,0-8,0-12,0
		c-1.1,0-1.6-0.2-1.6-1.5c0.1-1.8,0.1-3.6,0-5.4c0-0.9,0.3-1.2,1.2-1.2c1.1,0,2.6,0.5,3.3-0.3c0.7-0.8,0.2-2.3,0.2-3.5
		c0-5.1,0-10.2,0-15.4c0-1.2-0.2-1.7-1.5-1.6c-3.2,0.1-3.2,0-3.2-3.2c0-1.3,0-2.5,0-3.8c0-0.8,0.3-1.1,1.1-1.1c3.5,0,7,0,10.5,0
		c0.8,0,1.1,0.3,1.1,1.1c0,1.4,0,2.9,0,4.8c1.6-2.2,3.1-3.8,5.2-4.8c1.6-0.7,3.2-1.1,4.8-1.3c0.7-0.1,1.1,0.1,1.1,0.9
		c0,2.3,0,4.5,0,6.8C200.7,305.7,200.2,305.8,199.5,305.9z M196.6,273.3c-1,0-1.3-0.3-1.3-1.3c0.1-1.4,0.1-2.9,0-4.3
		c-0.1-1.2,0.3-1.8,1.6-1.6c1.6,0.3,1.9-0.4,1.9-1.9c-0.1-3.1-0.1-6.2,0-9.3c0-1.2-0.3-1.7-1.5-1.4c-1.4,0.3-2-0.3-1.8-1.8
		c0.1-1.4,0.1-2.8,0-4.3c0-0.7,0.2-1,1-1c3,0,5.9,0,8.9,0c0.9,0,1,0.4,1,1.1c0,2.9,0,5.8,0,8.7c0,2.8,0.1,5.6,0,8.4
		c0,1.1,0.2,1.7,1.4,1.5c1.6-0.3,2.2,0.3,2,1.9c-0.2,1.7,0.7,3.8-0.4,4.9c-1,1-3.1,0.2-4.7,0.3C202,273.3,199.3,273.3,196.6,273.3z
		 M224.3,333.2c0,0.8-0.3,1.1-1.1,1.1c-4.3,0-8.7,0-13,0c-1.1,0-1-0.6-1-1.3c0-4.3,0-8.7,0-13c0-4.4,0-8.8,0-13.2
		c0-1-0.3-1.4-1.3-1.3c-1.1,0.1-2.2,0-3.3,0c-0.8,0-1.3-0.2-1.3-1.1c0-2,0-3.9,0-5.9c0-0.8,0.2-1.2,1.1-1.1c0.2,0,0.3,0,0.5,0
		c1.4-0.1,3.2,0.6,4.1-0.3c0.8-0.9,0.2-2.6,0.2-4c0-2.3,0-4.5,0-6.8c0-0.9,0.3-1.2,1.2-1.2c2.1,0,4.1,0,6.2,0c0.9,0,1.2,0.3,1.2,1.2
		c0,3.2,0,6.4,0,9.7c0,1.2,0.4,1.6,1.5,1.5c1.2-0.1,2.4,0,3.6,0c0.8,0,1.1,0.3,1.1,1.1c0,2,0,4,0,6c0,0.7-0.3,1-1.1,1
		c-1.4,0-2.7,0-4.1,0c-0.8,0-1.1,0.2-1.1,1.1c0,6.2,0,12.4,0,18.5c0,0.9,0.3,1.2,1.2,1.2c1.4-0.1,2.9,0,4.3,0c0.9,0,1.2,0.3,1.2,1.2
		C224.3,329.4,224.3,331.3,224.3,333.2z M226.6,268.1c-0.1,1.3-0.1,2.6,0,4c0,0.8-0.2,1.2-1.1,1.2c-4,0-7.9,0-11.9,0
		c-0.9,0-1.2-0.4-1.1-1.2c0-1.6,0.1-3.2,0-4.8c0-0.9,0.3-1.1,1.2-1.1c2.2,0,2.2-0.1,2.2-2.3c0-3-0.1-5.9,0-8.9
		c0-1.1-0.2-1.7-1.4-1.5c-1.4,0.3-2-0.3-1.8-1.8c0.1-1.3,0.1-2.6,0-4c-0.1-1,0.2-1.4,1.3-1.4c2.5,0.1,5.1,0.1,7.6,0
		c1.4-0.1,1.8,0.4,1.6,1.7c-0.1,0.4,0,0.8,0,1.5c2.8-3.3,6.1-4.3,10-3.5c4.1,0.9,6.6,3.8,6.8,8c0.1,3.4,0.1,6.9,0.1,10.3
		c0,1.3,0.3,1.9,1.6,1.7c1.6-0.3,2,0.4,1.9,1.9c-0.1,1.4-0.1,2.7,0,4.1c0,0.8-0.3,1.1-1.1,1.1c-3,0-6-0.1-9,0c-1,0-1.1-0.5-1.1-1.3
		c0-4.4,0-8.8,0-13.1c0-0.5,0-1,0-1.4c-0.2-2.9-1.6-4.4-4.1-4.5c-2.4,0-4.5,1.8-4.7,4.4c-0.1,2.6,0,5.3-0.1,7.9
		c0,1.1,0.7,0.9,1.3,0.8C226.4,265.9,226.8,266.6,226.6,268.1z M250.3,305.9c-2.6,0.3-5,1.3-6.8,3.3c-1.4,1.5-2.2,3.1-2.2,5.1
		c-0.1,3.6-0.1,7.3-0.2,10.9c0,0.9,0.4,1.2,1.2,1.2c1.1,0,2.5-0.5,3.2,0.3c0.7,0.8,0.2,2.2,0.2,3.4c0,1.4,0,2.9,0,4.3
		c-0.2,0.7-0.8,0.5-1.3,0.5c-5,0-10.1,0-15.1,0c-1.4,0-2-0.6-1.9-2c0.1-1.7,0-3.4,0-5c0-1.4,0.6-1.9,1.9-1.9c1,0,2.1,0,3.2,0
		c0-6.5,0.1-13,0.1-19.5c0-0.7-0.3-0.9-1-0.9c-0.3,0-0.5,0-0.8,0c-3,0-3,0-3-3c0-1.3,0-2.6,0-4c0-0.8,0.2-1.1,1.1-1.1
		c3.5,0,7,0,10.5,0c0.9,0,1.2,0.3,1.2,1.2c0,1.3,0,2.6,0,4c0.8-0.2,1-0.9,1.4-1.3c2.3-2.6,5.2-3.8,8.6-4.2c0.7-0.1,1,0.1,1,0.8
		c0,2.3,0,4.6,0,7C251.4,305.7,251,305.8,250.3,305.9z M296.9,334.3c-3.6,0-7.3,0-10.9,0c-0.9,0-1.2-0.3-1.2-1.2c0.1-1,0-2,0-3.4
		c-1.8,2.1-3.6,3.6-5.8,4.4c-6.6,2.4-12.7,1.1-17.9-3.3c-10.9-9.2-8.6-26.3,4.3-32.5c6.2-3,14.1-2.8,19,3.4c0,0.1,0.2,0.1,0.4,0.1
		c0-1.2,0-2.3,0-3.5c0-0.7,0.3-1,1-1c3.8,0,7.5,0,11.3,0c0.9,0,1.1,0.4,1.1,1.1c0,2,0,3.9,0,5.9c0,0.9-0.4,1.1-1.3,1.1
		c-3.4,0.1-3.4,0.1-3.4,3.5c0,5.2,0,10.5,0,15.7c0,1.3,0.4,1.6,1.6,1.6c3.1,0,3.1,0,3.1,3.1c0,1.2-0.1,2.4,0,3.6
		C298.2,334,297.8,334.3,296.9,334.3z M342.9,334.3c-3.6,0-7.2-0.1-10.8,0c-1,0-1.2-0.4-1.2-1.3c0.1-1.2,0-2.4,0-4
		c-2.1,2.6-4.3,4.4-7.2,5.1c-7.2,1.9-13.5,0-18.5-5.4c-4.9-5.3-6.4-11.7-4.2-18.6c2.4-7.3,7.5-11.8,15.2-13
		c5.3-0.9,9.9,0.8,13.6,4.6c0.2,0.2,0.5,0.4,0.9,0.8c0-3.1,0-5.9,0-8.7c0-0.4-0.2-0.7-0.7-0.7c-0.2,0-0.4,0-0.6,0
		c-3.5-0.1-3.5-0.1-3.5-3.6c0-1.4-0.6-3.2,0.3-4.1c0.9-0.9,2.7-0.3,4.1-0.3c2.4,0,4.9,0.1,7.3,0c1.3-0.1,1.7,0.4,1.7,1.7
		c0,12.5,0,25-0.1,37.6c0,1.6,0.3,2.1,2,2c2.8-0.1,2.8,0,2.8,2.7c0,1.3,0,2.6,0,4C344.2,333.9,343.9,334.3,342.9,334.3z
		 M380.6,223.4c0.8,0,1,0.4,1,1c0.1,0.7-0.2,0.8-0.8,0.9c-0.8,0-1-0.4-1.1-1C379.7,223.6,380.1,223.5,380.6,223.4z M348,220.1
		c0.6,1.8,0.1,3.2-0.3,4.6c-0.4,1.1-1.3,0.3-2.2,0.8C346.3,223.5,346.5,221.6,348,220.1z M384.2,317.7c-0.1,1.2-0.6,1.4-1.7,1.4
		c-4.4,0-8.9,0-13.3,0c-4.4,0-8.8,0-13.1,0c-1.6,0-1.7,0.2-1.2,1.6c3,7.7,13.3,9.5,18.7,3.3c0.5-0.6,1-0.7,1.6-0.7
		c2.1,0,4.2,0.1,6.3,0c1.4-0.1,1.4,0.5,0.8,1.4c-3,5.5-7.4,9.1-13.7,10.2c-10.3,1.9-20.4-4.9-22.2-15.2
		c-1.9-10.4,3.8-20.4,14.4-22.9c10.7-2.5,21.8,4.6,23.2,15.9C384.4,314.4,384.4,316,384.2,317.7z"/>
	<path d="M116.7,211.7c0.3,0,0.5,0,0.8,0c0.4,0,0.7-0.2,0.7-0.6c0.5-2.4,1.3-4.7,1.3-7.1c0-0.5-0.1-0.9-0.6-1.3
		c-3.9-3-5.1-9.1-2.9-13.5c3.2-6.1,9.4-7.4,15.7-6.3c1.1,0.2,1.8,0.6,1.9,2c0.1,1.1,0.7,2.3,1.4,3.2c0.4,0.5,1.5,0.2,2.3,0.2
		c1.1-0.1,1.4,0.4,1.2,1.4c-0.2,1.5,0.1,2.9,0.7,4.3c1.8,4.5,1.4,5.3-3,7.4c-2,1-2.1,1.2-0.5,2.8c1.9,2,3.8,3.9,4.2,6.8
		c0.1,0.9,1.9,1.2,2.3,0.3c1.6-3.3,3.8-6.1,5.7-9.1c0.3-0.5,0.2-0.9-0.4-1.2c-2.1-1.2-3.3-3.5-5.5-4.6c-0.2-0.1-0.3-0.4-0.4-0.7
		c-1.5-4,0.4-10.5,3.8-13.2c3.3-2.5,7-3.4,11.1-3.3c1,0,1.6,0.2,1.9,1.3c0.3,1.2,1,2.3,1.6,3.4c1.7,3.4,3.3,6.9,3.6,10.8
		c0.1,1.6-0.8,3.4,0.4,4.6c1.1,1.2,2.8,1.8,4.2,2.7c0.1,0.1,0.2,0.1,0.3,0.1c1.1,0.9,1.6,0.5,1.9-0.8c0.6-2.8,1.2-5.6,1.9-8.3
		c0.4-1.3,0.5-3,2.4-3.1c1,0,1.8-0.2,2.7-0.7c0.8-0.5,1.7-0.7,2.7-0.4c1,0.4,1.7-0.3,2.1-1c0.4-0.8,1.2-1.9,0.3-2.6
		c-1.7-1.3-1.3-3-1.3-4.7c0-2.1,1-3.3,2.9-4.1c1.3-0.5,2.5-0.1,3.7-0.4c1.9-0.4,3.6-0.2,5,1.5c0.5,0.6,1.4,1.9,1.9-0.2
		c0.1-0.3,0.6-0.5,1-0.7c1.8-0.9,3.9-0.7,5.8-1.2c1-0.3,2.6,0,3.2,1.3c0.9,1.8,0.5,3.9,0.8,5.9c0.2,1.1-0.1,2.4-1.2,3.1
		c-0.9,0.6-0.8,1.3-0.6,2.2c0.6,2.4,0.4,4.7-0.8,6.9c-0.6,1.2-0.1,1.7,1.1,2c3,0.9,5.3,2.6,7.1,5.1c0.5,0.7,0.8,1.5,1.6,2
		c0.2-1.4,1.5-2.6,0-3.9c-0.1-0.1-0.1-0.5,0-0.8c0.7-1.9,0.9-3.8,1.3-5.8c0.4-2.1,1.9-3.9,1.5-6.2c-0.2-1.1-0.3-2.1,1.3-2.2
		c0.7,0,0.9-0.8,1.1-1.3c0.6-1.8,1.8-3.1,3-4.5c0.7-0.8,1.4-1.1,2.5-1c2.2,0.1,4.3,0.1,6.5,0c1.6-0.1,2.7,0.5,3.5,1.8
		c0.4,0.6,0.8,1.2,1.1,1.9c1,2.3,1,2.4,3.4,1.7c1-0.3,1.1,0,0.9,0.9c-0.3,1.2-0.7,2.4-0.2,3.5c0.5,1,0.5,2.1,0.3,3.1
		c-0.3,1.2,0.2,2,1,2.8c0.3,0.3,0.7,0.6,1.1,0.9c0.7,0.5,0.9,1,0.1,1.5c-0.3,0.2-0.5,0.5-0.8,0.7c-0.9,0.6-1,1.1-0.1,1.9
		c1.4,1.2,2.4,2.7,3.4,4.2c0.9,1.3,1.4,2.9,2.6,4.1c1-2.2,2.7-3.7,4.4-5.2c1.5-1.4,1.6-1.7-0.3-2.6c-2.8-1.3-4.4-3.4-5.3-6.2
		c-1.1-3.3-1.5-6.6-0.1-9.9c1.4-3.3,4.1-4.9,7.5-5.5c2.7-0.5,5.3-0.1,7.8,0.6c1.4,0.4,1.8,2.4,2.7,3.7c0.3,0.4,0.4,0.8,0.6,1.3
		c1.3,2.9,2.5,5.8,2,9.1c-0.3,1.8,0.2,2.7,2.1,2.9c3.9,0.5,7.3,1.9,10.2,4.7c1.6,1.6,3.3,3.1,5.3,4.4c0.8,0.5,1.1,0.3,1.5-0.4
		c0.6-1.1,1.3-2.1,2.2-3c0.6-0.6,0.6-0.9,0-1.5c-1.2-1.3-1.6-5.9-0.4-7c0.8-0.8,1.2-1.6,1.5-2.5c0.3-0.9,0.8-1.4,1.9-0.7
		c0.5,0.4,1.2,0.5,2.1,0.1c-1.1-0.7-1.3-1.7-1.2-2.7c0.2-2-0.4-4,0.3-6.1c0.3-0.9,0-2-0.2-3c-0.3-1.5-0.6-3-0.9-4.5
		c0.6,0,1,0.4,1.3,0.7c1.6,1.7,3.3,3,5.8,1.7c0.2-0.1,0.4,0,0.6,0c1.9-0.1,3.7,0.2,5.5,0.6c0.9,0.2,1.3,0.4,1.2,1.4
		c-0.1,0.6,0,1.1,0.8,1.2c4.5,0.5,6.8,3.4,8.2,7.4c0.7,2,1,4,1.6,6.4c2.2-2.3,4.7-3.9,7.2-5.2c2.8-1.5,5.9-2.3,7.6-5.3
		c0.1-0.3,0.5-0.4,0.7-0.6c3-2,6.2-2.3,9.6-1.3c6.2,1.8,9.7,6.2,7.5,13.6c-0.5,1.7-1.6,3-2.3,4.6c-0.6,1.5-0.4,2.3,1.1,2.7
		c3.4,0.8,5.6,3.1,7.5,5.8c0.9,1.3,1.7,2.8,2.9,3.8c1.1,1,2.6,0.8,3-0.5c0.6-1.8,1.9-2.3,3.4-2.7c2.3-0.5,2.4-0.7,1.7-2.9
		c-0.7-2.5-1.3-5.1-0.9-7.8c0.3-2.5,1.1-5,3.4-6.3c1.7-0.9,2.1-2.1,2.2-3.8c0-0.4-0.1-0.8,0.3-1.3c2.5,1.3,5.2,1.9,8,1.6
		c0.7-0.1,1.5,0.1,2.2,0c0.9-0.1,1.6,0.3,2.2,1c1.5,1.7,2.5,3.7,4.6,4.9c0.6,0.3,0.1,0.7,0,1.1c-0.5,1.3-1.1,2.5-0.5,4
		c0.6,1.6,0.4,3.2,0.4,4.9c0,1.2-0.6,1.9-1.8,2c-1.3,0.1-2.2,1-3.1,1.7c-0.7,0.6-0.8,1,0.1,1.5c1,0.5,2,1.2,2.7,2
		c0.8,0.9,1.7,1.2,2.9,1.2c52.6,0,105.2,0,157.9,0c0.6,0,1.1,0.2,1.9-0.3c-0.6-0.6-1.1-1.1-1.7-1.6c-7.6-6.4-15.3-12.8-22.9-19.2
		c-7.1-6-14.2-12-21.3-18c-9.8-8.2-19.6-16.4-29.4-24.6c-7.3-6.1-14.6-12.3-21.9-18.5c-0.7-0.6-1.5-0.9-2.6-0.9c-95,0-190,0-285,0
		c-1,0-1.7,0.3-2.4,0.9c-4.1,3.5-8.2,6.9-12.3,10.4c-7,5.9-14,11.7-21,17.6c-11.3,9.4-22.5,18.8-33.8,28.2
		c-9.9,8.2-19.7,16.5-29.6,24.7c-0.4,0.3-0.9,0.6-1.1,1.3c0.5,0,0.9,0,1.2,0C81,211.7,98.8,211.7,116.7,211.7z"/>
	<path d="M551.3,391.4c0-54.8,0-109.7,0-164.5c0-1.4-0.3-1.7-1.7-1.7c-46,0-92,0-138,0c-1.4,0-1.7,0.4-1.7,1.7c0,27.4,0,54.8,0,82.3
		c0,27.4,0,54.8,0,82.3c0,1.4,0.3,1.7,1.7,1.7c46,0,92,0,138,0C551,393.2,551.3,392.8,551.3,391.4z M435.5,255.3
		c0.1-0.2,0.3-0.3,0.8-0.7c-1.2,3.6-2.1,6.8-2.5,10.1c-1.7,12.4,1.7,23.3,10.3,32.4c5.8,6.2,11.9,12.3,16.8,19.4
		c4.6,6.6,7.6,13.8,7.2,22c-0.2,5.1-1.5,10-3.6,14.6c-0.4,0.9-0.8,1.1-1.8,0.8c-8.9-2.8-16.8-7.3-23.6-13.7
		c-11.1-10.4-17.6-23.2-19-38.4C418.5,284.1,423.8,268.6,435.5,255.3z M424.9,373c0.8,0,1.6,0.1,2.4,0c1-0.1,1.5,0.1,1.5,1.3
		c0,1.3-0.7,1.2-1.5,1.2c-1.6,0-3.3,0-4.9,0c-0.9,0-1.2,0.2-1.2,1.1c0.1,1.7-0.1,3.5,0,5.2c0.1,1.3-0.6,1.3-1.5,1.3
		c-0.8,0-1.6,0.2-1.6-1.2c0.1-2.5,0-5.1,0-7.6c0-2.5,0-5,0-7.4c0-0.9,0.1-1.4,1.3-1.4c3.1,0.1,6.1,0.1,9.2,0c1,0,1.2,0.4,1.2,1.3
		c0,0.9-0.1,1.4-1.3,1.4c-2.1-0.1-4.2,0-6.3,0c-0.7,0-1,0.2-1,1C421,373,420.9,373,424.9,373z M442.9,383.1
		c-1.5,0.1-2.3-0.4-2.5-1.9c-0.1-1.3-0.8-1.8-2.1-1.6c-1.2,0.1-2.4,0.1-3.6,0c-1.3-0.1-2.1,0.2-2.1,1.6c-0.1,1.8-1.2,2.1-2.8,2
		c-0.7-0.1-1-0.1-0.7-1c1.8-5.3,3.6-10.6,5.3-15.8c0.4-1.2,1.4-0.6,2.1-0.7c1.5-0.4,2,0.3,2.4,1.6c1.6,4.9,3.3,9.8,5,14.6
		C444.2,382.7,444.1,383,442.9,383.1z M449.2,382c0,1.4-0.9,0.9-1.6,1c-0.7,0.1-1.4,0.2-1.4-1.1c0.1-2.6,0-5.2,0-7.8
		c0-2.5,0.1-5.1,0-7.6c-0.1-1.3,0.6-1.2,1.4-1.2c0.7,0,1.6-0.3,1.5,1.1C449.2,371.7,449.2,376.8,449.2,382z M463.3,383
		c-0.7,0-0.9-0.5-1.1-0.9c-0.9-1.6-1.7-3.3-2.6-4.9c-0.4-0.7-2.9-1.3-3.5-0.7c-0.3,0.3-0.2,0.7-0.2,1c0,1.5-0.1,3.1,0,4.6
		c0.1,1.2-0.8,0.9-1.4,0.9c-0.6-0.1-1.6,0.6-1.6-0.8c0-5.3,0-10.7,0-16c0-0.7,0.3-0.8,0.9-0.8c2.3,0,4.6-0.1,7,0.1
		c2.6,0.2,4.4,1.8,4.9,4c0.6,2.7-0.2,4.7-2.6,6c-0.8,0.4-0.7,0.7-0.3,1.3c1.1,2,2.2,4,3.4,6.2C465,383,464.2,383,463.3,383z
		 M479.6,366.9c0.1,0.6,0.2,1.4-0.8,1.2c-0.1,0-0.2,0-0.3,0c-1.2,0.1-2.9-0.6-3.6,0.3c-0.6,0.8-0.2,2.3-0.2,3.5c0,3.3-0.1,6.5,0,9.8
		c0,1.3-0.6,1.3-1.5,1.3c-0.9,0-1.6,0.1-1.5-1.2c0.1-2,0-4.1,0-6.2c0-2-0.1-4,0-6c0.1-1.1-0.2-1.7-1.4-1.5c-0.6,0.1-1.2-0.1-1.7,0
		c-1.6,0.3-1.8-0.6-1.7-1.9c0-0.6,0.2-0.8,0.8-0.8c3.7,0,7.5,0,11.2,0C480.1,365.4,479.6,366.3,479.6,366.9z M469.8,293.5
		c-9-2.8-16.5-7.6-20.8-16.4c-6.4-13.1-1.5-30.6,12.9-37.5c8.5-4.1,17.5-5.1,26.8-4.1c11.5,1.3,21.7,5.5,30.7,12.8
		c8.6,7,14.8,15.8,18.5,26.3c4,11.4,4.3,23.1,1.8,34.8c-2,9-6,17.1-11.8,24.3c-0.2,0.2-0.2,0.5-0.7,0.4c0-2.2-0.2-4.4-0.5-6.7
		c-1.1-8-5.2-14.2-11.9-18.7c-6.9-4.6-14.5-7.5-22.5-9.7C484.8,297.1,477.1,295.8,469.8,293.5z M490.2,380.7
		c-0.6-1.2-1.3-2.4-1.9-3.6c-0.3-0.6-0.6-0.7-1.2-0.8c-2.4-0.1-2.4-0.2-2.4,2.3c0,0.9-0.1,1.8,0,2.7c0.2,1.5-0.4,1.8-1.8,1.8
		c-1.2,0-1.3-0.5-1.3-1.5c0-4.9,0.1-9.8,0-14.7c0-1.2,0.3-1.5,1.5-1.5c2,0.1,4,0,6,0.1c4,0.1,6.5,3.6,5.2,7.3
		c-0.3,1-0.9,1.9-1.8,2.3c-1.7,0.6-1.2,1.4-0.6,2.5c1,1.7,1.9,3.5,2.9,5.2C491.6,383.3,491.6,383.3,490.2,380.7z M510.3,383.1
		c-1.5,0.1-2.3-0.4-2.5-1.9c-0.1-1.2-0.8-1.9-2.1-1.6c-0.7,0.1-1.4,0-2.1,0c-3,0-3,0-4.1,2.8c-0.2,0.6-0.6,0.8-1.2,0.7
		c-0.7,0-1.4,0-2.3,0c1.9-5.8,3.8-11.3,5.7-16.9c0.1-0.2,0-0.6,0.4-0.6c1.1-0.1,2.1-0.2,3.2,0c0.7,0.1,0.6,1,0.8,1.6
		c1.7,4.9,3.3,9.9,5.1,14.8C511.5,382.9,511.3,383,510.3,383.1z M527.8,376.6c-0.7,3.9-3.1,6.1-7.1,6.3c-2.2,0.1-4.3,0-6.5,0.1
		c-0.9,0-1.1-0.3-1.1-1.1c0.1-1.3,0-2.6,0-4c0-1.3,0-2.5,0-3.8c0-2.5,0.1-5.1,0-7.6c0-1.1,0.4-1.2,1.3-1.2c1.9,0.1,3.8,0,5.7,0.1
		c4.2,0.1,7.2,2.8,7.7,7.1C528,373.9,528,375.3,527.8,376.6z M542.7,381.6c-0.1,0.7,0.2,1.4-1,1.4c-3.4-0.1-6.9-0.1-10.3,0
		c-1,0-1.1-0.3-1.1-1.2c0-2.5,0-5.1,0-7.6c0-2.6,0-5.2,0-7.8c0-0.8,0.2-1.1,1-1.1c3.5,0,7,0.1,10.4,0c1.2,0,0.9,0.7,0.9,1.3
		c0,0.6,0.3,1.4-0.9,1.3c-2.4-0.1-4.9,0-7.3,0c-0.9,0-1.3,0.1-1.3,1.2c0,3.5-0.1,3.5,3.5,3.5c1.4,0,2.9,0.1,4.3,0
		c1.1-0.1,0.9,0.6,0.9,1.2c0,0.6,0.2,1.3-0.8,1.3c-2.2,0-4.4,0-6.6,0c-0.9,0-1.1,0.3-1.2,1.2c-0.1,4-0.1,4,4,4c1.5,0,3,0.1,4.4,0
		C542.7,380.3,542.8,380.8,542.7,381.6z"/>
	<path d="M364.2,345.4c-37.8,0-75.7,0-113.5,0c-37.8,0-75.7,0-113.5,0c-1.7,0-1.9,0.5-1.9,2c0.1,21.2,0.1,42.5,0,63.7
		c0,1.5,0.3,1.9,1.9,1.9c75.7,0,151.3,0,227,0c2,0,2,0,2-2.1c0-21.2,0-42.4,0-63.6C366.2,345.8,365.8,345.4,364.2,345.4z
		 M181.4,390.3c-0.9,5.4-3.6,9.4-8.9,11.1c-4.6,1.5-9.1,1.3-13-2.2c-0.1-0.1-0.2-0.4-0.5-0.3c-0.1,0.1-0.2,0.1-0.2,0.2
		c-0.1,2.1-0.1,2.1-2.3,2.1c-1,0-2-0.1-3,0c-1,0.1-1.2-0.3-1.2-1.3c0-3.6,0-7.2,0-10.8c0-0.9,0.2-1.3,1.2-1.3c1.8,0.1,3.6,0.1,5.4,0
		c0.8,0,1.1,0.3,1.1,1.1c0.4,3.5,2.8,5.7,6.3,5.9c3.5,0.2,6-1.7,6.8-5c0.5-2.1-0.5-4.1-2.4-5.1c-3.1-1.6-6.6-2.5-9.8-3.7
		c-5.8-2.2-9.3-6.8-9-12.3c0.5-9.2,9.3-13.9,16.4-12.1c1.9,0.5,3.3,1.4,5.1,3c-0.4-2.1,0.5-2.4,1.9-2.2c1.4,0.2,3.4-0.7,4.2,0.4
		c0.7,0.9,0.2,2.7,0.2,4.1c0,1.9-0.1,3.8,0,5.7c0.1,1.4-0.4,1.7-1.7,1.6c-1.5-0.1-3.1-0.1-4.6,0c-0.9,0-1.2-0.2-1.4-1.1
		c-1-4.7-5.5-5.7-9-3.9c-2,1-3,2.8-2.9,5c0.1,2.7,2.1,3.9,4.4,4.8c3.4,1.3,7,2.2,10.3,3.8C179.5,380,182.2,385.1,181.4,390.3z
		 M217.9,391.2c-1.9,4.9-5.5,8.1-10.3,9.9c-6.7,2.6-15.1,0.2-19.7-5.4c-7.8-9.6-3.3-24.2,8.5-27.5c4.7-1.3,9.2-0.9,13.1,2.3
		c0.3,0.2,0.5,0.5,0.8,0.3c0.4-0.1,0.2-0.6,0.2-0.8c-0.3-1.6,0.5-1.9,1.9-1.8c1.1,0.1,2.2,0.1,3.3,0c1.2-0.1,1.4,0.4,1.4,1.4
		c-0.1,1.4,0,2.7,0,4.1c0,1.5,0,3,0,4.4c0,0.8-0.3,1.1-1.1,1.1c-1.7,0-3.4-0.1-5.1,0c-1.1,0.1-1.5-0.7-2.1-1.4
		c-4.4-4.5-11.5-4.1-15.3,1c-2.3,3.1-2.5,7.6-0.4,11c2,3.3,6.4,5.2,10.2,4.6c2.6-0.5,4.7-1.6,6.2-3.8c0.4-0.5,0.8-0.8,1.5-0.8
		c2.1,0,4.1,0,6.2,0C218.1,390,218.3,390.3,217.9,391.2z M258.1,401c-0.8,0.8-2.5,0.2-3.8,0.3c-3.5,0-7,0-10.5,0
		c-1.1,0-1.5-0.2-1.5-1.4c0.1-1.5,0.1-3,0-4.4c0-1,0.2-1.3,1.2-1.3c3,0,3-0.1,3-3c0-3.4,0.1-6.7-0.2-10.1c-0.3-3.1-2.8-5.5-5.9-5.7
		c-3.8-0.2-6.8,1.8-7.5,5c-0.9,4.2-0.3,8.5-0.5,12.8c0,0.9,0.6,1.1,1.4,1.1c3,0.1,3,0.1,3,3.1c0,3.9,0,3.9-3.9,3.9
		c-3.6,0-7.3,0-10.9,0c-1,0-1.3-0.3-1.3-1.3c0.1-1.5,0.1-3.1,0-4.6c0-1,0.4-1.2,1.3-1.2c2.9,0,2.9-0.1,2.9-2.9c0-8.3,0-16.7,0-25
		c0-1.3-0.3-2-1.7-1.7c-0.4,0.1-0.7,0-1.1,0c-1.1,0.2-1.5-0.3-1.4-1.4c0.1-1.5,0.1-3,0-4.4c0-0.9,0.3-1.2,1.2-1.2
		c3.1,0,6.2,0.1,9.3,0c1,0,1.3,0.3,1.3,1.3c0,4.1,0,8.2,0,12.4c0,0.5-0.1,1,0.2,1.6c1.5-1.5,2.8-3,4.8-3.9
		c6.2-2.8,13.9,0.7,15.8,7.3c0.9,3,0.9,6,0.9,9.1c0,2.5,0,5.1,0,7.6c0,1,0.2,1.5,1.4,1.5c2.8,0,2.9,0.1,2.8,2.9
		C258.4,398.5,258.9,400.2,258.1,401z M277.6,402.1c-9.9,0-17.2-7.5-17.2-17.4c0-9.6,7.6-17,17.2-17.3c8.9-0.2,17.7,8.2,17,17.2
		C294.9,394.1,287.4,402.2,277.6,402.1z M314.4,402.1c-10.1,0-17.1-7.7-17.2-17.3c0-9.8,7.5-17.5,17.3-17.3
		c8.5-0.6,17.2,7.3,17,17.1C331.4,394.7,323.9,402.2,314.4,402.1z M350.3,395.5c-0.1,1.5-0.1,3.1,0,4.6c0,0.9-0.2,1.2-1.1,1.2
		c-4.5,0-9.1,0-13.6,0c-1,0-1.3-0.3-1.2-1.3c0.1-1.5,0.1-3.1,0-4.6c0-0.9,0.2-1.2,1.1-1.2c3.2-0.1,3.2-0.1,3.2-3.4
		c0-8.2,0-16.4,0-24.6c0-1.3-0.2-1.9-1.7-1.8c-2.6,0.1-2.6,0-2.6-2.5c0-1.4-0.6-3.2,0.2-4.1c0.9-1,2.8-0.3,4.3-0.3
		c1.8-0.1,3.6,0.1,5.4-0.1c1.7-0.2,2,0.5,2,2c-0.1,5.4,0,10.9,0,16.3c0,5.5,0.1,11.1,0,16.6c0,1.5,0.5,2,1.9,1.8c0.3,0,0.6,0,0.9,0
		C350,394.1,350.4,394.4,350.3,395.5z"/>
	<path d="M313.5,193.8c-1,0.2-1.5,0.8-2,1.5c-1,1.4-1.9,2.7-2.9,4.1c-0.8,1-0.7,1.5,0.5,2.2c3.7,2,6.7,4.7,7.1,9.3
		c0,0.5,0.2,0.9,0.9,0.9c1.9,0,3.8,0,5.9,0c-0.4-0.8-0.7-1.4-1-2c-1.2-2.5-3.6-3.3-5.9-4.3c-4.2-1.8-5.6-5.2-3.8-9.2
		C312.6,195.4,313.3,194.9,313.5,193.8z"/>
	<path d="M182.1,199.5c-2,1.6-3.5,3.5-3,6.3c0.1,0.4-0.2,0.9-0.3,1.4c-0.4,1.4-0.9,2.8-1.4,4.4c3.9-3.7,4.4-5.5,4.7-10.2
		c0.1-0.9,0.5-1.3,1.2-1.7c3.1-1.9,3.1-1.9,1.3-5c0,0-0.1,0-0.5-0.2C184.9,196.9,183.6,198.3,182.1,199.5z"/>
	<path d="M410.9,405.8c-2.3,0.1-0.5,2.1-1.1,3c-0.1,0.2,0,0.6,0,0.9c0,1.1,0,2.2,0,3.3c0,0.3-0.1,0.7,0.4,0.9
		c3.3,1.3,6.5-1.1,6.3-4.8C416.3,406.5,414.8,405.5,410.9,405.8z M414.1,412.5c-0.9,0.6-2,0.6-2.9,0.2c-0.7-0.3-0.2-1.2-0.3-1.9
		c-0.1-0.6-0.2-1.3,0-1.9c0.2-0.7-0.9-2,0.8-2.2c2.1-0.2,3.3,0.5,3.5,2.2c0,0.3,0,0.5,0.1,0.7C415.3,410.8,415.1,411.8,414.1,412.5z
		"/>
	<path d="M436,409.2c-0.6-0.1-1.1-0.2-1.7-0.4c-0.5-0.2-0.8-0.5-0.8-1c0-0.6,0.4-1,1-1.1c1-0.2,2.1-0.2,2.5,1
		c0.2,0.6,0.6,0.8,1.1,0.5c0.5-0.3,0.1-0.8,0-1.1c-0.5-1.3-2.3-1.8-4-1.3c-1.1,0.3-1.7,1-1.7,2.2c0,1.1,0.7,1.7,1.7,2
		c0.8,0.2,1.6,0.4,2.4,0.6c0.6,0.2,1.1,0.5,1,1.2c-0.1,0.7-0.6,1.1-1.2,1.2c-1.2,0.2-2.4,0.1-2.9-1.3c-0.2-0.5-0.5-0.7-0.9-0.6
		c-0.6,0.2-0.3,0.7-0.2,1c0.5,1.5,1.7,1.9,2.6,1.9c2.4,0,3.7-0.8,3.9-2.2C438.8,410.5,437.9,409.7,436,409.2z"/>
	<path d="M523.2,405.7c-0.9,0.1-0.5,0.8-0.5,1.2c-0.1,2.3-0.1,2.3-2,2.3c-2.1,0-2.1,0-2.1-2.1c0-0.3,0-0.5,0-0.8
		c0-0.5-0.2-0.6-0.7-0.6c-0.5,0-0.6,0.3-0.6,0.7c0,1.1,0,2.2,0,3.3c0,1,0,2,0,3c0,0.4-0.4,1.2,0.5,1.2c1,0,0.6-0.8,0.7-1.3
		c0.1-0.5,0.1-1,0-1.4c-0.1-0.8,0.2-1.1,1-1.1c2.9-0.1,2.9-0.1,3.1,2.8c0,0.4-0.2,0.9,0.5,0.9c0.7,0.1,0.7-0.5,0.7-0.9c0-2,0-4,0-6
		C523.8,406.5,524.2,405.7,523.2,405.7z"/>
	<path d="M542.5,405.7c-0.4,0-0.5,0.2-0.5,0.6c0,0.6,0,1.2,0,2c-0.5-0.2-0.9-0.3-1.3-0.4c-1.1-0.3-2.1,0-2.8,0.9
		c-0.8,1.2-0.8,2.5-0.2,3.8c0.5,1,1.4,1.4,2.6,1.4c0.7,0,1.4-0.7,2.3-0.1c0.3,0.2,0.4-0.3,0.4-0.6c0-2.3,0-4.6,0-6.9
		C543,406,543,405.7,542.5,405.7z M540.3,413c-1.3,0-1.7-0.9-1.8-1.9c0-1.4,0.3-2.4,1.7-2.4c1.4,0,1.7,1.1,1.7,2.2
		C542,412,541.6,413,540.3,413z"/>
	<path d="M504.3,411.2c0.1,0,0.2,0,0.3,0c0.3,0,0.6,0,0.9,0c1.3,0.2,1.6-0.4,1.1-1.5c-0.6-1.6-2-2.3-3.5-1.7
		c-1.5,0.6-2.2,2.7-1.5,4.4c0.6,1.4,2.2,2,3.7,1.4c0.7-0.3,1.1-0.8,1.3-1.5c0-0.1-0.1-0.3-0.2-0.4c-0.8-0.3-0.9,0.5-1.3,0.8
		c-0.6,0.4-1.3,0.4-1.9,0c-0.4-0.3-0.8-0.7-0.6-1.2C503,410.8,503.8,411.3,504.3,411.2z M504.1,408.8c0.7,0,1.5,0.3,1.5,1.1
		c-0.1,0.8-0.9,0.2-1.4,0.5c-0.4-0.3-1.3,0.4-1.4-0.5C502.7,409.1,503.4,408.8,504.1,408.8z"/>
	<path d="M422.2,410.4c-0.1-2.3-1.4-3.2-3.5-2.4c-0.6,0.2-1.1,0.7-1.2,1.3c-0.1,0.2,0,0.4,0.2,0.5c0.7,0.2,0.9-0.4,1.2-0.8
		c0.1-0.1,0.4-0.2,0.6-0.2c0.6-0.1,1.4-0.2,1.6,0.6c0.2,0.9-0.6,0.8-1.1,0.9c-0.3,0.1-0.7,0.1-1.1,0.2c-1,0.2-1.7,0.8-1.6,2
		c0.2,1.2,1,1.5,2.1,1.5c0.5,0,1-0.1,1.4-0.4c0.6-0.4,0.7,0.6,1.3,0.4c0.5-0.1,1-0.5,0.6-0.8C421.7,412.4,422.3,411.3,422.2,410.4z
		 M421.1,411.7c-0.1,1-0.8,1.3-1.6,1.3c-0.6,0-1.2-0.2-1.1-0.9c0.2-1.1,1.3-0.9,2-1C420.9,411,421.1,411.2,421.1,411.7z"/>
	<path d="M494.2,411.3c-0.2-1.4,0.4-2.7-0.9-3.2c-1-0.4-2.1-0.4-3,0.1c-0.6,0.3-1.1,0.9-0.7,1.5c0.5,0.5,0.8-0.1,1.1-0.5
		c0.5-0.6,1.2-0.5,1.9-0.2c0.3,0.1,0.5,0.5,0.4,0.8c-0.2,0.7-0.9,0.5-1.5,0.7c-0.1,0-0.2,0-0.3,0c-1.6,0.3-2.3,1-2,2.2
		c0.2,1.1,1.5,1.7,2.8,1.2c0.7-0.2,1.2-0.4,1.8,0.1c0.2,0.1,0.6,0.1,0.8-0.2c0.1-0.1,0.1-0.5,0-0.6
		C493.6,412.6,494.3,411.6,494.2,411.3z M491.7,413c-0.9,0.1-1.5-0.1-1.4-0.8c0.1-1.2,1.2-1,2-1.1c0.4-0.1,0.7-0.1,0.7,0.5
		C492.9,412.7,492.2,412.9,491.7,413z"/>
	<path d="M530,411.1c0-0.4,0-0.8,0-1.1c0.1-1-0.1-1.8-1.2-2.1c-1.2-0.2-2.4-0.3-3.3,0.9c-0.2,0.3-0.5,0.7-0.1,1
		c0.3,0.2,0.7,0.2,0.9-0.3c0.4-0.8,1.1-0.8,1.9-0.7c0.4,0.1,0.7,0.3,0.7,0.8c0,0.3-0.3,0.5-0.6,0.6c-0.5,0.1-1,0.2-1.5,0.3
		c-0.7,0.2-1.4,0.4-1.7,1.3c-0.2,0.6-0.1,1.2,0.3,1.6c0.6,0.7,1.5,0.7,2.4,0.5c0.6-0.1,1.2-0.7,1.9,0c0.2,0.2,0.6,0.2,0.8-0.2
		c0.1-0.1,0.1-0.5,0.1-0.6C529.5,412.6,530.3,411.7,530,411.1z M529,411.6c-0.1,1-0.8,1.4-1.7,1.5c-0.6,0-1.2-0.2-1-0.9
		c0.2-1.1,1.3-0.9,2-1C528.6,411.1,529.1,411,529,411.6z"/>
	<path d="M545.9,408c-1.6,0.5-2.3,2.6-1.6,4.4c0.6,1.4,2.2,2.1,3.7,1.5c0.7-0.3,1.1-0.8,1.3-1.5c0-0.1-0.1-0.3-0.2-0.4
		c-0.8-0.4-0.9,0.5-1.3,0.8c-0.6,0.4-1.3,0.4-1.9,0c-0.4-0.3-0.8-0.7-0.6-1.2c0.3-0.8,1.1-0.2,1.7-0.4c0.1,0,0.2,0,0.3,0
		c0.3,0,0.6,0,0.9,0c1.4,0.2,1.5-0.5,1.1-1.6C548.8,408.2,547.4,407.4,545.9,408z M546.3,410.3c-0.3,0-0.9,0.3-1-0.3
		c0-0.4,0.3-0.8,0.7-1c1.2-0.5,1.9,0,2.5,1.3C547.6,410.3,547,410.4,546.3,410.3z"/>
	<path d="M456.5,411.2c0.8,0,1.7,0,2.5,0c0.9,0,1-0.3,0.8-1.1c-0.4-1.6-1.5-2.5-3.1-2.3c-1.5,0.2-2.5,1.6-2.4,3.2
		c0.1,1.9,1.1,2.9,2.9,2.9c0.6,0.1,1.2-0.1,1.7-0.6c0.4-0.3,0.9-0.9,0.6-1.3c-0.5-0.6-0.8,0.1-1.2,0.4c-0.8,0.8-1.6,0.6-2.4,0
		c-0.2-0.2-0.4-0.7-0.4-1C455.7,411,456.2,411.2,456.5,411.2z M455.5,410.3c0.3-1.2,0.9-1.6,1.9-1.5c0.6,0.1,1.2,0.5,1.2,1.1
		c0,0.8-0.8,0.4-1.2,0.4C456.8,410.4,456.3,410.3,455.5,410.3z"/>
	<path d="M444,411.2c0.8,0,1.7-0.1,2.5,0c0.8,0.1,0.9-0.3,0.8-1c-0.2-1.5-1.3-2.5-2.8-2.4c-1.7,0.1-2.7,1.4-2.6,3.3
		c0.1,1.8,1.1,2.9,2.9,2.9c0.7,0.1,1.4-0.2,1.8-0.7c0.3-0.4,0.9-0.8,0.4-1.3c-0.4-0.4-0.7,0.2-1.1,0.5c-0.7,0.8-1.6,0.7-2.4,0
		c-0.3-0.2-0.4-0.6-0.4-1C443.2,411,443.7,411.2,444,411.2z M444.6,408.8c0.7,0,1.5,0.3,1.5,1.1c0,0.8-0.9,0.2-1.4,0.5
		c-0.4-0.3-1.4,0.5-1.4-0.6C443.2,409.2,443.9,408.8,444.6,408.8z"/>
	<path d="M426.3,410.4c-0.2,0-0.4-0.1-0.6-0.2c-0.5-0.1-1.3-0.3-1.1-0.9c0.2-0.7,1-0.6,1.6-0.5c0.4,0.1,0.5,0.3,0.7,0.6
		c0.3,0.3,0.7,0.4,0.9,0.1c0.3-0.3,0.1-0.7-0.2-1c-0.9-0.9-2-0.9-3.1-0.6c-0.7,0.2-1.2,0.7-1.2,1.5c0,0.8,0.4,1.3,1.1,1.5
		c0.6,0.2,1.3,0.3,2,0.5c0.4,0.1,0.7,0.3,0.6,0.8c-0.1,0.4-0.4,0.6-0.8,0.7c-0.7,0.1-1.5,0.2-1.9-0.7c-0.2-0.4-0.5-0.6-0.9-0.3
		c-0.5,0.3-0.1,0.8,0.1,1.1c0.5,0.8,1.3,1,2.2,0.9c1.2,0,2.3-0.2,2.5-1.6C428.4,410.9,427.3,410.6,426.3,410.4z"/>
	<path d="M536.3,409.7c-0.1-1.2-0.7-1.8-1.9-1.9c-2.9-0.1-3,0-3,3c0,0.1,0,0.1,0,0.2c0,0.6,0,1.3,0,1.9c0,0.4-0.2,1.1,0.5,1.1
		c0.8,0,0.5-0.6,0.6-1c0-0.8,0-1.7,0-2.5c0-1,0.6-1.6,1.6-1.6c1,0,1.1,0.8,1.2,1.5c0,0.9,0,1.9,0,2.8c0,0.4,0,0.8,0.5,0.7
		c0.6,0,0.5-0.4,0.5-0.8C536.4,412,536.4,410.8,536.3,409.7z"/>
	<path d="M474.7,411c0-0.7,0-1.5,0-2.2c0-0.4,0-0.9-0.6-0.8c-0.6,0-0.5,0.4-0.5,0.8c0,0.9,0,1.8,0,2.7c0,1-0.6,1.6-1.6,1.6
		c-1.1,0-1.2-0.8-1.2-1.6c0-0.9,0-1.9,0-2.8c0-0.4-0.1-0.6-0.5-0.6c-0.4,0-0.5,0.3-0.5,0.6c0,0.7,0,1.5,0,2.2c0,3.2,0.2,3.4,3.4,2.9
		c0.1,0,0.2-0.1,0.3-0.1c1.7,1.1,1.2-0.4,1.3-1.1C474.8,412,474.7,411.5,474.7,411z"/>
	<path d="M487.2,405.7c-1.3,0-3.1-0.6-3.9,0.3c-0.6,0.7-0.1,2.5-0.1,3.8c0,0-0.1,0-0.1,0c0,1.2,0,2.3,0,3.5c0,0.4,0.1,0.7,0.6,0.7
		c0.4,0,0.7-0.1,0.6-0.5c-0.4-2.5,0.3-3.8,3.1-3.2c0.3,0.1,0.5-0.1,0.5-0.5c0-0.5-0.3-0.5-0.6-0.5c-0.7,0-1.5,0-2.2,0
		c-0.5,0-0.7-0.1-0.8-0.7c-0.1-1.3,0.1-2.2,1.7-1.8c0.4,0.1,0.9,0.1,1.3,0c0.4-0.1,1.2,0.4,1.2-0.5
		C488.5,405.3,487.7,405.7,487.2,405.7z"/>
	<path d="M510.8,407.8c-0.9-0.1-1.7,0.3-2.6,0.3c-0.8,0-0.2,1.7-0.3,2.6c0,0.1,0,0.1,0,0.2c0,0.7,0,1.4,0,2.1c0,0.4-0.2,0.9,0.5,0.9
		c0.7,0,0.5-0.5,0.5-0.9c0-0.9,0-1.9,0.1-2.8c0.1-0.9,0.7-1.4,1.6-1.4c1,0,1.1,0.8,1.1,1.6c0,1,0,1.9,0,2.9c0,0.4,0.1,0.8,0.6,0.7
		c0.4,0,0.5-0.3,0.5-0.7c0-1.3,0-2.6-0.1-3.9C512.6,408.2,511.7,407.9,510.8,407.8z"/>
	<path d="M468.4,405.7c-0.4,0-0.8,0.1-1.2,0.4c-0.6,0.6,0,2.1-1.4,2.2c0,0,0,0.4,0,0.4c1.8,0.4,0.7,1.8,1,2.5c0,0.6,0,1.1,0,1.6
		c0,0.4-0.3,1.1,0.5,1.1c0.8,0,0.5-0.6,0.5-1c0-0.8,0-1.6,0-2.4c0-0.7-0.4-1.6,0.9-1.7c0.4,0,0.3-0.8-0.3-0.8
		c-0.4-0.1-0.7-0.1-0.7-0.6c0-0.5,0.2-0.7,0.7-0.7c0.5,0,0.7-0.2,0.6-0.7C469,405.6,468.7,405.7,468.4,405.7z"/>
	<path d="M478.4,407.9c-0.4,0.2-0.8,0.6-1.2,0.6c-1.1,0-1.1-0.1-1.1,0.8c0,0.5,0,1,0,1.6c0,0.6,0,1.3,0,1.9c0,0.4-0.3,1.1,0.5,1.1
		c0.9,0,0.5-0.7,0.5-1.2c0.1-1.5-0.5-3.4,1.9-3.9c0.3-0.1,0.3-0.4,0.2-0.7C479,407.7,478.7,407.8,478.4,407.9z"/>
	<path d="M551,405.7c-0.5,0-0.6,0.3-0.6,0.7c0,2.3,0,4.5,0,6.8c0,0.4,0.1,0.7,0.6,0.7c0.6,0,0.5-0.4,0.5-0.7c0-1.1,0-2.2,0-3.3
		c0-1.1,0-2.2,0-3.3C551.6,406.2,551.7,405.7,551,405.7z"/>
	<path d="M500.4,407.9c-0.5,0.2-0.9,0.6-1.4,0.6c-1.1-0.1-1.1-0.2-1.1,1c0,0.5,0,0.9,0,1.4c0,0.6-0.1,1.2,0,1.7
		c0.1,0.5-0.4,1.3,0.6,1.3c0.8,0,0.4-0.8,0.4-1.3c0.1-1.5-0.4-3.3,1.9-3.7c0.4-0.1,0.3-0.5,0.2-0.8
		C501,407.8,500.7,407.8,500.4,407.9z"/>
	<path d="M461.4,405.7c-0.6,0-0.6,0.3-0.6,0.7c0,1.1,0,2.2,0,3.3c0,1.2,0,2.3,0,3.5c0,0.3,0,0.6,0.4,0.7c0.6,0.1,0.5-0.3,0.6-0.7
		c0-2.3,0-4.5,0-6.8C461.9,406.1,461.9,405.8,461.4,405.7z"/>
	<path d="M440.2,407.9c-0.4,0-0.5,0.3-0.5,0.7c0,0.8,0,1.6,0,2.4c0,0.8,0,1.6,0,2.4c0,0.4,0.1,0.6,0.5,0.6c0.4,0,0.5-0.3,0.5-0.6
		c0-1.6,0-3.1,0-4.7C440.8,408.2,440.7,407.9,440.2,407.9z"/>
	<path d="M496.1,407.9c-0.5,0-0.6,0.3-0.6,0.7c0,0.7,0,1.5,0,2.2c0,0.8,0,1.6,0,2.4c0,0.4,0.1,0.7,0.6,0.7c0.4,0,0.5-0.3,0.5-0.6
		c0-1.6,0-3.1,0-4.7C496.6,408.2,496.5,408,496.1,407.9z"/>
	<path d="M440.2,407c0.5,0,0.7-0.2,0.6-0.6c0-0.3,0-0.6-0.5-0.6c-0.5,0-0.6,0.2-0.6,0.6C439.7,406.7,439.7,407,440.2,407z"/>
	<path d="M496.1,405.7c-0.5,0-0.6,0.2-0.6,0.6c0,0.3,0,0.6,0.5,0.6c0.5,0,0.7-0.2,0.6-0.6C496.6,406,496.5,405.7,496.1,405.7z"/>
	<path d="M572.6,233.9c-0.3-0.3,0.2-0.4,0.3-0.6c0.9-1,1-2.1,0.5-3.2c-0.5-1.1-1.5-1.5-2.7-1.5c-1.4,0-2.7,0.1-4.1,0
		c-0.9,0-1.1,0.3-1,1.1c0.1,1.3,0,2.5,0,3.8c0,1.3,0.1,2.6,0,3.9c-0.1,1.1,0.5,1.2,1.3,1.1c1.4-0.1,0.7-1.2,0.7-1.8
		c0.1-2.2,0-2.2,2.1-2.1c1.1,0.1,1.7,0.5,1.6,1.7c0,0.5,0,0.9,0.1,1.4c0.1,1.3,1.2,0.8,1.8,0.8c1.2,0,0.3-0.7,0.3-1.1
		C573.3,236.2,573.8,234.9,572.6,233.9z M570,232.9c-0.3,0-0.5,0-0.9,0c-1.2,0.3-1.6-0.3-1.5-1.6c0-0.8,0.3-1,1-1c0.5,0,0.9,0,1.4,0
		c0.8,0,1.5,0.3,1.6,1.2C571.6,232.5,570.9,232.9,570,232.9z"/>
	<path d="M320.1,304.9c-6.2,0-11.1,5-11.1,11.2c0,5.9,5,11,11,11c6,0,11-5.1,11-11.3C331.1,309.7,326.2,304.8,320.1,304.9z"/>
	<path d="M274,304.9c-6.1,0-11,4.9-11,11.2c0,5.9,5,10.9,10.9,10.8c6.1,0,11.1-5,11.1-11.2C285,309.8,280,304.9,274,304.9z"/>
	<path d="M129.1,304.9c-6.1,0-10.9,4.9-10.9,11.1c0,6,4.8,10.9,10.7,11c6.1,0.1,11.2-5,11.2-11.2
		C140.1,309.7,135.2,304.9,129.1,304.9z"/>
	<path d="M364.3,304c-4.8,0.4-8.7,3.8-9.8,8.5c6.6,0,13.2,0,19.7,0c2.5,0,2.5,0,1.4-2.2C373.2,305.7,368.6,303.7,364.3,304z"/>
	<path d="M260.6,266.6c3.7,0,6.3-2.8,6.3-6.6c0-3.9-2.7-6.7-6.5-6.7c-3.6,0-6.4,2.9-6.4,6.6C254,263.7,256.9,266.6,260.6,266.6z"/>
	<path d="M505.7,274.7c0-8.9-7.1-15.9-16-15.9c-9,0-16.1,7.9-15.9,16.4c0.3,8.4,7.4,15.6,16,15.5
		C498.7,290.7,505.8,283.6,505.7,274.7z"/>
	<path d="M517.8,368.1c-0.1,0-0.1,0-0.2,0c-1.2-0.2-1.7,0.2-1.6,1.5c0.1,1.6,0,3.2,0,4.7c0,0.7,0,1.5,0,2.2c0,4.4,0,4.4,4.4,3.7
		c2.3-0.3,3.5-1.5,4-3.6C525.8,371.2,523.4,368.1,517.8,368.1z"/>
	<path d="M489.9,368.4c-0.6-0.3-1.3-0.3-2-0.3c-3.2-0.1-3.2-0.1-3.2,3c0,0.7,0,1.5,0,2.2c0,0.5,0.2,0.8,0.7,0.7
		c1.4,0,2.7,0.1,4.1-0.3c1.3-0.4,1.9-1.3,2-2.5C491.6,369.9,491.1,368.9,489.9,368.4z"/>
	<path d="M461.2,368.4c-0.7-0.4-1.5-0.4-2.3-0.4c-3,0-3,0-3,2.9c0,0.8,0,1.6,0,2.4c0,0.5,0.2,0.8,0.7,0.7c1.4,0,2.9,0.1,4.2-0.3
		c1.2-0.4,1.8-1.2,1.9-2.4C462.9,370,462.4,369,461.2,368.4z"/>
	<path d="M503.8,368c-0.6,1.9-1.1,3.4-1.5,5c-0.4,1.2-1.3,3.1-0.9,3.6c0.8,0.9,2.5,0.2,3.9,0.3c1.2,0.1,1.1-0.5,0.9-1.3
		C505.4,373.3,504.7,370.9,503.8,368z"/>
	<path d="M436.6,368.5c-0.1,0-0.2,0-0.3,0c-0.8,2.5-1.5,5-2.3,7.5c-0.2,0.6-0.2,1,0.7,1c1.2-0.1,2.4,0,3.6,0c0.7,0,0.8-0.3,0.6-0.9
		C438.2,373.6,437.4,371,436.6,368.5z"/>
	<path d="M314.5,374.9c-5.2-0.1-9.6,4.3-9.6,9.6c-0.1,5.5,4.1,10.1,9.4,10.2c4.9,0.1,9.7-4.3,9.5-9.9
		C324,379.5,319.8,375.1,314.5,374.9z"/>
	<path d="M277.7,374.9c-5.2-0.1-9.7,4.5-9.7,9.9c0,5.3,4.5,9.8,9.6,9.8c4.9,0,9.7-4.5,9.4-9.9C287.2,379.4,282.7,375,277.7,374.9z"
		/>
</g>
</svg>
