<?xml version="1.0" encoding="utf-8"?>
<!-- Generator: Adobe Illustrator 16.0.0, SVG Export Plug-In . SVG Version: 6.00 Build 0)  -->
<!DOCTYPE svg PUBLIC "-//W3C//DTD SVG 1.1//EN" "http://www.w3.org/Graphics/SVG/1.1/DTD/svg11.dtd">
<svg version="1.1" id="Ebene_1" xmlns="http://www.w3.org/2000/svg" xmlns:xlink="http://www.w3.org/1999/xlink" x="0px" y="0px"
	 width="200px" height="175px" viewBox="0 0 200 175" enable-background="new 0 0 200 175" xml:space="preserve">
<path fill="#666666" d="M178.848,74.881c-0.524-1.205-1.68-1.809-2.938-1.599c-1.154,0.208-2.071,1.31-2.071,2.489
	c-0.026,1.232,0.839,2.334,1.992,2.57c1.285,0.262,2.465-0.367,2.963-1.547c0.026-0.08,0.026-0.236,0.185-0.262V75.09
	C178.82,75.142,178.873,74.985,178.848,74.881z M176.434,78.104c-1.205,0-2.201-0.996-2.254-2.201c0-1.284,0.996-2.307,2.28-2.307
	c1.206,0,2.203,1.022,2.203,2.257c0,1.232-1.021,2.255-2.228,2.255L176.434,78.104z M141.171,128.652
	c-0.313,0.158-0.522-0.078-0.787-0.051c-0.521,0.053-0.812,0.551-0.731,1.151c0.078,0.578,0.523,0.813,1.18,0.631
	c0.025-0.026,0.08-0.133,0.133-0.055c0.028,0.026,0,0.131,0,0.213c-0.234,0.418-0.471,0.472-0.838,0.207
	c-0.129-0.076-0.208-0.183-0.341-0.054c-0.078,0.132,0.028,0.214,0.133,0.345c0.054,0.051,0.157,0.051,0.157,0.153h0.895
	c0.156-0.209,0.395-0.366,0.395-0.651v-1.627c-0.079-0.185-0.079-0.343-0.184-0.263H141.171z M140.463,130.148
	c-0.395,0-0.472-0.34-0.472-0.629c0-0.342,0.077-0.629,0.472-0.629s0.445,0.313,0.523,0.602
	C140.908,129.834,140.83,130.148,140.463,130.148L140.463,130.148z M124.076,93.287v-19.48c0-0.394-0.077-0.524-0.524-0.524
	c-0.76,0.027-1.521,0-2.255,0c-0.156,0-0.341,0.053-0.42-0.131c-0.184-0.341-0.365-0.629-0.523-0.97
	c-0.156-0.313-0.131-0.549,0.314-0.604c0.262-0.024,0.341-0.183,0.234-0.444c-0.364-0.892-0.889-1.598-1.676-2.148
	c-0.523-0.341-1.103-0.523-1.729-0.707c0.655-0.341,1.103-0.839,1.601-1.285c0.184-0.156,0.396-0.339,0.631-0.392
	c0.367-0.13,0.42-0.341,0.395-0.629c-0.051-0.629-0.313-1.232-0.078-1.888c0.027-0.079-0.052-0.184-0.131-0.237
	c-0.236-0.26-0.471-0.575-0.707-0.84c-0.157-0.208-0.367-0.339-0.629-0.313c-0.444,0.028-0.943,0.028-1.389,0
	c-0.42-0.025-0.76-0.076-0.918,0.42c-0.024,0.131-0.184,0.209-0.313,0.263c-0.941,0.447-1.102,1.234-1.021,2.179
	c0.054,0.76,0.236,1.495,0.447,2.203c0.211,0.735,0.211,0.735-0.523,0.944c-0.315,0.078-0.577,0.185-0.894,0.236
	c-0.184,0.054-0.313,0.157-0.393,0.315c-0.575,1.203-1.152,2.41-1.152,3.827c0,0.209-0.052,0.263-0.262,0.263h-1.341
	c-0.182,0-0.232-0.054-0.182-0.237c0.34-0.812,0.262-1.599,0-2.41c-0.052-0.184,0-0.343,0.157-0.474
	c0.474-0.473,0.474-0.473,0.054-1.047c-0.025-0.052-0.054-0.133-0.08-0.158c-0.627-0.97-1.338-1.914-2.568-2.201
	c-0.445-0.133-0.629-0.524-0.657-0.998c-0.051-0.575,0.212-1.048,0.476-1.52c0.364-0.629,0.602-1.311,0.418-2.071
	c-0.235-0.997-1.336-1.73-2.566-1.756c-0.813-0.026-1.546,0.184-1.914,0.944c-0.209,0.393-0.471,0.604-0.837,0.734
	c-0.185,0.052-0.367,0.133-0.524,0.21c-1.181,0.575-2.333,1.178-3.12,2.279c-0.604,0.841-0.395,1.495,0.523,1.914
	c0.184,0.079,0.367,0.157,0.524,0.212c1.391,0.63,2.358,2.02,2.203,3.355c-0.024,0.395-0.053,0.761,0.055,1.13
	c0.184,0.575,0.154,1.153,0.154,1.73c0,0.263-0.052,0.392-0.367,0.369h-2.492c-0.158,0-0.262-0.026-0.395-0.157
	c-0.34-0.393-0.708-0.787-1.021-1.207c-0.394-0.524-0.577-1.102-0.551-1.731c0-0.208,0.053-0.338,0.262-0.444
	c0.553-0.313,0.656-0.603,0.445-1.179c-0.236-0.76-0.786-1.231-1.415-1.601c-0.523-0.341-1.048-0.629-1.626-0.97
	c0.733-0.524,1.153-1.23,1.599-1.939c0.13-0.183,0.237-0.392,0.42-0.523c0.471-0.315,0.42-0.707,0.313-1.155
	c-0.392-1.545-1.048-2.15-2.672-2.201c-0.315,0-0.341-0.157-0.341-0.392c0-0.186,0.079-0.396-0.183-0.471
	c-0.367-0.08-0.761-0.158-1.153-0.08c-0.237,0.054-0.367,0.187-0.237,0.448c0.131,0.211,0.184,0.42,0.263,0.656
	c0.027,0.054,0,0.186-0.076,0.211c-0.131,0.055-0.131-0.051-0.158-0.129c-0.155-0.316-0.366-0.475-0.707-0.629
	c-0.079,0.315-0.184,0.577-0.209,0.891c-0.025,0.211-0.054,0.447,0.262,0.471c0.133,0,0.184,0.081,0.184,0.186
	c0,0.132-0.079,0.158-0.184,0.184c-0.184,0.053-0.366,0.157-0.079,0.343c0.345,0.237,0.345,0.604,0.212,0.944
	c-0.158,0.42-0.446,0.653-0.919,0.735c-0.157,0.025-0.315-0.079-0.445,0.025c-0.025,0.233,0.395,0.183,0.315,0.366
	c-0.132,0.263-0.578,0.344-0.445,0.788c0,0-0.078,0.026-0.133,0.026c-0.078,0.025-0.208-0.158-0.234,0.051
	c-0.024,0.158,0.026,0.263,0.184,0.342c0.133,0.053,0.263,0.129,0.395,0.157c0.209,0.054,0.472,0.129,0.523,0.367
	c0.026,0.208-0.208,0.314-0.365,0.394c-0.814,0.654-1.418,1.442-1.678,2.489c-0.078,0.366-0.234,0.893,0,1.127
	c0.369,0.366,0.315,0.916,0.656,1.232c0.054,0.053,0.054,0.078,0,0.157c-0.208,0.209-0.079,0.444-0.079,0.656
	c0.028,0.209,0.079,0.446-0.183,0.629c-0.366-1.049-0.944-1.993-1.677-2.805c-0.393-0.447-0.604-0.839-0.183-1.39
	c0.183-0.234,0.157-0.471-0.158-0.654c-0.524-0.341-0.919-0.785-1.364-1.178c-0.916-0.786-1.939-1.206-3.146-1.102
	c-0.133,0-0.262,0.053-0.236-0.131c0.025-0.392-0.263-0.444-0.55-0.549c-0.367-0.133-0.42-0.369-0.209-0.657
	c0.313-0.42,0.313-0.893,0.209-1.363c-0.13-0.708-0.42-1.311-0.733-1.914c-0.236-0.526-0.604-0.735-1.18-0.786
	c-1.207-0.158-2.204,0.233-2.676,1.1c-0.603,1.18-0.024,3.227,1.103,3.88c0.183,0.131,0.392,0.21,0.574,0.367
	c0.474,0.366,0.553,0.84,0.212,1.39c-0.209,0.341-0.524,0.55-0.786,0.813c-0.578,0.55-1.049,1.128-0.813,1.993
	c0.027,0.132-0.024,0.209-0.13,0.315c-0.445,0.524-0.235,1.152-0.341,1.756c-0.027,0.133,0.131,0.184,0.236,0.209
	c0.654,0.132,0.995,0.523,0.971,1.205c0,0.158,0.154,0.421-0.079,0.421c-0.316,0.027-0.708,0.209-0.894-0.158
	c-0.341-0.786-0.84-1.493-1.206-2.28c-0.186-0.366-0.186-0.603,0.262-0.761c0.471-0.155,0.471-0.313,0.209-0.759
	c-0.313-0.55-0.628-1.048-0.943-1.598c-0.759-1.363-1.678-2.466-3.354-2.57c-0.187-0.026-0.315-0.313-0.315-0.313
	c0.313-0.209,0.262-0.709,0.707-0.84c0.025,0.262-0.158,0.628,0.158,0.733c0.392,0.157,0.812,0.183,1.178-0.079
	c0.158-0.13,0.211-0.211,0.054-0.367c-0.236-0.315-0.392-0.71-0.55-1.051c-0.025-0.078-0.079-0.208,0-0.313
	c0.262-0.264,0.209-0.893-0.184-1.024c-0.368-0.155-0.524-0.418-0.628-0.733c-0.132-0.234-0.211-0.472-0.342-0.758
	c-0.132-0.316-0.343-0.42-0.656-0.42c-0.474,0.027-0.97,0.027-1.442,0c-0.366-0.026-0.604,0.132-0.814,0.394
	c-0.445,0.55-0.631,1.206-0.84,1.914c-0.027-0.133-0.053-0.262-0.157-0.262c-0.158,0-0.13,0.129-0.13,0.21
	c0,0.522-0.184,0.968-0.395,1.416c-0.133,0.341-0.237,0.654-0.133,1.022c0.133,0.342,0.237,0.656-0.341,0.735
	c0.341,0.262,0.604,0.315,0.944,0.157c0.211-0.079,0.445-0.209,0.656-0.236c0.366-0.054,0.393-0.314,0.263-0.551
	c-0.079-0.183-0.209-0.314-0.341-0.445c-0.184-0.262-0.313-0.578-0.052-0.971c0.078,0.393,0.314,0.629,0.551,0.837
	c0.235,0.21,0.419,0.472,0.445,0.813c0,0.132,0.054,0.262-0.157,0.367c-0.604,0.211-1.128,0.629-1.705,0.893
	c-0.392,0.183-0.55,0.418-0.654,0.785c-0.184,0.628-0.55,1.181-1.102,1.627c-0.155-0.369-0.313-0.709-0.444-1.023
	c-0.444-0.995-1.127-1.81-2.254-2.072c-0.578-0.13-0.761-0.524-0.997-0.918c-0.132-0.182-0.132-0.471,0.077-0.708
	c0.316-0.262,0.367-0.654,0.342-1.048c-0.025-0.445-0.079-0.892-0.158-1.337c-0.025-0.263-0.156-0.55,0.315-0.604
	c0.211-0.028,0.368-0.208,0.341-0.444c-0.028-0.263-0.236-0.133-0.394-0.133c-0.341-0.025-0.316-0.184-0.158-0.395
	c0.079-0.13,0.237-0.184,0.341-0.262c0.079-0.131,0.158-0.234,0.079-0.393c-0.025-0.13-0.13-0.184-0.262-0.184
	c-0.184,0-0.234,0.133-0.313,0.263c-0.077,0.211-0.13,0.445-0.42,0.42c-0.339-0.025-0.155-0.341-0.26-0.471
	c0-0.025-0.053-0.025-0.132-0.025c-0.053,0.13-0.053,0.262-0.158,0.392c-0.157,0.212-0.341,0.474-0.576,0.395
	c-0.445-0.158-0.891-0.077-1.336-0.025c-0.209,0.025-0.42,0.025-0.629,0.025c-0.078,0-0.21,0-0.21-0.132
	c0-0.133,0.131-0.132,0.21-0.158h0.183c0.132,0,0.263,0.026,0.342-0.132c0.054-0.156-0.053-0.261-0.184-0.366
	c-0.132-0.078-0.262-0.157-0.393-0.025c-0.13,0.132-0.237,0.262-0.367,0.42c-0.262-0.42-0.629-0.523-0.997-0.237
	c-0.079,0.055-0.212,0.187-0.157,0.342c0.052,0.132,0.157,0.186,0.315,0.157c0.208-0.025,0.549-0.157,0.574,0.079
	c0,0.237-0.366,0.054-0.551,0.132c-0.129,0.028-0.261-0.023-0.341,0.133c-0.078,0.186,0.054,0.236,0.187,0.366
	c0.392,0.422,0.524,0.919,0.234,1.392c-0.237,0.474-0.395,0.841,0.235,1.127c0.052,0.028,0.08,0.081,0.131,0.158
	c0.42,0.551,0.629,1.206,0.944,1.81c0.132,0.209-0.026,0.313-0.158,0.395c-0.313,0.209-0.629,0.417-0.97,0.603
	c-0.208,0.131-0.233,0.234-0.263,0.445c-0.051,0.604-0.129,1.284-0.471,1.782c-0.419,0.604-0.631,1.18-0.603,1.967
	c0.025,0.971-0.367,1.888-0.604,2.779c-0.054,0.235-0.236,0.209-0.395,0.209c-0.523,0-1.048-0.025-1.572,0
	c-0.392,0.027-0.55-0.077-0.575-0.444c-0.025-0.263-0.157-0.524-0.262-0.762c-0.342-0.812-0.813-1.572-0.838-2.464
	c0-0.156-0.052-0.367,0.054-0.446c0.156-0.129,0.34,0.028,0.471,0.079c0.341,0.186,0.656,0.395,1.022,0.474
	c0.184,0.025,0.368,0.078,0.474-0.157c0.368-0.787,0.918-1.599,0.814-2.489c-0.131-1.023,0.419-1.547,1.048-2.098
	c0.42-0.367,0.761-0.707,0.366-1.285c-0.053-0.13,0.054-0.339-0.132-0.366c-0.209-0.053-0.262,0.184-0.341,0.341
	c-0.027,0.051-0.053,0.13-0.158,0.077c-0.132-0.182,0.08-0.393,0-0.603c-0.549,0-0.394,0.813-0.918,0.813
	c-0.13-0.158,0.157-0.421-0.079-0.445c-0.26-0.027-0.26,0.234-0.339,0.445c-0.183,0.578-0.262,1.181-0.395,1.783
	c-0.129,0.604-0.313,1.179-0.628,1.703c-0.184,0.262-0.367,0.367-0.628,0.078c-0.367-0.341-0.787-0.577-1.207-0.839
	c-0.629-0.366-1.231-0.761-1.809-1.231c-0.261-0.211-0.367-0.395,0.027-0.578c0.42-0.184,0.523-0.552,0.445-0.97
	c-0.13-0.97-0.524-1.81-0.97-2.674c-0.604-1.182-0.604-1.182-1.888-0.892c-1.494,0.367-2.464,1.782-2.255,3.275
	c0.025,0.13,0.025,0.263,0.13,0.367c0.552,0.394,0.943,0.943,1.496,1.337c0.208,0.158,0.707,0.054,0.656,0.445
	c-0.025,0.263-0.211,0.579-0.341,0.814c-0.13,0.236-0.262,0.444-0.42,0.707c-0.445,0.708-0.97,1.362-1.337,2.15
	c-0.368,0.839-0.447,1.678,0.052,2.517c0.234,0.42,0.524,0.473,0.916,0.367c0.263-0.078,0.578-0.129,0.838-0.157
	c0.604-0.025,0.343,0.447,0.395,0.735c0.053,0.315-0.052,0.392-0.367,0.392c-1.048,0-2.149-0.025-3.225,0
	c-0.315,0-0.366-0.129-0.366-0.394c0-0.998-0.078-1.993-0.313-2.989c-0.184-0.84-0.367-1.677-1.102-2.28
	c-0.471-0.395-0.76-0.97-0.943-1.572c-0.079-0.313,0-0.445,0.315-0.524c0.445-0.054,0.837-0.262,1.231-0.445
	c0.341-0.158,0.42-0.395,0.263-0.735c-0.132-0.341-0.315-0.629-0.341-0.995c-0.026-0.395-0.184-0.604-0.604-0.524
	c-0.314,0.051-0.42-0.054-0.473-0.395c-0.052-0.393-0.313-0.733-0.419-1.125c-0.052-0.157-0.184-0.186-0.313-0.211
	c-1.313-0.236-2.808,0.211-3.489,1.521c-0.392,0.759-0.366,1.494-0.025,2.28c0.264,0.708,0.814,0.786,1.443,0.812
	c0.262,0,0.735,0.052,0.761,0.368c0.026,0.314-0.393,0.445-0.629,0.55c-0.366,0.132-0.445,0.341-0.472,0.656
	c-0.051,0.786-0.313,1.547-0.471,2.282c-0.262,1.023-0.576,2.019-0.576,3.095c0,0.445-0.133,0.574-0.577,0.574
	c-5.77-0.024-11.51,0-17.306-0.024c-0.444,0-0.549,0.13-0.549,0.577v49.756c0,0.445,0.156,0.549,0.575,0.549H43.2
	c0.42,0,0.55-0.076,0.55-0.549c-0.025-4.719,0-9.465-0.025-14.182c0-0.422,0.053-0.576,0.552-0.576h70.446
	c0.471,0,0.578,0.154,0.578,0.604c-0.027,4.717,0,9.463-0.027,14.182c0,0.416,0.133,0.521,0.552,0.521
	c2.413-0.025,4.877-0.025,7.313,0c0.473,0,0.604-0.133,0.604-0.604c0.362-10.146,0.362-20.24,0.362-30.332L124.076,93.287z
	 M49.355,70.737c-0.315,0.027-0.185-0.208-0.211-0.235c-0.051-0.341,0-0.473,0.265-0.444c0.236,0.024,0.447,0.129,0.42,0.392
	c0.027,0.314-0.263,0.263-0.471,0.287H49.355z M45.868,82.273c0-0.34-0.079-0.472-0.421-0.418c-0.444,0.078-0.575-0.131-0.55-0.552
	c0.027-0.394,0.027-0.786,0-1.205c-0.025-0.341,0.132-0.393,0.42-0.393c0.76,0,1.547,0.025,2.308,0c0.392,0,0.471,0.13,0.417,0.444
	c-0.027,0.158,0,0.315,0,0.445c0.472-0.603,1.049-0.917,1.782-1.021c0.262-0.053,0.42,0,0.392,0.339c-0.027,0.55,0,1.102,0,1.623
	c0,0.212-0.053,0.316-0.315,0.341c-1.311,0.212-1.783,0.761-1.809,2.097c0,0.419,0.025,0.893,0,1.312
	c-0.029,0.342,0.051,0.471,0.419,0.42c0.445-0.082,0.575,0.13,0.55,0.55c-0.028,0.419-0.028,0.812,0,1.231
	c0,0.237-0.028,0.366-0.315,0.366h-3.644c-0.263,0-0.342-0.081-0.342-0.341c0-0.474,0.026-0.969,0-1.442
	c0-0.315,0.132-0.369,0.395-0.369c0.628,0,0.628,0,0.628-0.656c0.079-0.941,0.079-1.859,0.079-2.779L45.868,82.273z M41.595,77.318
	c0.447,0,1.022-0.209,1.338,0.08c0.263,0.262,0.025,0.839,0.079,1.311c0.053,0.472-0.13,0.63-0.576,0.55
	c-0.183-0.026-0.392,0-0.574,0c-1.153,0-1.153,0-1.153-1.153c-0.025-0.787-0.025-0.787,0.891-0.787L41.595,77.318L41.595,77.318z
	 M40.678,85.106c-0.025-0.946-0.025-1.838,0-2.781c0-0.394-0.076-0.526-0.471-0.448c-0.419,0.055-0.575-0.078-0.524-0.523
	c0.025-0.421,0.025-0.84,0-1.311c0-0.236,0.054-0.341,0.341-0.341c0.892,0,1.759,0.025,2.649,0c0.315,0,0.341,0.129,0.341,0.364
	v5.191c0,0.341,0.054,0.471,0.422,0.42c0.472-0.079,0.708,0.078,0.629,0.603c-0.025,0.394-0.025,0.786,0,1.206
	c0,0.237-0.051,0.341-0.341,0.341h-3.726c-0.235,0-0.314-0.078-0.314-0.315c0-0.447,0.025-0.945,0-1.392
	c-0.026-0.366,0.079-0.524,0.445-0.446c0.474,0.077,0.577-0.131,0.552-0.576L40.678,85.106z M36.064,91.869
	c-0.026,1.205-0.026,2.41,0,3.643c0,0.314-0.052,0.445-0.418,0.445c-0.707-0.025-1.361-0.025-2.071,0
	c-0.313,0-0.42-0.053-0.42-0.393c0.028-0.42,0-0.814,0-1.234c0-0.236-0.076-0.34-0.341-0.34h-3.071
	c-0.262,0-0.367,0.129-0.367,0.367v3.063c0,0.315,0.131,0.367,0.393,0.367h3.515c0.341,0,0.448,0.08,0.419,0.42
	c-0.025,0.446-0.025,0.94,0,1.388c0,0.313-0.076,0.396-0.392,0.396H29.85c-0.366,0-0.524,0.073-0.472,0.471
	c0.025,0.996,0.025,2.019,0,3.041c0,0.313,0.052,0.444,0.393,0.416c0.314-0.026,0.604,0,0.917,0c0.237,0,0.341,0.076,0.341,0.34
	c0,0.604-0.025,1.181,0,1.783c0,0.263-0.131,0.34-0.341,0.34h-5.427c-0.263,0-0.367-0.079-0.367-0.364
	c0.025-0.554,0.025-1.131,0-1.681c0-0.262,0.079-0.42,0.369-0.394c0.235,0.023,0.471-0.028,0.733,0
	c0.42,0.052,0.551-0.082,0.551-0.528c-0.025-2.308,0-4.612,0-6.92v-2.203c0-0.313-0.076-0.442-0.392-0.418h-0.079
	c-1.127,0-1.153,0-1.127-1.131c0-0.421-0.209-0.97,0.132-1.229c0.263-0.238,0.786-0.056,1.206-0.056h9.334
	c0.341-0.104,0.499-0.054,0.445,0.394L36.064,91.869z M35.646,87.83c-0.549-0.028-1.127-0.028-1.677,0
	c-0.263,0-0.366-0.079-0.418-0.369c-0.444-1.967-0.97-3.908-1.439-5.898c-0.313,0.365-0.313,0.786-0.393,1.152
	c-0.42,1.572-0.813,3.174-1.179,4.8c-0.051,0.313-0.209,0.341-0.445,0.341c-0.521,0-1.046-0.028-1.57,0
	c-0.341,0.023-0.471-0.054-0.549-0.395c-0.551-2.021-1.103-4.063-1.627-6.082c-0.158-0.526-0.262-1.025-0.392-1.521
	c-0.054-0.316-0.262-0.316-0.524-0.316c-0.341,0.026-0.447-0.08-0.42-0.421c0.025-0.446,0.025-0.944,0-1.39
	c0-0.263,0.079-0.369,0.366-0.369h3.619c0.236,0,0.341,0.079,0.341,0.341c0,0.446-0.026,0.942,0,1.39
	c0.025,0.341-0.079,0.521-0.445,0.445c-0.315-0.028-0.42,0.025-0.341,0.392c0.341,1.206,0.603,2.411,0.891,3.643
	c0.025,0,0.053-0.026,0.078-0.026c0.367-1.521,0.708-2.99,1.049-4.509c0.025-0.158,0.054-0.313,0.133-0.445
	c0.132-0.395,0.027-0.919,0.343-1.128c0.342-0.235,0.838-0.053,1.282-0.053c0.998,0,0.973,0,1.182,0.97l1.18,5.191
	c0.028,0.079,0.055,0.157,0.133,0.314c0.341-1.389,0.654-2.699,0.97-4.013c0.054-0.313-0.158-0.263-0.315-0.236
	c-0.42,0.054-0.575-0.129-0.524-0.55c0.025-0.42,0.025-0.813,0-1.231c-0.025-0.315,0.079-0.42,0.395-0.42
	c1.181,0.026,2.333,0,3.515,0c0.262,0,0.392,0.078,0.392,0.392c-0.025,0.472-0.025,0.971,0,1.441c0,0.313-0.13,0.419-0.392,0.366
	c-0.367-0.054-0.472,0.079-0.578,0.445c-0.654,2.517-1.361,5.033-2.019,7.551c-0.209,0.132-0.315,0.185-0.603,0.185L35.646,87.83z
	 M48.94,98.684v4.691c0,0.393,0.079,0.521,0.524,0.521c0.891-0.027,0.891,0,0.891,0.893v1.205c0,0.236-0.051,0.367-0.313,0.367
	h-3.386c-0.263,0-0.342-0.133-0.342-0.367v-0.971c-0.366,0.34-0.628,0.654-0.97,0.891c-1.598,1.049-4.011,0.969-5.715-0.236
	c-1.914-1.365-2.779-3.279-2.491-5.611c0.315-2.358,1.68-4.063,3.959-4.854c1.941-0.656,3.751-0.391,5.245,1.416V95.5
	c0-0.236,0.053-0.34,0.341-0.34h3.382c0.237,0,0.315,0.076,0.315,0.313v1.812c0,0.233-0.078,0.34-0.341,0.34
	c-0.343,0-0.786-0.185-0.997,0.078c-0.209,0.209-0.104,0.629-0.104,0.969L48.94,98.684z M101.35,65.676
	c-0.154,0-0.313-0.055-0.209-0.263c0.209-0.604,0.42-1.231,0.892-1.73c0.315-0.342,0.735-0.526,1.181-0.552
	c0.158,0,0.264,0.053,0.342,0.21c0.42,0.943,0.84,1.887,1.285,2.803c0.027,0.054,0.053,0.183,0.027,0.237
	c-0.055,0.129-0.158,0.024-0.237,0c-1.129-0.265-2.149-0.604-3.276-0.708L101.35,65.676z M91.675,72.91
	c0.158-0.736,0.42-1.39,0.97-1.941c0,0.733-0.079,1.415-0.263,2.122c-0.078,0.367-0.392,0.184-0.604,0.184
	c-0.286-0.028-0.104-0.236-0.104-0.369L91.675,72.91L91.675,72.91z M90.023,72.831c0.132,0.26,0.132,0.471-0.313,0.445
	c-0.55-0.027-1.1,0-1.623,0c-0.184,0-0.341-0.027-0.367-0.265c-0.212-0.969-0.42-1.94-0.656-2.99
	c1.287,0.681,2.412,1.441,2.964,2.806L90.023,72.831z M81.188,71.702c0.079-0.08,0.054-0.341,0.054-0.579
	c0.236,0.654,0.315,1.312,0.394,1.966c0,0.13-0.025,0.183-0.154,0.183c-0.158,0-0.209-0.079-0.235-0.236
	c-0.104-0.422-0.47-0.84-0.051-1.338L81.188,71.702z M79.772,80.512c1.155-1.022,3.568-1.521,5.087,0.076
	c0-0.262-0.025-0.444,0-0.603c0.054-0.445-0.025-0.762-0.577-0.632c-0.234,0.025-0.313-0.078-0.313-0.315v-1.389
	c0-0.237,0.054-0.367,0.344-0.344c0.812,0,1.677,0.025,2.489,0c0.394,0,0.342,0.234,0.342,0.471v7.316
	c0,0.417,0.055,0.654,0.578,0.575c0.237-0.054,0.341,0.079,0.341,0.341c0,0.471-0.025,0.97,0,1.44c0,0.313-0.076,0.395-0.392,0.366
	c-0.786-0.027-1.573-0.027-2.359,0c-0.392,0-0.574-0.078-0.523-0.474v-0.341c-0.971,0.916-2.019,1.103-3.25,0.84
	c-0.97-0.21-1.757-0.707-2.359-1.521c-1.206-1.729-0.941-4.457,0.603-5.82L79.772,80.512z M75.708,70.101
	c0.708,0.631,2.177,2.57,2.388,3.174h-1.573c-0.129,0-0.208-0.025-0.262-0.157c-0.313-0.813-0.708-1.573-0.656-2.49
	c-0.052-0.157,0-0.341,0.106-0.523L75.708,70.101z M68.159,71.412c0.052-0.443,0.157-0.889,0.706-0.971l0.028-0.023
	c1.234-0.577,1.418-0.419,1.339,0.944c-0.026,0.551-0.184,1.102-0.234,1.678c-0.026,0.236-0.157,0.341-0.392,0.313H69.21
	c-1.1,0-1.1,0-1.1-1.127c0.054-0.315,0.028-0.577,0.054-0.813L68.159,71.412L68.159,71.412z M66.114,70.837
	c0.604,0.734,0.789,1.521,0.998,2.308v0.079c-0.262,0.184-0.578,0.025-0.892,0.078c-0.208,0.025-0.235-0.133-0.235-0.262
	c-0.025-0.735-0.025-1.418,0.132-2.203H66.114z M64.99,77.313c0.47,0,1.048-0.209,1.389,0.079c0.263,0.234,0.028,0.813,0.08,1.229
	c0.052,0.523-0.131,0.707-0.604,0.603c-0.184-0.024-0.396,0-0.578,0c-1.127,0-1.127,0-1.127-1.102
	c-0.026-0.814-0.026-0.814,0.84-0.814V77.313z M60.165,70.183c0.524,0.654,0.263,1.23,0.054,1.809
	c-0.13,0.26-0.315,0.55-0.395,0.813c-0.156,0.471-0.445,0.549-0.944,0.42C59.404,72.279,59.981,71.362,60.165,70.183z
	 M52.663,91.473c0.314-0.262,0.918-0.053,1.39-0.078c1.102,0,1.102,0,1.102,1.103v0.369c-0.053,0.366,0.209,0.942-0.079,1.206
	c-0.262,0.209-0.813,0.078-1.232,0.054c-0.394,0-0.917,0.183-1.152-0.054c-0.237-0.235-0.079-0.762-0.054-1.151
	c-0.053-0.524-0.289-1.155,0.025-1.442V91.473z M56.544,106.184c-0.315,0.314-0.893,0.08-1.338,0.08
	c-1.18,0.023-2.359-0.027-3.539,0.023c-0.474,0-0.604-0.154-0.578-0.602c0.027-0.472,0.027-0.996,0-1.492
	c0-0.264,0.079-0.367,0.367-0.367c0.367,0,0.813,0.182,1.049-0.078c0.236-0.262,0.079-0.734,0.079-1.127v-4.668
	c0-0.34-0.079-0.42-0.421-0.42c-1.049,0-1.049,0-1.049-1.049v-1.047c0-0.236,0.053-0.367,0.342-0.367h3.383
	c0.366,0,0.339,0.207,0.339,0.445v7.813c0,0.367,0.079,0.523,0.473,0.523c0.998,0,0.998,0,0.973,0.996
	c-0.025,0.498,0.184,1.073-0.079,1.338L56.544,106.184L56.544,106.184z M55.888,87.857c-0.209,0.051-0.262-0.079-0.262-0.263v-1.022
	c0.054-0.34-0.184-0.891,0.079-1.125c0.235-0.21,0.761-0.054,1.154-0.054h0.473c0.316-0.027,0.448,0.026,0.553,0.367
	c0.184,0.553,1.049,0.734,1.494,0.341c0.366-0.341,0.211-0.918-0.313-1.102c-0.604-0.21-1.286-0.314-1.889-0.55
	c-1.232-0.525-1.781-1.521-1.573-2.858c0.184-1.128,1.181-1.94,2.412-1.993c0.604-0.025,1.207-0.025,1.759,0.315
	c0.054,0.027,0.132,0.131,0.209,0.052c0.448-0.446,1.022-0.131,1.547-0.21c0.212-0.026,0.212,0.158,0.212,0.313V81.8
	c0,0.263-0.133,0.341-0.341,0.315h-1.055c-0.392,0-0.76,0.054-0.943-0.472c-0.133-0.341-0.524-0.313-0.814-0.234
	c-0.26,0.055-0.471,0.212-0.523,0.527c-0.052,0.341,0.132,0.55,0.394,0.707c0.55,0.237,1.128,0.341,1.705,0.524
	c0.761,0.263,1.494,0.577,1.81,1.415c0.603,1.602-0.445,3.383-2.15,3.564c-0.761,0.08-1.522,0.133-2.176-0.338
	c-0.054-0.028-0.184-0.08-0.209-0.055c-0.417,0.392-1.021-0.027-1.547,0.105L55.888,87.857z M64.355,97.715
	c-1.205,0.156-2.175,0.734-2.646,1.939c-0.158,0.393-0.184,0.813-0.184,1.207c-0.027,0.891,0,1.729,0,2.596
	c0,0.34,0.053,0.443,0.42,0.443c1.022,0,1.022,0.029,1.022,1.051c0,0.447,0.21,0.996-0.078,1.285
	c-0.263,0.236-0.813,0.051-1.233,0.051h-3.646c-0.341,0-0.47-0.051-0.47-0.445c0.025-0.549,0.025-1.102,0-1.623
	c0-0.264,0.078-0.369,0.366-0.369c0.341,0,0.786,0.16,0.995-0.078c0.209-0.235,0.052-0.707,0.052-1.047v-4.668
	c0-0.367-0.053-0.524-0.445-0.471c-0.971,0.025-0.971,0-0.971-0.973v-1.154c0-0.236,0.079-0.342,0.341-0.342h3.173
	c0.235,0,0.341,0.08,0.341,0.342V96.9c0.472-0.654,0.943-1.152,1.572-1.441c0.473-0.209,0.97-0.342,1.442-0.393
	c0.209-0.025,0.341,0.024,0.341,0.262V97.4C64.723,97.637,64.566,97.689,64.355,97.715L64.355,97.715z M63.465,87.831
	c-0.314,0-0.393-0.078-0.393-0.394c0.026-0.418,0.026-0.891,0-1.311c-0.025-0.366,0.078-0.55,0.473-0.471
	c0.472,0.078,0.576-0.131,0.576-0.576c-0.024-0.944-0.024-1.887,0-2.807c0-0.365-0.078-0.523-0.445-0.419
	c-0.419,0.077-0.603-0.081-0.55-0.552c0.027-0.421,0.027-0.84,0-1.311c0-0.209,0.053-0.315,0.314-0.315h2.7
	c0.263,0,0.314,0.13,0.314,0.341v2.646c0,0.838,0.026,1.703,0,2.543c0,0.341,0.055,0.521,0.42,0.444
	c0.474-0.079,0.657,0.077,0.604,0.575c-0.054,0.524,0.209,1.155-0.13,1.494c-0.315,0.313-0.944,0.051-1.418,0.079
	c-0.812,0.025-1.65,0.025-2.462,0.025L63.465,87.831z M71.854,105.973c0,0.234-0.079,0.34-0.342,0.34h-3.934
	c-0.342,0-0.315-0.182-0.315-0.393v-7.943c0-0.313-0.079-0.42-0.394-0.393c-0.341,0.027-0.656,0-0.997,0
	c-0.236,0-0.395-0.053-0.395-0.34v-1.783c0-0.236,0.052-0.367,0.339-0.342h0.157c0.421-0.025,0.97,0.184,1.232-0.078
	c0.234-0.264,0.051-0.787,0.051-1.207v-2.072c0-0.26,0.079-0.367,0.366-0.367h1.888c0.263,0,0.367,0.082,0.367,0.369v2.939
	c0,0.369,0.13,0.471,0.445,0.443c0.366-0.023,0.733,0,1.103,0c0.233,0,0.338,0.08,0.338,0.342v1.809
	c0,0.213-0.079,0.316-0.341,0.316h-1.234c-0.236,0-0.341,0.053-0.341,0.34v5.611c0,0.264,0.079,0.369,0.367,0.369
	c0.419-0.025,0.89,0,1.31,0c0.263,0,0.367,0.078,0.367,0.366c-0.054,0.525-0.054,1.101-0.054,1.679L71.854,105.973z M72.563,86.258
	c-0.025,0.394-0.025,0.786,0,1.206c0,0.236-0.053,0.366-0.341,0.366h-3.618c-0.263,0-0.368-0.131-0.341-0.366
	c0-0.472,0.025-0.971,0-1.442c0-0.264,0.077-0.341,0.367-0.341c0.655,0,0.655-0.028,0.655-0.708c0-0.918-0.027-1.783,0-2.702
	c0-0.341-0.053-0.524-0.421-0.445c-0.418,0.077-0.602-0.079-0.55-0.552c0.025-0.392,0.025-0.785,0-1.206
	c-0.026-0.313,0.054-0.419,0.394-0.419c0.761,0.026,1.548,0.026,2.309,0c0.419-0.026,0.552,0.131,0.473,0.524
	c-0.025,0.132,0,0.237,0,0.445c0.84-0.996,1.835-1.311,3.041-1.048c1.234,0.261,1.992,1.153,2.071,2.412
	c0.027,1.021,0.027,2.097,0.027,3.119c0,0.393,0.079,0.577,0.472,0.523c0.473-0.079,0.603,0.13,0.578,0.575
	c-0.026,0.42-0.026,0.814,0,1.233c0,0.234-0.08,0.341-0.341,0.341c-0.919,0-1.811-0.026-2.727,0c-0.314,0-0.341-0.158-0.341-0.394
	v-4.373c-0.051-0.893-0.471-1.337-1.231-1.364c-0.732,0-1.362,0.552-1.415,1.338c-0.026,0.787,0,1.599-0.026,2.386
	c0,0.341,0.212,0.262,0.396,0.236c0.523-0.023,0.628,0.211,0.577,0.656H72.563z M79.746,97.715c-0.786,0.076-1.52,0.391-2.071,0.994
	c-0.421,0.447-0.655,0.945-0.655,1.549c-0.026,1.098-0.026,2.201-0.052,3.301c0,0.262,0.13,0.365,0.366,0.365
	c0.339,0,0.759-0.156,0.97,0.078c0.209,0.234,0.052,0.654,0.052,1.023v1.309c-0.054,0.209-0.237,0.158-0.395,0.158h-4.589
	c-0.42,0-0.604-0.184-0.577-0.604c0.025-0.523,0-1.023,0-1.521c0-0.42,0.184-0.576,0.577-0.576h0.97
	c0-1.965,0.025-3.932,0.025-5.898c0-0.209-0.078-0.264-0.315-0.264h-0.236c-0.918,0-0.918,0-0.918-0.918v-1.207
	c0-0.234,0.051-0.34,0.341-0.34h3.17c0.263,0,0.367,0.078,0.367,0.367v1.205c0.236-0.053,0.315-0.262,0.42-0.393
	c0.707-0.785,1.572-1.152,2.596-1.285c0.209-0.023,0.313,0.026,0.313,0.237v2.121c-0.025,0.209-0.157,0.263-0.366,0.289
	L79.746,97.715z M93.852,106.313h-3.303c-0.262,0-0.368-0.078-0.368-0.369c0.027-0.313,0-0.604,0-1.02
	c-0.55,0.629-1.102,1.102-1.756,1.336c-1.992,0.732-3.853,0.34-5.426-0.996c-3.303-2.781-2.596-7.971,1.311-9.859
	c1.889-0.916,4.275-0.84,5.769,1.021c0,0.029,0.055,0.029,0.133,0.029v-1.052c0-0.209,0.079-0.313,0.315-0.313h3.427
	c0.261,0,0.341,0.132,0.341,0.343v1.782c0,0.263-0.132,0.341-0.394,0.341c-1.023,0.026-1.023,0.026-1.023,1.049v4.746
	c0,0.393,0.132,0.473,0.473,0.473c0.944,0,0.944,0,0.944,0.943c0,0.366-0.026,0.733,0,1.102c-0.053,0.342-0.157,0.445-0.446,0.445
	H93.852z M107.799,106.313c-1.102,0-2.176-0.026-3.275,0c-0.313,0-0.366-0.131-0.366-0.393c0.024-0.367,0-0.734,0-1.205
	c-0.63,0.787-1.312,1.336-2.177,1.547c-2.175,0.576-4.088,0-5.61-1.627c-1.494-1.6-1.938-3.539-1.285-5.639
	c0.735-2.199,2.283-3.564,4.616-3.932c1.599-0.262,2.988,0.235,4.115,1.391c0.054,0.053,0.158,0.129,0.262,0.234v-2.648
	c0-0.131-0.051-0.209-0.208-0.209h-0.185c-1.047-0.025-1.047-0.025-1.047-1.1c0-0.42-0.185-0.971,0.077-1.232
	c0.263-0.262,0.812-0.08,1.231-0.08c0.736,0,1.496,0.027,2.203,0c0.396-0.025,0.527,0.133,0.527,0.525c0,3.775,0,7.578-0.025,11.404
	c0,0.471,0.078,0.631,0.604,0.602c0.84-0.025,0.84,0,0.84,0.814v1.207c0.104,0.207,0.025,0.338-0.287,0.338L107.799,106.313z
	 M119.23,72.702c0.235,0,0.314,0.13,0.314,0.313c0.025,0.21-0.054,0.236-0.236,0.263c-0.234,0-0.314-0.131-0.343-0.314
	c-0.024-0.184,0.104-0.236,0.263-0.263L119.23,72.702z M109.348,71.705c0.182,0.549,0.026,0.969-0.078,1.387
	c-0.134,0.342-0.396,0.08-0.658,0.238c0.209-0.604,0.289-1.182,0.734-1.627L109.348,71.705z M120.305,101.279
	c-0.023,0.367-0.183,0.42-0.522,0.42h-7.998c-0.472,0-0.524,0.051-0.367,0.471c0.919,2.334,4.04,2.885,5.665,0.996
	c0.158-0.184,0.314-0.211,0.473-0.211c0.631,0,1.285,0.027,1.914,0c0.422-0.027,0.422,0.158,0.237,0.42
	c-0.917,1.678-2.255,2.754-4.144,3.092c-3.119,0.576-6.188-1.494-6.738-4.615c-0.575-3.147,1.154-6.186,4.354-6.947
	c3.254-0.76,6.609,1.39,7.026,4.824c0.187,0.551,0.187,1.021,0.106,1.549L120.305,101.279z M39.263,69.166h0.236
	c0.131,0,0.209-0.051,0.209-0.182c0.157-0.734,0.394-1.417,0.394-2.15c0-0.158-0.026-0.262-0.184-0.395
	c-1.18-0.918-1.547-2.752-0.891-4.09c0.97-1.835,2.857-2.255,4.745-1.914c0.341,0.053,0.552,0.184,0.577,0.604
	c0.025,0.341,0.209,0.708,0.42,0.971c0.133,0.155,0.446,0.052,0.71,0.052c0.341-0.028,0.42,0.13,0.366,0.42
	c-0.051,0.444,0.028,0.891,0.212,1.311c0.552,1.363,0.419,1.598-0.917,2.254c-0.603,0.313-0.629,0.367-0.157,0.838
	c0.578,0.604,1.154,1.179,1.285,2.071c0.027,0.262,0.577,0.366,0.71,0.079c0.473-0.995,1.152-1.835,1.73-2.754
	c0.078-0.157,0.053-0.263-0.13-0.366c-0.629-0.369-0.995-1.049-1.677-1.39c-0.052-0.027-0.08-0.133-0.131-0.208
	c-0.445-1.207,0.131-3.174,1.153-4.013c0.995-0.761,2.125-1.026,3.356-0.999c0.314,0,0.471,0.055,0.577,0.396
	c0.076,0.366,0.313,0.707,0.472,1.021c0.523,1.022,0.997,2.097,1.102,3.277c0.027,0.471-0.234,1.023,0.132,1.389
	c0.341,0.367,0.84,0.551,1.285,0.813c0.025,0.025,0.053,0.025,0.078,0.025c0.342,0.26,0.474,0.156,0.578-0.236
	c0.184-0.84,0.366-1.704,0.578-2.52c0.132-0.392,0.157-0.918,0.735-0.943c0.315,0,0.55-0.052,0.813-0.212
	c0.237-0.157,0.524-0.208,0.813-0.132c0.315,0.132,0.523-0.079,0.631-0.313c0.13-0.236,0.366-0.577,0.076-0.788
	c-0.524-0.393-0.392-0.919-0.392-1.416c0-0.63,0.315-0.996,0.891-1.233c0.395-0.158,0.761-0.025,1.127-0.132
	c0.577-0.129,1.102-0.054,1.521,0.445c0.156,0.183,0.42,0.578,0.576-0.053c0.027-0.077,0.185-0.158,0.315-0.21
	c0.551-0.261,1.18-0.209,1.758-0.368c0.314-0.079,0.786,0,0.969,0.393c0.263,0.549,0.158,1.177,0.237,1.78
	c0.052,0.34-0.027,0.733-0.367,0.942c-0.262,0.184-0.234,0.394-0.184,0.656c0.184,0.732,0.133,1.415-0.233,2.097
	c-0.183,0.367-0.027,0.524,0.341,0.604c0.919,0.262,1.601,0.787,2.15,1.547c0.158,0.209,0.236,0.445,0.471,0.604
	c0.054-0.42,0.445-0.787,0-1.181c-0.025-0.028-0.025-0.158,0-0.237c0.211-0.577,0.262-1.152,0.395-1.756
	c0.133-0.631,0.577-1.184,0.447-1.89c-0.051-0.341-0.078-0.63,0.396-0.657c0.208,0,0.261-0.236,0.341-0.394
	c0.183-0.55,0.549-0.944,0.916-1.364c0.211-0.236,0.42-0.341,0.761-0.316c0.656,0.026,1.311,0.026,1.968,0
	c0.471-0.027,0.812,0.158,1.047,0.551c0.131,0.183,0.237,0.366,0.342,0.577c0.315,0.708,0.315,0.733,1.022,0.521
	c0.313-0.078,0.34,0,0.26,0.263c-0.078,0.367-0.209,0.732-0.051,1.049c0.158,0.315,0.158,0.628,0.079,0.943
	c-0.079,0.364,0.053,0.602,0.315,0.838c0.078,0.077,0.209,0.184,0.341,0.261c0.211,0.157,0.262,0.314,0.027,0.447
	c-0.078,0.051-0.157,0.154-0.235,0.208c-0.263,0.184-0.313,0.341-0.026,0.575c0.42,0.367,0.735,0.812,1.022,1.283
	c0.263,0.395,0.421,0.893,0.787,1.232c0.315-0.654,0.814-1.128,1.339-1.573c0.444-0.421,0.473-0.524-0.08-0.786
	c-0.837-0.396-1.336-1.023-1.598-1.889c-0.341-0.995-0.445-1.992-0.025-2.99c0.42-0.995,1.234-1.493,2.282-1.68
	c0.813-0.154,1.599-0.025,2.358,0.184c0.419,0.13,0.551,0.732,0.813,1.125c0.079,0.132,0.131,0.237,0.184,0.395
	c0.395,0.89,0.761,1.759,0.603,2.753c-0.078,0.55,0.055,0.813,0.629,0.892c1.181,0.157,2.201,0.577,3.095,1.414
	c0.473,0.474,0.996,0.944,1.6,1.339c0.234,0.158,0.34,0.079,0.443-0.131c0.183-0.341,0.395-0.628,0.656-0.915
	c0.184-0.187,0.184-0.263,0-0.448c-0.367-0.392-0.47-1.784-0.129-2.122c0.235-0.237,0.365-0.474,0.444-0.761
	c0.079-0.262,0.237-0.42,0.578-0.211c0.157,0.132,0.366,0.157,0.628,0.028c-0.341-0.21-0.392-0.525-0.366-0.813
	c0.053-0.603-0.132-1.206,0.079-1.836c0.079-0.261,0-0.603-0.054-0.915c-0.079-0.448-0.184-0.919-0.263-1.364
	c0.184,0,0.316,0.132,0.395,0.209c0.473,0.524,0.998,0.917,1.756,0.524c0.054-0.025,0.132,0,0.184,0
	c0.578-0.025,1.127,0.052,1.677,0.183c0.262,0.054,0.395,0.133,0.369,0.42c-0.025,0.184,0,0.341,0.237,0.367
	c1.363,0.155,2.07,1.021,2.49,2.254c0.209,0.604,0.314,1.206,0.472,1.939c0.655-0.707,1.415-1.179,2.176-1.572
	c0.839-0.446,1.781-0.708,2.309-1.601c0.023-0.077,0.156-0.131,0.207-0.182c0.918-0.604,1.889-0.707,2.909-0.394
	c1.888,0.55,2.938,1.886,2.283,4.115c-0.158,0.523-0.474,0.915-0.71,1.389c-0.184,0.445-0.13,0.708,0.341,0.812
	c1.022,0.235,1.705,0.944,2.283,1.757c0.262,0.394,0.522,0.839,0.891,1.152c0.341,0.315,0.786,0.237,0.917-0.155
	c0.184-0.553,0.575-0.711,1.022-0.814c0.708-0.156,0.731-0.209,0.524-0.892c-0.209-0.761-0.395-1.545-0.263-2.359
	c0.078-0.759,0.341-1.52,1.022-1.913c0.523-0.263,0.629-0.629,0.656-1.153c0-0.13-0.027-0.235,0.076-0.393
	c0.76,0.395,1.572,0.577,2.413,0.474c0.21-0.028,0.444,0.024,0.655,0c0.263-0.028,0.474,0.078,0.656,0.314
	c0.444,0.522,0.762,1.126,1.39,1.493c0.185,0.079,0.026,0.212,0,0.341c-0.157,0.395-0.341,0.761-0.157,1.207
	c0.184,0.473,0.131,0.972,0.131,1.496c0,0.368-0.185,0.577-0.551,0.603c-0.395,0.028-0.656,0.316-0.943,0.524
	c-0.209,0.184-0.236,0.316,0.024,0.447c0.315,0.157,0.604,0.369,0.813,0.604c0.236,0.262,0.524,0.368,0.892,0.368h47.835
	c0.184,0,0.341,0.051,0.577-0.081c-0.185-0.184-0.343-0.342-0.524-0.471c-2.307-1.942-4.64-3.881-6.945-5.82
	c-2.151-1.81-4.303-3.644-6.45-5.454c-2.962-2.49-5.952-4.981-8.914-7.445c-2.202-1.837-4.433-3.724-6.636-5.611
	c-0.207-0.184-0.443-0.262-0.784-0.262c-28.685,0.026-57.471,0.026-86.26,0.026c-0.314,0-0.523,0.078-0.735,0.26
	c-1.231,1.049-2.491,2.097-3.723,3.146c-2.122,1.781-4.247,3.54-6.372,5.32c-3.407,2.884-6.792,5.716-10.225,8.573
	c-2.995,2.498-5.982,5.016-8.972,7.481c-0.131,0.079-0.263,0.184-0.342,0.393h0.364c5.298,0.132,10.698,0.132,16.126,0.132
	L39.263,69.166z M170.956,123.621V73.78c0-0.42-0.077-0.524-0.522-0.524h-41.818c-0.42,0-0.523,0.131-0.523,0.524v49.867
	c0,0.42,0.077,0.524,0.523,0.524h41.814C170.85,124.172,170.955,124.041,170.956,123.621L170.956,123.621z M135.85,82.379
	c0.026-0.051,0.078-0.077,0.236-0.208c-0.367,1.102-0.628,2.071-0.761,3.067c-0.524,3.747,0.524,7.051,3.118,9.805
	c1.758,1.887,3.619,3.723,5.088,5.871c1.391,1.994,2.307,4.17,2.176,6.66c-0.053,1.547-0.445,3.041-1.102,4.43
	c-0.131,0.264-0.234,0.342-0.551,0.236c-2.699-0.838-5.087-2.201-7.156-4.143c-3.355-3.146-5.321-7.025-5.768-11.642
	C130.711,91.109,132.311,86.416,135.85,82.379L135.85,82.379z M132.65,118.035c0.234,0,0.472,0.027,0.731,0
	c0.315-0.025,0.447,0.027,0.447,0.393c0,0.393-0.21,0.367-0.446,0.367h-1.494c-0.262,0-0.365,0.053-0.365,0.342
	c0.026,0.523-0.025,1.049,0,1.574c0.026,0.393-0.185,0.393-0.446,0.393c-0.233,0-0.472,0.051-0.472-0.367
	c0.026-0.76,0-1.549,0-2.309v-2.254c0-0.264,0.026-0.42,0.396-0.42c0.943,0.027,1.837,0.027,2.777,0
	c0.316,0,0.369,0.133,0.369,0.393c0,0.265-0.025,0.42-0.392,0.42c-0.63-0.024-1.282,0-1.914,0c-0.209,0-0.313,0.056-0.313,0.314
	c-0.051,1.154-0.075,1.154,1.128,1.154H132.65z M138.104,121.104c-0.444,0.025-0.707-0.133-0.761-0.578
	c-0.026-0.393-0.235-0.549-0.629-0.473c-0.366,0.029-0.733,0.029-1.103,0c-0.394-0.025-0.631,0.055-0.631,0.473
	c-0.027,0.55-0.365,0.629-0.84,0.604c-0.211-0.024-0.314-0.024-0.211-0.313c0.551-1.602,1.103-3.227,1.598-4.799
	c0.131-0.369,0.42-0.186,0.63-0.211c0.444-0.133,0.604,0.078,0.735,0.471c0.471,1.494,0.994,2.961,1.52,4.431
	c0.076,0.26,0.051,0.364-0.314,0.394L138.104,121.104z M140.018,120.762c0,0.42-0.263,0.262-0.472,0.314
	c-0.211,0.027-0.421,0.053-0.421-0.34c0.025-0.787,0-1.576,0-2.363c0-0.76,0.025-1.545,0-2.309
	c-0.025-0.394,0.186-0.367,0.421-0.367c0.209,0,0.472-0.08,0.445,0.34c0.024,1.6,0.024,3.146,0.024,4.719v0.006H140.018z
	 M144.291,121.074c-0.209,0-0.264-0.154-0.342-0.26c-0.262-0.472-0.524-0.996-0.786-1.494c-0.131-0.207-0.892-0.391-1.048-0.207
	c-0.077,0.078-0.053,0.207-0.053,0.314c0,0.446-0.024,0.942,0,1.391c0.028,0.369-0.232,0.264-0.42,0.264
	c-0.183-0.025-0.471,0.184-0.471-0.236v-4.854c0-0.209,0.079-0.236,0.262-0.236c0.711,0,1.392-0.027,2.125,0.027
	c0.787,0.051,1.34,0.549,1.494,1.203c0.184,0.813-0.051,1.414-0.785,1.811c-0.234,0.129-0.209,0.211-0.078,0.391
	c0.342,0.604,0.658,1.207,1.022,1.888h-0.915L144.291,121.074L144.291,121.074z M149.221,116.199
	c0.025,0.184,0.053,0.422-0.236,0.367h-0.08c-0.365,0.026-0.891-0.187-1.1,0.078c-0.187,0.233-0.054,0.705-0.054,1.047
	c0,0.996-0.026,1.965,0,2.963c0,0.391-0.185,0.391-0.444,0.391c-0.264,0-0.475,0.027-0.449-0.365c0.026-0.604,0-1.234,0-1.891
	c0-0.602-0.024-1.205,0-1.809c0.026-0.342-0.053-0.525-0.418-0.445c-0.188,0.025-0.369-0.029-0.524,0
	c-0.474,0.078-0.554-0.184-0.524-0.578c0-0.184,0.051-0.238,0.234-0.238h3.382c0.366,0,0.209,0.289,0.209,0.473L149.221,116.199z
	 M146.256,93.939c-2.727-0.838-5.006-2.308-6.291-4.979c-1.939-3.961-0.445-9.282,3.906-11.354c2.568-1.234,5.297-1.547,8.128-1.234
	c3.485,0.393,6.58,1.677,9.308,3.881c2.596,2.122,4.482,4.797,5.61,7.972c1.206,3.461,1.312,6.998,0.55,10.537
	c-0.603,2.725-1.809,5.19-3.564,7.366c-0.053,0.052-0.053,0.156-0.209,0.129c0-0.655-0.053-1.338-0.157-2.021
	c-0.341-2.411-1.574-4.301-3.619-5.661c-2.097-1.392-4.405-2.283-6.815-2.938c-2.308-0.604-4.642-0.996-6.845-1.705L146.256,93.939
	L146.256,93.939z M152.418,120.369c-0.184-0.367-0.393-0.734-0.576-1.102c-0.078-0.185-0.184-0.211-0.367-0.236
	c-0.732-0.023-0.732-0.051-0.732,0.709c0,0.262-0.025,0.551,0,0.813c0.054,0.445-0.131,0.551-0.551,0.551
	c-0.365,0-0.392-0.153-0.392-0.442c0-1.496,0.027-2.964,0-4.457c0-0.367,0.079-0.445,0.448-0.445c0.602,0.027,1.205,0,1.809,0.027
	c1.207,0.024,1.967,1.101,1.573,2.202c-0.08,0.314-0.263,0.576-0.55,0.705c-0.525,0.187-0.367,0.425-0.184,0.763
	c0.314,0.526,0.576,1.049,0.891,1.573c-0.917,0.132-0.917,0.132-1.361-0.657L152.418,120.369z M158.525,121.104
	c-0.443,0.027-0.705-0.131-0.758-0.576c-0.027-0.366-0.236-0.575-0.631-0.471c-0.209,0.027-0.419,0-0.629,0
	c-0.918,0-0.918,0-1.232,0.84c-0.051,0.185-0.185,0.236-0.366,0.207h-0.707c0.577-1.756,1.155-3.432,1.729-5.108
	c0.028-0.054,0-0.185,0.133-0.185c0.34-0.024,0.631-0.051,0.971,0c0.21,0.027,0.183,0.316,0.234,0.474
	c0.524,1.493,0.998,2.989,1.549,4.481c0.078,0.291,0,0.316-0.289,0.342L158.525,121.104z M163.823,119.137
	c-0.21,1.182-0.943,1.836-2.149,1.916c-0.654,0.023-1.313,0-1.967,0.023c-0.264,0-0.341-0.076-0.341-0.34
	c0.026-0.393,0-0.785,0-1.207v-1.152c0-0.762,0.026-1.549,0-2.309c0-0.338,0.131-0.365,0.394-0.365c0.575,0.027,1.152,0,1.729,0.027
	c1.285,0.026,2.176,0.84,2.334,2.147c0.051,0.447,0.051,0.867,0,1.263L163.823,119.137z M168.332,120.66
	c-0.025,0.209,0.055,0.42-0.313,0.42c-1.023-0.027-2.1-0.027-3.121,0c-0.314,0-0.34-0.078-0.34-0.365v-4.67
	c0-0.234,0.053-0.34,0.314-0.34c1.047,0,2.122,0.027,3.146,0c0.367,0,0.263,0.211,0.263,0.395c0,0.185,0.077,0.42-0.263,0.394
	c-0.734-0.022-1.496,0-2.203,0c-0.265,0-0.395,0.026-0.395,0.368c0,1.05-0.027,1.05,1.049,1.05c0.42,0,0.891,0.026,1.312,0
	c0.341-0.024,0.262,0.185,0.262,0.366c0,0.183,0.052,0.396-0.235,0.396h-1.994c-0.265,0-0.34,0.078-0.367,0.367
	c-0.026,1.205-0.026,1.205,1.205,1.205c0.445,0,0.916,0.028,1.336,0c0.342,0.028,0.367,0.157,0.342,0.42L168.332,120.66z
	 M114.244,109.674H45.448c-0.523,0-0.576,0.158-0.576,0.604c0.025,6.427,0.025,12.873,0,19.295c0,0.447,0.078,0.58,0.576,0.58
	h68.771c0.604,0,0.604,0,0.604-0.631v-19.268c0.025-0.445-0.078-0.578-0.577-0.578L114.244,109.674L114.244,109.674z
	 M58.872,123.279c-0.262,1.627-1.102,2.859-2.7,3.357c-1.39,0.446-2.754,0.395-3.934-0.654c-0.025-0.025-0.052-0.129-0.156-0.078
	c-0.027,0.027-0.054,0.027-0.054,0.053c-0.025,0.631-0.025,0.631-0.708,0.631c-0.313,0-0.603-0.025-0.917,0
	c-0.315,0.025-0.368-0.078-0.368-0.395v-3.277c0-0.262,0.051-0.395,0.366-0.395c0.55,0.028,1.1,0.028,1.624,0
	c0.236,0,0.341,0.08,0.341,0.344c0.13,1.049,0.84,1.73,1.914,1.783c1.048,0.055,1.809-0.523,2.071-1.521
	c0.157-0.627-0.157-1.23-0.735-1.547c-0.944-0.471-1.993-0.758-2.965-1.125c-1.758-0.654-2.807-2.07-2.728-3.721
	c0.157-2.777,2.804-4.221,4.98-3.672c0.577,0.158,0.995,0.422,1.547,0.918c-0.133-0.627,0.155-0.732,0.575-0.656
	c0.42,0.08,1.022-0.209,1.285,0.133c0.208,0.262,0.051,0.813,0.051,1.234c0,0.574-0.027,1.152,0,1.729
	c0.025,0.423-0.132,0.524-0.524,0.474c-0.447-0.025-0.943-0.025-1.39,0c-0.262,0-0.368-0.054-0.42-0.34
	c-0.315-1.416-1.677-1.732-2.728-1.183c-0.604,0.315-0.919,0.84-0.891,1.521c0.025,0.814,0.629,1.183,1.336,1.439
	c1.022,0.396,2.123,0.658,3.12,1.156c1.415,0.682,2.229,2.227,1.992,3.803L58.872,123.279z M69.91,123.57
	c-0.575,1.494-1.677,2.463-3.12,2.99c-2.018,0.787-4.588,0.051-5.978-1.627c-2.359-2.908-0.995-7.338,2.569-8.332
	c1.415-0.396,2.779-0.265,3.96,0.705c0.079,0.051,0.158,0.157,0.237,0.08c0.132-0.025,0.052-0.185,0.052-0.234
	c-0.078-0.471,0.158-0.574,0.579-0.551c0.341,0.026,0.655,0.026,0.996,0c0.369-0.023,0.42,0.133,0.42,0.418
	c-0.024,0.42,0,0.813,0,1.233v1.338c0,0.236-0.078,0.343-0.341,0.343c-0.523,0-1.02-0.027-1.547,0
	c-0.339,0.024-0.445-0.209-0.629-0.418c-1.336-1.365-3.485-1.232-4.639,0.315c-0.707,0.942-0.759,2.308-0.13,3.328
	c0.604,0.998,1.941,1.571,3.094,1.391c0.786-0.155,1.416-0.471,1.889-1.151c0.132-0.156,0.237-0.236,0.447-0.236h1.888
	c0.342,0.053,0.396,0.131,0.263,0.42L69.91,123.57z M82.102,126.531c-0.234,0.238-0.759,0.055-1.153,0.08h-3.173
	c-0.339,0-0.445-0.051-0.445-0.418c0.025-0.445,0.025-0.916,0-1.336c0-0.313,0.054-0.396,0.368-0.396c0.92,0,0.92-0.022,0.92-0.916
	c0-1.022,0.027-2.019-0.052-3.067c-0.079-0.941-0.837-1.679-1.781-1.729c-1.152-0.054-2.072,0.551-2.28,1.522
	c-0.263,1.283-0.079,2.568-0.157,3.879c0,0.265,0.183,0.343,0.419,0.343c0.918,0.024,0.918,0.024,0.918,0.94
	c0,1.18,0,1.18-1.178,1.18h-3.31c-0.315,0-0.394-0.077-0.394-0.393c0.025-0.447,0.025-0.943,0-1.389c0-0.313,0.13-0.367,0.393-0.367
	c0.891,0,0.891-0.023,0.891-0.889v-7.586c0-0.391-0.078-0.604-0.523-0.523c-0.132,0.027-0.212,0-0.341,0
	c-0.342,0.053-0.445-0.078-0.421-0.418c0.026-0.445,0.026-0.918,0-1.336c0-0.264,0.079-0.367,0.367-0.367
	c0.941,0,1.888,0.029,2.805,0c0.313,0,0.392,0.08,0.392,0.396v3.747c0,0.158-0.028,0.314,0.051,0.476
	c0.445-0.444,0.837-0.916,1.44-1.18c1.889-0.839,4.222,0.209,4.797,2.202c0.262,0.918,0.262,1.812,0.262,2.755v2.309
	c0,0.313,0.055,0.445,0.42,0.445c0.84,0,0.892,0.026,0.84,0.894c0,0.393,0.155,0.918-0.078,1.151L82.102,126.531z M88,126.873
	c-2.987,0-5.216-2.281-5.216-5.268c0-2.912,2.308-5.137,5.216-5.242c2.703-0.053,5.377,2.492,5.141,5.217
	c0.104,2.859-2.15,5.324-5.138,5.297L88,126.873z M99.169,126.873c-3.066,0-5.188-2.332-5.216-5.24c0-2.963,2.281-5.297,5.244-5.246
	c2.571-0.182,5.216,2.205,5.141,5.191c-0.025,3.043-2.307,5.322-5.166,5.299L99.169,126.873z M110.051,124.855
	c-0.025,0.444-0.025,0.942,0,1.391c0,0.264-0.054,0.367-0.341,0.367h-4.114c-0.313,0-0.394-0.076-0.367-0.391
	c0.025-0.447,0.025-0.943,0-1.392c0-0.263,0.054-0.365,0.342-0.365c0.97-0.026,0.97-0.026,0.97-1.021v-7.447
	c0-0.393-0.051-0.574-0.524-0.551c-0.785,0.027-0.785,0-0.785-0.758c0-0.42-0.185-0.972,0.053-1.232
	c0.263-0.314,0.84-0.076,1.311-0.076c0.553-0.027,1.102,0.025,1.627-0.027c0.524-0.051,0.604,0.16,0.604,0.604
	c-0.026,1.627,0,3.306,0,4.931c0,1.678,0.027,3.354,0,5.032c0,0.445,0.156,0.604,0.576,0.552h0.266
	c0.288-0.025,0.42,0.077,0.395,0.395L110.051,124.855z M98.882,63.741c-0.313,0.054-0.445,0.236-0.603,0.447
	c-0.313,0.42-0.576,0.814-0.892,1.232c-0.234,0.314-0.209,0.447,0.158,0.656c1.126,0.603,2.019,1.417,2.149,2.806
	c0,0.158,0.054,0.263,0.263,0.263h1.784c-0.132-0.234-0.209-0.417-0.315-0.604c-0.367-0.758-1.102-0.995-1.782-1.31
	c-1.284-0.55-1.705-1.573-1.152-2.779c0.133-0.209,0.341-0.367,0.395-0.708L98.882,63.741z M59.082,65.472
	c-0.604,0.473-1.048,1.048-0.916,1.913c0.027,0.133-0.051,0.263-0.077,0.423c-0.13,0.42-0.262,0.84-0.42,1.336
	c1.181-1.125,1.338-1.677,1.418-3.093c0.027-0.261,0.157-0.392,0.368-0.523c0.944-0.575,0.944-0.575,0.395-1.52
	c0,0-0.025,0-0.158-0.051c0.237,0.732-0.155,1.152-0.603,1.52L59.082,65.472z M128.402,127.973c-0.707,0.027-0.154,0.631-0.34,0.918
	c-0.026,0.055,0,0.188,0,0.264v0.998c0,0.078-0.026,0.207,0.131,0.263c0.998,0.394,1.969-0.342,1.914-1.442
	c-0.078-0.787-0.523-1.074-1.701-0.996L128.402,127.973z M129.376,130.02c-0.263,0.187-0.604,0.187-0.892,0.053
	c-0.209-0.079-0.051-0.366-0.08-0.577c-0.023-0.185-0.051-0.392,0-0.576c0.055-0.207-0.262-0.603,0.238-0.651
	c0.631-0.054,0.996,0.157,1.047,0.655c0,0.078,0,0.158,0.026,0.211c0.027,0.365-0.051,0.681-0.34,0.89V130.02z M136.009,129.023
	c-0.183-0.025-0.341-0.051-0.522-0.129c-0.156-0.051-0.237-0.156-0.237-0.314c0-0.18,0.133-0.313,0.315-0.338
	c0.315-0.053,0.631-0.053,0.761,0.316c0.055,0.184,0.184,0.235,0.342,0.155c0.157-0.075,0.024-0.233,0-0.338
	c-0.158-0.396-0.708-0.554-1.207-0.396c-0.341,0.078-0.522,0.314-0.522,0.656c0,0.34,0.209,0.523,0.522,0.604
	c0.238,0.051,0.474,0.129,0.735,0.184c0.185,0.054,0.342,0.156,0.314,0.367c-0.023,0.209-0.183,0.342-0.365,0.367
	c-0.367,0.053-0.732,0.024-0.892-0.396c-0.051-0.156-0.155-0.207-0.26-0.18c-0.185,0.051-0.079,0.207-0.054,0.314
	c0.158,0.447,0.523,0.576,0.787,0.576c0.731,0,1.127-0.236,1.178-0.654c-0.051-0.396-0.313-0.656-0.891-0.787L136.009,129.023z
	 M162.438,127.949c-0.261,0.029-0.155,0.236-0.155,0.369c-0.025,0.707-0.025,0.707-0.603,0.707c-0.631,0-0.631,0-0.631-0.625v-0.234
	c0-0.158-0.053-0.184-0.21-0.184s-0.185,0.078-0.185,0.209v1.914c0,0.131-0.131,0.369,0.158,0.369c0.314,0,0.184-0.238,0.211-0.394
	c0.024-0.158,0.024-0.315,0-0.422c-0.025-0.231,0.054-0.341,0.315-0.341c0.894-0.024,0.894-0.024,0.943,0.841
	c0,0.133-0.052,0.264,0.157,0.264c0.211,0.027,0.211-0.159,0.211-0.264v-1.81c-0.024-0.158,0.08-0.395-0.207-0.395L162.438,127.949z
	 M168.284,127.949c-0.13,0-0.154,0.053-0.154,0.186v0.604c-0.157-0.055-0.263-0.077-0.396-0.133c-0.342-0.076-0.629,0-0.84,0.267
	c-0.236,0.369-0.236,0.76-0.055,1.151c0.158,0.314,0.422,0.424,0.787,0.424c0.208,0,0.42-0.213,0.708-0.026
	c0.078,0.056,0.132-0.075,0.132-0.185v-2.096c-0.025-0.08-0.025-0.184-0.184-0.184L168.284,127.949L168.284,127.949z
	 M167.604,130.152c-0.394,0-0.523-0.262-0.551-0.574c0-0.42,0.078-0.732,0.524-0.732c0.444,0,0.524,0.34,0.524,0.654
	c0.027,0.367-0.104,0.656-0.5,0.656v-0.004H167.604z M156.698,129.629h0.338c0.396,0.055,0.472-0.131,0.341-0.445
	c-0.184-0.473-0.604-0.707-1.047-0.527c-0.446,0.185-0.658,0.814-0.446,1.341c0.185,0.422,0.656,0.604,1.128,0.422
	c0.211-0.076,0.342-0.233,0.395-0.444c0-0.025-0.024-0.078-0.051-0.129c-0.234-0.08-0.264,0.153-0.394,0.235
	c-0.183,0.131-0.392,0.131-0.575,0c-0.132-0.08-0.236-0.213-0.183-0.367c0.104-0.211,0.366-0.053,0.499-0.08L156.698,129.629z
	 M156.645,128.895c0.209,0,0.445,0.078,0.445,0.34c-0.025,0.236-0.262,0.054-0.419,0.156c-0.133-0.076-0.396,0.131-0.421-0.156
	C156.225,128.973,156.434,128.895,156.645,128.895z M131.841,129.367c-0.024-0.711-0.419-0.971-1.048-0.734
	c-0.184,0.051-0.341,0.207-0.367,0.391c-0.025,0.056,0,0.134,0.055,0.158c0.209,0.053,0.262-0.131,0.365-0.236
	c0.025-0.026,0.133-0.051,0.184-0.051c0.185-0.026,0.421-0.055,0.474,0.185c0.054,0.26-0.183,0.235-0.341,0.26
	c-0.076,0.029-0.209,0.029-0.342,0.056c-0.313,0.055-0.522,0.235-0.471,0.604c0.055,0.365,0.315,0.447,0.629,0.447
	c0.158,0,0.314-0.025,0.42-0.129c0.184-0.133,0.211,0.184,0.396,0.129c0.157-0.025,0.315-0.158,0.183-0.236
	c-0.287-0.211-0.104-0.551-0.129-0.838L131.841,129.367z M131.5,129.76c-0.025,0.314-0.236,0.393-0.471,0.393
	c-0.184,0-0.367-0.055-0.342-0.264c0.054-0.34,0.395-0.262,0.604-0.313c0.157-0.027,0.21,0.051,0.21,0.184H131.5z M153.654,129.654
	c-0.051-0.42,0.133-0.811-0.26-0.971c-0.314-0.131-0.629-0.131-0.918,0.026c-0.185,0.078-0.342,0.263-0.211,0.444
	c0.159,0.158,0.237-0.022,0.342-0.155c0.158-0.185,0.369-0.155,0.578-0.054c0.08,0.027,0.157,0.158,0.133,0.236
	c-0.053,0.209-0.262,0.158-0.445,0.209h-0.076c-0.471,0.078-0.708,0.314-0.604,0.656c0.054,0.34,0.445,0.523,0.839,0.367
	c0.212-0.055,0.37-0.133,0.553,0.025c0.051,0.024,0.185,0.024,0.233-0.053c0.025-0.027,0.025-0.158,0-0.183
	c-0.34-0.158-0.129-0.472-0.156-0.552L153.654,129.654z M152.896,130.152c-0.263,0.027-0.445-0.027-0.42-0.234
	c0.024-0.369,0.365-0.316,0.604-0.342c0.132-0.027,0.209-0.027,0.209,0.158C153.264,130.074,153.055,130.125,152.896,130.152
	L152.896,130.152z M164.484,129.604v-0.344c0.027-0.313-0.025-0.549-0.366-0.627c-0.366-0.055-0.733-0.08-0.995,0.262
	c-0.051,0.078-0.155,0.209-0.023,0.314c0.077,0.051,0.209,0.051,0.262-0.076c0.132-0.236,0.341-0.236,0.576-0.211
	c0.133,0.025,0.211,0.078,0.211,0.236c0,0.082-0.078,0.158-0.184,0.186c-0.154,0.027-0.313,0.053-0.443,0.08
	c-0.209,0.053-0.422,0.131-0.524,0.393c-0.052,0.185-0.024,0.369,0.079,0.476c0.183,0.207,0.445,0.207,0.734,0.156
	c0.184-0.023,0.366-0.212,0.574,0c0.055,0.055,0.188,0.055,0.237-0.054c0.026-0.024,0.026-0.158,0.026-0.182
	c-0.289-0.156-0.053-0.443-0.158-0.604L164.484,129.604z M164.197,129.734c-0.025,0.313-0.234,0.418-0.524,0.445
	c-0.183,0-0.366-0.056-0.313-0.263c0.054-0.342,0.395-0.265,0.604-0.315c0.104,0,0.264-0.054,0.237,0.133H164.197L164.197,129.734z
	 M169.311,128.656c-0.472,0.16-0.707,0.787-0.472,1.336c0.185,0.422,0.656,0.631,1.128,0.449c0.211-0.08,0.342-0.234,0.395-0.445
	c0-0.027-0.025-0.078-0.053-0.129c-0.234-0.129-0.262,0.158-0.394,0.234c-0.185,0.133-0.394,0.133-0.575,0
	c-0.13-0.076-0.236-0.207-0.183-0.363c0.079-0.236,0.341-0.055,0.522-0.129h0.342c0.42,0.051,0.444-0.158,0.342-0.471
	c-0.158-0.42-0.575-0.658-1.049-0.476L169.311,128.656z M169.441,129.338c-0.078,0-0.262,0.08-0.313-0.078
	c0-0.129,0.079-0.234,0.211-0.313c0.366-0.158,0.578,0,0.762,0.395c-0.263,0-0.445,0.027-0.656,0L169.441,129.338z M142.227,129.627
	h0.762c0.262,0,0.314-0.078,0.234-0.34c-0.132-0.471-0.443-0.76-0.943-0.709c-0.444,0.055-0.762,0.473-0.732,0.971
	c0.026,0.576,0.342,0.893,0.893,0.893c0.183,0.025,0.365-0.024,0.522-0.184c0.131-0.078,0.263-0.262,0.185-0.395
	c-0.157-0.184-0.236,0.025-0.367,0.133c-0.236,0.234-0.473,0.184-0.732,0c-0.053-0.055-0.132-0.211-0.132-0.316
	C141.988,129.549,142.121,129.627,142.227,129.627L142.227,129.627z M141.913,129.338c0.079-0.365,0.263-0.471,0.577-0.443
	c0.184,0.027,0.367,0.156,0.367,0.342c0,0.238-0.237,0.132-0.367,0.132c-0.184,0-0.313-0.025-0.575-0.025L141.913,129.338z
	 M138.426,129.627c0.237,0,0.525-0.025,0.762,0c0.237,0.025,0.266-0.078,0.237-0.313c-0.052-0.447-0.394-0.762-0.838-0.734
	c-0.524,0.029-0.812,0.422-0.787,0.998c0.027,0.551,0.341,0.891,0.894,0.891c0.209,0.029,0.42-0.051,0.551-0.209
	c0.078-0.129,0.262-0.234,0.13-0.393c-0.133-0.129-0.211,0.055-0.342,0.158c-0.21,0.238-0.47,0.209-0.734,0
	c-0.079-0.051-0.13-0.183-0.13-0.313c0.023-0.157,0.184-0.08,0.264-0.08L138.426,129.627z M138.609,128.895
	c0.209,0,0.445,0.08,0.445,0.342c0,0.238-0.263,0.052-0.421,0.156c-0.13-0.078-0.419,0.158-0.419-0.184
	C138.189,129.025,138.4,128.895,138.609,128.895z M133.077,129.367c-0.052,0-0.13-0.025-0.183-0.053
	c-0.158-0.027-0.394-0.078-0.343-0.265c0.054-0.206,0.316-0.184,0.474-0.155c0.134,0.026,0.158,0.08,0.211,0.186
	c0.08,0.078,0.209,0.133,0.264,0.027c0.076-0.078,0.025-0.209-0.055-0.314c-0.262-0.262-0.604-0.262-0.943-0.184
	c-0.21,0.053-0.368,0.211-0.368,0.445c0,0.235,0.132,0.393,0.343,0.444c0.185,0.054,0.394,0.08,0.604,0.155
	c0.13,0.027,0.208,0.082,0.183,0.238c-0.027,0.131-0.132,0.187-0.236,0.207c-0.209,0.029-0.444,0.055-0.576-0.207
	c-0.051-0.131-0.156-0.182-0.264-0.078c-0.156,0.08-0.024,0.236,0.028,0.343c0.157,0.235,0.394,0.315,0.656,0.266
	c0.369,0,0.707-0.055,0.761-0.475c0.079-0.421-0.26-0.498-0.55-0.574L133.077,129.367z M166.4,129.156
	c-0.025-0.367-0.209-0.551-0.577-0.576c-0.892-0.025-0.916,0-0.916,0.918v0.631c0,0.131-0.052,0.34,0.157,0.34
	c0.236,0,0.158-0.182,0.187-0.313v-0.76c0-0.314,0.185-0.474,0.47-0.474c0.313,0,0.34,0.238,0.367,0.447v0.838
	c0,0.133,0,0.237,0.158,0.211c0.184,0,0.154-0.133,0.154-0.235c0.029-0.316,0.029-0.683,0-1.021V129.156L166.4,129.156z
	 M147.732,129.551v-0.656c0-0.129,0-0.262-0.185-0.238c-0.183,0-0.157,0.134-0.157,0.238v0.813c0,0.313-0.184,0.474-0.471,0.474
	c-0.341,0-0.367-0.238-0.367-0.474v-0.84c0-0.13-0.023-0.185-0.154-0.185c-0.133,0-0.157,0.082-0.157,0.185v0.653
	c0,0.972,0.054,1.023,1.022,0.896c0.025,0,0.051-0.024,0.078-0.024c0.524,0.342,0.367-0.131,0.395-0.343
	c0.025-0.182,0-0.338,0-0.495L147.732,129.551z M151.534,127.951c-0.392,0-0.944-0.18-1.181,0.082
	c-0.184,0.209-0.025,0.76-0.025,1.152h-0.025v1.049c0,0.131,0.028,0.213,0.184,0.213c0.133,0,0.212-0.027,0.187-0.16
	c-0.133-0.76,0.079-1.152,0.941-0.969c0.077,0.027,0.157-0.025,0.157-0.156c0-0.156-0.08-0.156-0.184-0.156h-0.652
	c-0.158,0-0.213-0.027-0.237-0.211c-0.028-0.393,0.024-0.654,0.522-0.551c0.131,0.029,0.264,0.029,0.394,0
	c0.13-0.025,0.366,0.133,0.366-0.156c-0.055-0.264-0.289-0.131-0.445-0.131L151.534,127.951L151.534,127.951z M158.693,128.582
	c-0.264-0.023-0.524,0.08-0.787,0.08c-0.236,0-0.051,0.527-0.078,0.789v0.682c0,0.131-0.051,0.262,0.156,0.262
	c0.211,0,0.16-0.158,0.16-0.262c0-0.262,0-0.574,0.025-0.84c0.027-0.264,0.211-0.418,0.473-0.418c0.315,0,0.342,0.236,0.342,0.473
	v0.894c0,0.131,0.025,0.235,0.185,0.211c0.132,0,0.157-0.08,0.157-0.211c0-0.394,0-0.787-0.025-1.181
	c-0.078-0.34-0.342-0.418-0.603-0.471L158.693,128.582z M145.82,127.955c-0.131,0-0.235,0.027-0.368,0.133
	c-0.185,0.186,0,0.627-0.419,0.654v0.131c0.552,0.133,0.208,0.551,0.314,0.76v0.473c0,0.131-0.08,0.342,0.157,0.342
	c0.236,0,0.158-0.184,0.158-0.313V129.4c0-0.209-0.13-0.473,0.264-0.523c0.134,0,0.079-0.236-0.079-0.236
	c-0.129-0.024-0.207-0.024-0.207-0.184c0-0.154,0.053-0.207,0.207-0.207c0.158,0,0.213-0.055,0.185-0.209
	c-0.025-0.105-0.104-0.08-0.208-0.08L145.82,127.955z M148.861,128.637c-0.131,0.051-0.235,0.184-0.368,0.184
	c-0.341,0-0.341-0.026-0.341,0.236v1.049c0,0.131-0.078,0.342,0.156,0.342c0.264,0,0.158-0.211,0.158-0.364
	c0.025-0.449-0.158-1.022,0.578-1.183c0.078-0.024,0.078-0.129,0.053-0.209c-0.051-0.129-0.13-0.104-0.236-0.051V128.637z
	 M170.859,127.955c-0.158,0-0.185,0.078-0.185,0.211v2.068c0,0.131,0.028,0.213,0.185,0.213c0.186,0,0.158-0.133,0.158-0.213v-1.99
	c0.024-0.129,0.053-0.287-0.158-0.287V127.955z M155.52,128.637c-0.156,0.051-0.262,0.184-0.42,0.184
	c-0.341-0.024-0.341-0.051-0.341,0.314v0.42c0,0.188-0.026,0.369,0,0.527c0.028,0.154-0.13,0.393,0.187,0.393
	c0.234,0,0.13-0.238,0.13-0.393c0.024-0.449-0.13-0.998,0.577-1.127c0.131-0.027,0.08-0.158,0.052-0.236
	c0-0.131-0.077-0.131-0.185-0.08V128.637z M143.723,127.955c-0.184,0-0.184,0.082-0.184,0.211v2.043c0,0.078,0,0.184,0.13,0.209
	c0.185,0.029,0.157-0.08,0.185-0.209v-2.07C143.854,128.084,143.854,127.979,143.723,127.955z M137.299,128.637
	c-0.13,0-0.154,0.078-0.154,0.209v1.469c0,0.133,0.024,0.185,0.157,0.185c0.132,0,0.157-0.078,0.157-0.185v-1.418
	c0.025-0.184-0.025-0.26-0.157-0.26H137.299z M154.236,128.637c-0.157,0-0.184,0.078-0.184,0.209v1.389
	c0,0.132,0.025,0.213,0.184,0.213c0.133,0,0.158-0.081,0.158-0.184v-1.416c-0.025-0.129-0.052-0.184-0.156-0.209L154.236,128.637z
	 M137.299,128.348c0.158,0,0.211-0.051,0.188-0.182c0-0.078,0-0.184-0.158-0.184s-0.184,0.055-0.184,0.186
	c0,0.105,0,0.184,0.157,0.184L137.299,128.348z M154.236,127.955c-0.157,0-0.184,0.053-0.184,0.186c0,0.078,0,0.185,0.157,0.185
	c0.158,0,0.212-0.052,0.185-0.185c-0.025-0.08-0.052-0.184-0.156-0.184L154.236,127.955z M177.411,75.909
	c-0.077-0.078,0.055-0.13,0.08-0.184c0.262-0.314,0.315-0.628,0.157-0.969c-0.157-0.34-0.445-0.446-0.813-0.446
	c-0.42,0-0.812,0.026-1.231,0c-0.262,0-0.34,0.079-0.313,0.342c0.023,0.392,0,0.759,0,1.153s0.023,0.784,0,1.178
	c-0.025,0.339,0.156,0.367,0.393,0.339c0.42-0.024,0.211-0.367,0.211-0.549c0.024-0.656,0-0.656,0.627-0.63
	c0.342,0.025,0.524,0.158,0.474,0.523c0,0.158,0,0.263,0.026,0.421c0.025,0.394,0.369,0.236,0.554,0.236
	c0.364,0,0.077-0.209,0.077-0.341c-0.024-0.394,0.133-0.785-0.235-1.074L177.411,75.909L177.411,75.909z M176.625,75.597h-0.262
	c-0.366,0.077-0.471-0.081-0.445-0.473c0-0.236,0.079-0.315,0.314-0.315h0.42c0.233,0,0.445,0.079,0.471,0.366
	c-0.027,0.29-0.236,0.42-0.498,0.42V75.597L176.625,75.597z M100.906,97.408c-1.889,0-3.354,1.52-3.354,3.381
	c0,1.781,1.519,3.332,3.328,3.332c1.81,0,3.328-1.551,3.328-3.438C104.234,98.877,102.738,97.381,100.906,97.408L100.906,97.408z
	 M86.933,97.408c-1.835,0-3.331,1.494-3.331,3.381c0,1.781,1.521,3.305,3.304,3.277c1.836,0,3.355-1.521,3.355-3.383
	C90.261,98.902,88.741,97.408,86.933,97.408L86.933,97.408z M43.017,97.408c-1.835,0-3.303,1.494-3.303,3.355
	c0,1.809,1.442,3.305,3.251,3.33c1.838,0.026,3.383-1.521,3.383-3.382C46.348,98.877,44.879,97.408,43.017,97.408L43.017,97.408z
	 M114.277,97.146c-1.44,0.129-2.646,1.151-2.963,2.565h5.979c0.762,0,0.762,0,0.42-0.651
	C116.979,97.643,115.59,97.039,114.277,97.146z M82.862,85.814c1.127,0,1.913-0.839,1.913-1.994c0-1.18-0.813-2.018-1.966-2.018
	c-1.102,0-1.94,0.892-1.94,1.993C80.869,84.922,81.734,85.813,82.862,85.814L82.862,85.814z M157.139,88.25
	c0-2.699-2.148-4.822-4.85-4.822c-2.729,0-4.877,2.386-4.825,4.98c0.079,2.543,2.257,4.719,4.853,4.693
	C155.016,93.102,157.166,90.951,157.139,88.25L157.139,88.25z M160.783,116.566h-0.053c-0.366-0.055-0.525,0.053-0.474,0.445
	c0.026,0.471,0,0.971,0,1.413v0.658c0,1.336,0,1.336,1.336,1.127c0.708-0.08,1.05-0.446,1.207-1.103
	c0.419-1.627-0.315-2.545-2.019-2.545L160.783,116.566z M152.342,116.645c-0.184-0.08-0.394-0.08-0.604-0.08
	c-0.971-0.024-0.971-0.024-0.971,0.918v0.656c0,0.158,0.051,0.236,0.209,0.209c0.42,0,0.813,0.025,1.231-0.078
	c0.394-0.131,0.577-0.393,0.603-0.762C152.863,117.09,152.707,116.801,152.342,116.645L152.342,116.645z M143.637,116.645
	c-0.21-0.133-0.445-0.133-0.707-0.133c-0.918,0-0.918,0-0.918,0.893v0.732c0,0.158,0.051,0.234,0.209,0.209
	c0.418,0,0.891,0.025,1.284-0.078c0.366-0.131,0.552-0.369,0.577-0.733c0.079-0.396-0.079-0.709-0.445-0.896V116.645z
	 M156.563,116.512c-0.185,0.578-0.34,1.023-0.445,1.521c-0.131,0.367-0.393,0.945-0.262,1.102c0.235,0.264,0.76,0.053,1.179,0.08
	c0.368,0.027,0.341-0.158,0.264-0.393c-0.262-0.68-0.471-1.414-0.733-2.309L156.563,116.512z M136.189,116.67h-0.078
	c-0.235,0.762-0.445,1.52-0.709,2.281c-0.051,0.184-0.051,0.316,0.213,0.316c0.367-0.027,0.734,0,1.102,0
	c0.211,0,0.236-0.082,0.186-0.265c-0.233-0.787-0.471-1.571-0.707-2.334L136.189,116.67L136.189,116.67z M99.197,118.611
	c-1.574-0.027-2.911,1.309-2.911,2.91c-0.025,1.678,1.232,3.065,2.858,3.094c1.493,0.027,2.936-1.311,2.883-2.988
	c0.053-1.625-1.232-2.963-2.833-3.016H99.197L99.197,118.611z M88.054,118.611c-1.573-0.027-2.937,1.363-2.937,2.988
	c0,1.6,0.205,2.963,2.911,2.963c1.493,0,2.936-1.363,2.854-2.988c0.025-1.6-1.338-2.938-2.832-2.963H88.054z"/>
</svg>
