<svg xmlns="http://www.w3.org/2000/svg" viewBox="-173 110 612 3417">
  <style type="text/css">
    .path{fill:#666;}
  </style>
<path class="path" d="M434.5,229.3c-2-4.6-6.4-6.9-11.2-6.1c-4.4,0.8-7.9,5-7.9,9.5c-0.1,4.7,3.2,8.9,7.6,9.8c4.9,1,9.4-1.4,11.3-5.9
	c0.1-0.3,0.1-0.9,0.7-1c0-1.8,0-3.7,0-5.5C434.4,230.3,434.6,229.7,434.5,229.3z M425.3,241.6c-4.6,0-8.4-3.8-8.6-8.4
	c0-4.9,3.8-8.8,8.7-8.8c4.6,0,8.4,3.9,8.4,8.6C433.8,237.7,429.9,241.6,425.3,241.6z M290.8,434.4c-1.2,0.6-2-0.3-3-0.2
	c-2,0.2-3.1,2.1-2.8,4.4c0.3,2.2,2,3.1,4.5,2.4c0.1-0.1,0.3-0.5,0.5-0.2c0.1,0.1,0,0.5,0,0.8c-0.9,1.6-1.8,1.8-3.2,0.8
	c-0.5-0.3-0.8-0.7-1.3-0.2c-0.3,0.5,0.1,0.8,0.5,1.3c0.2,0.2,0.6,0.2,0.6,0.6c1.2,0,2.2,0,3.4,0c0.6-0.8,1.5-1.4,1.5-2.5
	c0-2.1,0-4.2,0-6.2C291.2,434.7,291.2,434.1,290.8,434.4z M288.1,440.1c-1.5,0-1.8-1.3-1.8-2.4c0-1.3,0.3-2.4,1.8-2.4s1.7,1.2,2,2.3
	C289.8,438.9,289.5,440.1,288.1,440.1z M225.6,299.5c0-24.7,0-49.6,0-74.3c0-1.5-0.3-2-2-2c-2.9,0.1-5.8,0-8.6,0
	c-0.6,0-1.3,0.2-1.6-0.5c-0.7-1.3-1.4-2.4-2-3.7c-0.6-1.2-0.5-2.1,1.2-2.3c1-0.1,1.3-0.7,0.9-1.7c-1.4-3.4-3.4-6.1-6.4-8.2
	c-2-1.3-4.2-2-6.6-2.7c2.5-1.3,4.2-3.2,6.1-4.9c0.7-0.6,1.5-1.3,2.4-1.5c1.4-0.5,1.6-1.3,1.5-2.4c-0.2-2.4-1.2-4.7-0.3-7.2
	c0.1-0.3-0.2-0.7-0.5-0.9c-0.9-1-1.8-2.2-2.7-3.2c-0.6-0.8-1.4-1.3-2.4-1.2c-1.7,0.1-3.6,0.1-5.3,0c-1.6-0.1-2.9-0.3-3.5,1.6
	c-0.1,0.5-0.7,0.8-1.2,1c-3.6,1.7-4.2,4.7-3.9,8.3c0.2,2.9,0.9,5.7,1.7,8.4c0.8,2.8,0.8,2.8-2,3.6c-1.2,0.3-2.2,0.7-3.4,0.9
	c-0.7,0.2-1.2,0.6-1.5,1.2c-2.2,4.6-4.4,9.2-4.4,14.6c0,0.8-0.2,1-1,1c-1.7,0-3.5,0-5.1,0c-0.7,0-0.9-0.2-0.7-0.9
	c1.3-3.1,1-6.1,0-9.2c-0.2-0.7,0-1.3,0.6-1.8c1.8-1.8,1.8-1.8,0.2-4c-0.1-0.2-0.2-0.5-0.3-0.6c-2.4-3.7-5.1-7.3-9.8-8.4
	c-1.7-0.5-2.4-2-2.5-3.8c-0.2-2.2,0.8-4,1.8-5.8c1.4-2.4,2.3-5,1.6-7.9c-0.9-3.8-5.1-6.6-9.8-6.7c-3.1-0.1-5.9,0.7-7.3,3.6
	c-0.8,1.5-1.8,2.3-3.2,2.8c-0.7,0.2-1.4,0.5-2,0.8c-4.5,2.2-8.9,4.5-11.9,8.7c-2.3,3.2-1.5,5.7,2,7.3c0.7,0.3,1.4,0.6,2,0.8
	c5.3,2.4,9,7.7,8.4,12.8c-0.1,1.5-0.2,2.9,0.2,4.3c0.7,2.2,0.6,4.4,0.6,6.6c0,1-0.2,1.5-1.4,1.4c-3.1,0-6.4,0-9.5,0
	c-0.6,0-1-0.1-1.5-0.6c-1.3-1.5-2.7-3-3.9-4.6c-1.5-2-2.2-4.2-2.1-6.6c0-0.8,0.2-1.3,1-1.7c2.1-1.2,2.5-2.3,1.7-4.5
	c-0.9-2.9-3-4.7-5.4-6.1c-2-1.3-4-2.4-6.2-3.7c2.8-2,4.4-4.7,6.1-7.4c0.5-0.7,0.9-1.5,1.6-2c1.8-1.2,1.6-2.7,1.2-4.4
	c-1.5-5.9-4-8.2-10.2-8.4c-1.2,0-1.3-0.6-1.3-1.5c0-0.7,0.3-1.5-0.7-1.8c-1.4-0.3-2.9-0.6-4.4-0.3c-0.9,0.2-1.4,0.7-0.9,1.7
	c0.5,0.8,0.7,1.6,1,2.5c0.1,0.2,0,0.7-0.3,0.8c-0.5,0.2-0.5-0.2-0.6-0.5c-0.6-1.2-1.4-1.8-2.7-2.4c-0.3,1.2-0.7,2.2-0.8,3.4
	c-0.1,0.8-0.2,1.7,1,1.8c0.5,0,0.7,0.3,0.7,0.7c0,0.5-0.3,0.6-0.7,0.7c-0.7,0.2-1.4,0.6-0.3,1.3c1.3,0.9,1.3,2.3,0.8,3.6
	c-0.6,1.6-1.7,2.5-3.5,2.8c-0.6,0.1-1.2-0.3-1.7,0.1c-0.1,0.9,1.5,0.7,1.2,1.4c-0.5,1-2.2,1.3-1.7,3c0,0-0.3,0.1-0.5,0.1
	c-0.3,0.1-0.8-0.6-0.9,0.2c-0.1,0.6,0.1,1,0.7,1.3c0.5,0.2,1,0.5,1.5,0.6c0.8,0.2,1.8,0.5,2,1.4c0.1,0.8-0.8,1.2-1.4,1.5
	c-3.1,2.5-5.4,5.5-6.4,9.5c-0.3,1.4-0.9,3.4,0,4.3c1.4,1.4,1.2,3.5,2.5,4.7c0.2,0.2,0.2,0.3,0,0.6c-0.8,0.8-0.3,1.7-0.3,2.5
	c0.1,0.8,0.3,1.7-0.7,2.4c-1.4-4-3.6-7.6-6.4-10.7c-1.5-1.7-2.3-3.2-0.7-5.3c0.7-0.9,0.6-1.8-0.6-2.5c-2-1.3-3.5-3-5.2-4.5
	c-3.5-3-7.4-4.6-12-4.2c-0.5,0-1,0.2-0.9-0.5c0.1-1.5-1-1.7-2.1-2.1c-1.4-0.5-1.6-1.4-0.8-2.5c1.2-1.6,1.2-3.4,0.8-5.2
	c-0.5-2.7-1.6-5-2.8-7.3c-0.9-2-2.3-2.8-4.5-3c-4.6-0.6-8.4,0.9-10.2,4.2c-2.3,4.5-0.1,12.3,4.2,14.8c0.7,0.5,1.5,0.8,2.2,1.4
	c1.8,1.4,2.1,3.2,0.8,5.3c-0.8,1.3-2,2.1-3,3.1c-2.2,2.1-4,4.3-3.1,7.6c0.1,0.5-0.1,0.8-0.5,1.2c-1.7,2-0.9,4.4-1.3,6.7
	c-0.1,0.5,0.5,0.7,0.9,0.8c2.5,0.5,3.8,2,3.7,4.6c0,0.6,0.6,1.6-0.3,1.6c-1.2,0.1-2.7,0.8-3.4-0.6c-1.3-3-3.2-5.7-4.6-8.7
	c-0.7-1.4-0.7-2.3,1-2.9c1.8-0.6,1.8-1.2,0.8-2.9c-1.2-2.1-2.4-4-3.6-6.1c-2.9-5.2-6.4-9.4-12.8-9.8c-0.7-0.1-1.2-1.2-1.2-1.2
	c1.2-0.8,1-2.7,2.7-3.2c0.1,1-0.6,2.4,0.6,2.8c1.5,0.6,3.1,0.7,4.5-0.3c0.6-0.5,0.8-0.8,0.2-1.4c-0.9-1.2-1.5-2.7-2.1-4
	c-0.1-0.3-0.3-0.8,0-1.2c1-1,0.8-3.4-0.7-3.9c-1.4-0.6-2-1.6-2.4-2.8c-0.5-0.9-0.8-1.8-1.3-2.9c-0.5-1.2-1.3-1.6-2.5-1.6
	c-1.8,0.1-3.7,0.1-5.5,0c-1.4-0.1-2.3,0.5-3.1,1.5c-1.7,2.1-2.4,4.6-3.2,7.3c-0.1-0.5-0.2-1-0.6-1c-0.6,0-0.5,0.5-0.5,0.8
	c0,2-0.7,3.7-1.5,5.4c-0.5,1.3-0.9,2.5-0.5,3.9c0.5,1.3,0.9,2.5-1.3,2.8c1.3,1,2.3,1.2,3.6,0.6c0.8-0.3,1.7-0.8,2.5-0.9
	c1.4-0.2,1.5-1.2,1-2.1c-0.3-0.7-0.8-1.2-1.3-1.7c-0.7-1-1.2-2.2-0.2-3.7c0.3,1.5,1.2,2.4,2.1,3.2c0.9,0.8,1.6,1.8,1.7,3.1
	c0,0.5,0.2,1-0.6,1.4c-2.3,0.8-4.3,2.4-6.5,3.4c-1.5,0.7-2.1,1.6-2.5,3c-0.7,2.4-2.1,4.5-4.2,6.2c-0.6-1.4-1.2-2.7-1.7-3.9
	c-1.7-3.8-4.3-6.9-8.6-7.9c-2.2-0.5-2.9-2-3.8-3.5c-0.5-0.7-0.5-1.8,0.3-2.7c1.2-1,1.4-2.5,1.3-4c-0.1-1.7-0.3-3.4-0.6-5.1
	c-0.1-1-0.6-2.1,1.2-2.3c0.8-0.1,1.4-0.8,1.3-1.7c-0.1-1-0.9-0.5-1.5-0.5c-1.3-0.1-1.2-0.7-0.6-1.5c0.3-0.5,0.9-0.7,1.3-1
	c0.3-0.5,0.6-0.9,0.3-1.5c-0.1-0.5-0.5-0.7-1-0.7c-0.7,0-0.9,0.5-1.2,1c-0.3,0.8-0.5,1.7-1.6,1.6c-1.3-0.1-0.6-1.3-1-1.8
	c0-0.1-0.2-0.1-0.5-0.1c-0.2,0.5-0.2,1-0.6,1.5c-0.6,0.8-1.3,1.8-2.2,1.5c-1.7-0.6-3.4-0.3-5.1-0.1c-0.8,0.1-1.6,0.1-2.4,0.1
	c-0.3,0-0.8,0-0.8-0.5s0.5-0.5,0.8-0.6c0.2,0,0.5,0,0.7,0c0.5,0,1,0.1,1.3-0.5c0.2-0.6-0.2-1-0.7-1.4c-0.5-0.3-1-0.6-1.5-0.1
	s-0.9,1-1.4,1.6c-1-1.6-2.4-2-3.8-0.9c-0.3,0.2-0.8,0.7-0.6,1.3c0.2,0.5,0.6,0.7,1.2,0.6c0.8-0.1,2.1-0.6,2.2,0.3
	c0,0.9-1.4,0.2-2.1,0.5c-0.5,0.1-1-0.1-1.3,0.5c-0.3,0.7,0.2,0.9,0.7,1.4c1.5,1.6,2,3.5,0.9,5.3c-0.9,1.8-1.5,3.2,0.9,4.3
	c0.2,0.1,0.3,0.3,0.5,0.6c1.6,2.1,2.4,4.6,3.6,6.9c0.5,0.8-0.1,1.2-0.6,1.5c-1.2,0.8-2.4,1.6-3.7,2.3c-0.8,0.5-0.9,0.9-1,1.7
	c-0.2,2.3-0.5,4.9-1.8,6.8c-1.6,2.3-2.4,4.5-2.3,7.5c0.1,3.7-1.4,7.2-2.3,10.6c-0.2,0.9-0.9,0.8-1.5,0.8c-2,0-4-0.1-6,0
	c-1.5,0.1-2.1-0.3-2.2-1.7c-0.1-1-0.6-2-1-2.9c-1.3-3.1-3.1-6-3.2-9.4c0-0.6-0.2-1.4,0.2-1.7c0.6-0.5,1.3,0.1,1.8,0.3
	c1.3,0.7,2.5,1.5,3.9,1.8c0.7,0.1,1.4,0.3,1.8-0.6c1.4-3,3.5-6.1,3.1-9.5c-0.5-3.9,1.6-5.9,4-8c1.6-1.4,2.9-2.7,1.4-4.9
	c-0.2-0.5,0.2-1.3-0.5-1.4c-0.8-0.2-1,0.7-1.3,1.3c-0.1,0.2-0.2,0.5-0.6,0.3c-0.5-0.7,0.3-1.5,0-2.3c-2.1,0-1.5,3.1-3.5,3.1
	c-0.5-0.6,0.6-1.6-0.3-1.7c-1-0.1-1,0.9-1.3,1.7c-0.7,2.2-1,4.5-1.5,6.8s-1.2,4.5-2.4,6.5c-0.7,1-1.4,1.4-2.4,0.3
	c-1.4-1.3-3-2.2-4.6-3.2c-2.4-1.4-4.7-2.9-6.9-4.7c-1-0.8-1.4-1.5,0.1-2.2c1.6-0.7,2-2.1,1.7-3.7c-0.5-3.7-2-6.9-3.7-10.2
	c-2.3-4.5-2.3-4.5-7.2-3.4c-5.7,1.4-9.4,6.8-8.6,12.5c0.1,0.5,0.1,1,0.5,1.4c2.1,1.5,3.6,3.6,5.7,5.1c0.8,0.6,2.7,0.2,2.5,1.7
	c-0.1,1-0.8,2.2-1.3,3.1s-1,1.7-1.6,2.7c-1.7,2.7-3.7,5.2-5.1,8.2c-1.4,3.2-1.7,6.4,0.2,9.6c0.9,1.6,2,1.8,3.5,1.4
	c1-0.3,2.2-0.5,3.2-0.6c2.3-0.1,1.3,1.7,1.5,2.8c0.2,1.2-0.2,1.5-1.4,1.5c-4,0-8.2-0.1-12.3,0c-1.2,0-1.4-0.5-1.4-1.5
	c0-3.8-0.3-7.6-1.2-11.4c-0.7-3.2-1.4-6.4-4.2-8.7c-1.8-1.5-2.9-3.7-3.6-6c-0.3-1.2,0-1.7,1.2-2c1.7-0.2,3.2-1,4.7-1.7
	c1.3-0.6,1.6-1.5,1-2.8c-0.5-1.3-1.2-2.4-1.3-3.8c-0.1-1.5-0.7-2.3-2.3-2c-1.2,0.2-1.6-0.2-1.8-1.5c-0.2-1.5-1.2-2.8-1.6-4.3
	c-0.2-0.6-0.7-0.7-1.2-0.8c-5-0.9-10.7,0.8-13.3,5.8c-1.5,2.9-1.4,5.7-0.1,8.7c1,2.7,3.1,3,5.5,3.1c1,0,2.8,0.2,2.9,1.4
	s-1.5,1.7-2.4,2.1c-1.4,0.5-1.7,1.3-1.8,2.5c-0.2,3-1.2,5.9-1.8,8.7c-1,3.9-2.2,7.7-2.2,11.8c0,1.7-0.5,2.2-2.2,2.2
	c-22-0.1-43.9,0-66-0.1c-1.7,0-2.1,0.5-2.1,2.2c0,63.2,0,126.6,0,189.8c0,1.7,0.6,2.1,2.2,2.1c27.5,0,54.9,0,82.4,0
	c1.6,0,2.1-0.3,2.1-2.1c-0.1-18,0-36.1-0.1-54.1c0-1.6,0.2-2.2,2.1-2.2c89.6,0,179.1,0,268.7,0c1.8,0,2.2,0.6,2.2,2.3
	c-0.1,18,0,36.1-0.1,54.1c0,1.6,0.5,2,2.1,2c9.2-0.1,18.6-0.1,27.9,0c1.8,0,2.3-0.5,2.3-2.3C225.6,376.5,225.6,338,225.6,299.5z
	 M-59.4,213.5c-1.2,0.1-0.7-0.8-0.8-0.9c-0.2-1.3,0-1.8,1-1.7c0.9,0.1,1.7,0.5,1.6,1.5C-57.5,213.6-58.6,213.4-59.4,213.5z
	 M-72.7,257.5c0-1.3-0.3-1.8-1.6-1.6c-1.7,0.3-2.2-0.5-2.1-2.1c0.1-1.5,0.1-3,0-4.6c-0.1-1.3,0.5-1.5,1.6-1.5c2.9,0,5.9,0.1,8.8,0
	c1.5,0,1.8,0.5,1.6,1.7c-0.1,0.6,0,1.2,0,1.7c1.8-2.3,4-3.5,6.8-3.9c1-0.2,1.6,0,1.5,1.3c-0.1,2.1,0,4.2,0,6.2
	c0,0.8-0.2,1.2-1.2,1.3c-5,0.8-6.8,2.9-6.9,8c0,1.6,0.1,3.4,0,5c-0.1,1.3,0.2,1.8,1.6,1.6c1.7-0.3,2.2,0.5,2.1,2.1
	c-0.1,1.6-0.1,3.1,0,4.7c0,0.9-0.1,1.4-1.2,1.4c-4.6,0-9.2,0-13.9,0c-1,0-1.3-0.3-1.3-1.3c0-1.8,0.1-3.7,0-5.5
	c0-1.2,0.5-1.4,1.5-1.4c2.4,0,2.4,0,2.4-2.5C-72.7,264.5-72.7,261-72.7,257.5z M-89,238.6c1.7,0,3.9-0.8,5.1,0.3c1,1,0.1,3.2,0.3,5
	c0.2,1.8-0.5,2.4-2.2,2.1c-0.7-0.1-1.5,0-2.2,0c-4.4,0-4.4,0-4.4-4.4C-92.5,238.6-92.5,238.6-89,238.6z M-92.5,268.3
	c-0.1-3.6-0.1-7,0-10.6c0-1.5-0.3-2-1.8-1.7c-1.6,0.2-2.2-0.3-2-2c0.1-1.6,0.1-3.2,0-5c0-0.9,0.2-1.3,1.3-1.3c3.4,0,6.7,0.1,10.1,0
	c1.2,0,1.3,0.5,1.3,1.4c0,3.4,0,6.7,0,10.1c0,3.2,0,6.5,0,9.7c0,1.3,0.2,1.8,1.6,1.6c1.8-0.3,2.7,0.3,2.4,2.3c-0.1,1.5-0.1,3,0,4.6
	c0,0.9-0.2,1.3-1.3,1.3c-4.7,0-9.5,0-14.2,0c-0.9,0-1.2-0.3-1.2-1.2c0-1.7,0.1-3.6,0-5.3c-0.1-1.4,0.3-2,1.7-1.7
	C-92.8,270.8-92.4,270-92.5,268.3z M-110.1,294.1c-0.1,4.6-0.1,9.2,0,13.9c0,1.2-0.2,1.7-1.6,1.7c-2.7-0.1-5.2-0.1-7.9,0
	c-1.2,0-1.6-0.2-1.6-1.5c0.1-1.6,0-3.1,0-4.7c0-0.9-0.3-1.3-1.3-1.3c-3.9,0-7.9,0-11.7,0c-1,0-1.4,0.5-1.4,1.4c0,3.9,0,7.9,0,11.7
	c0,1.2,0.5,1.4,1.5,1.4c4.5,0,8.9,0,13.4,0c1.3,0,1.7,0.3,1.6,1.6c-0.1,1.7-0.1,3.6,0,5.3c0,1.2-0.3,1.5-1.5,1.5
	c-4.4,0-8.8,0-13.2,0c-1.4,0-2,0.3-1.8,1.8c0.1,3.8,0.1,7.7,0,11.6c0,1.2,0.2,1.7,1.5,1.6c1.2-0.1,2.3,0,3.5,0
	c0.9,0,1.3,0.3,1.3,1.3c0,2.3-0.1,4.5,0,6.8c0,1-0.5,1.3-1.3,1.3c-6.9,0-13.8,0-20.7,0c-1,0-1.4-0.3-1.4-1.4c0.1-2.1,0.1-4.3,0-6.4
	c0-1,0.3-1.6,1.4-1.5c0.9,0.1,1.8-0.1,2.8,0c1.6,0.2,2.1-0.3,2.1-2c-0.1-8.8,0-17.6,0-26.4c0-2.8,0-5.7,0-8.4c0-1.2-0.3-1.7-1.5-1.6
	c-0.1,0-0.2,0-0.3,0c-4.3,0-4.4,0-4.3-4.3c0-1.6-0.8-3.7,0.5-4.7c1-0.9,3-0.2,4.6-0.2c5.5,0,11,0,16.5,0c6.4,0,12.7,0,19.1,0
	C-110.5,292.2-109.9,292.4-110.1,294.1z M-111.7,278.7c-2.1-0.1-4.3-0.1-6.4,0c-1,0-1.4-0.3-1.6-1.4c-1.7-7.5-3.7-14.9-5.5-22.5
	c-1.2,1.4-1.2,3-1.5,4.4c-1.6,6-3.1,12.1-4.5,18.3c-0.2,1.2-0.8,1.3-1.7,1.3c-2,0-4-0.1-6,0c-1.3,0.1-1.8-0.2-2.1-1.5
	c-2.1-7.7-4.2-15.5-6.2-23.2c-0.6-2-1-3.9-1.5-5.8c-0.2-1.2-1-1.2-2-1.2c-1.3,0.1-1.7-0.3-1.6-1.6c0.1-1.7,0.1-3.6,0-5.3
	c0-1,0.3-1.4,1.4-1.4c4.6,0,9.1,0,13.8,0c0.9,0,1.3,0.3,1.3,1.3c0,1.7-0.1,3.6,0,5.3c0.1,1.3-0.3,2-1.7,1.7
	c-1.2-0.1-1.6,0.1-1.3,1.5c1.3,4.6,2.3,9.2,3.4,13.9c0.1,0,0.2-0.1,0.3-0.1c1.4-5.8,2.7-11.4,4-17.2c0.1-0.6,0.2-1.2,0.5-1.7
	c0.5-1.5,0.1-3.5,1.3-4.3c1.3-0.9,3.2-0.2,4.9-0.2c3.8,0,3.7,0,4.5,3.7c1.5,6.6,3,13.2,4.5,19.8c0.1,0.3,0.2,0.6,0.5,1.2
	c1.3-5.3,2.5-10.3,3.7-15.3c0.2-1.2-0.6-1-1.2-0.9c-1.6,0.2-2.2-0.5-2-2.1c0.1-1.6,0.1-3.1,0-4.7c-0.1-1.2,0.3-1.6,1.5-1.6
	c4.5,0.1,8.9,0,13.4,0c1,0,1.5,0.3,1.5,1.5c-0.1,1.8-0.1,3.7,0,5.5c0,1.2-0.5,1.6-1.5,1.4c-1.4-0.2-1.8,0.3-2.2,1.7
	c-2.5,9.6-5.2,19.2-7.7,28.8C-110.2,278.5-110.6,278.7-111.7,278.7z M-61,320.1c0,6,0,12,0,17.9c0,1.5,0.3,2,2,2
	c3.4-0.1,3.4,0,3.4,3.4c0,1.5,0,3,0,4.6c0,0.9-0.2,1.4-1.2,1.4c-4.3,0-8.7,0-12.9,0c-1,0-1.3-0.5-1.3-1.4c0-1.2,0-2.3,0-3.7
	c-1.4,1.3-2.4,2.5-3.7,3.4c-6.1,4-15.3,3.7-21.8-0.9c-7.3-5.2-10.6-12.5-9.5-21.4c1.2-9,6.4-15.5,15.1-18.5c7.4-2.5,14.3-1.5,20,5.4
	c0-1.7,0-3,0-4.3c0-0.9,0.2-1.3,1.3-1.3c4.3,0,8.7,0,12.9,0c0.9,0,1.2,0.3,1.2,1.2c0,2.3,0,4.6,0,6.9c0,0.9-0.3,1.3-1.3,1.3
	c-1.3,0-3-0.7-3.8,0.3C-61.4,317.2-61,318.8-61,320.1z M138.9,194.2c-0.6,0-1.2-0.2-0.8-1c0.8-2.3,1.6-4.7,3.4-6.6
	c1.2-1.3,2.8-2,4.5-2.1c0.6,0,1,0.2,1.3,0.8c1.6,3.6,3.2,7.2,4.9,10.7c0.1,0.2,0.2,0.7,0.1,0.9c-0.2,0.5-0.6,0.1-0.9,0
	C147.1,195.9,143.2,194.6,138.9,194.2z M102,221.8c0.6-2.8,1.6-5.3,3.7-7.4c0,2.8-0.3,5.4-1,8.1c-0.3,1.4-1.5,0.7-2.3,0.7
	C101.3,223.1,102,222.3,102,221.8z M95.7,221.5c0.5,1,0.5,1.8-1.2,1.7c-2.1-0.1-4.2,0-6.2,0c-0.7,0-1.3-0.1-1.4-1
	c-0.8-3.7-1.6-7.4-2.5-11.4C89.3,213.4,93.6,216.3,95.7,221.5z M62,217.2c0.3-0.3,0.2-1.3,0.2-2.2c0.9,2.5,1.2,5,1.5,7.5
	c0,0.5-0.1,0.7-0.6,0.7c-0.6,0-0.8-0.3-0.9-0.9C61.8,220.7,60.4,219.1,62,217.2z M56.6,250.8c4.4-3.9,13.6-5.8,19.4,0.3
	c0-1-0.1-1.7,0-2.3c0.2-1.7-0.1-2.9-2.2-2.4c-0.9,0.1-1.2-0.3-1.2-1.2c0-1.7,0-3.6,0-5.3c0-0.9,0.2-1.4,1.3-1.3c3.1,0,6.4,0.1,9.5,0
	c1.5,0,1.3,0.9,1.3,1.8c0,9.2,0,18.6,0,27.9c0,1.6,0.2,2.5,2.2,2.2c0.9-0.2,1.3,0.3,1.3,1.3c0,1.8-0.1,3.7,0,5.5
	c0,1.2-0.3,1.5-1.5,1.4c-3-0.1-6-0.1-9,0c-1.5,0-2.2-0.3-2-1.8c0-0.2,0-0.6,0-1.3c-3.7,3.5-7.7,4.2-12.4,3.2c-3.7-0.8-6.7-2.7-9-5.8
	C49.7,266.4,50.7,256,56.6,250.8z M41.1,211.1c2.7,2.4,8.3,9.8,9.1,12.1c-2.1,0-4,0-6,0c-0.5,0-0.8-0.1-1-0.6
	c-1.2-3.1-2.7-6-2.5-9.5C40.5,212.5,40.7,211.8,41.1,211.1z M12.3,216.1c0.2-1.7,0.6-3.4,2.7-3.7l0.1-0.1c4.7-2.2,5.4-1.6,5.1,3.6
	c-0.1,2.1-0.7,4.2-0.9,6.4c-0.1,0.9-0.6,1.3-1.5,1.2c-0.5,0-0.9,0-1.5,0c-4.2,0-4.2,0-4.2-4.3C12.3,218,12.2,217,12.3,216.1z
	 M4.5,213.9c2.3,2.8,3,5.8,3.8,8.8c0,0.1,0,0.3,0,0.3c-1,0.7-2.2,0.1-3.4,0.3c-0.8,0.1-0.9-0.5-0.9-1C3.9,219.5,3.9,216.9,4.5,213.9
	z M0.2,238.6c1.8,0,4-0.8,5.3,0.3c1,0.9,0.1,3.1,0.3,4.7c0.2,2-0.5,2.7-2.3,2.3c-0.7-0.1-1.5,0-2.2,0c-4.3,0-4.3,0-4.3-4.2
	C-3.1,238.6-3.1,238.6,0.2,238.6z M-18.2,211.4c2,2.5,1,4.7,0.2,6.9c-0.5,1-1.2,2.1-1.5,3.1c-0.6,1.8-1.7,2.1-3.6,1.6
	C-21.1,219.4-18.9,215.9-18.2,211.4z M-46.8,292.6c1.2-1,3.5-0.2,5.3-0.3c4.2,0,4.2,0,4.2,4.2c0,0.3,0,0.7,0,1.4
	c-0.2,1.4,0.8,3.6-0.3,4.6c-1,0.8-3.1,0.3-4.7,0.2c-1.5,0-3.5,0.7-4.4-0.2s-0.3-2.9-0.2-4.4C-47.1,296.1-48,293.7-46.8,292.6z
	 M-32,348.7c-1.2,1.2-3.4,0.3-5.1,0.3c-4.5,0.1-9-0.1-13.5,0.1c-1.8,0-2.3-0.6-2.2-2.3c0.1-1.8,0.1-3.8,0-5.7c0-1,0.3-1.4,1.4-1.4
	c1.4,0,3.1,0.7,4-0.3s0.3-2.8,0.3-4.3c0-5.9,0-11.8,0-17.8c0-1.3-0.3-1.6-1.6-1.6c-4,0-4,0-4-4c0-1.4,0-2.7,0-4
	c0-0.9,0.2-1.4,1.3-1.4c4.3,0,8.7,0,12.9,0c1.4,0,1.3,0.8,1.3,1.7c0,5,0,10.1,0,15c0,5,0,9.9,0,14.8c0,1.4,0.3,2,1.8,2
	c3.8,0,3.8,0,3.7,3.8C-31.8,345.5-31,347.7-32,348.7z M-34.5,278.8c-0.8,0.2-1-0.3-1-1c0-1.3,0-2.4,0-3.9c0.2-1.3-0.7-3.4,0.3-4.3
	c0.9-0.8,2.9-0.2,4.4-0.2c0.6,0,1.3,0,1.8,0c1.2-0.1,1.7,0.1,2.1,1.4c0.7,2.1,4,2.8,5.7,1.3c1.4-1.3,0.8-3.5-1.2-4.2
	c-2.3-0.8-4.9-1.2-7.2-2.1c-4.7-2-6.8-5.8-6-10.9c0.7-4.3,4.5-7.4,9.2-7.6c2.3-0.1,4.6-0.1,6.7,1.2c0.2,0.1,0.5,0.5,0.8,0.2
	c1.7-1.7,3.9-0.5,5.9-0.8c0.8-0.1,0.8,0.6,0.8,1.2c0,2.2,0,4.4,0,6.6c0,1-0.5,1.3-1.3,1.2c-1.4,0-2.7,0-4,0c-1.5,0-2.9,0.2-3.6-1.8
	c-0.5-1.3-2-1.2-3.1-0.9c-1,0.2-1.8,0.8-2,2c-0.2,1.3,0.5,2.1,1.5,2.7c2.1,0.9,4.3,1.3,6.5,2c2.9,1,5.7,2.2,6.9,5.4
	c2.3,6.1-1.7,12.9-8.2,13.6c-2.9,0.3-5.8,0.5-8.3-1.3c-0.2-0.1-0.7-0.3-0.8-0.2C-30.2,279.9-32.5,278.3-34.5,278.8z M-2.2,316.4
	c-4.6,0.6-8.3,2.8-10.1,7.4c-0.6,1.5-0.7,3.1-0.7,4.6c-0.1,3.4,0,6.6,0,9.9c0,1.3,0.2,1.7,1.6,1.7c3.9,0,3.9,0.1,3.9,4
	c0,1.7,0.8,3.8-0.3,4.9c-1,0.9-3.1,0.2-4.7,0.2c-4.6,0-9.2,0-13.9,0c-1.3,0-1.8-0.2-1.8-1.7c0.1-2.1,0.1-4.2,0-6.2
	c0-1,0.3-1.4,1.4-1.4c1.3,0,3,0.6,3.8-0.3c0.8-0.9,0.2-2.7,0.2-4c0-5.9,0-11.8,0-17.8c0-1.4-0.2-2-1.7-1.8c-3.7,0.1-3.7,0-3.7-3.7
	c0-1.5,0-2.9,0-4.4c0-0.9,0.3-1.3,1.3-1.3c4,0,8.1,0,12.1,0c0.9,0,1.3,0.3,1.3,1.3c0,1.6,0,3.4,0,5.5c1.8-2.5,3.6-4.4,6-5.5
	c1.8-0.8,3.7-1.3,5.5-1.5c0.8-0.1,1.3,0.1,1.3,1c0,2.7,0,5.2,0,7.9C-0.8,316.1-1.4,316.3-2.2,316.4z M-5.6,278.7
	c-1.2,0-1.5-0.3-1.5-1.5c0.1-1.6,0.1-3.4,0-5c-0.1-1.4,0.3-2.1,1.8-1.8c1.8,0.3,2.2-0.5,2.2-2.2c-0.1-3.6-0.1-7.2,0-10.7
	c0-1.4-0.3-2-1.7-1.6c-1.6,0.3-2.3-0.3-2.1-2.1c0.1-1.6,0.1-3.2,0-5c0-0.8,0.2-1.2,1.2-1.2c3.5,0,6.8,0,10.3,0c1,0,1.2,0.5,1.2,1.3
	c0,3.4,0,6.7,0,10.1c0,3.2,0.1,6.5,0,9.7c0,1.3,0.2,2,1.6,1.7c1.8-0.3,2.5,0.3,2.3,2.2c-0.2,2,0.8,4.4-0.5,5.7
	c-1.2,1.2-3.6,0.2-5.4,0.3C0.7,278.7-2.5,278.7-5.6,278.7z M26.4,347.9c0,0.9-0.3,1.3-1.3,1.3c-5,0-10.1,0-15,0
	c-1.3,0-1.2-0.7-1.2-1.5c0-5,0-10.1,0-15c0-5.1,0-10.2,0-15.3c0-1.2-0.3-1.6-1.5-1.5c-1.3,0.1-2.5,0-3.8,0c-0.9,0-1.5-0.2-1.5-1.3
	c0-2.3,0-4.5,0-6.8c0-0.9,0.2-1.4,1.3-1.3c0.2,0,0.3,0,0.6,0c1.6-0.1,3.7,0.7,4.7-0.3c0.9-1,0.2-3,0.2-4.6c0-2.7,0-5.2,0-7.9
	c0-1,0.3-1.4,1.4-1.4c2.4,0,4.7,0,7.2,0c1,0,1.4,0.3,1.4,1.4c0,3.7,0,7.4,0,11.2c0,1.4,0.5,1.8,1.7,1.7c1.4-0.1,2.8,0,4.2,0
	c0.9,0,1.3,0.3,1.3,1.3c0,2.3,0,4.6,0,6.9c0,0.8-0.3,1.2-1.3,1.2c-1.6,0-3.1,0-4.7,0c-0.9,0-1.3,0.2-1.3,1.3c0,7.2,0,14.3,0,21.4
	c0,1,0.3,1.4,1.4,1.4c1.6-0.1,3.4,0,5,0c1,0,1.4,0.3,1.4,1.4C26.4,343.5,26.4,345.7,26.4,347.9z M29.1,272.7c-0.1,1.5-0.1,3,0,4.6
	c0,0.9-0.2,1.4-1.3,1.4c-4.6,0-9.1,0-13.8,0c-1,0-1.4-0.5-1.3-1.4c0-1.8,0.1-3.7,0-5.5c0-1,0.3-1.3,1.4-1.3c2.5,0,2.5-0.1,2.5-2.7
	c0-3.5-0.1-6.8,0-10.3c0-1.3-0.2-2-1.6-1.7c-1.6,0.3-2.3-0.3-2.1-2.1c0.1-1.5,0.1-3,0-4.6c-0.1-1.2,0.2-1.6,1.5-1.6
	c2.9,0.1,5.9,0.1,8.8,0c1.6-0.1,2.1,0.5,1.8,2c-0.1,0.5,0,0.9,0,1.7c3.2-3.8,7-5,11.6-4c4.7,1,7.6,4.4,7.9,9.2
	c0.1,3.9,0.1,8,0.1,11.9c0,1.5,0.3,2.2,1.8,2c1.8-0.3,2.3,0.5,2.2,2.2c-0.1,1.6-0.1,3.1,0,4.7c0,0.9-0.3,1.3-1.3,1.3
	c-3.5,0-6.9-0.1-10.4,0c-1.2,0-1.3-0.6-1.3-1.5c0-5.1,0-10.2,0-15.1c0-0.6,0-1.2,0-1.6c-0.2-3.4-1.8-5.1-4.7-5.2
	c-2.8,0-5.2,2.1-5.4,5.1c-0.1,3,0,6.1-0.1,9.1c0,1.3,0.8,1,1.5,0.9C28.9,270.1,29.3,271,29.1,272.7z M56.5,316.4
	c-3,0.3-5.8,1.5-7.9,3.8c-1.6,1.7-2.5,3.6-2.5,5.9c-0.1,4.2-0.1,8.4-0.2,12.6c0,1,0.5,1.4,1.4,1.4c1.3,0,2.9-0.6,3.7,0.3
	s0.2,2.5,0.2,3.9c0,1.6,0,3.4,0,5c-0.2,0.8-0.9,0.6-1.5,0.6c-5.8,0-11.7,0-17.5,0c-1.6,0-2.3-0.7-2.2-2.3c0.1-2,0-3.9,0-5.8
	c0-1.6,0.7-2.2,2.2-2.2c1.2,0,2.4,0,3.7,0c0-7.5,0.1-15,0.1-22.5c0-0.8-0.3-1-1.2-1c-0.3,0-0.6,0-0.9,0c-3.5,0-3.5,0-3.5-3.5
	c0-1.5,0-3,0-4.6c0-0.9,0.2-1.3,1.3-1.3c4,0,8.1,0,12.1,0c1,0,1.4,0.3,1.4,1.4c0,1.5,0,3,0,4.6c0.9-0.2,1.2-1,1.6-1.5
	c2.7-3,6-4.4,9.9-4.9c0.8-0.1,1.2,0.1,1.2,0.9c0,2.7,0,5.3,0,8.1C57.8,316.1,57.3,316.3,56.5,316.4z M110.3,349.2
	c-4.2,0-8.4,0-12.6,0c-1,0-1.4-0.3-1.4-1.4c0.1-1.2,0-2.3,0-3.9c-2.1,2.4-4.2,4.2-6.7,5.1c-7.6,2.8-14.7,1.3-20.7-3.8
	c-12.6-10.6-9.9-30.4,5-37.6c7.2-3.5,16.3-3.2,22,3.9c0,0.1,0.2,0.1,0.5,0.1c0-1.4,0-2.7,0-4c0-0.8,0.3-1.2,1.2-1.2
	c4.4,0,8.7,0,13.1,0c1,0,1.3,0.5,1.3,1.3c0,2.3,0,4.5,0,6.8c0,1-0.5,1.3-1.5,1.3c-3.9,0.1-3.9,0.1-3.9,4c0,6,0,12.1,0,18.1
	c0,1.5,0.5,1.8,1.8,1.8c3.6,0,3.6,0,3.6,3.6c0,1.4-0.1,2.8,0,4.2C111.8,348.8,111.4,349.2,110.3,349.2z M163.5,349.2
	c-4.2,0-8.3-0.1-12.5,0c-1.2,0-1.4-0.5-1.4-1.5c0.1-1.4,0-2.8,0-4.6c-2.4,3-5,5.1-8.3,5.9c-8.3,2.2-15.6,0-21.4-6.2
	c-5.7-6.1-7.4-13.5-4.9-21.5c2.8-8.4,8.7-13.6,17.6-15c6.1-1,11.4,0.9,15.7,5.3c0.2,0.2,0.6,0.5,1,0.9c0-3.6,0-6.8,0-10.1
	c0-0.5-0.2-0.8-0.8-0.8c-0.2,0-0.5,0-0.7,0c-4-0.1-4-0.1-4-4.2c0-1.6-0.7-3.7,0.3-4.7s3.1-0.3,4.7-0.3c2.8,0,5.7,0.1,8.4,0
	c1.5-0.1,2,0.5,2,2c0,14.4,0,28.9-0.1,43.5c0,1.8,0.3,2.4,2.3,2.3c3.2-0.1,3.2,0,3.2,3.1c0,1.5,0,3,0,4.6
	C165,348.7,164.7,349.2,163.5,349.2z M207.1,221c0.9,0,1.2,0.5,1.2,1.2c0.1,0.8-0.2,0.9-0.9,1c-0.9,0-1.2-0.5-1.3-1.2
	C206,221.3,206.5,221.1,207.1,221z M169.4,217.2c0.7,2.1,0.1,3.7-0.3,5.3c-0.5,1.3-1.5,0.3-2.5,0.9
	C167.4,221.1,167.7,218.9,169.4,217.2z M211.2,330c-0.1,1.4-0.7,1.6-2,1.6c-5.1,0-10.3,0-15.4,0s-10.2,0-15.1,0
	c-1.8,0-2,0.2-1.4,1.8c3.5,8.9,15.4,11,21.6,3.8c0.6-0.7,1.2-0.8,1.8-0.8c2.4,0,4.9,0.1,7.3,0c1.6-0.1,1.6,0.6,0.9,1.6
	c-3.5,6.4-8.6,10.5-15.8,11.8c-11.9,2.2-23.6-5.7-25.7-17.6c-2.2-12,4.4-23.6,16.6-26.5c12.4-2.9,25.2,5.3,26.8,18.4
	C211.5,326.2,211.5,328,211.2,330z M-97.9,207.5c0.3,0,0.6,0,0.9,0c0.5,0,0.8-0.2,0.8-0.7c0.6-2.8,1.5-5.4,1.5-8.2
	c0-0.6-0.1-1-0.7-1.5c-4.5-3.5-5.9-10.5-3.4-15.6c3.7-7,10.9-8.6,18.1-7.3c1.3,0.2,2.1,0.7,2.2,2.3c0.1,1.3,0.8,2.7,1.6,3.7
	c0.5,0.6,1.7,0.2,2.7,0.2c1.3-0.1,1.6,0.5,1.4,1.6c-0.2,1.7,0.1,3.4,0.8,5c2.1,5.2,1.6,6.1-3.5,8.6c-2.3,1.2-2.4,1.4-0.6,3.2
	c2.2,2.3,4.4,4.5,4.9,7.9c0.1,1,2.2,1.4,2.7,0.3c1.8-3.8,4.4-7,6.6-10.5c0.3-0.6,0.2-1-0.5-1.4c-2.4-1.4-3.8-4-6.4-5.3
	c-0.2-0.1-0.3-0.5-0.5-0.8c-1.7-4.6,0.5-12.1,4.4-15.3c3.8-2.9,8.1-3.9,12.8-3.8c1.2,0,1.8,0.2,2.2,1.5c0.3,1.4,1.2,2.7,1.8,3.9
	c2,3.9,3.8,8,4.2,12.5c0.1,1.8-0.9,3.9,0.5,5.3c1.3,1.4,3.2,2.1,4.9,3.1c0.1,0.1,0.2,0.1,0.3,0.1c1.3,1,1.8,0.6,2.2-0.9
	c0.7-3.2,1.4-6.5,2.2-9.6c0.5-1.5,0.6-3.5,2.8-3.6c1.2,0,2.1-0.2,3.1-0.8c0.9-0.6,2-0.8,3.1-0.5c1.2,0.5,2-0.3,2.4-1.2
	c0.5-0.9,1.4-2.2,0.3-3c-2-1.5-1.5-3.5-1.5-5.4c0-2.4,1.2-3.8,3.4-4.7c1.5-0.6,2.9-0.1,4.3-0.5c2.2-0.5,4.2-0.2,5.8,1.7
	c0.6,0.7,1.6,2.2,2.2-0.2c0.1-0.3,0.7-0.6,1.2-0.8c2.1-1,4.5-0.8,6.7-1.4c1.2-0.3,3,0,3.7,1.5c1,2.1,0.6,4.5,0.9,6.8
	c0.2,1.3-0.1,2.8-1.4,3.6c-1,0.7-0.9,1.5-0.7,2.5c0.7,2.8,0.5,5.4-0.9,8c-0.7,1.4-0.1,2,1.3,2.3c3.5,1,6.1,3,8.2,5.9
	c0.6,0.8,0.9,1.7,1.8,2.3c0.2-1.6,1.7-3,0-4.5c-0.1-0.1-0.1-0.6,0-0.9c0.8-2.2,1-4.4,1.5-6.7c0.5-2.4,2.2-4.5,1.7-7.2
	c-0.2-1.3-0.3-2.4,1.5-2.5c0.8,0,1-0.9,1.3-1.5c0.7-2.1,2.1-3.6,3.5-5.2c0.8-0.9,1.6-1.3,2.9-1.2c2.5,0.1,5,0.1,7.5,0
	c1.8-0.1,3.1,0.6,4,2.1c0.5,0.7,0.9,1.4,1.3,2.2c1.2,2.7,1.2,2.8,3.9,2c1.2-0.3,1.3,0,1,1c-0.3,1.4-0.8,2.8-0.2,4s0.6,2.4,0.3,3.6
	c-0.3,1.4,0.2,2.3,1.2,3.2c0.3,0.3,0.8,0.7,1.3,1c0.8,0.6,1,1.2,0.1,1.7c-0.3,0.2-0.6,0.6-0.9,0.8c-1,0.7-1.2,1.3-0.1,2.2
	c1.6,1.4,2.8,3.1,3.9,4.9c1,1.5,1.6,3.4,3,4.7c1.2-2.5,3.1-4.3,5.1-6c1.7-1.6,1.8-2-0.3-3c-3.2-1.5-5.1-3.9-6.1-7.2
	c-1.3-3.8-1.7-7.6-0.1-11.4c1.6-3.8,4.7-5.7,8.7-6.4c3.1-0.6,6.1-0.1,9,0.7c1.6,0.5,2.1,2.8,3.1,4.3c0.3,0.5,0.5,0.9,0.7,1.5
	c1.5,3.4,2.9,6.7,2.3,10.5c-0.3,2.1,0.2,3.1,2.4,3.4c4.5,0.6,8.4,2.2,11.8,5.4c1.8,1.8,3.8,3.6,6.1,5.1c0.9,0.6,1.3,0.3,1.7-0.5
	c0.7-1.3,1.5-2.4,2.5-3.5c0.7-0.7,0.7-1,0-1.7c-1.4-1.5-1.8-6.8-0.5-8.1c0.9-0.9,1.4-1.8,1.7-2.9c0.3-1,0.9-1.6,2.2-0.8
	c0.6,0.5,1.4,0.6,2.4,0.1c-1.3-0.8-1.5-2-1.4-3.1c0.2-2.3-0.5-4.6,0.3-7c0.3-1,0-2.3-0.2-3.5c-0.3-1.7-0.7-3.5-1-5.2
	c0.7,0,1.2,0.5,1.5,0.8c1.8,2,3.8,3.5,6.7,2c0.2-0.1,0.5,0,0.7,0c2.2-0.1,4.3,0.2,6.4,0.7c1,0.2,1.5,0.5,1.4,1.6
	c-0.1,0.7,0,1.3,0.9,1.4c5.2,0.6,7.9,3.9,9.5,8.6c0.8,2.3,1.2,4.6,1.8,7.4c2.5-2.7,5.4-4.5,8.3-6c3.2-1.7,6.8-2.7,8.8-6.1
	c0.1-0.3,0.6-0.5,0.8-0.7c3.5-2.3,7.2-2.7,11.1-1.5c7.2,2.1,11.2,7.2,8.7,15.7c-0.6,2-1.8,3.5-2.7,5.3c-0.7,1.7-0.5,2.7,1.3,3.1
	c3.9,0.9,6.5,3.6,8.7,6.7c1,1.5,2,3.2,3.4,4.4c1.3,1.2,3,0.9,3.5-0.6c0.7-2.1,2.2-2.7,3.9-3.1c2.7-0.6,2.8-0.8,2-3.4
	c-0.8-2.9-1.5-5.9-1-9c0.3-2.9,1.3-5.8,3.9-7.3c2-1,2.4-2.4,2.5-4.4c0-0.5-0.1-0.9,0.3-1.5c2.9,1.5,6,2.2,9.2,1.8
	c0.8-0.1,1.7,0.1,2.5,0c1-0.1,1.8,0.3,2.5,1.2c1.7,2,2.9,4.3,5.3,5.7c0.7,0.3,0.1,0.8,0,1.3c-0.6,1.5-1.3,2.9-0.6,4.6
	c0.7,1.8,0.5,3.7,0.5,5.7c0,1.4-0.7,2.2-2.1,2.3c-1.5,0.1-2.5,1.2-3.6,2c-0.8,0.7-0.9,1.2,0.1,1.7c1.2,0.6,2.3,1.4,3.1,2.3
	c0.9,1,2,1.4,3.4,1.4c60.8,0,121.6,0,182.5,0c0.7,0,1.3,0.2,2.2-0.3c-0.7-0.7-1.3-1.3-2-1.8c-8.8-7.4-17.7-14.8-26.5-22.2
	c-8.2-6.9-16.4-13.9-24.6-20.8c-11.3-9.5-22.7-19-34-28.4c-8.4-7-16.9-14.2-25.3-21.4c-0.8-0.7-1.7-1-3-1C174.6,111,64.8,111-45,111
	c-1.2,0-2,0.3-2.8,1c-4.7,4-9.5,8-14.2,12c-8.1,6.8-16.2,13.5-24.3,20.3c-13,11-25.9,21.8-39,32.7c-11.4,9.5-22.8,19.1-34.2,28.5
	c-0.5,0.3-1,0.7-1.3,1.5c0.6,0,1,0,1.4,0C-139.2,207.5-118.6,207.5-97.9,207.5z M404.4,415.2c0-63.3,0-126.8,0-190.1
	c0-1.6-0.3-2-2-2c-53.2,0-106.3,0-159.5,0c-1.6,0-2,0.5-2,2c0,31.7,0,63.3,0,95.1c0,31.7,0,63.3,0,95.1c0,1.6,0.3,2,2,2
	c53.2,0,106.3,0,159.5,0C404,417.3,404.4,416.8,404.4,415.2z M270.5,257.9c0.1-0.2,0.3-0.3,0.9-0.8c-1.4,4.2-2.4,7.9-2.9,11.7
	c-2,14.3,2,26.9,11.9,37.4c6.7,7.2,13.8,14.2,19.4,22.4c5.3,7.6,8.8,15.9,8.3,25.4c-0.2,5.9-1.7,11.6-4.2,16.9
	c-0.5,1-0.9,1.3-2.1,0.9c-10.3-3.2-19.4-8.4-27.3-15.8c-12.8-12-20.3-26.8-22-44.4C250.9,291.2,257,273.3,270.5,257.9z M258.3,393.9
	c0.9,0,1.8,0.1,2.8,0c1.2-0.1,1.7,0.1,1.7,1.5c0,1.5-0.8,1.4-1.7,1.4c-1.8,0-3.8,0-5.7,0c-1,0-1.4,0.2-1.4,1.3c0.1,2-0.1,4,0,6
	c0.1,1.5-0.7,1.5-1.7,1.5c-0.9,0-1.8,0.2-1.8-1.4c0.1-2.9,0-5.9,0-8.8s0-5.8,0-8.6c0-1,0.1-1.6,1.5-1.6c3.6,0.1,7,0.1,10.6,0
	c1.2,0,1.4,0.5,1.4,1.5s-0.1,1.6-1.5,1.6c-2.4-0.1-4.9,0-7.3,0c-0.8,0-1.2,0.2-1.2,1.2C253.8,393.9,253.7,393.9,258.3,393.9z
	 M279.1,405.6c-1.7,0.1-2.7-0.5-2.9-2.2c-0.1-1.5-0.9-2.1-2.4-1.8c-1.4,0.1-2.8,0.1-4.2,0c-1.5-0.1-2.4,0.2-2.4,1.8
	c-0.1,2.1-1.4,2.4-3.2,2.3c-0.8-0.1-1.2-0.1-0.8-1.2c2.1-6.1,4.2-12.3,6.1-18.3c0.5-1.4,1.6-0.7,2.4-0.8c1.7-0.5,2.3,0.3,2.8,1.8
	c1.8,5.7,3.8,11.3,5.8,16.9C280.6,405.1,280.5,405.5,279.1,405.6z M286.4,404.3c0,1.6-1,1-1.8,1.2c-0.8,0.1-1.6,0.2-1.6-1.3
	c0.1-3,0-6,0-9c0-2.9,0.1-5.9,0-8.8c-0.1-1.5,0.7-1.4,1.6-1.4c0.8,0,1.8-0.3,1.7,1.3C286.4,392.4,286.4,398.3,286.4,404.3z
	 M302.7,405.5c-0.8,0-1-0.6-1.3-1c-1-1.8-2-3.8-3-5.7c-0.5-0.8-3.4-1.5-4-0.8c-0.3,0.3-0.2,0.8-0.2,1.2c0,1.7-0.1,3.6,0,5.3
	c0.1,1.4-0.9,1-1.6,1c-0.7-0.1-1.8,0.7-1.8-0.9c0-6.1,0-12.4,0-18.5c0-0.8,0.3-0.9,1-0.9c2.7,0,5.3-0.1,8.1,0.1
	c3,0.2,5.1,2.1,5.7,4.6c0.7,3.1-0.2,5.4-3,6.9c-0.9,0.5-0.8,0.8-0.3,1.5c1.3,2.3,2.5,4.6,3.9,7.2
	C304.6,405.5,303.7,405.5,302.7,405.5z M321.5,386.9c0.1,0.7,0.2,1.6-0.9,1.4c-0.1,0-0.2,0-0.3,0c-1.4,0.1-3.4-0.7-4.2,0.3
	c-0.7,0.9-0.2,2.7-0.2,4c0,3.8-0.1,7.5,0,11.3c0,1.5-0.7,1.5-1.7,1.5s-1.8,0.1-1.7-1.4c0.1-2.3,0-4.7,0-7.2c0-2.3-0.1-4.6,0-6.9
	c0.1-1.3-0.2-2-1.6-1.7c-0.7,0.1-1.4-0.1-2,0c-1.8,0.3-2.1-0.7-2-2.2c0-0.7,0.2-0.9,0.9-0.9c4.3,0,8.7,0,12.9,0
	C322.1,385.1,321.5,386.2,321.5,386.9z M310.2,302c-10.4-3.2-19.1-8.8-24-19c-7.4-15.1-1.7-35.4,14.9-43.3c9.8-4.7,20.2-5.9,31-4.7
	c13.3,1.5,25.1,6.4,35.5,14.8c9.9,8.1,17.1,18.3,21.4,30.4c4.6,13.2,5,26.7,2.1,40.2c-2.3,10.4-6.9,19.8-13.6,28.1
	c-0.2,0.2-0.2,0.6-0.8,0.5c0-2.5-0.2-5.1-0.6-7.7c-1.3-9.2-6-16.4-13.8-21.6c-8-5.3-16.8-8.7-26-11.2
	C327.5,306.2,318.6,304.7,310.2,302z M333.7,402.8c-0.7-1.4-1.5-2.8-2.2-4.2c-0.3-0.7-0.7-0.8-1.4-0.9c-2.8-0.1-2.8-0.2-2.8,2.7
	c0,1-0.1,2.1,0,3.1c0.2,1.7-0.5,2.1-2.1,2.1c-1.4,0-1.5-0.6-1.5-1.7c0-5.7,0.1-11.3,0-17c0-1.4,0.3-1.7,1.7-1.7
	c2.3,0.1,4.6,0,6.9,0.1c4.6,0.1,7.5,4.2,6,8.4c-0.3,1.2-1,2.2-2.1,2.7c-2,0.7-1.4,1.6-0.7,2.9c1.2,2,2.2,4,3.4,6
	C335.4,405.8,335.4,405.8,333.7,402.8z M357,405.6c-1.7,0.1-2.7-0.5-2.9-2.2c-0.1-1.4-0.9-2.2-2.4-1.8c-0.8,0.1-1.6,0-2.4,0
	c-3.5,0-3.5,0-4.7,3.2c-0.2,0.7-0.7,0.9-1.4,0.8c-0.8,0-1.6,0-2.7,0c2.2-6.7,4.4-13.1,6.6-19.5c0.1-0.2,0-0.7,0.5-0.7
	c1.3-0.1,2.4-0.2,3.7,0c0.8,0.1,0.7,1.2,0.9,1.8c2,5.7,3.8,11.4,5.9,17.1C358.4,405.4,358.1,405.5,357,405.6z M377.2,398.1
	c-0.8,4.5-3.6,7-8.2,7.3c-2.5,0.1-5,0-7.5,0.1c-1,0-1.3-0.3-1.3-1.3c0.1-1.5,0-3,0-4.6c0-1.5,0-2.9,0-4.4c0-2.9,0.1-5.9,0-8.8
	c0-1.3,0.5-1.4,1.5-1.4c2.2,0.1,4.4,0,6.6,0.1c4.9,0.1,8.3,3.2,8.9,8.2C377.4,395,377.4,396.6,377.2,398.1z M394.4,403.9
	c-0.1,0.8,0.2,1.6-1.2,1.6c-3.9-0.1-8-0.1-11.9,0c-1.2,0-1.3-0.3-1.3-1.4c0-2.9,0-5.9,0-8.8c0-3,0-6,0-9c0-0.9,0.2-1.3,1.2-1.3
	c4,0,8.1,0.1,12,0c1.4,0,1,0.8,1,1.5s0.3,1.6-1,1.5c-2.8-0.1-5.7,0-8.4,0c-1,0-1.5,0.1-1.5,1.4c0,4-0.1,4,4,4c1.6,0,3.4,0.1,5,0
	c1.3-0.1,1,0.7,1,1.4c0,0.7,0.2,1.5-0.9,1.5c-2.5,0-5.1,0-7.6,0c-1,0-1.3,0.3-1.4,1.4c-0.1,4.6-0.1,4.6,4.6,4.6c1.7,0,3.5,0.1,5.1,0
	C394.4,402.4,394.5,402.9,394.4,403.9z M188.1,362c-43.7,0-87.5,0-131.2,0s-87.5,0-131.2,0c-2,0-2.2,0.6-2.2,2.3
	c0.1,24.5,0.1,49.1,0,73.6c0,1.7,0.3,2.2,2.2,2.2c87.5,0,174.9,0,262.3,0c2.3,0,2.3,0,2.3-2.4c0-24.5,0-49,0-73.5
	C190.4,362.5,190,362,188.1,362z M-23.1,413.9c-1,6.2-4.2,10.9-10.3,12.8c-5.3,1.7-10.5,1.5-15-2.5c-0.1-0.1-0.2-0.5-0.6-0.3
	c-0.1,0.1-0.2,0.1-0.2,0.2c-0.1,2.4-0.1,2.4-2.7,2.4c-1.2,0-2.3-0.1-3.5,0s-1.4-0.3-1.4-1.5c0-4.2,0-8.3,0-12.5c0-1,0.2-1.5,1.4-1.5
	c2.1,0.1,4.2,0.1,6.2,0c0.9,0,1.3,0.3,1.3,1.3c0.5,4,3.2,6.6,7.3,6.8c4,0.2,6.9-2,7.9-5.8c0.6-2.4-0.6-4.7-2.8-5.9
	c-3.6-1.8-7.6-2.9-11.3-4.3c-6.7-2.5-10.7-7.9-10.4-14.2c0.6-10.6,10.7-16.1,19-14c2.2,0.6,3.8,1.6,5.9,3.5
	c-0.5-2.4,0.6-2.8,2.2-2.5s3.9-0.8,4.9,0.5c0.8,1,0.2,3.1,0.2,4.7c0,2.2-0.1,4.4,0,6.6c0.1,1.6-0.5,2-2,1.8c-1.7-0.1-3.6-0.1-5.3,0
	c-1,0-1.4-0.2-1.6-1.3c-1.2-5.4-6.4-6.6-10.4-4.5c-2.3,1.2-3.5,3.2-3.4,5.8c0.1,3.1,2.4,4.5,5.1,5.5c3.9,1.5,8.1,2.5,11.9,4.4
	C-25.3,402-22.2,407.9-23.1,413.9z M19,415c-2.2,5.7-6.4,9.4-11.9,11.4c-7.7,3-17.5,0.2-22.8-6.2c-9-11.1-3.8-28,9.8-31.8
	c5.4-1.5,10.6-1,15.1,2.7c0.3,0.2,0.6,0.6,0.9,0.3c0.5-0.1,0.2-0.7,0.2-0.9c-0.3-1.8,0.6-2.2,2.2-2.1c1.3,0.1,2.5,0.1,3.8,0
	c1.4-0.1,1.6,0.5,1.6,1.6c-0.1,1.6,0,3.1,0,4.7c0,1.7,0,3.5,0,5.1c0,0.9-0.3,1.3-1.3,1.3c-2,0-3.9-0.1-5.9,0
	c-1.3,0.1-1.7-0.8-2.4-1.6c-5.1-5.2-13.3-4.7-17.7,1.2c-2.7,3.6-2.9,8.8-0.5,12.7c2.3,3.8,7.4,6,11.8,5.3c3-0.6,5.4-1.8,7.2-4.4
	c0.5-0.6,0.9-0.9,1.7-0.9c2.4,0,4.7,0,7.2,0C19.3,413.6,19.5,413.9,19,415z M65.5,426.3c-0.9,0.9-2.9,0.2-4.4,0.3c-4,0-8.1,0-12.1,0
	c-1.3,0-1.7-0.2-1.7-1.6c0.1-1.7,0.1-3.5,0-5.1c0-1.2,0.2-1.5,1.4-1.5c3.5,0,3.5-0.1,3.5-3.5c0-3.9,0.1-7.7-0.2-11.7
	c-0.3-3.6-3.2-6.4-6.8-6.6c-4.4-0.2-7.9,2.1-8.7,5.8c-1,4.9-0.3,9.8-0.6,14.8c0,1,0.7,1.3,1.6,1.3c3.5,0.1,3.5,0.1,3.5,3.6
	c0,4.5,0,4.5-4.5,4.5c-4.2,0-8.4,0-12.6,0c-1.2,0-1.5-0.3-1.5-1.5c0.1-1.7,0.1-3.6,0-5.3c0-1.2,0.5-1.4,1.5-1.4
	c3.4,0,3.4-0.1,3.4-3.4c0-9.6,0-19.3,0-28.9c0-1.5-0.3-2.3-2-2c-0.5,0.1-0.8,0-1.3,0c-1.3,0.2-1.7-0.3-1.6-1.6
	c0.1-1.7,0.1-3.5,0-5.1c0-1,0.3-1.4,1.4-1.4c3.6,0,7.2,0.1,10.7,0c1.2,0,1.5,0.3,1.5,1.5c0,4.7,0,9.5,0,14.3c0,0.6-0.1,1.2,0.2,1.8
	c1.7-1.7,3.2-3.5,5.5-4.5c7.2-3.2,16.1,0.8,18.3,8.4c1,3.5,1,6.9,1,10.5c0,2.9,0,5.9,0,8.8c0,1.2,0.2,1.7,1.6,1.7
	c3.2,0,3.4,0.1,3.2,3.4C65.8,423.4,66.4,425.4,65.5,426.3z M88,427.6c-11.4,0-19.9-8.7-19.9-20.1c0-11.1,8.8-19.6,19.9-20
	c10.3-0.2,20.5,9.5,19.6,19.9C108,418.3,99.4,427.7,88,427.6z M130.6,427.6c-11.7,0-19.8-8.9-19.9-20c0-11.3,8.7-20.2,20-20
	c9.8-0.7,19.9,8.4,19.6,19.8C150.2,419,141.5,427.7,130.6,427.6z M172.1,419.9c-0.1,1.7-0.1,3.6,0,5.3c0,1-0.2,1.4-1.3,1.4
	c-5.2,0-10.5,0-15.7,0c-1.2,0-1.5-0.3-1.4-1.5c0.1-1.7,0.1-3.6,0-5.3c0-1,0.2-1.4,1.3-1.4c3.7-0.1,3.7-0.1,3.7-3.9
	c0-9.5,0-19,0-28.4c0-1.5-0.2-2.2-2-2.1c-3,0.1-3,0-3-2.9c0-1.6-0.7-3.7,0.2-4.7c1-1.2,3.2-0.3,5-0.3c2.1-0.1,4.2,0.1,6.2-0.1
	s2.3,0.6,2.3,2.3c-0.1,6.2,0,12.6,0,18.8c0,6.4,0.1,12.8,0,19.2c0,1.7,0.6,2.3,2.2,2.1c0.3,0,0.7,0,1,0
	C171.7,418.3,172.2,418.7,172.1,419.9z M129.5,186.8c-1.2,0.2-1.7,0.9-2.3,1.7c-1.2,1.6-2.2,3.1-3.4,4.7c-0.9,1.2-0.8,1.7,0.6,2.5
	c4.3,2.3,7.7,5.4,8.2,10.7c0,0.6,0.2,1,1,1c2.2,0,4.4,0,6.8,0c-0.5-0.9-0.8-1.6-1.2-2.3c-1.4-2.9-4.2-3.8-6.8-5
	c-4.9-2.1-6.5-6-4.4-10.6C128.5,188.7,129.3,188.1,129.5,186.8z M-22.3,193.4c-2.3,1.8-4,4-3.5,7.3c0.1,0.5-0.2,1-0.3,1.6
	c-0.5,1.6-1,3.2-1.6,5.1c4.5-4.3,5.1-6.4,5.4-11.8c0.1-1,0.6-1.5,1.4-2c3.6-2.2,3.6-2.2,1.5-5.8c0,0-0.1,0-0.6-0.2
	C-19.1,190.4-20.6,192-22.3,193.4z M242.1,431.8c-2.7,0.1-0.6,2.4-1.3,3.5c-0.1,0.2,0,0.7,0,1c0,1.3,0,2.5,0,3.8
	c0,0.3-0.1,0.8,0.5,1c3.8,1.5,7.5-1.3,7.3-5.5C248.3,432.6,246.6,431.5,242.1,431.8z M245.8,439.6c-1,0.7-2.3,0.7-3.4,0.2
	c-0.8-0.3-0.2-1.4-0.3-2.2c-0.1-0.7-0.2-1.5,0-2.2c0.2-0.8-1-2.3,0.9-2.5c2.4-0.2,3.8,0.6,4,2.5c0,0.3,0,0.6,0.1,0.8
	C247.2,437.6,246.9,438.8,245.8,439.6z M271.1,435.8c-0.7-0.1-1.3-0.2-2-0.5c-0.6-0.2-0.9-0.6-0.9-1.2c0-0.7,0.5-1.2,1.2-1.3
	c1.2-0.2,2.4-0.2,2.9,1.2c0.2,0.7,0.7,0.9,1.3,0.6c0.6-0.3,0.1-0.9,0-1.3c-0.6-1.5-2.7-2.1-4.6-1.5c-1.3,0.3-2,1.2-2,2.5
	s0.8,2,2,2.3c0.9,0.2,1.8,0.5,2.8,0.7c0.7,0.2,1.3,0.6,1.2,1.4c-0.1,0.8-0.7,1.3-1.4,1.4c-1.4,0.2-2.8,0.1-3.4-1.5
	c-0.2-0.6-0.6-0.8-1-0.7c-0.7,0.2-0.3,0.8-0.2,1.2c0.6,1.7,2,2.2,3,2.2c2.8,0,4.3-0.9,4.5-2.5C274.3,437.3,273.3,436.3,271.1,435.8z
	 M371.9,431.7c-1,0.1-0.6,0.9-0.6,1.4c-0.1,2.7-0.1,2.7-2.3,2.7c-2.4,0-2.4,0-2.4-2.4c0-0.3,0-0.6,0-0.9c0-0.6-0.2-0.7-0.8-0.7
	s-0.7,0.3-0.7,0.8c0,1.3,0,2.5,0,3.8c0,1.2,0,2.3,0,3.5c0,0.5-0.5,1.4,0.6,1.4c1.2,0,0.7-0.9,0.8-1.5s0.1-1.2,0-1.6
	c-0.1-0.9,0.2-1.3,1.2-1.3c3.4-0.1,3.4-0.1,3.6,3.2c0,0.5-0.2,1,0.6,1c0.8,0.1,0.8-0.6,0.8-1c0-2.3,0-4.6,0-6.9
	C372.6,432.6,373,431.7,371.9,431.7z M394.2,431.7c-0.5,0-0.6,0.2-0.6,0.7c0,0.7,0,1.4,0,2.3c-0.6-0.2-1-0.3-1.5-0.5
	c-1.3-0.3-2.4,0-3.2,1c-0.9,1.4-0.9,2.9-0.2,4.4c0.6,1.2,1.6,1.6,3,1.6c0.8,0,1.6-0.8,2.7-0.1c0.3,0.2,0.5-0.3,0.5-0.7
	c0-2.7,0-5.3,0-8C394.8,432.1,394.8,431.7,394.2,431.7z M391.6,440.1c-1.5,0-2-1-2.1-2.2c0-1.6,0.3-2.8,2-2.8s2,1.3,2,2.5
	C393.6,439,393.1,440.1,391.6,440.1z M350,438.1c0.1,0,0.2,0,0.3,0c0.3,0,0.7,0,1,0c1.5,0.2,1.8-0.5,1.3-1.7c-0.7-1.8-2.3-2.7-4-2
	s-2.5,3.1-1.7,5.1c0.7,1.6,2.5,2.3,4.3,1.6c0.8-0.3,1.3-0.9,1.5-1.7c0-0.1-0.1-0.3-0.2-0.5c-0.9-0.3-1,0.6-1.5,0.9
	c-0.7,0.5-1.5,0.5-2.2,0c-0.5-0.3-0.9-0.8-0.7-1.4C348.5,437.6,349.5,438.2,350,438.1z M349.8,435.3c0.8,0,1.7,0.3,1.7,1.3
	c-0.1,0.9-1,0.2-1.6,0.6c-0.5-0.3-1.5,0.5-1.6-0.6C348.2,435.6,349,435.3,349.8,435.3z M255.2,437.1c-0.1-2.7-1.6-3.7-4-2.8
	c-0.7,0.2-1.3,0.8-1.4,1.5c-0.1,0.2,0,0.5,0.2,0.6c0.8,0.2,1-0.5,1.4-0.9c0.1-0.1,0.5-0.2,0.7-0.2c0.7-0.1,1.6-0.2,1.8,0.7
	c0.2,1-0.7,0.9-1.3,1c-0.3,0.1-0.8,0.1-1.3,0.2c-1.2,0.2-2,0.9-1.8,2.3s1.2,1.7,2.4,1.7c0.6,0,1.2-0.1,1.6-0.5
	c0.7-0.5,0.8,0.7,1.5,0.5c0.6-0.1,1.2-0.6,0.7-0.9C254.6,439.5,255.3,438.2,255.2,437.1z M253.9,438.6c-0.1,1.2-0.9,1.5-1.8,1.5
	c-0.7,0-1.4-0.2-1.3-1c0.2-1.3,1.5-1,2.3-1.2C253.7,437.8,253.9,438.1,253.9,438.6z M338.4,438.2c-0.2-1.6,0.5-3.1-1-3.7
	c-1.2-0.5-2.4-0.5-3.5,0.1c-0.7,0.3-1.3,1-0.8,1.7c0.6,0.6,0.9-0.1,1.3-0.6c0.6-0.7,1.4-0.6,2.2-0.2c0.3,0.1,0.6,0.6,0.5,0.9
	c-0.2,0.8-1,0.6-1.7,0.8c-0.1,0-0.2,0-0.3,0c-1.8,0.3-2.7,1.2-2.3,2.5c0.2,1.3,1.7,2,3.2,1.4c0.8-0.2,1.4-0.5,2.1,0.1
	c0.2,0.1,0.7,0.1,0.9-0.2c0.1-0.1,0.1-0.6,0-0.7C337.7,439.7,338.5,438.5,338.4,438.2z M335.5,440.1c-1,0.1-1.7-0.1-1.6-0.9
	c0.1-1.4,1.4-1.2,2.3-1.3c0.5-0.1,0.8-0.1,0.8,0.6C336.9,439.8,336.1,440,335.5,440.1z M379.7,438c0-0.5,0-0.9,0-1.3
	c0.1-1.2-0.1-2.1-1.4-2.4c-1.4-0.2-2.8-0.3-3.8,1c-0.2,0.3-0.6,0.8-0.1,1.2c0.3,0.2,0.8,0.2,1-0.3c0.5-0.9,1.3-0.9,2.2-0.8
	c0.5,0.1,0.8,0.3,0.8,0.9c0,0.3-0.3,0.6-0.7,0.7c-0.6,0.1-1.2,0.2-1.7,0.3c-0.8,0.2-1.6,0.5-2,1.5c-0.2,0.7-0.1,1.4,0.3,1.8
	c0.7,0.8,1.7,0.8,2.8,0.6c0.7-0.1,1.4-0.8,2.2,0c0.2,0.2,0.7,0.2,0.9-0.2c0.1-0.1,0.1-0.6,0.1-0.7
	C379.2,439.7,380.1,438.6,379.7,438z M378.6,438.5c-0.1,1.2-0.9,1.6-2,1.7c-0.7,0-1.4-0.2-1.2-1c0.2-1.3,1.5-1,2.3-1.2
	C378.1,438,378.7,437.8,378.6,438.5z M398.1,434.4c-1.8,0.6-2.7,3-1.8,5.1c0.7,1.6,2.5,2.4,4.3,1.7c0.8-0.3,1.3-0.9,1.5-1.7
	c0-0.1-0.1-0.3-0.2-0.5c-0.9-0.5-1,0.6-1.5,0.9c-0.7,0.5-1.5,0.5-2.2,0c-0.5-0.3-0.9-0.8-0.7-1.4c0.3-0.9,1.3-0.2,2-0.5
	c0.1,0,0.2,0,0.3,0c0.3,0,0.7,0,1,0c1.6,0.2,1.7-0.6,1.3-1.8C401.5,434.6,399.9,433.7,398.1,434.4z M398.6,437c-0.3,0-1,0.3-1.2-0.3
	c0-0.5,0.3-0.9,0.8-1.2c1.4-0.6,2.2,0,2.9,1.5C400.1,437,399.4,437.1,398.6,437z M294.8,438.1c0.9,0,2,0,2.9,0c1,0,1.2-0.3,0.9-1.3
	c-0.5-1.8-1.7-2.9-3.6-2.7c-1.7,0.2-2.9,1.8-2.8,3.7c0.1,2.2,1.3,3.4,3.4,3.4c0.7,0.1,1.4-0.1,2-0.7c0.5-0.3,1-1,0.7-1.5
	c-0.6-0.7-0.9,0.1-1.4,0.5c-0.9,0.9-1.8,0.7-2.8,0c-0.2-0.2-0.5-0.8-0.5-1.2C293.9,437.8,294.4,438.1,294.8,438.1z M293.6,437
	c0.3-1.4,1-1.8,2.2-1.7c0.7,0.1,1.4,0.6,1.4,1.3c0,0.9-0.9,0.5-1.4,0.5C295.1,437.1,294.6,437,293.6,437z M280.3,438.1
	c0.9,0,2-0.1,2.9,0s1-0.3,0.9-1.2c-0.2-1.7-1.5-2.9-3.2-2.8c-2,0.1-3.1,1.6-3,3.8c0.1,2.1,1.3,3.4,3.4,3.4c0.8,0.1,1.6-0.2,2.1-0.8
	c0.3-0.5,1-0.9,0.5-1.5c-0.5-0.5-0.8,0.2-1.3,0.6c-0.8,0.9-1.8,0.8-2.8,0c-0.3-0.2-0.5-0.7-0.5-1.2
	C279.4,437.8,280,438.1,280.3,438.1z M281,435.3c0.8,0,1.7,0.3,1.7,1.3c0,0.9-1,0.2-1.6,0.6c-0.5-0.3-1.6,0.6-1.6-0.7
	C279.4,435.8,280.2,435.3,281,435.3z M259.9,437.1c-0.2,0-0.5-0.1-0.7-0.2c-0.6-0.1-1.5-0.3-1.3-1c0.2-0.8,1.2-0.7,1.8-0.6
	c0.5,0.1,0.6,0.3,0.8,0.7c0.3,0.3,0.8,0.5,1,0.1c0.3-0.3,0.1-0.8-0.2-1.2c-1-1-2.3-1-3.6-0.7c-0.8,0.2-1.4,0.8-1.4,1.7
	s0.5,1.5,1.3,1.7c0.7,0.2,1.5,0.3,2.3,0.6c0.5,0.1,0.8,0.3,0.7,0.9c-0.1,0.5-0.5,0.7-0.9,0.8c-0.8,0.1-1.7,0.2-2.2-0.8
	c-0.2-0.5-0.6-0.7-1-0.3c-0.6,0.3-0.1,0.9,0.1,1.3c0.6,0.9,1.5,1.2,2.5,1c1.4,0,2.7-0.2,2.9-1.8C262.3,437.7,261,437.4,259.9,437.1z
	 M387,436.3c-0.1-1.4-0.8-2.1-2.2-2.2c-3.4-0.1-3.5,0-3.5,3.5c0,0.1,0,0.1,0,0.2c0,0.7,0,1.5,0,2.2c0,0.5-0.2,1.3,0.6,1.3
	c0.9,0,0.6-0.7,0.7-1.2c0-0.9,0-2,0-2.9c0-1.2,0.7-1.8,1.8-1.8c1.2,0,1.3,0.9,1.4,1.7c0,1,0,2.2,0,3.2c0,0.5,0,0.9,0.6,0.8
	c0.7,0,0.6-0.5,0.6-0.9C387.1,439,387.1,437.6,387,436.3z M315.8,437.8c0-0.8,0-1.7,0-2.5c0-0.5,0-1-0.7-0.9c-0.7,0-0.6,0.5-0.6,0.9
	c0,1,0,2.1,0,3.1c0,1.2-0.7,1.8-1.8,1.8c-1.3,0-1.4-0.9-1.4-1.8c0-1,0-2.2,0-3.2c0-0.5-0.1-0.7-0.6-0.7s-0.6,0.3-0.6,0.7
	c0,0.8,0,1.7,0,2.5c0,3.7,0.2,3.9,3.9,3.4c0.1,0,0.2-0.1,0.3-0.1c2,1.3,1.4-0.5,1.5-1.3C315.9,439,315.8,438.4,315.8,437.8z
	 M330.3,431.7c-1.5,0-3.6-0.7-4.5,0.3c-0.7,0.8-0.1,2.9-0.1,4.4h-0.1c0,1.4,0,2.7,0,4c0,0.5,0.1,0.8,0.7,0.8c0.5,0,0.8-0.1,0.7-0.6
	c-0.5-2.9,0.3-4.4,3.6-3.7c0.3,0.1,0.6-0.1,0.6-0.6c0-0.6-0.3-0.6-0.7-0.6c-0.8,0-1.7,0-2.5,0c-0.6,0-0.8-0.1-0.9-0.8
	c-0.1-1.5,0.1-2.5,2-2.1c0.5,0.1,1,0.1,1.5,0s1.4,0.5,1.4-0.6C331.8,431.2,330.9,431.7,330.3,431.7z M357.6,434.1
	c-1-0.1-2,0.3-3,0.3c-0.9,0-0.2,2-0.3,3c0,0.1,0,0.1,0,0.2c0,0.8,0,1.6,0,2.4c0,0.5-0.2,1,0.6,1s0.6-0.6,0.6-1c0-1,0-2.2,0.1-3.2
	s0.8-1.6,1.8-1.6c1.2,0,1.3,0.9,1.3,1.8c0,1.2,0,2.2,0,3.4c0,0.5,0.1,0.9,0.7,0.8c0.5,0,0.6-0.3,0.6-0.8c0-1.5,0-3-0.1-4.5
	C359.6,434.6,358.6,434.3,357.6,434.1z M308.5,431.7c-0.5,0-0.9,0.1-1.4,0.5c-0.7,0.7,0,2.4-1.6,2.5v0.5c2.1,0.5,0.8,2.1,1.2,2.9
	c0,0.7,0,1.3,0,1.8s-0.3,1.3,0.6,1.3s0.6-0.7,0.6-1.2c0-0.9,0-1.8,0-2.8c0-0.8-0.5-1.8,1-2c0.5,0,0.3-0.9-0.3-0.9
	c-0.5-0.1-0.8-0.1-0.8-0.7s0.2-0.8,0.8-0.8s0.8-0.2,0.7-0.8C309.2,431.6,308.9,431.7,308.5,431.7z M320.1,434.3
	c-0.5,0.2-0.9,0.7-1.4,0.7c-1.3,0-1.3-0.1-1.3,0.9c0,0.6,0,1.2,0,1.8c0,0.7,0,1.5,0,2.2c0,0.5-0.3,1.3,0.6,1.3c1,0,0.6-0.8,0.6-1.4
	c0.1-1.7-0.6-3.9,2.2-4.5c0.3-0.1,0.3-0.5,0.2-0.8C320.8,434,320.5,434.1,320.1,434.3z M404,431.7c-0.6,0-0.7,0.3-0.7,0.8
	c0,2.7,0,5.2,0,7.9c0,0.5,0.1,0.8,0.7,0.8c0.7,0,0.6-0.5,0.6-0.8c0-1.3,0-2.5,0-3.8s0-2.5,0-3.8C404.7,432.3,404.8,431.7,404,431.7z
	 M345.5,434.3c-0.6,0.2-1,0.7-1.6,0.7c-1.3-0.1-1.3-0.2-1.3,1.2c0,0.6,0,1,0,1.6c0,0.7-0.1,1.4,0,2s-0.5,1.5,0.7,1.5
	c0.9,0,0.5-0.9,0.5-1.5c0.1-1.7-0.5-3.8,2.2-4.3c0.5-0.1,0.3-0.6,0.2-0.9C346.2,434.1,345.9,434.1,345.5,434.3z M300.5,431.7
	c-0.7,0-0.7,0.3-0.7,0.8c0,1.3,0,2.5,0,3.8c0,1.4,0,2.7,0,4c0,0.3,0,0.7,0.5,0.8c0.7,0.1,0.6-0.3,0.7-0.8c0-2.7,0-5.2,0-7.9
	C301,432.2,301,431.8,300.5,431.7z M276,434.3c-0.5,0-0.6,0.3-0.6,0.8c0,0.9,0,1.8,0,2.8s0,1.8,0,2.8c0,0.5,0.1,0.7,0.6,0.7
	s0.6-0.3,0.6-0.7c0-1.8,0-3.6,0-5.4C276.7,434.6,276.5,434.3,276,434.3z M340.6,434.3c-0.6,0-0.7,0.3-0.7,0.8c0,0.8,0,1.7,0,2.5
	c0,0.9,0,1.8,0,2.8c0,0.5,0.1,0.8,0.7,0.8c0.5,0,0.6-0.3,0.6-0.7c0-1.8,0-3.6,0-5.4C341.1,434.6,341,434.4,340.6,434.3z M276,433.2
	c0.6,0,0.8-0.2,0.7-0.7c0-0.3,0-0.7-0.6-0.7s-0.7,0.2-0.7,0.7C275.4,432.9,275.4,433.2,276,433.2z M340.6,431.7
	c-0.6,0-0.7,0.2-0.7,0.7c0,0.3,0,0.7,0.6,0.7s0.8-0.2,0.7-0.7C341.1,432.1,341,431.7,340.6,431.7z M429,233.2
	c-0.3-0.3,0.2-0.5,0.3-0.7c1-1.2,1.2-2.4,0.6-3.7c-0.6-1.3-1.7-1.7-3.1-1.7c-1.6,0-3.1,0.1-4.7,0c-1,0-1.3,0.3-1.2,1.3
	c0.1,1.5,0,2.9,0,4.4s0.1,3,0,4.5c-0.1,1.3,0.6,1.4,1.5,1.3c1.6-0.1,0.8-1.4,0.8-2.1c0.1-2.5,0-2.5,2.4-2.4c1.3,0.1,2,0.6,1.8,2
	c0,0.6,0,1,0.1,1.6c0.1,1.5,1.4,0.9,2.1,0.9c1.4,0,0.3-0.8,0.3-1.3C429.8,235.8,430.4,234.3,429,233.2z M426,232c-0.3,0-0.6,0-1,0
	c-1.4,0.3-1.8-0.3-1.7-1.8c0-0.9,0.3-1.2,1.2-1.2c0.6,0,1,0,1.6,0c0.9,0,1.7,0.3,1.8,1.4C427.8,231.5,427,232,426,232z M137.2,315.2
	c-7.2,0-12.8,5.8-12.8,12.9c0,6.8,5.8,12.7,12.7,12.7s12.7-5.9,12.7-13.1C149.9,320.8,144.2,315.1,137.2,315.2z M83.9,315.2
	c-7,0-12.7,5.7-12.7,12.9c0,6.8,5.8,12.6,12.6,12.5c7,0,12.8-5.8,12.8-12.9C96.6,320.9,90.8,315.2,83.9,315.2z M-83.6,315.2
	c-7,0-12.6,5.7-12.6,12.8c0,6.9,5.5,12.6,12.4,12.7c7,0.1,12.9-5.8,12.9-12.9C-70.9,320.8-76.5,315.2-83.6,315.2z M188.2,314.2
	c-5.5,0.5-10.1,4.4-11.3,9.8c7.6,0,15.3,0,22.8,0c2.9,0,2.9,0,1.6-2.5C198.5,316.1,193.2,313.8,188.2,314.2z M68.4,271
	c4.3,0,7.3-3.2,7.3-7.6c0-4.5-3.1-7.7-7.5-7.7c-4.2,0-7.4,3.4-7.4,7.6C60.8,267.6,64.1,271,68.4,271z M351.7,280.3
	c0-10.3-8.2-18.4-18.5-18.4c-10.4,0-18.6,9.1-18.4,19c0.3,9.7,8.6,18,18.5,17.9C343.6,298.8,351.8,290.6,351.7,280.3z M365.6,388.3
	c-0.1,0-0.1,0-0.2,0c-1.4-0.2-2,0.2-1.8,1.7c0.1,1.8,0,3.7,0,5.4c0,0.8,0,1.7,0,2.5c0,5.1,0,5.1,5.1,4.3c2.7-0.3,4-1.7,4.6-4.2
	C374.9,391.8,372.1,388.3,365.6,388.3z M333.4,388.6c-0.7-0.3-1.5-0.3-2.3-0.3c-3.7-0.1-3.7-0.1-3.7,3.5c0,0.8,0,1.7,0,2.5
	c0,0.6,0.2,0.9,0.8,0.8c1.6,0,3.1,0.1,4.7-0.3c1.5-0.5,2.2-1.5,2.3-2.9C335.4,390.3,334.8,389.2,333.4,388.6z M300.2,388.6
	c-0.8-0.5-1.7-0.5-2.7-0.5c-3.5,0-3.5,0-3.5,3.4c0,0.9,0,1.8,0,2.8c0,0.6,0.2,0.9,0.8,0.8c1.6,0,3.4,0.1,4.9-0.3
	c1.4-0.5,2.1-1.4,2.2-2.8C302.2,390.5,301.6,389.3,300.2,388.6z M349.5,388.1c-0.7,2.2-1.3,3.9-1.7,5.8c-0.5,1.4-1.5,3.6-1,4.2
	c0.9,1,2.9,0.2,4.5,0.3c1.4,0.1,1.3-0.6,1-1.5C351.3,394.3,350.5,391.5,349.5,388.1z M271.8,388.7c-0.1,0-0.2,0-0.3,0
	c-0.9,2.9-1.7,5.8-2.7,8.7c-0.2,0.7-0.2,1.2,0.8,1.2c1.4-0.1,2.8,0,4.2,0c0.8,0,0.9-0.3,0.7-1C273.6,394.6,272.7,391.6,271.8,388.7z
	 M130.7,396.1c-6-0.1-11.1,5-11.1,11.1c-0.1,6.4,4.7,11.7,10.9,11.8c5.7,0.1,11.2-5,11-11.4C141.7,401.4,136.8,396.3,130.7,396.1z
	 M88.2,396.1c-6-0.1-11.2,5.2-11.2,11.4c0,6.1,5.2,11.3,11.1,11.3c5.7,0,11.2-5.2,10.9-11.4C99.1,401.3,93.9,396.2,88.2,396.1z"/>
</svg>
