<svg xmlns="http://www.w3.org/2000/svg" viewBox="0 0 612 341">
  <style type="text/css">
    .path{fill:#666;}
  </style>  
<g>
	<path d="M607.5,119.3c-2-4.6-6.4-6.9-11.2-6.1c-4.4,0.8-7.9,5-7.9,9.5c-0.1,4.7,3.2,8.9,7.6,9.8c4.9,1,9.4-1.4,11.3-5.9
		c0.1-0.3,0.1-0.9,0.7-1c0-1.8,0-3.7,0-5.5C607.4,120.3,607.6,119.7,607.5,119.3z M598.3,131.6c-4.6,0-8.4-3.8-8.6-8.4
		c0-4.9,3.8-8.8,8.7-8.8c4.6,0,8.4,3.9,8.4,8.6C606.8,127.7,602.9,131.6,598.3,131.6z"/>
	<path d="M463.8,324.4c-1.2,0.6-2-0.3-3-0.2c-2,0.2-3.1,2.1-2.8,4.4c0.3,2.2,2,3.1,4.5,2.4c0.1-0.1,0.3-0.5,0.5-0.2
		c0.1,0.1,0,0.5,0,0.8c-0.9,1.6-1.8,1.8-3.2,0.8c-0.5-0.3-0.8-0.7-1.3-0.2c-0.3,0.5,0.1,0.8,0.5,1.3c0.2,0.2,0.6,0.2,0.6,0.6
		c1.2,0,2.2,0,3.4,0c0.6-0.8,1.5-1.4,1.5-2.5c0-2.1,0-4.2,0-6.2C464.2,324.7,464.2,324.1,463.8,324.4z M461.1,330.1
		c-1.5,0-1.8-1.3-1.8-2.4c0-1.3,0.3-2.4,1.8-2.4c1.5,0,1.7,1.2,2,2.3C462.8,328.9,462.5,330.1,461.1,330.1z"/>
	<path d="M398.6,189.5c0-24.7,0-49.6,0-74.3c0-1.5-0.3-2-2-2c-2.9,0.1-5.8,0-8.6,0c-0.6,0-1.3,0.2-1.6-0.5c-0.7-1.3-1.4-2.4-2-3.7
		c-0.6-1.2-0.5-2.1,1.2-2.3c1-0.1,1.3-0.7,0.9-1.7c-1.4-3.4-3.4-6.1-6.4-8.2c-2-1.3-4.2-2-6.6-2.7c2.5-1.3,4.2-3.2,6.1-4.9
		c0.7-0.6,1.5-1.3,2.4-1.5c1.4-0.5,1.6-1.3,1.5-2.4c-0.2-2.4-1.2-4.7-0.3-7.2c0.1-0.3-0.2-0.7-0.5-0.9c-0.9-1-1.8-2.2-2.7-3.2
		c-0.6-0.8-1.4-1.3-2.4-1.2c-1.7,0.1-3.6,0.1-5.3,0c-1.6-0.1-2.9-0.3-3.5,1.6c-0.1,0.5-0.7,0.8-1.2,1c-3.6,1.7-4.2,4.7-3.9,8.3
		c0.2,2.9,0.9,5.7,1.7,8.4c0.8,2.8,0.8,2.8-2,3.6c-1.2,0.3-2.2,0.7-3.4,0.9c-0.7,0.2-1.2,0.6-1.5,1.2c-2.2,4.6-4.4,9.2-4.4,14.6
		c0,0.8-0.2,1-1,1c-1.7,0-3.5,0-5.1,0c-0.7,0-0.9-0.2-0.7-0.9c1.3-3.1,1-6.1,0-9.2c-0.2-0.7,0-1.3,0.6-1.8c1.8-1.8,1.8-1.8,0.2-4
		c-0.1-0.2-0.2-0.5-0.3-0.6c-2.4-3.7-5.1-7.3-9.8-8.4c-1.7-0.5-2.4-2-2.5-3.8c-0.2-2.2,0.8-4,1.8-5.8c1.4-2.4,2.3-5,1.6-7.9
		c-0.9-3.8-5.1-6.6-9.8-6.7c-3.1-0.1-5.9,0.7-7.3,3.6c-0.8,1.5-1.8,2.3-3.2,2.8c-0.7,0.2-1.4,0.5-2,0.8c-4.5,2.2-8.9,4.5-11.9,8.7
		c-2.3,3.2-1.5,5.7,2,7.3c0.7,0.3,1.4,0.6,2,0.8c5.3,2.4,9,7.7,8.4,12.8c-0.1,1.5-0.2,2.9,0.2,4.3c0.7,2.2,0.6,4.4,0.6,6.6
		c0,1-0.2,1.5-1.4,1.4c-3.1,0-6.4,0-9.5,0c-0.6,0-1-0.1-1.5-0.6c-1.3-1.5-2.7-3-3.9-4.6c-1.5-2-2.2-4.2-2.1-6.6c0-0.8,0.2-1.3,1-1.7
		c2.1-1.2,2.5-2.3,1.7-4.5c-0.9-2.9-3-4.7-5.4-6.1c-2-1.3-4-2.4-6.2-3.7c2.8-2,4.4-4.7,6.1-7.4c0.5-0.7,0.9-1.5,1.6-2
		c1.8-1.2,1.6-2.7,1.2-4.4c-1.5-5.9-4-8.2-10.2-8.4c-1.2,0-1.3-0.6-1.3-1.5c0-0.7,0.3-1.5-0.7-1.8c-1.4-0.3-2.9-0.6-4.4-0.3
		c-0.9,0.2-1.4,0.7-0.9,1.7c0.5,0.8,0.7,1.6,1,2.5c0.1,0.2,0,0.7-0.3,0.8c-0.5,0.2-0.5-0.2-0.6-0.5c-0.6-1.2-1.4-1.8-2.7-2.4
		c-0.3,1.2-0.7,2.2-0.8,3.4c-0.1,0.8-0.2,1.7,1,1.8c0.5,0,0.7,0.3,0.7,0.7c0,0.5-0.3,0.6-0.7,0.7c-0.7,0.2-1.4,0.6-0.3,1.3
		c1.3,0.9,1.3,2.3,0.8,3.6c-0.6,1.6-1.7,2.5-3.5,2.8c-0.6,0.1-1.2-0.3-1.7,0.1c-0.1,0.9,1.5,0.7,1.2,1.4c-0.5,1-2.2,1.3-1.7,3
		c0,0-0.3,0.1-0.5,0.1c-0.3,0.1-0.8-0.6-0.9,0.2c-0.1,0.6,0.1,1,0.7,1.3c0.5,0.2,1,0.5,1.5,0.6c0.8,0.2,1.8,0.5,2,1.4
		c0.1,0.8-0.8,1.2-1.4,1.5c-3.1,2.5-5.4,5.5-6.4,9.5c-0.3,1.4-0.9,3.4,0,4.3c1.4,1.4,1.2,3.5,2.5,4.7c0.2,0.2,0.2,0.3,0,0.6
		c-0.8,0.8-0.3,1.7-0.3,2.5c0.1,0.8,0.3,1.7-0.7,2.4c-1.4-4-3.6-7.6-6.4-10.7c-1.5-1.7-2.3-3.2-0.7-5.3c0.7-0.9,0.6-1.8-0.6-2.5
		c-2-1.3-3.5-3-5.2-4.5c-3.5-3-7.4-4.6-12-4.2c-0.5,0-1,0.2-0.9-0.5c0.1-1.5-1-1.7-2.1-2.1c-1.4-0.5-1.6-1.4-0.8-2.5
		c1.2-1.6,1.2-3.4,0.8-5.2c-0.5-2.7-1.6-5-2.8-7.3c-0.9-2-2.3-2.8-4.5-3c-4.6-0.6-8.4,0.9-10.2,4.2c-2.3,4.5-0.1,12.3,4.2,14.8
		c0.7,0.5,1.5,0.8,2.2,1.4c1.8,1.4,2.1,3.2,0.8,5.3c-0.8,1.3-2,2.1-3,3.1c-2.2,2.1-4,4.3-3.1,7.6c0.1,0.5-0.1,0.8-0.5,1.2
		c-1.7,2-0.9,4.4-1.3,6.7c-0.1,0.5,0.5,0.7,0.9,0.8c2.5,0.5,3.8,2,3.7,4.6c0,0.6,0.6,1.6-0.3,1.6c-1.2,0.1-2.7,0.8-3.4-0.6
		c-1.3-3-3.2-5.7-4.6-8.7c-0.7-1.4-0.7-2.3,1-2.9c1.8-0.6,1.8-1.2,0.8-2.9c-1.2-2.1-2.4-4-3.6-6.1c-2.9-5.2-6.4-9.4-12.8-9.8
		c-0.7-0.1-1.2-1.2-1.2-1.2c1.2-0.8,1-2.7,2.7-3.2c0.1,1-0.6,2.4,0.6,2.8c1.5,0.6,3.1,0.7,4.5-0.3c0.6-0.5,0.8-0.8,0.2-1.4
		c-0.9-1.2-1.5-2.7-2.1-4c-0.1-0.3-0.3-0.8,0-1.2c1-1,0.8-3.4-0.7-3.9c-1.4-0.6-2-1.6-2.4-2.8c-0.5-0.9-0.8-1.8-1.3-2.9
		c-0.5-1.2-1.3-1.6-2.5-1.6c-1.8,0.1-3.7,0.1-5.5,0c-1.4-0.1-2.3,0.5-3.1,1.5c-1.7,2.1-2.4,4.6-3.2,7.3c-0.1-0.5-0.2-1-0.6-1
		c-0.6,0-0.5,0.5-0.5,0.8c0,2-0.7,3.7-1.5,5.4c-0.5,1.3-0.9,2.5-0.5,3.9c0.5,1.3,0.9,2.5-1.3,2.8c1.3,1,2.3,1.2,3.6,0.6
		c0.8-0.3,1.7-0.8,2.5-0.9c1.4-0.2,1.5-1.2,1-2.1c-0.3-0.7-0.8-1.2-1.3-1.7c-0.7-1-1.2-2.2-0.2-3.7c0.3,1.5,1.2,2.4,2.1,3.2
		s1.6,1.8,1.7,3.1c0,0.5,0.2,1-0.6,1.4c-2.3,0.8-4.3,2.4-6.5,3.4c-1.5,0.7-2.1,1.6-2.5,3c-0.7,2.4-2.1,4.5-4.2,6.2
		c-0.6-1.4-1.2-2.7-1.7-3.9c-1.7-3.8-4.3-6.9-8.6-7.9c-2.2-0.5-2.9-2-3.8-3.5c-0.5-0.7-0.5-1.8,0.3-2.7c1.2-1,1.4-2.5,1.3-4
		c-0.1-1.7-0.3-3.4-0.6-5.1c-0.1-1-0.6-2.1,1.2-2.3c0.8-0.1,1.4-0.8,1.3-1.7c-0.1-1-0.9-0.5-1.5-0.5c-1.3-0.1-1.2-0.7-0.6-1.5
		c0.3-0.5,0.9-0.7,1.3-1c0.3-0.5,0.6-0.9,0.3-1.5c-0.1-0.5-0.5-0.7-1-0.7c-0.7,0-0.9,0.5-1.2,1c-0.3,0.8-0.5,1.7-1.6,1.6
		c-1.3-0.1-0.6-1.3-1-1.8c0-0.1-0.2-0.1-0.5-0.1c-0.2,0.5-0.2,1-0.6,1.5c-0.6,0.8-1.3,1.8-2.2,1.5c-1.7-0.6-3.4-0.3-5.1-0.1
		c-0.8,0.1-1.6,0.1-2.4,0.1c-0.3,0-0.8,0-0.8-0.5c0-0.5,0.5-0.5,0.8-0.6c0.2,0,0.5,0,0.7,0c0.5,0,1,0.1,1.3-0.5
		c0.2-0.6-0.2-1-0.7-1.4c-0.5-0.3-1-0.6-1.5-0.1c-0.5,0.5-0.9,1-1.4,1.6c-1-1.6-2.4-2-3.8-0.9c-0.3,0.2-0.8,0.7-0.6,1.3
		c0.2,0.5,0.6,0.7,1.2,0.6c0.8-0.1,2.1-0.6,2.2,0.3c0,0.9-1.4,0.2-2.1,0.5c-0.5,0.1-1-0.1-1.3,0.5c-0.3,0.7,0.2,0.9,0.7,1.4
		c1.5,1.6,2,3.5,0.9,5.3c-0.9,1.8-1.5,3.2,0.9,4.3c0.2,0.1,0.3,0.3,0.5,0.6c1.6,2.1,2.4,4.6,3.6,6.9c0.5,0.8-0.1,1.2-0.6,1.5
		c-1.2,0.8-2.4,1.6-3.7,2.3c-0.8,0.5-0.9,0.9-1,1.7c-0.2,2.3-0.5,4.9-1.8,6.8c-1.6,2.3-2.4,4.5-2.3,7.5c0.1,3.7-1.4,7.2-2.3,10.6
		c-0.2,0.9-0.9,0.8-1.5,0.8c-2,0-4-0.1-6,0c-1.5,0.1-2.1-0.3-2.2-1.7c-0.1-1-0.6-2-1-2.9c-1.3-3.1-3.1-6-3.2-9.4
		c0-0.6-0.2-1.4,0.2-1.7c0.6-0.5,1.3,0.1,1.8,0.3c1.3,0.7,2.5,1.5,3.9,1.8c0.7,0.1,1.4,0.3,1.8-0.6c1.4-3,3.5-6.1,3.1-9.5
		c-0.5-3.9,1.6-5.9,4-8c1.6-1.4,2.9-2.7,1.4-4.9c-0.2-0.5,0.2-1.3-0.5-1.4c-0.8-0.2-1,0.7-1.3,1.3c-0.1,0.2-0.2,0.5-0.6,0.3
		c-0.5-0.7,0.3-1.5,0-2.3c-2.1,0-1.5,3.1-3.5,3.1c-0.5-0.6,0.6-1.6-0.3-1.7c-1-0.1-1,0.9-1.3,1.7c-0.7,2.2-1,4.5-1.5,6.8
		c-0.5,2.3-1.2,4.5-2.4,6.5c-0.7,1-1.4,1.4-2.4,0.3c-1.4-1.3-3-2.2-4.6-3.2c-2.4-1.4-4.7-2.9-6.9-4.7c-1-0.8-1.4-1.5,0.1-2.2
		c1.6-0.7,2-2.1,1.7-3.7c-0.5-3.7-2-6.9-3.7-10.2c-2.3-4.5-2.3-4.5-7.2-3.4c-5.7,1.4-9.4,6.8-8.6,12.5c0.1,0.5,0.1,1,0.5,1.4
		c2.1,1.5,3.6,3.6,5.7,5.1c0.8,0.6,2.7,0.2,2.5,1.7c-0.1,1-0.8,2.2-1.3,3.1c-0.5,0.9-1,1.7-1.6,2.7c-1.7,2.7-3.7,5.2-5.1,8.2
		c-1.4,3.2-1.7,6.4,0.2,9.6c0.9,1.6,2,1.8,3.5,1.4c1-0.3,2.2-0.5,3.2-0.6c2.3-0.1,1.3,1.7,1.5,2.8c0.2,1.2-0.2,1.5-1.4,1.5
		c-4,0-8.2-0.1-12.3,0c-1.2,0-1.4-0.5-1.4-1.5c0-3.8-0.3-7.6-1.2-11.4c-0.7-3.2-1.4-6.4-4.2-8.7c-1.8-1.5-2.9-3.7-3.6-6
		c-0.3-1.2,0-1.7,1.2-2c1.7-0.2,3.2-1,4.7-1.7c1.3-0.6,1.6-1.5,1-2.8c-0.5-1.3-1.2-2.4-1.3-3.8c-0.1-1.5-0.7-2.3-2.3-2
		c-1.2,0.2-1.6-0.2-1.8-1.5c-0.2-1.5-1.2-2.8-1.6-4.3c-0.2-0.6-0.7-0.7-1.2-0.8c-5-0.9-10.7,0.8-13.3,5.8c-1.5,2.9-1.4,5.7-0.1,8.7
		c1,2.7,3.1,3,5.5,3.1c1,0,2.8,0.2,2.9,1.4s-1.5,1.7-2.4,2.1c-1.4,0.5-1.7,1.3-1.8,2.5c-0.2,3-1.2,5.9-1.8,8.7
		c-1,3.9-2.2,7.7-2.2,11.8c0,1.7-0.5,2.2-2.2,2.2c-22-0.1-43.9,0-66-0.1c-1.7,0-2.1,0.5-2.1,2.2c0,63.2,0,126.6,0,189.8
		c0,1.7,0.6,2.1,2.2,2.1c27.5,0,54.9,0,82.4,0c1.6,0,2.1-0.3,2.1-2.1c-0.1-18,0-36.1-0.1-54.1c0-1.6,0.2-2.2,2.1-2.2
		c89.6,0,179.1,0,268.7,0c1.8,0,2.2,0.6,2.2,2.3c-0.1,18,0,36.1-0.1,54.1c0,1.6,0.5,2,2.1,2c9.2-0.1,18.6-0.1,27.9,0
		c1.8,0,2.3-0.5,2.3-2.3C398.6,266.5,398.6,228,398.6,189.5z M113.6,103.5c-1.2,0.1-0.7-0.8-0.8-0.9c-0.2-1.3,0-1.8,1-1.7
		c0.9,0.1,1.7,0.5,1.6,1.5C115.5,103.6,114.4,103.4,113.6,103.5z M100.3,147.5c0-1.3-0.3-1.8-1.6-1.6c-1.7,0.3-2.2-0.5-2.1-2.1
		c0.1-1.5,0.1-3,0-4.6c-0.1-1.3,0.5-1.5,1.6-1.5c2.9,0,5.9,0.1,8.8,0c1.5,0,1.8,0.5,1.6,1.7c-0.1,0.6,0,1.2,0,1.7
		c1.8-2.3,4-3.5,6.8-3.9c1-0.2,1.6,0,1.5,1.3c-0.1,2.1,0,4.2,0,6.2c0,0.8-0.2,1.2-1.2,1.3c-5,0.8-6.8,2.9-6.9,8c0,1.6,0.1,3.4,0,5
		c-0.1,1.3,0.2,1.8,1.6,1.6c1.7-0.3,2.2,0.5,2.1,2.1c-0.1,1.6-0.1,3.1,0,4.7c0,0.9-0.1,1.4-1.2,1.4c-4.6,0-9.2,0-13.9,0
		c-1,0-1.3-0.3-1.3-1.3c0-1.8,0.1-3.7,0-5.5c0-1.2,0.5-1.4,1.5-1.4c2.4,0,2.4,0,2.4-2.5C100.3,154.5,100.3,151,100.3,147.5z
		 M84,128.6c1.7,0,3.9-0.8,5.1,0.3c1,1,0.1,3.2,0.3,5c0.2,1.8-0.5,2.4-2.2,2.1c-0.7-0.1-1.5,0-2.2,0c-4.4,0-4.4,0-4.4-4.4
		C80.5,128.6,80.5,128.6,84,128.6z M80.5,158.3c-0.1-3.6-0.1-7,0-10.6c0-1.5-0.3-2-1.8-1.7c-1.6,0.2-2.2-0.3-2-2
		c0.1-1.6,0.1-3.2,0-5c0-0.9,0.2-1.3,1.3-1.3c3.4,0,6.7,0.1,10.1,0c1.2,0,1.3,0.5,1.3,1.4c0,3.4,0,6.7,0,10.1c0,3.2,0,6.5,0,9.7
		c0,1.3,0.2,1.8,1.6,1.6c1.8-0.3,2.7,0.3,2.4,2.3c-0.1,1.5-0.1,3,0,4.6c0,0.9-0.2,1.3-1.3,1.3c-4.7,0-9.5,0-14.2,0
		c-0.9,0-1.2-0.3-1.2-1.2c0-1.7,0.1-3.6,0-5.3c-0.1-1.4,0.3-2,1.7-1.7C80.2,160.8,80.6,160,80.5,158.3z M62.9,184.1
		c-0.1,4.6-0.1,9.2,0,13.9c0,1.2-0.2,1.7-1.6,1.7c-2.7-0.1-5.2-0.1-7.9,0c-1.2,0-1.6-0.2-1.6-1.5c0.1-1.6,0-3.1,0-4.7
		c0-0.9-0.3-1.3-1.3-1.3c-3.9,0-7.9,0-11.7,0c-1,0-1.4,0.5-1.4,1.4c0,3.9,0,7.9,0,11.7c0,1.2,0.5,1.4,1.5,1.4c4.5,0,8.9,0,13.4,0
		c1.3,0,1.7,0.3,1.6,1.6c-0.1,1.7-0.1,3.6,0,5.3c0,1.2-0.3,1.5-1.5,1.5c-4.4,0-8.8,0-13.2,0c-1.4,0-2,0.3-1.8,1.8
		c0.1,3.8,0.1,7.7,0,11.6c0,1.2,0.2,1.7,1.5,1.6c1.2-0.1,2.3,0,3.5,0c0.9,0,1.3,0.3,1.3,1.3c0,2.3-0.1,4.5,0,6.8
		c0,1-0.5,1.3-1.3,1.3c-6.9,0-13.8,0-20.7,0c-1,0-1.4-0.3-1.4-1.4c0.1-2.1,0.1-4.3,0-6.4c0-1,0.3-1.6,1.4-1.5c0.9,0.1,1.8-0.1,2.8,0
		c1.6,0.2,2.1-0.3,2.1-2c-0.1-8.8,0-17.6,0-26.4c0-2.8,0-5.7,0-8.4c0-1.2-0.3-1.7-1.5-1.6c-0.1,0-0.2,0-0.3,0c-4.3,0-4.4,0-4.3-4.3
		c0-1.6-0.8-3.7,0.5-4.7c1-0.9,3-0.2,4.6-0.2c5.5,0,11,0,16.5,0c6.4,0,12.7,0,19.1,0C62.5,182.2,63.1,182.4,62.9,184.1z M61.3,168.7
		c-2.1-0.1-4.3-0.1-6.4,0c-1,0-1.4-0.3-1.6-1.4c-1.7-7.5-3.7-14.9-5.5-22.5c-1.2,1.4-1.2,3-1.5,4.4c-1.6,6-3.1,12.1-4.5,18.3
		c-0.2,1.2-0.8,1.3-1.7,1.3c-2,0-4-0.1-6,0c-1.3,0.1-1.8-0.2-2.1-1.5c-2.1-7.7-4.2-15.5-6.2-23.2c-0.6-2-1-3.9-1.5-5.8
		c-0.2-1.2-1-1.2-2-1.2c-1.3,0.1-1.7-0.3-1.6-1.6c0.1-1.7,0.1-3.6,0-5.3c0-1,0.3-1.4,1.4-1.4c4.6,0,9.1,0,13.8,0
		c0.9,0,1.3,0.3,1.3,1.3c0,1.7-0.1,3.6,0,5.3c0.1,1.3-0.3,2-1.7,1.7c-1.2-0.1-1.6,0.1-1.3,1.5c1.3,4.6,2.3,9.2,3.4,13.9
		c0.1,0,0.2-0.1,0.3-0.1c1.4-5.8,2.7-11.4,4-17.2c0.1-0.6,0.2-1.2,0.5-1.7c0.5-1.5,0.1-3.5,1.3-4.3c1.3-0.9,3.2-0.2,4.9-0.2
		c3.8,0,3.7,0,4.5,3.7c1.5,6.6,3,13.2,4.5,19.8c0.1,0.3,0.2,0.6,0.5,1.2c1.3-5.3,2.5-10.3,3.7-15.3c0.2-1.2-0.6-1-1.2-0.9
		c-1.6,0.2-2.2-0.5-2-2.1c0.1-1.6,0.1-3.1,0-4.7c-0.1-1.2,0.3-1.6,1.5-1.6c4.5,0.1,8.9,0,13.4,0c1,0,1.5,0.3,1.5,1.5
		c-0.1,1.8-0.1,3.7,0,5.5c0,1.2-0.5,1.6-1.5,1.4c-1.4-0.2-1.8,0.3-2.2,1.7c-2.5,9.6-5.2,19.2-7.7,28.8
		C62.8,168.5,62.4,168.7,61.3,168.7z M112,210.1c0,6,0,12,0,17.9c0,1.5,0.3,2,2,2c3.4-0.1,3.4,0,3.4,3.4c0,1.5,0,3,0,4.6
		c0,0.9-0.2,1.4-1.2,1.4c-4.3,0-8.7,0-12.9,0c-1,0-1.3-0.5-1.3-1.4c0-1.2,0-2.3,0-3.7c-1.4,1.3-2.4,2.5-3.7,3.4
		c-6.1,4-15.3,3.7-21.8-0.9c-7.3-5.2-10.6-12.5-9.5-21.4c1.2-9,6.4-15.5,15.1-18.5c7.4-2.5,14.3-1.5,20,5.4c0-1.7,0-3,0-4.3
		c0-0.9,0.2-1.3,1.3-1.3c4.3,0,8.7,0,12.9,0c0.9,0,1.2,0.3,1.2,1.2c0,2.3,0,4.6,0,6.9c0,0.9-0.3,1.3-1.3,1.3c-1.3,0-3-0.7-3.8,0.3
		C111.6,207.2,112,208.8,112,210.1z M311.9,84.2c-0.6,0-1.2-0.2-0.8-1c0.8-2.3,1.6-4.7,3.4-6.6c1.2-1.3,2.8-2,4.5-2.1
		c0.6,0,1,0.2,1.3,0.8c1.6,3.6,3.2,7.2,4.9,10.7c0.1,0.2,0.2,0.7,0.1,0.9c-0.2,0.5-0.6,0.1-0.9,0C320.1,85.9,316.2,84.6,311.9,84.2z
		 M275,111.8c0.6-2.8,1.6-5.3,3.7-7.4c0,2.8-0.3,5.4-1,8.1c-0.3,1.4-1.5,0.7-2.3,0.7C274.3,113.1,275,112.3,275,111.8z M268.7,111.5
		c0.5,1,0.5,1.8-1.2,1.7c-2.1-0.1-4.2,0-6.2,0c-0.7,0-1.3-0.1-1.4-1c-0.8-3.7-1.6-7.4-2.5-11.4C262.3,103.4,266.6,106.3,268.7,111.5
		z M235,107.2c0.3-0.3,0.2-1.3,0.2-2.2c0.9,2.5,1.2,5,1.5,7.5c0,0.5-0.1,0.7-0.6,0.7c-0.6,0-0.8-0.3-0.9-0.9
		C234.8,110.7,233.4,109.1,235,107.2z M229.6,140.8c4.4-3.9,13.6-5.8,19.4,0.3c0-1-0.1-1.7,0-2.3c0.2-1.7-0.1-2.9-2.2-2.4
		c-0.9,0.1-1.2-0.3-1.2-1.2c0-1.7,0-3.6,0-5.3c0-0.9,0.2-1.4,1.3-1.3c3.1,0,6.4,0.1,9.5,0c1.5,0,1.3,0.9,1.3,1.8
		c0,9.2,0,18.6,0,27.9c0,1.6,0.2,2.5,2.2,2.2c0.9-0.2,1.3,0.3,1.3,1.3c0,1.8-0.1,3.7,0,5.5c0,1.2-0.3,1.5-1.5,1.4c-3-0.1-6-0.1-9,0
		c-1.5,0-2.2-0.3-2-1.8c0-0.2,0-0.6,0-1.3c-3.7,3.5-7.7,4.2-12.4,3.2c-3.7-0.8-6.7-2.7-9-5.8C222.7,156.4,223.7,146,229.6,140.8z
		 M214.1,101.1c2.7,2.4,8.3,9.8,9.1,12.1c-2.1,0-4,0-6,0c-0.5,0-0.8-0.1-1-0.6c-1.2-3.1-2.7-6-2.5-9.5
		C213.5,102.5,213.7,101.8,214.1,101.1z M185.3,106.1c0.2-1.7,0.6-3.4,2.7-3.7l0.1-0.1c4.7-2.2,5.4-1.6,5.1,3.6
		c-0.1,2.1-0.7,4.2-0.9,6.4c-0.1,0.9-0.6,1.3-1.5,1.2c-0.5,0-0.9,0-1.5,0c-4.2,0-4.2,0-4.2-4.3C185.3,108,185.2,107,185.3,106.1z
		 M177.5,103.9c2.3,2.8,3,5.8,3.8,8.8c0,0.1,0,0.3,0,0.3c-1,0.7-2.2,0.1-3.4,0.3c-0.8,0.1-0.9-0.5-0.9-1
		C176.9,109.5,176.9,106.9,177.5,103.9z M173.2,128.6c1.8,0,4-0.8,5.3,0.3c1,0.9,0.1,3.1,0.3,4.7c0.2,2-0.5,2.7-2.3,2.3
		c-0.7-0.1-1.5,0-2.2,0c-4.3,0-4.3,0-4.3-4.2C169.9,128.6,169.9,128.6,173.2,128.6z M154.8,101.4c2,2.5,1,4.7,0.2,6.9
		c-0.5,1-1.2,2.1-1.5,3.1c-0.6,1.8-1.7,2.1-3.6,1.6C151.9,109.4,154.1,105.9,154.8,101.4z M126.2,182.6c1.2-1,3.5-0.2,5.3-0.3
		c4.2,0,4.2,0,4.2,4.2c0,0.3,0,0.7,0,1.4c-0.2,1.4,0.8,3.6-0.3,4.6c-1,0.8-3.1,0.3-4.7,0.2c-1.5,0-3.5,0.7-4.4-0.2
		c-0.9-0.9-0.3-2.9-0.2-4.4C125.9,186.1,125,183.7,126.2,182.6z M141,238.7c-1.2,1.2-3.4,0.3-5.1,0.3c-4.5,0.1-9-0.1-13.5,0.1
		c-1.8,0-2.3-0.6-2.2-2.3c0.1-1.8,0.1-3.8,0-5.7c0-1,0.3-1.4,1.4-1.4c1.4,0,3.1,0.7,4-0.3c0.9-1,0.3-2.8,0.3-4.3
		c0-5.9,0-11.8,0-17.8c0-1.3-0.3-1.6-1.6-1.6c-4,0-4,0-4-4c0-1.4,0-2.7,0-4c0-0.9,0.2-1.4,1.3-1.4c4.3,0,8.7,0,12.9,0
		c1.4,0,1.3,0.8,1.3,1.7c0,5,0,10.1,0,15c0,5,0,9.9,0,14.8c0,1.4,0.3,2,1.8,2c3.8,0,3.8,0,3.7,3.8C141.2,235.5,142,237.7,141,238.7z
		 M138.5,168.8c-0.8,0.2-1-0.3-1-1c0-1.3,0-2.4,0-3.9c0.2-1.3-0.7-3.4,0.3-4.3c0.9-0.8,2.9-0.2,4.4-0.2c0.6,0,1.3,0,1.8,0
		c1.2-0.1,1.7,0.1,2.1,1.4c0.7,2.1,4,2.8,5.7,1.3c1.4-1.3,0.8-3.5-1.2-4.2c-2.3-0.8-4.9-1.2-7.2-2.1c-4.7-2-6.8-5.8-6-10.9
		c0.7-4.3,4.5-7.4,9.2-7.6c2.3-0.1,4.6-0.1,6.7,1.2c0.2,0.1,0.5,0.5,0.8,0.2c1.7-1.7,3.9-0.5,5.9-0.8c0.8-0.1,0.8,0.6,0.8,1.2
		c0,2.2,0,4.4,0,6.6c0,1-0.5,1.3-1.3,1.2c-1.4,0-2.7,0-4,0c-1.5,0-2.9,0.2-3.6-1.8c-0.5-1.3-2-1.2-3.1-0.9c-1,0.2-1.8,0.8-2,2
		c-0.2,1.3,0.5,2.1,1.5,2.7c2.1,0.9,4.3,1.3,6.5,2c2.9,1,5.7,2.2,6.9,5.4c2.3,6.1-1.7,12.9-8.2,13.6c-2.9,0.3-5.8,0.5-8.3-1.3
		c-0.2-0.1-0.7-0.3-0.8-0.2C142.8,169.9,140.5,168.3,138.5,168.8z M170.8,206.4c-4.6,0.6-8.3,2.8-10.1,7.4c-0.6,1.5-0.7,3.1-0.7,4.6
		c-0.1,3.4,0,6.6,0,9.9c0,1.3,0.2,1.7,1.6,1.7c3.9,0,3.9,0.1,3.9,4c0,1.7,0.8,3.8-0.3,4.9c-1,0.9-3.1,0.2-4.7,0.2
		c-4.6,0-9.2,0-13.9,0c-1.3,0-1.8-0.2-1.8-1.7c0.1-2.1,0.1-4.2,0-6.2c0-1,0.3-1.4,1.4-1.4c1.3,0,3,0.6,3.8-0.3
		c0.8-0.9,0.2-2.7,0.2-4c0-5.9,0-11.8,0-17.8c0-1.4-0.2-2-1.7-1.8c-3.7,0.1-3.7,0-3.7-3.7c0-1.5,0-2.9,0-4.4c0-0.9,0.3-1.3,1.3-1.3
		c4,0,8.1,0,12.1,0c0.9,0,1.3,0.3,1.3,1.3c0,1.6,0,3.4,0,5.5c1.8-2.5,3.6-4.4,6-5.5c1.8-0.8,3.7-1.3,5.5-1.5c0.8-0.1,1.3,0.1,1.3,1
		c0,2.7,0,5.2,0,7.9C172.2,206.1,171.6,206.3,170.8,206.4z M167.4,168.7c-1.2,0-1.5-0.3-1.5-1.5c0.1-1.6,0.1-3.4,0-5
		c-0.1-1.4,0.3-2.1,1.8-1.8c1.8,0.3,2.2-0.5,2.2-2.2c-0.1-3.6-0.1-7.2,0-10.7c0-1.4-0.3-2-1.7-1.6c-1.6,0.3-2.3-0.3-2.1-2.1
		c0.1-1.6,0.1-3.2,0-5c0-0.8,0.2-1.2,1.2-1.2c3.5,0,6.8,0,10.3,0c1,0,1.2,0.5,1.2,1.3c0,3.4,0,6.7,0,10.1c0,3.2,0.1,6.5,0,9.7
		c0,1.3,0.2,2,1.6,1.7c1.8-0.3,2.5,0.3,2.3,2.2c-0.2,2,0.8,4.4-0.5,5.7c-1.2,1.2-3.6,0.2-5.4,0.3
		C173.7,168.7,170.5,168.7,167.4,168.7z M199.4,237.9c0,0.9-0.3,1.3-1.3,1.3c-5,0-10.1,0-15,0c-1.3,0-1.2-0.7-1.2-1.5
		c0-5,0-10.1,0-15c0-5.1,0-10.2,0-15.3c0-1.2-0.3-1.6-1.5-1.5c-1.3,0.1-2.5,0-3.8,0c-0.9,0-1.5-0.2-1.5-1.3c0-2.3,0-4.5,0-6.8
		c0-0.9,0.2-1.4,1.3-1.3c0.2,0,0.3,0,0.6,0c1.6-0.1,3.7,0.7,4.7-0.3c0.9-1,0.2-3,0.2-4.6c0-2.7,0-5.2,0-7.9c0-1,0.3-1.4,1.4-1.4
		c2.4,0,4.7,0,7.2,0c1,0,1.4,0.3,1.4,1.4c0,3.7,0,7.4,0,11.2c0,1.4,0.5,1.8,1.7,1.7c1.4-0.1,2.8,0,4.2,0c0.9,0,1.3,0.3,1.3,1.3
		c0,2.3,0,4.6,0,6.9c0,0.8-0.3,1.2-1.3,1.2c-1.6,0-3.1,0-4.7,0c-0.9,0-1.3,0.2-1.3,1.3c0,7.2,0,14.3,0,21.4c0,1,0.3,1.4,1.4,1.4
		c1.6-0.1,3.4,0,5,0c1,0,1.4,0.3,1.4,1.4C199.4,233.5,199.4,235.7,199.4,237.9z M202.1,162.7c-0.1,1.5-0.1,3,0,4.6
		c0,0.9-0.2,1.4-1.3,1.4c-4.6,0-9.1,0-13.8,0c-1,0-1.4-0.5-1.3-1.4c0-1.8,0.1-3.7,0-5.5c0-1,0.3-1.3,1.4-1.3c2.5,0,2.5-0.1,2.5-2.7
		c0-3.5-0.1-6.8,0-10.3c0-1.3-0.2-2-1.6-1.7c-1.6,0.3-2.3-0.3-2.1-2.1c0.1-1.5,0.1-3,0-4.6c-0.1-1.2,0.2-1.6,1.5-1.6
		c2.9,0.1,5.9,0.1,8.8,0c1.6-0.1,2.1,0.5,1.8,2c-0.1,0.5,0,0.9,0,1.7c3.2-3.8,7-5,11.6-4c4.7,1,7.6,4.4,7.9,9.2
		c0.1,3.9,0.1,8,0.1,11.9c0,1.5,0.3,2.2,1.8,2c1.8-0.3,2.3,0.5,2.2,2.2c-0.1,1.6-0.1,3.1,0,4.7c0,0.9-0.3,1.3-1.3,1.3
		c-3.5,0-6.9-0.1-10.4,0c-1.2,0-1.3-0.6-1.3-1.5c0-5.1,0-10.2,0-15.1c0-0.6,0-1.2,0-1.6c-0.2-3.4-1.8-5.1-4.7-5.2
		c-2.8,0-5.2,2.1-5.4,5.1c-0.1,3,0,6.1-0.1,9.1c0,1.3,0.8,1,1.5,0.9C201.9,160.1,202.3,161,202.1,162.7z M229.5,206.4
		c-3,0.3-5.8,1.5-7.9,3.8c-1.6,1.7-2.5,3.6-2.5,5.9c-0.1,4.2-0.1,8.4-0.2,12.6c0,1,0.5,1.4,1.4,1.4c1.3,0,2.9-0.6,3.7,0.3
		c0.8,0.9,0.2,2.5,0.2,3.9c0,1.6,0,3.4,0,5c-0.2,0.8-0.9,0.6-1.5,0.6c-5.8,0-11.7,0-17.5,0c-1.6,0-2.3-0.7-2.2-2.3
		c0.1-2,0-3.9,0-5.8c0-1.6,0.7-2.2,2.2-2.2c1.2,0,2.4,0,3.7,0c0-7.5,0.1-15,0.1-22.5c0-0.8-0.3-1-1.2-1c-0.3,0-0.6,0-0.9,0
		c-3.5,0-3.5,0-3.5-3.5c0-1.5,0-3,0-4.6c0-0.9,0.2-1.3,1.3-1.3c4,0,8.1,0,12.1,0c1,0,1.4,0.3,1.4,1.4c0,1.5,0,3,0,4.6
		c0.9-0.2,1.2-1,1.6-1.5c2.7-3,6-4.4,9.9-4.9c0.8-0.1,1.2,0.1,1.2,0.9c0,2.7,0,5.3,0,8.1C230.8,206.1,230.3,206.3,229.5,206.4z
		 M283.3,239.2c-4.2,0-8.4,0-12.6,0c-1,0-1.4-0.3-1.4-1.4c0.1-1.2,0-2.3,0-3.9c-2.1,2.4-4.2,4.2-6.7,5.1c-7.6,2.8-14.7,1.3-20.7-3.8
		c-12.6-10.6-9.9-30.4,5-37.6c7.2-3.5,16.3-3.2,22,3.9c0,0.1,0.2,0.1,0.5,0.1c0-1.4,0-2.7,0-4c0-0.8,0.3-1.2,1.2-1.2
		c4.4,0,8.7,0,13.1,0c1,0,1.3,0.5,1.3,1.3c0,2.3,0,4.5,0,6.8c0,1-0.5,1.3-1.5,1.3c-3.9,0.1-3.9,0.1-3.9,4c0,6,0,12.1,0,18.1
		c0,1.5,0.5,1.8,1.8,1.8c3.6,0,3.6,0,3.6,3.6c0,1.4-0.1,2.8,0,4.2C284.8,238.8,284.4,239.2,283.3,239.2z M336.5,239.2
		c-4.2,0-8.3-0.1-12.5,0c-1.2,0-1.4-0.5-1.4-1.5c0.1-1.4,0-2.8,0-4.6c-2.4,3-5,5.1-8.3,5.9c-8.3,2.2-15.6,0-21.4-6.2
		c-5.7-6.1-7.4-13.5-4.9-21.5c2.8-8.4,8.7-13.6,17.6-15c6.1-1,11.4,0.9,15.7,5.3c0.2,0.2,0.6,0.5,1,0.9c0-3.6,0-6.8,0-10.1
		c0-0.5-0.2-0.8-0.8-0.8c-0.2,0-0.5,0-0.7,0c-4-0.1-4-0.1-4-4.2c0-1.6-0.7-3.7,0.3-4.7c1-1,3.1-0.3,4.7-0.3c2.8,0,5.7,0.1,8.4,0
		c1.5-0.1,2,0.5,2,2c0,14.4,0,28.9-0.1,43.5c0,1.8,0.3,2.4,2.3,2.3c3.2-0.1,3.2,0,3.2,3.1c0,1.5,0,3,0,4.6
		C338,238.7,337.7,239.2,336.5,239.2z M380.1,111c0.9,0,1.2,0.5,1.2,1.2c0.1,0.8-0.2,0.9-0.9,1c-0.9,0-1.2-0.5-1.3-1.2
		C379,111.3,379.5,111.1,380.1,111z M342.4,107.2c0.7,2.1,0.1,3.7-0.3,5.3c-0.5,1.3-1.5,0.3-2.5,0.9
		C340.4,111.1,340.7,108.9,342.4,107.2z M384.2,220c-0.1,1.4-0.7,1.6-2,1.6c-5.1,0-10.3,0-15.4,0s-10.2,0-15.1,0
		c-1.8,0-2,0.2-1.4,1.8c3.5,8.9,15.4,11,21.6,3.8c0.6-0.7,1.2-0.8,1.8-0.8c2.4,0,4.9,0.1,7.3,0c1.6-0.1,1.6,0.6,0.9,1.6
		c-3.5,6.4-8.6,10.5-15.8,11.8c-11.9,2.2-23.6-5.7-25.7-17.6c-2.2-12,4.4-23.6,16.6-26.5c12.4-2.9,25.2,5.3,26.8,18.4
		C384.5,216.2,384.5,218,384.2,220z"/>
	<path d="M75.1,97.5c0.3,0,0.6,0,0.9,0c0.5,0,0.8-0.2,0.8-0.7c0.6-2.8,1.5-5.4,1.5-8.2c0-0.6-0.1-1-0.7-1.5
		c-4.5-3.5-5.9-10.5-3.4-15.6c3.7-7,10.9-8.6,18.1-7.3c1.3,0.2,2.1,0.7,2.2,2.3c0.1,1.3,0.8,2.7,1.6,3.7c0.5,0.6,1.7,0.2,2.7,0.2
		c1.3-0.1,1.6,0.5,1.4,1.6c-0.2,1.7,0.1,3.4,0.8,5c2.1,5.2,1.6,6.1-3.5,8.6c-2.3,1.2-2.4,1.4-0.6,3.2c2.2,2.3,4.4,4.5,4.9,7.9
		c0.1,1,2.2,1.4,2.7,0.3c1.8-3.8,4.4-7,6.6-10.5c0.3-0.6,0.2-1-0.5-1.4c-2.4-1.4-3.8-4-6.4-5.3c-0.2-0.1-0.3-0.5-0.5-0.8
		c-1.7-4.6,0.5-12.1,4.4-15.3c3.8-2.9,8.1-3.9,12.8-3.8c1.2,0,1.8,0.2,2.2,1.5c0.3,1.4,1.2,2.7,1.8,3.9c2,3.9,3.8,8,4.2,12.5
		c0.1,1.8-0.9,3.9,0.5,5.3c1.3,1.4,3.2,2.1,4.9,3.1c0.1,0.1,0.2,0.1,0.3,0.1c1.3,1,1.8,0.6,2.2-0.9c0.7-3.2,1.4-6.5,2.2-9.6
		c0.5-1.5,0.6-3.5,2.8-3.6c1.2,0,2.1-0.2,3.1-0.8c0.9-0.6,2-0.8,3.1-0.5c1.2,0.5,2-0.3,2.4-1.2c0.5-0.9,1.4-2.2,0.3-3
		c-2-1.5-1.5-3.5-1.5-5.4c0-2.4,1.2-3.8,3.4-4.7c1.5-0.6,2.9-0.1,4.3-0.5c2.2-0.5,4.2-0.2,5.8,1.7c0.6,0.7,1.6,2.2,2.2-0.2
		c0.1-0.3,0.7-0.6,1.2-0.8c2.1-1,4.5-0.8,6.7-1.4c1.2-0.3,3,0,3.7,1.5c1,2.1,0.6,4.5,0.9,6.8c0.2,1.3-0.1,2.8-1.4,3.6
		c-1,0.7-0.9,1.5-0.7,2.5c0.7,2.8,0.5,5.4-0.9,8c-0.7,1.4-0.1,2,1.3,2.3c3.5,1,6.1,3,8.2,5.9c0.6,0.8,0.9,1.7,1.8,2.3
		c0.2-1.6,1.7-3,0-4.5c-0.1-0.1-0.1-0.6,0-0.9c0.8-2.2,1-4.4,1.5-6.7c0.5-2.4,2.2-4.5,1.7-7.2c-0.2-1.3-0.3-2.4,1.5-2.5
		c0.8,0,1-0.9,1.3-1.5c0.7-2.1,2.1-3.6,3.5-5.2c0.8-0.9,1.6-1.3,2.9-1.2c2.5,0.1,5,0.1,7.5,0c1.8-0.1,3.1,0.6,4,2.1
		c0.5,0.7,0.9,1.4,1.3,2.2c1.2,2.7,1.2,2.8,3.9,2c1.2-0.3,1.3,0,1,1c-0.3,1.4-0.8,2.8-0.2,4c0.6,1.2,0.6,2.4,0.3,3.6
		c-0.3,1.4,0.2,2.3,1.2,3.2c0.3,0.3,0.8,0.7,1.3,1c0.8,0.6,1,1.2,0.1,1.7c-0.3,0.2-0.6,0.6-0.9,0.8c-1,0.7-1.2,1.3-0.1,2.2
		c1.6,1.4,2.8,3.1,3.9,4.9c1,1.5,1.6,3.4,3,4.7c1.2-2.5,3.1-4.3,5.1-6c1.7-1.6,1.8-2-0.3-3c-3.2-1.5-5.1-3.9-6.1-7.2
		c-1.3-3.8-1.7-7.6-0.1-11.4c1.6-3.8,4.7-5.7,8.7-6.4c3.1-0.6,6.1-0.1,9,0.7c1.6,0.5,2.1,2.8,3.1,4.3c0.3,0.5,0.5,0.9,0.7,1.5
		c1.5,3.4,2.9,6.7,2.3,10.5c-0.3,2.1,0.2,3.1,2.4,3.4c4.5,0.6,8.4,2.2,11.8,5.4c1.8,1.8,3.8,3.6,6.1,5.1c0.9,0.6,1.3,0.3,1.7-0.5
		c0.7-1.3,1.5-2.4,2.5-3.5c0.7-0.7,0.7-1,0-1.7c-1.4-1.5-1.8-6.8-0.5-8.1c0.9-0.9,1.4-1.8,1.7-2.9c0.3-1,0.9-1.6,2.2-0.8
		c0.6,0.5,1.4,0.6,2.4,0.1c-1.3-0.8-1.5-2-1.4-3.1c0.2-2.3-0.5-4.6,0.3-7c0.3-1,0-2.3-0.2-3.5c-0.3-1.7-0.7-3.5-1-5.2
		c0.7,0,1.2,0.5,1.5,0.8c1.8,2,3.8,3.5,6.7,2c0.2-0.1,0.5,0,0.7,0c2.2-0.1,4.3,0.2,6.4,0.7c1,0.2,1.5,0.5,1.4,1.6
		c-0.1,0.7,0,1.3,0.9,1.4c5.2,0.6,7.9,3.9,9.5,8.6c0.8,2.3,1.2,4.6,1.8,7.4c2.5-2.7,5.4-4.5,8.3-6c3.2-1.7,6.8-2.7,8.8-6.1
		c0.1-0.3,0.6-0.5,0.8-0.7c3.5-2.3,7.2-2.7,11.1-1.5c7.2,2.1,11.2,7.2,8.7,15.7c-0.6,2-1.8,3.5-2.7,5.3c-0.7,1.7-0.5,2.7,1.3,3.1
		c3.9,0.9,6.5,3.6,8.7,6.7c1,1.5,2,3.2,3.4,4.4c1.3,1.2,3,0.9,3.5-0.6c0.7-2.1,2.2-2.7,3.9-3.1c2.7-0.6,2.8-0.8,2-3.4
		c-0.8-2.9-1.5-5.9-1-9c0.3-2.9,1.3-5.8,3.9-7.3c2-1,2.4-2.4,2.5-4.4c0-0.5-0.1-0.9,0.3-1.5c2.9,1.5,6,2.2,9.2,1.8
		c0.8-0.1,1.7,0.1,2.5,0c1-0.1,1.8,0.3,2.5,1.2c1.7,2,2.9,4.3,5.3,5.7c0.7,0.3,0.1,0.8,0,1.3c-0.6,1.5-1.3,2.9-0.6,4.6
		c0.7,1.8,0.5,3.7,0.5,5.7c0,1.4-0.7,2.2-2.1,2.3c-1.5,0.1-2.5,1.2-3.6,2c-0.8,0.7-0.9,1.2,0.1,1.7c1.2,0.6,2.3,1.4,3.1,2.3
		c0.9,1,2,1.4,3.4,1.4c60.8,0,121.6,0,182.5,0c0.7,0,1.3,0.2,2.2-0.3c-0.7-0.7-1.3-1.3-2-1.8c-8.8-7.4-17.7-14.8-26.5-22.2
		c-8.2-6.9-16.4-13.9-24.6-20.8c-11.3-9.5-22.7-19-34-28.4c-8.4-7-16.9-14.2-25.3-21.4c-0.8-0.7-1.7-1-3-1C347.6,1,237.8,1,128,1
		c-1.2,0-2,0.3-2.8,1c-4.7,4-9.5,8-14.2,12c-8.1,6.8-16.2,13.5-24.3,20.3C73.7,45.3,60.8,56.1,47.7,67
		c-11.4,9.5-22.8,19.1-34.2,28.5c-0.5,0.3-1,0.7-1.3,1.5c0.6,0,1,0,1.4,0C33.8,97.5,54.4,97.5,75.1,97.5z"/>
	<path d="M577.4,305.2c0-63.3,0-126.8,0-190.1c0-1.6-0.3-2-2-2c-53.2,0-106.3,0-159.5,0c-1.6,0-2,0.5-2,2c0,31.7,0,63.3,0,95.1
		c0,31.7,0,63.3,0,95.1c0,1.6,0.3,2,2,2c53.2,0,106.3,0,159.5,0C577,307.3,577.4,306.8,577.4,305.2z M443.5,147.9
		c0.1-0.2,0.3-0.3,0.9-0.8c-1.4,4.2-2.4,7.9-2.9,11.7c-2,14.3,2,26.9,11.9,37.4c6.7,7.2,13.8,14.2,19.4,22.4
		c5.3,7.6,8.8,15.9,8.3,25.4c-0.2,5.9-1.7,11.6-4.2,16.9c-0.5,1-0.9,1.3-2.1,0.9c-10.3-3.2-19.4-8.4-27.3-15.8
		c-12.8-12-20.3-26.8-22-44.4C423.9,181.2,430,163.3,443.5,147.9z M431.3,283.9c0.9,0,1.8,0.1,2.8,0c1.2-0.1,1.7,0.1,1.7,1.5
		c0,1.5-0.8,1.4-1.7,1.4c-1.8,0-3.8,0-5.7,0c-1,0-1.4,0.2-1.4,1.3c0.1,2-0.1,4,0,6c0.1,1.5-0.7,1.5-1.7,1.5c-0.9,0-1.8,0.2-1.8-1.4
		c0.1-2.9,0-5.9,0-8.8c0-2.9,0-5.8,0-8.6c0-1,0.1-1.6,1.5-1.6c3.6,0.1,7,0.1,10.6,0c1.2,0,1.4,0.5,1.4,1.5s-0.1,1.6-1.5,1.6
		c-2.4-0.1-4.9,0-7.3,0c-0.8,0-1.2,0.2-1.2,1.2C426.8,283.9,426.7,283.9,431.3,283.9z M452.1,295.6c-1.7,0.1-2.7-0.5-2.9-2.2
		c-0.1-1.5-0.9-2.1-2.4-1.8c-1.4,0.1-2.8,0.1-4.2,0c-1.5-0.1-2.4,0.2-2.4,1.8c-0.1,2.1-1.4,2.4-3.2,2.3c-0.8-0.1-1.2-0.1-0.8-1.2
		c2.1-6.1,4.2-12.3,6.1-18.3c0.5-1.4,1.6-0.7,2.4-0.8c1.7-0.5,2.3,0.3,2.8,1.8c1.8,5.7,3.8,11.3,5.8,16.9
		C453.6,295.1,453.5,295.5,452.1,295.6z M459.4,294.3c0,1.6-1,1-1.8,1.2c-0.8,0.1-1.6,0.2-1.6-1.3c0.1-3,0-6,0-9
		c0-2.9,0.1-5.9,0-8.8c-0.1-1.5,0.7-1.4,1.6-1.4c0.8,0,1.8-0.3,1.7,1.3C459.4,282.4,459.4,288.3,459.4,294.3z M475.7,295.5
		c-0.8,0-1-0.6-1.3-1c-1-1.8-2-3.8-3-5.7c-0.5-0.8-3.4-1.5-4-0.8c-0.3,0.3-0.2,0.8-0.2,1.2c0,1.7-0.1,3.6,0,5.3c0.1,1.4-0.9,1-1.6,1
		c-0.7-0.1-1.8,0.7-1.8-0.9c0-6.1,0-12.4,0-18.5c0-0.8,0.3-0.9,1-0.9c2.7,0,5.3-0.1,8.1,0.1c3,0.2,5.1,2.1,5.7,4.6
		c0.7,3.1-0.2,5.4-3,6.9c-0.9,0.5-0.8,0.8-0.3,1.5c1.3,2.3,2.5,4.6,3.9,7.2C477.6,295.5,476.7,295.5,475.7,295.5z M494.5,276.9
		c0.1,0.7,0.2,1.6-0.9,1.4c-0.1,0-0.2,0-0.3,0c-1.4,0.1-3.4-0.7-4.2,0.3c-0.7,0.9-0.2,2.7-0.2,4c0,3.8-0.1,7.5,0,11.3
		c0,1.5-0.7,1.5-1.7,1.5s-1.8,0.1-1.7-1.4c0.1-2.3,0-4.7,0-7.2c0-2.3-0.1-4.6,0-6.9c0.1-1.3-0.2-2-1.6-1.7c-0.7,0.1-1.4-0.1-2,0
		c-1.8,0.3-2.1-0.7-2-2.2c0-0.7,0.2-0.9,0.9-0.9c4.3,0,8.7,0,12.9,0C495.1,275.1,494.5,276.2,494.5,276.9z M483.2,192
		c-10.4-3.2-19.1-8.8-24-19c-7.4-15.1-1.7-35.4,14.9-43.3c9.8-4.7,20.2-5.9,31-4.7c13.3,1.5,25.1,6.4,35.5,14.8
		c9.9,8.1,17.1,18.3,21.4,30.4c4.6,13.2,5,26.7,2.1,40.2c-2.3,10.4-6.9,19.8-13.6,28.1c-0.2,0.2-0.2,0.6-0.8,0.5
		c0-2.5-0.2-5.1-0.6-7.7c-1.3-9.2-6-16.4-13.8-21.6c-8-5.3-16.8-8.7-26-11.2C500.5,196.2,491.6,194.7,483.2,192z M506.7,292.8
		c-0.7-1.4-1.5-2.8-2.2-4.2c-0.3-0.7-0.7-0.8-1.4-0.9c-2.8-0.1-2.8-0.2-2.8,2.7c0,1-0.1,2.1,0,3.1c0.2,1.7-0.5,2.1-2.1,2.1
		c-1.4,0-1.5-0.6-1.5-1.7c0-5.7,0.1-11.3,0-17c0-1.4,0.3-1.7,1.7-1.7c2.3,0.1,4.6,0,6.9,0.1c4.6,0.1,7.5,4.2,6,8.4
		c-0.3,1.2-1,2.2-2.1,2.7c-2,0.7-1.4,1.6-0.7,2.9c1.2,2,2.2,4,3.4,6C508.4,295.8,508.4,295.8,506.7,292.8z M530,295.6
		c-1.7,0.1-2.7-0.5-2.9-2.2c-0.1-1.4-0.9-2.2-2.4-1.8c-0.8,0.1-1.6,0-2.4,0c-3.5,0-3.5,0-4.7,3.2c-0.2,0.7-0.7,0.9-1.4,0.8
		c-0.8,0-1.6,0-2.7,0c2.2-6.7,4.4-13.1,6.6-19.5c0.1-0.2,0-0.7,0.5-0.7c1.3-0.1,2.4-0.2,3.7,0c0.8,0.1,0.7,1.2,0.9,1.8
		c2,5.7,3.8,11.4,5.9,17.1C531.4,295.4,531.1,295.5,530,295.6z M550.2,288.1c-0.8,4.5-3.6,7-8.2,7.3c-2.5,0.1-5,0-7.5,0.1
		c-1,0-1.3-0.3-1.3-1.3c0.1-1.5,0-3,0-4.6c0-1.5,0-2.9,0-4.4c0-2.9,0.1-5.9,0-8.8c0-1.3,0.5-1.4,1.5-1.4c2.2,0.1,4.4,0,6.6,0.1
		c4.9,0.1,8.3,3.2,8.9,8.2C550.4,285,550.4,286.6,550.2,288.1z M567.4,293.9c-0.1,0.8,0.2,1.6-1.2,1.6c-3.9-0.1-8-0.1-11.9,0
		c-1.2,0-1.3-0.3-1.3-1.4c0-2.9,0-5.9,0-8.8c0-3,0-6,0-9c0-0.9,0.2-1.3,1.2-1.3c4,0,8.1,0.1,12,0c1.4,0,1,0.8,1,1.5
		c0,0.7,0.3,1.6-1,1.5c-2.8-0.1-5.7,0-8.4,0c-1,0-1.5,0.1-1.5,1.4c0,4-0.1,4,4,4c1.6,0,3.4,0.1,5,0c1.3-0.1,1,0.7,1,1.4
		c0,0.7,0.2,1.5-0.9,1.5c-2.5,0-5.1,0-7.6,0c-1,0-1.3,0.3-1.4,1.4c-0.1,4.6-0.1,4.6,4.6,4.6c1.7,0,3.5,0.1,5.1,0
		C567.4,292.4,567.5,292.9,567.4,293.9z"/>
	<path d="M361.1,252c-43.7,0-87.5,0-131.2,0s-87.5,0-131.2,0c-2,0-2.2,0.6-2.2,2.3c0.1,24.5,0.1,49.1,0,73.6c0,1.7,0.3,2.2,2.2,2.2
		c87.5,0,174.9,0,262.3,0c2.3,0,2.3,0,2.3-2.4c0-24.5,0-49,0-73.5C363.4,252.5,363,252,361.1,252z M149.9,303.9
		c-1,6.2-4.2,10.9-10.3,12.8c-5.3,1.7-10.5,1.5-15-2.5c-0.1-0.1-0.2-0.5-0.6-0.3c-0.1,0.1-0.2,0.1-0.2,0.2c-0.1,2.4-0.1,2.4-2.7,2.4
		c-1.2,0-2.3-0.1-3.5,0s-1.4-0.3-1.4-1.5c0-4.2,0-8.3,0-12.5c0-1,0.2-1.5,1.4-1.5c2.1,0.1,4.2,0.1,6.2,0c0.9,0,1.3,0.3,1.3,1.3
		c0.5,4,3.2,6.6,7.3,6.8c4,0.2,6.9-2,7.9-5.8c0.6-2.4-0.6-4.7-2.8-5.9c-3.6-1.8-7.6-2.9-11.3-4.3c-6.7-2.5-10.7-7.9-10.4-14.2
		c0.6-10.6,10.7-16.1,19-14c2.2,0.6,3.8,1.6,5.9,3.5c-0.5-2.4,0.6-2.8,2.2-2.5s3.9-0.8,4.9,0.5c0.8,1,0.2,3.1,0.2,4.7
		c0,2.2-0.1,4.4,0,6.6c0.1,1.6-0.5,2-2,1.8c-1.7-0.1-3.6-0.1-5.3,0c-1,0-1.4-0.2-1.6-1.3c-1.2-5.4-6.4-6.6-10.4-4.5
		c-2.3,1.2-3.5,3.2-3.4,5.8c0.1,3.1,2.4,4.5,5.1,5.5c3.9,1.5,8.1,2.5,11.9,4.4C147.7,292,150.8,297.9,149.9,303.9z M192,305
		c-2.2,5.7-6.4,9.4-11.9,11.4c-7.7,3-17.5,0.2-22.8-6.2c-9-11.1-3.8-28,9.8-31.8c5.4-1.5,10.6-1,15.1,2.7c0.3,0.2,0.6,0.6,0.9,0.3
		c0.5-0.1,0.2-0.7,0.2-0.9c-0.3-1.8,0.6-2.2,2.2-2.1c1.3,0.1,2.5,0.1,3.8,0c1.4-0.1,1.6,0.5,1.6,1.6c-0.1,1.6,0,3.1,0,4.7
		c0,1.7,0,3.5,0,5.1c0,0.9-0.3,1.3-1.3,1.3c-2,0-3.9-0.1-5.9,0c-1.3,0.1-1.7-0.8-2.4-1.6c-5.1-5.2-13.3-4.7-17.7,1.2
		c-2.7,3.6-2.9,8.8-0.5,12.7c2.3,3.8,7.4,6,11.8,5.3c3-0.6,5.4-1.8,7.2-4.4c0.5-0.6,0.9-0.9,1.7-0.9c2.4,0,4.7,0,7.2,0
		C192.3,303.6,192.5,303.9,192,305z M238.5,316.3c-0.9,0.9-2.9,0.2-4.4,0.3c-4,0-8.1,0-12.1,0c-1.3,0-1.7-0.2-1.7-1.6
		c0.1-1.7,0.1-3.5,0-5.1c0-1.2,0.2-1.5,1.4-1.5c3.5,0,3.5-0.1,3.5-3.5c0-3.9,0.1-7.7-0.2-11.7c-0.3-3.6-3.2-6.4-6.8-6.6
		c-4.4-0.2-7.9,2.1-8.7,5.8c-1,4.9-0.3,9.8-0.6,14.8c0,1,0.7,1.3,1.6,1.3c3.5,0.1,3.5,0.1,3.5,3.6c0,4.5,0,4.5-4.5,4.5
		c-4.2,0-8.4,0-12.6,0c-1.2,0-1.5-0.3-1.5-1.5c0.1-1.7,0.1-3.6,0-5.3c0-1.2,0.5-1.4,1.5-1.4c3.4,0,3.4-0.1,3.4-3.4
		c0-9.6,0-19.3,0-28.9c0-1.5-0.3-2.3-2-2c-0.5,0.1-0.8,0-1.3,0c-1.3,0.2-1.7-0.3-1.6-1.6c0.1-1.7,0.1-3.5,0-5.1c0-1,0.3-1.4,1.4-1.4
		c3.6,0,7.2,0.1,10.7,0c1.2,0,1.5,0.3,1.5,1.5c0,4.7,0,9.5,0,14.3c0,0.6-0.1,1.2,0.2,1.8c1.7-1.7,3.2-3.5,5.5-4.5
		c7.2-3.2,16.1,0.8,18.3,8.4c1,3.5,1,6.9,1,10.5c0,2.9,0,5.9,0,8.8c0,1.2,0.2,1.7,1.6,1.7c3.2,0,3.4,0.1,3.2,3.4
		C238.8,313.4,239.4,315.4,238.5,316.3z M261,317.6c-11.4,0-19.9-8.7-19.9-20.1c0-11.1,8.8-19.6,19.9-20
		c10.3-0.2,20.5,9.5,19.6,19.9C281,308.3,272.4,317.7,261,317.6z M303.6,317.6c-11.7,0-19.8-8.9-19.9-20c0-11.3,8.7-20.2,20-20
		c9.8-0.7,19.9,8.4,19.6,19.8C323.2,309,314.5,317.7,303.6,317.6z M345.1,309.9c-0.1,1.7-0.1,3.6,0,5.3c0,1-0.2,1.4-1.3,1.4
		c-5.2,0-10.5,0-15.7,0c-1.2,0-1.5-0.3-1.4-1.5c0.1-1.7,0.1-3.6,0-5.3c0-1,0.2-1.4,1.3-1.4c3.7-0.1,3.7-0.1,3.7-3.9
		c0-9.5,0-19,0-28.4c0-1.5-0.2-2.2-2-2.1c-3,0.1-3,0-3-2.9c0-1.6-0.7-3.7,0.2-4.7c1-1.2,3.2-0.3,5-0.3c2.1-0.1,4.2,0.1,6.2-0.1
		c2-0.2,2.3,0.6,2.3,2.3c-0.1,6.2,0,12.6,0,18.8c0,6.4,0.1,12.8,0,19.2c0,1.7,0.6,2.3,2.2,2.1c0.3,0,0.7,0,1,0
		C344.7,308.3,345.2,308.7,345.1,309.9z"/>
	<path d="M302.5,76.8c-1.2,0.2-1.7,0.9-2.3,1.7c-1.2,1.6-2.2,3.1-3.4,4.7c-0.9,1.2-0.8,1.7,0.6,2.5c4.3,2.3,7.7,5.4,8.2,10.7
		c0,0.6,0.2,1,1,1c2.2,0,4.4,0,6.8,0c-0.5-0.9-0.8-1.6-1.2-2.3c-1.4-2.9-4.2-3.8-6.8-5c-4.9-2.1-6.5-6-4.4-10.6
		C301.5,78.7,302.3,78.1,302.5,76.8z"/>
	<path d="M150.7,83.4c-2.3,1.8-4,4-3.5,7.3c0.1,0.5-0.2,1-0.3,1.6c-0.5,1.6-1,3.2-1.6,5.1c4.5-4.3,5.1-6.4,5.4-11.8
		c0.1-1,0.6-1.5,1.4-2c3.6-2.2,3.6-2.2,1.5-5.8c0,0-0.1,0-0.6-0.2C153.9,80.4,152.4,82,150.7,83.4z"/>
	<path d="M415.1,321.8c-2.7,0.1-0.6,2.4-1.3,3.5c-0.1,0.2,0,0.7,0,1c0,1.3,0,2.5,0,3.8c0,0.3-0.1,0.8,0.5,1c3.8,1.5,7.5-1.3,7.3-5.5
		C421.3,322.6,419.6,321.5,415.1,321.8z M418.8,329.6c-1,0.7-2.3,0.7-3.4,0.2c-0.8-0.3-0.2-1.4-0.3-2.2c-0.1-0.7-0.2-1.5,0-2.2
		c0.2-0.8-1-2.3,0.9-2.5c2.4-0.2,3.8,0.6,4,2.5c0,0.3,0,0.6,0.1,0.8C420.2,327.6,419.9,328.8,418.8,329.6z"/>
	<path d="M444.1,325.8c-0.7-0.1-1.3-0.2-2-0.5c-0.6-0.2-0.9-0.6-0.9-1.2c0-0.7,0.5-1.2,1.2-1.3c1.2-0.2,2.4-0.2,2.9,1.2
		c0.2,0.7,0.7,0.9,1.3,0.6c0.6-0.3,0.1-0.9,0-1.3c-0.6-1.5-2.7-2.1-4.6-1.5c-1.3,0.3-2,1.2-2,2.5c0,1.3,0.8,2,2,2.3
		c0.9,0.2,1.8,0.5,2.8,0.7c0.7,0.2,1.3,0.6,1.2,1.4c-0.1,0.8-0.7,1.3-1.4,1.4c-1.4,0.2-2.8,0.1-3.4-1.5c-0.2-0.6-0.6-0.8-1-0.7
		c-0.7,0.2-0.3,0.8-0.2,1.2c0.6,1.7,2,2.2,3,2.2c2.8,0,4.3-0.9,4.5-2.5C447.3,327.3,446.3,326.3,444.1,325.8z"/>
	<path d="M544.9,321.7c-1,0.1-0.6,0.9-0.6,1.4c-0.1,2.7-0.1,2.7-2.3,2.7c-2.4,0-2.4,0-2.4-2.4c0-0.3,0-0.6,0-0.9
		c0-0.6-0.2-0.7-0.8-0.7c-0.6,0-0.7,0.3-0.7,0.8c0,1.3,0,2.5,0,3.8c0,1.2,0,2.3,0,3.5c0,0.5-0.5,1.4,0.6,1.4c1.2,0,0.7-0.9,0.8-1.5
		c0.1-0.6,0.1-1.2,0-1.6c-0.1-0.9,0.2-1.3,1.2-1.3c3.4-0.1,3.4-0.1,3.6,3.2c0,0.5-0.2,1,0.6,1c0.8,0.1,0.8-0.6,0.8-1
		c0-2.3,0-4.6,0-6.9C545.6,322.6,546,321.7,544.9,321.7z"/>
	<path d="M567.2,321.7c-0.5,0-0.6,0.2-0.6,0.7c0,0.7,0,1.4,0,2.3c-0.6-0.2-1-0.3-1.5-0.5c-1.3-0.3-2.4,0-3.2,1
		c-0.9,1.4-0.9,2.9-0.2,4.4c0.6,1.2,1.6,1.6,3,1.6c0.8,0,1.6-0.8,2.7-0.1c0.3,0.2,0.5-0.3,0.5-0.7c0-2.7,0-5.3,0-8
		C567.8,322.1,567.8,321.7,567.2,321.7z M564.6,330.1c-1.5,0-2-1-2.1-2.2c0-1.6,0.3-2.8,2-2.8s2,1.3,2,2.5
		C566.6,329,566.1,330.1,564.6,330.1z"/>
	<path d="M523,328.1c0.1,0,0.2,0,0.3,0c0.3,0,0.7,0,1,0c1.5,0.2,1.8-0.5,1.3-1.7c-0.7-1.8-2.3-2.7-4-2s-2.5,3.1-1.7,5.1
		c0.7,1.6,2.5,2.3,4.3,1.6c0.8-0.3,1.3-0.9,1.5-1.7c0-0.1-0.1-0.3-0.2-0.5c-0.9-0.3-1,0.6-1.5,0.9c-0.7,0.5-1.5,0.5-2.2,0
		c-0.5-0.3-0.9-0.8-0.7-1.4C521.5,327.6,522.5,328.2,523,328.1z M522.8,325.3c0.8,0,1.7,0.3,1.7,1.3c-0.1,0.9-1,0.2-1.6,0.6
		c-0.5-0.3-1.5,0.5-1.6-0.6C521.2,325.6,522,325.3,522.8,325.3z"/>
	<path d="M428.2,327.1c-0.1-2.7-1.6-3.7-4-2.8c-0.7,0.2-1.3,0.8-1.4,1.5c-0.1,0.2,0,0.5,0.2,0.6c0.8,0.2,1-0.5,1.4-0.9
		c0.1-0.1,0.5-0.2,0.7-0.2c0.7-0.1,1.6-0.2,1.8,0.7c0.2,1-0.7,0.9-1.3,1c-0.3,0.1-0.8,0.1-1.3,0.2c-1.2,0.2-2,0.9-1.8,2.3
		c0.2,1.4,1.2,1.7,2.4,1.7c0.6,0,1.2-0.1,1.6-0.5c0.7-0.5,0.8,0.7,1.5,0.5c0.6-0.1,1.2-0.6,0.7-0.9
		C427.6,329.5,428.3,328.2,428.2,327.1z M426.9,328.6c-0.1,1.2-0.9,1.5-1.8,1.5c-0.7,0-1.4-0.2-1.3-1c0.2-1.3,1.5-1,2.3-1.2
		C426.7,327.8,426.9,328.1,426.9,328.6z"/>
	<path d="M511.4,328.2c-0.2-1.6,0.5-3.1-1-3.7c-1.2-0.5-2.4-0.5-3.5,0.1c-0.7,0.3-1.3,1-0.8,1.7c0.6,0.6,0.9-0.1,1.3-0.6
		c0.6-0.7,1.4-0.6,2.2-0.2c0.3,0.1,0.6,0.6,0.5,0.9c-0.2,0.8-1,0.6-1.7,0.8c-0.1,0-0.2,0-0.3,0c-1.8,0.3-2.7,1.2-2.3,2.5
		c0.2,1.3,1.7,2,3.2,1.4c0.8-0.2,1.4-0.5,2.1,0.1c0.2,0.1,0.7,0.1,0.9-0.2c0.1-0.1,0.1-0.6,0-0.7
		C510.7,329.7,511.5,328.5,511.4,328.2z M508.5,330.1c-1,0.1-1.7-0.1-1.6-0.9c0.1-1.4,1.4-1.2,2.3-1.3c0.5-0.1,0.8-0.1,0.8,0.6
		C509.9,329.8,509.1,330,508.5,330.1z"/>
	<path d="M552.7,328c0-0.5,0-0.9,0-1.3c0.1-1.2-0.1-2.1-1.4-2.4c-1.4-0.2-2.8-0.3-3.8,1c-0.2,0.3-0.6,0.8-0.1,1.2
		c0.3,0.2,0.8,0.2,1-0.3c0.5-0.9,1.3-0.9,2.2-0.8c0.5,0.1,0.8,0.3,0.8,0.9c0,0.3-0.3,0.6-0.7,0.7c-0.6,0.1-1.2,0.2-1.7,0.3
		c-0.8,0.2-1.6,0.5-2,1.5c-0.2,0.7-0.1,1.4,0.3,1.8c0.7,0.8,1.7,0.8,2.8,0.6c0.7-0.1,1.4-0.8,2.2,0c0.2,0.2,0.7,0.2,0.9-0.2
		c0.1-0.1,0.1-0.6,0.1-0.7C552.2,329.7,553.1,328.6,552.7,328z M551.6,328.5c-0.1,1.2-0.9,1.6-2,1.7c-0.7,0-1.4-0.2-1.2-1
		c0.2-1.3,1.5-1,2.3-1.2C551.1,328,551.7,327.8,551.6,328.5z"/>
	<path d="M571.1,324.4c-1.8,0.6-2.7,3-1.8,5.1c0.7,1.6,2.5,2.4,4.3,1.7c0.8-0.3,1.3-0.9,1.5-1.7c0-0.1-0.1-0.3-0.2-0.5
		c-0.9-0.5-1,0.6-1.5,0.9c-0.7,0.5-1.5,0.5-2.2,0c-0.5-0.3-0.9-0.8-0.7-1.4c0.3-0.9,1.3-0.2,2-0.5c0.1,0,0.2,0,0.3,0
		c0.3,0,0.7,0,1,0c1.6,0.2,1.7-0.6,1.3-1.8C574.5,324.6,572.9,323.7,571.1,324.4z M571.6,327c-0.3,0-1,0.3-1.2-0.3
		c0-0.5,0.3-0.9,0.8-1.2c1.4-0.6,2.2,0,2.9,1.5C573.1,327,572.4,327.1,571.6,327z"/>
	<path d="M467.8,328.1c0.9,0,2,0,2.9,0c1,0,1.2-0.3,0.9-1.3c-0.5-1.8-1.7-2.9-3.6-2.7c-1.7,0.2-2.9,1.8-2.8,3.7
		c0.1,2.2,1.3,3.4,3.4,3.4c0.7,0.1,1.4-0.1,2-0.7c0.5-0.3,1-1,0.7-1.5c-0.6-0.7-0.9,0.1-1.4,0.5c-0.9,0.9-1.8,0.7-2.8,0
		c-0.2-0.2-0.5-0.8-0.5-1.2C466.9,327.8,467.4,328.1,467.8,328.1z M466.6,327c0.3-1.4,1-1.8,2.2-1.7c0.7,0.1,1.4,0.6,1.4,1.3
		c0,0.9-0.9,0.5-1.4,0.5C468.1,327.1,467.6,327,466.6,327z"/>
	<path d="M453.3,328.1c0.9,0,2-0.1,2.9,0s1-0.3,0.9-1.2c-0.2-1.7-1.5-2.9-3.2-2.8c-2,0.1-3.1,1.6-3,3.8c0.1,2.1,1.3,3.4,3.4,3.4
		c0.8,0.1,1.6-0.2,2.1-0.8c0.3-0.5,1-0.9,0.5-1.5c-0.5-0.5-0.8,0.2-1.3,0.6c-0.8,0.9-1.8,0.8-2.8,0c-0.3-0.2-0.5-0.7-0.5-1.2
		C452.4,327.8,453,328.1,453.3,328.1z M454,325.3c0.8,0,1.7,0.3,1.7,1.3c0,0.9-1,0.2-1.6,0.6c-0.5-0.3-1.6,0.6-1.6-0.7
		C452.4,325.8,453.2,325.3,454,325.3z"/>
	<path d="M432.9,327.1c-0.2,0-0.5-0.1-0.7-0.2c-0.6-0.1-1.5-0.3-1.3-1c0.2-0.8,1.2-0.7,1.8-0.6c0.5,0.1,0.6,0.3,0.8,0.7
		c0.3,0.3,0.8,0.5,1,0.1c0.3-0.3,0.1-0.8-0.2-1.2c-1-1-2.3-1-3.6-0.7c-0.8,0.2-1.4,0.8-1.4,1.7s0.5,1.5,1.3,1.7
		c0.7,0.2,1.5,0.3,2.3,0.6c0.5,0.1,0.8,0.3,0.7,0.9c-0.1,0.5-0.5,0.7-0.9,0.8c-0.8,0.1-1.7,0.2-2.2-0.8c-0.2-0.5-0.6-0.7-1-0.3
		c-0.6,0.3-0.1,0.9,0.1,1.3c0.6,0.9,1.5,1.2,2.5,1c1.4,0,2.7-0.2,2.9-1.8C435.3,327.7,434,327.4,432.9,327.1z"/>
	<path d="M560,326.3c-0.1-1.4-0.8-2.1-2.2-2.2c-3.4-0.1-3.5,0-3.5,3.5c0,0.1,0,0.1,0,0.2c0,0.7,0,1.5,0,2.2c0,0.5-0.2,1.3,0.6,1.3
		c0.9,0,0.6-0.7,0.7-1.2c0-0.9,0-2,0-2.9c0-1.2,0.7-1.8,1.8-1.8c1.2,0,1.3,0.9,1.4,1.7c0,1,0,2.2,0,3.2c0,0.5,0,0.9,0.6,0.8
		c0.7,0,0.6-0.5,0.6-0.9C560.1,329,560.1,327.6,560,326.3z"/>
	<path d="M488.8,327.8c0-0.8,0-1.7,0-2.5c0-0.5,0-1-0.7-0.9c-0.7,0-0.6,0.5-0.6,0.9c0,1,0,2.1,0,3.1c0,1.2-0.7,1.8-1.8,1.8
		c-1.3,0-1.4-0.9-1.4-1.8c0-1,0-2.2,0-3.2c0-0.5-0.1-0.7-0.6-0.7s-0.6,0.3-0.6,0.7c0,0.8,0,1.7,0,2.5c0,3.7,0.2,3.9,3.9,3.4
		c0.1,0,0.2-0.1,0.3-0.1c2,1.3,1.4-0.5,1.5-1.3C488.9,329,488.8,328.4,488.8,327.8z"/>
	<path d="M503.3,321.7c-1.5,0-3.6-0.7-4.5,0.3c-0.7,0.8-0.1,2.9-0.1,4.4h-0.1c0,1.4,0,2.7,0,4c0,0.5,0.1,0.8,0.7,0.8
		c0.5,0,0.8-0.1,0.7-0.6c-0.5-2.9,0.3-4.4,3.6-3.7c0.3,0.1,0.6-0.1,0.6-0.6c0-0.6-0.3-0.6-0.7-0.6c-0.8,0-1.7,0-2.5,0
		c-0.6,0-0.8-0.1-0.9-0.8c-0.1-1.5,0.1-2.5,2-2.1c0.5,0.1,1,0.1,1.5,0c0.5-0.1,1.4,0.5,1.4-0.6C504.8,321.2,503.9,321.7,503.3,321.7
		z"/>
	<path d="M530.6,324.1c-1-0.1-2,0.3-3,0.3c-0.9,0-0.2,2-0.3,3c0,0.1,0,0.1,0,0.2c0,0.8,0,1.6,0,2.4c0,0.5-0.2,1,0.6,1s0.6-0.6,0.6-1
		c0-1,0-2.2,0.1-3.2c0.1-1,0.8-1.6,1.8-1.6c1.2,0,1.3,0.9,1.3,1.8c0,1.2,0,2.2,0,3.4c0,0.5,0.1,0.9,0.7,0.8c0.5,0,0.6-0.3,0.6-0.8
		c0-1.5,0-3-0.1-4.5C532.6,324.6,531.6,324.3,530.6,324.1z"/>
	<path d="M481.5,321.7c-0.5,0-0.9,0.1-1.4,0.5c-0.7,0.7,0,2.4-1.6,2.5v0.5c2.1,0.5,0.8,2.1,1.2,2.9c0,0.7,0,1.3,0,1.8
		c0,0.5-0.3,1.3,0.6,1.3s0.6-0.7,0.6-1.2c0-0.9,0-1.8,0-2.8c0-0.8-0.5-1.8,1-2c0.5,0,0.3-0.9-0.3-0.9c-0.5-0.1-0.8-0.1-0.8-0.7
		c0-0.6,0.2-0.8,0.8-0.8s0.8-0.2,0.7-0.8C482.2,321.6,481.9,321.7,481.5,321.7z"/>
	<path d="M493.1,324.3c-0.5,0.2-0.9,0.7-1.4,0.7c-1.3,0-1.3-0.1-1.3,0.9c0,0.6,0,1.2,0,1.8c0,0.7,0,1.5,0,2.2c0,0.5-0.3,1.3,0.6,1.3
		c1,0,0.6-0.8,0.6-1.4c0.1-1.7-0.6-3.9,2.2-4.5c0.3-0.1,0.3-0.5,0.2-0.8C493.8,324,493.5,324.1,493.1,324.3z"/>
	<path d="M577,321.7c-0.6,0-0.7,0.3-0.7,0.8c0,2.7,0,5.2,0,7.9c0,0.5,0.1,0.8,0.7,0.8c0.7,0,0.6-0.5,0.6-0.8c0-1.3,0-2.5,0-3.8
		c0-1.3,0-2.5,0-3.8C577.7,322.3,577.8,321.7,577,321.7z"/>
	<path d="M518.5,324.3c-0.6,0.2-1,0.7-1.6,0.7c-1.3-0.1-1.3-0.2-1.3,1.2c0,0.6,0,1,0,1.6c0,0.7-0.1,1.4,0,2c0.1,0.6-0.5,1.5,0.7,1.5
		c0.9,0,0.5-0.9,0.5-1.5c0.1-1.7-0.5-3.8,2.2-4.3c0.5-0.1,0.3-0.6,0.2-0.9C519.2,324.1,518.9,324.1,518.5,324.3z"/>
	<path d="M473.5,321.7c-0.7,0-0.7,0.3-0.7,0.8c0,1.3,0,2.5,0,3.8c0,1.4,0,2.7,0,4c0,0.3,0,0.7,0.5,0.8c0.7,0.1,0.6-0.3,0.7-0.8
		c0-2.7,0-5.2,0-7.9C474,322.2,474,321.8,473.5,321.7z"/>
	<path d="M449,324.3c-0.5,0-0.6,0.3-0.6,0.8c0,0.9,0,1.8,0,2.8s0,1.8,0,2.8c0,0.5,0.1,0.7,0.6,0.7s0.6-0.3,0.6-0.7
		c0-1.8,0-3.6,0-5.4C449.7,324.6,449.5,324.3,449,324.3z"/>
	<path d="M513.6,324.3c-0.6,0-0.7,0.3-0.7,0.8c0,0.8,0,1.7,0,2.5c0,0.9,0,1.8,0,2.8c0,0.5,0.1,0.8,0.7,0.8c0.5,0,0.6-0.3,0.6-0.7
		c0-1.8,0-3.6,0-5.4C514.1,324.6,514,324.4,513.6,324.3z"/>
	<path d="M449,323.2c0.6,0,0.8-0.2,0.7-0.7c0-0.3,0-0.7-0.6-0.7c-0.6,0-0.7,0.2-0.7,0.7C448.4,322.9,448.4,323.2,449,323.2z"/>
	<path d="M513.6,321.7c-0.6,0-0.7,0.2-0.7,0.7c0,0.3,0,0.7,0.6,0.7s0.8-0.2,0.7-0.7C514.1,322.1,514,321.7,513.6,321.7z"/>
	<path d="M602,123.2c-0.3-0.3,0.2-0.5,0.3-0.7c1-1.2,1.2-2.4,0.6-3.7c-0.6-1.3-1.7-1.7-3.1-1.7c-1.6,0-3.1,0.1-4.7,0
		c-1,0-1.3,0.3-1.2,1.3c0.1,1.5,0,2.9,0,4.4s0.1,3,0,4.5c-0.1,1.3,0.6,1.4,1.5,1.3c1.6-0.1,0.8-1.4,0.8-2.1c0.1-2.5,0-2.5,2.4-2.4
		c1.3,0.1,2,0.6,1.8,2c0,0.6,0,1,0.1,1.6c0.1,1.5,1.4,0.9,2.1,0.9c1.4,0,0.3-0.8,0.3-1.3C602.8,125.8,603.4,124.3,602,123.2z
		 M599,122c-0.3,0-0.6,0-1,0c-1.4,0.3-1.8-0.3-1.7-1.8c0-0.9,0.3-1.2,1.2-1.2c0.6,0,1,0,1.6,0c0.9,0,1.7,0.3,1.8,1.4
		C600.8,121.5,600,122,599,122z"/>
	<path d="M310.2,205.2c-7.2,0-12.8,5.8-12.8,12.9c0,6.8,5.8,12.7,12.7,12.7s12.7-5.9,12.7-13.1C322.9,210.8,317.2,205.1,310.2,205.2
		z"/>
	<path d="M256.9,205.2c-7,0-12.7,5.7-12.7,12.9c0,6.8,5.8,12.6,12.6,12.5c7,0,12.8-5.8,12.8-12.9
		C269.6,210.9,263.8,205.2,256.9,205.2z"/>
	<path d="M89.4,205.2c-7,0-12.6,5.7-12.6,12.8c0,6.9,5.5,12.6,12.4,12.7c7,0.1,12.9-5.8,12.9-12.9
		C102.1,210.8,96.5,205.2,89.4,205.2z"/>
	<path d="M361.2,204.2c-5.5,0.5-10.1,4.4-11.3,9.8c7.6,0,15.3,0,22.8,0c2.9,0,2.9,0,1.6-2.5C371.5,206.1,366.2,203.8,361.2,204.2z"
		/>
	<path d="M241.4,161c4.3,0,7.3-3.2,7.3-7.6c0-4.5-3.1-7.7-7.5-7.7c-4.2,0-7.4,3.4-7.4,7.6C233.8,157.6,237.1,161,241.4,161z"/>
	<path d="M524.7,170.3c0-10.3-8.2-18.4-18.5-18.4c-10.4,0-18.6,9.1-18.4,19c0.3,9.7,8.6,18,18.5,17.9
		C516.6,188.8,524.8,180.6,524.7,170.3z"/>
	<path d="M538.6,278.3c-0.1,0-0.1,0-0.2,0c-1.4-0.2-2,0.2-1.8,1.7c0.1,1.8,0,3.7,0,5.4c0,0.8,0,1.7,0,2.5c0,5.1,0,5.1,5.1,4.3
		c2.7-0.3,4-1.7,4.6-4.2C547.9,281.8,545.1,278.3,538.6,278.3z"/>
	<path d="M506.4,278.6c-0.7-0.3-1.5-0.3-2.3-0.3c-3.7-0.1-3.7-0.1-3.7,3.5c0,0.8,0,1.7,0,2.5c0,0.6,0.2,0.9,0.8,0.8
		c1.6,0,3.1,0.1,4.7-0.3c1.5-0.5,2.2-1.5,2.3-2.9C508.4,280.3,507.8,279.2,506.4,278.6z"/>
	<path d="M473.2,278.6c-0.8-0.5-1.7-0.5-2.7-0.5c-3.5,0-3.5,0-3.5,3.4c0,0.9,0,1.8,0,2.8c0,0.6,0.2,0.9,0.8,0.8
		c1.6,0,3.4,0.1,4.9-0.3c1.4-0.5,2.1-1.4,2.2-2.8C475.2,280.5,474.6,279.3,473.2,278.6z"/>
	<path d="M522.5,278.1c-0.7,2.2-1.3,3.9-1.7,5.8c-0.5,1.4-1.5,3.6-1,4.2c0.9,1,2.9,0.2,4.5,0.3c1.4,0.1,1.3-0.6,1-1.5
		C524.3,284.3,523.5,281.5,522.5,278.1z"/>
	<path d="M444.8,278.7c-0.1,0-0.2,0-0.3,0c-0.9,2.9-1.7,5.8-2.7,8.7c-0.2,0.7-0.2,1.2,0.8,1.2c1.4-0.1,2.8,0,4.2,0
		c0.8,0,0.9-0.3,0.7-1C446.6,284.6,445.7,281.6,444.8,278.7z"/>
	<path d="M303.7,286.1c-6-0.1-11.1,5-11.1,11.1c-0.1,6.4,4.7,11.7,10.9,11.8c5.7,0.1,11.2-5,11-11.4
		C314.7,291.4,309.8,286.3,303.7,286.1z"/>
	<path d="M261.2,286.1c-6-0.1-11.2,5.2-11.2,11.4c0,6.1,5.2,11.3,11.1,11.3c5.7,0,11.2-5.2,10.9-11.4
		C272.1,291.3,266.9,286.2,261.2,286.1z"/>
</g>
</svg>
