<?xml version="1.0" encoding="utf-8"?>
<!-- Generator: Adobe Illustrator 19.0.0, SVG Export Plug-In . SVG Version: 6.00 Build 0)  -->
<svg version="1.1" id="Ebene_1" xmlns="http://www.w3.org/2000/svg" xmlns:xlink="http://www.w3.org/1999/xlink" x="0px" y="0px"
	 viewBox="0 0 612 542" style="enable-background:new 0 0 612 542;" xml:space="preserve">
<path d="M76.8,33l54.6-2.1c6.5-0.2,11.4,5.7,10.1,12l-57,268.6c-14.2,39.7,29.8,38.3,29.8,38.3c20.5-2.6,35.2-32.7,37.9-38.7
	c0.3-0.7,0.5-1.4,0.7-2.1l32.2-159.9c0.9-4.6,5-8,9.7-8h54c6.6,0,11.3,6.3,9.6,12.6C203.8,349.7,237.8,347,237.8,347
	c63.9,20.8,82.9-188.2,83.7-197c0-0.2,0-0.4,0.1-0.6C336.8,41.1,378.8,14.6,388,10c1.1-0.5,2.2-0.8,3.4-1
	C533.3-5.2,562.2,35.9,567.5,47.4c0.8,1.7,1,3.6,0.7,5.5l-10.6,68.3c-0.9,6,3.7,11.5,9.8,11.5h4c5.5,0,9.9,4.4,9.9,9.9v5.7
	c0,5.5-4.4,9.9-9.9,9.9h-13.3c-4.7,0-8.7,3.3-9.7,7.9l-2.5,11.6c-0.1,0.3-0.1,0.5-0.2,0.8C484.9,378.2,531.6,347,531.6,347
	c20,3.5,45.8-32.8,54.1-45.4c2.2-3.3,6.1-5.1,9.9-4.3c3.4,0.7,5.9,2.5,7.7,4.4c2.5,2.7,3.2,6.7,1.9,10.1
	c-19.8,52-68.6,83.3-80.8,90.4c-1.8,1.1-3.9,1.5-6,1.3c-98.6-8.4-80.6-80.7-80.6-80.7l29-155.7c1.1-6.1-3.6-11.8-9.8-11.8h-49.4
	c-4.8,0-8.8,3.4-9.8,8l-57.8,296.1c-0.1,0.7-0.3,1.4-0.6,2c-27.9,69-90.7,70.2-99.4,70c-0.7,0-1.3-0.1-2-0.2
	c-20.5-4.2-33.5-16.4-41.8-29.7c-16.7-26.8-8-62.5,18.2-80.3c21.6-14.7,46.4-21.3,56-23.5c3.5-0.8,6.5-3.2,7.4-6.7
	c0-0.1,0.1-0.3,0.1-0.4c1.8-8.1-7.6-14.4-14.7-10.1c-24.5,14.8-52.1,16.2-56.3,16.4c-0.4,0-0.7,0-1.1,0c-31-1.7-44.7-17.7-50.6-29.4
	c-2.9-5.7-10.3-7.1-15.1-3l-30,25c-1.1,0.9-2.5,1.6-3.8,2c-88.1,24.4-96.4-41-97.1-51.7c-0.1-0.9,0-1.8,0.2-2.6L67.4,41.1
	C68.3,36.5,72.2,33.2,76.8,33z M411,128.4h65.3l15.6-73.8c0,0-21.3-34.1-68.1,0L411,128.4z M262,419.4c0,0-44,18.5-45.4,39.7
	c0,0,1.4,32.6,32.6,11.4C249.2,470.5,262.2,438.7,262,419.4z M240.7,18.4c-24.9,0-45.1,20.2-45.1,45.1s20.2,45.1,45.1,45.1
	s45.1-20.2,45.1-45.1S265.6,18.4,240.7,18.4z"/>
</svg>
