<?xml version="1.0" encoding="utf-8"?>
<!-- Generator: Adobe Illustrator 16.0.0, SVG Export Plug-In . SVG Version: 6.00 Build 0)  -->
<!DOCTYPE svg PUBLIC "-//W3C//DTD SVG 1.1//EN" "http://www.w3.org/Graphics/SVG/1.1/DTD/svg11.dtd">
<svg version="1.1" id="Ebene_1" xmlns="http://www.w3.org/2000/svg" xmlns:xlink="http://www.w3.org/1999/xlink" x="0px" y="0px"
	 width="200px" height="175px" viewBox="0 0 200 175" enable-background="new 0 0 200 175" xml:space="preserve">
<path fill="#9a9997" d="M56.984,43.545l10.181-0.393c1.212-0.037,2.126,1.063,1.884,2.238L58.42,95.473
	c-2.648,7.403,5.556,7.143,5.556,7.143c3.822-0.484,6.563-6.098,7.067-7.217c0.056-0.129,0.093-0.26,0.13-0.392l6.004-29.814
	c0.167-0.857,0.933-1.492,1.808-1.492h10.069c1.23,0,2.106,1.176,1.79,2.35c-10.182,36.547-3.842,36.042-3.842,36.042
	c11.915,3.878,15.458-35.091,15.607-36.732c0-0.037,0-0.074,0.019-0.111c2.834-20.194,10.665-25.135,12.381-25.993
	c0.205-0.093,0.41-0.148,0.634-0.186c26.459-2.648,31.849,5.015,32.836,7.159c0.148,0.317,0.187,0.672,0.131,1.025l-1.978,12.735
	c-0.168,1.118,0.69,2.146,1.827,2.146h0.746c1.025,0,1.846,0.82,1.846,1.846v1.063c0,1.025-0.82,1.847-1.846,1.847h-2.48
	c-0.875,0-1.621,0.615-1.808,1.473l-0.466,2.162c-0.02,0.057-0.02,0.094-0.038,0.149c-11.337,37.236-2.629,31.419-2.629,31.419
	c3.729,0.651,8.54-6.115,10.087-8.466c0.41-0.616,1.138-0.95,1.847-0.802c0.634,0.13,1.101,0.466,1.437,0.82
	c0.467,0.504,0.597,1.248,0.354,1.883c-3.691,9.695-12.791,15.531-15.064,16.855c-0.336,0.205-0.728,0.279-1.118,0.242
	c-18.386-1.564-15.029-15.047-15.029-15.047l5.407-29.032c0.206-1.137-0.671-2.2-1.826-2.2h-9.211c-0.896,0-1.643,0.635-1.828,1.492
	l-10.775,55.209c-0.02,0.131-0.057,0.262-0.112,0.373c-5.202,12.866-16.911,13.09-18.534,13.053c-0.13,0-0.243-0.02-0.373-0.037
	c-3.822-0.783-6.246-3.059-7.794-5.537c-3.114-4.998-1.492-11.653,3.394-14.973c4.027-2.742,8.651-3.974,10.442-4.383
	c0.652-0.15,1.211-0.598,1.379-1.251c0-0.019,0.019-0.056,0.019-0.073c0.336-1.511-1.417-2.686-2.741-1.884
	c-4.569,2.761-9.715,3.021-10.498,3.058h-0.206c-5.78-0.315-8.334-3.299-9.435-5.48c-0.541-1.063-1.92-1.324-2.816-0.561
	l-5.593,4.662c-0.206,0.168-0.467,0.299-0.709,0.373c-16.427,4.549-17.975-7.646-18.105-9.641c-0.019-0.168,0-0.335,0.037-0.484
	l10.815-55.209C55.399,44.198,56.127,43.583,56.984,43.545L56.984,43.545z M119.299,61.333h12.176l2.908-13.76
	c0,0-3.972-6.358-12.697,0L119.299,61.333L119.299,61.333z M91.517,115.594c0,0-8.204,3.448-8.465,7.401c0,0,0.261,6.077,6.08,2.126
	C89.131,125.121,91.554,119.189,91.517,115.594L91.517,115.594z M87.544,40.823c-4.642,0-8.408,3.767-8.408,8.41
	c0,4.642,3.766,8.408,8.409,8.408c4.644,0,8.41-3.767,8.41-8.409C95.955,44.588,92.188,40.823,87.544,40.823L87.544,40.823z"/>
</svg>
