<svg xmlns="http://www.w3.org/2000/svg" viewBox="-173 24 612 513">
  <style type="text/css">
    .path{fill:#666;}
  </style>
<path class="path" d="M275.1,300.4c-12.7-2.5-24.5-4.7-36.2-7.1c-30.6-6.4-60.9-14.3-89.7-26.9c-29.7-13.1-55.1-32.2-78.8-54.1
	c-2.3-2.1-5.9-4.1-6.7-6.7c-0.9-2.8,2.2-5.7,3.7-8.6c12.9-27.3,16.1-56.2,14-85.9c-2-27.4-8.8-53.9-16.7-80.1
	c-0.3-1.1-0.8-2.2-1.2-3.4c0.3-0.2,0.6-0.5,1-0.7C134.2,117.8,204.3,208.7,275.1,300.4z M268.4,308.4c-137.4,0-274.9,0-412.4,0
	c0.1-1.7,1.6-2.2,2.7-3c56.2-46.2,120.3-75.3,191.6-88.6c6.6-1.2,10.9-0.2,15.8,4.6c39.4,38.2,86.6,61.8,139.9,73.6
	c20.2,4.5,40.6,8.5,60.8,12.6c0.5,0.1,1,0.2,1.5,0.3C268.5,308.2,268.5,308.3,268.4,308.4z M-117.5,281.5
	c7.9-11.3,15.6-22.6,23.5-34c9-12.7,18-25.5,26.9-38.2C-49,183.7-31,158.1-13,132.4c14.1-20.1,28.2-40.3,42.2-60.5
	c8.6-12.2,17-24.5,25.6-36.6c0.8-1.1,1.8-2,3-3.5c3.6,9.3,6.2,18.4,8.5,27.6c3.7,15,5.8,30.2,6.9,45.6c1.7,23.5-0.4,46.2-7.6,68.5
	c-1.9,6-5.2,11.5-7.8,17.3c-1.6,3.7-4.9,3.6-7.8,3.9C18.2,199-11,211.2-39,226c-22.5,11.9-43.4,26.4-63,42.8
	c-5.1,4.3-9.8,8.9-14.7,13.4C-117.4,282.5-117.7,282.2-117.5,281.5z M218.2,411.9c3.9-0.4,7.6-0.8,11.5-1.2c0.4,0.1,0.7,0.4,1,0.7
	c2.8,3.3,3,3.2,5-0.6c0.3-0.5,0.5-1,1-1.3c3.9-2,8.2-1.1,12.1-1.8c2.5,1.4,5.1,2,7.9,0.2c4.8-0.3,9.6-0.7,14.4-1
	c1.9,1.9,0.9,4.5,1.2,6.7c0.2,1.2-0.1,2.9,1.5,3.1c1.6,0.1,2.2-1.4,2.5-2.8c0.6-2,0.1-4.2,0.6-6.2c0.2-0.7,0.4-1.3,1.2-1.5
	c11.3-0.7,22.7-1.4,34.1-2c0.8-0.5,1.6-0.3,2.4,0.1c4.8,2.2,9.5,2.2,14-0.8c0.3-0.2,0.8-0.2,1.2-0.1c7.6-0.2,15.2-0.5,22.8-0.7
	c1.4,0,2.8-0.3,3.8,1.1c4.2,5.9,8.5,11.8,13.2,18.3c-12.5,0.6-24.5,1.1-36.4,1.6c-41.4,1.8-82.7,4.8-124,9.3
	c-87.9,9.5-174.2,27-259.3,51c-39.3,11-77.1,26.4-113.5,45.2c-0.6,0.3-1.2,0.7-1.8,1c-0.8,0.3-1.7,1.2-2.5-0.1
	c-0.6-1,0.2-1.5,0.7-2.1c2.7-3.1,5.8-5.9,8-9.3c2.3-3.8,5.7-5.8,9.5-7.9c43.8-24.4,90.6-40.7,138.8-53.2c15.4-4,30.8-8,46.2-11.8
	c6.8,6.4,15.2,6,23.4,4.4c10.8-2,20.2-7,27.6-15.3c1-1.1,1.9-2.4,3.7-2.7c4.7,0.6,9-1.5,13.6-2.1c0.8-0.4,1.6-0.2,2.4,0.1
	c5,1.9,9.4,0.4,13.5-2.5c1-0.7,1.9-1.6,3.2-2.1c1.4-0.4,2.8-0.9,4.3-0.7c2.5,1.8,5.1,3.6,7.2-0.6c3.5-0.7,6.9-1.4,10.4-2.2
	c2.2-0.4,4.4-1.2,6.5-1.9c8.5-1.2,16.8-3.6,25.5-3.2c3.6-0.4,7.1-0.8,10.7-1.2c0.1,0,0.3-0.1,0.4-0.1c7.8,3.8,14.4,1,20.7-3.5
	c0.8-0.3,1.6-0.4,2.4-0.2c0.5,0.1,1,0.4,1.4,0.8C215.8,416.1,215.8,416.1,218.2,411.9z M392.5,450.8c-5.2,0.2-9.6,0.5-14.1,0.6
	c-37.9,0.8-75.9,1.8-113.8,3.7c-38.9,1.8-77.6,5.7-116.2,11.5c-33,5-66,10.2-98.7,16.9C0.4,493.6-47,509.9-93,530
	c-0.8,0.3-1.5,0.7-2.3,1c-0.9,0.3-1.9,1-2.5-0.3c-0.5-1,0.5-1.5,1.1-2c8.6-6.7,16.4-14.3,26.7-19c55.2-25.4,112.7-42.5,172.6-52.3
	c38.1-6.3,76.3-12.3,114.6-16.5c36.5-4,73-6.5,109.7-7.9c15.6-0.5,31.3-0.7,46.9-1.1c2.8-0.1,4.4,0.7,6,2.9
	C383.8,440.1,388,445.1,392.5,450.8z M90,432.2c-9.8,12.6-23.1,18.9-38.8,20c-4,0.3-8.1-0.4-11.9-2c-2-0.9-3.7-2-4.1-4.4
	c0.6-2.3,2-4.3,3.6-6.2c8-10.4,15.8-20.9,22.2-32.4c1.5-2.7,3.2-5.3,3.9-8.7c-8.2-2-16-0.1-23.7,2c-4.5,1.2-8.7,3.3-13,5
	c-1.9,0.7-3.9,1.6-5.2-0.8c-1.3-2.5,0.4-4,2.3-5.1c12-6.5,24.8-10.1,38.6-8.9c8.2,0.7,10.4,4.4,7.2,12
	c-4.9,11.6-12.4,21.7-19.8,31.8c-2,2.9-4.2,5.7-6.2,8.5c4.7,2.3,9.5,0.8,14.2,0c6-1,11.1-4.5,16.6-6.7c4.7-2.5,7.6-6.8,10.3-11.3
	c1.3-2.1,2.7-4.9,5.8-3c3,1.8,1.3,4.5,0.2,6.6C91.8,430.1,90.9,431.1,90,432.2z M-88.6,365.2c-6.9-0.1-12.6-2.1-16.6-7.6
	c-0.8-1.1-2.7-2.8-0.1-3.6c2-0.7,3.7-4.9,6.4-1.4c3.3,4.2,7.5,5.8,12.6,4.9c2.1-0.3,4.1-1.3,4.5-3.9c0.3-2.5-1.2-4.1-3.3-4.8
	c-3.9-1.4-7.8-2.4-11.6-3.9c-6.4-2.3-8.8-5.7-8.5-11.5c0.3-5.6,3.8-9.6,10-10.9c7.4-1.5,14.3-0.2,19.7,5.7c1.1,1.2,2.3,2.7,0,3.6
	c-1.9,0.7-2.9,5.2-6,1.9c-3-3.1-6.4-4.5-10.6-4c-2.1,0.3-3.9,1.3-4.2,3.6c-0.3,2,0.9,3.6,2.8,4.3c4.7,1.7,9.6,3.2,14.3,5.1
	c4.1,1.7,6.4,5,6.4,9.6c0,4.8-2,8.4-6.3,10.7C-82,364.6-85.5,365-88.6,365.2z M-26.2,338.4c2.3-1.8,4-3.2,6-3.9
	c7.4-2.7,12.9,0.9,13,8.6c0.1,6-0.1,12.1,0.1,18.2c0,2.2-0.3,3.3-3,3.2c-7.8-0.3-6.1,0.7-6.2-6.2c-0.1-4.1,0-8.2,0-12.2
	c0-2.4-0.4-4.8-3.6-4.5c-3,0.3-6.1,0.7-6.2,4.8c-0.1,4.9-0.1,9.9,0,14.8c0.1,2.4-0.4,3.5-3.2,3.5c-6-0.1-6,0.1-6-6
	c0-10.8,0.2-21.7-0.1-32.5c-0.1-3.9,2-3.3,4.2-3.1c2,0.2,5.4-1.6,5.1,3.1C-26.4,329.8-26.2,333.7-26.2,338.4z M134.1,424.3
	c0,1.9-0.4,3.9-2.5,4.3c-2.4,0.5-3.2-1.8-4.5-3.2c-1.8-2.3-3-0.1-4.2,0.7c-7.1,6.6-11.8,7.5-19.3,3.9c-7.3-7.5-7.9-17.4-9.3-27
	c-0.5-3.2-0.6-6.4-0.6-9.7c0-2.3,0.8-4.8,3.7-4.9c3.1-0.1,3.5,2.4,3.6,4.8c0.3,7.3,0.7,14.7,2.5,21.8c0.4,1.6,0.9,3.3,1.6,4.8
	c1.3,3.1,3.3,5.8,7.1,5.6c3.9-0.1,6.7-2,8.4-5.5c1.4-2.9,1.8-5.9,1.2-9.1c-0.8-4.9-1.7-9.7-2.5-14.6c-0.2-1.1-0.4-2.2-0.4-3.4
	c-0.1-2.5-0.3-5.7,3-6.1c3.6-0.4,3.5,3.1,3.8,5.4C127,403.4,129,414.2,134.1,424.3z M218.2,411.9c0.5,2.1,0,4.2-2.3,4.7
	c-3,0.6-3.3-2.4-4.8-3.9c-1.1-1.2-2-1.6-2.9,0.3c-3,1.7-5.3,4.4-8.9,5.2c-4.5,1.1-8.6,0.4-12.1-2.4c-4.2-5.2-5.5-11.3-6.2-17.6
	c-0.7-6.3-1.3-12.6-0.7-19c0.2-2.5,1-5,4.1-4.9s3.1,2.8,3.1,5.1c0,8.1-0.4,16.1,1.5,24c1.6,6.6,4.3,9.2,8.9,8.7
	c5.1-0.5,8.6-4.6,9.1-10.6c0.5-6.1-1-12-1.4-18.1c-0.1-2.1-0.4-4.2,0.2-6.3c0.5-1.8,1.6-3.1,3.6-2.9c1.8,0.2,2.4,1.7,2.5,3.4
	c0.5,5.5,0.9,10.9,1.6,16.4C214.4,400.2,215.9,406.1,218.2,411.9z M256.7,408c-1.9,2.9-4.1,4.2-6.6,0.6c-1.4-2-0.4-4.1-0.1-6.1
	c0.8-5.1,0.9-10.1,0.2-15.1c-0.7-5.3-3.6-8.2-7.5-8.1s-7.8,4.1-8.3,8.9c-0.5,4.7,0.9,9.2,1.8,13.8c0.5,2.7,2.2,5.3,0.5,8.2
	c-0.1,0.4-0.1,0.8-0.2,1.2c-0.1,1.9-0.8,3.6-3,3.9c-3.3,0.4-3-2.5-3.9-4.4c-0.5-8.3-2.8-16.3-3.8-24.6c-0.5-3.8-1-7.5-0.6-11.3
	c0.2-2.2,0.5-4.8,3.7-4.6c3.2,0.2,2.5,2.8,2.5,4.8c0,1,0,1.9,0,3.1c1.5,0,1.9-1.4,2.8-2.2c7.4-7.2,18.7-5,22.3,4.8
	c3.2,8.2,2.5,16.5,0.7,25C257,406.3,256.9,407.1,256.7,408z M278.3,406.2c-0.2,3-0.3,5.9-0.7,8.8c-0.3,1.9-1.4,3.9-3.9,3.6
	c-2.8-0.3-2.5-2.4-2.5-4.5c0-2.3,0-4.8,0-7.1c0.1-2.2,0.2-4.5,0.3-6.7c0.2-3.6,0.8-7.4-5-6.9c-1.7,0.2-2.2-1.4-2.1-3.1
	c0-1.7,1.2-2.9,2.7-2.7c4.7,0.6,4.4-2.1,4.2-5.3c-0.2-4.2-0.5-8.5,1-12.5c3.6-9.5,18.1-13.5,26-7.1c1.4,1.1,2.3,2.5,1.5,4.4
	c-1,2.1-2.8,1.9-4.7,1.1c-2.5-1.1-5.3-2-8.2-1.9c-5.2,0.2-8.4,3.1-9,8.3c0,0.4-0.1,0.8-0.1,1.2c0,3.7-1.1,8.1,0.5,10.7
	c1.6,2.5,6.4,1,9.9,1.6c1.2,0.2,2.4,0.4,3.7,0.8c1.7,0.5,2.5,1.7,2.1,3.6c-0.4,1.8-1.7,2.3-3.5,2.1c-3.1-0.3-6.2-0.4-9.3-0.9
	c-2.8-0.5-3.4,0.6-3.2,3.2C278.4,400,278.3,403.1,278.3,406.2z M18,360.7c-3.8,3.1-7.5,5-12.3,4c-3.9-0.8-6-3.2-6.2-6.9
	c-0.2-7,0-14.1-0.1-21.1c0-2,0.9-2.3,2.5-2.2c1.2,0.1,2.5,0.1,3.8,0c2.2-0.2,3,0.7,2.9,2.9c-0.1,5.1,0,10.1,0,15.2
	c0,2.7,0.1,5.3,3.9,5.2c3.4-0.1,5.9-2.4,6-5.6c0.1-4.8,0.3-9.6-0.1-14.4c-0.3-4.1,2.3-3.4,4.6-3.3c2.1,0.1,4.8-1.1,4.7,3.1
	c-0.3,8.1-0.2,16,0,24.1c0,2.2-0.6,3.2-2.9,2.8C22.1,363.9,18.1,366.3,18,360.7z M330,403.3c-4.2,4.7-10.1,5-17.6,0.9
	c-5.3-6.1-5.9-13.5-5.2-21c0.3-2.7,0.4-4-3-3c-2.4,0.7-6.3,2.3-7-1.6c-0.7-3.6,3.5-3.8,5.9-4.7c2.7-0.9,6.1,0,7.2-4.2
	c0.6-2.7,2.1-6,5.6-5c3.9,1.1,1.2,4.5,1.1,7c2.5,0.4,5.2,0.7,7.8,1.1c1.7,0.3,3.3,1,4.4,2.3c0.9,1.2,1,2.7,0.2,4
	c-0.8,1.2-1.9,1.2-3.4,0.8c-2.8-0.9-5.6-2-8.6-1.9c-1.5,0-2.8,0.3-3,2.1c-0.5,4.5-0.9,9,0.2,13.5c1.4,5.7,4.7,7.4,10.3,5.7
	C329,398.2,329.8,398.8,330,403.3z M-68.5,350.2c0-11.8,7.9-18.3,18.7-16.2c2.5,0.5,4.8,1.6,6.5,3.7c1.2,1.5,3.4,3.8,2.4,5
	c-1.1,1.5-4,1.8-6.1,2.4c-1.6,0.4-1.5-1.2-2.1-2c-2.8-3.8-7.4-3.4-9.4,1c-1.4,3.3-1.2,6.6-0.4,10c0.5,2.2,1.8,4.2,4.5,4.5
	c2.5,0.3,4.3-0.8,5.6-3c1.1-1.8,6.9-1.6,8.1,0.3c0.6,1.1-0.4,1.8-0.8,2.7c-3.1,5.2-8.9,7.4-15.8,6.1c-6.1-1.2-10.2-5.5-11-11.7
	C-68.5,351.6-68.5,350.5-68.5,350.2z M35,343.4c0-5.8,0.1-11.5-0.1-17.3c-0.1-2.4,0.4-3.5,3.2-3.4c6,0.1,6-0.1,6,6
	c0,10.7-0.2,21.4,0.1,32.1c0.1,4.7-2.9,3.3-5.2,3.6c-2.8,0.3-4.4-0.1-4.2-3.7C35.3,355,35,349.2,35,343.4z M146.8,392.3
	c6-4.6,12-9.1,18.2-13.6c1.5-1.1,3.5-1.6,4.9,0.2c1.5,1.8,0.5,3.7-1,4.8c-4.3,3.4-8.8,6.4-13.4,9.8c5.8,4.7,11.6,9.1,16.3,14.7
	c1.8,2.1,3.6,4.4,2.9,7.5c-1.7,2.8-4.6,2.3-5.9,0.7c-6.5-7.6-14.2-14.1-21.9-20.4C146,394.9,145.7,393.6,146.8,392.3z M181.2,338.5
	c1.7-1.3,2.5-2.2,3.7-3c1.9-1.2,4.5-2.7,6.2-1.3c1.5,1.1,0.3,4,0.4,6.1c0.1,1.5-1.1,1.2-2,1.3c-8.2,1.2-8.7,3.5-8.3,9.4
	c0.2,3.5-0.1,7,0.1,10.5c0.1,2.2-0.7,2.9-2.9,2.9c-6.2,0.1-6.2,0.2-6.2-6.1c0-6.2,0.3-12.4-0.1-18.6c-0.3-4.4,0.9-5.9,5.4-5.5
	C180,334.5,181.7,334.7,181.2,338.5z M149.6,421.2c-1.4,1.6-3.2,2.1-5.1,0.9c-1.9-12.5-5.7-24.9-6.2-37.7c-0.1-2.4,0.2-4.8,1.1-7
	c0.6-1.6,1.8-3,3.9-2.4c2.1,0.5,2.9,1.9,2.4,4.2c-0.8,4.5-1,8.9,0,13.4c0.7,1.7,0.6,3.8,1.7,5.4c1.5,5.6,2.7,11.2,3.5,16.9
	C151.4,416.9,152.3,419.5,149.6,421.2z M76.1,436.4c-8.6,6.8-18.4,9.7-29.3,8.6c-1.4-0.1-1.4-0.2-1.6-1.8c9.1-2,18.1-4.1,27.1-6.1
	C73.5,436.6,74.9,436.5,76.1,436.4z M48.5,500.1c0,1.4-0.9,2.1-2.1,2c-1.1,0-2.1-0.7-2.1-2c0-1.5,1-2.3,2.4-2.2
	C47.9,497.8,48.6,498.7,48.5,500.1z M417.8,499.5c-0.1,1.8-1,2.5-2.1,2.5c-1.2,0-2.1-0.6-2.1-2c0-1.5,0.9-2.3,2.3-2.2
	C417,497.8,417.7,498.7,417.8,499.5z M356.6,499.8c-0.1,1.2-0.7,2.1-2,2.2c-1.2,0.1-2.1-0.5-2.3-1.8c-0.1-1.5,0.7-2.4,2.1-2.5
	C355.6,497.7,356.4,498.5,356.6,499.8z M174.9,500.7c-1.5-0.1-2.1-0.7-2-1.9c0.1-1,0.7-1.4,1.7-1.5c1.1-0.1,1.9,0.4,1.9,1.6
	C176.5,500.2,175.6,500.5,174.9,500.7z M170.6,499.4c-0.1,1.2-1,1.5-2,1.5c-1.1,0-1.8-0.5-1.6-1.7c0.2-1.1,0.9-1.7,2-1.6
	C170.1,497.5,170.6,498.3,170.6,499.4z M-117.5,281.5c0.3,0.3,0.6,0.6,0.8,0.8c-0.9,1.5-2.1,2.8-4.7,4.4
	C-119.8,284.2-119.2,282.4-117.5,281.5z M132.5,362.7c-0.1-11.2-0.2-22.5-0.3-33.8c0-6.3,0-6.1-6.3-6.1c-2.4,0-3.1,0.8-3,3.2
	c0.2,3.7,0,7.3,0,11.4c-10.2-7-19.4-2.7-20.4,9.1c-0.2,1.9-0.2,4,0,5.9c0.3,5,1.8,9.6,6.9,11.6c4.9,1.9,9.4,0.9,13.1-3.2
	c1,3.1,6.6,5,9.5,3.6C133.1,363.9,132.5,363.3,132.5,362.7z M117.4,357.8c-3.9,0.1-6.1-3.1-6-8.5c0.1-5.3,2.1-8.1,6-8
	c4.3,0.1,5.6,2,5.6,8.2S121.6,357.8,117.4,357.8z M66.3,333.9c-11.9-0.6-19.3,9.5-15.6,21.4c2.9,9.1,14.1,12.5,24.1,7.6
	c3.3-1.6,3.7-3.1,1.4-5.9c-1.3-1.7-2-1.4-3.7-0.5c-5.7,3.4-11.2,2.5-12.9-1.6c-0.7-1.7-1-3.4,1.9-3.1c2.3,0.2,4.8,0,7.1,0
	c2.7,0,5.3,0,8.1,0c1,0,1.7,0,2-1.4C80.5,342.7,74.1,334.2,66.3,333.9z M70.4,345.7c-0.5,1.4-1.9,0.6-3,0.7c-1.2,0.1-2.5,0.2-3.8,0
	c-1.4-0.3-3.9,1.3-4.1-1.2c-0.2-2.1,1.4-3.9,3.6-4.6c0.6-0.2,1.3-0.3,1.7-0.4c2.1,0.2,3.7,0.7,4.6,2.3
	C70,343.6,70.8,344.6,70.4,345.7z M150.3,351.9c1.9-0.1,4,0,5.9,0c2.7,0,5.4,0,8.1,0c1.1,0,2.2,0.1,2.2-1.6
	c-0.1-5.5-0.8-10.9-5.9-14.2c-5.2-3.4-10.8-3.1-16,0.1c-5.9,3.5-7.4,9.3-6.8,15.7c0.6,6.1,3.6,10.7,9.7,12.4
	c5.2,1.5,10.4,1,15.2-1.5c1.4-0.8,4.3-1.2,2.2-4.1c-1.3-1.9-1.9-4.1-5.2-1.8c-4.4,3.1-9.4,2.3-11.4-0.7c-0.7-1-1.4-2.4-1.2-3.5
	C147.4,351,149.2,352,150.3,351.9z M153,340.3c3,0.2,5.2,1.8,5,4.6c-0.3,3.6-3.7,0.5-5.2,1.8c-1.8-0.9-4.5,1.2-5.4-1.4
	C146.6,343.2,150.2,340.1,153,340.3z M431.9,510.9c1,0.1,1.9,0,2.8-0.8c0-0.6,0-1.1,0-1.7c-1.3-2.5-6.4-0.7-6.2-5.3
	c0-0.7-1.7-0.3-1.9,0.4c-1,2.5-3.1,3.4-5.5,3.7c-0.8,0.1-1.6,0.6-1.5,1.6c0.1,0.8,0.7,1.3,1.4,1.1c3.9-1,2.8,1.7,2.8,3.6
	c0.1,6.8,2.4,9,9.4,8.4c2.4-2.7,1.4-3.9-1.7-4.3c-3.2-0.4-3.2-2.7-3.1-5C428.4,510,430.3,510.8,431.9,510.9z M36.9,510.9
	c-1.6-1-0.5-1.7-0.1-2.8c2-5.1-0.2-9.5-5.5-10.5c-3.5-0.7-7-0.6-10.3,0.9c-1.2,0.6-3.6,1-2.8,3c0.9,2.2,2.7,0,4,0
	c2.3,0.1,1.1,1.7,1.1,2.9c-0.3,6.4-0.7,13-1,19.4c-0.1,1.3,0.1,3.8,1.7,3.1c2.7-1.2,5.2-0.1,7.8-0.6c3.8-0.7,7-2.3,8.4-6.2
	C41.3,516.3,40.4,513,36.9,510.9z M34.3,522c-2.7,1.5-5.7,1.7-8.1,0.2c-1.8-1.2-0.1-4-0.6-5.4c0.3-5.4,0.6-10.1,0.8-14.9
	c0-0.7-0.4-1.5,0.7-1.5c2.8,0.1,5.7,0.2,6.6,3.4c0.8,2.8,0.1,5-3.3,5.7c-1.2,0.2-3,0.1-2.9,1.8c0.2,2.1,2.1,1.2,3.4,1.3
	c2.7,0.2,5.1,0.6,5.8,3.8C37.5,518.8,36.4,520.8,34.3,522z M229.6,498.4c-1.9-0.3-1.8,1.7-2.2,3c-0.2,0.6-0.2,1.4-0.3,2
	c-0.6,5.4-1.1,10.9-1.7,16.9c-4.9-6.3-8.2-12.5-11.1-19.2c-0.5-1.1-0.6-2.8-2.2-2.8c-1.7,0-2.1,1.6-2.4,3
	c-1.6,7.1-2.8,14.4-2.7,21.7c0,1.4-0.1,3.3,1.7,3.3c2,0,1.5-1.9,1.5-3.3c0.1-5.9,0.3-11.8,1.9-18.3c1.5,2.9,2.4,4.8,3.6,6.7
	c2.7,4.7,5.3,9.3,8.9,13.3c0.8,1,1.9,1.7,3.4,1.3c1.2-0.3,1.1-1.5,1.1-2.4c-0.5-7.4,0.4-14.9,1.5-22.2
	C230.8,500.5,231.3,498.7,229.6,498.4z M373.5,501.5c-2.5,0.1-5.1,0.1-7.5,0.6c-5,0.9-7.4,5.7-5,10.3c0.8,1.5,0.8,2.4-0.1,3.7
	c-0.7,0.9-1.8,2-1,3.4c0.9,1.2,2.3,0.6,3.6,0.5c2.1-0.2,4.3-0.7,6,1c0.5,0.5,0.3,1.4-0.3,1.8c-1.9,1.5-4.2,1.3-6.4,1
	c-0.4,0-0.8-0.2-1.1-0.4c-1-0.6-2-2.2-3-0.2c-0.7,1.6,0.5,2.7,1.9,3.2c3.7,1.4,7.2,0.9,10.5-1.1c1.7-1,2.2-2.8,1.9-4.8
	c-0.3-2.2-1.9-3.2-3.8-3.4c-1.7-0.2-3.7,0-5.8,0c1.3-2.7,3.1-1.7,4.5-1.9c4.3-0.6,6.5-3.4,6-7.5c-0.2-1.4-1.7-3,1.1-4.2
	C376.3,502.8,374.7,501.5,373.5,501.5z M366.9,512.2c-2.2-0.1-3.8-1-3.6-3.6c0.2-2.4,1.5-3.9,4.1-3.9c2.3,0,3.7,1.4,3.6,3.7
	C370.9,511,369.3,512.2,366.9,512.2z M134,501.6c-2.5,0.1-5.1,0.1-7.5,0.5c-5,0.9-7.4,5.7-5.1,10.2c0.7,1.4,0.9,2.3-0.1,3.7
	c-0.7,0.9-1.7,2.1-1,3.4c0.8,1.3,2.2,0.6,3.5,0.5c2.1-0.2,4.3-0.7,6,0.9c0.6,0.6,0.3,1.4-0.3,1.8c-2,1.6-4.5,1.3-6.8,0.9
	c-0.3,0-0.5-0.2-0.7-0.3c-0.9-0.7-2-2.2-3-0.2c-0.8,1.6,0.5,2.7,1.9,3.2c3.7,1.4,7.2,0.9,10.5-1c1.9-1.1,2.3-3.1,1.9-5.2
	c-0.4-1.9-1.9-2.8-3.7-3c-1.8-0.2-3.7,0-5.8,0c1.2-2.7,3.1-1.7,4.5-1.9c4.3-0.6,6.6-3.5,6.1-7.5c-0.2-1.4-1.7-3,1-4.1
	C136.7,502.9,135.3,501.5,134,501.6z M127.4,512.2c-2-0.1-3.8-0.7-3.7-3.4c0.1-2.4,1.3-4,3.8-4.2c2.3-0.1,3.8,1.1,3.9,3.5
	C131.5,510.8,130,512,127.4,512.2z M76.1,498.3c-1.2,0-1.7,1-1.6,2c0.2,3.6-1.5,4.1-4.8,3.8c-4.3-0.4-7.2,1.9-8.7,5.9
	c-1.3,3.8-1.9,7.9,1.3,11c3,2.9,6.4,2.1,9.7,0.3c0.9-0.5,1.6-1.1,1.8,0.6c0.1,0.9,0.7,1.6,1.7,1.4c1.2-0.2,1.2-1.4,1.3-2.3
	c0.1-3.5,0-7,0-10.5c0.2,0,0.3,0,0.5,0c0-3.3,0-6.4,0-9.7C77.4,499.8,77.9,498.4,76.1,498.3z M73.8,512.2c-0.1,4.8-2.7,8.2-6.1,8
	c-3.4-0.2-4.5-2.5-4.5-5.5c-0.1-4.7,3-8.1,6.9-7.9C73.4,506.9,73.9,507.7,73.8,512.2z M398,504.8c-2.7,2.4-3.6,5.6-3.9,9.1
	c0,4.3,1.5,7.1,4.6,8.3c3.3,1.2,6.1,0.4,8.6-1.8c0.9-0.8,1.5-1.7,0.5-2.9c-1-1-1.8-0.3-2.5,0.4c-1.2,1.3-2.7,2-4.5,1.6
	c-2.2-0.4-3.1-2-3.2-3.9c-0.1-2.5,2-1.1,3.1-1.3c1.7-0.4,3.7-0.5,5.4-0.8c4.3-0.8,5.5-3.5,3.2-7.3C407,502.2,401.6,501.6,398,504.8z
	 M406.8,509.1c-0.6,3.1-3.8,1-5.3,2.1c-1.3-0.5-3.5,0.6-3.2-1.2c0.4-2.4,2.2-4.2,5-4.2C405.6,505.7,407.3,507.2,406.8,509.1z
	 M295,504.8c0.3-1.6,0.5-2.8,0.6-3.9c0.1-0.9,0.1-1.7-1-2c-1.3-0.4-1.8,0.6-1.9,1.6c-1.4,7.3-1.6,14.8-0.7,22.3
	c0.1,1,0.4,2.5,1.9,2.2s1.1-1.7,1-2.9c-0.1-3.8-0.4-7.6-0.4-11.4c0.1-3,2.1-4.2,4.8-4.3c2.8-0.1,3.7,1.8,4,4.1
	c0.5,3.6,0.4,7-0.7,10.5c-0.3,1-0.8,2.3,0.8,2.9c1.4,0.4,1.9-0.8,2.3-1.8c1.2-3.3,1.1-6.6,0.9-10C306.3,504.6,302.4,502.2,295,504.8
	z M275.5,504.4c0-0.9,0-1.4,0-2c-0.1-1.2,1.1-3.2-1-3.5c-2-0.3-1.7,1.9-1.9,3.2c-1.1,6.7-1.6,13.5-0.5,20.2c0.2,1.2,0.1,3,1.8,2.8
	c1.7-0.1,1.3-1.7,1.2-3.1c-0.2-3.8-0.4-7.6-0.3-11.4c0-2.8,2-3.9,4.6-4.1c2.4-0.2,3.5,1.2,4.1,3.4c1,3.7,0.4,7.2-0.5,10.8
	c-0.3,1.2-1.1,2.7,0.7,3.1c1.6,0.4,2.1-1.1,2.4-2.2c0.9-3.2,1-6.4,0.7-9.6C286.1,504.5,282.9,502.4,275.5,504.4z M313.7,504.4
	c-0.8,0.5-1.8,1-1.5,2.2c0.4,1.2,1.4,1.1,2.4,0.7c4.1-1.8,5.7,0.3,6.7,4.8c-1.1-0.4-1.5-0.6-2-0.8c-3-0.9-5.7-0.5-7.6,1.9
	c-1.8,2.2-1.9,4.9-0.7,7.5c1.3,2.9,3.9,3.4,6.7,3.1c0.8-0.1,1.6-0.4,2.3,0.4c1.8,1.8,2.4,0.2,2.9-1.2c1.4-4.8,2.1-9.7,0.7-14.6
	C322.4,504.4,317.3,502.4,313.7,504.4z M317.3,521.3c-2.5,0-3.9-1.3-3.8-3.9c0-2.7,1.6-3.8,4-3.8c2.3,0,3.6,1.4,3.6,3.7
	C321.1,519.8,319.8,521.3,317.3,521.3z M178.3,509.5c0-0.2,0-1.4,0-2.8c0-1,0.5-2.5-1.1-2.8c-1.8-0.2-1.8,1.4-1.9,2.7
	c-0.2,2.2-0.2,4.5-0.3,6.7c-0.1,3.3-0.5,6.7-4.6,6.8c-4.6,0-3.9-4.1-3.9-6.9c-0.1-2.5,0.5-5,0.6-7.5c0.1-1.1,0.7-2.9-1.1-3.1
	c-1.6-0.2-2,1.2-2.2,2.5c-0.4,4.2-1.1,8.4-0.2,12.6c1.2,5.6,5.1,7.3,10,4.4c1.1-0.7,2.1-2.3,3,0.3c0.2,0.8,0.9,1.5,1.9,1
	c0.9-0.4,0.8-1.3,0.7-2.2C178.7,517.6,177.9,514.1,178.3,509.5z M237,504.5c-0.8,0.6-1.7,1.2-1.1,2.3c0.5,0.9,1.4,0.8,2.2,0.4
	c4.2-1.8,5.8,0.3,6.8,4.6c-1-0.3-1.6-0.5-2.2-0.7c-2.8-0.7-5.4-0.4-7.3,1.9c-1.8,2.2-2,4.9-0.9,7.5c1.2,3,3.8,3.5,6.6,3.3
	c0.8-0.1,1.6-0.5,2.3,0.3c1.6,1.8,2.5,0.4,3-1c1.4-4.8,2-9.7,0.7-14.6C246.1,504.3,240.6,502.3,237,504.5z M241,521.3
	c-2.5,0-3.9-1.2-3.9-3.8c0-2.7,1.4-3.9,3.9-3.9c2.3,0,3.7,1.4,3.7,3.7C244.8,519.6,243.7,521.3,241,521.3z M97.3,506.5
	c0.1-1.1,0.2-2.5-1.4-2.5c-1.5,0-1.6,1.3-1.7,2.4c-0.1,2.3,0,4.8-0.2,7.1c-0.3,3.2-0.8,6.7-5,6.5c-4-0.1-3.6-3.8-3.7-6.4
	c-0.1-2.8,0.4-5.6,0.6-8.5c0.1-1,0.6-2.4-1-2.8c-1.7-0.3-2,1.2-2.2,2.4c-0.3,1.9-0.4,4-0.5,5.9h0.1c0,1.7-0.1,3.4,0,5.1
	c0.7,7.2,4.5,9.2,10.9,5.5c0.9-0.5,1.5-1.4,2,0.3c0.3,0.9,0.8,2,2,1.5c1-0.4,1-1.4,0.8-2.5C97.1,516.1,96.7,511.4,97.3,506.5z
	 M264.8,517.6c-2.2,2.3-5.1,3.5-8,1.7c-3.7-2.2-2.8-6.2-2.1-9.6c0.6-3.1,2.5-5,5.9-5c1.5,0,3.1,0.1,4.1,1.6c0.5,0.9,1.1,2.3,2.5,1.2
	c1.3-1,0.5-2.3-0.2-3.4c-1.1-1.5-3-2.1-4.7-2.4c-6.5-1.1-11.1,3.7-11.2,12.7c0.1,2.5,0.8,6.2,4.8,7.8c4,1.5,7.8,0.7,10.8-2.3
	c0.9-0.9,2.5-2.1,1.3-3.5C266.5,514.6,265.7,516.6,264.8,517.6z M160.6,500.9c-5-2.8-10.6-0.2-11.6,5.4c-0.3,1.6-0.2,3.4-0.5,5
	c-0.3,1.6-3.5,0.1-3,2.7c0.3,1.6,3.6,0.5,3.1,3.2c-0.3,1.6-0.2,3.4-0.4,5.1c-0.1,0.7-0.2,1.4-0.3,2.1c-0.1,1.1,0.2,2,1.4,2.1
	c1,0.1,1.5-0.7,1.6-1.6c0.3-2,0.7-4.2,0.6-6.3c-0.1-3,0.9-3.7,3.7-2.9c1.1,0.3,3.3,1.3,3.6-0.7c0.3-2-1.9-2-3.4-2.2
	c-2.1-0.2-4.5-0.1-3.7-3.1c0.1-6.2,1.7-7.4,7.6-5.9c0.9,0.2,1.9,0.9,2.5-0.3C162.7,502.2,161.6,501.5,160.6,500.9z M113.8,504.9
	c-3-1.7-5.7-0.6-8.2,1.3c-0.8-1,0.7-3.2-1.6-3.3c-0.9,0-1.3,0.8-1.4,1.7c-0.6,5.9,0.3,11.8,0.9,17.6c0.1,0.8,0.6,1.3,1.4,1.1
	c0.4-0.1,1-0.6,1.1-1c0.1-1.4,0.1-2.8,0.1-4.2c-0.1-2.7-1.2-5.2-0.1-8c0.9-2.2,2.4-3.5,4.8-3.3c2.1,0.2,2.9,1.9,3.1,3.9
	c0.3,2.9-0.1,5.6-0.8,8.4c-0.3,1-0.9,2.3,0.7,2.8c1.5,0.4,1.8-1,2.2-2c0.8-2.4,1.2-4.9,1.2-7.4C117.1,509.6,116.8,506.7,113.8,504.9
	z M348.3,507.1c-1.9-0.8-4.8-0.4-4.6-4c0-0.7-1.6-0.4-1.9,0.3c-1.1,2.4-3,3.5-5.5,3.7c-0.8,0.1-1.7,0.6-1.6,1.6s1,1.4,1.8,1.1
	c2.8-0.8,2.5,0.8,2.4,2.7c-0.1,2.1-0.1,4.2,0.9,6.2c1.3,2.9,5,4.3,7.9,3.1c1-0.4,1.7-1,1.4-2.2c-0.2-1.1-1-1.2-1.9-0.9
	c-5,1.2-4.8-2.2-5-5.3c-0.4-4.1,1.1-5.3,4.9-3.6c0.9,0.4,2,0.6,2.4-0.7C349.7,508.2,349.1,507.4,348.3,507.1z M192.5,505.4
	c-1.4-0.4-3-0.1-4,0.8c-1.4,1.3-2,1.2-2.9-0.5c-0.4-0.9-1.1-1.7-2.3-1.1c-1.1,0.6-1,1.4-0.5,2.4c2.2,4,2.4,8.3,1.3,12.6
	c-0.2,1-0.4,2,0.9,2.3c1.2,0.3,1.8-0.6,2.1-1.5c0.9-2.5,0.8-5.2,0.9-7.9c0.1-2.3,0.6-4.7,3.9-4c1.2,0.3,2.5,1.3,2.9-0.7
	C195.1,506.4,193.8,505.8,192.5,505.4z M332.1,512.7c0.1,0,0.2,0,0.3,0c0-3.1,0-6.2,0-9.3c0-1.2,0.4-3-1.3-3.1
	c-1.6-0.2-1.8,1.5-1.9,2.8c-0.3,6.6-0.4,13.2,0.4,19.8c0.1,1.1,0.4,2.4,1.8,2.2c1.4-0.2,1.2-1.6,1.2-2.8
	C332.5,519.2,332.3,516,332.1,512.7z M390.8,506.6c0.2-0.2,0.5-0.3,0.7-0.5c0.7-0.5,1.4-1.1,1-2c-0.5-1.3-1.6-1-2.4-0.6
	c-3,1.5-5.9,3.1-8.9,4.7c0,0.6,0.1,1.2,0.1,1.8c1.9,2.2,3.8,4.5,5.8,6.6c1.4,1.5,2,5.8,4.5,4.1c2.3-1.7-1-4.3-2.2-6.3
	c-1-1.6-3.6-3.2-3.5-4.6C386,507.6,389.1,507.7,390.8,506.6z M56.7,502.9c0.1-1.1-0.1-2.4-1.5-2.5c-1.5-0.1-1.6,1.2-1.7,2.3
	c0,3.3,0,6.4,0,9.7h0.1c0,3.3,0,6.4,0,9.7c0,1.3,0.2,2.9,1.7,3c1.8,0.1,1.5-1.6,1.5-2.9C56.5,515.9,56,509.3,56.7,502.9z
	 M381.2,508.1c-1-1.9,0.1-3.8,0.4-5.6c0.2-1.1,0.3-2-0.8-2.3c-1.2-0.4-1.8,0.5-2.1,1.4c-0.4,1.3-0.8,2.8-0.8,4.1
	c-0.1,4.2,0,8.5,0.1,12.6c0,1.3-0.9,3.6,1.4,3.6c1.9-0.1,1.5-2.3,1.7-3.8c0.4-2.7-1.3-5.5,0.2-8.2
	C380.8,509.3,380.7,508.7,381.2,508.1z M354.5,504.2c-2-0.2-1.9,1.6-2,3c-0.2,4.4,0.4,8.7-0.7,13c-0.3,1-0.3,2.1,0.9,2.4
	c1.5,0.4,2-0.7,2.1-1.9c0.4-3.2,0.7-6.4,0.9-8.5c0-2.4,0-3.7,0-4.9C355.8,506.1,356.3,504.3,354.5,504.2z M416.9,507.7
	c-0.1-1.2,0.7-3.3-1.3-3.5c-2.2-0.1-1.9,2-1.9,3.5c-0.1,4.1,0.3,8.2-0.6,12.1c-0.2,1.1-0.6,2.4,0.9,2.8c1.7,0.4,2-1.1,2.1-2.3
	c0.3-3,0.6-5.8,0.9-8.8c-0.1,0-0.1,0-0.2,0C416.9,510.2,417,508.9,416.9,507.7z M46.5,504.2c-1.8-0.1-1.7,1.6-1.8,2.8
	c-0.2,4.6,0.2,9.3-0.8,13.9c-0.2,0.9,0.2,1.7,1.1,1.9c1.2,0.2,1.6-0.7,1.9-1.7c0.8-3.1,0.7-6.1,0.9-9.2c0-1.5,0.1-3.1,0-4.6
	C47.7,506.1,48.4,504.3,46.5,504.2z M287.9,464.9c-2.7-0.8-4.7,0.4-6.2,2.4c-2.1,2.8-3,6-3.2,10c0,2.4,0.5,5.2,4,6
	c3.3,0.8,5.4-1,6.9-3.7c1.6-2.9,2.4-6,2.2-9.3C291.5,467.8,290.7,465.7,287.9,464.9z M288.1,470.3c-0.1,2.8-0.7,5.3-1.6,7.8
	c-0.5,1.3-1.3,2.8-3,2.3c-1.9-0.4-1.2-2.2-1.3-3.5c0.2-2.8,0.8-5.3,2.1-7.8c0.5-1,1.4-1.8,2.8-1.4
	C288,468.1,288.1,469.3,288.1,470.3z M368.4,465.6c-3.5-1-5.6,1.1-7.2,3.8c-1.6,2.9-2.3,6-2.1,9.3c0.1,2.4,0.9,4.5,3.5,5.2
	c2.5,0.8,4.8-0.1,6.3-2.1c2.1-2.8,3.1-6,3.2-9.4C372.3,469.4,371.8,466.5,368.4,465.6z M368.6,472.7c-0.5,1.7-1,4.1-1.8,6.3
	c-0.4,1.2-1.2,2.4-2.8,2.1c-1.7-0.3-1.5-1.8-1.4-3.1c0-2.4,0.6-4.7,1.5-6.9c0.6-1.4,1.2-3.2,3.2-2.7
	C369.1,468.9,368.5,470.8,368.6,472.7z M397.7,469c0.5-0.1,1.1,0,1.7,0c1.4,0.1,1.5-1,1.6-1.9c0.2-1.3-0.8-1.2-1.6-1.3
	c-1-0.1-1.9-0.1-3.8-0.2c-4.8-1.5-4.4,3.3-5.5,6.2c-0.4,1-1.2,2.2-0.2,3.2c0.9,0.8,2,0.3,3.1-0.3c1.3-0.7,2.9-1.1,3.6,0.7
	c0.8,1.9,0.4,4-1.4,5.3c-1.6,1.2-3,0.7-3.6-1.1c-0.6-1.7-1.9-1.1-2.8-0.8c-1.5,0.6-0.6,1.9-0.2,2.8c1.4,2.7,3.9,3.2,6.5,2.4
	c3.5-0.8,5-3.5,5.4-6.7c0.3-2.5-0.8-4.5-3.4-5.7c-1-0.4-3.1,0.9-3-1.2C394.4,468.2,396.4,469.3,397.7,469z M318.6,465.9
	c-2.7-2.1-5.6-1.8-8.1,0.4c-0.9,0.9-2.3,2.2-0.8,3.6c1,0.9,2.5,0.8,3.3-1.1c0.4-1.2,1.6-1.6,2.9-0.8c1.3,0.9,1.2,2.2,0.3,3.3
	c-1.6,1.9-3.5,3.7-5.2,5.5c-1.6,1.7-4.3,3.6-3.4,5.8c0.6,1.6,3.9,0.8,5.8,0.6c1.7-0.2,5,1.7,5-1.7c0-2.9-3.3-0.5-5.1-2.1
	c1.9-2,4-4,5.7-6.1C321,470.7,321.2,467.9,318.6,465.9z M355.7,465.9c-2.5-1.7-6.6-0.9-8.3,1.6c-0.5,0.7-1.5,1.9-0.5,2.5
	c0.8,0.5,2.3,1.2,3.3-0.4c0.7-1.2,1.6-2.8,3.2-1.4c1.7,1.4,0.7,3.2-0.5,4.4c-1.8,1.9-3.9,3.7-5.7,5.7c-1.2,1.3-3,2.9-2.1,4.7
	c0.6,1.4,2.8,0.5,4.3,0.6s3.1-0.1,4.7,0.1c1.8,0.2,2.2-1.1,2.2-2.3c0.1-1.6-1.4-0.9-2.1-1c-0.9-0.1-1.9,0-3.9,0
	c2.5-2.9,4.8-4.8,6.5-7.1C358.7,470.7,358.6,467.9,355.7,465.9z M275.1,465.3c-2.4-1.9-6.5-1.2-8.3,1.4c-0.5,0.8-1.7,1.9-0.3,2.9
	c1,0.6,2.3,1.2,3.1-0.7c0.6-1.4,1.7-2.4,3.3-1c1.4,1.3,0.6,2.7-0.3,3.7c-1.5,1.8-3.4,3.4-5,5.1c-1.6,1.6-4,3.5-3.3,5.5
	s3.8,0.9,5.7,0.7c1.8-0.1,5.3,1.7,5.3-1.8c0-2.8-3.2-0.6-4.7-1.4c-0.1-0.1-0.2-0.1-1.1-0.9c2.3-2,4.8-3.7,6.5-5.8
	C277.9,470.3,277.9,467.4,275.1,465.3z M384.3,465.7c-1.8-1.4-3.7,2.2-5.9,3.1c-1.5,0.5-3.8,1.4-2.9,3.4c0.8,1.9,2.5-0.6,4.2-0.1
	c0.2,3.1-1.1,6.1-1.5,9.3c-0.1,0.8-1.3,2.3,0.8,2.5c1.3,0.1,2.3,0.1,2.7-1.7c0.5-3.2,1.6-6.3,2-9.5
	C383.9,470.3,386.1,467.1,384.3,465.7z M303.7,464.9c-1.7-1.2-3.5,2.2-5.6,3c-0.1,0-0.2,0.1-0.4,0.2c-1.4,0.8-3.7,1.4-2.9,3.5
	c0.9,2,2.5-0.6,4.5,0c-0.7,3.2-1.4,6.1-1.9,9.2c-0.1,0.8-1.2,2.3,0.8,2.5c1.3,0.2,2.3,0,2.7-1.8c0.6-3.3,1.6-6.5,2.1-9.9
	C303.5,469.3,305.7,466.3,303.7,464.9z M332.7,475.3c-1.5,0-4-1.2-4.1,1.8c-0.1,2.7,2.2,1,3.2,1.5c1.6-0.1,3.7,0.8,3.8-1.9
	C335.8,474.1,333.8,475.3,332.7,475.3z"/>
</svg>
