<?xml version="1.0" encoding="utf-8"?>
<!-- Generator: Adobe Illustrator 16.0.0, SVG Export Plug-In . SVG Version: 6.00 Build 0)  -->
<!DOCTYPE svg PUBLIC "-//W3C//DTD SVG 1.1//EN" "http://www.w3.org/Graphics/SVG/1.1/DTD/svg11.dtd">
<svg version="1.1" id="Ebene_1" xmlns="http://www.w3.org/2000/svg" xmlns:xlink="http://www.w3.org/1999/xlink" x="0px" y="0px"
	 width="200px" height="175px" viewBox="0 0 200 175" enable-background="new 0 0 200 175" xml:space="preserve">
<path fill="#9a9997" d="M83.787,28.95l48.934,63.454c-0.016,0.027-0.029,0.055-0.046,0.082c-0.687-0.12-1.373-0.235-2.057-0.365
	c-5.151-0.971-10.283-2.025-15.343-3.418c-4.791-1.318-9.469-2.936-13.924-5.161c-4.565-2.28-8.704-5.191-12.587-8.479
	c-1.637-1.387-3.23-2.822-4.809-4.275c-0.178-0.166-0.207-0.27-0.087-0.49c2.691-4.945,3.973-10.263,4.201-15.865
	c0.215-5.298-0.504-10.49-1.66-15.639c-0.729-3.246-1.653-6.438-2.637-9.614c-0.02-0.063-0.034-0.126-0.051-0.187l0.066-0.05V28.95z
	 M35.718,94.432h96.171c-0.221-0.061-0.343-0.103-0.468-0.127c-1.905-0.377-3.812-0.748-5.716-1.129
	c-4.734-0.947-9.459-1.934-14.1-3.283c-6.363-1.851-12.36-4.491-17.875-8.193c-3.781-2.541-7.256-5.455-10.529-8.616
	c-0.137-0.132-0.246-0.225-0.478-0.187c-5.543,0.941-10.985,2.281-16.31,4.098c-10.141,3.458-19.429,8.49-27.886,15.064
	c-0.964,0.75-1.908,1.528-2.861,2.295c0.018,0.026,0.034,0.058,0.048,0.084L35.718,94.432z M41.265,89.178
	c0.12,0.004,0.195-0.074,0.27-0.15c1.068-1.097,2.208-2.112,3.355-3.124c1.114-0.986,2.261-1.934,3.435-2.84
	c2.048-1.583,4.166-3.072,6.351-4.465c2.255-1.44,4.575-2.76,6.943-3.996c1.606-0.839,3.256-1.579,4.915-2.307
	c2.069-0.909,4.188-1.688,6.338-2.378c1.68-0.54,3.386-0.993,5.115-1.344c1.193-0.243,2.39-0.473,3.603-0.583
	c0.363-0.033,0.586-0.153,0.771-0.453c0.882-1.436,1.559-2.966,2.092-4.559c0.6-1.803,1.026-3.646,1.307-5.525
	c0.217-1.442,0.412-2.889,0.442-4.342c0.061-2.839,0.074-5.686-0.283-8.518c-0.21-1.683-0.427-3.359-0.756-5.022
	c-0.6-3.035-1.423-6.014-2.489-8.92c-0.03-0.08-0.013-0.21-0.126-0.229c-0.121-0.021-0.141,0.1-0.191,0.173
	c-0.826,1.17-1.652,2.343-2.476,3.516c-2.116,3.006-4.231,6.012-6.344,9.021l-6.359,9.058c-2.066,2.944-4.135,5.886-6.197,8.83
	c-1.41,2.014-2.809,4.031-4.218,6.042c-2.119,3.021-4.242,6.04-6.365,9.058c-1.687,2.399-3.375,4.797-5.064,7.194
	c-0.963,1.367-1.941,2.723-2.887,4.104c-0.396,0.575-0.848,1.119-1.168,1.745L41.265,89.178z M133.482,118.898
	c-0.063,0.246-0.125,0.488-0.268,0.701c-0.176,0.267-0.436,0.328-0.732,0.291c-0.284-0.037-0.44-0.213-0.532-0.473
	c-0.113-0.326-0.063-0.66-0.032-0.99c0.036-0.41,0.049-0.818,0.036-1.232l-3.412,0.268c-0.146,0.236-0.263,0.514-0.569,0.576
	c-0.397,0.081-0.697-0.076-0.887-0.439l-3.122,0.279c-0.021,0.184-0.028,0.37-0.067,0.551c-0.098,0.463-0.301,0.627-0.72,0.649
	c-0.454,0.026-0.604-0.261-0.692-0.62c-0.035-0.141-0.059-0.286-0.086-0.428l-2.732,0.32c0.104,0.279,0.064,0.545-0.098,0.793
	c-0.258,0.387-0.668,0.432-1.004,0.113c-0.228-0.213-0.334-0.503-0.506-0.749c-0.283,0.056-0.566,0.112-0.859,0.087
	c-0.537,0.586-1.161,1.032-1.946,1.229c-1.007,0.251-1.91,0.076-2.706-0.606c-2.934,0.421-5.865,0.854-8.787,1.353
	c-0.32,0.287-0.673,0.371-1.07,0.172c-0.83,0.152-1.658,0.309-2.487,0.463c0.017,0.195,0.026,0.395-0.06,0.583
	c-0.23,0.517-0.721,0.62-1.11,0.22c-0.156-0.16-0.28-0.354-0.416-0.525c-0.351,0.066-0.7,0.129-1.047,0.199
	c-0.673,0.742-1.473,1.233-2.499,1.338c-0.7,0.068-1.307-0.121-1.876-0.5l-3.26,0.697c-1.936,2.348-4.419,3.76-7.407,4.28
	c-1.393,0.241-2.786,0.235-4.133-0.283c-0.496-0.192-0.949-0.446-1.029-1.053c-0.116,0.022-0.236,0.042-0.35,0.069
	c-3.872,0.955-7.728,1.977-11.58,3.002c-6.805,1.813-13.486,3.977-19.987,6.697c-4.249,1.78-8.345,3.862-12.376,6.077
	c-0.058,0.03-0.153,0.081-0.15,0.112c0.05,0.408-0.286,0.604-0.49,0.849c-0.649,0.793-1.332,1.556-2.009,2.329
	c-0.113,0.133-0.233,0.23-0.07,0.43c0.15,0.188,0.257,0.146,0.43,0.058c1.017-0.523,2.036-1.044,3.063-1.55
	c7.821-3.877,15.938-6.989,24.322-9.41c6.068-1.754,12.211-3.232,18.364-4.654c5.171-1.195,10.366-2.275,15.582-3.245
	c4.068-0.756,8.15-1.433,12.244-2.039c3.979-0.59,7.963-1.112,11.955-1.565c3.97-0.449,7.943-0.83,11.928-1.156
	c4.178-0.34,8.361-0.623,12.548-0.859c3.933-0.224,7.871-0.39,11.808-0.55c0.721-0.028,1.439-0.05,2.223-0.08
	c-1.096-1.509-2.143-2.952-3.186-4.397c-0.104-0.146-0.229-0.139-0.382-0.133c-1.886,0.076-3.774,0.146-5.663,0.213
	c-0.395,0.6-1.004,0.742-1.654,0.795c-0.843,0.065-1.637-0.086-2.34-0.588l-7.939,0.496c-0.135,0.6,0.013,1.221-0.143,1.819
	L133.482,118.898z M159.852,127.122c-0.877-1.106-1.793-2.185-2.617-3.33c-0.459-0.638-0.942-0.839-1.744-0.825
	c-4.676,0.084-9.344,0.215-14.016,0.424c-3.74,0.168-7.473,0.391-11.201,0.678c-4.582,0.35-9.15,0.789-13.713,1.322
	c-3.56,0.416-7.106,0.873-10.648,1.396c-5.765,0.854-11.519,1.779-17.251,2.85c-6.505,1.213-12.912,2.813-19.204,4.864
	c-6.328,2.065-12.46,4.615-18.481,7.438c-0.12,0.058-0.236,0.119-0.336,0.203c-1.333,1.105-2.663,2.217-3.989,3.326
	c-0.14,0.115-0.286,0.198-0.13,0.442c0.166,0.256,0.3,0.112,0.457,0.046c5.274-2.342,10.663-4.389,16.118-6.268
	c9.58-3.297,19.448-5.353,29.428-6.944c3.572-0.57,7.142-1.185,10.722-1.716c3.279-0.49,6.563-0.938,9.854-1.313
	c3.217-0.37,6.437-0.67,9.662-0.911c3.994-0.305,7.996-0.515,11.998-0.676c2.717-0.113,5.43-0.188,8.145-0.271
	c3.287-0.104,6.572-0.201,9.861-0.293c2.396-0.066,4.789-0.125,7.205-0.185c0.002-0.147-0.076-0.207-0.131-0.276L159.852,127.122z
	 M90.848,121.581c0.106-0.455-0.034-0.741-0.418-0.921c-0.38-0.178-0.69-0.098-0.963,0.29c-0.26,0.368-0.483,0.762-0.733,1.139
	c-0.463,0.709-1.02,1.328-1.72,1.812c-1.256,1.031-2.71,1.643-4.285,1.988c-1.01,0.221-2.02,0.279-3.036,0.065
	c-0.257-0.054-0.377-0.144-0.113-0.358c0.077-0.107,0.15-0.22,0.229-0.324c1.644-2.131,3.246-4.285,4.616-6.604
	c0.616-1.04,1.223-2.092,1.513-3.281c0.213-0.859-0.069-1.378-0.893-1.697c-0.41-0.158-0.844-0.248-1.28-0.278
	c-2.412-0.173-4.705,0.347-6.928,1.235c-0.616,0.246-1.213,0.543-1.789,0.875c-0.254,0.147-0.511,0.311-0.597,0.613
	c-0.084,0.293,0.007,0.566,0.227,0.768c0.246,0.224,0.537,0.183,0.822,0.056c1.36-0.599,2.727-1.19,4.192-1.505
	c1.413-0.297,2.823-0.534,4.272-0.29c0.267,0.046,0.33,0.106,0.213,0.376c-0.33,0.773-0.716,1.514-1.133,2.238
	c-1.467,2.543-3.243,4.869-5.015,7.199c-0.283,0.373-0.527,0.762-0.664,1.215c0.081,0.611,0.534,0.865,1.03,1.055
	c1.346,0.52,2.739,0.525,4.132,0.283c2.989-0.521,5.472-1.934,7.408-4.279c0.36-0.521,0.779-1.016,0.933-1.656L90.848,121.581z
	 M51.069,106.928c0.896-0.547,1.323-1.359,1.312-2.398c-0.012-1.008-0.523-1.7-1.388-2.166c-0.447-0.243-0.923-0.407-1.408-0.555
	c-0.673-0.205-1.373-0.334-2.006-0.654c-0.513-0.258-0.72-0.616-0.64-1.078c0.066-0.387,0.406-0.67,0.93-0.747
	c1.04-0.153,1.896,0.21,2.542,1.01c0.237,0.29,0.364,0.271,0.604,0.058c0.28-0.248,0.58-0.471,0.89-0.678
	c0.22-0.146,0.21-0.256,0.063-0.46c-1.413-1.959-4.229-2.083-5.765-1.231c-1.013,0.56-1.423,1.463-1.363,2.603
	c0.054,1.022,0.634,1.659,1.52,2.063c0.337,0.154,0.69,0.275,1.04,0.396c0.716,0.237,1.473,0.366,2.156,0.7
	c0.426,0.207,0.763,0.5,0.723,1.036c-0.036,0.452-0.36,0.763-0.927,0.913c-1.226,0.32-2.452-0.156-3.146-1.26
	c-0.167-0.265-0.279-0.267-0.51-0.109c-0.33,0.22-0.673,0.427-1.026,0.609c-0.24,0.123-0.253,0.231-0.116,0.455
	c0.913,1.48,2.286,2.076,3.972,2.094c0.887-0.021,1.753-0.133,2.529-0.606L51.069,106.928z M97.649,101.234
	c0-1.118,0.014-2.139-0.01-3.157c-0.007-0.313,0.089-0.38,0.377-0.362c0.438,0.025,0.88,0.028,1.318,0
	c0.34-0.023,0.447,0.061,0.444,0.428c-0.019,2.568-0.011,5.142-0.01,7.709c0,0.494,0.025,0.984,0.191,1.494
	c-0.669,0-1.32-0.005-1.971,0.004c-0.174,0.002-0.236-0.086-0.258-0.233c-0.031-0.224-0.064-0.447-0.1-0.683
	c-0.165,0.06-0.225,0.219-0.335,0.323c-1.323,1.253-3.474,0.804-4.113-0.899c-0.51-1.355-0.477-2.746,0.087-4.088
	c0.823-1.961,3.381-1.847,4.378-0.531v-0.004H97.649z M97.649,103.922c0-0.24-0.037-0.486,0.006-0.717
	c0.109-0.587-0.247-0.848-0.688-1.051c-0.59-0.273-1.27-0.149-1.607,0.277c-0.538,0.68-0.517,2.361,0.038,3.02
	c0.318,0.379,0.865,0.507,1.383,0.322c0.669-0.24,0.869-0.492,0.869-1.094L97.649,103.922L97.649,103.922z M118.441,112.893
	c-0.082-0.888-0.14-1.774-0.231-2.662c-0.032-0.321-0.196-0.582-0.569-0.617c-0.365-0.035-0.652,0.154-0.789,0.537
	c-0.115,0.33-0.127,0.675-0.115,1.022c0.046,1.306,0.275,2.595,0.373,3.896c0.063,0.853-0.034,1.681-0.555,2.397
	c-0.49,0.679-1.177,0.994-2.006,0.923c-0.783-0.066-1.141-0.656-1.412-1.306c-0.051-0.124-0.091-0.251-0.132-0.377
	c-0.346-1.177-0.397-2.386-0.433-3.595c-0.023-0.934-0.021-1.866-0.03-2.801c-0.003-0.377-0.2-0.604-0.549-0.684
	c-0.356-0.076-0.66,0.044-0.861,0.364c-0.132,0.216-0.194,0.46-0.212,0.716c-0.124,1.803,0.023,3.59,0.307,5.368
	c0.184,1.157,0.532,2.249,1.326,3.151c0.793,0.685,1.699,0.854,2.706,0.604c0.79-0.196,1.412-0.644,1.949-1.229
	c0.187-0.267,0.373-0.537,0.583-0.84l0.275,0.754c0.178,0.246,0.283,0.537,0.512,0.75c0.336,0.316,0.749,0.272,1.005-0.117
	c0.164-0.25,0.204-0.514,0.101-0.793c-0.656-1.771-1.05-3.6-1.223-5.476L118.441,112.893z M100.093,121.053
	c-0.806-1.865-1.354-3.802-1.648-5.813c-0.102-0.697-0.192-1.396-0.316-2.09c-0.062-0.342-0.216-0.637-0.645-0.633
	c-0.396,0-0.631,0.193-0.755,0.631c-0.066,0.234-0.065,0.477-0.049,0.715c0.068,0.971,0.269,1.923,0.444,2.878
	c0.159,0.888,0.393,1.771,0.206,2.687c-0.077,0.367-0.192,0.719-0.403,1.032c-0.467,0.696-1.13,1.058-1.959,1.019
	c-0.783-0.035-1.177-0.607-1.473-1.242c-0.45-0.967-0.613-2.008-0.727-3.055c-0.131-1.19-0.214-2.387-0.311-3.578
	c-0.029-0.365-0.213-0.602-0.569-0.674c-0.38-0.078-0.721,0.1-0.89,0.451c-0.146,0.311-0.167,0.641-0.157,0.977
	c0.037,1.418,0.217,2.813,0.49,4.199c0.29,1.469,0.656,2.916,1.833,3.984c0.569,0.381,1.176,0.57,1.876,0.5
	c1.026-0.1,1.826-0.592,2.499-1.336l0.644-1.042l0.405,0.846c0.138,0.177,0.264,0.366,0.417,0.527
	c0.39,0.399,0.88,0.296,1.109-0.222c0.085-0.188,0.077-0.387,0.061-0.582c-0.034-0.059-0.076-0.11-0.103-0.17L100.093,121.053z
	 M63.108,98.075c0.007-0.315-0.094-0.374-0.379-0.36c-0.478,0.023-0.959,0.02-1.437,0.001c-0.237-0.008-0.32,0.048-0.319,0.304
	c0.01,3.012,0.01,6.021,0,9.03c-0.001,0.259,0.086,0.31,0.32,0.302c0.479-0.018,0.959-0.022,1.438,0
	c0.288,0.015,0.382-0.049,0.377-0.361c-0.021-1.227,0.031-2.453-0.027-3.676c-0.027-0.59,0.23-0.879,0.699-1.094
	c0.084-0.039,0.17-0.076,0.257-0.105c0.89-0.313,1.366,0.021,1.368,0.959c0.002,1.316,0.006,2.636-0.005,3.955
	c0,0.229,0.041,0.33,0.301,0.318c0.52-0.025,1.04-0.015,1.559-0.006c0.181,0.006,0.261-0.029,0.261-0.236
	c-0.01-1.705,0.01-3.408-0.026-5.114c-0.02-1.037-0.733-1.666-1.773-1.726c-1.046-0.062-1.886,0.321-2.615,1.176
	c0-1.192-0.014-2.287,0.01-3.379L63.108,98.075z M123.205,114.227c-0.118-0.729-0.163-1.459,0.119-2.162
	c0.346-0.863,0.947-1.43,1.904-1.549c0.873-0.106,1.494,0.229,1.85,1.055c0.445,1.039,0.488,2.136,0.429,3.244
	c-0.053,0.947-0.302,1.863-0.422,2.797c0.187,0.361,0.485,0.519,0.886,0.439c0.307-0.064,0.424-0.341,0.566-0.578
	c0.297-0.9,0.453-1.832,0.49-2.777c0.043-1.24-0.008-2.477-0.493-3.649c-0.927-2.231-3.479-2.731-5.183-1.013
	c-0.207,0.21-0.391,0.443-0.609,0.699c-0.076-0.489,0.021-0.922,0.031-1.359c0.013-0.359-0.148-0.586-0.485-0.676
	c-0.347-0.09-0.634,0.01-0.81,0.343c-0.105,0.203-0.16,0.42-0.184,0.649c-0.104,1.033,0.061,2.047,0.209,3.061
	c0.266,1.773,0.661,3.527,0.881,5.311c0.026,0.145,0.051,0.287,0.083,0.428c0.091,0.359,0.241,0.646,0.693,0.619
	c0.416-0.022,0.623-0.188,0.72-0.649c0.037-0.181,0.047-0.366,0.067-0.549c-0.132-1.246-0.564-2.433-0.761-3.666L123.205,114.227z
	 M133.555,114.325c-0.009-0.239,0.127-0.202,0.278-0.198c0.894,0.018,1.776,0.137,2.662,0.238c0.362,0.043,0.632-0.053,0.739-0.43
	c0.113-0.396-0.03-0.693-0.42-0.879c-0.269-0.125-0.555-0.189-0.85-0.211c-0.729-0.053-1.459-0.1-2.188-0.146
	c-0.144-0.011-0.293,0.032-0.291-0.207c0.007-0.906-0.047-1.813,0.008-2.718c0.074-1.241,0.768-1.892,1.966-1.987
	c0.802-0.065,1.519,0.21,2.229,0.51c0.317,0.134,0.566,0.08,0.773-0.187c0.215-0.272,0.229-0.563,0.051-0.854
	c-0.148-0.25-0.394-0.39-0.646-0.516c-0.597-0.298-1.24-0.39-1.894-0.414c-1.977-0.079-3.656,0.637-4.031,3.313
	c-0.127,0.899-0.022,1.807,0.01,2.709c0.01,0.285-0.08,0.371-0.354,0.351c-0.236-0.021-0.479,0-0.717,0.024
	c-0.377,0.041-0.563,0.269-0.56,0.646c0.007,0.354,0.143,0.608,0.528,0.687c0.291,0.057,0.584,0.072,0.875,0.049
	c0.209-0.016,0.299,0.045,0.299,0.252c-0.01,0.941,0.061,1.886-0.063,2.824c0.015,0.41,0,0.82-0.035,1.23
	c-0.03,0.326-0.081,0.658,0.032,0.984c0.09,0.258,0.251,0.435,0.532,0.472c0.302,0.036,0.558-0.022,0.733-0.29
	c0.145-0.213,0.203-0.457,0.267-0.703c0.157-0.6,0.011-1.225,0.146-1.822c-0.025-0.916-0.045-1.834-0.074-2.754L133.555,114.325z
	 M73.425,107.063c-0.021,0.234,0.072,0.293,0.294,0.289c0.519-0.016,1.039-0.016,1.558,0c0.229,0.006,0.291-0.068,0.289-0.293
	c-0.007-2.117-0.007-4.236,0-6.353c0-0.224-0.061-0.304-0.29-0.297c-0.492,0.016-0.986,0.022-1.478,0
	c-0.293-0.015-0.38,0.069-0.377,0.376c0.02,1.347,0.011,2.688,0.007,4.035c0,0.127,0.05,0.271-0.077,0.373
	c-0.416,0.347-0.862,0.627-1.429,0.623c-0.433-0.004-0.684-0.232-0.746-0.674c-0.023-0.156-0.03-0.314-0.03-0.477
	c0-1.303-0.007-2.607,0.007-3.915c0.003-0.26-0.064-0.351-0.334-0.336c-0.493,0.019-0.986,0.013-1.477,0.002
	c-0.206-0.002-0.309,0.03-0.307,0.281c0.011,1.665-0.009,3.329,0.014,4.995c0.014,0.994,0.569,1.615,1.557,1.771
	c1.113,0.179,2.033-0.219,2.84-1.118c0.002,0.307,0.016,0.521-0.005,0.729L73.425,107.063z M106.805,105.188
	c0.234,0.362,0.446,0.717,0.687,1.051c0.13,0.183,0.073,0.273-0.085,0.383c-1.471,0.996-3.043,1.188-4.658,0.465
	c-1.2-0.538-1.604-1.627-1.697-2.869c-0.15-2.005,0.9-3.479,2.782-3.882c1.937-0.413,3.524,0.692,3.812,2.653
	c0.049,0.353,0.076,0.713,0.09,1.072c0.012,0.297-0.055,0.402-0.383,0.396c-1.291-0.023-2.584,0-3.877-0.018
	c-0.322-0.008-0.34,0.109-0.275,0.365c0.246,0.978,1.045,1.396,2.154,1.131c0.541-0.133,1.01-0.402,1.453-0.758L106.805,105.188z
	 M103.195,103.188c0.828,0,1.648-0.002,2.472,0c0.133,0,0.144-0.068,0.142-0.176c-0.004-0.568-0.474-1.121-1.031-1.205
	c-0.842-0.129-1.422,0.363-1.582,1.379V103.188L103.195,103.188z M85.113,104.453c-0.654,0-1.307,0.014-1.959-0.008
	c-0.276-0.01-0.341,0.063-0.28,0.334c0.227,0.996,1.041,1.437,2.17,1.16c0.43-0.106,0.842-0.272,1.178-0.563
	c0.24-0.207,0.344-0.134,0.467,0.097c0.1,0.188,0.227,0.359,0.343,0.539c0.297,0.461,0.297,0.461-0.176,0.768
	c-1.456,0.937-3.646,0.949-4.873,0.033c-0.855-0.645-1.156-1.557-1.235-2.576c-0.161-2.016,0.88-3.495,2.752-3.902
	c1.967-0.428,3.532,0.656,3.843,2.648c0.063,0.396,0.086,0.795,0.09,1.193c0.003,0.207-0.054,0.27-0.268,0.268
	c-0.68-0.014-1.359-0.004-2.035-0.004L85.113,104.453z M82.868,103.184c0.832,0,1.64-0.002,2.447,0c0.13,0,0.187-0.025,0.183-0.177
	c-0.009-0.586-0.482-1.13-1.063-1.21c-0.816-0.113-1.336,0.331-1.563,1.385L82.868,103.184z M145.593,116.018
	c-0.003-0.576-0.337-0.828-0.894-0.67c-0.199,0.057-0.393,0.152-0.594,0.223c-0.586,0.199-1.097,0.076-1.524-0.373
	c-0.283-0.297-0.44-0.659-0.544-1.053c-0.268-1.025-0.174-2.057-0.061-3.092c0.047-0.421,0.225-0.541,0.633-0.537
	c0.724,0.002,1.384,0.229,2.05,0.453c0.297,0.098,0.583,0.129,0.782-0.174c0.201-0.304,0.168-0.607-0.021-0.896
	c-0.188-0.282-0.479-0.416-0.783-0.517c-0.537-0.174-1.09-0.224-1.648-0.235c-0.484-0.015-0.479-0.024-0.338-0.471
	c0.061-0.189,0.123-0.384,0.144-0.58c0.054-0.553-0.431-0.896-0.942-0.684c-0.199,0.084-0.348,0.236-0.474,0.414
	c-0.254,0.346-0.416,0.738-0.526,1.152c-0.063,0.242-0.184,0.319-0.433,0.355c-0.696,0.094-1.396,0.203-2.026,0.553
	c-0.303,0.168-0.557,0.383-0.453,0.791c0.104,0.409,0.431,0.467,0.779,0.467c0.475,0,0.92-0.15,1.37-0.261
	c0.271-0.065,0.33-0.013,0.283,0.25c-0.133,0.776-0.146,1.563-0.07,2.347c0.113,1.16,0.394,2.252,1.29,3.086
	c0.703,0.5,1.495,0.652,2.344,0.586c0.648-0.053,1.262-0.196,1.651-0.793c0.015-0.123,0.034-0.239,0.034-0.359L145.593,116.018z
	 M54.274,101.234c-0.813,0.805-0.97,1.818-0.949,2.902c0.036,1.832,1.055,3.027,2.857,3.32c1.556,0.253,2.932-0.448,3.572-1.803
	c0.106-0.227,0.083-0.322-0.16-0.393c-0.344-0.101-0.692-0.199-1.017-0.351c-0.326-0.149-0.479-0.124-0.626,0.247
	c-0.246,0.615-0.716,0.869-1.313,0.822c-0.536-0.047-0.893-0.371-1.076-1.022c-0.196-0.692-0.2-1.394-0.003-2.086
	c0.12-0.429,0.333-0.79,0.756-0.97c0.677-0.291,1.327,0.02,1.646,0.8c0.086,0.217,0.163,0.282,0.393,0.192
	c0.394-0.153,0.8-0.289,1.207-0.402c0.243-0.07,0.27-0.163,0.173-0.395c-0.526-1.242-1.439-1.828-2.579-1.828
	c-1.296-0.018-2.18,0.246-2.893,0.953L54.274,101.234z M77.263,107.01c-0.002,0.247,0.043,0.355,0.322,0.344
	c0.505-0.024,1.012-0.017,1.518-0.004c0.202,0.006,0.277-0.05,0.277-0.265c-0.007-3.036-0.007-6.073,0-9.106
	c0.003-0.229-0.087-0.266-0.283-0.262c-0.477,0.012-0.957,0.021-1.438-0.002c-0.302-0.016-0.403,0.063-0.398,0.389
	c0.02,1.465,0.009,2.929,0.009,4.395c0,1.504,0.007,3.008-0.002,4.514h-0.005V107.01z M107.68,112.314
	c0.299-0.205,0.575-0.431,0.787-0.729c0.21-0.296,0.217-0.607,0.004-0.891c-0.227-0.297-0.553-0.293-0.869-0.166
	c-0.336,0.135-0.613,0.371-0.893,0.598c-0.982,0.797-1.994,1.553-3.064,2.232c-0.76,0.479-0.75,1.094,0.013,1.58
	c1.265,0.803,2.432,1.724,3.401,2.875c0.443,0.529,0.908,1.043,1.385,1.547c0.38,0.4,0.904,0.279,1.119-0.23
	c0.109-0.266,0.068-0.52-0.049-0.771c-0.207-0.439-0.513-0.807-0.837-1.164c-1.065-1.162-2.293-2.146-3.593-3.125l2.6-1.771
	L107.68,112.314z M111.102,100.684c0.014-0.207-0.055-0.279-0.268-0.273c-0.521,0.013-1.039,0.013-1.559,0.002
	c-0.201-0.002-0.276,0.047-0.274,0.264c0.006,2.146,0.005,4.289,0,6.436c0,0.197,0.062,0.25,0.249,0.244
	c0.491-0.01,0.986-0.021,1.479,0.002c0.287,0.014,0.385-0.049,0.379-0.362c-0.021-1.209-0.008-2.423-0.008-3.636
	c0-0.16,0.004-0.307,0.127-0.439c0.369-0.406,0.815-0.666,1.359-0.779c0.305-0.063,0.723,0.15,0.883-0.101
	c0.149-0.229,0.053-0.62,0.061-0.937c0.007-0.16-0.018-0.319,0.007-0.478c0.044-0.304-0.106-0.354-0.366-0.333
	c-0.854,0.07-1.503,0.486-2.063,1.275c0-0.373-0.01-0.623,0.002-0.868L111.102,100.684z M103.914,119.498
	c-0.07-0.918-0.284-1.813-0.479-2.708c-0.439-2.03-0.885-4.06-0.513-6.158c0.077-0.431-0.085-0.69-0.446-0.817
	c-0.363-0.129-0.705-0.002-0.922,0.342c-0.123,0.193-0.193,0.406-0.236,0.629c-0.215,1.1-0.117,2.199,0.052,3.297
	c0.271,1.746,0.739,3.454,0.962,5.212c0.063,0.495,0.072,1.013,0.354,1.456c0.397,0.2,0.75,0.115,1.069-0.171
	c0.181-0.347,0.188-0.713,0.159-1.091V119.498z M74.904,138.913c-0.319-0.007-0.526,0.122-0.746,0.205
	c-0.149,0.057-0.297,0.122-0.45,0.155c-0.17,0.037-0.316-0.01-0.399-0.187c-0.081-0.17,0.016-0.284,0.129-0.38
	c0.258-0.217,0.564-0.344,0.887-0.438c0.757-0.224,1.523-0.267,2.279-0.037c1.28,0.388,1.663,1.662,0.843,2.721
	c-0.022,0.029-0.036,0.064-0.056,0.099c0.97,0.534,1.316,1.189,1.12,2.104c-0.191,0.887-1.141,1.597-2.217,1.643
	c-0.264,0.014-0.536,0-0.797-0.049c-0.243-0.048-0.419-0.098-0.609,0.156c-0.149,0.205-0.453,0.074-0.543-0.207
	c-0.097-0.301-0.066-0.61-0.05-0.912c0.09-1.395,0.196-2.786,0.299-4.182c0.018-0.244,0.064-0.476,0.291-0.688L74.904,138.913z
	 M74.958,138.891c0.35,0.053,0.442,0.264,0.41,0.573c-0.03,0.263-0.058,0.528-0.081,0.793c-0.099,1.111-0.193,2.226-0.206,3.341
	c-0.003,0.123-0.047,0.258,0.123,0.342c0.653,0.328,1.803,0.135,2.267-0.394c0.59-0.671,0.3-1.614-0.557-1.84
	c-0.33-0.086-0.66-0.072-0.99-0.065c-0.193,0.004-0.339-0.068-0.353-0.289c-0.017-0.207,0.083-0.328,0.286-0.363
	c0.104-0.02,0.207-0.039,0.313-0.053c0.544-0.067,0.83-0.332,0.907-0.84c0.073-0.482-0.144-0.887-0.61-1.095
	c-0.486-0.219-0.996-0.228-1.52-0.108L74.958,138.891z M120.113,143.1c0.343,0.521,0.683,1.047,1.129,1.493
	c0.203,0.205,0.443,0.37,0.746,0.257c0.318-0.121,0.227-0.422,0.217-0.66c-0.083-1.711,0.064-3.402,0.354-5.088
	c0.049-0.283,0.188-0.682-0.25-0.758c-0.438-0.076-0.441,0.358-0.496,0.631c-0.211,1.072-0.33,2.156-0.354,3.25
	c-0.01,0.414-0.003,0.828-0.003,1.244c-0.55-0.504-0.921-1.068-1.272-1.642c-0.615-0.998-1.121-2.054-1.591-3.126
	c-0.075-0.172-0.146-0.35-0.386-0.34c-0.221,0.009-0.333,0.16-0.409,0.33c-0.073,0.156-0.127,0.322-0.168,0.488
	c-0.286,1.193-0.463,2.404-0.546,3.627c-0.037,0.545-0.025,1.092-0.014,1.639c0.007,0.234,0.094,0.462,0.394,0.457
	c0.286-0.004,0.327-0.219,0.336-0.447c0.015-0.372,0.04-0.742,0.052-1.116c0.029-1.157,0.119-2.308,0.42-3.536
	c0.565,1.203,1.146,2.275,1.821,3.297H120.113z M155.393,139.656c0.131,0.234,0.26,0.435,0.312,0.671
	c0.224,1.06-0.438,1.875-1.541,1.87c-0.396-0.002-0.779-0.04-0.937,0.419c0.344,0,0.693-0.019,1.039,0.002
	c0.403,0.021,0.805,0.088,1.073,0.431c0.337,0.434,0.218,1.152-0.282,1.479c-0.772,0.504-1.623,0.539-2.486,0.271
	c-0.229-0.073-0.42-0.229-0.488-0.489c-0.048-0.17-0.034-0.326,0.132-0.42c0.138-0.084,0.29-0.08,0.403,0.043
	c0.514,0.547,1.117,0.359,1.709,0.207c0.221-0.057,0.438-0.189,0.414-0.467c-0.022-0.297-0.276-0.322-0.5-0.359
	c-0.439-0.076-0.877,0.006-1.313,0.037c-0.18,0.014-0.396,0.068-0.514-0.121c-0.113-0.184-0.022-0.383,0.09-0.521
	c0.349-0.432,0.456-0.758,0.11-1.337c-0.49-0.824,0.18-1.942,1.146-2.144c0.466-0.097,0.938-0.146,1.407-0.189
	c0.22-0.02,0.449,0.018,0.673,0.061c0.147,0.029,0.269,0.127,0.244,0.313c-0.024,0.184-0.151,0.232-0.313,0.232
	c-0.119-0.002-0.24,0-0.396,0L155.393,139.656z M154.053,141.563c0.609,0.01,0.965-0.293,0.986-0.849
	c0.021-0.519-0.34-0.905-0.848-0.911c-0.539-0.003-0.965,0.438-0.969,1.008c-0.007,0.479,0.286,0.746,0.825,0.756L154.053,141.563z
	 M97.744,142.686c0.52-0.061,1.01-0.123,1.5-0.008c0.373,0.088,0.687,0.26,0.78,0.65c0.103,0.438,0.022,0.846-0.347,1.156
	c-0.574,0.483-1.954,0.634-2.623,0.279c-0.107-0.057-0.21-0.125-0.283-0.217c-0.153-0.181-0.28-0.398-0.073-0.604
	c0.203-0.203,0.39-0.104,0.576,0.084c0.359,0.363,1.536,0.313,1.896-0.061c0.25-0.261,0.149-0.539-0.24-0.637
	c-0.438-0.107-0.873-0.027-1.313-0.007c-0.23,0.01-0.51,0.14-0.657-0.119c-0.136-0.241,0.074-0.451,0.18-0.657
	c0.023-0.048,0.051-0.097,0.088-0.133c0.266-0.271,0.302-0.464,0.029-0.837c-0.606-0.827-0.023-2.112,1.017-2.351
	c0.482-0.109,0.986-0.151,1.482-0.195c0.207-0.021,0.424,0.02,0.63,0.061c0.15,0.029,0.277,0.122,0.247,0.307
	c-0.025,0.166-0.139,0.246-0.313,0.24c-0.118-0.004-0.236,0-0.384,0c0.11,0.256,0.271,0.485,0.317,0.762
	c0.169,1-0.49,1.781-1.533,1.777c-0.407,0-0.806-0.041-0.992,0.489L97.744,142.686z M98.617,141.563
	c0.623,0.006,0.95-0.289,0.957-0.862c0.007-0.554-0.317-0.896-0.844-0.896c-0.539,0-0.93,0.406-0.942,0.979
	c-0.011,0.527,0.249,0.775,0.826,0.779H98.617L98.617,141.563z M86.204,143.443c-0.373,0.279-0.749,0.488-1.192,0.563
	c-1.02,0.169-1.833-0.442-1.927-1.469c-0.043-0.481-0.013-0.956,0.153-1.415c0.42-1.161,1.526-1.729,2.767-1.377
	c0.283,0.08,0.354,0.029,0.347-0.25c-0.007-0.268,0.007-0.533,0.043-0.797c0.033-0.249,0.18-0.436,0.457-0.387
	c0.249,0.043,0.266,0.254,0.249,0.467c-0.127,1.578-0.159,3.162-0.146,4.744v0.078c-0.021,0.25,0.002,0.563-0.351,0.566
	c-0.341,0.003-0.36-0.29-0.377-0.554c-0.003-0.05-0.02-0.101-0.036-0.181L86.204,143.443z M86.241,141.503h0.04
	c0-0.239-0.007-0.479,0-0.718c0.003-0.148-0.037-0.238-0.177-0.313c-0.813-0.443-1.81-0.092-2.156,0.769
	c-0.143,0.356-0.173,0.723-0.149,1.099c0.039,0.631,0.446,1.037,1.032,1.055c0.563,0.014,1.363-0.601,1.396-1.086
	c0.017-0.266,0.004-0.531,0.004-0.797L86.241,141.503z M137.577,139.005c0.047-0.254,0.073-0.506-0.257-0.563
	c-0.346-0.061-0.372,0.229-0.413,0.461c-0.083,0.472-0.159,0.943-0.205,1.421c-0.127,1.263-0.12,2.524,0.046,3.784
	c0.031,0.254,0.109,0.492,0.436,0.447c0.324-0.039,0.284-0.297,0.271-0.522c-0.044-0.597-0.098-1.193-0.127-1.79
	c-0.023-0.424-0.063-0.854,0.047-1.27c0.104-0.4,0.583-0.729,1.076-0.75c0.416-0.018,0.706,0.211,0.859,0.68
	c0.104,0.32,0.131,0.65,0.143,0.982c0.027,0.661-0.105,1.297-0.301,1.924c-0.045,0.16-0.063,0.319,0.098,0.437
	c0.127,0.09,0.273,0.116,0.41,0.034c0.141-0.088,0.22-0.23,0.268-0.387c0.336-1.123,0.383-2.254,0.002-3.373
	c-0.219-0.652-0.723-0.957-1.408-0.959c-0.387,0-0.724,0.141-1.09,0.369c0.049-0.345,0.084-0.63,0.137-0.914L137.577,139.005z
	 M132.979,138.868c0.027-0.204-0.024-0.382-0.256-0.427c-0.228-0.047-0.354,0.07-0.396,0.289c-0.021,0.092-0.048,0.183-0.063,0.271
	c-0.268,1.396-0.31,2.805-0.229,4.217c0.021,0.344,0.084,0.688,0.134,1.029c0.029,0.22,0.16,0.33,0.385,0.311
	c0.239-0.021,0.303-0.181,0.285-0.394l-0.059-0.718c-0.055-0.742-0.107-1.489-0.063-2.231c0.037-0.563,0.5-0.96,1.106-0.993
	c0.473-0.027,0.804,0.279,0.919,0.866c0.037,0.196,0.058,0.396,0.076,0.593c0.066,0.744-0.069,1.461-0.288,2.164
	c-0.064,0.199-0.015,0.35,0.165,0.437c0.189,0.094,0.367,0.043,0.486-0.14c0.059-0.088,0.106-0.185,0.137-0.283
	c0.326-1.073,0.361-2.16,0.041-3.227c-0.293-0.974-1.264-1.347-2.185-0.902c-0.104,0.054-0.209,0.112-0.366,0.195
	c0.064-0.387,0.121-0.714,0.168-1.043L132.979,138.868z M161.729,142.006c-0.644-0.018-0.644-0.018-0.512,0.532
	c0.18,0.751,0.94,1.008,1.547,0.521c0.104-0.082,0.196-0.179,0.289-0.271c0.154-0.151,0.324-0.192,0.493-0.047
	c0.175,0.149,0.214,0.346,0.062,0.528c-0.482,0.59-1.123,0.785-1.855,0.678c-0.624-0.09-1.059-0.439-1.217-1.059
	c-0.28-1.082-0.133-2.089,0.646-2.938c0.521-0.564,1.18-0.704,1.896-0.477c0.687,0.217,0.993,0.758,1.069,1.444
	c0.051,0.453-0.119,0.692-0.565,0.812c-0.634,0.172-1.272,0.27-1.858,0.274L161.729,142.006L161.729,142.006z M161.807,141.322
	c0.483,0.008,0.924-0.09,1.366-0.172c0.114-0.021,0.224-0.033,0.228-0.211c0.008-0.56-0.535-1.002-1.08-0.867
	c-0.356,0.088-0.612,0.311-0.813,0.6c-0.115,0.17-0.303,0.385-0.219,0.566c0.086,0.193,0.359,0.029,0.516,0.08L161.807,141.322z
	 M143.506,141.605c0-0.869-0.41-1.362-1.061-1.326c-0.182,0.012-0.332,0.097-0.485,0.171c-0.196,0.097-0.387,0.143-0.522-0.081
	c-0.146-0.242,0.006-0.398,0.188-0.532c0.724-0.526,1.938-0.21,2.322,0.62c0.392,0.85,0.304,1.742,0.187,2.632
	c-0.056,0.407-0.132,0.817-0.295,1.2c-0.058,0.141-0.146,0.253-0.32,0.26c-0.17,0.008-0.279-0.053-0.311-0.232
	c-0.037-0.215-0.173-0.098-0.271-0.07c-0.345,0.094-0.688,0.097-1.023-0.003c-0.729-0.218-1.08-0.968-0.877-1.853
	c0.177-0.764,0.895-1.232,1.697-1.106c0.275,0.043,0.533,0.149,0.77,0.337L143.506,141.605z M143.469,142.8
	c0.006-0.604-0.279-0.911-0.853-0.909c-0.576,0.002-0.91,0.315-0.919,0.875c-0.012,0.588,0.322,0.92,0.912,0.92
	c0.537,0,0.853-0.322,0.855-0.879L143.469,142.8z M125.893,141.63c-0.076-0.308-0.11-0.53-0.189-0.737
	c-0.217-0.556-0.717-0.756-1.268-0.524c-0.051,0.019-0.097,0.046-0.144,0.069c-0.208,0.112-0.416,0.156-0.549-0.09
	c-0.132-0.248,0.036-0.404,0.22-0.527c0.743-0.518,1.936-0.18,2.314,0.646c0.223,0.479,0.264,0.995,0.261,1.516
	c0,0.693-0.104,1.377-0.29,2.047c-0.038,0.137-0.104,0.275-0.188,0.387c-0.125,0.159-0.402,0.184-0.438,0.04
	c-0.115-0.452-0.381-0.2-0.588-0.177c-0.753,0.091-1.332-0.17-1.585-0.723c-0.297-0.647-0.161-1.494,0.31-1.927
	c0.474-0.438,1.261-0.507,1.863-0.171c0.056,0.03,0.112,0.066,0.263,0.157L125.893,141.63z M125.796,142.796
	c0.006-0.583-0.276-0.894-0.823-0.909c-0.605-0.018-0.943,0.293-0.949,0.872c-0.008,0.591,0.315,0.917,0.908,0.913
	c0.536-0.003,0.856-0.33,0.863-0.883L125.796,142.796z M109.95,143.782c0.087,0.2,0.149,0.479,0.452,0.383
	c0.287-0.09,0.279-0.33,0.225-0.593c-0.131-0.6-0.225-1.203-0.21-1.82c0.01-0.583,0.017-1.169,0.026-1.753
	c0-0.183-0.018-0.358-0.243-0.396c-0.22-0.033-0.354,0.09-0.412,0.289c-0.041,0.137-0.071,0.283-0.076,0.428
	c-0.021,0.529-0.03,1.063-0.044,1.594c-0.011,0.415-0.076,0.822-0.355,1.156c-0.24,0.281-0.555,0.408-0.92,0.359
	c-0.388-0.058-0.545-0.344-0.637-0.688c-0.064-0.245-0.081-0.497-0.086-0.75c-0.018-0.747,0.094-1.482,0.189-2.223
	c0.031-0.229,0.018-0.443-0.267-0.492c-0.254-0.043-0.396,0.106-0.471,0.334c-0.022,0.076-0.043,0.152-0.054,0.23
	c-0.051,0.396-0.116,0.79-0.135,1.188c-0.035,0.703-0.064,1.41,0.146,2.098c0.217,0.705,0.653,1.009,1.39,0.994
	c0.566-0.01,0.953-0.342,1.35-0.751c0.058,0.175,0.088,0.29,0.135,0.399L109.95,143.782z M91.161,143.759
	c0.09,0.196,0.143,0.483,0.443,0.41c0.334-0.081,0.296-0.356,0.243-0.616c-0.123-0.601-0.224-1.203-0.212-1.818
	c0.01-0.586,0.03-1.17,0.039-1.754c0.004-0.188-0.049-0.356-0.27-0.377c-0.198-0.02-0.33,0.097-0.39,0.273
	c-0.075,0.214-0.097,0.439-0.097,0.67c-0.003,0.452-0.006,0.903-0.016,1.355c-0.008,0.391-0.077,0.767-0.307,1.097
	c-0.233,0.333-0.567,0.483-0.963,0.437c-0.403-0.049-0.559-0.355-0.653-0.713c-0.116-0.434-0.086-0.877-0.063-1.31
	c0.029-0.571,0.109-1.136,0.169-1.707c0.02-0.205-0.02-0.38-0.257-0.422c-0.212-0.041-0.368,0.056-0.446,0.249
	c-0.055,0.134-0.079,0.279-0.106,0.424c-0.106,0.563-0.122,1.136-0.14,1.705c-0.017,0.529,0.02,1.064,0.208,1.572
	c0.238,0.642,0.62,0.894,1.301,0.891c0.586,0,0.995-0.314,1.394-0.76c0.05,0.158,0.074,0.277,0.124,0.386L91.161,143.759z
	 M157.52,139.199c0.068-0.198,0.039-0.366-0.176-0.463c-0.219-0.1-0.359,0.011-0.468,0.177c-0.127,0.188-0.185,0.41-0.222,0.634
	c-0.217,1.309,0.041,2.625-0.02,3.936c-0.011,0.174,0.057,0.31,0.27,0.32c0.207,0.008,0.334-0.095,0.384-0.281
	c0.088-0.321,0.088-0.655,0.063-0.987c-0.037-0.552-0.09-1.097-0.055-1.729c0.063,0.119,0.071,0.176,0.104,0.202
	c0.813,0.707,1.425,1.569,1.975,2.486c0.086,0.146,0.227,0.19,0.379,0.126c0.167-0.069,0.23-0.219,0.214-0.393
	c-0.026-0.261-0.17-0.475-0.307-0.688c-0.39-0.605-0.884-1.126-1.384-1.672c0.117-0.063,0.211-0.104,0.301-0.153
	c0.43-0.233,0.91-0.373,1.307-0.671c0.159-0.123,0.26-0.281,0.135-0.482c-0.113-0.177-0.289-0.189-0.457-0.104
	c-0.754,0.381-1.5,0.771-2.283,1.175c0-0.492,0.074-0.977,0.232-1.445L157.52,139.199z M129.462,144.025
	c0.767-0.088,1.339-0.48,1.753-1.117c0.123-0.188,0.114-0.396-0.101-0.52c-0.188-0.109-0.357-0.051-0.479,0.137
	c-0.056,0.086-0.107,0.183-0.18,0.261c-0.41,0.47-0.934,0.632-1.542,0.532c-0.483-0.08-0.751-0.395-0.851-0.84
	c-0.146-0.677-0.131-1.354,0.196-1.982c0.478-0.917,1.709-0.967,2.246-0.1c0.087,0.144,0.193,0.213,0.358,0.18
	c0.188-0.04,0.259-0.17,0.261-0.35c0.007-0.324-0.156-0.554-0.396-0.742c-0.799-0.621-2.213-0.469-2.863,0.309
	c-0.488,0.588-0.6,1.285-0.608,1.781c0,1.775,0.813,2.592,2.198,2.439L129.462,144.025z M93.573,139.874
	c0.034-0.207,0.063-0.421-0.21-0.481c-0.295-0.065-0.396,0.135-0.452,0.379c-0.067,0.271-0.086,0.549-0.066,0.828
	c0.074,1.023,0.156,2.043,0.229,3.065c0.02,0.243,0,0.521,0.343,0.519c0.32-0.008,0.363-0.274,0.373-0.521
	c0.007-0.188-0.016-0.373-0.036-0.559c-0.05-0.422-0.117-0.842-0.156-1.27c-0.041-0.396,0.043-0.77,0.289-1.09
	c0.264-0.336,0.623-0.463,1.03-0.378c0.373,0.075,0.529,0.377,0.603,0.721c0.034,0.155,0.044,0.315,0.058,0.474
	c0.043,0.649-0.117,1.27-0.3,1.881c-0.058,0.189-0.037,0.349,0.166,0.428c0.193,0.072,0.337-0.006,0.437-0.176
	c0.033-0.061,0.066-0.117,0.09-0.18c0.294-0.772,0.406-1.576,0.294-2.396c-0.144-1.05-0.783-1.563-1.69-1.433
	c-0.406,0.057-0.698,0.293-1.038,0.629c0.023-0.217,0.03-0.336,0.05-0.453L93.573,139.874z M104.35,140.293
	c0.084-0.652,0.533-0.99,1.18-0.865c0.244,0.047,0.479,0.149,0.711,0.246c0.184,0.076,0.341,0.086,0.455-0.095
	c0.125-0.192,0.055-0.373-0.111-0.488c-0.59-0.407-1.25-0.454-1.91-0.265c-0.629,0.18-0.926,0.689-1.031,1.3
	c-0.063,0.367-0.069,0.743-0.069,1.114c-0.003,0.226-0.04,0.353-0.308,0.312c-0.224-0.03-0.457-0.017-0.466,0.283
	c-0.014,0.313,0.22,0.374,0.459,0.356c0.261-0.017,0.313,0.09,0.29,0.326c-0.063,0.623-0.105,1.246-0.156,1.869
	c-0.021,0.227,0,0.451,0.276,0.492c0.267,0.044,0.366-0.158,0.437-0.373c0.109-0.333,0.084-0.684,0.117-1.025
	c0.036-0.396-0.101-0.961,0.109-1.146c0.253-0.227,0.77,0.043,1.177,0.091c0.181,0.022,0.384,0.074,0.445-0.19
	c0.067-0.276-0.101-0.402-0.325-0.453c-0.311-0.066-0.627-0.137-0.943-0.143c-0.326-0.005-0.463-0.111-0.41-0.438
	c0.011-0.076,0.002-0.159,0.002-0.126c0.024-0.338,0.035-0.563,0.063-0.786L104.35,140.293z M168.402,140.04
	c0.048-0.233,0.25-0.517-0.094-0.656c-0.353-0.147-0.478,0.173-0.621,0.405c-0.022,0.033-0.045,0.07-0.051,0.107
	c-0.039,0.256-0.207,0.336-0.445,0.354c-0.267,0.016-0.527,0.072-0.771,0.195c-0.138,0.07-0.233,0.175-0.203,0.351
	c0.034,0.187,0.171,0.229,0.324,0.228c0.161,0,0.327-0.004,0.478-0.049c0.283-0.086,0.316,0.035,0.27,0.27
	c-0.085,0.438-0.061,0.877,0.007,1.313c0.162,1.033,1.062,1.59,1.99,1.244c0.272-0.104,0.44-0.273,0.34-0.578
	c-0.101-0.302-0.34-0.18-0.537-0.125c-0.532,0.146-0.843-0.011-1.003-0.537c-0.156-0.523-0.083-1.054,0.007-1.58
	c0.03-0.172,0.15-0.152,0.271-0.155c0.327-0.007,0.618,0.122,0.923,0.229c0.3,0.104,0.484-0.061,0.434-0.354
	c-0.037-0.196-0.176-0.282-0.342-0.355c-0.311-0.134-0.645-0.146-0.977-0.175C168.402,140.12,168.395,140.079,168.402,140.04
	L168.402,140.04z M147.67,141.036c-0.079,0.649-0.127,1.296,0.104,1.93c0.278,0.767,1.203,1.152,1.938,0.813
	c0.229-0.107,0.369-0.283,0.29-0.541c-0.093-0.297-0.33-0.206-0.534-0.149c-0.581,0.16-0.911-0.037-1.053-0.623
	c-0.114-0.479-0.044-0.952,0.022-1.426c0.026-0.19,0.137-0.224,0.307-0.222c0.314,0.004,0.599,0.117,0.885,0.225
	c0.159,0.061,0.321,0.076,0.42-0.098c0.1-0.176,0.044-0.34-0.09-0.471c-0.117-0.111-0.27-0.162-0.423-0.209
	c-0.254-0.076-0.521-0.074-0.8-0.105c0.037-0.137,0.072-0.247,0.1-0.364c0.036-0.159,0.053-0.321-0.13-0.417
	c-0.19-0.1-0.343-0.016-0.46,0.12c-0.098,0.106-0.196,0.235-0.227,0.369c-0.066,0.292-0.256,0.368-0.517,0.386
	c-0.269,0.018-0.526,0.079-0.761,0.217c-0.124,0.072-0.189,0.18-0.163,0.332c0.028,0.163,0.155,0.221,0.293,0.217
	c0.235-0.006,0.474-0.043,0.709-0.065c0.104-0.062,0.11-0.017,0.085,0.073L147.67,141.036z M84.334,124.488
	c-1.59,0.365-3.175,0.734-4.762,1.104c-0.264,0.215-0.144,0.305,0.112,0.355c1.021,0.215,2.03,0.158,3.039-0.064
	c1.576-0.347,3.03-0.957,4.286-1.988c-0.892,0.194-1.785,0.387-2.677,0.59L84.334,124.488z M146.124,141.686
	c0-0.797-0.004-1.594,0-2.392c0.001-0.243-0.021-0.483-0.317-0.51c-0.313-0.022-0.402,0.217-0.414,0.473
	c-0.078,1.597-0.1,3.188,0.06,4.782c0.028,0.275,0.095,0.579,0.45,0.533c0.347-0.047,0.252-0.377,0.272-0.616
	c0.001-0.026-0.009-0.056-0.01-0.08l-0.126-2.187h0.085V141.686z M112.134,140.007c-0.122-0.211-0.296-0.36-0.556-0.204
	c-0.24,0.146-0.202,0.352-0.083,0.555c0.173,0.301,0.323,0.606,0.389,0.953c0.13,0.676,0.126,1.346-0.059,2.014
	c-0.058,0.199-0.126,0.449,0.149,0.546c0.297,0.104,0.439-0.113,0.525-0.351c0.109-0.299,0.161-0.612,0.18-0.934
	c0.027-0.424-0.046-0.85,0.063-1.27c0.154-0.621,0.499-0.779,1.068-0.493c0.113,0.058,0.225,0.093,0.338,0.021
	c0.125-0.085,0.146-0.214,0.125-0.351c-0.057-0.356-0.328-0.468-0.625-0.513c-0.551-0.084-0.947,0.177-1.244,0.625
	c-0.1-0.209-0.174-0.404-0.276-0.582L112.134,140.007z M81.579,143.732c0.011,0.174,0.037,0.347,0.077,0.513
	c0.054,0.217,0.193,0.362,0.427,0.334c0.224-0.026,0.243-0.218,0.25-0.396c0.007-0.147,0-0.293-0.007-0.438
	c-0.04-0.979-0.15-1.959-0.097-2.945c0.029-0.528,0.06-1.06,0.063-1.594c0.003-0.336-0.217-0.505-0.474-0.392
	c-0.199,0.084-0.233,0.27-0.253,0.463c-0.077,0.783-0.05,1.565-0.057,2.473c-0.021,0.582,0.04,1.285,0.08,1.988L81.579,143.732z
	 M165.689,140.3c-0.004-0.271,0.066-0.629-0.348-0.633c-0.39-0.003-0.359,0.356-0.396,0.626c-0.006,0.04,0,0.081,0,0.12
	c-0.01,1.063,0.064,2.134-0.195,3.18c-0.046,0.193,0.021,0.351,0.23,0.396c0.187,0.044,0.346-0.002,0.427-0.199
	c0.032-0.084,0.057-0.174,0.075-0.264c0.156-0.707,0.144-1.426,0.215-2.144c0-0.358,0.007-0.716,0-1.075L165.689,140.3z
	 M151.529,140.42c-0.016-0.29,0.147-0.738-0.342-0.746c-0.457-0.003-0.387,0.439-0.394,0.739c-0.026,1.063,0.056,2.134-0.203,3.18
	c-0.048,0.193,0.021,0.347,0.229,0.396c0.187,0.043,0.348-0.006,0.427-0.199c0.037-0.084,0.058-0.174,0.078-0.266
	c0.159-0.717,0.146-1.455,0.212-2.185c0-0.303,0.018-0.61-0.003-0.917L151.529,140.42z M80.252,140.141
	c0-0.224-0.026-0.451-0.306-0.477c-0.297-0.027-0.374,0.199-0.416,0.434c-0.011,0.053-0.021,0.105-0.021,0.159
	c-0.021,1.13,0.073,2.263-0.196,3.38c-0.044,0.182,0.056,0.309,0.236,0.354c0.169,0.039,0.329,0.007,0.406-0.164
	c0.057-0.117,0.087-0.249,0.109-0.381c0.134-0.719,0.16-1.448,0.193-2.182c0-0.373,0.004-0.744,0-1.117L80.252,140.141z
	 M79.947,138.204c-0.29-0.011-0.536,0.235-0.53,0.522c0.01,0.319,0.206,0.489,0.503,0.496c0.311,0.008,0.49-0.17,0.493-0.609
	c-0.007-0.188-0.136-0.395-0.463-0.402L79.947,138.204z M164.85,138.693c-0.007,0.313,0.176,0.504,0.478,0.525
	c0.312,0.023,0.505-0.143,0.526-0.459c0.023-0.307-0.117-0.507-0.402-0.553c-0.311-0.023-0.59,0.205-0.598,0.488L164.85,138.693z
	 M151.229,138.204c-0.283-0.003-0.554,0.246-0.533,0.522c0.021,0.307,0.203,0.489,0.514,0.492c0.313,0.004,0.479-0.183,0.497-0.492
	c0.009-0.301-0.187-0.52-0.472-0.522H151.229z M107.798,138.591c-0.026,0.253,0.101,0.373,0.343,0.369
	c0.267,0,0.523-0.032,0.543-0.379c0.014-0.251-0.103-0.403-0.41-0.421c-0.25,0.004-0.438,0.124-0.473,0.431H107.798z
	 M109.184,138.529c0.004,0.285,0.197,0.341,0.434,0.338c0.251-0.008,0.447-0.088,0.439-0.383c-0.002-0.28-0.176-0.387-0.41-0.4
	c-0.31,0.01-0.463,0.163-0.463,0.449V138.529z"/>
</svg>
