<svg xmlns="http://www.w3.org/2000/svg" viewBox="0 0 612 513">
  <style type="text/css">
    .path{fill:#666;}
  </style>
  <g> 
    <path d="M448.1,276.4c-12.7-2.5-24.5-4.7-36.2-7.1c-30.6-6.4-60.9-14.3-89.7-26.9c-29.7-13.1-55.1-32.2-78.8-54.1 c-2.3-2.1-5.9-4.1-6.7-6.7c-0.9-2.8,2.2-5.7,3.7-8.6c12.9-27.3,16.1-56.2,14-85.9c-2-27.4-8.8-53.9-16.7-80.1 c-0.3-1.1-0.8-2.2-1.2-3.4c0.3-0.2,0.6-0.5,1-0.7C307.2,93.8,377.3,184.7,448.1,276.4z"/>
    <path d="M441.4,284.4c-137.4,0-274.9,0-412.4,0c0.1-1.7,1.6-2.2,2.7-3c56.2-46.2,120.3-75.3,191.6-88.6c6.6-1.2,10.9-0.2,15.8,4.6 c39.4,38.2,86.6,61.8,139.9,73.6c20.2,4.5,40.6,8.5,60.8,12.6c0.5,0.1,1,0.2,1.5,0.3C441.5,284.2,441.5,284.3,441.4,284.4z"/>
    <path d="M55.5,257.5c7.9-11.3,15.6-22.6,23.5-34c9-12.7,18-25.5,26.9-38.2c18.1-25.6,36.1-51.2,54.1-76.9 c14.1-20.1,28.2-40.3,42.2-60.5c8.6-12.2,17-24.5,25.6-36.6c0.8-1.1,1.8-2,3-3.5c3.6,9.3,6.2,18.4,8.5,27.6 c3.7,15,5.8,30.2,6.9,45.6c1.7,23.5-0.4,46.2-7.6,68.5c-1.9,6-5.2,11.5-7.8,17.3c-1.6,3.7-4.9,3.6-7.8,3.9 c-31.8,4.3-61,16.5-89,31.3c-22.5,11.9-43.4,26.4-63,42.8c-5.1,4.3-9.8,8.9-14.7,13.4C55.6,258.5,55.3,258.2,55.5,257.5z"/>
    <path d="M391.2,387.9c3.9-0.4,7.6-0.8,11.5-1.2c0.4,0.1,0.7,0.4,1,0.7c2.8,3.3,3,3.2,5-0.6c0.3-0.5,0.5-1,1-1.3 c3.9-2,8.2-1.1,12.1-1.8c2.5,1.4,5.1,2,7.9,0.2c4.8-0.3,9.6-0.7,14.4-1c1.9,1.9,0.9,4.5,1.2,6.7c0.2,1.2-0.1,2.9,1.5,3.1 c1.6,0.1,2.2-1.4,2.5-2.8c0.6-2,0.1-4.2,0.6-6.2c0.2-0.7,0.4-1.3,1.2-1.5c11.3-0.7,22.7-1.4,34.1-2c0.8-0.5,1.6-0.3,2.4,0.1 c4.8,2.2,9.5,2.2,14-0.8c0.3-0.2,0.8-0.2,1.2-0.1c7.6-0.2,15.2-0.5,22.8-0.7c1.4,0,2.8-0.3,3.8,1.1c4.2,5.9,8.5,11.8,13.2,18.3 c-12.5,0.6-24.5,1.1-36.4,1.6c-41.4,1.8-82.7,4.8-124,9.3c-87.9,9.5-174.2,27-259.3,51C83.6,471,45.8,486.4,9.4,505.2 c-0.6,0.3-1.2,0.7-1.8,1c-0.8,0.3-1.7,1.2-2.5-0.1c-0.6-1,0.2-1.5,0.7-2.1c2.7-3.1,5.8-5.9,8-9.3c2.3-3.8,5.7-5.8,9.5-7.9 c43.8-24.4,90.6-40.7,138.8-53.2c15.4-4,30.8-8,46.2-11.8c6.8,6.4,15.2,6,23.4,4.4c10.8-2,20.2-7,27.6-15.3c1-1.1,1.9-2.4,3.7-2.7 c4.7,0.6,9-1.5,13.6-2.1c0.8-0.4,1.6-0.2,2.4,0.1c5,1.9,9.4,0.4,13.5-2.5c1-0.7,1.9-1.6,3.2-2.1c1.4-0.4,2.8-0.9,4.3-0.7 c2.5,1.8,5.1,3.6,7.2-0.6c3.5-0.7,6.9-1.4,10.4-2.2c2.2-0.4,4.4-1.2,6.5-1.9c8.5-1.2,16.8-3.6,25.5-3.2c3.6-0.4,7.1-0.8,10.7-1.2 c0.1,0,0.3-0.1,0.4-0.1c7.8,3.8,14.4,1,20.7-3.5c0.8-0.3,1.6-0.4,2.4-0.2c0.5,0.1,1,0.4,1.4,0.8 C388.8,392.1,388.8,392.1,391.2,387.9z"/>
    <path d="M565.5,426.8c-5.2,0.2-9.6,0.5-14.1,0.6c-37.9,0.8-75.9,1.8-113.8,3.7c-38.9,1.8-77.6,5.7-116.2,11.5 c-33,5-66,10.2-98.7,16.9C173.4,469.6,126,485.9,80,506c-0.8,0.3-1.5,0.7-2.3,1c-0.9,0.3-1.9,1-2.5-0.3c-0.5-1,0.5-1.5,1.1-2 c8.6-6.7,16.4-14.3,26.7-19c55.2-25.4,112.7-42.5,172.6-52.3c38.1-6.3,76.3-12.3,114.6-16.5c36.5-4,73-6.5,109.7-7.9 c15.6-0.5,31.3-0.7,46.9-1.1c2.8-0.1,4.4,0.7,6,2.9C556.8,416.1,561,421.1,565.5,426.8z"/>
    <path d="M263,408.2c-9.8,12.6-23.1,18.9-38.8,20c-4,0.3-8.1-0.4-11.9-2c-2-0.9-3.7-2-4.1-4.4c0.6-2.3,2-4.3,3.6-6.2 c8-10.4,15.8-20.9,22.2-32.4c1.5-2.7,3.2-5.3,3.9-8.7c-8.2-2-16-0.1-23.7,2c-4.5,1.2-8.7,3.3-13,5c-1.9,0.7-3.9,1.6-5.2-0.8 c-1.3-2.5,0.4-4,2.3-5.1c12-6.5,24.8-10.1,38.6-8.9c8.2,0.7,10.4,4.4,7.2,12c-4.9,11.6-12.4,21.7-19.8,31.8c-2,2.9-4.2,5.7-6.2,8.5 c4.7,2.3,9.5,0.8,14.2,0c6-1,11.1-4.5,16.6-6.7c4.7-2.5,7.6-6.8,10.3-11.3c1.3-2.1,2.7-4.9,5.8-3c3,1.8,1.3,4.5,0.2,6.6 C264.8,406.1,263.9,407.1,263,408.2z"/>
    <path d="M84.4,341.2c-6.9-0.1-12.6-2.1-16.6-7.6c-0.8-1.1-2.7-2.8-0.1-3.6c2-0.7,3.7-4.9,6.4-1.4c3.3,4.2,7.5,5.8,12.6,4.9 c2.1-0.3,4.1-1.3,4.5-3.9c0.3-2.5-1.2-4.1-3.3-4.8c-3.9-1.4-7.8-2.4-11.6-3.9c-6.4-2.3-8.8-5.7-8.5-11.5c0.3-5.6,3.8-9.6,10-10.9 c7.4-1.5,14.3-0.2,19.7,5.7c1.1,1.2,2.3,2.7,0,3.6c-1.9,0.7-2.9,5.2-6,1.9c-3-3.1-6.4-4.5-10.6-4c-2.1,0.3-3.9,1.3-4.2,3.6 c-0.3,2,0.9,3.6,2.8,4.3c4.7,1.7,9.6,3.2,14.3,5.1c4.1,1.7,6.4,5,6.4,9.6c0,4.8-2,8.4-6.3,10.7C91,340.6,87.5,341,84.4,341.2z"/>
    <path d="M146.8,314.4c2.3-1.8,4-3.2,6-3.9c7.4-2.7,12.9,0.9,13,8.6c0.1,6-0.1,12.1,0.1,18.2c0,2.2-0.3,3.3-3,3.2 c-7.8-0.3-6.1,0.7-6.2-6.2c-0.1-4.1,0-8.2,0-12.2c0-2.4-0.4-4.8-3.6-4.5c-3,0.3-6.1,0.7-6.2,4.8c-0.1,4.9-0.1,9.9,0,14.8 c0.1,2.4-0.4,3.5-3.2,3.5c-6-0.1-6,0.1-6-6c0-10.8,0.2-21.7-0.1-32.5c-0.1-3.9,2-3.3,4.2-3.1c2,0.2,5.4-1.6,5.1,3.1 C146.6,305.8,146.8,309.7,146.8,314.4z"/>
    <path d="M307.1,400.3c0,1.9-0.4,3.9-2.5,4.3c-2.4,0.5-3.2-1.8-4.5-3.2c-1.8-2.3-3-0.1-4.2,0.7c-7.1,6.6-11.8,7.5-19.3,3.9 c-7.3-7.5-7.9-17.4-9.3-27c-0.5-3.2-0.6-6.4-0.6-9.7c0-2.3,0.8-4.8,3.7-4.9c3.1-0.1,3.5,2.4,3.6,4.8c0.3,7.3,0.7,14.7,2.5,21.8 c0.4,1.6,0.9,3.3,1.6,4.8c1.3,3.1,3.3,5.8,7.1,5.6c3.9-0.1,6.7-2,8.4-5.5c1.4-2.9,1.8-5.9,1.2-9.1c-0.8-4.9-1.7-9.7-2.5-14.6 c-0.2-1.1-0.4-2.2-0.4-3.4c-0.1-2.5-0.3-5.7,3-6.1c3.6-0.4,3.5,3.1,3.8,5.4C300,379.4,302,390.2,307.1,400.3z"/>
    <path d="M391.2,387.9c0.5,2.1,0,4.2-2.3,4.7c-3,0.6-3.3-2.4-4.8-3.9c-1.1-1.2-2-1.6-2.9,0.3c-3,1.7-5.3,4.4-8.9,5.2 c-4.5,1.1-8.6,0.4-12.1-2.4c-4.2-5.2-5.5-11.3-6.2-17.6c-0.7-6.3-1.3-12.6-0.7-19c0.2-2.5,1-5,4.1-4.9c3.1,0.1,3.1,2.8,3.1,5.1 c0,8.1-0.4,16.1,1.5,24c1.6,6.6,4.3,9.2,8.9,8.7c5.1-0.5,8.6-4.6,9.1-10.6c0.5-6.1-1-12-1.4-18.1c-0.1-2.1-0.4-4.2,0.2-6.3 c0.5-1.8,1.6-3.1,3.6-2.9c1.8,0.2,2.4,1.7,2.5,3.4c0.5,5.5,0.9,10.9,1.6,16.4C387.4,376.2,388.9,382.1,391.2,387.9z"/>
    <path d="M429.7,384c-1.9,2.9-4.1,4.2-6.6,0.6c-1.4-2-0.4-4.1-0.1-6.1c0.8-5.1,0.9-10.1,0.2-15.1c-0.7-5.3-3.6-8.2-7.5-8.1 c-3.9,0.1-7.8,4.1-8.3,8.9c-0.5,4.7,0.9,9.2,1.8,13.8c0.5,2.7,2.2,5.3,0.5,8.2c-0.1,0.4-0.1,0.8-0.2,1.2c-0.1,1.9-0.8,3.6-3,3.9 c-3.3,0.4-3-2.5-3.9-4.4c-0.5-8.3-2.8-16.3-3.8-24.6c-0.5-3.8-1-7.5-0.6-11.3c0.2-2.2,0.5-4.8,3.7-4.6c3.2,0.2,2.5,2.8,2.5,4.8 c0,1,0,1.9,0,3.1c1.5,0,1.9-1.4,2.8-2.2c7.4-7.2,18.7-5,22.3,4.8c3.2,8.2,2.5,16.5,0.7,25C430,382.3,429.9,383.1,429.7,384z"/>
    <path d="M451.3,382.2c-0.2,3-0.3,5.9-0.7,8.8c-0.3,1.9-1.4,3.9-3.9,3.6c-2.8-0.3-2.5-2.4-2.5-4.5c0-2.3,0-4.8,0-7.1 c0.1-2.2,0.2-4.5,0.3-6.7c0.2-3.6,0.8-7.4-5-6.9c-1.7,0.2-2.2-1.4-2.1-3.1c0-1.7,1.2-2.9,2.7-2.7c4.7,0.6,4.4-2.1,4.2-5.3 c-0.2-4.2-0.5-8.5,1-12.5c3.6-9.5,18.1-13.5,26-7.1c1.4,1.1,2.3,2.5,1.5,4.4c-1,2.1-2.8,1.9-4.7,1.1c-2.5-1.1-5.3-2-8.2-1.9 c-5.2,0.2-8.4,3.1-9,8.3c0,0.4-0.1,0.8-0.1,1.2c0,3.7-1.1,8.1,0.5,10.7c1.6,2.5,6.4,1,9.9,1.6c1.2,0.2,2.4,0.4,3.7,0.8 c1.7,0.5,2.5,1.7,2.1,3.6c-0.4,1.8-1.7,2.3-3.5,2.1c-3.1-0.3-6.2-0.4-9.3-0.9c-2.8-0.5-3.4,0.6-3.2,3.2 C451.4,376,451.3,379.1,451.3,382.2z"/>
    <path d="M191,336.7c-3.8,3.1-7.5,5-12.3,4c-3.9-0.8-6-3.2-6.2-6.9c-0.2-7,0-14.1-0.1-21.1c0-2,0.9-2.3,2.5-2.2 c1.2,0.1,2.5,0.1,3.8,0c2.2-0.2,3,0.7,2.9,2.9c-0.1,5.1,0,10.1,0,15.2c0,2.7,0.1,5.3,3.9,5.2c3.4-0.1,5.9-2.4,6-5.6 c0.1-4.8,0.3-9.6-0.1-14.4c-0.3-4.1,2.3-3.4,4.6-3.3c2.1,0.1,4.8-1.1,4.7,3.1c-0.3,8.1-0.2,16,0,24.1c0,2.2-0.6,3.2-2.9,2.8 C195.1,339.9,191.1,342.3,191,336.7z"/>
    <path d="M503,379.3c-4.2,4.7-10.1,5-17.6,0.9c-5.3-6.1-5.9-13.5-5.2-21c0.3-2.7,0.4-4-3-3c-2.4,0.7-6.3,2.3-7-1.6 c-0.7-3.6,3.5-3.8,5.9-4.7c2.7-0.9,6.1,0,7.2-4.2c0.6-2.7,2.1-6,5.6-5c3.9,1.1,1.2,4.5,1.1,7c2.5,0.4,5.2,0.7,7.8,1.1 c1.7,0.3,3.3,1,4.4,2.3c0.9,1.2,1,2.7,0.2,4c-0.8,1.2-1.9,1.2-3.4,0.8c-2.8-0.9-5.6-2-8.6-1.9c-1.5,0-2.8,0.3-3,2.1 c-0.5,4.5-0.9,9,0.2,13.5c1.4,5.7,4.7,7.4,10.3,5.7C502,374.2,502.8,374.8,503,379.3z"/>
    <path d="M104.5,326.2c0-11.8,7.9-18.3,18.7-16.2c2.5,0.5,4.8,1.6,6.5,3.7c1.2,1.5,3.4,3.8,2.4,5c-1.1,1.5-4,1.8-6.1,2.4 c-1.6,0.4-1.5-1.2-2.1-2c-2.8-3.8-7.4-3.4-9.4,1c-1.4,3.3-1.2,6.6-0.4,10c0.5,2.2,1.8,4.2,4.5,4.5c2.5,0.3,4.3-0.8,5.6-3 c1.1-1.8,6.9-1.6,8.1,0.3c0.6,1.1-0.4,1.8-0.8,2.7c-3.1,5.2-8.9,7.4-15.8,6.1c-6.1-1.2-10.2-5.5-11-11.7 C104.5,327.6,104.5,326.5,104.5,326.2z"/>
    <path d="M208,319.4c0-5.8,0.1-11.5-0.1-17.3c-0.1-2.4,0.4-3.5,3.2-3.4c6,0.1,6-0.1,6,6c0,10.7-0.2,21.4,0.1,32.1 c0.1,4.7-2.9,3.3-5.2,3.6c-2.8,0.3-4.4-0.1-4.2-3.7C208.3,331,208,325.2,208,319.4z"/>
    <path d="M319.8,368.3c6-4.6,12-9.1,18.2-13.6c1.5-1.1,3.5-1.6,4.9,0.2c1.5,1.8,0.5,3.7-1,4.8c-4.3,3.4-8.8,6.4-13.4,9.8 c5.8,4.7,11.6,9.1,16.3,14.7c1.8,2.1,3.6,4.4,2.9,7.5c-1.7,2.8-4.6,2.3-5.9,0.7c-6.5-7.6-14.2-14.1-21.9-20.4 C319,370.9,318.7,369.6,319.8,368.3z"/>
    <path d="M354.2,314.5c1.7-1.3,2.5-2.2,3.7-3c1.9-1.2,4.5-2.7,6.2-1.3c1.5,1.1,0.3,4,0.4,6.1c0.1,1.5-1.1,1.2-2,1.3 c-8.2,1.2-8.7,3.5-8.3,9.4c0.2,3.5-0.1,7,0.1,10.5c0.1,2.2-0.7,2.9-2.9,2.9c-6.2,0.1-6.2,0.2-6.2-6.1c0-6.2,0.3-12.4-0.1-18.6 c-0.3-4.4,0.9-5.9,5.4-5.5C353,310.5,354.7,310.7,354.2,314.5z"/>
    <path d="M322.6,397.2c-1.4,1.6-3.2,2.1-5.1,0.9c-1.9-12.5-5.7-24.9-6.2-37.7c-0.1-2.4,0.2-4.8,1.1-7c0.6-1.6,1.8-3,3.9-2.4 c2.1,0.5,2.9,1.9,2.4,4.2c-0.8,4.5-1,8.9,0,13.4c0.7,1.7,0.6,3.8,1.7,5.4c1.5,5.6,2.7,11.2,3.5,16.9 C324.4,392.9,325.3,395.5,322.6,397.2z"/>
    <path d="M249.1,412.4c-8.6,6.8-18.4,9.7-29.3,8.6c-1.4-0.1-1.4-0.2-1.6-1.8c9.1-2,18.1-4.1,27.1-6.1 C246.5,412.6,247.9,412.5,249.1,412.4z"/>
    <path d="M221.5,476.1c0,1.4-0.9,2.1-2.1,2c-1.1,0-2.1-0.7-2.1-2c0-1.5,1-2.3,2.4-2.2C220.9,473.8,221.6,474.7,221.5,476.1z"/>
    <path d="M590.8,475.5c-0.1,1.8-1,2.5-2.1,2.5c-1.2,0-2.1-0.6-2.1-2c0-1.5,0.9-2.3,2.3-2.2C590,473.8,590.7,474.7,590.8,475.5z"/>
    <path d="M529.6,475.8c-0.1,1.2-0.7,2.1-2,2.2c-1.2,0.1-2.1-0.5-2.3-1.8c-0.1-1.5,0.7-2.4,2.1-2.5 C528.6,473.7,529.4,474.5,529.6,475.8z"/>
    <path d="M347.9,476.7c-1.5-0.1-2.1-0.7-2-1.9c0.1-1,0.7-1.4,1.7-1.5c1.1-0.1,1.9,0.4,1.9,1.6C349.5,476.2,348.6,476.5,347.9,476.7z"/>
    <path d="M343.6,475.4c-0.1,1.2-1,1.5-2,1.5c-1.1,0-1.8-0.5-1.6-1.7c0.2-1.1,0.9-1.7,2-1.6C343.1,473.5,343.6,474.3,343.6,475.4z"/>
    <path d="M55.5,257.5c0.3,0.3,0.6,0.6,0.8,0.8c-0.9,1.5-2.1,2.8-4.7,4.4C53.2,260.2,53.8,258.4,55.5,257.5z"/>
    <path d="M305.5,338.7c-0.1-11.2-0.2-22.5-0.3-33.8c0-6.3,0-6.1-6.3-6.1c-2.4,0-3.1,0.8-3,3.2c0.2,3.7,0,7.3,0,11.4 c-10.2-7-19.4-2.7-20.4,9.1c-0.2,1.9-0.2,4,0,5.9c0.3,5,1.8,9.6,6.9,11.6c4.9,1.9,9.4,0.9,13.1-3.2c1,3.1,6.6,5,9.5,3.6 C306.1,339.9,305.5,339.3,305.5,338.7z M290.4,333.8c-3.9,0.1-6.1-3.1-6-8.5c0.1-5.3,2.1-8.1,6-8c4.3,0.1,5.6,2,5.6,8.2 S294.6,333.8,290.4,333.8z"/>
    <path d="M239.3,309.9c-11.9-0.6-19.3,9.5-15.6,21.4c2.9,9.1,14.1,12.5,24.1,7.6c3.3-1.6,3.7-3.1,1.4-5.9c-1.3-1.7-2-1.4-3.7-0.5 c-5.7,3.4-11.2,2.5-12.9-1.6c-0.7-1.7-1-3.4,1.9-3.1c2.3,0.2,4.8,0,7.1,0c2.7,0,5.3,0,8.1,0c1,0,1.7,0,2-1.4 C253.5,318.7,247.1,310.2,239.3,309.9z M243.4,321.7c-0.5,1.4-1.9,0.6-3,0.7c-1.2,0.1-2.5,0.2-3.8,0c-1.4-0.3-3.9,1.3-4.1-1.2 c-0.2-2.1,1.4-3.9,3.6-4.6c0.6-0.2,1.3-0.3,1.7-0.4c2.1,0.2,3.7,0.7,4.6,2.3C243,319.6,243.8,320.6,243.4,321.7z"/>
    <path d="M323.3,327.9c1.9-0.1,4,0,5.9,0c2.7,0,5.4,0,8.1,0c1.1,0,2.2,0.1,2.2-1.6c-0.1-5.5-0.8-10.9-5.9-14.2 c-5.2-3.4-10.8-3.1-16,0.1c-5.9,3.5-7.4,9.3-6.8,15.7c0.6,6.1,3.6,10.7,9.7,12.4c5.2,1.5,10.4,1,15.2-1.5c1.4-0.8,4.3-1.2,2.2-4.1 c-1.3-1.9-1.9-4.1-5.2-1.8c-4.4,3.1-9.4,2.3-11.4-0.7c-0.7-1-1.4-2.4-1.2-3.5C320.4,327,322.2,328,323.3,327.9z M326,316.3 c3,0.2,5.2,1.8,5,4.6c-0.3,3.6-3.7,0.5-5.2,1.8c-1.8-0.9-4.5,1.2-5.4-1.4C319.6,319.2,323.2,316.1,326,316.3z"/>
  </g>
  <g>
	<path d="M604.9,486.9c1,0.1,1.9,0,2.8-0.8c0-0.6,0-1.1,0-1.7c-1.3-2.5-6.4-0.7-6.2-5.3c0-0.7-1.7-0.3-1.9,0.4 c-1,2.5-3.1,3.4-5.5,3.7c-0.8,0.1-1.6,0.6-1.5,1.6c0.1,0.8,0.7,1.3,1.4,1.1c3.9-1,2.8,1.7,2.8,3.6c0.1,6.8,2.4,9,9.4,8.4 c2.4-2.7,1.4-3.9-1.7-4.3c-3.2-0.4-3.2-2.7-3.1-5C601.4,486,603.3,486.8,604.9,486.9z"/>
	<path d="M209.9,486.9c-1.6-1-0.5-1.7-0.1-2.8c2-5.1-0.2-9.5-5.5-10.5c-3.5-0.7-7-0.6-10.3,0.9c-1.2,0.6-3.6,1-2.8,3 c0.9,2.2,2.7,0,4,0c2.3,0.1,1.1,1.7,1.1,2.9c-0.3,6.4-0.7,13-1,19.4c-0.1,1.3,0.1,3.8,1.7,3.1c2.7-1.2,5.2-0.1,7.8-0.6 c3.8-0.7,7-2.3,8.4-6.2C214.3,492.3,213.4,489,209.9,486.9z M207.3,498c-2.7,1.5-5.7,1.7-8.1,0.2c-1.8-1.2-0.1-4-0.6-5.4 c0.3-5.4,0.6-10.1,0.8-14.9c0-0.7-0.4-1.5,0.7-1.5c2.8,0.1,5.7,0.2,6.6,3.4c0.8,2.8,0.1,5-3.3,5.7c-1.2,0.2-3,0.1-2.9,1.8 c0.2,2.1,2.1,1.2,3.4,1.3c2.7,0.2,5.1,0.6,5.8,3.8C210.5,494.8,209.4,496.8,207.3,498z"/>
	<path d="M402.6,474.4c-1.9-0.3-1.8,1.7-2.2,3c-0.2,0.6-0.2,1.4-0.3,2c-0.6,5.4-1.1,10.9-1.7,16.9c-4.9-6.3-8.2-12.5-11.1-19.2 c-0.5-1.1-0.6-2.8-2.2-2.8c-1.7,0-2.1,1.6-2.4,3c-1.6,7.1-2.8,14.4-2.7,21.7c0,1.4-0.1,3.3,1.7,3.3c2,0,1.5-1.9,1.5-3.3 c0.1-5.9,0.3-11.8,1.9-18.3c1.5,2.9,2.4,4.8,3.6,6.7c2.7,4.7,5.3,9.3,8.9,13.3c0.8,1,1.9,1.7,3.4,1.3c1.2-0.3,1.1-1.5,1.1-2.4 c-0.5-7.4,0.4-14.9,1.5-22.2C403.8,476.5,404.3,474.7,402.6,474.4z"/>
	<path d="M546.5,477.5c-2.5,0.1-5.1,0.1-7.5,0.6c-5,0.9-7.4,5.7-5,10.3c0.8,1.5,0.8,2.4-0.1,3.7c-0.7,0.9-1.8,2-1,3.4 c0.9,1.2,2.3,0.6,3.6,0.5c2.1-0.2,4.3-0.7,6,1c0.5,0.5,0.3,1.4-0.3,1.8c-1.9,1.5-4.2,1.3-6.4,1c-0.4,0-0.8-0.2-1.1-0.4 c-1-0.6-2-2.2-3-0.2c-0.7,1.6,0.5,2.7,1.9,3.2c3.7,1.4,7.2,0.9,10.5-1.1c1.7-1,2.2-2.8,1.9-4.8c-0.3-2.2-1.9-3.2-3.8-3.4 c-1.7-0.2-3.7,0-5.8,0c1.3-2.7,3.1-1.7,4.5-1.9c4.3-0.6,6.5-3.4,6-7.5c-0.2-1.4-1.7-3,1.1-4.2C549.3,478.8,547.7,477.5,546.5,477.5 z M539.9,488.2c-2.2-0.1-3.8-1-3.6-3.6c0.2-2.4,1.5-3.9,4.1-3.9c2.3,0,3.7,1.4,3.6,3.7C543.9,487,542.3,488.2,539.9,488.2z"/>
	<path d="M307,477.6c-2.5,0.1-5.1,0.1-7.5,0.5c-5,0.9-7.4,5.7-5.1,10.2c0.7,1.4,0.9,2.3-0.1,3.7c-0.7,0.9-1.7,2.1-1,3.4 c0.8,1.3,2.2,0.6,3.5,0.5c2.1-0.2,4.3-0.7,6,0.9c0.6,0.6,0.3,1.4-0.3,1.8c-2,1.6-4.5,1.3-6.8,0.9c-0.3,0-0.5-0.2-0.7-0.3 c-0.9-0.7-2-2.2-3-0.2c-0.8,1.6,0.5,2.7,1.9,3.2c3.7,1.4,7.2,0.9,10.5-1c1.9-1.1,2.3-3.1,1.9-5.2c-0.4-1.9-1.9-2.8-3.7-3 c-1.8-0.2-3.7,0-5.8,0c1.2-2.7,3.1-1.7,4.5-1.9c4.3-0.6,6.6-3.5,6.1-7.5c-0.2-1.4-1.7-3,1-4.1C309.7,478.9,308.3,477.5,307,477.6z M300.4,488.2c-2-0.1-3.8-0.7-3.7-3.4c0.1-2.4,1.3-4,3.8-4.2c2.3-0.1,3.8,1.1,3.9,3.5C304.5,486.8,303,488,300.4,488.2z"/>
	<path d="M249.1,474.3c-1.2,0-1.7,1-1.6,2c0.2,3.6-1.5,4.1-4.8,3.8c-4.3-0.4-7.2,1.9-8.7,5.9c-1.3,3.8-1.9,7.9,1.3,11 c3,2.9,6.4,2.1,9.7,0.3c0.9-0.5,1.6-1.1,1.8,0.6c0.1,0.9,0.7,1.6,1.7,1.4c1.2-0.2,1.2-1.4,1.3-2.3c0.1-3.5,0-7,0-10.5 c0.2,0,0.3,0,0.5,0c0-3.3,0-6.4,0-9.7C250.4,475.8,250.9,474.4,249.1,474.3z M246.8,488.2c-0.1,4.8-2.7,8.2-6.1,8 c-3.4-0.2-4.5-2.5-4.5-5.5c-0.1-4.7,3-8.1,6.9-7.9C246.4,482.9,246.9,483.7,246.8,488.2z"/>
	<path d="M571,480.8c-2.7,2.4-3.6,5.6-3.9,9.1c0,4.3,1.5,7.1,4.6,8.3c3.3,1.2,6.1,0.4,8.6-1.8c0.9-0.8,1.5-1.7,0.5-2.9 c-1-1-1.8-0.3-2.5,0.4c-1.2,1.3-2.7,2-4.5,1.6c-2.2-0.4-3.1-2-3.2-3.9c-0.1-2.5,2-1.1,3.1-1.3c1.7-0.4,3.7-0.5,5.4-0.8 c4.3-0.8,5.5-3.5,3.2-7.3C580,478.2,574.6,477.6,571,480.8z M579.8,485.1c-0.6,3.1-3.8,1-5.3,2.1c-1.3-0.5-3.5,0.6-3.2-1.2 c0.4-2.4,2.2-4.2,5-4.2C578.6,481.7,580.3,483.2,579.8,485.1z"/>
	<path d="M468,480.8c0.3-1.6,0.5-2.8,0.6-3.9c0.1-0.9,0.1-1.7-1-2c-1.3-0.4-1.8,0.6-1.9,1.6c-1.4,7.3-1.6,14.8-0.7,22.3 c0.1,1,0.4,2.5,1.9,2.2c1.5-0.3,1.1-1.7,1-2.9c-0.1-3.8-0.4-7.6-0.4-11.4c0.1-3,2.1-4.2,4.8-4.3c2.8-0.1,3.7,1.8,4,4.1 c0.5,3.6,0.4,7-0.7,10.5c-0.3,1-0.8,2.3,0.8,2.9c1.4,0.4,1.9-0.8,2.3-1.8c1.2-3.3,1.1-6.6,0.9-10 C479.3,480.6,475.4,478.2,468,480.8z"/>
	<path d="M448.5,480.4c0-0.9,0-1.4,0-2c-0.1-1.2,1.1-3.2-1-3.5c-2-0.3-1.7,1.9-1.9,3.2c-1.1,6.7-1.6,13.5-0.5,20.2 c0.2,1.2,0.1,3,1.8,2.8c1.7-0.1,1.3-1.7,1.2-3.1c-0.2-3.8-0.4-7.6-0.3-11.4c0-2.8,2-3.9,4.6-4.1c2.4-0.2,3.5,1.2,4.1,3.4 c1,3.7,0.4,7.2-0.5,10.8c-0.3,1.2-1.1,2.7,0.7,3.1c1.6,0.4,2.1-1.1,2.4-2.2c0.9-3.2,1-6.4,0.7-9.6 C459.1,480.5,455.9,478.4,448.5,480.4z"/>
	<path d="M486.7,480.4c-0.8,0.5-1.8,1-1.5,2.2c0.4,1.2,1.4,1.1,2.4,0.7c4.1-1.8,5.7,0.3,6.7,4.8c-1.1-0.4-1.5-0.6-2-0.8 c-3-0.9-5.7-0.5-7.6,1.9c-1.8,2.2-1.9,4.9-0.7,7.5c1.3,2.9,3.9,3.4,6.7,3.1c0.8-0.1,1.6-0.4,2.3,0.4c1.8,1.8,2.4,0.2,2.9-1.2 c1.4-4.8,2.1-9.7,0.7-14.6C495.4,480.4,490.3,478.4,486.7,480.4z M490.3,497.3c-2.5,0-3.9-1.3-3.8-3.9c0-2.7,1.6-3.8,4-3.8 c2.3,0,3.6,1.4,3.6,3.7C494.1,495.8,492.8,497.3,490.3,497.3z"/>
	<path d="M351.3,485.5c0-0.2,0-1.4,0-2.8c0-1,0.5-2.5-1.1-2.8c-1.8-0.2-1.8,1.4-1.9,2.7c-0.2,2.2-0.2,4.5-0.3,6.7 c-0.1,3.3-0.5,6.7-4.6,6.8c-4.6,0-3.9-4.1-3.9-6.9c-0.1-2.5,0.5-5,0.6-7.5c0.1-1.1,0.7-2.9-1.1-3.1c-1.6-0.2-2,1.2-2.2,2.5 c-0.4,4.2-1.1,8.4-0.2,12.6c1.2,5.6,5.1,7.3,10,4.4c1.1-0.7,2.1-2.3,3,0.3c0.2,0.8,0.9,1.5,1.9,1c0.9-0.4,0.8-1.3,0.7-2.2 C351.7,493.6,350.9,490.1,351.3,485.5z"/>
	<path d="M410,480.5c-0.8,0.6-1.7,1.2-1.1,2.3c0.5,0.9,1.4,0.8,2.2,0.4c4.2-1.8,5.8,0.3,6.8,4.6c-1-0.3-1.6-0.5-2.2-0.7 c-2.8-0.7-5.4-0.4-7.3,1.9c-1.8,2.2-2,4.9-0.9,7.5c1.2,3,3.8,3.5,6.6,3.3c0.8-0.1,1.6-0.5,2.3,0.3c1.6,1.8,2.5,0.4,3-1 c1.4-4.8,2-9.7,0.7-14.6C419.1,480.3,413.6,478.3,410,480.5z M414,497.3c-2.5,0-3.9-1.2-3.9-3.8c0-2.7,1.4-3.9,3.9-3.9 c2.3,0,3.7,1.4,3.7,3.7C417.8,495.6,416.7,497.3,414,497.3z"/>
	<path d="M270.3,482.5c0.1-1.1,0.2-2.5-1.4-2.5c-1.5,0-1.6,1.3-1.7,2.4c-0.1,2.3,0,4.8-0.2,7.1c-0.3,3.2-0.8,6.7-5,6.5 c-4-0.1-3.6-3.8-3.7-6.4c-0.1-2.8,0.4-5.6,0.6-8.5c0.1-1,0.6-2.4-1-2.8c-1.7-0.3-2,1.2-2.2,2.4c-0.3,1.9-0.4,4-0.5,5.9h0.1 c0,1.7-0.1,3.4,0,5.1c0.7,7.2,4.5,9.2,10.9,5.5c0.9-0.5,1.5-1.4,2,0.3c0.3,0.9,0.8,2,2,1.5c1-0.4,1-1.4,0.8-2.5 C270.1,492.1,269.7,487.4,270.3,482.5z"/>
	<path d="M437.8,493.6c-2.2,2.3-5.1,3.5-8,1.7c-3.7-2.2-2.8-6.2-2.1-9.6c0.6-3.1,2.5-5,5.9-5c1.5,0,3.1,0.1,4.1,1.6 c0.5,0.9,1.1,2.3,2.5,1.2c1.3-1,0.5-2.3-0.2-3.4c-1.1-1.5-3-2.1-4.7-2.4c-6.5-1.1-11.1,3.7-11.2,12.7c0.1,2.5,0.8,6.2,4.8,7.8 c4,1.5,7.8,0.7,10.8-2.3c0.9-0.9,2.5-2.1,1.3-3.5C439.5,490.6,438.7,492.6,437.8,493.6z"/>
	<path d="M333.6,476.9c-5-2.8-10.6-0.2-11.6,5.4c-0.3,1.6-0.2,3.4-0.5,5c-0.3,1.6-3.5,0.1-3,2.7c0.3,1.6,3.6,0.5,3.1,3.2 c-0.3,1.6-0.2,3.4-0.4,5.1c-0.1,0.7-0.2,1.4-0.3,2.1c-0.1,1.1,0.2,2,1.4,2.1c1,0.1,1.5-0.7,1.6-1.6c0.3-2,0.7-4.2,0.6-6.3 c-0.1-3,0.9-3.7,3.7-2.9c1.1,0.3,3.3,1.3,3.6-0.7c0.3-2-1.9-2-3.4-2.2c-2.1-0.2-4.5-0.1-3.7-3.1c0.1-6.2,1.7-7.4,7.6-5.9 c0.9,0.2,1.9,0.9,2.5-0.3C335.7,478.2,334.6,477.5,333.6,476.9z"/>
	<path d="M286.8,480.9c-3-1.7-5.7-0.6-8.2,1.3c-0.8-1,0.7-3.2-1.6-3.3c-0.9,0-1.3,0.8-1.4,1.7c-0.6,5.9,0.3,11.8,0.9,17.6 c0.1,0.8,0.6,1.3,1.4,1.1c0.4-0.1,1-0.6,1.1-1c0.1-1.4,0.1-2.8,0.1-4.2c-0.1-2.7-1.2-5.2-0.1-8c0.9-2.2,2.4-3.5,4.8-3.3 c2.1,0.2,2.9,1.9,3.1,3.9c0.3,2.9-0.1,5.6-0.8,8.4c-0.3,1-0.9,2.3,0.7,2.8c1.5,0.4,1.8-1,2.2-2c0.8-2.4,1.2-4.9,1.2-7.4 C290.1,485.6,289.8,482.7,286.8,480.9z"/>
	<path d="M521.3,483.1c-1.9-0.8-4.8-0.4-4.6-4c0-0.7-1.6-0.4-1.9,0.3c-1.1,2.4-3,3.5-5.5,3.7c-0.8,0.1-1.7,0.6-1.6,1.6 c0.1,1,1,1.4,1.8,1.1c2.8-0.8,2.5,0.8,2.4,2.7c-0.1,2.1-0.1,4.2,0.9,6.2c1.3,2.9,5,4.3,7.9,3.1c1-0.4,1.7-1,1.4-2.2 c-0.2-1.1-1-1.2-1.9-0.9c-5,1.2-4.8-2.2-5-5.3c-0.4-4.1,1.1-5.3,4.9-3.6c0.9,0.4,2,0.6,2.4-0.7 C522.7,484.2,522.1,483.4,521.3,483.1z"/>
	<path d="M365.5,481.4c-1.4-0.4-3-0.1-4,0.8c-1.4,1.3-2,1.2-2.9-0.5c-0.4-0.9-1.1-1.7-2.3-1.1c-1.1,0.6-1,1.4-0.5,2.4 c2.2,4,2.4,8.3,1.3,12.6c-0.2,1-0.4,2,0.9,2.3c1.2,0.3,1.8-0.6,2.1-1.5c0.9-2.5,0.8-5.2,0.9-7.9c0.1-2.3,0.6-4.7,3.9-4  c1.2,0.3,2.5,1.3,2.9-0.7C368.1,482.4,366.8,481.8,365.5,481.4z"/>
	<path d="M505.1,488.7c0.1,0,0.2,0,0.3,0c0-3.1,0-6.2,0-9.3c0-1.2,0.4-3-1.3-3.1c-1.6-0.2-1.8,1.5-1.9,2.8 c-0.3,6.6-0.4,13.2,0.4,19.8c0.1,1.1,0.4,2.4,1.8,2.2c1.4-0.2,1.2-1.6,1.2-2.8C505.5,495.2,505.3,492,505.1,488.7z"/>
	<path d="M563.8,482.6c0.2-0.2,0.5-0.3,0.7-0.5c0.7-0.5,1.4-1.1,1-2c-0.5-1.3-1.6-1-2.4-0.6c-3,1.5-5.9,3.1-8.9,4.7 c0,0.6,0.1,1.2,0.1,1.8c1.9,2.2,3.8,4.5,5.8,6.6c1.4,1.5,2,5.8,4.5,4.1c2.3-1.7-1-4.3-2.2-6.3c-1-1.6-3.6-3.2-3.5-4.6 C559,483.6,562.1,483.7,563.8,482.6z"/>
	<path d="M229.7,478.9c0.1-1.1-0.1-2.4-1.5-2.5c-1.5-0.1-1.6,1.2-1.7,2.3c0,3.3,0,6.4,0,9.7h0.1c0,3.3,0,6.4,0,9.7 c0,1.3,0.2,2.9,1.7,3c1.8,0.1,1.5-1.6,1.5-2.9C229.5,491.9,229,485.3,229.7,478.9z"/>
	<path d="M554.2,484.1c-1-1.9,0.1-3.8,0.4-5.6c0.2-1.1,0.3-2-0.8-2.3c-1.2-0.4-1.8,0.5-2.1,1.4c-0.4,1.3-0.8,2.8-0.8,4.1 c-0.1,4.2,0,8.5,0.1,12.6c0,1.3-0.9,3.6,1.4,3.6c1.9-0.1,1.5-2.3,1.7-3.8c0.4-2.7-1.3-5.5,0.2-8.2 C553.8,485.3,553.7,484.7,554.2,484.1z"/>
	<path d="M527.5,480.2c-2-0.2-1.9,1.6-2,3c-0.2,4.4,0.4,8.7-0.7,13c-0.3,1-0.3,2.1,0.9,2.4c1.5,0.4,2-0.7,2.1-1.9 c0.4-3.2,0.7-6.4,0.9-8.5c0-2.4,0-3.7,0-4.9C528.8,482.1,529.3,480.3,527.5,480.2z"/>
	<path d="M589.9,483.7c-0.1-1.2,0.7-3.3-1.3-3.5c-2.2-0.1-1.9,2-1.9,3.5c-0.1,4.1,0.3,8.2-0.6,12.1c-0.2,1.1-0.6,2.4,0.9,2.8 c1.7,0.4,2-1.1,2.1-2.3c0.3-3,0.6-5.8,0.9-8.8c-0.1,0-0.1,0-0.2,0C589.9,486.2,590,484.9,589.9,483.7z"/>
	<path d="M219.5,480.2c-1.8-0.1-1.7,1.6-1.8,2.8c-0.2,4.6,0.2,9.3-0.8,13.9c-0.2,0.9,0.2,1.7,1.1,1.9c1.2,0.2,1.6-0.7,1.9-1.7 c0.8-3.1,0.7-6.1,0.9-9.2c0-1.5,0.1-3.1,0-4.6C220.7,482.1,221.4,480.3,219.5,480.2z"/>
  </g>
  <g>
	<path d="M460.9,440.9c-2.7-0.8-4.7,0.4-6.2,2.4c-2.1,2.8-3,6-3.2,10c0,2.4,0.5,5.2,4,6c3.3,0.8,5.4-1,6.9-3.7 c1.6-2.9,2.4-6,2.2-9.3C464.5,443.8,463.7,441.7,460.9,440.9z M461.1,446.3c-0.1,2.8-0.7,5.3-1.6,7.8c-0.5,1.3-1.3,2.8-3,2.3 c-1.9-0.4-1.2-2.2-1.3-3.5c0.2-2.8,0.8-5.3,2.1-7.8c0.5-1,1.4-1.8,2.8-1.4C461,444.1,461.1,445.3,461.1,446.3z"/>
	<path d="M541.4,441.6c-3.5-1-5.6,1.1-7.2,3.8c-1.6,2.9-2.3,6-2.1,9.3c0.1,2.4,0.9,4.5,3.5,5.2c2.5,0.8,4.8-0.1,6.3-2.1 c2.1-2.8,3.1-6,3.2-9.4C545.3,445.4,544.8,442.5,541.4,441.6z M541.6,448.7c-0.5,1.7-1,4.1-1.8,6.3c-0.4,1.2-1.2,2.4-2.8,2.1 c-1.7-0.3-1.5-1.8-1.4-3.1c0-2.4,0.6-4.7,1.5-6.9c0.6-1.4,1.2-3.2,3.2-2.7C542.1,444.9,541.5,446.8,541.6,448.7z"/>
	<path d="M570.7,445c0.5-0.1,1.1,0,1.7,0c1.4,0.1,1.5-1,1.6-1.9c0.2-1.3-0.8-1.2-1.6-1.3c-1-0.1-1.9-0.1-3.8-0.2 c-4.8-1.5-4.4,3.3-5.5,6.2c-0.4,1-1.2,2.2-0.2,3.2c0.9,0.8,2,0.3,3.1-0.3c1.3-0.7,2.9-1.1,3.6,0.7c0.8,1.9,0.4,4-1.4,5.3 c-1.6,1.2-3,0.7-3.6-1.1c-0.6-1.7-1.9-1.1-2.8-0.8c-1.5,0.6-0.6,1.9-0.2,2.8c1.4,2.7,3.9,3.2,6.5,2.4c3.5-0.8,5-3.5,5.4-6.7 c0.3-2.5-0.8-4.5-3.4-5.7c-1-0.4-3.1,0.9-3-1.2C567.4,444.2,569.4,445.3,570.7,445z"/>
	<path d="M491.6,441.9c-2.7-2.1-5.6-1.8-8.1,0.4c-0.9,0.9-2.3,2.2-0.8,3.6c1,0.9,2.5,0.8,3.3-1.1c0.4-1.2,1.6-1.6,2.9-0.8 c1.3,0.9,1.2,2.2,0.3,3.3c-1.6,1.9-3.5,3.7-5.2,5.5c-1.6,1.7-4.3,3.6-3.4,5.8c0.6,1.6,3.9,0.8,5.8,0.6c1.7-0.2,5,1.7,5-1.7 c0-2.9-3.3-0.5-5.1-2.1c1.9-2,4-4,5.7-6.1C494,446.7,494.2,443.9,491.6,441.9z"/>
	<path d="M528.7,441.9c-2.5-1.7-6.6-0.9-8.3,1.6c-0.5,0.7-1.5,1.9-0.5,2.5c0.8,0.5,2.3,1.2,3.3-0.4c0.7-1.2,1.6-2.8,3.2-1.4 c1.7,1.4,0.7,3.2-0.5,4.4c-1.8,1.9-3.9,3.7-5.7,5.7c-1.2,1.3-3,2.9-2.1,4.7c0.6,1.4,2.8,0.5,4.3,0.6c1.5,0.1,3.1-0.1,4.7,0.1 c1.8,0.2,2.2-1.1,2.2-2.3c0.1-1.6-1.4-0.9-2.1-1c-0.9-0.1-1.9,0-3.9,0c2.5-2.9,4.8-4.8,6.5-7.1 C531.7,446.7,531.6,443.9,528.7,441.9z"/>
	<path d="M448.1,441.3c-2.4-1.9-6.5-1.2-8.3,1.4c-0.5,0.8-1.7,1.9-0.3,2.9c1,0.6,2.3,1.2,3.1-0.7c0.6-1.4,1.7-2.4,3.3-1 c1.4,1.3,0.6,2.7-0.3,3.7c-1.5,1.8-3.4,3.4-5,5.1c-1.6,1.6-4,3.5-3.3,5.5c0.7,2,3.8,0.9,5.7,0.7c1.8-0.1,5.3,1.7,5.3-1.8 c0-2.8-3.2-0.6-4.7-1.4c-0.1-0.1-0.2-0.1-1.1-0.9c2.3-2,4.8-3.7,6.5-5.8C450.9,446.3,450.9,443.4,448.1,441.3z"/>
	<path d="M557.3,441.7c-1.8-1.4-3.7,2.2-5.9,3.1c-1.5,0.5-3.8,1.4-2.9,3.4c0.8,1.9,2.5-0.6,4.2-0.1c0.2,3.1-1.1,6.1-1.5,9.3 c-0.1,0.8-1.3,2.3,0.8,2.5c1.3,0.1,2.3,0.1,2.7-1.7c0.5-3.2,1.6-6.3,2-9.5C556.9,446.3,559.1,443.1,557.3,441.7z"/>
	<path d="M476.7,440.9c-1.7-1.2-3.5,2.2-5.6,3c-0.1,0-0.2,0.1-0.4,0.2c-1.4,0.8-3.7,1.4-2.9,3.5c0.9,2,2.5-0.6,4.5,0 c-0.7,3.2-1.4,6.1-1.9,9.2c-0.1,0.8-1.2,2.3,0.8,2.5c1.3,0.2,2.3,0,2.7-1.8c0.6-3.3,1.6-6.5,2.1-9.9 C476.5,445.3,478.7,442.3,476.7,440.9z"/>
	<path d="M505.7,451.3c-1.5,0-4-1.2-4.1,1.8c-0.1,2.7,2.2,1,3.2,1.5c1.6-0.1,3.7,0.8,3.8-1.9C508.8,450.1,506.8,451.3,505.7,451.3z"/>
  </g>
</svg>
