<svg xmlns="http://www.w3.org/2000/svg" viewBox="-173 136 612 289">
  <style type="text/css">
    .path{fill:#666;}
  </style>
<path class="path" d="M155.2,182.5c-3.6,10.8-7.3,21.9-10.8,32.8c-1.7-4.4-3.3-9.1-5.4-13.5c-6.1-13.3-14.6-24.7-27.7-31.8
	c-18.2-10-36.6-10.2-55.1-0.1c-12.3,6.8-19.4,17.6-23,30.6c-5.2,18.4-2.7,36.1,10.9,50.3c16.1,16.7,37.1,18.6,54.6,8.5
	c9-5.2,13.9-13.4,15.9-23.5c3.1-16.3-1.1-30.5-13.3-41.9c-8.5-8-18.7-9.2-29.3-4.9c-10.7,4.4-15.6,13.2-16.6,24.5
	c-0.9,9.5,2.2,17.2,9.3,23.5c5.7,5,15,5.5,20.7,1.2c5.9-4.5,7.9-13,4.4-20.2c-2.1-4.4-5.5-6.9-10.7-6.5c-4.2,0.2-6.1,3.4-4.5,7.4
	c1.4-0.1,2.7-0.4,4.1-0.4c3.3,0,5.2,1.5,6.1,4.5c1.7,5.5-1.4,11.6-6.5,12.2c-4.8,0.6-9-0.7-12.2-4.7c-6.4-7.9-7.6-26.1,5-34.5
	c5.4-3.7,11.6-3.3,17.6-1.7c8.4,2.5,14.1,8.1,17.5,16c3.3,7.9,4.2,16,2.3,24.5c-2.6,12-10.7,18.7-22,22
	c-17.9,5.2-38.6-4.4-45.1-21.9c-6.9-18.3-5.5-35.9,8.2-51.1c8.1-9,18.6-13.5,30.6-14.3c17.6-1,32.7,5.3,43.4,19.1
	c12.3,15.7,18.6,33.9,16.2,54.2c-1.2,10.6-6.4,19.3-13.3,27c-7.7,8.7-17.6,13.9-28.8,16.8c-13,3.3-26.3,3.6-39.5,1.1
	C43.8,285,33,276.5,23.9,265.5c-8.7-10.6-13.3-22.9-15.1-36.1c-1.1-7.4-1.5-14.6-1-22.1c0.7-10.6,4.4-20.2,10.1-29
	c8.1-12.9,17.9-24,31.6-31.2c20.3-10.8,41.5-13.3,63-5.1c14,5.3,25.3,14.3,32.7,27.7c1.4,2.5,3,4.7,4.7,6.9
	C151.2,178.7,153.2,180.5,155.2,182.5z M158.1,189.5c2,2.7,2,5.4,1.6,8.2c-0.5,5-1.2,10-1.6,14.9c-0.5,7.5,0.2,14.9,3.4,21.9
	c2.5,5.3,6.6,9.1,11.8,11.4c4.8,2.2,9.6,1.1,13.9-1.7c7.6-5.2,11.1-15.2,8.9-25c-1.5-6.8-5-12.4-8.7-18.1c-2-3.1-4.1-6-5.9-9.2
	c-0.4-0.7-0.1-1.8-0.1-2.8c1,0,2.2-0.2,3,0.1c1.2,0.7,2.2,2,3,3.1c4.4,6.5,8.7,13,13.2,19.4c0.9,1.4,2.5,2.3,3.9,3.1
	c1.7,0.9,3.2,0.4,4.5-1.2c3.1-3.7,6-7.6,9.5-10.9c2.3-2.2,5.4-3.6,8.2-5.3c1.1-0.6,2.3-0.4,2.6,0.9c0.2,0.7-0.2,2-0.9,2.5
	c-9,7.3-16.1,15.7-19.5,26.9c-1.4,4.2-2.5,8.4-4.2,12.3c-6.1,15.1-16.2,26.8-31.1,33.8c-8,3.7-16.6,5.7-25.4,5.4
	c-3.2-0.1-3.2-0.1-3.6-3.3c-1-7.3-0.7-14.6,0.1-21.9c1-9.6,2-19.2,3.6-28.6c2-11.4,5-22.7,9.1-33.7
	C157.5,191.1,157.7,190.5,158.1,189.5z M396.6,415.3c3.2,0,5.9,0,8.9,0c0,0.7,0.1,1.4,0.1,2.1c-6.6,0-13.2,0-19.9,0
	c0-2.8,0-5.5,0-8.9c-1.2,1.6-2.1,2.8-3.1,3.9c-6.6,7.4-16,8.2-25,4.1c-13.3-6.1-19.3-23-13.4-37.1c2.3-5.7,5.8-10.3,10.8-13.8
	c10.6-7.3,22.9-4.5,29.5,6.4c0.2,0.5,0.5,0.9,1,1.7c0-15.5,0-30.5,0-45.8c-3.2,0-6.5,0-10,0c0-0.9,0-1.4,0-2.2c3.7,0,7.3,0,10.8,0
	c3.6,0,7.1-0.2,10.2-3.2C396.6,353.5,396.6,384.2,396.6,415.3z M385.6,391.2c0-2.8,0.1-5.5,0-8.4c-0.4-7.6-3.8-13.6-10.6-17.5
	c-8.9-4.9-17.2-1.1-19.4,8.7c0,0.2-0.1,0.5-0.1,0.7c-0.2,7.4-0.7,14.8-0.9,22c0,3.8,0.6,7.6,1.4,11.3c0.7,3.4,2.8,6.3,6.4,7.5
	c11.3,3.9,23.1-4.5,23.2-16.5C385.6,396.6,385.6,393.9,385.6,391.2z M142,328.4c-3.9,0-7.6,0-11.6,0c0-0.7,0-1.2,0-1.8
	c23,0,45.8,0,69,0c0.6,7.3,1.2,14.4,1.8,21.6c-0.7,0-1.5,0.1-2.2,0.1c-0.2-2-0.4-3.7-0.7-5.5c-1.7-8.1-6.8-13-15.6-13.8
	c-9-0.7-18.1-0.6-27.2-0.9c0,14.1,0,27.8,0,42c4.9-0.2,9.8-0.1,14.6-0.7c5.5-0.9,8.7-4.8,9.3-10.7c0.1-1.6,0.2-3.3,0.4-5
	c0.6,0,1.1-0.1,1.8-0.2c0,11.4,0,22.9,0,34.4c-0.5,0-1.1,0-1.7,0c-0.1-0.1-0.1-0.4-0.2-0.5c-0.1-1.6-0.2-3.3-0.4-4.9
	c-0.5-5.8-3.7-9.3-9.7-9.8c-4.7-0.4-9.3-0.1-14.1-0.1c0,14,0,28.3,0,42.8c3.9,0,7.9,0,11.9,0c0,0.9,0,1.5,0,2.1
	c-12.3,0-24.6,0-36.9,0c0-0.6,0-1.2,0-2.1c3.8,0,7.6,0,11.6,0C142,386.2,142,357.4,142,328.4z M-165.1,418c-0.7,0-1.4,0-2.1,0
	c0-10.8,0-21.6,0-32.5c0.6,0,1.2,0,1.7,0c0.6,3.7,0.9,7.4,1.7,10.9c3.9,16.2,20.8,25.1,36,19.2c8.7-3.3,13.3-11.6,12-21
	c-0.9-7.6-5-12.3-12.3-14.3c-5.7-1.5-11.6-2.3-17.3-3.7c-3.4-0.9-6.9-1.7-10.2-3.1c-7.3-3-10.4-9.1-11.4-16.5
	c-0.7-5.5-0.7-11.2,1-16.6c3.4-10.4,12.8-16.6,23.8-16.1c5.7,0.2,10.7,2,15.4,4.9c1.2,0.7,2.5,1.6,3.7,2.2c3.1,1.5,4.8,0.6,5.8-2.6
	c0.1-0.5,0.2-1,0.5-1.5c0.6,0,1.2,0,2,0c0,9.1,0,17.9,0,27c-0.6,0-1.2,0-1.7,0c-0.9-3.4-1.4-6.8-2.5-10
	c-3.7-11.3-12.5-17.8-23.7-17.9c-12.4-0.1-20,8.4-19.3,21.3c0.4,6.3,3.6,10.3,9.5,11.9c6.3,1.7,12.7,2.8,19.1,4.5
	c4.5,1.2,9,2.6,13.3,4.4c5.2,2.2,8.4,6.5,9.7,12c2.1,8.6,1.6,17.1-2.3,25.1c-3.9,8.1-10.8,12.3-19.7,13.5c-8,1.1-15.6-0.6-22.9-4.1
	c-1.6-0.7-3.2-1.5-4.9-2c-3.2-1-4.8,0.1-5,3.4C-165.1,416.9-165.1,417.4-165.1,418z M90.6,364.3c0,0.7,0,1.4,0,1.8
	c-0.1,0.1-0.2,0.2-0.4,0.2c-5.4,0-8.6,2.7-10.7,7.5c-5.2,12-10.4,24.2-15.7,36.3c-1.2,3-2.5,5.8-3.8,8.7c-0.2,0.6-0.9,1-1.2,1.5
	c-0.4-0.5-0.9-1-1.1-1.5c-4.3-9.6-8.5-19.1-12.8-28.6c-0.2-0.4-0.4-0.9-0.7-1.6c-0.4,0.7-0.6,1.4-0.9,1.8c-4.1,9.5-8,18.9-12,28.3
	c-0.2,0.6-0.7,1.1-1.2,1.6c-0.4-0.5-1-1-1.2-1.6C21.4,401.9,14,385,6.7,368.1c-0.6-1.4-1.4-1.7-2.7-1.7c-1.6,0.1-3.3,0-5,0
	c0-0.7,0-1.4,0-2.1c19.3,0,38.5,0,57.9,0c0,0.6,0,1.2,0.1,2c-3.4,0-6.6,0-10.2,0c5.7,13.2,11.2,25.9,16.7,39.1
	c0.4-0.5,0.6-0.9,0.9-1.2c3.9-9.1,8-18.2,11.8-27.4c0.7-1.8,1.4-3.8,1.7-5.9c0.4-2.5-0.6-3.8-3.1-4.3c-2.1-0.4-4.2-0.4-6.3-0.5
	c0-0.6,0-1.1,0-1.8C75.6,364.3,83.1,364.3,90.6,364.3z M34.7,404.8c2.7-6.4,5.3-12.5,7.9-18.6c0.1-0.4,0.1-1-0.1-1.5
	c-2.5-5.8-5-11.6-7.6-17.3c-0.2-0.5-0.7-1-1.1-1c-4.9-0.1-10,0-15.2,0C23.9,379.3,29.3,391.8,34.7,404.8z M-79.1,415.3
	c3.6,0,6.9,0,10.3,0c0,0.7,0,1.4,0,2.1c-10.4,0-20.8,0-31.3,0c0-0.6-0.1-1.2-0.1-2c3.4,0,6.8,0,10.1,0c0-29.3,0-58.3,0-87.5
	c-3.3,0-6.6,0-10,0c0-0.7-0.1-1.4-0.1-2c7-1.1,14.5,1.7,21.1-3.2C-79.1,353.6-79.1,384.3-79.1,415.3z M238.1,361.6
	c14.3,0,25.7,10.4,27.2,24.6c1.2,11.3-2.2,21-11.6,27.8c-15.1,10.8-35.9,3.4-41.4-14.5c-4.3-13.8,1.4-28.5,13.3-34.9
	C229.5,362.4,233.7,361.5,238.1,361.6z M253.4,390c-0.4-5.3-0.5-10.8-1.2-16.2c-0.7-4.9-3.7-8.5-8.7-9.6c-5.8-1.2-11.6-1.2-16.2,3.4
	c-0.9,0.9-1.5,2-1.8,3c-0.7,2.1-1.5,4.2-1.5,6.3c-0.1,8.9-0.4,17.7,0,26.4c0.2,7.9,4.2,12.2,11.4,13c2.1,0.2,4.4,0.2,6.5-0.1
	c6.3-1,9.6-4.1,10.4-10.3C252.9,400.8,253,395.5,253.4,390z M-6.9,390.3c-0.6,10.1-4.1,17.7-11.3,23.1c-14.8,11.2-36.3,4.2-42-13.8
	c-4.5-14.3,1.6-29.9,14.1-35.8c16.3-7.7,35.4,2.2,38.5,20.3C-7.1,386.7-7,389.1-6.9,390.3z M-19.2,390.2c-0.2,0-0.4,0-0.6,0
	c0-4.3,0.2-8.7,0-13c-0.5-8.2-4.2-12.5-11.8-13.4c-9.7-1-15.7,2.3-16.8,11.2c-1.2,10.2-1.4,20.4,0,30.5c1,7,4.4,10.1,11.2,11.1
	c1.5,0.2,3,0.1,4.3,0.1c7.1-0.1,11.7-3.9,12.5-10.9C-19.5,400.5-19.4,395.4-19.2,390.2z M275.2,389.6c1-11.3,5.2-19.8,14.5-24.8
	c16.1-8.9,35.5,0.4,39.6,18.4c2.7,12.4-2.2,25.2-12.2,31.5c-16.3,10.2-37.7,0.6-41.2-18.6C275.5,393.8,275.5,391.2,275.2,389.6z
	 M287.7,390.1c0.2,0,0.4,0,0.6,0c0,4.3-0.2,8.7,0,13c0.5,8,4.2,12.2,11.4,13.3c1.5,0.2,3.1,0.1,4.5,0.1c7-0.1,11.4-3.7,12.5-10.6
	c1.5-10.3,1.2-20.8,0.2-31.1c-0.5-5.4-3.3-9.5-9-10.7c-2.6-0.5-5.3-0.7-7.9-0.5c-7,0.7-10.6,4.2-11.4,11.2
	C287.9,380,287.9,385.1,287.7,390.1z M111.9,288.4c5-3.7,10-7,14.6-10.7c4.7-3.7,8.5-8.2,11.3-13.5c0.1,0,0.4,0.1,0.5,0.1
	c0.4,5.4,0.9,10.8,1.1,16.2c0,0.6-0.9,1.4-1.5,1.7c-6.1,3.3-12.7,5-19.5,5.7C116.2,288.2,114.1,288.3,111.9,288.4z M422.8,349
	c-6.8,0-11.9-5.4-11.9-12.2c0-6.9,5.3-12,12.2-12c6.6,0,11.8,5.3,11.8,12C434.9,343.8,429.6,349,422.8,349z M423,347.1
	c5.3,0,9.6-4.5,9.6-10.1c0-5.7-4.3-10.2-9.7-10.2c-5.3,0-9.7,4.7-9.7,10.2C413.3,342.5,417.7,347.1,423,347.1z M418.6,343.9
	c0-4.5,0-9,0-13.8c1.7,0,3.6-0.1,5.3,0c1.7,0.1,3.3,0.6,3.8,2.6c0.6,2-0.2,3.4-1.5,4.2c0.7,2.3,1.4,4.4,2.1,6.6
	c-2.3,0.6-2.6,0.5-3.1-1.8c-0.6-3.2-1-3.6-4.3-3.3c0,1.7,0,3.4,0,5.4C419.9,343.8,419.3,343.9,418.6,343.9z M420.9,332
	c0,1.5,0,2.8,0,4.9c1.7-0.7,3.1-1.1,4.2-1.8c0.2-0.1,0.2-1.5-0.1-2C424,331.6,422.5,331.8,420.9,332z"/>
</svg>
