<?xml version="1.0" encoding="utf-8"?>
<!-- Generator: Adobe Illustrator 19.0.0, SVG Export Plug-In . SVG Version: 6.00 Build 0)  -->
<svg version="1.1" id="Ebene_1" xmlns="http://www.w3.org/2000/svg" xmlns:xlink="http://www.w3.org/1999/xlink" x="0px" y="0px"
	 viewBox="0 0 612 792" style="enable-background:new 0 0 612 792;" xml:space="preserve">
<style type="text/css">
	.st0{opacity:0.99;}
	.st1{fill:#FFFFFF;}
</style>
<g class="st0">
	<path class="st1" d="M319.9,112.8c-1.6-1.7-3.1-3.2-4.5-4.9c-1.4-1.8-2.7-3.6-3.8-5.6c-6-10.9-15.2-18.1-26.6-22.5
		c-17.5-6.7-34.6-4.7-51.1,3.9c-11.1,5.8-19.1,14.9-25.7,25.4c-4.5,7.2-7.6,15-8.2,23.6c-0.4,6-0.1,12,0.8,18
		c1.6,10.9,5.3,20.9,12.3,29.4c7.4,8.9,16.2,15.9,27.9,18.1c10.7,2,21.5,1.9,32.1-0.9c9.1-2.3,17-6.6,23.4-13.7
		c5.7-6.3,9.9-13.4,10.8-22c1.9-16.6-3.2-31.4-13.2-44.1c-8.7-11.1-20.9-16.3-35.3-15.5c-9.8,0.5-18.2,4.3-24.9,11.6
		c-11.3,12.4-12.3,26.7-6.7,41.6c5.3,14.1,22.1,21.9,36.7,17.8c9.2-2.6,15.7-8.1,17.9-17.9c1.5-6.8,0.8-13.5-1.9-19.9
		c-2.7-6.4-7.3-11.1-14.2-13c-4.9-1.4-9.8-1.6-14.3,1.4c-10.3,6.9-9.3,21.6-4.1,28.1c2.6,3.2,6,4.2,9.9,3.8c4.1-0.5,6.7-5.4,5.3-9.9
		c-0.8-2.5-2.3-3.7-5-3.7c-1.1,0-2.2,0.2-3.3,0.3c-1.4-3.2,0.3-5.8,3.7-6c4.2-0.2,7,1.7,8.7,5.3c2.8,5.8,1.2,12.7-3.6,16.4
		c-4.6,3.5-12.2,3.1-16.8-1c-5.7-5.1-8.2-11.5-7.6-19.1c0.8-9.2,4.8-16.3,13.5-19.9c8.6-3.5,16.9-2.5,23.8,4
		c9.9,9.3,13.4,20.8,10.8,34.1c-1.6,8.2-5.6,14.9-12.9,19.1c-14.2,8.2-31.3,6.7-44.4-6.9c-11.1-11.5-13.1-25.9-8.9-40.9
		c2.9-10.5,8.7-19.4,18.7-24.9c15-8.2,30-8,44.8,0.1c10.6,5.8,17.5,15.1,22.5,25.9c1.7,3.6,3,7.4,4.4,11
		C314,130.7,317,121.7,319.9,112.8z M322.3,118.5c-0.3,0.8-0.5,1.3-0.7,1.8c-3.3,8.9-5.8,18.1-7.4,27.4c-1.3,7.7-2.1,15.5-2.9,23.3
		c-0.6,5.9-0.9,11.9-0.1,17.8c0.3,2.6,0.3,2.6,2.9,2.7c7.3,0.2,14.3-1.4,20.7-4.4c12.1-5.6,20.3-15.2,25.3-27.5
		c1.3-3.3,2.3-6.7,3.4-10c2.9-9.1,8.7-16,15.9-21.9c0.5-0.4,0.9-1.4,0.7-2c-0.3-1-1.3-1.2-2.1-0.7c-2.3,1.4-4.8,2.5-6.7,4.3
		c-2.8,2.7-5.2,5.8-7.7,8.9c-1,1.3-2.3,1.7-3.7,1c-1.2-0.6-2.5-1.4-3.2-2.5c-3.7-5.2-7.1-10.6-10.7-15.8c-0.7-1-1.5-1.9-2.4-2.5
		c-0.6-0.4-1.6-0.1-2.4-0.1c0,0.8-0.3,1.7,0.1,2.3c1.5,2.5,3.1,5,4.8,7.5c3,4.6,5.9,9.2,7.1,14.7c1.8,7.9-1,16.1-7.2,20.3
		c-3.5,2.3-7.4,3.3-11.3,1.4c-4.2-2-7.6-5-9.6-9.3c-2.6-5.6-3.2-11.6-2.8-17.8c0.3-4.1,0.9-8.1,1.3-12.1
		C323.9,122.9,323.9,120.7,322.3,118.5z M284.7,199c1.8-0.1,3.5-0.2,5.2-0.4c5.6-0.6,11-2,15.9-4.6c0.5-0.3,1.2-0.9,1.2-1.4
		c-0.2-4.4-0.6-8.8-0.9-13.2c-0.1,0-0.3-0.1-0.4-0.1c-2.3,4.3-5.4,8-9.2,11C292.8,193.3,288.8,196,284.7,199z"/>
	<path d="M319.9,112.8c-2.9,8.8-5.9,17.8-8.8,26.7c-1.4-3.6-2.7-7.4-4.4-11c-5-10.8-11.9-20.1-22.5-25.9
		c-14.8-8.1-29.8-8.3-44.8-0.1c-10,5.5-15.8,14.3-18.7,24.9c-4.2,15-2.2,29.4,8.9,40.9c13.1,13.6,30.2,15.1,44.4,6.9
		c7.3-4.2,11.3-10.9,12.9-19.1c2.5-13.3-0.9-24.8-10.8-34.1c-6.9-6.5-15.2-7.5-23.8-4c-8.7,3.6-12.7,10.7-13.5,19.9
		c-0.7,7.7,1.8,14,7.6,19.1c4.6,4.1,12.2,4.5,16.8,1c4.8-3.7,6.4-10.6,3.6-16.4c-1.7-3.6-4.5-5.6-8.7-5.3c-3.4,0.2-5,2.8-3.7,6
		c1.1-0.1,2.2-0.3,3.3-0.3c2.7,0,4.2,1.2,5,3.7c1.4,4.5-1.1,9.4-5.3,9.9c-3.9,0.5-7.3-0.6-9.9-3.8c-5.2-6.4-6.2-21.2,4.1-28.1
		c4.4-3,9.4-2.7,14.3-1.4c6.8,2,11.5,6.6,14.2,13c2.7,6.4,3.4,13,1.9,19.9c-2.1,9.8-8.7,15.2-17.9,17.9
		c-14.6,4.2-31.4-3.6-36.7-17.8c-5.6-14.9-4.5-29.2,6.7-41.6c6.6-7.3,15.1-11,24.9-11.6c14.3-0.8,26.6,4.3,35.3,15.5
		c10,12.8,15.1,27.6,13.2,44.1c-1,8.6-5.2,15.7-10.8,22c-6.3,7.1-14.3,11.3-23.4,13.7c-10.6,2.7-21.4,2.9-32.1,0.9
		c-11.7-2.2-20.5-9.1-27.9-18.1c-7.1-8.6-10.8-18.6-12.3-29.4c-0.9-6-1.2-11.9-0.8-18c0.6-8.6,3.6-16.4,8.2-23.6
		c6.6-10.5,14.6-19.5,25.7-25.4c16.4-8.6,33.6-10.6,51.1-3.9c11.4,4.3,20.6,11.6,26.6,22.5c1.1,2,2.4,3.8,3.8,5.6
		C316.7,109.7,318.3,111.2,319.9,112.8z"/>
	<path d="M322.3,118.5c1.6,2.2,1.6,4.4,1.3,6.7c-0.4,4.1-1,8.1-1.3,12.1c-0.4,6.1,0.2,12.1,2.8,17.8c2,4.3,5.4,7.4,9.6,9.3
		c3.9,1.8,7.8,0.9,11.3-1.4c6.2-4.2,9-12.4,7.2-20.3c-1.2-5.5-4.1-10.1-7.1-14.7c-1.6-2.5-3.3-4.9-4.8-7.5c-0.3-0.6-0.1-1.5-0.1-2.3
		c0.8,0,1.8-0.2,2.4,0.1c1,0.6,1.8,1.6,2.4,2.5c3.6,5.3,7.1,10.6,10.7,15.8c0.7,1.1,2,1.9,3.2,2.5c1.4,0.7,2.6,0.3,3.7-1
		c2.5-3,4.9-6.2,7.7-8.9c1.9-1.8,4.4-2.9,6.7-4.3c0.9-0.5,1.9-0.3,2.1,0.7c0.2,0.6-0.2,1.6-0.7,2c-7.3,5.9-13.1,12.8-15.9,21.9
		c-1.1,3.4-2,6.8-3.4,10c-5,12.3-13.2,21.8-25.3,27.5c-6.5,3-13.5,4.6-20.7,4.4c-2.6-0.1-2.6-0.1-2.9-2.7
		c-0.8-5.9-0.6-11.9,0.1-17.8c0.8-7.8,1.6-15.6,2.9-23.3c1.6-9.3,4.1-18.5,7.4-27.4C321.8,119.8,322,119.3,322.3,118.5z"/>
	<path d="M516.3,302.2c2.6,0,4.8,0,7.2,0c0,0.6,0.1,1.1,0.1,1.7c-5.4,0-10.7,0-16.2,0c0-2.3,0-4.5,0-7.2c-1,1.3-1.7,2.3-2.5,3.2
		c-5.4,6-13,6.7-20.3,3.3c-10.8-5-15.7-18.7-10.9-30.2c1.9-4.6,4.7-8.4,8.8-11.2c8.6-5.9,18.6-3.7,24,5.2c0.2,0.4,0.4,0.7,0.8,1.4
		c0-12.6,0-24.8,0-37.3c-2.6,0-5.3,0-8.1,0c0-0.7,0-1.1,0-1.8c3,0,5.9,0,8.8,0c2.9,0,5.8-0.2,8.3-2.6
		C516.3,251.9,516.3,276.9,516.3,302.2z M507.4,282.6c0-2.3,0.1-4.5,0-6.8c-0.3-6.2-3.1-11.1-8.6-14.2c-7.2-4-14-0.9-15.8,7.1
		c0,0.2-0.1,0.4-0.1,0.6c-0.2,6-0.6,12-0.7,17.9c0,3.1,0.5,6.2,1.1,9.2c0.6,2.8,2.3,5.1,5.2,6.1c9.2,3.2,18.8-3.7,18.9-13.4
		C507.4,287,507.4,284.8,507.4,282.6z"/>
	<path d="M309.2,231.5c-3.2,0-6.2,0-9.4,0c0-0.6,0-1,0-1.5c18.7,0,37.3,0,56.1,0c0.5,5.9,1,11.7,1.5,17.6c-0.6,0-1.2,0.1-1.8,0.1
		c-0.2-1.6-0.3-3-0.6-4.5c-1.4-6.6-5.5-10.6-12.7-11.2c-7.3-0.6-14.7-0.5-22.1-0.7c0,11.5,0,22.6,0,34.2c4-0.2,8-0.1,11.9-0.6
		c4.5-0.7,7.1-3.9,7.6-8.7c0.1-1.3,0.2-2.7,0.3-4.1c0.5,0,0.9-0.1,1.5-0.2c0,9.3,0,18.6,0,28c-0.4,0-0.9,0-1.4,0
		c-0.1-0.1-0.1-0.3-0.2-0.4c-0.1-1.3-0.2-2.7-0.3-4c-0.4-4.7-3-7.6-7.9-8c-3.8-0.3-7.6-0.1-11.5-0.1c0,11.4,0,23,0,34.8
		c3.2,0,6.4,0,9.7,0c0,0.7,0,1.2,0,1.7c-10,0-20,0-30,0c0-0.5,0-1,0-1.7c3.1,0,6.2,0,9.4,0C309.2,278.5,309.2,255.1,309.2,231.5z"/>
	<path d="M59.4,304.4c-0.6,0-1.1,0-1.7,0c0-8.8,0-17.6,0-26.4c0.5,0,1,0,1.4,0c0.5,3,0.7,6,1.4,8.9c3.2,13.2,16.9,20.4,29.3,15.6
		c7.1-2.7,10.8-9.4,9.8-17.1c-0.7-6.2-4.1-10-10-11.6c-4.6-1.2-9.4-1.9-14.1-3c-2.8-0.7-5.6-1.4-8.3-2.5c-5.9-2.4-8.5-7.4-9.3-13.4
		c-0.6-4.5-0.6-9.1,0.8-13.5c2.8-8.5,10.4-13.5,19.4-13.1c4.6,0.2,8.7,1.6,12.5,4c1,0.6,2,1.3,3,1.8c2.5,1.2,3.9,0.5,4.7-2.1
		c0.1-0.4,0.2-0.8,0.4-1.2c0.5,0,1,0,1.6,0c0,7.4,0,14.6,0,22c-0.5,0-1,0-1.4,0c-0.7-2.8-1.1-5.5-2-8.1c-3-9.2-10.2-14.5-19.3-14.6
		c-10.1-0.1-16.3,6.8-15.7,17.3c0.3,5.1,2.9,8.4,7.7,9.7c5.1,1.4,10.3,2.3,15.5,3.7c3.7,1,7.3,2.1,10.8,3.6c4.2,1.8,6.8,5.3,7.9,9.8
		c1.7,7,1.3,13.9-1.9,20.4c-3.2,6.6-8.8,10-16,11c-6.5,0.9-12.7-0.5-18.6-3.3c-1.3-0.6-2.6-1.2-4-1.6c-2.6-0.8-3.9,0.1-4.1,2.8
		C59.4,303.5,59.4,303.9,59.4,304.4z"/>
	<path d="M267.4,260.7c0,0.6,0,1.1,0,1.5c-0.1,0.1-0.2,0.2-0.3,0.2c-4.4,0-7,2.2-8.7,6.1c-4.2,9.8-8.5,19.7-12.8,29.5
		c-1,2.4-2,4.7-3.1,7.1c-0.2,0.5-0.7,0.8-1,1.2c-0.3-0.4-0.7-0.8-0.9-1.2c-3.5-7.8-6.9-15.5-10.4-23.3c-0.2-0.3-0.3-0.7-0.6-1.3
		c-0.3,0.6-0.5,1.1-0.7,1.5c-3.3,7.7-6.5,15.4-9.8,23c-0.2,0.5-0.6,0.9-1,1.3c-0.3-0.4-0.8-0.8-1-1.3c-6.1-13.7-12.1-27.4-18.1-41.2
		c-0.5-1.1-1.1-1.4-2.2-1.4c-1.3,0.1-2.7,0-4.1,0c0-0.6,0-1.1,0-1.7c15.7,0,31.3,0,47.1,0c0,0.5,0,1,0.1,1.6c-2.8,0-5.4,0-8.3,0
		c4.6,10.7,9.1,21.1,13.6,31.8c0.3-0.4,0.5-0.7,0.7-1c3.2-7.4,6.5-14.8,9.6-22.3c0.6-1.5,1.1-3.1,1.4-4.8c0.3-2-0.5-3.1-2.5-3.5
		c-1.7-0.3-3.4-0.3-5.1-0.4c0-0.5,0-0.9,0-1.5C255.2,260.7,261.3,260.7,267.4,260.7z M221.9,293.7c2.2-5.2,4.3-10.2,6.4-15.1
		c0.1-0.3,0.1-0.8-0.1-1.2c-2-4.7-4.1-9.4-6.2-14.1c-0.2-0.4-0.6-0.8-0.9-0.8c-4-0.1-8.1,0-12.4,0
		C213.1,272.9,217.5,283.1,221.9,293.7z"/>
	<path d="M129.3,302.2c2.9,0,5.6,0,8.4,0c0,0.6,0,1.1,0,1.7c-8.5,0-16.9,0-25.5,0c0-0.5-0.1-1-0.1-1.6c2.8,0,5.5,0,8.2,0
		c0-23.8,0-47.4,0-71.2c-2.7,0-5.4,0-8.1,0c0-0.6-0.1-1.1-0.1-1.6c5.7-0.9,11.8,1.4,17.2-2.6C129.3,252,129.3,277,129.3,302.2z"/>
	<path d="M387.4,258.5c11.6,0,20.9,8.5,22.1,20c1,9.2-1.8,17.1-9.4,22.6c-12.3,8.8-29.2,2.8-33.7-11.8c-3.5-11.2,1.1-23.2,10.8-28.4
		C380.4,259.2,383.8,258.4,387.4,258.5z M399.8,281.6c-0.3-4.3-0.4-8.8-1-13.2c-0.6-4-3-6.9-7.1-7.8c-4.7-1-9.4-1-13.2,2.8
		c-0.7,0.7-1.2,1.6-1.5,2.4c-0.6,1.7-1.2,3.4-1.2,5.1c-0.1,7.2-0.3,14.4,0,21.5c0.2,6.4,3.4,9.9,9.3,10.6c1.7,0.2,3.6,0.2,5.3-0.1
		c5.1-0.8,7.8-3.3,8.5-8.4C399.4,290.4,399.5,286.1,399.8,281.6z"/>
	<path d="M188.1,281.9c-0.5,8.2-3.3,14.4-9.2,18.8c-12,9.1-29.5,3.4-34.2-11.2c-3.7-11.6,1.3-24.3,11.5-29.1
		c13.3-6.3,28.8,1.8,31.3,16.5C187.9,278.9,188,280.9,188.1,281.9z M178.1,281.8c-0.2,0-0.3,0-0.5,0c0-3.5,0.2-7.1,0-10.6
		c-0.4-6.7-3.4-10.2-9.6-10.9c-7.9-0.8-12.8,1.9-13.7,9.1c-1,8.3-1.1,16.6,0,24.8c0.8,5.7,3.6,8.2,9.1,9c1.2,0.2,2.4,0.1,3.5,0.1
		c5.8-0.1,9.5-3.2,10.2-8.9C177.8,290.2,177.9,286,178.1,281.8z"/>
	<path d="M417.6,281.3c0.8-9.2,4.2-16.1,11.8-20.2c13.1-7.2,28.9,0.3,32.2,15c2.2,10.1-1.8,20.5-9.9,25.6
		c-13.3,8.3-30.7,0.5-33.5-15.1C417.8,284.7,417.8,282.6,417.6,281.3z M427.7,281.7c0.2,0,0.3,0,0.5,0c0,3.5-0.2,7.1,0,10.6
		c0.4,6.5,3.4,9.9,9.3,10.8c1.2,0.2,2.5,0.1,3.7,0.1c5.7-0.1,9.3-3,10.2-8.6c1.2-8.4,1-16.9,0.2-25.3c-0.4-4.4-2.7-7.7-7.3-8.7
		c-2.1-0.4-4.3-0.6-6.4-0.4c-5.7,0.6-8.6,3.4-9.3,9.1C427.9,273.5,427.9,277.6,427.7,281.7z"/>
	<path d="M284.7,199c4.1-3,8.1-5.7,11.9-8.7c3.8-3,6.9-6.7,9.2-11c0.1,0,0.3,0.1,0.4,0.1c0.3,4.4,0.7,8.8,0.9,13.2
		c0,0.5-0.7,1.1-1.2,1.4c-5,2.7-10.3,4.1-15.9,4.6C288.2,198.8,286.5,198.9,284.7,199z"/>
	<path d="M537.6,248.3c-5.5,0-9.7-4.4-9.7-9.9c0-5.6,4.3-9.8,9.9-9.8c5.4,0,9.6,4.3,9.6,9.8C547.5,244,543.2,248.3,537.6,248.3z
		 M537.8,246.7c4.3,0,7.8-3.7,7.8-8.2c0-4.6-3.5-8.3-7.9-8.3c-4.3,0-7.9,3.8-7.9,8.3C529.9,243,533.5,246.7,537.8,246.7z"/>
	<path d="M534.2,244.1c0-3.7,0-7.3,0-11.2c1.4,0,2.9-0.1,4.3,0c1.4,0.1,2.7,0.5,3.1,2.1c0.5,1.6-0.2,2.8-1.2,3.4
		c0.6,1.9,1.1,3.6,1.7,5.4c-1.9,0.5-2.1,0.4-2.5-1.5c-0.5-2.6-0.8-2.9-3.5-2.7c0,1.4,0,2.8,0,4.4C535.3,244,534.8,244.1,534.2,244.1
		z M536.1,234.4c0,1.2,0,2.3,0,4c1.4-0.6,2.5-0.9,3.4-1.5c0.2-0.1,0.2-1.2-0.1-1.6C538.6,234.1,537.4,234.3,536.1,234.4z"/>
</g>
</svg>
