<?xml version="1.0" encoding="utf-8"?>
<!-- Generator: Adobe Illustrator 16.0.0, SVG Export Plug-In . SVG Version: 6.00 Build 0)  -->
<!DOCTYPE svg PUBLIC "-//W3C//DTD SVG 1.1//EN" "http://www.w3.org/Graphics/SVG/1.1/DTD/svg11.dtd">
<svg version="1.1" id="Ebene_1" xmlns="http://www.w3.org/2000/svg" xmlns:xlink="http://www.w3.org/1999/xlink" x="0px" y="0px"
	 width="200px" height="175px" viewBox="0 0 200 175" enable-background="new 0 0 200 175" xml:space="preserve">
<path fill="#9a9997" d="M106.6,57.93c-1.106,3.319-2.244,6.73-3.318,10.08c-0.522-1.353-1.016-2.797-1.66-4.148
	c-1.875-4.089-4.487-7.592-8.513-9.774c-5.593-3.073-11.247-3.135-16.934-0.031c-3.78,2.088-5.962,5.407-7.068,9.404
	c-1.598,5.654-0.83,11.092,3.35,15.458c4.948,5.13,11.402,5.714,16.78,2.611c2.766-1.6,4.271-4.118,4.886-7.222
	c0.952-5.01-0.338-9.374-4.087-12.878c-2.611-2.459-5.746-2.827-9.004-1.506c-3.289,1.352-4.795,4.055-5.103,7.528
	c-0.276,2.92,0.676,5.286,2.858,7.221c1.752,1.537,4.61,1.692,6.361,0.369c1.813-1.383,2.429-3.995,1.353-6.208
	c-0.645-1.352-1.688-2.12-3.288-1.999c-1.29,0.062-1.874,1.045-1.383,2.275c0.432-0.032,0.831-0.124,1.26-0.124
	c1.015,0,1.599,0.461,1.875,1.383c0.523,1.689-0.429,3.564-1.996,3.748c-1.476,0.185-2.768-0.216-3.751-1.443
	c-1.967-2.43-2.334-8.021,1.539-10.604c1.659-1.138,3.565-1.015,5.409-0.523c2.582,0.769,4.334,2.488,5.377,4.917
	c1.017,2.428,1.292,4.917,0.708,7.529c-0.799,3.688-3.287,5.747-6.761,6.762c-5.502,1.598-11.863-1.352-13.859-6.731
	c-2.12-5.625-1.688-11.033,2.521-15.705c2.489-2.766,5.717-4.148,9.404-4.395c5.408-0.308,10.05,1.629,13.338,5.87
	c3.78,4.825,5.716,10.42,4.979,16.656c-0.369,3.26-1.967,5.932-4.087,8.299c-2.367,2.674-5.409,4.272-8.852,5.163
	c-3.995,1.016-8.082,1.105-12.139,0.338c-4.427-0.829-7.745-3.441-10.541-6.822c-2.672-3.258-4.088-7.037-4.642-11.095
	c-0.337-2.275-0.46-4.485-0.308-6.792c0.216-3.256,1.354-6.206,3.105-8.912c2.488-3.963,5.502-7.374,9.712-9.588
	c6.237-3.319,12.754-4.086,19.36-1.568c4.303,1.631,7.775,4.395,10.051,8.513c0.43,0.769,0.922,1.446,1.441,2.122
	c0.399,0.646,1.016,1.199,1.631,1.813L106.6,57.93z M107.49,60.081c0.613,0.83,0.613,1.659,0.49,2.521
	c-0.152,1.536-0.367,3.072-0.49,4.578c-0.154,2.306,0.062,4.579,1.045,6.73c0.767,1.629,2.027,2.797,3.626,3.504
	c1.476,0.676,2.95,0.338,4.271-0.522c2.336-1.599,3.411-4.672,2.735-7.684c-0.461-2.089-1.536-3.811-2.674-5.562
	c-0.614-0.953-1.261-1.845-1.813-2.828c-0.123-0.215-0.031-0.553-0.031-0.86c0.309,0,0.677-0.062,0.922,0.031
	c0.369,0.215,0.678,0.614,0.923,0.952c1.353,1.998,2.674,3.995,4.057,5.962c0.276,0.431,0.769,0.707,1.198,0.953
	c0.521,0.276,0.984,0.123,1.384-0.369c0.952-1.137,1.845-2.336,2.919-3.35c0.707-0.676,1.659-1.106,2.521-1.629
	c0.338-0.185,0.705-0.123,0.799,0.276c0.063,0.216-0.063,0.615-0.276,0.769c-2.767,2.243-4.948,4.825-5.993,8.267
	c-0.43,1.291-0.769,2.582-1.291,3.78c-1.873,4.639-4.979,8.236-9.557,10.388c-2.459,1.137-5.102,1.751-7.807,1.659
	c-0.983-0.031-0.983-0.031-1.107-1.015c-0.308-2.243-0.216-4.486,0.028-6.731c0.308-2.95,0.614-5.901,1.106-8.791
	c0.612-3.506,1.534-6.977,2.795-10.356c0.029-0.185,0.092-0.368,0.215-0.677L107.49,60.081z M180.785,129.475h2.734
	c0,0.215,0.03,0.432,0.03,0.646h-6.116v-2.734c-0.367,0.491-0.645,0.859-0.951,1.198c-2.028,2.272-4.918,2.521-7.684,1.261
	c-4.09-1.875-5.932-7.068-4.117-11.402c0.705-1.752,1.779-3.166,3.317-4.241c3.256-2.243,7.038-1.384,9.065,1.967
	c0.061,0.153,0.151,0.276,0.309,0.521v-14.074h-3.075v-0.676h3.318c1.106,0,2.183-0.063,3.135-0.983
	C180.784,110.48,180.784,119.917,180.785,129.475L180.785,129.475L180.785,129.475z M177.404,122.068c0-0.86,0.029-1.69,0-2.582
	c-0.123-2.336-1.168-4.18-3.258-5.377c-2.734-1.506-5.285-0.34-5.963,2.672c0,0.063-0.029,0.154-0.029,0.217
	c-0.063,2.273-0.215,4.548-0.276,6.761c0,1.169,0.185,2.337,0.431,3.474c0.213,1.045,0.859,1.936,1.965,2.306
	c3.473,1.196,7.1-1.384,7.129-5.071v-2.396h0.002V122.068z M102.54,102.77h-3.564v-0.554h21.208
	c0.184,2.243,0.367,4.427,0.553,6.638c-0.215,0-0.461,0.029-0.676,0.029c-0.063-0.613-0.123-1.138-0.217-1.689
	c-0.521-2.491-2.089-3.996-4.794-4.241c-2.766-0.218-5.563-0.185-8.36-0.276v12.906c1.506-0.061,3.013-0.031,4.486-0.216
	c1.69-0.275,2.674-1.476,2.86-3.288c0.028-0.492,0.06-1.016,0.121-1.538c0.185,0,0.336-0.032,0.551-0.063v10.571h-0.522
	c-0.029-0.03-0.029-0.123-0.063-0.151c-0.031-0.492-0.063-1.017-0.123-1.508c-0.154-1.781-1.141-2.857-2.98-3.013
	c-1.444-0.124-2.859-0.03-4.336-0.03v13.152h3.659v0.646h-11.34v-0.646h3.562c-0.029-8.975-0.029-17.824-0.029-26.736L102.54,102.77
	z M8.164,130.305H7.518v-9.988H8.04c0.184,1.139,0.275,2.274,0.522,3.351c1.198,4.979,6.393,7.714,11.063,5.901
	c2.674-1.016,4.087-3.565,3.688-6.455c-0.276-2.336-1.536-3.779-3.78-4.395c-1.75-0.461-3.563-0.705-5.314-1.137
	c-1.044-0.275-2.119-0.521-3.135-0.952c-2.243-0.923-3.197-2.798-3.505-5.069c-0.213-1.688-0.213-3.442,0.308-5.102
	c1.046-3.195,3.935-5.104,7.315-4.947c1.752,0.063,3.288,0.614,4.733,1.506c0.368,0.217,0.768,0.492,1.139,0.676
	c0.952,0.463,1.475,0.185,1.783-0.799c0.031-0.151,0.063-0.308,0.154-0.461h0.614v8.301h-0.523
	c-0.277-1.045-0.433-2.092-0.769-3.074c-1.139-3.473-3.842-5.471-7.284-5.499c-3.811-0.03-6.147,2.581-5.933,6.546
	c0.124,1.938,1.108,3.165,2.92,3.656c1.938,0.523,3.904,0.861,5.871,1.384c1.383,0.37,2.765,0.8,4.087,1.353
	c1.597,0.676,2.58,1.998,2.979,3.688c0.646,2.644,0.492,5.255-0.706,7.714c-1.199,2.489-3.319,3.78-6.055,4.148
	c-2.457,0.338-4.794-0.185-7.037-1.26c-0.492-0.213-0.983-0.461-1.504-0.613c-0.983-0.307-1.476,0.029-1.539,1.045
	c0.031,0.152,0.031,0.307,0.031,0.49L8.164,130.305z M86.746,113.803v0.553c-0.03,0.033-0.062,0.063-0.124,0.063
	c-1.659,0-2.643,0.831-3.287,2.307c-1.599,3.688-3.196,7.438-4.825,11.155c-0.369,0.923-0.769,1.783-1.167,2.675
	c-0.063,0.184-0.277,0.307-0.37,0.463c-0.123-0.154-0.275-0.309-0.338-0.461c-1.321-2.951-2.612-5.871-3.934-8.789
	c-0.063-0.123-0.124-0.275-0.216-0.492c-0.123,0.217-0.184,0.43-0.276,0.554c-1.262,2.919-2.459,5.81-3.688,8.698
	c-0.063,0.185-0.216,0.339-0.37,0.492c-0.124-0.153-0.308-0.309-0.369-0.492c-2.306-5.162-4.581-10.356-6.824-15.551
	c-0.184-0.43-0.431-0.521-0.83-0.521c-0.491,0.03-1.015,0-1.536,0v-0.646h17.794c0,0.185,0,0.367,0.028,0.614h-3.135
	c1.752,4.058,3.44,7.96,5.132,12.017c0.122-0.152,0.185-0.275,0.276-0.369c1.199-2.795,2.458-5.592,3.626-8.42
	c0.217-0.553,0.43-1.168,0.523-1.813c0.123-0.77-0.185-1.168-0.952-1.322c-0.646-0.123-1.291-0.123-1.938-0.152v-0.553h6.791
	L86.746,113.803z M69.566,126.248c0.829-1.965,1.628-3.84,2.427-5.715c0.03-0.124,0.03-0.309-0.03-0.461
	c-0.769-1.78-1.539-3.563-2.336-5.315c-0.063-0.151-0.215-0.308-0.339-0.308c-1.507-0.029-3.074,0-4.672,0
	c1.627,3.966,3.286,7.808,4.945,11.803L69.566,126.248z M34.592,129.475h3.164v0.646h-9.619c0-0.186-0.031-0.368-0.031-0.614h3.103
	v-26.892h-3.071c0-0.215-0.031-0.43-0.031-0.614c2.151-0.338,4.457,0.522,6.485-0.983V129.475L34.592,129.475z M132.075,112.973
	c4.396,0,7.897,3.197,8.356,7.562c0.368,3.473-0.676,6.452-3.564,8.544c-4.643,3.318-11.034,1.046-12.723-4.456
	c-1.324-4.239,0.429-8.757,4.088-10.724c1.197-0.676,2.486-0.953,3.841-0.922L132.075,112.973z M136.777,121.7
	c-0.123-1.628-0.155-3.318-0.371-4.979c-0.215-1.505-1.139-2.611-2.674-2.951c-1.782-0.365-3.566-0.365-4.979,1.047
	c-0.277,0.276-0.463,0.617-0.557,0.924c-0.215,0.646-0.463,1.291-0.463,1.936c-0.029,2.735-0.121,5.441,0,8.115
	c0.063,2.428,1.293,3.751,3.504,3.995c0.646,0.063,1.354,0.063,1.998-0.029c1.935-0.308,2.949-1.26,3.193-3.164
	c0.186-1.567,0.217-3.194,0.34-4.886L136.777,121.7z M56.781,121.792c-0.185,3.104-1.26,5.44-3.475,7.101
	c-4.548,3.442-11.155,1.291-12.907-4.238c-1.383-4.396,0.492-9.188,4.332-11.002c5.011-2.364,10.88,0.677,11.832,6.24
	c0.152,0.799,0.184,1.539,0.216,1.905L56.781,121.792z M52.999,121.764h-0.184c0-1.32,0.062-2.673,0-3.996
	c-0.155-2.519-1.291-3.84-3.627-4.117c-2.981-0.308-4.824,0.707-5.164,3.441c-0.37,3.137-0.431,6.271,0,9.375
	c0.308,2.151,1.352,3.105,3.442,3.411c0.46,0.063,0.921,0.031,1.32,0.031c2.181-0.029,3.596-1.199,3.84-3.351
	c0.276-1.629,0.308-3.195,0.369-4.795H52.999z M143.473,121.578c0.309-3.471,1.6-6.084,4.457-7.621
	c4.945-2.734,10.907,0.124,12.168,5.656c0.829,3.811-0.677,7.744-3.75,9.681c-5.009,3.136-11.588,0.185-12.662-5.714
	c-0.123-0.708-0.123-1.505-0.215-1.998L143.473,121.578z M147.316,121.734h0.183c0,1.32-0.062,2.672,0,3.996
	c0.153,2.459,1.292,3.75,3.503,4.086c0.461,0.063,0.953,0.031,1.383,0.031c2.151-0.031,3.504-1.137,3.842-3.258
	c0.459-3.165,0.367-6.393,0.061-9.557c-0.153-1.66-1.014-2.92-2.766-3.288c-0.799-0.151-1.631-0.216-2.431-0.151
	c-2.151,0.215-3.258,1.29-3.505,3.441c-0.216,1.598-0.216,3.165-0.275,4.701L147.316,121.734z M93.29,90.477
	c1.537-1.137,3.073-2.15,4.486-3.288c1.444-1.138,2.612-2.521,3.474-4.149c0.029,0,0.121,0.032,0.15,0.032
	c0.125,1.659,0.276,3.317,0.341,4.978c0,0.185-0.276,0.431-0.462,0.521c-1.875,1.014-3.903,1.535-5.992,1.752
	c-0.677,0.093-1.322,0.123-1.998,0.152L93.29,90.477L93.29,90.477z M188.837,109.102c-2.09,0-3.657-1.66-3.657-3.75
	c0-2.121,1.631-3.688,3.75-3.688c2.029,0,3.625,1.628,3.625,3.688C192.555,107.502,190.928,109.102,188.837,109.102L188.837,109.102
	z M188.896,108.518c1.629,0,2.951-1.384,2.951-3.104c0-1.752-1.322-3.136-2.98-3.136c-1.629,0-2.98,1.445-2.98,3.136
	c0.03,1.69,1.383,3.104,3.014,3.104H188.896z M187.546,107.533v-4.242c0.522,0,1.106-0.029,1.631,0
	c0.521,0.031,1.015,0.186,1.166,0.8c0.185,0.614-0.061,1.046-0.46,1.29c0.217,0.707,0.43,1.354,0.645,2.028
	c-0.707,0.185-0.799,0.155-0.952-0.552c-0.185-0.982-0.31-1.104-1.323-1.014v1.66c-0.309,0-0.492,0.031-0.707,0.031L187.546,107.533
	z M188.253,103.876v1.507c0.522-0.214,0.954-0.337,1.29-0.553c0.063-0.03,0.063-0.46-0.027-0.615
	C189.207,103.754,188.746,103.814,188.253,103.876L188.253,103.876z"/>
</svg>
