<?xml version="1.0" encoding="utf-8"?>
<!-- Generator: Adobe Illustrator 16.0.0, SVG Export Plug-In . SVG Version: 6.00 Build 0)  -->
<!DOCTYPE svg PUBLIC "-//W3C//DTD SVG 1.1//EN" "http://www.w3.org/Graphics/SVG/1.1/DTD/svg11.dtd">
<svg version="1.1" id="Ebene_1" xmlns="http://www.w3.org/2000/svg" xmlns:xlink="http://www.w3.org/1999/xlink" x="0px" y="0px"
	 width="200px" height="175px" viewBox="0 0 200 175" enable-background="new 0 0 200 175" xml:space="preserve">
<path fill="#9a9997" d="M118.036,86.661c-0.056,0.825-0.168,1.579-0.146,2.327c0.045,1.421,0.267,2.816,0.959,4.091
	c0.141,0.254,0.342,0.479,0.539,0.696c0.141,0.152,0.313,0.188,0.438-0.067c-0.191-0.237-0.406-0.465-0.57-0.724
	c-0.376-0.588-0.564-1.254-0.717-1.928c-0.266-1.181-0.367-2.373-0.166-3.571c0.082-0.479,0.206-0.971,0.412-1.409
	c0.469-0.993,1.218-1.419,2.477-1.224c0.875,0.136,1.545,0.635,2.104,1.285c0.919,1.067,1.511,2.305,1.862,3.663
	c0.028,0.111,0.025,0.238,0.084,0.331c0.049,0.08,0.162,0.119,0.248,0.175c0.043-0.076,0.129-0.158,0.121-0.229
	c-0.023-0.21-0.084-0.418-0.132-0.626c-0.022-0.107-0.044-0.217-0.071-0.354c0.641,0.049,1.145,0.366,1.683,0.584
	c1.212,0.489,2.134,1.364,2.957,2.336c1.929,2.271,3.515,4.766,4.747,7.479c0.498,1.093,0.893,2.218,1.07,3.448
	c-0.607,0.104-1.186-0.02-1.765-0.092c-0.127-0.018-0.272-0.071-0.379-0.029c-0.485,0.193-0.983,0.119-1.46,0.033
	c-1.486-0.267-2.948-0.642-4.389-1.101c-1.674-0.532-3.342-1.081-5.028-1.569c-1.076-0.312-2.187-0.375-3.315-0.281
	c-1.389,0.115-2.715,0.488-4.039,0.865c-1.037,0.297-2.053,0.688-3.069,1.061c-0.255,0.094-0.501,0.25-0.714,0.423
	c-1.229,1.005-2.527,1.897-3.99,2.524c-1.154,0.494-2.355,0.695-3.611,0.518c-0.348-0.049-0.662-0.168-1.023-0.469
	c0.218-0.021,0.334-0.051,0.447-0.043c1.271,0.098,2.393-0.326,3.433-1.014c0.137-0.088,0.26-0.207,0.364-0.33
	c0.25-0.293,0.224-0.551-0.058-0.814c-0.3-0.279-0.604-0.559-0.891-0.85c-0.247-0.252-0.544-0.363-0.888-0.363
	c-0.74-0.004-1.484-0.027-2.226,0.004c-1.147,0.047-2.298,0.105-3.443,0.206c-1.92,0.167-3.842,0.261-5.768,0.208
	c-0.753-0.02-1.507-0.105-2.257-0.191c-0.319-0.035-0.571-0.02-0.776,0.269c-0.132,0.187-0.33,0.321-0.481,0.495
	c-0.217,0.248-0.211,0.482,0.042,0.687c0.53,0.423,1.07,0.808,1.82,0.734c0.891-0.084,1.67,0.288,2.426,0.698
	c0.279,0.15,0.587,0.271,0.812,0.576c-0.42,0.15-0.794,0.119-1.161,0.049c-0.914-0.172-1.825-0.198-2.747-0.063
	c-0.543,0.08-1.088,0.02-1.59-0.219c-1.277-0.604-2.548-1.215-3.818-1.833c-0.813-0.396-1.612-0.819-2.428-1.21
	c-0.6-0.287-1.132-0.666-1.638-1.088c-0.392-0.326-0.779-0.656-1.166-0.988c-0.75-0.645-1.447-1.33-1.99-2.17
	c-0.669-1.035-1.384-2.04-2.087-3.055c-0.067-0.096-0.19-0.174-0.303-0.219c-2.706-1.051-4.336-3.048-5.11-5.8
	c-0.223-0.794-0.34-1.607-0.391-2.425c-0.061-0.964,0.145-1.894,0.471-2.798c0.657-1.829,1.753-3.377,3.051-4.796
	c1.703-1.864,3.69-3.379,5.851-4.661c2.741-1.625,5.662-2.84,8.734-3.698c1.664-0.464,3.343-0.836,5.045-1.109
	c1.052-0.168,2.122-0.222,3.18-0.356c1.606-0.202,3.22-0.185,4.833-0.151c1.543,0.032,3.078,0.19,4.605,0.421
	c1.497,0.226,2.979,0.509,4.432,0.927c1.422,0.409,2.851,0.806,4.232,1.323c2.523,0.945,5.016,1.975,7.521,2.968
	c2.293,0.91,4.615,1.74,7.048,2.197c0.739,0.139,1.497,0.201,2.249,0.258c0.688,0.053,1.379,0.053,2.07,0.074
	c0.172,0.005,0.349,0,0.522,0.043c-0.842,0.176-1.692,0.197-2.545,0.183c-1.386-0.024-2.754-0.201-4.095-0.534
	c-1.256-0.312-2.508-0.667-3.729-1.091c-2.063-0.714-4.104-1.498-6.155-2.253c-2.345-0.862-4.715-1.643-7.146-2.224
	c-1.531-0.366-3.084-0.634-4.647-0.829c-2.08-0.261-4.166-0.344-6.257-0.273c-1.49,0.051-2.975,0.203-4.455,0.432
	c-1.906,0.296-3.766,0.748-5.603,1.326c-1.901,0.6-3.728,1.379-5.487,2.31c-2.381,1.261-4.585,2.783-6.537,4.651
	c-1.326,1.27-2.508,2.654-3.334,4.312c-0.325,0.65-0.561,1.33-0.66,2.052c-0.083,0.605,0.06,1.176,0.271,1.735
	c0.474,1.25,1.254,2.189,2.596,2.561c0.602,0.166,1.209,0.109,1.815,0.053c0.119-0.011,0.232-0.107,0.341-0.178
	c1.559-1.013,3.105-2.045,4.754-2.911c1.788-0.94,3.686-1.555,5.662-1.948c1.321-0.264,2.649-0.462,3.991-0.602
	c1.291-0.134,2.58-0.259,3.879-0.287c1.841-0.039,3.684-0.166,5.523-0.145c2.25,0.027,4.492,0.192,6.715,0.603
	c2.039,0.375,3.955,1.075,5.804,1.989c0.735,0.363,1.489,0.689,2.217,1.023L118.036,86.661z M102.895,91.305
	c-1.143-0.63-2.438-0.859-3.62-0.539c-1.013,0.274-1.683,0.93-1.856,2.012c-0.144,0.895,0.142,1.463,0.965,1.83
	c0.495,0.221,1.008,0.395,1.515,0.59c0.24,0.092,0.462,0.211,0.462,0.51c0.002,0.244-0.242,0.455-0.577,0.521
	c-0.079,0.017-0.164,0.017-0.245,0.02c-0.487,0.018-0.945-0.098-1.384-0.301c-0.279-0.129-0.554-0.266-0.868-0.414
	c-0.206,0.568-0.4,1.104-0.606,1.677c0.429,0.155,0.82,0.329,1.228,0.438c0.966,0.262,1.941,0.338,2.916,0.029
	c0.768-0.242,1.37-0.707,1.584-1.492c0.39-1.428,0.043-2.197-1.193-2.576c-0.44-0.135-0.883-0.262-1.316-0.416
	c-0.219-0.076-0.418-0.209-0.411-0.49c0.007-0.238,0.169-0.412,0.489-0.475c0.176-0.035,0.37-0.065,0.538-0.025
	c0.412,0.1,0.815,0.238,1.219,0.367c0.119,0.037,0.232,0.098,0.369,0.154c0.272-0.486,0.528-0.941,0.803-1.431L102.895,91.305z
	 M104.182,90.841l-0.264,1.56l0.871,0.05c-0.229,1.751-0.605,3.454-0.814,5.185h2.178l0.877-5.221h0.949l0.273-1.545
	c-0.342-0.02-0.631-0.037-0.949-0.055l0.354-2.26h-2.169c-0.135,0.754-0.268,1.502-0.403,2.281h-0.901v0.005H104.182z M96.152,90.88
	h-2.214c-0.374,2.269-0.742,4.507-1.114,6.763h2.188l1.139-6.765L96.152,90.88z M130.35,98.384c-0.152-0.743-0.393-1.35-0.742-1.907
	c-0.209-0.332-0.493-0.578-0.869-0.693c-0.479-0.145-0.961-0.188-1.452-0.037c-0.353,0.107-0.455,0.244-0.37,0.598
	c0.093,0.385,0.331,0.676,0.636,0.91c0.617,0.479,1.314,0.803,2.058,1.029c0.211,0.066,0.445,0.061,0.742,0.098v0.003H130.35z
	 M95.419,89.557c0.777,0.004,1.362-0.566,1.353-1.318c-0.007-0.648-0.54-1.176-1.199-1.186c-0.741-0.014-1.423,0.598-1.425,1.279
	c0,0.679,0.563,1.22,1.273,1.224L95.419,89.557z M153.451,106.182c-2.801-0.056-5.233-1-7.334-2.847
	c-1.197-1.054-2.123-2.287-2.729-3.758c-0.377-0.915-0.609-1.863-0.726-2.853c-0.122-1.055-0.121-2.1,0.028-3.146
	c0.207-1.453,0.715-2.798,1.523-4.021c1.197-1.813,2.766-3.208,4.735-4.133c1.25-0.589,2.573-0.894,3.948-0.945
	c1.371-0.053,2.723,0.048,4.041,0.483c1.299,0.43,2.469,1.081,3.512,1.954c1.17,0.98,2.146,2.127,2.845,3.498
	c0.587,1.152,0.942,2.367,1.087,3.658c0.102,0.924,0.092,1.836-0.023,2.751c-0.217,1.729-0.827,3.308-1.868,4.712
	c-1.128,1.52-2.523,2.721-4.229,3.547c-1.091,0.525-2.236,0.854-3.441,0.961c-0.459,0.04-0.916,0.088-1.373,0.133L153.451,106.182z
	 M161.21,95.171c0.042-0.594-0.048-1.323-0.239-2.043c-0.734-2.765-3.279-5.416-6.797-5.645c-1.643-0.108-3.214,0.174-4.635,1.059
	c-1.48,0.92-2.594,2.174-3.23,3.804c-0.615,1.571-0.686,3.209-0.314,4.844c0.474,2.094,1.712,3.672,3.507,4.812
	c1.42,0.899,2.979,1.241,4.655,1.103c1.841-0.153,3.435-0.858,4.744-2.156c1.558-1.543,2.357-3.413,2.31-5.778V95.171z
	 M30.008,105.248c-2.826,0.05-5.254-0.95-7.362-2.811c-1.593-1.401-2.662-3.125-3.158-5.176c-0.312-1.295-0.421-2.615-0.284-3.959
	c0.161-1.568,0.639-3.018,1.439-4.361c0.285-0.479,0.627-0.93,0.99-1.354c1.632-1.904,3.645-3.216,6.115-3.742
	c1.159-0.247,2.339-0.294,3.53-0.178c1.208,0.12,2.368,0.392,3.451,0.926c2.493,1.232,4.347,3.1,5.477,5.661
	c0.476,1.077,0.718,2.212,0.804,3.384c0.155,2.1-0.21,4.088-1.224,5.941c-0.871,1.59-2.097,2.861-3.583,3.883
	c-1.451,0.996-3.076,1.547-4.811,1.77c-0.453,0.06-0.92,0.011-1.381,0.011L30.008,105.248z M22.37,94.154
	c0.018,2.357,0.649,4.173,2.101,5.668c1.866,1.921,4.104,2.75,6.782,2.373c1.974-0.278,3.559-1.219,4.81-2.734
	c1.614-1.956,2.051-4.22,1.6-6.669c-0.348-1.89-1.341-3.409-2.839-4.597c-0.984-0.779-2.089-1.307-3.349-1.442
	c-0.603-0.065-1.211-0.095-1.817-0.097c-1.122-0.004-2.193,0.27-3.16,0.822c-2.691,1.536-4.09,3.855-4.128,6.67V94.154z
	 M168.396,85.439c0,4.417-0.013,8.834,0.011,13.25c0.003,0.648,0.094,1.316,0.265,1.943c0.656,2.401,2.215,4.027,4.49,4.967
	c1.316,0.541,2.695,0.654,4.111,0.463c1.098-0.147,2.119-0.483,3.041-1.078c2.332-1.504,3.533-3.659,3.545-6.438
	c0.018-4.401,0.006-8.802,0.006-13.202v-0.469c-0.561-0.104-2.771-0.088-3.165,0.022v0.577c0,4.154,0.005,8.305-0.005,12.459
	c-0.002,0.539-0.049,1.084-0.141,1.614c-0.341,1.996-1.762,3.198-3.423,3.493c-0.577,0.102-1.161,0.113-1.758,0.046
	c-1.547-0.175-3.031-1.313-3.474-2.765c-0.26-0.857-0.392-1.734-0.393-2.621c-0.015-4.088-0.006-8.176-0.006-12.263v-0.605H168.4
	v0.605L168.396,85.439L168.396,85.439z M9.177,98.305c-1.9-4.771-3.8-9.539-5.689-14.281h-3.491
	c3.061,7.503,6.099,14.949,9.174,22.485c3.16-7.558,6.276-15.008,9.39-22.495h-3.486c-1.931,4.773-3.854,9.526-5.777,14.28
	L9.177,98.305L9.177,98.305z M199.902,84.844h-12.627c-0.094,0.639-0.068,2.624,0.048,3.014h4.751v13.931
	c0,0.658,0,1.318,0.002,1.979c0.002,0.65,0.008,1.303,0.012,1.951h3.133v-17.88h4.725c0.097-0.775,0.064-2.664-0.037-2.995H199.902z
	 M60.365,84.034c-0.71-0.095-2.754-0.067-3.097,0.033v20.835c0.615,0.099,8.843,0.072,9.202-0.024v-2.987h-6.105V84.034
	L60.365,84.034z M48.091,101.887V84.019h-3.079c-0.019,0.079-0.04,0.125-0.04,0.172c-0.002,6.843-0.002,13.681-0.001,20.521
	c0,0.05,0.012,0.101,0.022,0.146c0.003,0.016,0.019,0.027,0.029,0.039c0.01,0.014,0.023,0.023,0.029,0.031h9.157v-3.041H48.091
	L48.091,101.887L48.091,101.887z M123.932,86.214c0.396,0.581,0.734,1.201,1.077,1.815c0.147,0.267,0.288,0.459,0.628,0.548
	c0.6,0.155,1.172,0.416,1.756,0.631c0.116,0.043,0.231,0.086,0.373,0.14c0.029-0.117,0.064-0.193,0.066-0.269
	c0.012-0.724,0.027-1.447-0.119-2.161c-0.146-0.712-0.363-1.396-0.801-1.991c-0.569-0.775-1.783-1.315-2.748-0.799
	c-0.471,0.252-0.839,0.618-1.161,1.062C123.341,85.556,123.688,85.851,123.932,86.214L123.932,86.214z M112.465,102.378
	c-0.168,0.074-0.301,0.228-0.48,0.366c0.32,0.242,0.584,0.464,0.867,0.656c0.448,0.304,0.906,0.595,1.369,0.875
	c0.598,0.359,1.24,0.492,1.938,0.398c0.372-0.051,0.753-0.078,1.127-0.059c0.39,0.02,0.776,0.115,1.165,0.164
	c0.137,0.016,0.277-0.012,0.415-0.021c-0.007-0.081,0-0.116-0.015-0.143c-0.024-0.041-0.058-0.081-0.096-0.111
	c-0.632-0.514-1.277-0.993-2.16-0.901c-0.545,0.059-0.996-0.14-1.396-0.492c-0.328-0.293-0.357-0.36-0.171-0.762
	c0.158-0.341,0.357-0.662,0.589-1.08c-1.138,0.326-2.162,0.666-3.147,1.104L112.465,102.378z M83.438,104.363
	c-0.168-0.127-0.332-0.262-0.506-0.377c-0.438-0.293-0.76-0.68-0.947-1.172c-0.26-0.684-0.212-0.799,0.435-1.172
	c0.026-0.016,0.041-0.051,0.072-0.094l-2.777-2.383c-0.374,0.65-0.328,1.283-0.042,1.91c0.238,0.523,0.486,1.045,0.763,1.549
	c0.25,0.46,0.527,0.91,0.826,1.341c0.114,0.165,0.301,0.337,0.486,0.39c0.535,0.152,1.088,0.188,1.64,0.109
	c0.014-0.033,0.028-0.068,0.044-0.104L83.438,104.363z"/>
</svg>
