<svg xmlns="http://www.w3.org/2000/svg" viewBox="0 0 649 272">
  <g>
	<path fill="none" stroke="#9C6698" stroke-width="2" d="M517.233,261.698c-44.83,0-52.411-60.919-52.411-124.799"/>
	<path fill="none" stroke="#D0C0AF" stroke-width="2" d="M634.695,137.297c0,64.217-37.957,124.401-116.462,124.401
		c-78.501,0-116.889-60.52-116.889-124.401c0-63.881,38.388-127.428,116.889-127.428C596.738,9.87,634.695,73.417,634.695,137.297"
		/>
	<path fill="none" stroke="#D0C0AF" stroke-width="2" d="M262.33,9.872c44.76,0,52.328,60.918,52.328,124.798"/>
	<path fill="none" stroke="#D0C0AF" stroke-width="2" d="M314.658,134.67c0,63.881-8.988,127.031-52.328,127.031"/>
	<path fill="none" stroke="#D0C0AF" stroke-width="2" d="M261.856,9.872c55.167,0.113,71.724,61.852,71.724,125.733
		c0,63.88-18.922,126.096-71.724,126.096"/>
	<path fill="none" stroke="#D0C0AF" stroke-width="2" d="M260.911,9.872c71.646-0.41,90.644,72.102,90.644,126.2
		c0,63.881-22.232,125.62-90.644,125.629"/>
	<path fill="none" stroke="#D0C0AF" stroke-width="2" d="M260.911,9.872c78.501,0,106.728,61.852,106.728,125.733
		c0,63.88-28.227,126.096-106.728,126.096"/>
	<path fill="none" stroke="#D0C0AF" stroke-width="2" d="M260.428,261.698c-44.76,0-52.328-60.919-52.328-124.798"/>
	<path fill="none" stroke="#D0C0AF" stroke-width="2" d="M208.099,136.899c0-63.88,8.988-127.03,52.328-127.03"/>
	<path fill="none" stroke="#D0C0AF" stroke-width="2" d="M260.9,261.698c-55.167-0.112-71.723-61.852-71.723-125.732
		C189.177,72.086,208.1,9.87,260.9,9.87"/>
	<path fill="none" stroke="#D0C0AF" stroke-width="2" d="M261.847,261.698c-61.79,0.354-90.645-62.318-90.645-126.2
		c0-63.881,22.233-125.62,90.645-125.629"/>
	<path fill="none" stroke="#D0C0AF" stroke-width="2" d="M261.847,261.698c-78.502,0-106.728-61.852-106.728-125.732
		c0-63.88,28.226-126.096,106.728-126.096"/>
	<path fill="none" stroke="#D0C0AF" stroke-width="2" d="M296.312,197.481V74.76c0-31.258-1.686-63.75-33.487-64.864
		c-0.477-0.017-0.96-0.026-1.451-0.026c-32.779,0-35.798,37.369-35.798,63.883v123.729c0,31.883,3.019,64.218,35.798,64.218
		C294.157,261.699,296.312,236.836,296.312,197.481z"/>
	<path fill="none" stroke="#D0C0AF" stroke-width="2" d="M144.484,137.297c0-63.881,38.389-127.428,116.89-127.428
		c78.505,0,116.461,63.547,116.461,127.428c0,64.217-37.956,124.401-116.461,124.401
		C182.873,261.698,144.484,201.179,144.484,137.297z"/>
	<path fill="none" stroke="#8C273A" stroke-width="2" d="M518.651,261.698c-78.544,0-106.788-61.852-106.788-125.732
		c0-63.88,28.244-126.096,106.788-126.096"/>
	<path fill="none" stroke="#DC0B23" stroke-width="2" d="M518.652,261.698c-61.835,0.354-90.711-62.318-90.711-126.2
		c0-63.881,22.249-125.62,90.711-125.629"/>
	<path fill="none" stroke="#C40F7E" stroke-width="2" d="M517.706,261.698c-55.224-0.112-71.798-61.852-71.798-125.732
		c0-63.88,18.942-126.096,71.798-126.096"/>
	<path fill="none" stroke="#9C6698" stroke-width="2" d="M464.822,136.899c0-63.88,9.001-127.029,52.411-127.029"/>
	<path fill="none" stroke="#09AB84" stroke-width="2" d="M517.716,9.872c78.544,0,106.787,61.852,106.787,125.733
		c0,63.88-28.243,126.096-106.787,126.096"/>
	<path fill="none" stroke="#76B82A" stroke-width="2" d="M517.715,9.872c61.835-0.354,90.711,62.319,90.711,126.2
		c0,63.88-22.248,125.62-90.711,125.629"/>
	<path fill="none" stroke="#00847F" stroke-width="2" d="M518.661,9.872c55.225,0.113,71.798,61.852,71.798,125.733
		c0,63.88-18.941,126.096-71.798,126.096"/>
	<path fill="none" stroke="#18BAE5" stroke-width="2" d="M519.135,9.872c44.83,0,52.411,60.917,52.411,124.798 M571.546,134.67
		c0,63.881-9.003,127.03-52.411,127.03"/>
	<path fill="none" stroke="#0E6EB6" stroke-width="2" d="M517.382,261.674c0.479,0.017,0.963,0.024,1.454,0.024
		c32.862,0,35.888-37.368,35.888-63.883V74.087c0-31.882-3.025-64.217-35.888-64.217"/>
	<path fill="none" stroke="#5A267D" stroke-width="2" d="M519.021,9.895c-0.489-0.016-0.983-0.025-1.486-0.025
		c-33.57,0-36.662,37.368-36.662,63.883v123.729c0,31.883,3.092,64.218,36.662,64.218"/>
	<path fill="none" stroke="#D0C0AF" stroke-width="2" d="M17.191,49.315c0,0,26.431-9.601,38.751-0.78
		c12.074,8.041,11.335,26.709,11.335,26.709v147.019c0,0,0.244,33.308-4.231,38.827 M40.35,261.093
		c13.005-3.913,11.403-40.669,11.403-40.669V73.284c0,0-0.246-11.885-6.407-18.623c-9.856-10.291-28.155-5.346-28.155-5.346
		s22.118-6.783,34.562,4.366c6.284,5.514,6.407,20.338,6.407,20.338v147.753c0,0,0.492,34.549-7.262,39.317 M17.191,49.983
		c0,0,10.783-3.653,22.242,3.576c6.406,4.9,6.549,19.719,6.53,18.989v146.773c0,0,0.739,25.115-5.792,34.55
		c-1.724,2.204-6.652,6.493-9.486,7.229 M137.216,261.093H7.304v-2.063c30.347,0,34.097-9.286,34.097-39.892V81.924
		c0-26.823-3.75-31.981-24.21-31.981v-2.066C38.298,43.041,75.6,29.431,98.72,9.887c2.143-0.018,1.922-0.018,4.385-0.018
		l0.014,209.269c0,30.605,3.749,39.892,34.097,39.892V261.093z"/>
  </g>
</svg>
