<svg xmlns="http://www.w3.org/2000/svg" viewBox="0 0 499 69">
  <style type="text/css">
    .path{fill:#ffffff;}
  </style>  
  <g>
	<path class="path" fill="#999797" d="M6.665,52.014c0,1.406,1.273,2.544,2.846,2.544h44.507
		c1.569,0,2.848-1.138,2.848-2.544V33.309H6.665V52.014z M51.395,9.721H35.086V6.744h-1.803V4.862h-0.004
		c0-0.022,0.004-0.045,0.004-0.065V4.728c-0.011-0.725-0.513-1.329-1.196-1.481V2h-0.661v1.244
		c-0.693,0.147-1.212,0.759-1.218,1.495v0.038c0.002,0.027,0.006,0.057,0.009,0.085h-0.004v1.882h-0.005v0.012h-1.752v2.965H12.016
		l-5.351,7.552V30.97h50.201l0.001-13.758L51.395,9.721z"/>
	<path class="path" fill="#999797" d="M80.887,52.475c-0.216,0.612-0.396,0.828-2.017,1.404l-0.503,0.18
		c-0.109,0.072-0.109,0.181-0.109,0.288c0,0.108,0.037,0.252,0.109,0.252c1.188-0.107,2.267-0.144,3.203-0.144
		c1.369,0,2.665,0,4.105,0.144c0.072,0,0.072-0.144,0.072-0.252c0-0.107,0-0.216-0.072-0.288l-0.576-0.18
		c-2.052-0.648-2.196-0.756-2.196-1.224c0.072-0.686,0.936-3.926,1.584-5.833c1.26-0.072,2.556-0.072,3.817-0.072
		c1.295,0,2.663,0,3.96,0.072c0.431,1.332,1.044,3.601,1.475,5.22c0.072,0.289,0.109,0.577,0.109,0.685
		c0,0.432-0.252,0.576-2.052,1.152l-0.576,0.18c-0.072,0.072-0.072,0.181-0.072,0.288c0,0.108,0,0.252,0.072,0.252
		c1.44-0.107,2.736-0.144,4.14-0.144c1.368,0,2.772,0.036,4.212,0.144c0.036,0,0.072-0.144,0.072-0.252c0-0.107,0-0.216-0.072-0.288
		l-1.692-0.611c-0.54-0.217-0.648-0.505-0.936-1.368c-2.304-7.201-4.465-14.005-6.769-21.53c-0.035-0.108-0.108-0.18-0.215-0.18
		h-1.477c-0.072,0-0.108,0.036-0.144,0.144C85.999,37.606,82.939,46.535,80.887,52.475 M91.94,45.273h-7.021l3.564-10.98h0.145
		L91.94,45.273z M115.341,52.799c-0.073-1.225-0.073-3.205-0.073-5.293v-3.24c0-5.184,0-10.333,0.181-16.561
		c0-0.18-0.072-0.36-0.253-0.36c-1.439,0.216-4.284,0.324-5.004,0.324c-0.072,0-0.107,0.144-0.107,0.252s0,0.18,0.107,0.252
		l1.549,0.504c0.683,0.216,0.755,0.252,0.792,0.828c0.072,1.188,0.144,5.436,0.144,7.813c-1.08-0.756-2.089-1.188-3.637-1.188
		c-5.436,0-7.452,4.752-7.452,10.333c0,4.319,1.98,8.424,6.012,8.424c2.485,0,4.032-1.296,5.041-3.096h0.144
		c0,0.936,0,1.439-0.072,2.448c0,0.252,0.107,0.323,0.216,0.323c0.683-0.107,1.26-0.107,1.836-0.107c0.827,0,2.088,0.071,2.88,0.144
		c0.072,0,0.108-0.144,0.108-0.252c0-0.107-0.036-0.252-0.108-0.288l-1.188-0.432C115.521,53.303,115.377,53.23,115.341,52.799
		 M112.82,45.418c0,4.825-1.044,8.136-4.247,8.136c-3.097,0-4.033-3.779-4.033-8.388c0-4.104,1.152-7.992,4.464-7.992
		C112.424,37.174,112.82,39.478,112.82,45.418 M134.494,44.842c0-5.148-2.484-8.712-7.093-8.712c-4.969,0-7.38,4.392-7.38,9.937
		c0,5.4,2.628,9.108,7.272,9.108C132.621,55.175,134.494,49.847,134.494,44.842 M123.009,45.454c0-4.392,1.116-8.208,4.248-8.208
		c3.672,0,4.248,4.968,4.248,8.388c0,3.384-0.503,8.353-3.923,8.353C124.305,53.986,123.009,50.603,123.009,45.454 M142.342,53.051
		c-0.036-0.72-0.108-4.249-0.108-7.417v-0.36c0-8.748,0.108-16.057,0.18-17.569c0-0.18,0-0.36-0.216-0.36
		c-1.44,0.216-3.456,0.324-5.148,0.324c-0.036,0-0.073,0.144-0.073,0.252c0,0.072,0,0.18,0.073,0.252l1.008,0.324
		c1.26,0.396,1.332,0.432,1.368,1.008c0.072,1.188,0.108,7.057,0.108,15.769v0.36c0,3.168-0.036,6.697-0.108,7.417
		c-0.036,0.216-0.108,0.288-1.836,0.864l-0.648,0.216c-0.072,0.036-0.072,0.144-0.072,0.252c0,0.072,0,0.216,0.072,0.216
		c1.296-0.107,2.304-0.144,3.672-0.144c1.332,0,2.88,0.036,4.14,0.144c0.036,0,0.073-0.144,0.073-0.216c0-0.108,0-0.216-0.073-0.252
		l-0.684-0.216C142.414,53.411,142.378,53.303,142.342,53.051 M151.415,61.187c-0.072-0.684-0.109-3.312-0.109-4.859v-2.412h0.144
		c1.009,0.647,2.413,0.972,3.709,0.972c5.112,0,7.2-4.607,7.2-10.297c0-3.96-0.755-8.46-6.048-8.46c-2.268,0-3.78,1.08-5.005,2.628
		h-0.18l0.073-1.836c0-0.18-0.037-0.36-0.252-0.36c-1.477,0.216-3.061,0.324-4.717,0.324c-0.072,0-0.108,0.144-0.108,0.252
		c0,0.072,0,0.18,0.108,0.252l1.08,0.324c1.188,0.324,1.224,0.36,1.26,0.864c0.073,1.188,0.108,3.852,0.108,6.696v0.36
		c0,3.168-0.072,14.869-0.108,15.553c-0.036,0.218-0.072,0.289-1.836,0.901l-0.612,0.215c-0.072,0.037-0.072,0.145-0.072,0.252
		c0,0.072,0,0.216,0.072,0.216c1.26-0.106,2.448-0.144,3.816-0.144c1.296,0,2.7,0.037,3.961,0.144c0.072,0,0.072-0.144,0.072-0.216
		c0-0.107,0-0.215-0.072-0.252l-0.648-0.215C151.522,61.511,151.45,61.438,151.415,61.187 M151.234,44.193
		c0-4.68,1.728-6.695,4.5-6.695c2.989,0,3.745,3.528,3.745,8.352c0,5.474-1.584,7.885-4.68,7.885c-1.296,0-2.664-0.54-3.349-1.476
		C151.271,50.891,151.234,46.642,151.234,44.193 M170.172,27.705c0-0.18-0.037-0.36-0.216-0.36
		c-1.477,0.216-3.385,0.324-5.005,0.324c-0.072,0-0.108,0.144-0.108,0.252c0,0.072,0,0.18,0.108,0.252l1.009,0.324
		c1.259,0.396,1.295,0.432,1.368,1.008c0.072,1.188,0.107,7.021,0.107,16.129c0,3.168,0,6.697-0.072,7.417
		c-0.035,0.216-0.108,0.288-1.836,0.864l-0.648,0.216c-0.072,0.036-0.072,0.144-0.072,0.252c0,0.072,0,0.216,0.072,0.216
		c1.296-0.107,2.34-0.144,3.709-0.144c1.332,0,2.807,0.036,4.068,0.144c0.072,0,0.072-0.144,0.072-0.216
		c0-0.108,0-0.216-0.072-0.252l-0.684-0.216c-1.693-0.504-1.8-0.612-1.837-0.864c-0.035-0.72-0.072-3.385-0.072-4.932v-6.625
		c0.505-2.124,2.052-3.744,4.357-3.744c2.952,0,3.168,1.8,3.168,4.607v3.276c0,4.393-0.036,6.589-0.108,7.417
		c-0.036,0.216-0.072,0.252-1.836,0.864l-0.612,0.216c-0.072,0.036-0.072,0.144-0.072,0.252c0,0.072,0,0.216,0.072,0.216
		c1.26-0.107,2.448-0.144,3.817-0.144c1.295,0,2.628,0.036,3.888,0.144c0.035,0,0.072-0.144,0.072-0.216
		c0-0.108,0-0.216-0.072-0.252l-0.648-0.216c-1.728-0.576-1.765-0.612-1.801-0.864c-0.036-0.72-0.036-4.033-0.036-5.437v-0.756
		c0-2.952,0.072-4.753,0.072-6.517c0-3.168-2.34-4.212-4.644-4.212c-2.52,0-4.285,1.152-5.545,2.88h-0.107
		C170.028,36.022,170.063,29.469,170.172,27.705 M193.177,46.354c0.144,0,0.144-0.071,0.144-0.252v-1.764
		c0-0.145,0-0.216-0.144-0.216h-7.488c-0.109,0-0.145,0.071-0.145,0.252v1.765c0,0.144,0.036,0.215,0.145,0.215H193.177z
		 M205.31,40.702c2.16-2.376,6.696-7.237,7.56-8.029c0.648-0.612,1.368-1.044,2.088-1.224l0.504-0.144
		c0.072-0.036,0.072-0.108,0.072-0.288c0-0.144,0-0.252-0.072-0.252c-0.756,0.108-2.412,0.144-3.456,0.144
		c-0.9,0-2.52-0.036-3.493-0.144c-0.035,0-0.072,0.144-0.072,0.216c0,0.108,0,0.288,0.072,0.324l0.505,0.144
		c1.296,0.396,1.656,0.54,1.656,0.864c0,0.54-4.141,5.401-8.173,9.505v0.251c1.765,1.98,7.597,9.686,8.173,11.018
		c0,0.252-0.252,0.396-1.332,0.72l-0.829,0.252c-0.072,0.072-0.072,0.181-0.072,0.288c0,0.18,0,0.252,0.072,0.252
		c1.477-0.107,2.881-0.144,4.033-0.144c1.117,0,2.629,0.036,3.996,0.144c0.072,0,0.108-0.072,0.108-0.252
		c0-0.107,0-0.216-0.108-0.288l-0.647-0.216c-0.865-0.289-1.044-0.504-1.585-1.152C212.906,50.891,207.47,43.654,205.31,40.702
		 M200.701,30.909c-1.08,0-2.88-0.036-4.356-0.144c-0.036,0-0.072,0.072-0.072,0.252c0,0.108,0,0.216,0.072,0.288l0.828,0.252
		c1.944,0.612,1.98,0.684,2.016,0.972c0.108,3.132,0.108,7.093,0.108,9.217v0.36c0,2.088,0,7.598-0.108,10.693
		c-0.036,0.324-0.108,0.359-2.052,1.008l-0.756,0.252c-0.072,0.072-0.072,0.181-0.072,0.288c0,0.18,0.036,0.252,0.072,0.252
		c1.476-0.107,3.204-0.144,4.32-0.144c1.045,0,2.844,0.036,4.248,0.144c0.037,0,0.072-0.072,0.072-0.252
		c0-0.107,0-0.216-0.072-0.288l-0.792-0.252c-1.943-0.612-2.088-0.684-2.088-1.008c-0.072-3.096-0.072-8.605-0.072-10.693v-0.36
		c0-2.124,0-6.228,0.072-9.217c0.036-0.288,0.145-0.36,2.088-0.972l0.792-0.252c0.072-0.072,0.072-0.144,0.072-0.252
		c0-0.144,0-0.288-0.072-0.288C203.509,30.873,201.781,30.909,200.701,30.909 M231.555,44.842c0-5.148-2.483-8.712-7.091-8.712
		c-4.969,0-7.381,4.392-7.381,9.937c0,5.4,2.628,9.108,7.272,9.108C229.684,55.175,231.555,49.847,231.555,44.842 M220.071,45.454
		c0-4.392,1.116-8.208,4.248-8.208c3.672,0,4.249,4.968,4.249,8.388c0,3.384-0.505,8.353-3.925,8.353
		C221.367,53.986,220.071,50.603,220.071,45.454 M239.405,53.051c-0.037-0.72-0.109-4.249-0.109-7.417v-0.36
		c0-8.748,0.109-16.057,0.181-17.569c0-0.18,0-0.36-0.217-0.36c-1.44,0.216-3.456,0.324-5.148,0.324
		c-0.036,0-0.072,0.144-0.072,0.252c0,0.072,0,0.18,0.072,0.252l1.008,0.324c1.26,0.396,1.332,0.432,1.368,1.008
		c0.072,1.188,0.108,7.057,0.108,15.769v0.36c0,3.168-0.036,6.697-0.108,7.417c-0.036,0.216-0.108,0.288-1.836,0.864l-0.648,0.216
		c-0.072,0.036-0.072,0.144-0.072,0.252c0,0.072,0,0.216,0.072,0.216c1.296-0.107,2.304-0.144,3.672-0.144
		c1.333,0,2.88,0.036,4.14,0.144c0.037,0,0.072-0.144,0.072-0.216c0-0.108,0-0.216-0.072-0.252l-0.684-0.216
		C239.477,53.411,239.44,53.303,239.405,53.051 M248.477,61.187c-0.072-0.684-0.107-3.312-0.107-4.859v-2.412h0.144
		c1.007,0.647,2.412,0.972,3.708,0.972c5.112,0,7.201-4.607,7.201-10.297c0-3.96-0.757-8.46-6.049-8.46
		c-2.269,0-3.78,1.08-5.004,2.628h-0.182l0.072-1.836c0-0.18-0.035-0.36-0.252-0.36c-1.476,0.216-3.06,0.324-4.716,0.324
		c-0.071,0-0.108,0.144-0.108,0.252c0,0.072,0,0.18,0.108,0.252l1.08,0.324c1.188,0.324,1.225,0.36,1.26,0.864
		c0.072,1.188,0.108,3.852,0.108,6.696v0.36c0,3.168-0.071,14.869-0.108,15.553c-0.035,0.218-0.072,0.289-1.836,0.901l-0.612,0.215
		c-0.072,0.037-0.072,0.145-0.072,0.252c0,0.072,0,0.216,0.072,0.216c1.26-0.106,2.448-0.144,3.816-0.144
		c1.297,0,2.701,0.037,3.961,0.144c0.071,0,0.071-0.144,0.071-0.216c0-0.107,0-0.215-0.071-0.252l-0.649-0.215
		C248.584,61.511,248.513,61.438,248.477,61.187 M248.297,44.193c0-4.68,1.728-6.695,4.5-6.695c2.988,0,3.744,3.528,3.744,8.352
		c0,5.474-1.584,7.885-4.681,7.885c-1.296,0-2.665-0.54-3.348-1.476C248.332,50.891,248.297,46.642,248.297,44.193 M267.233,53.051
		c-0.035-0.72-0.035-4.249-0.035-7.417v-0.36c0-2.88,0.035-6.84,0.144-8.352c0-0.18-0.036-0.36-0.253-0.36
		c-1.403,0.216-3.348,0.324-5.004,0.324c-0.072,0-0.107,0.144-0.107,0.252c0,0.072,0,0.18,0.107,0.252l1.044,0.324
		c1.26,0.396,1.297,0.432,1.332,1.008c0.072,1.188,0.108,3.708,0.108,6.552v0.36c0,3.168-0.036,6.697-0.071,7.417
		c0,0.216-0.182,0.288-1.909,0.864l-0.648,0.216c-0.071,0.036-0.071,0.144-0.071,0.252c0,0.072,0,0.216,0.071,0.216
		c1.298-0.107,2.376-0.144,3.745-0.144c1.332,0,2.7,0.036,3.96,0.144c0.036,0,0.072-0.144,0.072-0.216c0-0.108,0-0.216-0.072-0.252
		l-0.684-0.216C267.414,53.411,267.27,53.303,267.233,53.051 M265.83,28.677c-1.189,0-1.837,0.936-1.837,1.98
		c0,1.116,0.647,2.088,1.837,2.088c1.188,0,1.872-0.972,1.872-2.088C267.702,29.613,267.018,28.677,265.83,28.677 M276.702,53.051
		c-0.072-0.72-0.072-3.385-0.072-4.932v-6.625c0.504-2.124,2.052-3.744,4.355-3.744c2.952,0,3.17,1.8,3.17,4.607v3.276
		c0,4.393-0.036,6.589-0.108,7.417c-0.037,0.216-0.072,0.252-1.836,0.864l-0.612,0.216c-0.072,0.036-0.072,0.144-0.072,0.252
		c0,0.072,0,0.216,0.072,0.216c1.26-0.107,2.448-0.144,3.816-0.144c1.296,0,2.628,0.036,3.888,0.144
		c0.036,0,0.072-0.144,0.072-0.216c0-0.108,0-0.216-0.072-0.252l-0.647-0.216c-1.765-0.576-1.765-0.612-1.801-0.864
		c-0.036-0.72-0.036-4.033-0.036-5.437v-0.756c0-2.952,0.072-4.753,0.072-6.517c0-3.168-2.34-4.212-4.644-4.212
		c-2.521,0-4.285,1.152-5.617,3.024h-0.107l0.071-2.232c0-0.18-0.036-0.36-0.288-0.36c-1.439,0.216-3.168,0.324-4.788,0.324
		c-0.072,0-0.107,0.144-0.107,0.252c0,0.072,0,0.18,0.107,0.252l1.08,0.324c1.188,0.36,1.225,0.396,1.296,0.864
		c0.072,1.188,0.108,3.852,0.108,6.696v0.36c0,3.168,0,6.697-0.072,7.417c-0.036,0.216-0.107,0.288-1.836,0.864l-0.648,0.216
		c-0.071,0.036-0.071,0.144-0.071,0.252c0,0.072,0,0.216,0.071,0.216c1.297-0.107,2.341-0.144,3.709-0.144
		c1.331,0,2.808,0.036,4.068,0.144c0.072,0,0.072-0.144,0.072-0.216c0-0.108,0-0.216-0.072-0.252l-0.685-0.216
		C276.847,53.411,276.738,53.303,276.702,53.051 M305.756,36.562l-3.996,0.324c-1.045-0.54-2.52-0.756-3.456-0.756
		c-3.889,0-6.409,2.628-6.409,6.588c0,2.592,1.008,4.572,2.916,5.508c-1.368,1.368-2.376,2.989-2.376,4.213
		c0,1.044,0.864,1.477,2.557,1.692v0.072c-2.484,1.907-3.78,3.708-3.78,5.867c0,2.918,2.592,3.926,5.147,3.926
		c3.674,0,9.649-2.269,9.649-7.669c0-3.133-2.304-3.672-4.969-3.853l-3.889-0.252c-1.332-0.072-2.483-0.216-2.483-1.44
		c0-0.648,0.396-1.656,0.864-2.376c0.541,0.181,1.656,0.323,2.268,0.323c3.708,0,6.445-2.16,6.445-6.624
		c0-1.296-0.396-2.952-1.225-3.959l2.845-0.864L305.756,36.562z M293.442,59.279c0-2.088,1.188-4.141,2.63-4.969l2.916,0.252
		c2.771,0.252,4.428,0.648,4.428,3.061c0,3.385-2.772,5.004-6.014,5.004C295.314,62.627,293.442,61.835,293.442,59.279
		 M301.507,42.357c0,3.061-1.007,5.365-3.492,5.365c-2.376,0-3.384-2.305-3.384-5.221c0-3.204,0.973-5.328,3.563-5.328
		C300.932,37.174,301.507,39.37,301.507,42.357 M316.52,46.354c0.146,0,0.146-0.071,0.146-0.252v-1.764c0-0.145,0-0.216-0.146-0.216
		h-7.487c-0.108,0-0.145,0.071-0.145,0.252v1.765c0,0.144,0.036,0.215,0.145,0.215H316.52z M324.045,54.455
		c1.475,0,2.7,0.252,4.392,0.252c4.752,0,7.525-2.521,7.525-6.697c0-4.428-3.421-5.616-6.409-5.868v-0.107
		c2.844-0.36,5.617-2.017,5.617-5.76c0-4.537-3.205-5.617-6.445-5.617c-1.764,0-3.673,0.252-4.824,0.252
		c-1.115,0-2.736-0.036-4.212-0.144c-0.037,0-0.071,0.072-0.071,0.252c0,0.108,0,0.216,0.071,0.288l0.827,0.252
		c1.945,0.612,1.98,0.684,2.018,0.972c0.107,3.132,0.107,7.093,0.107,9.217v0.36c0,2.088,0,7.598-0.107,10.693
		c-0.037,0.324-0.109,0.359-2.053,1.008l-0.757,0.252c-0.072,0.072-0.072,0.181-0.072,0.288c0,0.18,0.037,0.252,0.072,0.252
		C321.201,54.491,322.929,54.455,324.045,54.455 M325.341,42.79h1.26c3.456,0,6.336,0.792,6.336,5.076
		c0,4.86-2.735,5.652-5.688,5.652c-0.541,0-1.188-0.036-1.801-0.18c-0.071-1.188-0.107-7.129-0.107-8.354V42.79z M325.341,38.506
		c0-1.692,0.036-4.789,0.107-6.517c0.828-0.108,1.188-0.144,2.196-0.144c2.521,0,4.464,1.008,4.464,4.717
		c0,4.248-2.844,5.004-5.327,5.004h-1.44V38.506z M351.802,52.115c-0.071,0-0.144,0.035-0.288,0.144
		c-1.008,0.756-2.088,1.116-3.384,1.116c-4.032,0-5.761-3.457-5.761-7.813c0-0.359,0-0.576,0.036-0.972h9.181
		c0.684,0,0.972-0.324,0.972-1.296c0-3.348-0.972-7.164-5.616-7.164c-5.364,0-7.417,5.004-7.417,9.756
		c0,5.473,2.376,9.289,7.057,9.289c2.449,0,4.104-0.972,5.437-2.304c0.108-0.109,0.145-0.181,0.145-0.252
		C352.162,52.438,351.91,52.115,351.802,52.115 M349.642,42.897c0,0.288-0.072,0.36-0.576,0.396l-6.589,0.252
		c0.182-3.384,1.369-6.372,4.032-6.372c2.917,0,3.133,2.808,3.133,5.472V42.897z M360.047,44.158c0-2.844,1.584-5.581,3.636-5.581
		c0.864,0,1.188,0.18,1.512,0.648h0.288l0.181-2.772c0-0.216-0.288-0.324-1.044-0.324c-1.908,0-3.421,1.764-4.572,4.104h-0.109
		l0.072-3.312c0-0.18-0.035-0.36-0.287-0.36c-1.44,0.216-3.133,0.324-4.753,0.324c-0.072,0-0.108,0.144-0.108,0.252
		c0,0.072,0,0.18,0.108,0.252l1.08,0.324c1.188,0.36,1.225,0.396,1.296,0.864c0.072,1.188,0.109,3.852,0.109,6.696v0.36
		c0,3.168,0,6.697-0.073,7.417c-0.036,0.216-0.107,0.288-1.835,0.864l-0.649,0.216c-0.07,0.036-0.07,0.144-0.07,0.252
		c0,0.072,0,0.216,0.07,0.216c1.296-0.107,2.306-0.144,3.673-0.144c1.332,0,2.7,0.036,3.961,0.144c0.035,0,0.071-0.144,0.071-0.216
		c0-0.108,0-0.216-0.071-0.252l-0.686-0.216c-1.656-0.504-1.69-0.612-1.727-0.864c-0.036-0.72-0.072-3.385-0.072-4.932V44.158z
		 M379.848,54.095c0,0.324,0.072,0.468,0.18,0.468c0.433-0.071,1.152-0.107,1.729-0.107c0.972,0,2.124,0.071,3.025,0.144
		c0.07,0,0.106-0.072,0.106-0.252c0-0.107-0.036-0.252-0.106-0.288l-1.405-0.468c-0.792-0.252-0.864-0.468-0.9-0.864
		c-0.036-1.26-0.071-3.133-0.071-5.221v-1.872c0-3.168,0.107-7.056,0.287-8.712c0-0.216-0.035-0.36-0.216-0.36
		c-1.439,0.216-3.312,0.324-5.256,0.324c-0.072,0-0.109,0.072-0.109,0.252c0,0.108,0.037,0.216,0.109,0.252l1.332,0.396
		c0.972,0.324,1.152,0.432,1.188,0.756c0.035,0.72,0.035,3.708,0.035,5.112v4.607c0,3.097-1.619,5.257-4.14,5.257
		c-3.096,0-3.313-2.628-3.313-5.399v-2.485c0-3.456,0.145-7.92,0.217-8.712c0-0.18-0.037-0.36-0.217-0.36
		c-1.549,0.216-3.313,0.324-5.257,0.324c-0.071,0-0.107,0.072-0.107,0.252c0,0.108,0.036,0.216,0.107,0.252l1.368,0.36
		c1.08,0.288,1.116,0.396,1.152,0.792c0.036,0.72,0.072,3.708,0.072,5.112v0.756c0,3.096-0.072,4.932-0.072,6.048
		c0,3.961,2.7,4.681,4.752,4.681c2.161,0,4.177-1.008,5.437-3.312h0.072V54.095z M392.304,53.051
		c-0.072-0.72-0.108-2.232-0.108-7.597V38.11h2.989c0.108,0,0.145-0.072,0.145-0.252v-0.756c0-0.144-0.036-0.216-0.145-0.216h-2.989
		v-2.701c0-4.176,0.865-5.976,3.17-5.976c0.503,0,0.611,0.144,1.476,2.88l0.18,0.576c0.036,0.108,0.072,0.18,0.145,0.18h0.252
		c0.107,0,0.144-0.072,0.144-0.144l0.324-3.96c0-0.144,0-0.18-0.072-0.216c-0.685-0.144-1.584-0.216-2.376-0.216
		c-2.269,0-6.049,1.296-6.049,5.652c0,1.8,0.072,2.557,0.072,3.925h-2.664c-0.072,0-0.108,0.072-0.108,0.216v0.756
		c0,0.18,0.036,0.252,0.108,0.252h2.664v7.344c0,5.364-0.036,6.805-0.072,7.597c-0.072,0.216-0.107,0.288-1.836,0.864l-0.647,0.216
		c-0.108,0.036-0.108,0.144-0.108,0.252c0,0.072,0,0.216,0.108,0.216c1.296-0.107,2.341-0.144,3.707-0.144
		c1.333,0,2.952,0.036,4.213,0.144c0.072,0,0.072-0.144,0.072-0.216c0-0.108,0-0.216-0.072-0.252l-0.684-0.216
		C392.484,53.411,392.341,53.303,392.304,53.051 M401.195,55.175c4.646,0,6.59-2.664,6.59-5.544c0-2.844-1.692-3.961-4.141-5.329
		c-1.908-1.116-3.384-2.088-3.384-4.068c0-2.232,1.692-2.988,3.348-2.988c1.188,0,1.656,0.18,1.908,0.612
		c0.288,0.504,0.864,2.16,1.116,3.132l0.108,0.396c0.035,0.072,0.107,0.072,0.323,0.072c0.181,0,0.252-0.036,0.252-0.108
		c0-0.972,0.108-2.952,0.181-4.428c0-0.144,0-0.18-0.072-0.216c-1.044-0.252-2.412-0.468-3.672-0.468
		c-3.96,0-5.905,2.376-5.905,4.896c0,2.7,1.585,3.96,3.565,5.076c2.304,1.296,4.031,2.34,4.031,4.608c0,2.376-2.016,3.24-3.888,3.24
		c-1.549,0-1.945-0.144-2.341-1.008c-0.252-0.612-0.72-2.124-0.899-2.917l-0.107-0.468c-0.037-0.072-0.109-0.072-0.288-0.072
		c-0.146,0-0.289,0.037-0.289,0.109c0,0.61-0.18,3.384-0.324,4.788c0,0.144,0.072,0.18,0.145,0.216
		C398.533,55.031,399.829,55.175,401.195,55.175 M415.524,53.051c-0.071-0.72-0.107-4.249-0.107-7.417v-0.9
		c2.7,3.204,6.337,7.922,6.337,8.317c0,0.36-0.072,0.396-1.332,0.9l-0.469,0.18c-0.072,0.036-0.107,0.144-0.107,0.252
		c0,0.072,0.035,0.216,0.107,0.216c1.477-0.144,2.341-0.144,3.637-0.144s2.088,0,3.384,0.144c0.072,0,0.109-0.144,0.109-0.216
		c0-0.108,0-0.216-0.109-0.252l-0.359-0.145c-0.612-0.252-1.225-0.575-1.584-0.936c-0.576-0.612-4.608-6.013-7.13-9.217
		c2.053-1.765,3.89-3.456,5.905-5.22c0.685-0.612,1.296-0.9,2.017-1.188l0.541-0.216c0.07-0.036,0.106-0.144,0.106-0.252
		c0-0.072-0.036-0.216-0.106-0.216c-0.793,0.108-1.945,0.144-3.025,0.144c-0.937,0-2.34-0.072-3.313-0.144
		c-0.072,0-0.107,0.144-0.107,0.216c0,0.108,0,0.216,0.107,0.252l0.36,0.108c1.188,0.36,1.476,0.54,1.476,0.9
		c0,0.432-2.34,2.7-6.444,6.228v-0.287c0-8.75,0.073-14.941,0.145-16.454c0-0.18,0-0.36-0.18-0.36
		c-1.513,0.216-3.313,0.324-5.005,0.324c-0.072,0-0.108,0.144-0.108,0.252c0,0.072,0,0.18,0.108,0.252l1.008,0.324
		c1.26,0.396,1.332,0.432,1.368,1.008c0.072,1.188,0.108,7.057,0.108,15.769v0.36c0,3.168-0.036,6.697-0.108,7.417
		c-0.036,0.216-0.108,0.288-1.836,0.864l-0.648,0.216c-0.071,0.036-0.071,0.144-0.071,0.252c0,0.072,0,0.216,0.071,0.216
		c1.296-0.107,2.305-0.144,3.672-0.144c1.332,0,2.521,0.036,3.78,0.144c0.037,0,0.073-0.144,0.073-0.216
		c0-0.108,0-0.216-0.073-0.252l-0.646-0.216C415.634,53.411,415.562,53.303,415.524,53.051 M442.42,44.842
		c0-5.148-2.484-8.712-7.093-8.712c-4.97,0-7.38,4.392-7.38,9.937c0,5.4,2.628,9.108,7.271,9.108
		C440.547,55.175,442.42,49.847,442.42,44.842 M430.935,45.454c0-4.392,1.116-8.208,4.248-8.208c3.672,0,4.248,4.968,4.248,8.388
		c0,3.384-0.504,8.353-3.924,8.353C432.23,53.986,430.935,50.603,430.935,45.454 M450.268,53.051
		c-0.036-0.72-0.107-4.249-0.107-7.417v-0.36c0-8.748,0.107-16.057,0.18-17.569c0-0.18,0-0.36-0.216-0.36
		c-1.44,0.216-3.456,0.324-5.148,0.324c-0.036,0-0.073,0.144-0.073,0.252c0,0.072,0,0.18,0.073,0.252l1.008,0.324
		c1.261,0.396,1.332,0.432,1.368,1.008c0.072,1.188,0.108,7.057,0.108,15.769v0.36c0,3.168-0.036,6.697-0.108,7.417
		c-0.036,0.216-0.107,0.288-1.836,0.864l-0.647,0.216c-0.072,0.036-0.072,0.144-0.072,0.252c0,0.072,0,0.216,0.072,0.216
		c1.296-0.107,2.304-0.144,3.672-0.144c1.332,0,2.88,0.036,4.14,0.144c0.036,0,0.072-0.144,0.072-0.216c0-0.108,0-0.216-0.072-0.252
		l-0.684-0.216C450.34,53.411,450.304,53.303,450.268,53.051 M459.771,53.051c-0.035-0.72-0.106-4.249-0.106-7.417v-0.36
		c0-8.748,0.106-16.057,0.179-17.569c0-0.18,0-0.36-0.216-0.36c-1.44,0.216-3.455,0.324-5.148,0.324
		c-0.036,0-0.071,0.144-0.071,0.252c0,0.072,0,0.18,0.071,0.252l1.009,0.324c1.26,0.396,1.331,0.432,1.367,1.008
		c0.072,1.188,0.109,7.057,0.109,15.769v0.36c0,3.168-0.037,6.697-0.109,7.417c-0.036,0.216-0.107,0.288-1.836,0.864l-0.647,0.216
		c-0.072,0.036-0.072,0.144-0.072,0.252c0,0.072,0,0.216,0.072,0.216c1.296-0.107,2.304-0.144,3.672-0.144
		c1.332,0,2.881,0.036,4.141,0.144c0.036,0,0.072-0.144,0.072-0.216c0-0.108,0-0.216-0.072-0.252l-0.684-0.216
		C459.844,53.411,459.809,53.303,459.771,53.051 M476.586,52.115c-0.072,0-0.145,0.035-0.289,0.144
		c-1.008,0.756-2.087,1.116-3.384,1.116c-4.032,0-5.761-3.457-5.761-7.813c0-0.359,0-0.576,0.036-0.972h9.181
		c0.685,0,0.972-0.324,0.972-1.296c0-3.348-0.972-7.164-5.616-7.164c-5.365,0-7.417,5.004-7.417,9.756
		c0,5.473,2.376,9.289,7.058,9.289c2.448,0,4.104-0.972,5.436-2.304c0.109-0.109,0.144-0.181,0.144-0.252
		C476.944,52.438,476.692,52.115,476.586,52.115 M474.425,42.897c0,0.288-0.072,0.36-0.576,0.396l-6.588,0.252
		c0.18-3.384,1.368-6.372,4.032-6.372c2.917,0,3.132,2.808,3.132,5.472V42.897z M494.334,36.562l-3.995,0.324
		c-1.045-0.54-2.521-0.756-3.457-0.756c-3.888,0-6.408,2.628-6.408,6.588c0,2.592,1.007,4.572,2.916,5.508
		c-1.369,1.368-2.376,2.989-2.376,4.213c0,1.044,0.863,1.477,2.556,1.692v0.072c-2.484,1.907-3.78,3.708-3.78,5.867
		c0,2.918,2.593,3.926,5.148,3.926c3.672,0,9.648-2.269,9.648-7.669c0-3.133-2.304-3.672-4.968-3.853l-3.889-0.252
		c-1.332-0.072-2.483-0.216-2.483-1.44c0-0.648,0.396-1.656,0.863-2.376c0.54,0.181,1.656,0.323,2.269,0.323
		c3.708,0,6.445-2.16,6.445-6.624c0-1.296-0.396-2.952-1.225-3.959l2.844-0.864L494.334,36.562z M482.021,59.279
		c0-2.088,1.189-4.141,2.629-4.969l2.916,0.252c2.773,0.252,4.43,0.648,4.43,3.061c0,3.385-2.773,5.004-6.014,5.004
		C483.894,62.627,482.021,61.835,482.021,59.279 M490.086,42.357c0,3.061-1.008,5.365-3.492,5.365c-2.376,0-3.384-2.305-3.384-5.221
		c0-3.204,0.972-5.328,3.563-5.328C489.51,37.174,490.086,39.37,490.086,42.357"/>
  </g>
</svg>
