<svg xmlns="http://www.w3.org/2000/svg" viewBox="0 0 13 13">
  <style type="text/css">
    .path{fill:#666;}
  </style>  
  <path class="path" d="M0.4,10.9c-0.5,0.5-0.5,1.2,0,1.7c0.2,0.2,0.5,0.4,0.8,0.4c0.3,0,0.6-0.1,0.9-0.4l3.9-3.9L4.4,6.9L0.4,10.9z M10.3,3.6L12,2.7l0.9-1.7l-0.8-0.8L10.3,1L9.4,2.7L7.3,4.8l0.8,0.8L10.3,3.6z M10.6,8.1l-0.2,0c-0.3,0-0.6,0.1-0.8,0.2L4.7,3.3 c0.1-0.3,0.2-0.5,0.2-0.8l0-0.2C4.8,1.1,3.8,0.1,2.5,0.1c-0.4,0-0.7,0.1-1,0.2l1.6,1.6C3.1,2,3.2,2.1,3.2,2.2 c0.1,0.3,0.1,0.6-0.2,0.8C2.9,3.2,2.7,3.3,2.5,3.3c-0.1,0-0.2,0-0.3-0.1C2.1,3.2,2,3.1,1.9,3.1L0.3,1.5c-0.2,0.3-0.2,0.7-0.2,1 c0,1.3,1,2.3,2.2,2.4l0.2,0c0.3,0,0.6-0.1,0.8-0.2l4.9,4.9c-0.1,0.3-0.2,0.5-0.2,0.8l0,0.2c0.1,1.2,1.1,2.2,2.4,2.2 c0.4,0,0.7-0.1,1-0.2l-1.6-1.6c-0.1-0.1-0.1-0.2-0.2-0.3c-0.1-0.3,0-0.6,0.2-0.8c0.2-0.2,0.4-0.2,0.6-0.2c0.1,0,0.2,0,0.3,0.1 c0.1,0,0.2,0.1,0.3,0.2l1.6,1.6c0.1-0.3,0.2-0.7,0.2-1C12.9,9.2,11.9,8.2,10.6,8.1L10.6,8.1z"/>
</svg>
