<?xml version="1.0" encoding="utf-8"?>
<svg version="1.1" id="Ebene_1" xmlns="http://www.w3.org/2000/svg" xmlns:xlink="http://www.w3.org/1999/xlink" x="0px" y="0px"
	 viewBox="0 0 12.8 12.8" style="enable-background:new 0 0 12.8 12.8;" xml:space="preserve">
<style type="text/css">
	.st0{fill-rule:evenodd;clip-rule:evenodd;fill:#989898;}
</style>
<path class="st0" d="M0,12.8C0,8.5,0,4.3,0,0c4.3,0,8.5,0,12.8,0c0,4.3,0,8.5,0,12.8C8.5,12.8,4.3,12.8,0,12.8z M12.6,12.6
	c0-4.1,0-8.3,0-12.4c-4.1,0-8.2,0-12.4,0c0,4.1,0,8.3,0,12.4C4.3,12.6,8.5,12.6,12.6,12.6z M6.5,0.5c0,1.5,0,2.9,0,4.4
	c0.1,0,0.3,0,0.4,0c0,0,0.1,0,0.1,0c0.3,0.3,0.7,0.5,1,0.8C8.3,5.9,8.5,6,8.8,6.2C8.5,6.6,8.2,7,8.1,7.5c0,0,0-0.1,0-0.1
	C7.8,6.9,7.5,6.4,7.2,5.8c0,0,0-0.1-0.1-0.1C6.9,5.8,6.7,5.9,6.6,6c0,0,0,0.1,0,0.1c0,0.7,0.1,1.4,0.4,2c0,0.1,0.1,0.3,0.2,0.4
	c0,0,0,0,0,0c0.4-0.1,0.9-0.3,1.3-0.4c0,0,0,0,0.1-0.1c0-0.2,0-0.4,0.1-0.5C8.6,7,8.9,6.7,9.2,6.3c0.3-0.3,0.7-0.6,1.1-1
	c0.2-0.2,0.5-0.5,0.6-0.7c0.1-0.1,0.1-0.3,0.2-0.5c0.1,0,0.1,0,0.2,0c0.4,0,0.7-0.3,0.8-0.6c0.1-0.2,0-0.4-0.2-0.3c0,0,0,0-0.1,0
	c0,0.1-0.1,0.1-0.1,0.2c-0.1,0.2-0.3,0.3-0.5,0.3c-0.3,0-0.5,0-0.8,0c-0.2,0-0.4,0-0.6,0C9.7,3.8,9.6,3.9,9.5,4
	C9.5,4.2,9.4,4.3,9.2,4.3c-0.2,0-0.4,0-0.7-0.1c0,0,0.1-0.1,0.1-0.1c0,0,0.1,0,0.1-0.1c0.1,0,0.1,0,0.2-0.1C9.1,4,9.1,3.8,9,3.8
	C8.9,3.7,8.8,3.7,8.7,3.7c-0.1,0-0.2,0-0.2,0.1c0,0.1,0,0.1-0.1,0.1c0,0-0.1,0-0.1,0.1c0,0,0,0-0.1,0C8.1,4,8,3.9,8,3.8
	c0.1,0,0.2-0.1,0.2-0.2c0-0.1-0.1-0.2-0.2-0.2c0,0,0,0,0-0.1C8,3.2,8.1,3.1,8.2,3c0.3-0.2,0.6-0.5,0.9-0.7C9.3,2.1,9.5,2,9.7,1.9
	c0.2-0.2,0.5-0.3,0.8-0.5c0,0,0.1,0,0.1-0.1c0-0.1,0-0.2,0-0.3c0-0.2,0-0.3,0.1-0.5C9.2,0.5,7.9,0.5,6.5,0.5z M0.9,6.1
	c0.4-0.3,0.9-0.5,1.3-0.8c0.6-0.4,1.1-1,1.5-1.7c0.2-0.5,0.4-1,0.5-1.5C4.4,1.6,4.5,1,4.8,0.5c0,0,0,0,0,0c-1.4,0-2.9,0-4.3,0
	c0,2,0,3.9,0,5.9C0.6,6.3,0.7,6.2,0.9,6.1z M0.5,12.3c0.1,0,0.2,0,0.3,0c0.7-0.1,1.3-0.3,1.9-0.6C4.1,11,5,10,5.7,8.7
	C6,8,6.2,7.2,6.3,6.4c0-0.4,0-0.8,0-1.2c0,0,0,0,0,0c0,0.1-0.1,0.2-0.1,0.2C6,5.8,5.7,6.1,5.4,6.4C5.1,6.8,4.7,7,4.3,7.3
	C3.8,7.6,3.4,7.8,2.9,8.1C2.5,8.3,2.2,8.7,1.9,9c-0.3,0.5-0.6,1-0.8,1.5C0.9,11.1,0.7,11.7,0.5,12.3C0.5,12.3,0.5,12.3,0.5,12.3
	C0.5,12.3,0.5,12.3,0.5,12.3z M6.5,12.3c-0.3,0-0.7,0-1,0c0,0-0.1,0-0.1-0.1c-0.1-0.1-0.1-0.2-0.1-0.3c0-0.1,0.1-0.2,0.2-0.2
	c0,0,0-0.1,0-0.1c0,0,0-0.1-0.1-0.1c-0.2,0-0.3-0.1-0.4-0.3c0-0.3,0-0.6,0.3-0.8c0.1-0.1,0.3-0.2,0.5,0c0,0,0.1,0,0.1,0
	c0,0,0.1,0,0-0.1C5.8,10.1,5.8,10,6,9.9c0.3-0.2,0.7-0.2,1,0c0.1,0.1,0.2,0.2,0.1,0.4c0,0,0,0.1,0,0.1c0,0,0.1,0,0.1,0
	c0.1-0.1,0.3-0.1,0.4,0C7.9,10.6,8,11,7.9,11.3c-0.1,0.1-0.2,0.3-0.3,0.2c-0.1,0-0.1,0-0.1,0.1c0,0,0,0.1,0,0.1
	c0.2,0.1,0.2,0.2,0.1,0.4c0,0,0,0,0,0c-0.1,0.2-0.1,0.2-0.2,0.2C7.1,12.3,6.8,12.3,6.5,12.3z M7.2,11.3c0-0.4-0.4-0.8-0.8-0.8
	c-0.4,0-0.8,0.4-0.8,0.8c0,0.4,0.4,0.8,0.8,0.8C6.9,12.1,7.2,11.7,7.2,11.3z M11.7,12.2C11.7,12.2,11.7,12.2,11.7,12.2
	c-0.3-0.3-0.6-0.5-0.9-0.7c-0.3-0.2-0.7-0.4-1-0.6c-0.4-0.3-0.7-0.6-0.9-1c0,0,0-0.1,0-0.1c0.3,0,0.6,0,0.8,0c0.3,0,0.6-0.1,0.8-0.4
	c0-0.1,0.1-0.1,0.1-0.2c0-0.1,0-0.3-0.1-0.3c-0.1,0-0.1,0-0.2,0.1c-0.1,0.3-0.3,0.4-0.6,0.4c-0.4,0-0.8,0-1.2-0.1
	c-0.3,0-0.6,0-0.8,0c0,0,0,0-0.1,0c0,0,0,0,0,0.1c0.2,0.4,0.5,0.7,0.8,1c0.7,0.7,1.6,1.3,2.6,1.6C11.2,12.1,11.4,12.2,11.7,12.2
	C11.7,12.2,11.7,12.2,11.7,12.2z M12.3,1c0-0.2,0-0.4,0-0.5c-0.5,0-0.9,0-1.4,0C11,0.5,11,0.6,11.1,0.7c0.2,0.2,0.3,0.5,0.2,0.8
	c0,0.1,0,0.1,0.1,0.1c0,0,0.1,0,0.1,0c0.2,0,0.3-0.1,0.3-0.3c0-0.1,0-0.3,0-0.4C11.9,0.9,12.1,1,12.3,1z M10,2.2
	c-0.2,0-0.3,0.1-0.3,0.2c0,0,0,0,0,0.1C9.8,2.6,9.9,2.6,10,2.6c0.1,0,0.2-0.1,0.4-0.1C10.2,2.3,10.1,2.2,10,2.2z M7.9,12.1
	C8,12,8.1,12,8.2,11.9c0,0,0,0,0,0c0-0.1-0.1-0.3-0.2-0.3c-0.1,0.1-0.2,0.2-0.2,0.2C7.8,11.8,7.9,11.9,7.9,12.1z M7.3,10.1
	c0.1,0,0.2,0,0.3,0c0-0.1,0-0.3-0.1-0.4c0,0,0,0,0,0c-0.1,0-0.3,0-0.4,0.1C7.2,9.9,7.3,10,7.3,10.1z M5.4,9.8
	C5.4,9.8,5.3,9.8,5.4,9.8C5.3,9.9,5.3,10,5.3,10.2c0.1,0,0.2,0,0.3,0c0-0.1,0.1-0.2,0.1-0.3C5.6,9.8,5.5,9.7,5.4,9.8z M5.1,11.7
	c-0.1-0.1-0.2-0.2-0.2-0.2c-0.1,0.1-0.1,0.2-0.2,0.3c0,0,0,0,0,0.1C4.8,12,4.9,12,5,12.1C5,11.9,5.1,11.8,5.1,11.7z M5.9,11.3
	c0,0.3,0.2,0.5,0.5,0.5c0.3,0,0.5-0.2,0.5-0.5c0-0.3-0.2-0.5-0.5-0.5C6.2,10.8,5.9,11,5.9,11.3z"/>
</svg>
